<?xml version="1.0" encoding="utf-8" standalone="no"?>
<!DOCTYPE svg PUBLIC "-//W3C//DTD SVG 1.1//EN"
  "http://www.w3.org/Graphics/SVG/1.1/DTD/svg11.dtd">
<svg xmlns:xlink="http://www.w3.org/1999/xlink" width="1382.4pt" height="764.711719pt" viewBox="0 0 1382.4 764.711719" xmlns="http://www.w3.org/2000/svg" version="1.1">
 <metadata>
  <rdf:RDF xmlns:dc="http://purl.org/dc/elements/1.1/" xmlns:cc="http://creativecommons.org/ns#" xmlns:rdf="http://www.w3.org/1999/02/22-rdf-syntax-ns#">
   <cc:Work>
    <dc:type rdf:resource="http://purl.org/dc/dcmitype/StillImage"/>
    <dc:format>image/svg+xml</dc:format>
    <dc:creator>
     <cc:Agent>
      <dc:title>Matplotlib v3.10.3, https://matplotlib.org/</dc:title>
     </cc:Agent>
    </dc:creator>
   </cc:Work>
  </rdf:RDF>
 </metadata>
 <defs>
  <style type="text/css">*{stroke-linejoin: round; stroke-linecap: butt}</style>
 </defs>
 <g id="figure_1">
  <g id="patch_1">
   <path d="M 0 764.711719
L 1382.4 764.711719
L 1382.4 0
L 0 0
z
" style="fill: #ffffff"/>
  </g>
  <g id="axes_1">
   <g id="text_1">
    <text style="font-weight: 700; font-size: 15px; font-family: 'DejaVu Sans'; text-anchor: start; fill: #111827" x="7.2" y="108.72" transform="rotate(-0 7.2 108.72)">XGI native hyperedge-hull view</text>
   </g>
   <g id="PatchCollection_1">
    <path d="M 568.015286 305.741601
L 567.914217 304.672396
L 567.74621 303.611646
L 567.511931 302.563539
L 551.464685 237.116032
L 551.165057 236.084704
L 550.801262 235.074224
L 550.374736 234.088582
L 549.887163 233.131666
L 549.340467 232.207253
L 548.736805 231.318992
L 548.07856 230.470388
L 547.36833 229.66479
L 546.608917 228.905377
L 486.865487 175.543124
L 486.059889 174.832893
L 485.211285 174.174648
L 484.323024 173.570987
L 483.398611 173.02429
L 482.441695 172.536717
L 481.456052 172.110192
L 480.445573 171.746397
L 479.414244 171.446768
L 478.366137 171.212488
L 477.305388 171.044482
L 399.181 159.56234
L 398.111795 159.46127
L 397.038353 159.427536
L 307.75879 157.891833
L 306.685348 157.925568
L 305.616143 158.026637
L 304.555393 158.194643
L 303.507286 158.428923
L 302.475958 158.728552
L 301.465478 159.092347
L 300.479835 159.518872
L 299.52292 160.006445
L 298.598507 160.553142
L 297.710246 161.156803
L 296.861641 161.815048
L 296.056043 162.525279
L 295.29663 163.284691
L 294.5864 164.090289
L 293.928155 164.938894
L 293.324493 165.827155
L 292.777797 166.751568
L 292.290224 167.708484
L 291.863699 168.694126
L 258.985081 251.116275
L 258.621286 252.126755
L 258.321657 253.158083
L 242.845 307.576095
L 217.825977 402.426567
L 217.591697 403.474674
L 217.423691 404.535424
L 217.322621 405.604629
L 217.288887 406.678071
L 217.322621 407.751513
L 217.423691 408.820719
L 217.591697 409.881468
L 217.825977 410.929575
L 218.125605 411.960903
L 218.4894 412.971383
L 218.915926 413.957026
L 219.403499 414.913941
L 219.950195 415.838354
L 220.553857 416.726615
L 221.212102 417.57522
L 221.922332 418.380818
L 222.681745 419.140231
L 223.487343 419.850461
L 224.335947 420.508706
L 225.224209 421.112368
L 226.148621 421.659064
L 317.291589 469.816587
L 318.248505 470.30416
L 319.234148 470.730686
L 320.244627 471.094481
L 370.14809 488.403144
L 371.179418 488.702773
L 372.227525 488.937053
L 373.288275 489.105059
L 374.35748 489.206128
L 375.430922 489.239863
L 376.504364 489.206128
L 377.573569 489.105059
L 460.34618 480.52369
L 461.40693 480.355684
L 462.455037 480.121404
L 463.486365 479.821776
L 464.496845 479.457981
L 465.482487 479.031455
L 466.439403 478.543882
L 565.188578 421.828417
L 566.11299 421.28172
L 567.001252 420.678059
L 567.849856 420.019814
L 568.655454 419.309583
L 569.414867 418.550171
L 570.125097 417.744572
L 570.783342 416.895968
L 571.387004 416.007707
L 571.9337 415.083294
L 572.421273 414.126378
L 572.847799 413.140736
L 573.211594 412.130256
L 573.511222 411.098928
L 573.745502 410.050821
L 573.913508 408.990071
L 574.014578 407.920866
L 574.048312 406.847424
L 574.014578 405.773982
z
" clip-path="url(#pc554e67f7a)" style="fill: #f59e0b; fill-opacity: 0.13; stroke: #d97706; stroke-opacity: 0.13; stroke-width: 0.8"/>
    <path d="M 129.753981 359.431047
L 532.463732 520.797005
L 533.474212 521.1608
L 534.50554 521.460429
L 535.553647 521.694709
L 536.614397 521.862715
L 537.683602 521.963784
L 538.757044 521.997519
L 539.830486 521.963784
L 540.899692 521.862715
L 541.960441 521.694709
L 543.008548 521.460429
L 544.039877 521.1608
L 545.050356 520.797005
L 546.035999 520.37048
L 546.992915 519.882907
L 547.917327 519.33621
L 548.805589 518.732549
L 549.654193 518.074304
L 550.459791 517.364073
L 551.219204 516.604661
L 551.929434 515.799063
L 552.587679 514.950458
L 553.191341 514.062197
L 553.738037 513.137784
L 554.22561 512.180868
L 554.652135 511.195226
L 555.01593 510.184746
L 555.315559 509.153418
L 555.549839 508.105311
L 555.717845 507.044561
L 555.818915 505.975356
L 568.015286 307.888485
L 568.049021 306.815043
L 568.015286 305.741601
L 567.914217 304.672396
L 567.74621 303.611646
L 567.511931 302.563539
L 551.464685 237.116032
L 551.165057 236.084704
L 550.801262 235.074224
L 550.374736 234.088582
L 549.887163 233.131666
L 549.340467 232.207253
L 548.736805 231.318992
L 548.07856 230.470388
L 547.36833 229.66479
L 546.608917 228.905377
L 486.865487 175.543124
L 486.059889 174.832893
L 485.211285 174.174648
L 484.323024 173.570987
L 483.398611 173.02429
L 482.441695 172.536717
L 481.456052 172.110192
L 480.445573 171.746397
L 479.414244 171.446768
L 478.366137 171.212488
L 477.305388 171.044482
L 399.181 159.56234
L 398.111795 159.46127
L 397.038353 159.427536
L 307.75879 157.891833
L 306.685348 157.925568
L 305.616143 158.026637
L 304.555393 158.194643
L 303.507286 158.428923
L 302.475958 158.728552
L 301.465478 159.092347
L 300.479835 159.518872
L 299.52292 160.006445
L 298.598507 160.553142
L 297.710246 161.156803
L 296.861641 161.815048
L 296.056043 162.525279
L 124.344546 331.073796
L 123.585133 331.833209
L 122.874903 332.638807
L 122.216658 333.487411
L 121.612996 334.375672
L 121.0663 335.300085
L 120.578727 336.257001
L 120.152201 337.242643
L 119.788406 338.253123
L 119.488778 339.284451
L 119.254498 340.332558
L 119.086492 341.393308
L 118.985422 342.462513
L 118.951688 343.535955
L 118.985422 344.609397
L 119.086492 345.678603
L 119.254498 346.739352
L 119.488778 347.787459
L 119.788406 348.818788
L 120.152201 349.829267
L 120.578727 350.81491
L 121.0663 351.771826
L 121.612996 352.696238
L 122.216658 353.5845
L 122.874903 354.433104
L 123.585133 355.238702
L 124.344546 355.998115
L 125.150144 356.708345
L 125.998748 357.36659
L 126.88701 357.970252
L 127.811422 358.516948
L 128.768338 359.004521
z
" clip-path="url(#pc554e67f7a)" style="fill: #f59e0b; fill-opacity: 0.13; stroke: #d97706; stroke-opacity: 0.13; stroke-width: 0.8"/>
    <path d="M 565.387712 297.65476
L 489.597037 178.845
L 488.993375 177.956739
L 488.33513 177.108134
L 487.6249 176.302536
L 486.865487 175.543124
L 486.059889 174.832893
L 485.211285 174.174648
L 484.323024 173.570987
L 483.398611 173.02429
L 482.441695 172.536717
L 481.456052 172.110192
L 480.445573 171.746397
L 479.414244 171.446768
L 478.366137 171.212488
L 477.305388 171.044482
L 399.181 159.56234
L 398.111795 159.46127
L 397.038353 159.427536
L 395.964911 159.46127
L 394.895705 159.56234
L 148.545865 191.15883
L 147.485116 191.326836
L 146.437008 191.561116
L 145.40568 191.860744
L 144.395201 192.224539
L 143.409558 192.651065
L 142.452642 193.138638
L 141.528229 193.685334
L 140.639968 194.288996
L 139.791364 194.947241
L 138.985766 195.657471
L 138.226353 196.416884
L 137.516123 197.222482
L 136.857878 198.071086
L 136.254216 198.959347
L 135.70752 199.88376
L 135.219947 200.840676
L 134.793421 201.826319
L 134.429626 202.836798
L 134.129998 203.868126
L 133.895718 204.916234
L 133.727712 205.976983
L 133.626642 207.046189
L 133.592908 208.119631
L 133.626642 209.193072
L 133.727712 210.262278
L 133.895718 211.323027
L 134.129998 212.371135
L 134.429626 213.402463
L 134.793421 214.412942
L 135.219947 215.398585
L 135.70752 216.355501
L 136.254216 217.279914
L 136.857878 218.168175
L 311.696825 464.884139
L 312.35507 465.732743
L 313.0653 466.538341
L 313.824713 467.297754
L 314.630311 468.007984
L 315.478915 468.666229
L 316.367177 469.269891
L 317.291589 469.816587
L 318.248505 470.30416
L 319.234148 470.730686
L 320.244627 471.094481
L 370.14809 488.403144
L 371.179418 488.702773
L 372.227525 488.937053
L 373.288275 489.105059
L 374.35748 489.206128
L 375.430922 489.239863
L 376.504364 489.206128
L 377.573569 489.105059
L 460.34618 480.52369
L 461.40693 480.355684
L 462.455037 480.121404
L 463.486365 479.821776
L 464.496845 479.457981
L 465.482487 479.031455
L 466.439403 478.543882
L 467.363816 477.997186
L 468.252077 477.393524
L 469.100681 476.735279
L 469.906279 476.025049
L 470.665692 475.265636
L 471.375923 474.460038
L 472.034167 473.611434
L 472.637829 472.723173
L 565.387712 315.975326
L 565.934409 315.050913
L 566.421982 314.093997
L 566.848507 313.108355
L 567.212302 312.097875
L 567.511931 311.066547
L 567.74621 310.01844
L 567.914217 308.95769
L 568.015286 307.888485
L 568.049021 306.815043
L 568.015286 305.741601
L 567.914217 304.672396
L 567.74621 303.611646
L 567.511931 302.563539
L 567.212302 301.532211
L 566.848507 300.521731
L 566.421982 299.536089
L 565.934409 298.579173
z
" clip-path="url(#pc554e67f7a)" style="fill: #f59e0b; fill-opacity: 0.13; stroke: #d97706; stroke-opacity: 0.13; stroke-width: 0.8"/>
    <path d="M 133.727712 205.976983
L 119.086492 341.393308
L 118.985422 342.462513
L 118.951688 343.535955
L 118.985422 344.609397
L 119.086492 345.678603
L 119.254498 346.739352
L 119.488778 347.787459
L 119.788406 348.818788
L 120.152201 349.829267
L 120.578727 350.81491
L 121.0663 351.771826
L 121.612996 352.696238
L 122.216658 353.5845
L 122.874903 354.433104
L 123.585133 355.238702
L 124.344546 355.998115
L 125.150144 356.708345
L 125.998748 357.36659
L 126.88701 357.970252
L 225.224209 421.112368
L 226.148621 421.659064
L 317.291589 469.816587
L 318.248505 470.30416
L 319.234148 470.730686
L 320.244627 471.094481
L 370.14809 488.403144
L 371.179418 488.702773
L 372.227525 488.937053
L 373.288275 489.105059
L 374.35748 489.206128
L 375.430922 489.239863
L 376.504364 489.206128
L 377.573569 489.105059
L 378.634319 488.937053
L 379.682426 488.702773
L 380.713754 488.403144
L 381.724234 488.039349
L 382.709876 487.612824
L 383.666792 487.125251
L 384.591205 486.578554
L 385.479466 485.974893
L 386.328071 485.316648
L 387.133669 484.606418
L 387.893082 483.847005
L 388.603312 483.041407
L 389.261557 482.192802
L 389.865218 481.304541
L 461.404608 368.769637
L 461.951304 367.845224
L 462.438877 366.888308
L 462.865402 365.902665
L 463.229197 364.892186
L 463.528826 363.860858
L 463.763106 362.81275
L 463.931112 361.752001
L 464.032182 360.682795
L 464.065916 359.609354
L 464.032182 358.535912
L 463.931112 357.466706
L 457.072899 290.651855
L 456.904893 289.591105
L 456.670614 288.542998
L 456.370985 287.51167
L 456.00719 286.50119
L 455.580664 285.515548
L 455.093091 284.558632
L 454.546395 283.634219
L 453.942733 282.745958
L 453.284489 281.897354
L 452.574258 281.091756
L 451.814845 280.332343
L 319.461537 162.525279
L 318.655939 161.815048
L 317.807334 161.156803
L 316.919073 160.553142
L 315.99466 160.006445
L 315.037744 159.518872
L 314.052102 159.092347
L 313.041622 158.728552
L 312.010294 158.428923
L 310.962187 158.194643
L 309.901437 158.026637
L 308.832232 157.925568
L 307.75879 157.891833
L 306.685348 157.925568
L 305.616143 158.026637
L 304.555393 158.194643
L 147.485116 191.326836
L 146.437008 191.561116
L 145.40568 191.860744
L 144.395201 192.224539
L 143.409558 192.651065
L 142.452642 193.138638
L 141.528229 193.685334
L 140.639968 194.288996
L 139.791364 194.947241
L 138.985766 195.657471
L 138.226353 196.416884
L 137.516123 197.222482
L 136.857878 198.071086
L 136.254216 198.959347
L 135.70752 199.88376
L 135.219947 200.840676
L 134.793421 201.826319
L 134.429626 202.836798
L 134.129998 203.868126
L 133.895718 204.916234
z
" clip-path="url(#pc554e67f7a)" style="fill: #f59e0b; fill-opacity: 0.13; stroke: #d97706; stroke-opacity: 0.13; stroke-width: 0.8"/>
    <path d="M 383.867191 167.02982
L 126.88701 329.101659
L 125.998748 329.705321
L 125.150144 330.363565
L 124.344546 331.073796
L 123.585133 331.833209
L 122.874903 332.638807
L 122.216658 333.487411
L 121.612996 334.375672
L 121.0663 335.300085
L 120.578727 336.257001
L 120.152201 337.242643
L 119.788406 338.253123
L 119.488778 339.284451
L 119.254498 340.332558
L 119.086492 341.393308
L 118.985422 342.462513
L 118.951688 343.535955
L 118.985422 344.609397
L 119.086492 345.678603
L 119.254498 346.739352
L 119.488778 347.787459
L 119.788406 348.818788
L 120.152201 349.829267
L 120.578727 350.81491
L 121.0663 351.771826
L 121.612996 352.696238
L 122.216658 353.5845
L 122.874903 354.433104
L 123.585133 355.238702
L 124.344546 355.998115
L 125.150144 356.708345
L 125.998748 357.36659
L 126.88701 357.970252
L 225.224209 421.112368
L 226.148621 421.659064
L 317.291589 469.816587
L 318.248505 470.30416
L 319.234148 470.730686
L 320.244627 471.094481
L 321.275956 471.39411
L 322.324063 471.628389
L 323.384812 471.796395
L 324.454018 471.897465
L 325.52746 471.931199
L 326.600902 471.897465
L 327.670107 471.796395
L 328.730857 471.628389
L 329.778964 471.39411
L 330.810292 471.094481
L 331.820772 470.730686
L 490.35886 405.313892
L 491.344503 404.887366
L 492.301419 404.399793
L 493.225831 403.853097
L 494.114093 403.249436
L 494.962697 402.591191
L 495.768295 401.88096
L 496.527708 401.121548
L 497.237938 400.315949
L 497.896183 399.467345
L 498.499845 398.579084
L 499.046541 397.654671
L 499.534114 396.697755
L 499.96064 395.712113
L 500.324435 394.701633
L 500.624063 393.670305
L 500.858343 392.622198
L 501.026349 391.561448
L 501.127419 390.492243
L 501.161153 389.418801
L 501.127419 388.345359
L 501.026349 387.276153
L 500.858343 386.215404
L 500.624063 385.167297
L 500.324435 384.135968
L 499.96064 383.125489
L 489.512396 354.300178
L 489.08587 353.314535
L 408.49604 174.185162
L 408.008467 173.228247
L 407.461771 172.303834
L 406.858109 171.415573
L 406.199864 170.566968
L 405.489634 169.76137
L 404.730221 169.001957
L 403.924623 168.291727
L 403.076019 167.633482
L 402.187757 167.02982
L 401.263345 166.483124
L 400.306429 165.995551
L 399.320786 165.569026
L 398.310307 165.205231
L 397.278978 164.905602
L 396.230871 164.671322
L 395.170122 164.503316
L 394.100916 164.402246
L 393.027474 164.368512
L 391.954032 164.402246
L 390.884827 164.503316
L 389.824077 164.671322
L 388.77597 164.905602
L 387.744642 165.205231
L 386.734162 165.569026
L 385.74852 165.995551
L 384.791604 166.483124
z
" clip-path="url(#pc554e67f7a)" style="fill: #f59e0b; fill-opacity: 0.13; stroke: #d97706; stroke-opacity: 0.13; stroke-width: 0.8"/>
    <path d="M 406.344441 423.041433
L 482.777588 375.027786
L 483.665849 374.424125
L 484.514453 373.76588
L 485.320052 373.055649
L 486.079464 372.296237
L 486.789695 371.490638
L 487.44794 370.642034
L 488.051601 369.753773
L 488.598297 368.82936
L 549.887163 249.603407
L 550.374736 248.646491
L 550.801262 247.660848
L 551.165057 246.650369
L 551.464685 245.61904
L 551.698965 244.570933
L 551.866971 243.510184
L 551.968041 242.440978
L 552.001775 241.367536
L 551.968041 240.294094
L 551.866971 239.224889
L 551.698965 238.164139
L 551.464685 237.116032
L 551.165057 236.084704
L 550.801262 235.074224
L 550.374736 234.088582
L 549.887163 233.131666
L 549.340467 232.207253
L 548.736805 231.318992
L 548.07856 230.470388
L 547.36833 229.66479
L 546.608917 228.905377
L 545.803319 228.195146
L 544.954715 227.536902
L 544.066454 226.93324
L 543.142041 226.386544
L 542.185125 225.898971
L 404.317307 161.054575
L 403.331665 160.628049
L 402.321185 160.264254
L 401.289857 159.964626
L 400.24175 159.730346
L 399.181 159.56234
L 398.111795 159.46127
L 397.038353 159.427536
L 395.964911 159.46127
L 394.895705 159.56234
L 393.834956 159.730346
L 392.786849 159.964626
L 391.75552 160.264254
L 390.745041 160.628049
L 389.759398 161.054575
L 388.802482 161.542148
L 387.87807 162.088844
L 265.719889 242.975291
L 264.831627 243.578952
L 263.983023 244.237197
L 263.177425 244.947428
L 262.418012 245.70684
L 261.707782 246.512439
L 261.049537 247.361043
L 260.445875 248.249304
L 259.899179 249.173717
L 259.411606 250.130633
L 258.985081 251.116275
L 258.621286 252.126755
L 258.321657 253.158083
L 258.087377 254.20619
L 257.919371 255.26694
L 257.818301 256.336145
L 257.784567 257.409587
L 257.818301 258.483029
L 257.919371 259.552235
L 258.087377 260.612984
L 258.321657 261.661091
L 264.931074 287.793411
L 265.230703 288.82474
L 265.594498 289.835219
L 266.021023 290.820862
L 308.356839 379.597793
L 308.844412 380.554709
L 309.391108 381.479121
L 309.99477 382.367383
L 310.653015 383.215987
L 311.363245 384.021585
L 312.122658 384.780998
L 312.928256 385.491228
L 313.77686 386.149473
L 314.665121 386.753135
L 315.589534 387.299831
L 316.54645 387.787404
L 389.905203 424.075702
L 390.890846 424.502228
L 391.901325 424.866023
L 392.932654 425.165652
L 393.980761 425.399931
L 395.04151 425.567938
L 396.110716 425.669007
L 397.184158 425.702742
L 398.257599 425.669007
L 399.326805 425.567938
L 400.387554 425.399931
L 401.435662 425.165652
L 402.46699 424.866023
L 403.477469 424.502228
L 404.463112 424.075702
L 405.420028 423.588129
z
" clip-path="url(#pc554e67f7a)" style="fill: #f59e0b; fill-opacity: 0.13; stroke: #d97706; stroke-opacity: 0.13; stroke-width: 0.8"/>
    <path d="M 568.655454 394.385264
L 451.814845 280.332343
L 451.009247 279.622112
L 450.160643 278.963868
L 449.272382 278.360206
L 448.347969 277.81351
L 447.391053 277.325937
L 446.405411 276.899411
L 445.394931 276.535616
L 444.363603 276.235987
L 443.315496 276.001708
L 442.254746 275.833702
L 441.185541 275.732632
L 440.112099 275.698898
L 439.038657 275.732632
L 437.969451 275.833702
L 436.908702 276.001708
L 435.860595 276.235987
L 370.413104 294.696565
L 369.381776 294.996194
L 368.371296 295.359989
L 367.385654 295.786514
L 366.428738 296.274087
L 365.504325 296.820783
L 364.616064 297.424445
L 363.76746 298.08269
L 362.961861 298.79292
L 362.202449 299.552333
L 361.492218 300.357931
L 310.653015 361.42169
L 309.99477 362.270294
L 309.391108 363.158555
L 308.844412 364.082968
L 308.356839 365.039884
L 300.611377 380.711533
L 300.184851 381.697175
L 299.821056 382.707655
L 299.521428 383.738983
L 299.287148 384.78709
L 299.119142 385.84784
L 299.018072 386.917045
L 298.984338 387.990487
L 299.018072 389.063929
L 299.119142 390.133135
L 308.566659 456.978242
L 308.734665 458.038992
L 308.968945 459.087099
L 309.268573 460.118427
L 309.632368 461.128907
L 310.058894 462.114549
L 310.546467 463.071465
L 311.093163 463.995878
L 454.378961 681.932845
L 454.982623 682.821106
L 455.640868 683.669711
L 456.351098 684.475309
L 457.110511 685.234721
L 457.916109 685.944952
L 458.764713 686.603197
L 459.652975 687.206858
L 460.577387 687.753555
L 461.534303 688.241128
L 462.519946 688.667653
L 463.530425 689.031448
L 464.561754 689.331077
L 465.609861 689.565357
L 466.67061 689.733363
L 467.739816 689.834432
L 468.813258 689.868167
L 469.8867 689.834432
L 470.955905 689.733363
L 472.016655 689.565357
L 473.064762 689.331077
L 474.09609 689.031448
L 475.10657 688.667653
L 476.092212 688.241128
L 477.049128 687.753555
L 477.973541 687.206858
L 478.861802 686.603197
L 479.710406 685.944952
L 480.516004 685.234721
L 481.275417 684.475309
L 481.985648 683.669711
L 482.643892 682.821106
L 483.247554 681.932845
L 483.79425 681.008432
L 484.281823 680.051516
L 484.708349 679.065874
L 554.652135 511.195226
L 555.01593 510.184746
L 555.315559 509.153418
L 555.549839 508.105311
L 573.745502 410.050821
L 573.913508 408.990071
L 574.014578 407.920866
L 574.048312 406.847424
L 574.014578 405.773982
L 573.913508 404.704776
L 573.745502 403.644027
L 573.511222 402.59592
L 573.211594 401.564592
L 572.847799 400.554112
L 572.421273 399.568469
L 571.9337 398.611554
L 571.387004 397.687141
L 570.783342 396.79888
L 570.125097 395.950275
L 569.414867 395.144677
z
" clip-path="url(#pc554e67f7a)" style="fill: #f59e0b; fill-opacity: 0.13; stroke: #d97706; stroke-opacity: 0.13; stroke-width: 0.8"/>
    <path d="M 555.852649 504.901914
L 552.001775 241.367536
L 551.968041 240.294094
L 551.866971 239.224889
L 551.698965 238.164139
L 551.464685 237.116032
L 551.165057 236.084704
L 550.801262 235.074224
L 550.374736 234.088582
L 549.887163 233.131666
L 549.340467 232.207253
L 548.736805 231.318992
L 548.07856 230.470388
L 547.36833 229.66479
L 546.608917 228.905377
L 486.865487 175.543124
L 486.059889 174.832893
L 485.211285 174.174648
L 484.323024 173.570987
L 483.398611 173.02429
L 482.441695 172.536717
L 481.456052 172.110192
L 480.445573 171.746397
L 479.414244 171.446768
L 478.366137 171.212488
L 477.305388 171.044482
L 399.181 159.56234
L 398.111795 159.46127
L 397.038353 159.427536
L 307.75879 157.891833
L 306.685348 157.925568
L 305.616143 158.026637
L 304.555393 158.194643
L 303.507286 158.428923
L 302.475958 158.728552
L 301.465478 159.092347
L 300.479835 159.518872
L 299.52292 160.006445
L 298.598507 160.553142
L 297.710246 161.156803
L 296.861641 161.815048
L 296.056043 162.525279
L 295.29663 163.284691
L 294.5864 164.090289
L 293.928155 164.938894
L 293.324493 165.827155
L 292.777797 166.751568
L 292.290224 167.708484
L 291.863699 168.694126
L 291.499904 169.704606
L 291.200275 170.735934
L 290.965995 171.784041
L 290.797989 172.844791
L 290.69692 173.913996
L 290.663185 174.987438
L 290.69692 176.06088
L 306.763534 373.39228
L 306.864604 374.461486
L 307.03261 375.522235
L 307.26689 376.570342
L 307.566518 377.601671
L 307.930313 378.61215
L 308.356839 379.597793
L 308.844412 380.554709
L 309.391108 381.479121
L 309.99477 382.367383
L 310.653015 383.215987
L 311.363245 384.021585
L 312.122658 384.780998
L 312.928256 385.491228
L 313.77686 386.149473
L 314.665121 386.753135
L 529.596761 519.33621
L 530.521174 519.882907
L 531.47809 520.37048
L 532.463732 520.797005
L 533.474212 521.1608
L 534.50554 521.460429
L 535.553647 521.694709
L 536.614397 521.862715
L 537.683602 521.963784
L 538.757044 521.997519
L 539.830486 521.963784
L 540.899692 521.862715
L 541.960441 521.694709
L 543.008548 521.460429
L 544.039877 521.1608
L 545.050356 520.797005
L 546.035999 520.37048
L 546.992915 519.882907
L 547.917327 519.33621
L 548.805589 518.732549
L 549.654193 518.074304
L 550.459791 517.364073
L 551.219204 516.604661
L 551.929434 515.799063
L 552.587679 514.950458
L 553.191341 514.062197
L 553.738037 513.137784
L 554.22561 512.180868
L 554.652135 511.195226
L 555.01593 510.184746
L 555.315559 509.153418
L 555.549839 508.105311
L 555.717845 507.044561
L 555.818915 505.975356
z
" clip-path="url(#pc554e67f7a)" style="fill: #f59e0b; fill-opacity: 0.13; stroke: #d97706; stroke-opacity: 0.13; stroke-width: 0.8"/>
    <path d="M 149.61507 191.05776
L 148.545865 191.15883
L 147.485116 191.326836
L 146.437008 191.561116
L 145.40568 191.860744
L 144.395201 192.224539
L 143.409558 192.651065
L 142.452642 193.138638
L 141.528229 193.685334
L 140.639968 194.288996
L 139.791364 194.947241
L 138.985766 195.657471
L 138.226353 196.416884
L 137.516123 197.222482
L 136.857878 198.071086
L 136.254216 198.959347
L 135.70752 199.88376
L 135.219947 200.840676
L 134.793421 201.826319
L 134.429626 202.836798
L 134.129998 203.868126
L 133.895718 204.916234
L 133.727712 205.976983
L 133.626642 207.046189
L 133.592908 208.119631
L 133.626642 209.193072
L 133.727712 210.262278
L 133.895718 211.323027
L 134.129998 212.371135
L 134.429626 213.402463
L 134.793421 214.412942
L 135.219947 215.398585
L 135.70752 216.355501
L 136.254216 217.279914
L 136.857878 218.168175
L 137.516123 219.016779
L 138.226353 219.822377
L 303.617783 399.693234
L 304.377196 400.452647
L 305.182794 401.162877
L 306.031398 401.821122
L 306.91966 402.424784
L 307.844072 402.97148
L 308.800988 403.459053
L 309.786631 403.885578
L 310.79711 404.249373
L 311.828439 404.549002
L 392.932654 425.165652
L 393.980761 425.399931
L 395.04151 425.567938
L 396.110716 425.669007
L 397.184158 425.702742
L 398.257599 425.669007
L 399.326805 425.567938
L 400.387554 425.399931
L 401.435662 425.165652
L 402.46699 424.866023
L 403.477469 424.502228
L 404.463112 424.075702
L 405.420028 423.588129
L 406.344441 423.041433
L 482.777588 375.027786
L 483.665849 374.424125
L 484.514453 373.76588
L 485.320052 373.055649
L 486.079464 372.296237
L 486.789695 371.490638
L 487.44794 370.642034
L 488.051601 369.753773
L 488.598297 368.82936
L 489.08587 367.872444
L 489.512396 366.886802
L 489.876191 365.876322
L 490.17582 364.844994
L 490.410099 363.796887
L 490.578106 362.736137
L 490.679175 361.666932
L 490.71291 360.59349
L 490.679175 359.520048
L 482.212012 189.403664
L 482.110942 188.334459
L 481.942936 187.273709
L 481.708656 186.225602
L 481.409028 185.194274
L 481.045233 184.183794
L 480.618707 183.198152
L 480.131134 182.241236
L 479.584438 181.316823
L 478.980776 180.428562
L 478.322531 179.579957
L 477.612301 178.774359
L 476.852888 178.014946
L 476.04729 177.304716
L 475.198686 176.646471
L 474.310425 176.04281
L 473.386012 175.496113
L 472.429096 175.00854
L 471.443453 174.582015
L 470.432974 174.21822
L 469.401646 173.918591
L 468.353538 173.684311
L 467.292789 173.516305
L 466.223583 173.415236
L 465.150142 173.381501
L 464.0767 173.415236
z
" clip-path="url(#pc554e67f7a)" style="fill: #f59e0b; fill-opacity: 0.13; stroke: #d97706; stroke-opacity: 0.13; stroke-width: 0.8"/>
    <path d="M 243.934949 319.106553
L 310.058894 462.114549
L 310.546467 463.071465
L 311.093163 463.995878
L 311.696825 464.884139
L 312.35507 465.732743
L 313.0653 466.538341
L 313.824713 467.297754
L 314.630311 468.007984
L 315.478915 468.666229
L 316.367177 469.269891
L 317.291589 469.816587
L 318.248505 470.30416
L 319.234148 470.730686
L 320.244627 471.094481
L 370.14809 488.403144
L 371.179418 488.702773
L 372.227525 488.937053
L 373.288275 489.105059
L 374.35748 489.206128
L 375.430922 489.239863
L 376.504364 489.206128
L 377.573569 489.105059
L 460.34618 480.52369
L 461.40693 480.355684
L 462.455037 480.121404
L 463.486365 479.821776
L 464.496845 479.457981
L 465.482487 479.031455
L 466.439403 478.543882
L 467.363816 477.997186
L 468.252077 477.393524
L 469.100681 476.735279
L 469.906279 476.025049
L 470.665692 475.265636
L 471.375923 474.460038
L 472.034167 473.611434
L 472.637829 472.723173
L 473.184525 471.79876
L 473.672098 470.841844
L 474.098624 469.856201
L 474.462419 468.845722
L 500.324435 394.701633
L 500.624063 393.670305
L 500.858343 392.622198
L 501.026349 391.561448
L 520.147844 265.009124
L 520.248914 263.939918
L 520.282648 262.866476
L 520.248914 261.793034
L 520.147844 260.723829
L 519.979838 259.663079
L 519.745558 258.614972
L 519.44593 257.583644
L 519.082135 256.573165
L 518.655609 255.587522
L 518.168036 254.630606
L 517.62134 253.706193
L 517.017678 252.817932
L 516.359433 251.969328
L 515.649203 251.16373
L 514.88979 250.404317
L 514.084192 249.694087
L 513.235588 249.035842
L 512.347327 248.43218
L 511.422914 247.885484
L 510.465998 247.397911
L 509.480355 246.971385
L 508.469876 246.60759
L 507.438548 246.307962
L 506.39044 246.073682
L 505.329691 245.905676
L 504.260485 245.804606
L 503.187044 245.770872
L 502.113602 245.804606
L 280.416147 266.480037
L 279.346942 266.581106
L 278.286192 266.749113
L 277.238085 266.983392
L 276.206757 267.283021
L 275.196277 267.646816
L 274.210635 268.073342
L 273.253719 268.560915
L 272.329306 269.107611
L 271.441045 269.711272
L 270.592441 270.369517
L 269.786842 271.079748
L 269.02743 271.839161
L 268.317199 272.644759
L 246.231125 300.93045
L 245.57288 301.779055
L 244.969218 302.667316
L 244.422522 303.591729
L 243.934949 304.548645
L 243.508423 305.534287
L 243.144628 306.544767
L 242.845 307.576095
L 242.61072 308.624202
L 242.442714 309.684952
L 242.341644 310.754157
L 242.30791 311.827599
L 242.341644 312.901041
L 242.442714 313.970246
L 242.61072 315.030996
L 242.845 316.079103
L 243.144628 317.110431
L 243.508423 318.120911
z
" clip-path="url(#pc554e67f7a)" style="fill: #f59e0b; fill-opacity: 0.13; stroke: #d97706; stroke-opacity: 0.13; stroke-width: 0.8"/>
   </g>
   <g id="LineCollection_1"/>
   <g id="PathCollection_1">
    <defs>
     <path id="m82c9e98f7c" d="M 0 6
C 1.591219 6 3.117479 5.367802 4.242641 4.242641
C 5.367802 3.117479 6 1.591219 6 0
C 6 -1.591219 5.367802 -3.117479 4.242641 -4.242641
C 3.117479 -5.367802 1.591219 -6 0 -6
C -1.591219 -6 -3.117479 -5.367802 -4.242641 -4.242641
C -5.367802 -3.117479 -6 -1.591219 -6 0
C -6 1.591219 -5.367802 3.117479 -4.242641 4.242641
C -3.117479 5.367802 -1.591219 6 0 6
z
" style="stroke: #334155; stroke-width: 0.8"/>
    </defs>
    <g clip-path="url(#pc554e67f7a)">
     <use xlink:href="#m82c9e98f7c" x="375.430922" y="472.144258" style="fill: #38bdf8; stroke: #334155; stroke-width: 0.8"/>
     <use xlink:href="#m82c9e98f7c" x="150.688512" y="208.119631" style="fill: #38bdf8; stroke: #334155; stroke-width: 0.8"/>
     <use xlink:href="#m82c9e98f7c" x="274.880172" y="257.409587" style="fill: #38bdf8; stroke: #334155; stroke-width: 0.8"/>
     <use xlink:href="#m82c9e98f7c" x="458.203533" y="463.562889" style="fill: #38bdf8; stroke: #334155; stroke-width: 0.8"/>
     <use xlink:href="#m82c9e98f7c" x="325.52746" y="454.835595" style="fill: #38bdf8; stroke: #334155; stroke-width: 0.8"/>
     <use xlink:href="#m82c9e98f7c" x="397.038353" y="176.523141" style="fill: #38bdf8; stroke: #334155; stroke-width: 0.8"/>
     <use xlink:href="#m82c9e98f7c" x="325.723957" y="372.639504" style="fill: #38bdf8; stroke: #334155; stroke-width: 0.8"/>
     <use xlink:href="#m82c9e98f7c" x="374.800129" y="311.939441" style="fill: #38bdf8; stroke: #334155; stroke-width: 0.8"/>
     <use xlink:href="#m82c9e98f7c" x="323.825404" y="372.318838" style="fill: #38bdf8; stroke: #334155; stroke-width: 0.8"/>
     <use xlink:href="#m82c9e98f7c" x="343.56886" y="235.196134" style="fill: #38bdf8; stroke: #334155; stroke-width: 0.8"/>
     <use xlink:href="#m82c9e98f7c" x="465.150142" y="190.477106" style="fill: #38bdf8; stroke: #334155; stroke-width: 0.8"/>
     <use xlink:href="#m82c9e98f7c" x="475.16274" y="188.005283" style="fill: #38bdf8; stroke: #334155; stroke-width: 0.8"/>
     <use xlink:href="#m82c9e98f7c" x="374.664608" y="311.25508" style="fill: #38bdf8; stroke: #334155; stroke-width: 0.8"/>
     <use xlink:href="#m82c9e98f7c" x="550.953416" y="306.815043" style="fill: #38bdf8; stroke: #334155; stroke-width: 0.8"/>
     <use xlink:href="#m82c9e98f7c" x="395.207562" y="394.798855" style="fill: #38bdf8; stroke: #334155; stroke-width: 0.8"/>
     <use xlink:href="#m82c9e98f7c" x="430.049483" y="300.711796" style="fill: #38bdf8; stroke: #334155; stroke-width: 0.8"/>
     <use xlink:href="#m82c9e98f7c" x="440.112099" y="292.794502" style="fill: #38bdf8; stroke: #334155; stroke-width: 0.8"/>
     <use xlink:href="#m82c9e98f7c" x="473.617305" y="360.59349" style="fill: #38bdf8; stroke: #334155; stroke-width: 0.8"/>
     <use xlink:href="#m82c9e98f7c" x="351.699772" y="242.698949" style="fill: #38bdf8; stroke: #334155; stroke-width: 0.8"/>
     <use xlink:href="#m82c9e98f7c" x="503.187044" y="262.866476" style="fill: #38bdf8; stroke: #334155; stroke-width: 0.8"/>
     <use xlink:href="#m82c9e98f7c" x="393.027474" y="181.464117" style="fill: #38bdf8; stroke: #334155; stroke-width: 0.8"/>
     <use xlink:href="#m82c9e98f7c" x="316.079943" y="387.990487" style="fill: #38bdf8; stroke: #334155; stroke-width: 0.8"/>
     <use xlink:href="#m82c9e98f7c" x="446.970311" y="359.609354" style="fill: #38bdf8; stroke: #334155; stroke-width: 0.8"/>
     <use xlink:href="#m82c9e98f7c" x="259.403514" y="311.827599" style="fill: #38bdf8; stroke: #334155; stroke-width: 0.8"/>
     <use xlink:href="#m82c9e98f7c" x="281.489589" y="283.541907" style="fill: #38bdf8; stroke: #334155; stroke-width: 0.8"/>
     <use xlink:href="#m82c9e98f7c" x="397.184158" y="408.607137" style="fill: #38bdf8; stroke: #334155; stroke-width: 0.8"/>
     <use xlink:href="#m82c9e98f7c" x="234.384492" y="406.678071" style="fill: #38bdf8; stroke: #334155; stroke-width: 0.8"/>
     <use xlink:href="#m82c9e98f7c" x="136.047293" y="343.535955" style="fill: #38bdf8; stroke: #334155; stroke-width: 0.8"/>
     <use xlink:href="#m82c9e98f7c" x="307.75879" y="174.987438" style="fill: #38bdf8; stroke: #334155; stroke-width: 0.8"/>
     <use xlink:href="#m82c9e98f7c" x="484.065548" y="389.418801" style="fill: #38bdf8; stroke: #334155; stroke-width: 0.8"/>
     <use xlink:href="#m82c9e98f7c" x="556.952707" y="406.847424" style="fill: #38bdf8; stroke: #334155; stroke-width: 0.8"/>
     <use xlink:href="#m82c9e98f7c" x="534.906171" y="241.367536" style="fill: #38bdf8; stroke: #334155; stroke-width: 0.8"/>
     <use xlink:href="#m82c9e98f7c" x="538.757044" y="504.901914" style="fill: #38bdf8; stroke: #334155; stroke-width: 0.8"/>
     <use xlink:href="#m82c9e98f7c" x="468.813258" y="672.772562" style="fill: #38bdf8; stroke: #334155; stroke-width: 0.8"/>
    </g>
   </g>
   <g id="text_2">
    <g clip-path="url(#pc554e67f7a)">
     <text style="font-size: 8.2px; font-family: 'DejaVu Sans', 'Bitstream Vera Sans', 'Computer Modern Sans Serif', 'Lucida Grande', 'Verdana', 'Geneva', 'Lucid', 'Arial', 'Helvetica', 'Avant Garde', sans-serif; text-anchor: middle; fill: #111827" x="374.800129" y="314.202128" transform="rotate(-0 374.800129 314.202128)">fair</text>
    </g>
   </g>
   <g id="text_3">
    <g clip-path="url(#pc554e67f7a)">
     <text style="font-size: 8.2px; font-family: 'DejaVu Sans', 'Bitstream Vera Sans', 'Computer Modern Sans Serif', 'Lucida Grande', 'Verdana', 'Geneva', 'Lucid', 'Arial', 'Helvetica', 'Avant Garde', sans-serif; text-anchor: middle; fill: #111827" x="307.75879" y="177.250126" transform="rotate(-0 307.75879 177.250126)">steadfast</text>
    </g>
   </g>
   <g id="text_4">
    <g clip-path="url(#pc554e67f7a)">
     <text style="font-size: 8.2px; font-family: 'DejaVu Sans', 'Bitstream Vera Sans', 'Computer Modern Sans Serif', 'Lucida Grande', 'Verdana', 'Geneva', 'Lucid', 'Arial', 'Helvetica', 'Avant Garde', sans-serif; text-anchor: middle; fill: #111827" x="325.723957" y="374.902192" transform="rotate(-0 325.723957 374.902192)">evil</text>
    </g>
   </g>
   <g id="text_5">
    <g clip-path="url(#pc554e67f7a)">
     <text style="font-size: 8.2px; font-family: 'DejaVu Sans', 'Bitstream Vera Sans', 'Computer Modern Sans Serif', 'Lucida Grande', 'Verdana', 'Geneva', 'Lucid', 'Arial', 'Helvetica', 'Avant Garde', sans-serif; text-anchor: middle; fill: #111827" x="440.112099" y="295.05719" transform="rotate(-0 440.112099 295.05719)">long</text>
    </g>
   </g>
   <g id="text_6">
    <g clip-path="url(#pc554e67f7a)">
     <text style="font-size: 8.2px; font-family: 'DejaVu Sans', 'Bitstream Vera Sans', 'Computer Modern Sans Serif', 'Lucida Grande', 'Verdana', 'Geneva', 'Lucid', 'Arial', 'Helvetica', 'Avant Garde', sans-serif; text-anchor: middle; fill: #111827" x="430.049483" y="302.974484" transform="rotate(-0 430.049483 302.974484)">high</text>
    </g>
   </g>
   <g id="text_7">
    <g clip-path="url(#pc554e67f7a)">
     <text style="font-size: 8.2px; font-family: 'DejaVu Sans', 'Bitstream Vera Sans', 'Computer Modern Sans Serif', 'Lucida Grande', 'Verdana', 'Geneva', 'Lucid', 'Arial', 'Helvetica', 'Avant Garde', sans-serif; text-anchor: middle; fill: #111827" x="259.403514" y="314.090287" transform="rotate(-0 259.403514 314.090287)">young</text>
    </g>
   </g>
   <g id="text_8">
    <g clip-path="url(#pc554e67f7a)">
     <text style="font-size: 8.2px; font-family: 'DejaVu Sans', 'Bitstream Vera Sans', 'Computer Modern Sans Serif', 'Lucida Grande', 'Verdana', 'Geneva', 'Lucid', 'Arial', 'Helvetica', 'Avant Garde', sans-serif; text-anchor: middle; fill: #111827" x="374.664608" y="313.517767" transform="rotate(-0 374.664608 313.517767)">good</text>
    </g>
   </g>
   <g id="text_9">
    <g clip-path="url(#pc554e67f7a)">
     <text style="font-size: 8.2px; font-family: 'DejaVu Sans', 'Bitstream Vera Sans', 'Computer Modern Sans Serif', 'Lucida Grande', 'Verdana', 'Geneva', 'Lucid', 'Arial', 'Helvetica', 'Avant Garde', sans-serif; text-anchor: middle; fill: #111827" x="397.038353" y="178.785828" transform="rotate(-0 397.038353 178.785828)">divine</text>
    </g>
   </g>
   <g id="text_10">
    <g clip-path="url(#pc554e67f7a)">
     <text style="font-size: 8.2px; font-family: 'DejaVu Sans', 'Bitstream Vera Sans', 'Computer Modern Sans Serif', 'Lucida Grande', 'Verdana', 'Geneva', 'Lucid', 'Arial', 'Helvetica', 'Avant Garde', sans-serif; text-anchor: middle; fill: #111827" x="351.699772" y="244.961637" transform="rotate(-0 351.699772 244.961637)">old</text>
    </g>
   </g>
   <g id="text_11">
    <g clip-path="url(#pc554e67f7a)">
     <text style="font-size: 8.2px; font-family: 'DejaVu Sans', 'Bitstream Vera Sans', 'Computer Modern Sans Serif', 'Lucida Grande', 'Verdana', 'Geneva', 'Lucid', 'Arial', 'Helvetica', 'Avant Garde', sans-serif; text-anchor: middle; fill: #111827" x="550.953416" y="309.07773" transform="rotate(-0 550.953416 309.07773)">gray-eyed</text>
    </g>
   </g>
   <g id="text_12">
    <g clip-path="url(#pc554e67f7a)">
     <text style="font-size: 8.2px; font-family: 'DejaVu Sans', 'Bitstream Vera Sans', 'Computer Modern Sans Serif', 'Lucida Grande', 'Verdana', 'Geneva', 'Lucid', 'Arial', 'Helvetica', 'Avant Garde', sans-serif; text-anchor: middle; fill: #111827" x="395.207562" y="397.061543" transform="rotate(-0 395.207562 397.061543)">great</text>
    </g>
   </g>
   <g id="text_13">
    <g clip-path="url(#pc554e67f7a)">
     <text style="font-size: 8.2px; font-family: 'DejaVu Sans', 'Bitstream Vera Sans', 'Computer Modern Sans Serif', 'Lucida Grande', 'Verdana', 'Geneva', 'Lucid', 'Arial', 'Helvetica', 'Avant Garde', sans-serif; text-anchor: middle; fill: #111827" x="323.825404" y="374.581526" transform="rotate(-0 323.825404 374.581526)">glad</text>
    </g>
   </g>
   <g id="text_14">
    <g clip-path="url(#pc554e67f7a)">
     <text style="font-size: 8.2px; font-family: 'DejaVu Sans', 'Bitstream Vera Sans', 'Computer Modern Sans Serif', 'Lucida Grande', 'Verdana', 'Geneva', 'Lucid', 'Arial', 'Helvetica', 'Avant Garde', sans-serif; text-anchor: middle; fill: #111827" x="375.430922" y="474.406946" transform="rotate(-0 375.430922 474.406946)">black</text>
    </g>
   </g>
   <g id="text_15">
    <g clip-path="url(#pc554e67f7a)">
     <text style="font-size: 8.2px; font-family: 'DejaVu Sans', 'Bitstream Vera Sans', 'Computer Modern Sans Serif', 'Lucida Grande', 'Verdana', 'Geneva', 'Lucid', 'Arial', 'Helvetica', 'Avant Garde', sans-serif; text-anchor: middle; fill: #111827" x="446.970311" y="361.872041" transform="rotate(-0 446.970311 361.872041)">wise</text>
    </g>
   </g>
   <g id="text_16">
    <g clip-path="url(#pc554e67f7a)">
     <text style="font-size: 8.2px; font-family: 'DejaVu Sans', 'Bitstream Vera Sans', 'Computer Modern Sans Serif', 'Lucida Grande', 'Verdana', 'Geneva', 'Lucid', 'Arial', 'Helvetica', 'Avant Garde', sans-serif; text-anchor: middle; fill: #111827" x="473.617305" y="362.856177" transform="rotate(-0 473.617305 362.856177)">mighty</text>
    </g>
   </g>
   <g id="text_17">
    <g clip-path="url(#pc554e67f7a)">
     <text style="font-size: 8.2px; font-family: 'DejaVu Sans', 'Bitstream Vera Sans', 'Computer Modern Sans Serif', 'Lucida Grande', 'Verdana', 'Geneva', 'Lucid', 'Arial', 'Helvetica', 'Avant Garde', sans-serif; text-anchor: middle; fill: #111827" x="325.52746" y="457.098282" transform="rotate(-0 325.52746 457.098282)">deep</text>
    </g>
   </g>
  </g>
  <g id="axes_2">
   <g id="LineCollection_2">
    <path d="M 1017.762642 508.708751
L 964.408277 410.342989
" clip-path="url(#p26d755cbce)" style="fill: none; stroke: #64748b; stroke-width: 0.65"/>
    <path d="M 1081.048685 560.143928
L 964.408277 410.342989
" clip-path="url(#p26d755cbce)" style="fill: none; stroke: #64748b; stroke-width: 0.65"/>
    <path d="M 1055.074316 458.368909
L 964.408277 410.342989
" clip-path="url(#p26d755cbce)" style="fill: none; stroke: #64748b; stroke-width: 0.65"/>
    <path d="M 1044.177439 494.863115
L 964.408277 410.342989
" clip-path="url(#p26d755cbce)" style="fill: none; stroke: #64748b; stroke-width: 0.65"/>
    <path d="M 958.316857 208.975945
L 964.408277 410.342989
" clip-path="url(#p26d755cbce)" style="fill: none; stroke: #64748b; stroke-width: 0.65"/>
    <path d="M 960.965069 495.905433
L 964.408277 410.342989
" clip-path="url(#p26d755cbce)" style="fill: none; stroke: #64748b; stroke-width: 0.65"/>
    <path d="M 843.621808 430.95203
L 964.408277 410.342989
" clip-path="url(#p26d755cbce)" style="fill: none; stroke: #64748b; stroke-width: 0.65"/>
    <path d="M 949.387563 563.108283
L 964.408277 410.342989
" clip-path="url(#p26d755cbce)" style="fill: none; stroke: #64748b; stroke-width: 0.65"/>
    <path d="M 889.37511 393.499784
L 964.408277 410.342989
" clip-path="url(#p26d755cbce)" style="fill: none; stroke: #64748b; stroke-width: 0.65"/>
    <path d="M 834.228599 358.864038
L 964.408277 410.342989
" clip-path="url(#p26d755cbce)" style="fill: none; stroke: #64748b; stroke-width: 0.65"/>
    <path d="M 907.408741 348.577339
L 964.408277 410.342989
" clip-path="url(#p26d755cbce)" style="fill: none; stroke: #64748b; stroke-width: 0.65"/>
    <path d="M 881.992342 317.400159
L 964.408277 410.342989
" clip-path="url(#p26d755cbce)" style="fill: none; stroke: #64748b; stroke-width: 0.65"/>
    <path d="M 935.413944 320.053687
L 964.408277 410.342989
" clip-path="url(#p26d755cbce)" style="fill: none; stroke: #64748b; stroke-width: 0.65"/>
    <path d="M 843.256731 516.963238
L 964.408277 410.342989
" clip-path="url(#p26d755cbce)" style="fill: none; stroke: #64748b; stroke-width: 0.65"/>
    <path d="M 1044.03253 408.943575
L 964.408277 410.342989
" clip-path="url(#p26d755cbce)" style="fill: none; stroke: #64748b; stroke-width: 0.65"/>
    <path d="M 1108.993183 443.501889
L 964.408277 410.342989
" clip-path="url(#p26d755cbce)" style="fill: none; stroke: #64748b; stroke-width: 0.65"/>
    <path d="M 983.723351 513.315604
L 964.408277 410.342989
" clip-path="url(#p26d755cbce)" style="fill: none; stroke: #64748b; stroke-width: 0.65"/>
    <path d="M 1056.378724 336.059732
L 964.408277 410.342989
" clip-path="url(#p26d755cbce)" style="fill: none; stroke: #64748b; stroke-width: 0.65"/>
    <path d="M 1027.968553 438.29399
L 964.408277 410.342989
" clip-path="url(#p26d755cbce)" style="fill: none; stroke: #64748b; stroke-width: 0.65"/>
    <path d="M 1085.745862 380.647876
L 964.408277 410.342989
" clip-path="url(#p26d755cbce)" style="fill: none; stroke: #64748b; stroke-width: 0.65"/>
    <path d="M 1064.467036 401.12007
L 964.408277 410.342989
" clip-path="url(#p26d755cbce)" style="fill: none; stroke: #64748b; stroke-width: 0.65"/>
    <path d="M 1005.118566 459.166157
L 964.408277 410.342989
" clip-path="url(#p26d755cbce)" style="fill: none; stroke: #64748b; stroke-width: 0.65"/>
    <path d="M 1123.121912 415.503944
L 964.408277 410.342989
" clip-path="url(#p26d755cbce)" style="fill: none; stroke: #64748b; stroke-width: 0.65"/>
    <path d="M 828.867977 479.114314
L 964.408277 410.342989
" clip-path="url(#p26d755cbce)" style="fill: none; stroke: #64748b; stroke-width: 0.65"/>
    <path d="M 1017.762642 508.708751
L 987.128306 355.963167
" clip-path="url(#p26d755cbce)" style="fill: none; stroke: #64748b; stroke-width: 0.65"/>
    <path d="M 1055.074316 458.368909
L 987.128306 355.963167
" clip-path="url(#p26d755cbce)" style="fill: none; stroke: #64748b; stroke-width: 0.65"/>
    <path d="M 958.316857 208.975945
L 987.128306 355.963167
" clip-path="url(#p26d755cbce)" style="fill: none; stroke: #64748b; stroke-width: 0.65"/>
    <path d="M 960.965069 495.905433
L 987.128306 355.963167
" clip-path="url(#p26d755cbce)" style="fill: none; stroke: #64748b; stroke-width: 0.65"/>
    <path d="M 889.37511 393.499784
L 987.128306 355.963167
" clip-path="url(#p26d755cbce)" style="fill: none; stroke: #64748b; stroke-width: 0.65"/>
    <path d="M 907.408741 348.577339
L 987.128306 355.963167
" clip-path="url(#p26d755cbce)" style="fill: none; stroke: #64748b; stroke-width: 0.65"/>
    <path d="M 881.992342 317.400159
L 987.128306 355.963167
" clip-path="url(#p26d755cbce)" style="fill: none; stroke: #64748b; stroke-width: 0.65"/>
    <path d="M 1012.913106 330.160105
L 987.128306 355.963167
" clip-path="url(#p26d755cbce)" style="fill: none; stroke: #64748b; stroke-width: 0.65"/>
    <path d="M 1044.03253 408.943575
L 987.128306 355.963167
" clip-path="url(#p26d755cbce)" style="fill: none; stroke: #64748b; stroke-width: 0.65"/>
    <path d="M 983.723351 513.315604
L 987.128306 355.963167
" clip-path="url(#p26d755cbce)" style="fill: none; stroke: #64748b; stroke-width: 0.65"/>
    <path d="M 1004.633196 488.7024
L 987.128306 355.963167
" clip-path="url(#p26d755cbce)" style="fill: none; stroke: #64748b; stroke-width: 0.65"/>
    <path d="M 1056.378724 336.059732
L 987.128306 355.963167
" clip-path="url(#p26d755cbce)" style="fill: none; stroke: #64748b; stroke-width: 0.65"/>
    <path d="M 1085.745862 380.647876
L 987.128306 355.963167
" clip-path="url(#p26d755cbce)" style="fill: none; stroke: #64748b; stroke-width: 0.65"/>
    <path d="M 1064.467036 401.12007
L 987.128306 355.963167
" clip-path="url(#p26d755cbce)" style="fill: none; stroke: #64748b; stroke-width: 0.65"/>
    <path d="M 1005.118566 459.166157
L 987.128306 355.963167
" clip-path="url(#p26d755cbce)" style="fill: none; stroke: #64748b; stroke-width: 0.65"/>
    <path d="M 1027.968553 438.29399
L 987.128306 355.963167
" clip-path="url(#p26d755cbce)" style="fill: none; stroke: #64748b; stroke-width: 0.65"/>
    <path d="M 1017.762642 508.708751
L 999.100711 379.147057
" clip-path="url(#p26d755cbce)" style="fill: none; stroke: #64748b; stroke-width: 0.65"/>
    <path d="M 837.01635 403.901109
L 999.100711 379.147057
" clip-path="url(#p26d755cbce)" style="fill: none; stroke: #64748b; stroke-width: 0.65"/>
    <path d="M 1055.074316 458.368909
L 999.100711 379.147057
" clip-path="url(#p26d755cbce)" style="fill: none; stroke: #64748b; stroke-width: 0.65"/>
    <path d="M 1044.177439 494.863115
L 999.100711 379.147057
" clip-path="url(#p26d755cbce)" style="fill: none; stroke: #64748b; stroke-width: 0.65"/>
    <path d="M 958.316857 208.975945
L 999.100711 379.147057
" clip-path="url(#p26d755cbce)" style="fill: none; stroke: #64748b; stroke-width: 0.65"/>
    <path d="M 960.965069 495.905433
L 999.100711 379.147057
" clip-path="url(#p26d755cbce)" style="fill: none; stroke: #64748b; stroke-width: 0.65"/>
    <path d="M 889.37511 393.499784
L 999.100711 379.147057
" clip-path="url(#p26d755cbce)" style="fill: none; stroke: #64748b; stroke-width: 0.65"/>
    <path d="M 859.849869 462.739717
L 999.100711 379.147057
" clip-path="url(#p26d755cbce)" style="fill: none; stroke: #64748b; stroke-width: 0.65"/>
    <path d="M 907.408741 348.577339
L 999.100711 379.147057
" clip-path="url(#p26d755cbce)" style="fill: none; stroke: #64748b; stroke-width: 0.65"/>
    <path d="M 935.413944 320.053687
L 999.100711 379.147057
" clip-path="url(#p26d755cbce)" style="fill: none; stroke: #64748b; stroke-width: 0.65"/>
    <path d="M 1012.913106 330.160105
L 999.100711 379.147057
" clip-path="url(#p26d755cbce)" style="fill: none; stroke: #64748b; stroke-width: 0.65"/>
    <path d="M 1108.993183 443.501889
L 999.100711 379.147057
" clip-path="url(#p26d755cbce)" style="fill: none; stroke: #64748b; stroke-width: 0.65"/>
    <path d="M 983.723351 513.315604
L 999.100711 379.147057
" clip-path="url(#p26d755cbce)" style="fill: none; stroke: #64748b; stroke-width: 0.65"/>
    <path d="M 1004.633196 488.7024
L 999.100711 379.147057
" clip-path="url(#p26d755cbce)" style="fill: none; stroke: #64748b; stroke-width: 0.65"/>
    <path d="M 1085.745862 380.647876
L 999.100711 379.147057
" clip-path="url(#p26d755cbce)" style="fill: none; stroke: #64748b; stroke-width: 0.65"/>
    <path d="M 1018.440502 234.777644
L 999.100711 379.147057
" clip-path="url(#p26d755cbce)" style="fill: none; stroke: #64748b; stroke-width: 0.65"/>
    <path d="M 1064.467036 401.12007
L 999.100711 379.147057
" clip-path="url(#p26d755cbce)" style="fill: none; stroke: #64748b; stroke-width: 0.65"/>
    <path d="M 1005.118566 459.166157
L 999.100711 379.147057
" clip-path="url(#p26d755cbce)" style="fill: none; stroke: #64748b; stroke-width: 0.65"/>
    <path d="M 1123.121912 415.503944
L 999.100711 379.147057
" clip-path="url(#p26d755cbce)" style="fill: none; stroke: #64748b; stroke-width: 0.65"/>
    <path d="M 1027.968553 438.29399
L 999.100711 379.147057
" clip-path="url(#p26d755cbce)" style="fill: none; stroke: #64748b; stroke-width: 0.65"/>
    <path d="M 1017.762642 508.708751
L 983.163098 394.891109
" clip-path="url(#p26d755cbce)" style="fill: none; stroke: #64748b; stroke-width: 0.65"/>
    <path d="M 1044.177439 494.863115
L 983.163098 394.891109
" clip-path="url(#p26d755cbce)" style="fill: none; stroke: #64748b; stroke-width: 0.65"/>
    <path d="M 960.965069 495.905433
L 983.163098 394.891109
" clip-path="url(#p26d755cbce)" style="fill: none; stroke: #64748b; stroke-width: 0.65"/>
    <path d="M 843.621808 430.95203
L 983.163098 394.891109
" clip-path="url(#p26d755cbce)" style="fill: none; stroke: #64748b; stroke-width: 0.65"/>
    <path d="M 889.37511 393.499784
L 983.163098 394.891109
" clip-path="url(#p26d755cbce)" style="fill: none; stroke: #64748b; stroke-width: 0.65"/>
    <path d="M 859.849869 462.739717
L 983.163098 394.891109
" clip-path="url(#p26d755cbce)" style="fill: none; stroke: #64748b; stroke-width: 0.65"/>
    <path d="M 907.408741 348.577339
L 983.163098 394.891109
" clip-path="url(#p26d755cbce)" style="fill: none; stroke: #64748b; stroke-width: 0.65"/>
    <path d="M 1016.919869 562.055919
L 983.163098 394.891109
" clip-path="url(#p26d755cbce)" style="fill: none; stroke: #64748b; stroke-width: 0.65"/>
    <path d="M 1012.913106 330.160105
L 983.163098 394.891109
" clip-path="url(#p26d755cbce)" style="fill: none; stroke: #64748b; stroke-width: 0.65"/>
    <path d="M 935.413944 320.053687
L 983.163098 394.891109
" clip-path="url(#p26d755cbce)" style="fill: none; stroke: #64748b; stroke-width: 0.65"/>
    <path d="M 1044.03253 408.943575
L 983.163098 394.891109
" clip-path="url(#p26d755cbce)" style="fill: none; stroke: #64748b; stroke-width: 0.65"/>
    <path d="M 1108.993183 443.501889
L 983.163098 394.891109
" clip-path="url(#p26d755cbce)" style="fill: none; stroke: #64748b; stroke-width: 0.65"/>
    <path d="M 983.723351 513.315604
L 983.163098 394.891109
" clip-path="url(#p26d755cbce)" style="fill: none; stroke: #64748b; stroke-width: 0.65"/>
    <path d="M 1004.633196 488.7024
L 983.163098 394.891109
" clip-path="url(#p26d755cbce)" style="fill: none; stroke: #64748b; stroke-width: 0.65"/>
    <path d="M 1056.378724 336.059732
L 983.163098 394.891109
" clip-path="url(#p26d755cbce)" style="fill: none; stroke: #64748b; stroke-width: 0.65"/>
    <path d="M 1018.440502 234.777644
L 983.163098 394.891109
" clip-path="url(#p26d755cbce)" style="fill: none; stroke: #64748b; stroke-width: 0.65"/>
    <path d="M 1064.467036 401.12007
L 983.163098 394.891109
" clip-path="url(#p26d755cbce)" style="fill: none; stroke: #64748b; stroke-width: 0.65"/>
    <path d="M 1005.118566 459.166157
L 983.163098 394.891109
" clip-path="url(#p26d755cbce)" style="fill: none; stroke: #64748b; stroke-width: 0.65"/>
    <path d="M 1027.968553 438.29399
L 983.163098 394.891109
" clip-path="url(#p26d755cbce)" style="fill: none; stroke: #64748b; stroke-width: 0.65"/>
    <path d="M 1017.762642 508.708751
L 965.586581 448.555982
" clip-path="url(#p26d755cbce)" style="fill: none; stroke: #64748b; stroke-width: 0.65"/>
    <path d="M 1008.899405 612.453482
L 965.586581 448.555982
" clip-path="url(#p26d755cbce)" style="fill: none; stroke: #64748b; stroke-width: 0.65"/>
    <path d="M 837.01635 403.901109
L 965.586581 448.555982
" clip-path="url(#p26d755cbce)" style="fill: none; stroke: #64748b; stroke-width: 0.65"/>
    <path d="M 1081.048685 560.143928
L 965.586581 448.555982
" clip-path="url(#p26d755cbce)" style="fill: none; stroke: #64748b; stroke-width: 0.65"/>
    <path d="M 1055.074316 458.368909
L 965.586581 448.555982
" clip-path="url(#p26d755cbce)" style="fill: none; stroke: #64748b; stroke-width: 0.65"/>
    <path d="M 1044.177439 494.863115
L 965.586581 448.555982
" clip-path="url(#p26d755cbce)" style="fill: none; stroke: #64748b; stroke-width: 0.65"/>
    <path d="M 960.965069 495.905433
L 965.586581 448.555982
" clip-path="url(#p26d755cbce)" style="fill: none; stroke: #64748b; stroke-width: 0.65"/>
    <path d="M 843.621808 430.95203
L 965.586581 448.555982
" clip-path="url(#p26d755cbce)" style="fill: none; stroke: #64748b; stroke-width: 0.65"/>
    <path d="M 949.387563 563.108283
L 965.586581 448.555982
" clip-path="url(#p26d755cbce)" style="fill: none; stroke: #64748b; stroke-width: 0.65"/>
    <path d="M 889.37511 393.499784
L 965.586581 448.555982
" clip-path="url(#p26d755cbce)" style="fill: none; stroke: #64748b; stroke-width: 0.65"/>
    <path d="M 834.228599 358.864038
L 965.586581 448.555982
" clip-path="url(#p26d755cbce)" style="fill: none; stroke: #64748b; stroke-width: 0.65"/>
    <path d="M 859.849869 462.739717
L 965.586581 448.555982
" clip-path="url(#p26d755cbce)" style="fill: none; stroke: #64748b; stroke-width: 0.65"/>
    <path d="M 907.408741 348.577339
L 965.586581 448.555982
" clip-path="url(#p26d755cbce)" style="fill: none; stroke: #64748b; stroke-width: 0.65"/>
    <path d="M 881.992342 317.400159
L 965.586581 448.555982
" clip-path="url(#p26d755cbce)" style="fill: none; stroke: #64748b; stroke-width: 0.65"/>
    <path d="M 1016.919869 562.055919
L 965.586581 448.555982
" clip-path="url(#p26d755cbce)" style="fill: none; stroke: #64748b; stroke-width: 0.65"/>
    <path d="M 935.413944 320.053687
L 965.586581 448.555982
" clip-path="url(#p26d755cbce)" style="fill: none; stroke: #64748b; stroke-width: 0.65"/>
    <path d="M 1012.913106 330.160105
L 965.586581 448.555982
" clip-path="url(#p26d755cbce)" style="fill: none; stroke: #64748b; stroke-width: 0.65"/>
    <path d="M 843.256731 516.963238
L 965.586581 448.555982
" clip-path="url(#p26d755cbce)" style="fill: none; stroke: #64748b; stroke-width: 0.65"/>
    <path d="M 1044.03253 408.943575
L 965.586581 448.555982
" clip-path="url(#p26d755cbce)" style="fill: none; stroke: #64748b; stroke-width: 0.65"/>
    <path d="M 1108.993183 443.501889
L 965.586581 448.555982
" clip-path="url(#p26d755cbce)" style="fill: none; stroke: #64748b; stroke-width: 0.65"/>
    <path d="M 983.723351 513.315604
L 965.586581 448.555982
" clip-path="url(#p26d755cbce)" style="fill: none; stroke: #64748b; stroke-width: 0.65"/>
    <path d="M 1004.633196 488.7024
L 965.586581 448.555982
" clip-path="url(#p26d755cbce)" style="fill: none; stroke: #64748b; stroke-width: 0.65"/>
    <path d="M 1056.378724 336.059732
L 965.586581 448.555982
" clip-path="url(#p26d755cbce)" style="fill: none; stroke: #64748b; stroke-width: 0.65"/>
    <path d="M 863.134692 554.124107
L 965.586581 448.555982
" clip-path="url(#p26d755cbce)" style="fill: none; stroke: #64748b; stroke-width: 0.65"/>
    <path d="M 1027.968553 438.29399
L 965.586581 448.555982
" clip-path="url(#p26d755cbce)" style="fill: none; stroke: #64748b; stroke-width: 0.65"/>
    <path d="M 1085.745862 380.647876
L 965.586581 448.555982
" clip-path="url(#p26d755cbce)" style="fill: none; stroke: #64748b; stroke-width: 0.65"/>
    <path d="M 1064.467036 401.12007
L 965.586581 448.555982
" clip-path="url(#p26d755cbce)" style="fill: none; stroke: #64748b; stroke-width: 0.65"/>
    <path d="M 1005.118566 459.166157
L 965.586581 448.555982
" clip-path="url(#p26d755cbce)" style="fill: none; stroke: #64748b; stroke-width: 0.65"/>
    <path d="M 1123.121912 415.503944
L 965.586581 448.555982
" clip-path="url(#p26d755cbce)" style="fill: none; stroke: #64748b; stroke-width: 0.65"/>
    <path d="M 828.867977 479.114314
L 965.586581 448.555982
" clip-path="url(#p26d755cbce)" style="fill: none; stroke: #64748b; stroke-width: 0.65"/>
    <path d="M 1017.762642 508.708751
L 920.532456 549.194461
" clip-path="url(#p26d755cbce)" style="fill: none; stroke: #64748b; stroke-width: 0.65"/>
    <path d="M 837.01635 403.901109
L 920.532456 549.194461
" clip-path="url(#p26d755cbce)" style="fill: none; stroke: #64748b; stroke-width: 0.65"/>
    <path d="M 1044.177439 494.863115
L 920.532456 549.194461
" clip-path="url(#p26d755cbce)" style="fill: none; stroke: #64748b; stroke-width: 0.65"/>
    <path d="M 1055.074316 458.368909
L 920.532456 549.194461
" clip-path="url(#p26d755cbce)" style="fill: none; stroke: #64748b; stroke-width: 0.65"/>
    <path d="M 960.965069 495.905433
L 920.532456 549.194461
" clip-path="url(#p26d755cbce)" style="fill: none; stroke: #64748b; stroke-width: 0.65"/>
    <path d="M 828.867977 479.114314
L 920.532456 549.194461
" clip-path="url(#p26d755cbce)" style="fill: none; stroke: #64748b; stroke-width: 0.65"/>
    <path d="M 949.387563 563.108283
L 920.532456 549.194461
" clip-path="url(#p26d755cbce)" style="fill: none; stroke: #64748b; stroke-width: 0.65"/>
    <path d="M 889.37511 393.499784
L 920.532456 549.194461
" clip-path="url(#p26d755cbce)" style="fill: none; stroke: #64748b; stroke-width: 0.65"/>
    <path d="M 1016.919869 562.055919
L 920.532456 549.194461
" clip-path="url(#p26d755cbce)" style="fill: none; stroke: #64748b; stroke-width: 0.65"/>
    <path d="M 843.256731 516.963238
L 920.532456 549.194461
" clip-path="url(#p26d755cbce)" style="fill: none; stroke: #64748b; stroke-width: 0.65"/>
    <path d="M 983.723351 513.315604
L 920.532456 549.194461
" clip-path="url(#p26d755cbce)" style="fill: none; stroke: #64748b; stroke-width: 0.65"/>
    <path d="M 1004.633196 488.7024
L 920.532456 549.194461
" clip-path="url(#p26d755cbce)" style="fill: none; stroke: #64748b; stroke-width: 0.65"/>
    <path d="M 863.134692 554.124107
L 920.532456 549.194461
" clip-path="url(#p26d755cbce)" style="fill: none; stroke: #64748b; stroke-width: 0.65"/>
    <path d="M 1054.302856 638.784055
L 920.532456 549.194461
" clip-path="url(#p26d755cbce)" style="fill: none; stroke: #64748b; stroke-width: 0.65"/>
    <path d="M 1005.118566 459.166157
L 920.532456 549.194461
" clip-path="url(#p26d755cbce)" style="fill: none; stroke: #64748b; stroke-width: 0.65"/>
    <path d="M 1027.968553 438.29399
L 920.532456 549.194461
" clip-path="url(#p26d755cbce)" style="fill: none; stroke: #64748b; stroke-width: 0.65"/>
    <path d="M 1017.762642 508.708751
L 1083.219939 516.502433
" clip-path="url(#p26d755cbce)" style="fill: none; stroke: #64748b; stroke-width: 0.65"/>
    <path d="M 1008.899405 612.453482
L 1083.219939 516.502433
" clip-path="url(#p26d755cbce)" style="fill: none; stroke: #64748b; stroke-width: 0.65"/>
    <path d="M 1081.048685 560.143928
L 1083.219939 516.502433
" clip-path="url(#p26d755cbce)" style="fill: none; stroke: #64748b; stroke-width: 0.65"/>
    <path d="M 1044.177439 494.863115
L 1083.219939 516.502433
" clip-path="url(#p26d755cbce)" style="fill: none; stroke: #64748b; stroke-width: 0.65"/>
    <path d="M 1055.074316 458.368909
L 1083.219939 516.502433
" clip-path="url(#p26d755cbce)" style="fill: none; stroke: #64748b; stroke-width: 0.65"/>
    <path d="M 960.965069 495.905433
L 1083.219939 516.502433
" clip-path="url(#p26d755cbce)" style="fill: none; stroke: #64748b; stroke-width: 0.65"/>
    <path d="M 1016.919869 562.055919
L 1083.219939 516.502433
" clip-path="url(#p26d755cbce)" style="fill: none; stroke: #64748b; stroke-width: 0.65"/>
    <path d="M 1044.03253 408.943575
L 1083.219939 516.502433
" clip-path="url(#p26d755cbce)" style="fill: none; stroke: #64748b; stroke-width: 0.65"/>
    <path d="M 1108.993183 443.501889
L 1083.219939 516.502433
" clip-path="url(#p26d755cbce)" style="fill: none; stroke: #64748b; stroke-width: 0.65"/>
    <path d="M 983.723351 513.315604
L 1083.219939 516.502433
" clip-path="url(#p26d755cbce)" style="fill: none; stroke: #64748b; stroke-width: 0.65"/>
    <path d="M 1004.633196 488.7024
L 1083.219939 516.502433
" clip-path="url(#p26d755cbce)" style="fill: none; stroke: #64748b; stroke-width: 0.65"/>
    <path d="M 1054.302856 638.784055
L 1083.219939 516.502433
" clip-path="url(#p26d755cbce)" style="fill: none; stroke: #64748b; stroke-width: 0.65"/>
    <path d="M 1085.745862 380.647876
L 1083.219939 516.502433
" clip-path="url(#p26d755cbce)" style="fill: none; stroke: #64748b; stroke-width: 0.65"/>
    <path d="M 1064.467036 401.12007
L 1083.219939 516.502433
" clip-path="url(#p26d755cbce)" style="fill: none; stroke: #64748b; stroke-width: 0.65"/>
    <path d="M 1005.118566 459.166157
L 1083.219939 516.502433
" clip-path="url(#p26d755cbce)" style="fill: none; stroke: #64748b; stroke-width: 0.65"/>
    <path d="M 1123.121912 415.503944
L 1083.219939 516.502433
" clip-path="url(#p26d755cbce)" style="fill: none; stroke: #64748b; stroke-width: 0.65"/>
    <path d="M 1027.968553 438.29399
L 1083.219939 516.502433
" clip-path="url(#p26d755cbce)" style="fill: none; stroke: #64748b; stroke-width: 0.65"/>
    <path d="M 1242.932023 615.26167
L 1083.219939 516.502433
" clip-path="url(#p26d755cbce)" style="fill: none; stroke: #64748b; stroke-width: 0.65"/>
    <path d="M 983.723351 513.315604
L 1113.798251 492.156396
" clip-path="url(#p26d755cbce)" style="fill: none; stroke: #64748b; stroke-width: 0.65"/>
    <path d="M 1017.762642 508.708751
L 1113.798251 492.156396
" clip-path="url(#p26d755cbce)" style="fill: none; stroke: #64748b; stroke-width: 0.65"/>
    <path d="M 1004.633196 488.7024
L 1113.798251 492.156396
" clip-path="url(#p26d755cbce)" style="fill: none; stroke: #64748b; stroke-width: 0.65"/>
    <path d="M 1081.048685 560.143928
L 1113.798251 492.156396
" clip-path="url(#p26d755cbce)" style="fill: none; stroke: #64748b; stroke-width: 0.65"/>
    <path d="M 1044.177439 494.863115
L 1113.798251 492.156396
" clip-path="url(#p26d755cbce)" style="fill: none; stroke: #64748b; stroke-width: 0.65"/>
    <path d="M 1055.074316 458.368909
L 1113.798251 492.156396
" clip-path="url(#p26d755cbce)" style="fill: none; stroke: #64748b; stroke-width: 0.65"/>
    <path d="M 1056.378724 336.059732
L 1113.798251 492.156396
" clip-path="url(#p26d755cbce)" style="fill: none; stroke: #64748b; stroke-width: 0.65"/>
    <path d="M 960.965069 495.905433
L 1113.798251 492.156396
" clip-path="url(#p26d755cbce)" style="fill: none; stroke: #64748b; stroke-width: 0.65"/>
    <path d="M 949.387563 563.108283
L 1113.798251 492.156396
" clip-path="url(#p26d755cbce)" style="fill: none; stroke: #64748b; stroke-width: 0.65"/>
    <path d="M 1064.467036 401.12007
L 1113.798251 492.156396
" clip-path="url(#p26d755cbce)" style="fill: none; stroke: #64748b; stroke-width: 0.65"/>
    <path d="M 1016.919869 562.055919
L 1113.798251 492.156396
" clip-path="url(#p26d755cbce)" style="fill: none; stroke: #64748b; stroke-width: 0.65"/>
    <path d="M 1123.121912 415.503944
L 1113.798251 492.156396
" clip-path="url(#p26d755cbce)" style="fill: none; stroke: #64748b; stroke-width: 0.65"/>
    <path d="M 1012.913106 330.160105
L 1113.798251 492.156396
" clip-path="url(#p26d755cbce)" style="fill: none; stroke: #64748b; stroke-width: 0.65"/>
    <path d="M 1108.993183 443.501889
L 1113.798251 492.156396
" clip-path="url(#p26d755cbce)" style="fill: none; stroke: #64748b; stroke-width: 0.65"/>
    <path d="M 1017.762642 508.708751
L 931.877547 454.768616
" clip-path="url(#p26d755cbce)" style="fill: none; stroke: #64748b; stroke-width: 0.65"/>
    <path d="M 1044.177439 494.863115
L 931.877547 454.768616
" clip-path="url(#p26d755cbce)" style="fill: none; stroke: #64748b; stroke-width: 0.65"/>
    <path d="M 1055.074316 458.368909
L 931.877547 454.768616
" clip-path="url(#p26d755cbce)" style="fill: none; stroke: #64748b; stroke-width: 0.65"/>
    <path d="M 960.965069 495.905433
L 931.877547 454.768616
" clip-path="url(#p26d755cbce)" style="fill: none; stroke: #64748b; stroke-width: 0.65"/>
    <path d="M 843.621808 430.95203
L 931.877547 454.768616
" clip-path="url(#p26d755cbce)" style="fill: none; stroke: #64748b; stroke-width: 0.65"/>
    <path d="M 828.867977 479.114314
L 931.877547 454.768616
" clip-path="url(#p26d755cbce)" style="fill: none; stroke: #64748b; stroke-width: 0.65"/>
    <path d="M 949.387563 563.108283
L 931.877547 454.768616
" clip-path="url(#p26d755cbce)" style="fill: none; stroke: #64748b; stroke-width: 0.65"/>
    <path d="M 889.37511 393.499784
L 931.877547 454.768616
" clip-path="url(#p26d755cbce)" style="fill: none; stroke: #64748b; stroke-width: 0.65"/>
    <path d="M 907.408741 348.577339
L 931.877547 454.768616
" clip-path="url(#p26d755cbce)" style="fill: none; stroke: #64748b; stroke-width: 0.65"/>
    <path d="M 935.413944 320.053687
L 931.877547 454.768616
" clip-path="url(#p26d755cbce)" style="fill: none; stroke: #64748b; stroke-width: 0.65"/>
    <path d="M 1012.913106 330.160105
L 931.877547 454.768616
" clip-path="url(#p26d755cbce)" style="fill: none; stroke: #64748b; stroke-width: 0.65"/>
    <path d="M 1044.03253 408.943575
L 931.877547 454.768616
" clip-path="url(#p26d755cbce)" style="fill: none; stroke: #64748b; stroke-width: 0.65"/>
    <path d="M 983.723351 513.315604
L 931.877547 454.768616
" clip-path="url(#p26d755cbce)" style="fill: none; stroke: #64748b; stroke-width: 0.65"/>
    <path d="M 1004.633196 488.7024
L 931.877547 454.768616
" clip-path="url(#p26d755cbce)" style="fill: none; stroke: #64748b; stroke-width: 0.65"/>
    <path d="M 863.134692 554.124107
L 931.877547 454.768616
" clip-path="url(#p26d755cbce)" style="fill: none; stroke: #64748b; stroke-width: 0.65"/>
    <path d="M 1064.467036 401.12007
L 931.877547 454.768616
" clip-path="url(#p26d755cbce)" style="fill: none; stroke: #64748b; stroke-width: 0.65"/>
    <path d="M 1005.118566 459.166157
L 931.877547 454.768616
" clip-path="url(#p26d755cbce)" style="fill: none; stroke: #64748b; stroke-width: 0.65"/>
    <path d="M 1027.968553 438.29399
L 931.877547 454.768616
" clip-path="url(#p26d755cbce)" style="fill: none; stroke: #64748b; stroke-width: 0.65"/>
    <path d="M 1017.762642 508.708751
L 951.256268 432.73037
" clip-path="url(#p26d755cbce)" style="fill: none; stroke: #64748b; stroke-width: 0.65"/>
    <path d="M 837.01635 403.901109
L 951.256268 432.73037
" clip-path="url(#p26d755cbce)" style="fill: none; stroke: #64748b; stroke-width: 0.65"/>
    <path d="M 1055.074316 458.368909
L 951.256268 432.73037
" clip-path="url(#p26d755cbce)" style="fill: none; stroke: #64748b; stroke-width: 0.65"/>
    <path d="M 1044.177439 494.863115
L 951.256268 432.73037
" clip-path="url(#p26d755cbce)" style="fill: none; stroke: #64748b; stroke-width: 0.65"/>
    <path d="M 960.965069 495.905433
L 951.256268 432.73037
" clip-path="url(#p26d755cbce)" style="fill: none; stroke: #64748b; stroke-width: 0.65"/>
    <path d="M 843.621808 430.95203
L 951.256268 432.73037
" clip-path="url(#p26d755cbce)" style="fill: none; stroke: #64748b; stroke-width: 0.65"/>
    <path d="M 949.387563 563.108283
L 951.256268 432.73037
" clip-path="url(#p26d755cbce)" style="fill: none; stroke: #64748b; stroke-width: 0.65"/>
    <path d="M 889.37511 393.499784
L 951.256268 432.73037
" clip-path="url(#p26d755cbce)" style="fill: none; stroke: #64748b; stroke-width: 0.65"/>
    <path d="M 834.228599 358.864038
L 951.256268 432.73037
" clip-path="url(#p26d755cbce)" style="fill: none; stroke: #64748b; stroke-width: 0.65"/>
    <path d="M 907.408741 348.577339
L 951.256268 432.73037
" clip-path="url(#p26d755cbce)" style="fill: none; stroke: #64748b; stroke-width: 0.65"/>
    <path d="M 881.992342 317.400159
L 951.256268 432.73037
" clip-path="url(#p26d755cbce)" style="fill: none; stroke: #64748b; stroke-width: 0.65"/>
    <path d="M 1016.919869 562.055919
L 951.256268 432.73037
" clip-path="url(#p26d755cbce)" style="fill: none; stroke: #64748b; stroke-width: 0.65"/>
    <path d="M 935.413944 320.053687
L 951.256268 432.73037
" clip-path="url(#p26d755cbce)" style="fill: none; stroke: #64748b; stroke-width: 0.65"/>
    <path d="M 1012.913106 330.160105
L 951.256268 432.73037
" clip-path="url(#p26d755cbce)" style="fill: none; stroke: #64748b; stroke-width: 0.65"/>
    <path d="M 843.256731 516.963238
L 951.256268 432.73037
" clip-path="url(#p26d755cbce)" style="fill: none; stroke: #64748b; stroke-width: 0.65"/>
    <path d="M 1044.03253 408.943575
L 951.256268 432.73037
" clip-path="url(#p26d755cbce)" style="fill: none; stroke: #64748b; stroke-width: 0.65"/>
    <path d="M 983.723351 513.315604
L 951.256268 432.73037
" clip-path="url(#p26d755cbce)" style="fill: none; stroke: #64748b; stroke-width: 0.65"/>
    <path d="M 1004.633196 488.7024
L 951.256268 432.73037
" clip-path="url(#p26d755cbce)" style="fill: none; stroke: #64748b; stroke-width: 0.65"/>
    <path d="M 1056.378724 336.059732
L 951.256268 432.73037
" clip-path="url(#p26d755cbce)" style="fill: none; stroke: #64748b; stroke-width: 0.65"/>
    <path d="M 863.134692 554.124107
L 951.256268 432.73037
" clip-path="url(#p26d755cbce)" style="fill: none; stroke: #64748b; stroke-width: 0.65"/>
    <path d="M 1054.302856 638.784055
L 951.256268 432.73037
" clip-path="url(#p26d755cbce)" style="fill: none; stroke: #64748b; stroke-width: 0.65"/>
    <path d="M 1027.968553 438.29399
L 951.256268 432.73037
" clip-path="url(#p26d755cbce)" style="fill: none; stroke: #64748b; stroke-width: 0.65"/>
    <path d="M 1085.745862 380.647876
L 951.256268 432.73037
" clip-path="url(#p26d755cbce)" style="fill: none; stroke: #64748b; stroke-width: 0.65"/>
    <path d="M 1018.440502 234.777644
L 951.256268 432.73037
" clip-path="url(#p26d755cbce)" style="fill: none; stroke: #64748b; stroke-width: 0.65"/>
    <path d="M 1064.467036 401.12007
L 951.256268 432.73037
" clip-path="url(#p26d755cbce)" style="fill: none; stroke: #64748b; stroke-width: 0.65"/>
    <path d="M 1005.118566 459.166157
L 951.256268 432.73037
" clip-path="url(#p26d755cbce)" style="fill: none; stroke: #64748b; stroke-width: 0.65"/>
    <path d="M 828.867977 479.114314
L 951.256268 432.73037
" clip-path="url(#p26d755cbce)" style="fill: none; stroke: #64748b; stroke-width: 0.65"/>
   </g>
   <g id="PathCollection_2">
    <defs>
     <path id="m7e11591f4b" d="M -6.5 6.5
L 6.5 6.5
L 6.5 -6.5
L -6.5 -6.5
z
" style="stroke: #334155; stroke-width: 0.8"/>
    </defs>
    <g clip-path="url(#p26d755cbce)">
     <use xlink:href="#m7e11591f4b" x="1083.219939" y="516.502433" style="fill: #f59e0b; stroke: #334155; stroke-width: 0.8"/>
     <use xlink:href="#m7e11591f4b" x="999.100711" y="379.147057" style="fill: #f59e0b; stroke: #334155; stroke-width: 0.8"/>
     <use xlink:href="#m7e11591f4b" x="1113.798251" y="492.156396" style="fill: #f59e0b; stroke: #334155; stroke-width: 0.8"/>
     <use xlink:href="#m7e11591f4b" x="964.408277" y="410.342989" style="fill: #f59e0b; stroke: #334155; stroke-width: 0.8"/>
     <use xlink:href="#m7e11591f4b" x="965.586581" y="448.555982" style="fill: #f59e0b; stroke: #334155; stroke-width: 0.8"/>
     <use xlink:href="#m7e11591f4b" x="987.128306" y="355.963167" style="fill: #f59e0b; stroke: #334155; stroke-width: 0.8"/>
     <use xlink:href="#m7e11591f4b" x="931.877547" y="454.768616" style="fill: #f59e0b; stroke: #334155; stroke-width: 0.8"/>
     <use xlink:href="#m7e11591f4b" x="983.163098" y="394.891109" style="fill: #f59e0b; stroke: #334155; stroke-width: 0.8"/>
     <use xlink:href="#m7e11591f4b" x="951.256268" y="432.73037" style="fill: #f59e0b; stroke: #334155; stroke-width: 0.8"/>
     <use xlink:href="#m7e11591f4b" x="920.532456" y="549.194461" style="fill: #f59e0b; stroke: #334155; stroke-width: 0.8"/>
    </g>
   </g>
   <g id="PathCollection_3">
    <defs>
     <path id="md867d47734" d="M 0 5
C 1.326016 5 2.597899 4.473168 3.535534 3.535534
C 4.473168 2.597899 5 1.326016 5 0
C 5 -1.326016 4.473168 -2.597899 3.535534 -3.535534
C 2.597899 -4.473168 1.326016 -5 0 -5
C -1.326016 -5 -2.597899 -4.473168 -3.535534 -3.535534
C -4.473168 -2.597899 -5 -1.326016 -5 0
C -5 1.326016 -4.473168 2.597899 -3.535534 3.535534
C -2.597899 4.473168 -1.326016 5 0 5
z
" style="stroke: #334155; stroke-width: 0.8"/>
    </defs>
    <g clip-path="url(#p26d755cbce)">
     <use xlink:href="#md867d47734" x="1123.121912" y="415.503944" style="fill: #38bdf8; stroke: #334155; stroke-width: 0.8"/>
     <use xlink:href="#md867d47734" x="958.316857" y="208.975945" style="fill: #38bdf8; stroke: #334155; stroke-width: 0.8"/>
     <use xlink:href="#md867d47734" x="935.413944" y="320.053687" style="fill: #38bdf8; stroke: #334155; stroke-width: 0.8"/>
     <use xlink:href="#md867d47734" x="1081.048685" y="560.143928" style="fill: #38bdf8; stroke: #334155; stroke-width: 0.8"/>
     <use xlink:href="#md867d47734" x="1108.993183" y="443.501889" style="fill: #38bdf8; stroke: #334155; stroke-width: 0.8"/>
     <use xlink:href="#md867d47734" x="828.867977" y="479.114314" style="fill: #38bdf8; stroke: #334155; stroke-width: 0.8"/>
     <use xlink:href="#md867d47734" x="983.723351" y="513.315604" style="fill: #38bdf8; stroke: #334155; stroke-width: 0.8"/>
     <use xlink:href="#md867d47734" x="1017.762642" y="508.708751" style="fill: #38bdf8; stroke: #334155; stroke-width: 0.8"/>
     <use xlink:href="#md867d47734" x="1005.118566" y="459.166157" style="fill: #38bdf8; stroke: #334155; stroke-width: 0.8"/>
     <use xlink:href="#md867d47734" x="907.408741" y="348.577339" style="fill: #38bdf8; stroke: #334155; stroke-width: 0.8"/>
     <use xlink:href="#md867d47734" x="881.992342" y="317.400159" style="fill: #38bdf8; stroke: #334155; stroke-width: 0.8"/>
     <use xlink:href="#md867d47734" x="843.256731" y="516.963238" style="fill: #38bdf8; stroke: #334155; stroke-width: 0.8"/>
     <use xlink:href="#md867d47734" x="960.965069" y="495.905433" style="fill: #38bdf8; stroke: #334155; stroke-width: 0.8"/>
     <use xlink:href="#md867d47734" x="834.228599" y="358.864038" style="fill: #38bdf8; stroke: #334155; stroke-width: 0.8"/>
     <use xlink:href="#md867d47734" x="1064.467036" y="401.12007" style="fill: #38bdf8; stroke: #334155; stroke-width: 0.8"/>
     <use xlink:href="#md867d47734" x="1044.177439" y="494.863115" style="fill: #38bdf8; stroke: #334155; stroke-width: 0.8"/>
     <use xlink:href="#md867d47734" x="1055.074316" y="458.368909" style="fill: #38bdf8; stroke: #334155; stroke-width: 0.8"/>
     <use xlink:href="#md867d47734" x="1044.03253" y="408.943575" style="fill: #38bdf8; stroke: #334155; stroke-width: 0.8"/>
     <use xlink:href="#md867d47734" x="889.37511" y="393.499784" style="fill: #38bdf8; stroke: #334155; stroke-width: 0.8"/>
     <use xlink:href="#md867d47734" x="949.387563" y="563.108283" style="fill: #38bdf8; stroke: #334155; stroke-width: 0.8"/>
     <use xlink:href="#md867d47734" x="843.621808" y="430.95203" style="fill: #38bdf8; stroke: #334155; stroke-width: 0.8"/>
     <use xlink:href="#md867d47734" x="1085.745862" y="380.647876" style="fill: #38bdf8; stroke: #334155; stroke-width: 0.8"/>
     <use xlink:href="#md867d47734" x="1027.968553" y="438.29399" style="fill: #38bdf8; stroke: #334155; stroke-width: 0.8"/>
     <use xlink:href="#md867d47734" x="1056.378724" y="336.059732" style="fill: #38bdf8; stroke: #334155; stroke-width: 0.8"/>
     <use xlink:href="#md867d47734" x="1012.913106" y="330.160105" style="fill: #38bdf8; stroke: #334155; stroke-width: 0.8"/>
     <use xlink:href="#md867d47734" x="1004.633196" y="488.7024" style="fill: #38bdf8; stroke: #334155; stroke-width: 0.8"/>
     <use xlink:href="#md867d47734" x="859.849869" y="462.739717" style="fill: #38bdf8; stroke: #334155; stroke-width: 0.8"/>
     <use xlink:href="#md867d47734" x="1018.440502" y="234.777644" style="fill: #38bdf8; stroke: #334155; stroke-width: 0.8"/>
     <use xlink:href="#md867d47734" x="837.01635" y="403.901109" style="fill: #38bdf8; stroke: #334155; stroke-width: 0.8"/>
     <use xlink:href="#md867d47734" x="1016.919869" y="562.055919" style="fill: #38bdf8; stroke: #334155; stroke-width: 0.8"/>
     <use xlink:href="#md867d47734" x="1008.899405" y="612.453482" style="fill: #38bdf8; stroke: #334155; stroke-width: 0.8"/>
     <use xlink:href="#md867d47734" x="863.134692" y="554.124107" style="fill: #38bdf8; stroke: #334155; stroke-width: 0.8"/>
     <use xlink:href="#md867d47734" x="1054.302856" y="638.784055" style="fill: #38bdf8; stroke: #334155; stroke-width: 0.8"/>
     <use xlink:href="#md867d47734" x="1242.932023" y="615.26167" style="fill: #38bdf8; stroke: #334155; stroke-width: 0.8"/>
    </g>
   </g>
   <g id="text_18">
    <text style="font-weight: 700; font-size: 15px; font-family: 'DejaVu Sans'; text-anchor: start; fill: #111827" x="696.6" y="108.72" transform="rotate(-0 696.6 108.72)">XGI bipartite incidence view</text>
   </g>
   <g id="text_19">
    <g clip-path="url(#p26d755cbce)">
     <text style="font-size: 7.6px; font-family: 'DejaVu Sans', 'Bitstream Vera Sans', 'Computer Modern Sans Serif', 'Lucida Grande', 'Verdana', 'Geneva', 'Lucid', 'Arial', 'Helvetica', 'Avant Garde', sans-serif; text-anchor: middle; fill: #111827" x="965.586581" y="450.653107" transform="rotate(-0 965.586581 450.653107)">ODYSSEUS</text>
    </g>
   </g>
   <g id="text_20">
    <g clip-path="url(#p26d755cbce)">
     <text style="font-size: 7.6px; font-family: 'DejaVu Sans', 'Bitstream Vera Sans', 'Computer Modern Sans Serif', 'Lucida Grande', 'Verdana', 'Geneva', 'Lucid', 'Arial', 'Helvetica', 'Avant Garde', sans-serif; text-anchor: middle; fill: #111827" x="1083.219939" y="518.599558" transform="rotate(-0 1083.219939 518.599558)">SEA</text>
    </g>
   </g>
   <g id="text_21">
    <g clip-path="url(#p26d755cbce)">
     <text style="font-size: 7.6px; font-family: 'DejaVu Sans', 'Bitstream Vera Sans', 'Computer Modern Sans Serif', 'Lucida Grande', 'Verdana', 'Geneva', 'Lucid', 'Arial', 'Helvetica', 'Avant Garde', sans-serif; text-anchor: middle; fill: #111827" x="951.256268" y="434.827495" transform="rotate(-0 951.256268 434.827495)">ZEUS</text>
    </g>
   </g>
   <g id="text_22">
    <g clip-path="url(#p26d755cbce)">
     <text style="font-size: 7.6px; font-family: 'DejaVu Sans', 'Bitstream Vera Sans', 'Computer Modern Sans Serif', 'Lucida Grande', 'Verdana', 'Geneva', 'Lucid', 'Arial', 'Helvetica', 'Avant Garde', sans-serif; text-anchor: middle; fill: #111827" x="999.100711" y="381.244182" transform="rotate(-0 999.100711 381.244182)">MIND</text>
    </g>
   </g>
   <g id="text_23">
    <g clip-path="url(#p26d755cbce)">
     <text style="font-size: 7.6px; font-family: 'DejaVu Sans', 'Bitstream Vera Sans', 'Computer Modern Sans Serif', 'Lucida Grande', 'Verdana', 'Geneva', 'Lucid', 'Arial', 'Helvetica', 'Avant Garde', sans-serif; text-anchor: middle; fill: #111827" x="931.877547" y="456.865741" transform="rotate(-0 931.877547 456.865741)">TELEMACHUS</text>
    </g>
   </g>
   <g id="text_24">
    <g clip-path="url(#p26d755cbce)">
     <text style="font-size: 7.6px; font-family: 'DejaVu Sans', 'Bitstream Vera Sans', 'Computer Modern Sans Serif', 'Lucida Grande', 'Verdana', 'Geneva', 'Lucid', 'Arial', 'Helvetica', 'Avant Garde', sans-serif; text-anchor: middle; fill: #111827" x="987.128306" y="357.88751" transform="rotate(-0 987.128306 357.88751)">GENERIC_MAN</text>
    </g>
   </g>
   <g id="text_25">
    <g clip-path="url(#p26d755cbce)">
     <text style="font-size: 7.6px; font-family: 'DejaVu Sans', 'Bitstream Vera Sans', 'Computer Modern Sans Serif', 'Lucida Grande', 'Verdana', 'Geneva', 'Lucid', 'Arial', 'Helvetica', 'Avant Garde', sans-serif; text-anchor: middle; fill: #111827" x="964.408277" y="412.440114" transform="rotate(-0 964.408277 412.440114)">ATHENA</text>
    </g>
   </g>
   <g id="text_26">
    <g clip-path="url(#p26d755cbce)">
     <text style="font-size: 7.6px; font-family: 'DejaVu Sans', 'Bitstream Vera Sans', 'Computer Modern Sans Serif', 'Lucida Grande', 'Verdana', 'Geneva', 'Lucid', 'Arial', 'Helvetica', 'Avant Garde', sans-serif; text-anchor: middle; fill: #111827" x="1113.798251" y="494.253521" transform="rotate(-0 1113.798251 494.253521)">SHIP</text>
    </g>
   </g>
   <g id="text_27">
    <g clip-path="url(#p26d755cbce)">
     <text style="font-size: 7.6px; font-family: 'DejaVu Sans', 'Bitstream Vera Sans', 'Computer Modern Sans Serif', 'Lucida Grande', 'Verdana', 'Geneva', 'Lucid', 'Arial', 'Helvetica', 'Avant Garde', sans-serif; text-anchor: middle; fill: #111827" x="983.163098" y="396.988234" transform="rotate(-0 983.163098 396.988234)">MORTALS</text>
    </g>
   </g>
   <g id="text_28">
    <g clip-path="url(#p26d755cbce)">
     <text style="font-size: 7.6px; font-family: 'DejaVu Sans', 'Bitstream Vera Sans', 'Computer Modern Sans Serif', 'Lucida Grande', 'Verdana', 'Geneva', 'Lucid', 'Arial', 'Helvetica', 'Avant Garde', sans-serif; text-anchor: middle; fill: #111827" x="920.532456" y="551.291586" transform="rotate(-0 920.532456 551.291586)">PENELOPE</text>
    </g>
   </g>
   <g id="text_29">
    <g clip-path="url(#p26d755cbce)">
     <text style="font-size: 7.6px; font-family: 'DejaVu Sans', 'Bitstream Vera Sans', 'Computer Modern Sans Serif', 'Lucida Grande', 'Verdana', 'Geneva', 'Lucid', 'Arial', 'Helvetica', 'Avant Garde', sans-serif; text-anchor: middle; fill: #111827" x="1017.762642" y="510.805876" transform="rotate(-0 1017.762642 510.805876)">fair</text>
    </g>
   </g>
   <g id="text_30">
    <g clip-path="url(#p26d755cbce)">
     <text style="font-size: 7.6px; font-family: 'DejaVu Sans', 'Bitstream Vera Sans', 'Computer Modern Sans Serif', 'Lucida Grande', 'Verdana', 'Geneva', 'Lucid', 'Arial', 'Helvetica', 'Avant Garde', sans-serif; text-anchor: middle; fill: #111827" x="837.01635" y="405.998234" transform="rotate(-0 837.01635 405.998234)">steadfast</text>
    </g>
   </g>
   <g id="text_31">
    <g clip-path="url(#p26d755cbce)">
     <text style="font-size: 7.6px; font-family: 'DejaVu Sans', 'Bitstream Vera Sans', 'Computer Modern Sans Serif', 'Lucida Grande', 'Verdana', 'Geneva', 'Lucid', 'Arial', 'Helvetica', 'Avant Garde', sans-serif; text-anchor: middle; fill: #111827" x="983.723351" y="515.412729" transform="rotate(-0 983.723351 515.412729)">evil</text>
    </g>
   </g>
   <g id="text_32">
    <g clip-path="url(#p26d755cbce)">
     <text style="font-size: 7.6px; font-family: 'DejaVu Sans', 'Bitstream Vera Sans', 'Computer Modern Sans Serif', 'Lucida Grande', 'Verdana', 'Geneva', 'Lucid', 'Arial', 'Helvetica', 'Avant Garde', sans-serif; text-anchor: middle; fill: #111827" x="1055.074316" y="460.466034" transform="rotate(-0 1055.074316 460.466034)">long</text>
    </g>
   </g>
   <g id="text_33">
    <g clip-path="url(#p26d755cbce)">
     <text style="font-size: 7.6px; font-family: 'DejaVu Sans', 'Bitstream Vera Sans', 'Computer Modern Sans Serif', 'Lucida Grande', 'Verdana', 'Geneva', 'Lucid', 'Arial', 'Helvetica', 'Avant Garde', sans-serif; text-anchor: middle; fill: #111827" x="1044.177439" y="496.96024" transform="rotate(-0 1044.177439 496.96024)">high</text>
    </g>
   </g>
   <g id="text_34">
    <g clip-path="url(#p26d755cbce)">
     <text style="font-size: 7.6px; font-family: 'DejaVu Sans', 'Bitstream Vera Sans', 'Computer Modern Sans Serif', 'Lucida Grande', 'Verdana', 'Geneva', 'Lucid', 'Arial', 'Helvetica', 'Avant Garde', sans-serif; text-anchor: middle; fill: #111827" x="1056.378724" y="338.156857" transform="rotate(-0 1056.378724 338.156857)">young</text>
    </g>
   </g>
   <g id="text_35">
    <g clip-path="url(#p26d755cbce)">
     <text style="font-size: 7.6px; font-family: 'DejaVu Sans', 'Bitstream Vera Sans', 'Computer Modern Sans Serif', 'Lucida Grande', 'Verdana', 'Geneva', 'Lucid', 'Arial', 'Helvetica', 'Avant Garde', sans-serif; text-anchor: middle; fill: #111827" x="960.965069" y="498.002558" transform="rotate(-0 960.965069 498.002558)">good</text>
    </g>
   </g>
   <g id="text_36">
    <g clip-path="url(#p26d755cbce)">
     <text style="font-size: 7.6px; font-family: 'DejaVu Sans', 'Bitstream Vera Sans', 'Computer Modern Sans Serif', 'Lucida Grande', 'Verdana', 'Geneva', 'Lucid', 'Arial', 'Helvetica', 'Avant Garde', sans-serif; text-anchor: middle; fill: #111827" x="828.867977" y="481.211439" transform="rotate(-0 828.867977 481.211439)">divine</text>
    </g>
   </g>
   <g id="text_37">
    <g clip-path="url(#p26d755cbce)">
     <text style="font-size: 7.6px; font-family: 'DejaVu Sans', 'Bitstream Vera Sans', 'Computer Modern Sans Serif', 'Lucida Grande', 'Verdana', 'Geneva', 'Lucid', 'Arial', 'Helvetica', 'Avant Garde', sans-serif; text-anchor: middle; fill: #111827" x="889.37511" y="395.596909" transform="rotate(-0 889.37511 395.596909)">old</text>
    </g>
   </g>
   <g id="text_38">
    <g clip-path="url(#p26d755cbce)">
     <text style="font-size: 7.6px; font-family: 'DejaVu Sans', 'Bitstream Vera Sans', 'Computer Modern Sans Serif', 'Lucida Grande', 'Verdana', 'Geneva', 'Lucid', 'Arial', 'Helvetica', 'Avant Garde', sans-serif; text-anchor: middle; fill: #111827" x="834.228599" y="360.961163" transform="rotate(-0 834.228599 360.961163)">gray-eyed</text>
    </g>
   </g>
   <g id="text_39">
    <g clip-path="url(#p26d755cbce)">
     <text style="font-size: 7.6px; font-family: 'DejaVu Sans', 'Bitstream Vera Sans', 'Computer Modern Sans Serif', 'Lucida Grande', 'Verdana', 'Geneva', 'Lucid', 'Arial', 'Helvetica', 'Avant Garde', sans-serif; text-anchor: middle; fill: #111827" x="1064.467036" y="403.217195" transform="rotate(-0 1064.467036 403.217195)">great</text>
    </g>
   </g>
   <g id="text_40">
    <g clip-path="url(#p26d755cbce)">
     <text style="font-size: 7.6px; font-family: 'DejaVu Sans', 'Bitstream Vera Sans', 'Computer Modern Sans Serif', 'Lucida Grande', 'Verdana', 'Geneva', 'Lucid', 'Arial', 'Helvetica', 'Avant Garde', sans-serif; text-anchor: middle; fill: #111827" x="1005.118566" y="461.263282" transform="rotate(-0 1005.118566 461.263282)">glad</text>
    </g>
   </g>
   <g id="text_41">
    <g clip-path="url(#p26d755cbce)">
     <text style="font-size: 7.6px; font-family: 'DejaVu Sans', 'Bitstream Vera Sans', 'Computer Modern Sans Serif', 'Lucida Grande', 'Verdana', 'Geneva', 'Lucid', 'Arial', 'Helvetica', 'Avant Garde', sans-serif; text-anchor: middle; fill: #111827" x="1123.121912" y="417.601069" transform="rotate(-0 1123.121912 417.601069)">black</text>
    </g>
   </g>
   <g id="text_42">
    <g clip-path="url(#p26d755cbce)">
     <text style="font-size: 7.6px; font-family: 'DejaVu Sans', 'Bitstream Vera Sans', 'Computer Modern Sans Serif', 'Lucida Grande', 'Verdana', 'Geneva', 'Lucid', 'Arial', 'Helvetica', 'Avant Garde', sans-serif; text-anchor: middle; fill: #111827" x="1027.968553" y="440.391115" transform="rotate(-0 1027.968553 440.391115)">wise</text>
    </g>
   </g>
   <g id="text_43">
    <g clip-path="url(#p26d755cbce)">
     <text style="font-size: 7.6px; font-family: 'DejaVu Sans', 'Bitstream Vera Sans', 'Computer Modern Sans Serif', 'Lucida Grande', 'Verdana', 'Geneva', 'Lucid', 'Arial', 'Helvetica', 'Avant Garde', sans-serif; text-anchor: middle; fill: #111827" x="1044.03253" y="411.0407" transform="rotate(-0 1044.03253 411.0407)">mighty</text>
    </g>
   </g>
   <g id="text_44">
    <g clip-path="url(#p26d755cbce)">
     <text style="font-size: 7.6px; font-family: 'DejaVu Sans', 'Bitstream Vera Sans', 'Computer Modern Sans Serif', 'Lucida Grande', 'Verdana', 'Geneva', 'Lucid', 'Arial', 'Helvetica', 'Avant Garde', sans-serif; text-anchor: middle; fill: #111827" x="1108.993183" y="445.599014" transform="rotate(-0 1108.993183 445.599014)">deep</text>
    </g>
   </g>
  </g>
  <g id="text_45">
   <text style="font-weight: 700; font-size: 22px; font-family: 'DejaVu Sans'; text-anchor: start; fill: #111827" x="18" y="23.916562" transform="rotate(-0 18 23.916562)">S. H. Butcher and Andrew Lang (1879) — Native target-as-hyperedge visualization</text>
  </g>
  <g id="text_46">
   <text style="font-size: 11px; font-family: 'DejaVu Sans'; text-anchor: start; fill: #475569" x="18" y="42.84" transform="rotate(-0 18 42.84)">Readable weighted core: 34 of 133 attribute nodes; 10 of 90 target hyperedges; 202 of 1017 incidences.</text>
  </g>
  <g id="text_47">
   <text style="font-size: 9px; font-family: 'DejaVu Sans'; text-anchor: start; fill: #475569" x="18" y="755.64" transform="rotate(-0 18 755.64)">Attribute circles and target hyperedges use the colors specified in config/visualizations.json.</text>
  </g>
 </g>
 <defs>
  <clipPath id="pc554e67f7a">
   <rect x="7.2" y="122.72" width="678.6" height="602.32"/>
  </clipPath>
  <clipPath id="p26d755cbce">
   <rect x="696.6" y="122.72" width="678.6" height="602.32"/>
  </clipPath>
 </defs>
</svg>
