<?xml version="1.0" encoding="utf-8" standalone="no"?>
<!DOCTYPE svg PUBLIC "-//W3C//DTD SVG 1.1//EN"
  "http://www.w3.org/Graphics/SVG/1.1/DTD/svg11.dtd">
<svg xmlns:xlink="http://www.w3.org/1999/xlink" width="1382.4pt" height="764.711719pt" viewBox="0 0 1382.4 764.711719" xmlns="http://www.w3.org/2000/svg" version="1.1">
 <metadata>
  <rdf:RDF xmlns:dc="http://purl.org/dc/elements/1.1/" xmlns:cc="http://creativecommons.org/ns#" xmlns:rdf="http://www.w3.org/1999/02/22-rdf-syntax-ns#">
   <cc:Work>
    <dc:type rdf:resource="http://purl.org/dc/dcmitype/StillImage"/>
    <dc:format>image/svg+xml</dc:format>
    <dc:creator>
     <cc:Agent>
      <dc:title>Matplotlib v3.10.3, https://matplotlib.org/</dc:title>
     </cc:Agent>
    </dc:creator>
   </cc:Work>
  </rdf:RDF>
 </metadata>
 <defs>
  <style type="text/css">*{stroke-linejoin: round; stroke-linecap: butt}</style>
 </defs>
 <g id="figure_1">
  <g id="patch_1">
   <path d="M 0 764.711719 
L 1382.4 764.711719 
L 1382.4 0 
L 0 0 
z
" style="fill: #ffffff"/>
  </g>
  <g id="axes_1">
   <g id="text_1">
    <text style="font-weight: 700; font-size: 15px; font-family: 'DejaVu Sans'; text-anchor: start; fill: #111827" x="7.2" y="108.72" transform="rotate(-0 7.2 108.72)">XGI native hyperedge-hull view</text>
   </g>
   <g id="PatchCollection_1">
    <path d="M 125.446377 515.900659 
L 125.418654 516.782824 
L 125.446377 517.664988 
L 125.529437 518.543671 
L 125.667506 519.415404 
L 125.860039 520.276748 
L 126.106277 521.124303 
L 149.011296 589.409078 
L 149.310266 590.2395 
L 149.660789 591.04951 
L 150.061481 591.835912 
L 150.510761 592.595603 
L 151.006855 593.325584 
L 151.547807 594.022974 
L 152.131481 594.685022 
L 152.755573 595.309115 
L 202.873122 644.239642 
L 203.53517 644.823316 
L 204.232561 645.364267 
L 204.962542 645.860362 
L 205.722233 646.309642 
L 206.508635 646.710334 
L 207.318645 647.060857 
L 208.149066 647.359827 
L 208.996621 647.606064 
L 209.857965 647.798597 
L 210.729699 647.936666 
L 211.608382 648.019726 
L 273.539029 650.942211 
L 274.421193 650.969935 
L 275.303357 650.942211 
L 276.18204 650.859151 
L 359.871045 638.243563 
L 360.742779 638.105494 
L 361.604122 637.912961 
L 362.451678 637.666723 
L 363.282099 637.367753 
L 364.092109 637.01723 
L 364.878511 636.616538 
L 365.638202 636.167259 
L 366.368183 635.671164 
L 367.065574 635.130212 
L 367.727621 634.546538 
L 368.351714 633.922446 
L 368.935388 633.260398 
L 425.058692 568.054402 
L 425.599643 567.357011 
L 426.095738 566.62703 
L 426.545018 565.867339 
L 426.94571 565.080937 
L 427.296232 564.270927 
L 427.595202 563.440506 
L 427.84144 562.592951 
L 428.033973 561.731607 
L 428.172042 560.859873 
L 428.255102 559.981191 
L 428.282825 559.099026 
L 428.255102 558.216862 
L 428.172042 557.338179 
L 428.033973 556.466446 
L 427.84144 555.605102 
L 427.595202 554.757547 
L 406.146258 493.190133 
L 405.847288 492.359712 
L 405.496765 491.549702 
L 405.096073 490.7633 
L 346.324825 389.456759 
L 345.875545 388.697069 
L 345.37945 387.967088 
L 344.838499 387.269697 
L 344.254825 386.607649 
L 343.630733 385.983557 
L 342.968685 385.399883 
L 342.271294 384.858931 
L 341.541313 384.362837 
L 340.781622 383.913557 
L 339.99522 383.512865 
L 339.18521 383.162342 
L 338.354789 382.863372 
L 337.507234 382.617135 
L 260.967631 364.056785 
L 260.106287 363.864251 
L 259.234553 363.726182 
L 258.35587 363.643122 
L 257.473706 363.615399 
L 256.591542 363.643122 
L 255.712859 363.726182 
L 254.841125 363.864251 
L 253.979781 364.056785 
L 253.132226 364.303022 
L 252.301805 364.601992 
L 200.391467 384.994912 
L 199.581457 385.345435 
L 137.693617 416.522522 
L 136.907215 416.923214 
L 136.147524 417.372494 
L 135.417543 417.868589 
L 134.720152 418.40954 
L 134.058105 418.993214 
L 133.434012 419.617306 
L 132.850338 420.279354 
L 132.309387 420.976745 
L 131.813292 421.706726 
L 131.364012 422.466417 
L 130.96332 423.252819 
L 130.612798 424.062829 
L 130.313828 424.89325 
L 130.06759 425.740805 
L 129.875057 426.602149 
L 129.736988 427.473883 
L 129.653928 428.352566 
z
" clip-path="url(#pc554e67f7a)" style="fill: #f59e0b; fill-opacity: 0.13; stroke: #d97706; stroke-opacity: 0.13; stroke-width: 0.8"/>
    <path d="M 125.446377 515.900659 
L 125.418654 516.782824 
L 125.446377 517.664988 
L 125.529437 518.543671 
L 125.667506 519.415404 
L 125.860039 520.276748 
L 126.106277 521.124303 
L 149.011296 589.409078 
L 149.310266 590.2395 
L 149.660789 591.04951 
L 150.061481 591.835912 
L 150.510761 592.595603 
L 151.006855 593.325584 
L 151.547807 594.022974 
L 152.131481 594.685022 
L 152.755573 595.309115 
L 202.873122 644.239642 
L 203.53517 644.823316 
L 204.232561 645.364267 
L 204.962542 645.860362 
L 205.722233 646.309642 
L 206.508635 646.710334 
L 207.318645 647.060857 
L 208.149066 647.359827 
L 208.996621 647.606064 
L 209.857965 647.798597 
L 210.729699 647.936666 
L 211.608382 648.019726 
L 273.539029 650.942211 
L 274.421193 650.969935 
L 275.303357 650.942211 
L 276.18204 650.859151 
L 277.053774 650.721082 
L 277.915117 650.528549 
L 278.762672 650.282312 
L 279.593094 649.983342 
L 280.403104 649.632819 
L 281.189506 649.232127 
L 281.949197 648.782847 
L 282.679178 648.286753 
L 283.376569 647.745801 
L 284.038616 647.162127 
L 284.662709 646.538035 
L 363.153352 560.5004 
L 363.737026 559.838352 
L 364.277978 559.140961 
L 404.150699 505.789598 
L 404.646793 505.059617 
L 405.096073 504.299926 
L 405.496765 503.513524 
L 405.847288 502.703514 
L 406.146258 501.873093 
L 406.392495 501.025537 
L 406.585028 500.164194 
L 406.723098 499.29246 
L 406.806157 498.413777 
L 406.833881 497.531613 
L 406.806157 496.649449 
L 406.723098 495.770766 
L 406.585028 494.899032 
L 406.392495 494.037688 
L 406.146258 493.190133 
L 405.847288 492.359712 
L 405.496765 491.549702 
L 405.096073 490.7633 
L 404.646793 490.003609 
L 404.150699 489.273628 
L 403.609747 488.576237 
L 403.026073 487.914189 
L 402.401981 487.290097 
L 401.739933 486.706423 
L 350.770938 442.056183 
L 350.073547 441.515232 
L 349.343566 441.019137 
L 159.66411 319.34979 
L 158.904419 318.90051 
L 158.118017 318.499818 
L 157.308007 318.149295 
L 156.477585 317.850325 
L 155.63003 317.604088 
L 154.768686 317.411554 
L 153.896953 317.273485 
L 153.01827 317.190425 
L 152.136106 317.162702 
L 151.253941 317.190425 
L 150.375259 317.273485 
L 149.503525 317.411554 
L 148.642181 317.604088 
L 147.794626 317.850325 
L 146.964205 318.149295 
L 146.154195 318.499818 
L 145.367792 318.90051 
L 144.608102 319.34979 
L 143.878121 319.845884 
L 143.18073 320.386836 
L 142.518682 320.97051 
L 141.89459 321.594602 
L 141.310916 322.25665 
L 140.769964 322.954041 
L 140.27387 323.684022 
L 139.82459 324.443713 
L 139.423898 325.230115 
L 139.073375 326.040125 
L 138.774405 326.870546 
L 138.528168 327.718101 
L 138.335634 328.579445 
L 138.197565 329.451179 
L 138.114505 330.329861 
z
" clip-path="url(#pc554e67f7a)" style="fill: #f59e0b; fill-opacity: 0.13; stroke: #d97706; stroke-opacity: 0.13; stroke-width: 0.8"/>
    <path d="M 363.737026 559.838352 
L 474.939591 428.439535 
L 475.480542 427.742144 
L 475.976637 427.012163 
L 476.425917 426.252472 
L 476.826609 425.46607 
L 477.177132 424.65606 
L 477.476102 423.825639 
L 477.722339 422.978084 
L 477.914872 422.11674 
L 478.052941 421.245006 
L 478.136001 420.366324 
L 478.163724 419.484159 
L 478.136001 418.601995 
L 478.052941 417.723312 
L 477.914872 416.851579 
L 477.722339 415.990235 
L 477.476102 415.14268 
L 477.177132 414.312258 
L 476.826609 413.502248 
L 476.425917 412.715846 
L 475.976637 411.956155 
L 475.480542 411.226174 
L 474.939591 410.528784 
L 474.355917 409.866736 
L 473.731825 409.242643 
L 473.069777 408.65897 
L 472.372386 408.118018 
L 471.642405 407.621923 
L 470.882714 407.172643 
L 470.096312 406.771951 
L 469.286302 406.421429 
L 468.455881 406.122459 
L 467.608326 405.876221 
L 466.746982 405.683688 
L 260.106287 363.864251 
L 259.234553 363.726182 
L 258.35587 363.643122 
L 257.473706 363.615399 
L 256.591542 363.643122 
L 255.712859 363.726182 
L 254.841125 363.864251 
L 253.979781 364.056785 
L 253.132226 364.303022 
L 252.301805 364.601992 
L 200.391467 384.994912 
L 199.581457 385.345435 
L 198.795055 385.746127 
L 198.035364 386.195407 
L 197.305383 386.691501 
L 196.607993 387.232453 
L 195.945945 387.816127 
L 195.321852 388.440219 
L 194.738179 389.102267 
L 194.197227 389.799658 
L 193.701132 390.529639 
L 193.251852 391.28933 
L 127.156461 510.014511 
L 126.755769 510.800913 
L 126.405247 511.610923 
L 126.106277 512.441344 
L 125.860039 513.288899 
L 125.667506 514.150243 
L 125.529437 515.021977 
L 125.446377 515.900659 
L 125.418654 516.782824 
L 125.446377 517.664988 
L 125.529437 518.543671 
L 125.667506 519.415404 
L 125.860039 520.276748 
L 126.106277 521.124303 
L 126.405247 521.954725 
L 126.755769 522.764735 
L 127.156461 523.551137 
L 127.605741 524.310828 
L 165.480014 586.547793 
L 200.62831 641.52613 
L 201.124405 642.256111 
L 201.665356 642.953502 
L 202.24903 643.61555 
L 202.873122 644.239642 
L 203.53517 644.823316 
L 204.232561 645.364267 
L 204.962542 645.860362 
L 205.722233 646.309642 
L 206.508635 646.710334 
L 207.318645 647.060857 
L 208.149066 647.359827 
L 208.996621 647.606064 
L 209.857965 647.798597 
L 210.729699 647.936666 
L 211.608382 648.019726 
L 273.539029 650.942211 
L 274.421193 650.969935 
L 275.303357 650.942211 
L 276.18204 650.859151 
L 277.053774 650.721082 
L 277.915117 650.528549 
L 278.762672 650.282312 
L 279.593094 649.983342 
L 280.403104 649.632819 
L 281.189506 649.232127 
L 281.949197 648.782847 
L 282.679178 648.286753 
L 283.376569 647.745801 
L 284.038616 647.162127 
L 284.662709 646.538035 
L 363.153352 560.5004 
z
" clip-path="url(#pc554e67f7a)" style="fill: #f59e0b; fill-opacity: 0.13; stroke: #d97706; stroke-opacity: 0.13; stroke-width: 0.8"/>
    <path d="M 293.649359 597.480975 
L 294.233033 598.143023 
L 294.857125 598.767115 
L 295.519173 599.350789 
L 296.216564 599.891741 
L 296.946545 600.387835 
L 350.582194 636.167259 
L 351.341885 636.616538 
L 352.128287 637.01723 
L 352.938297 637.367753 
L 353.768718 637.666723 
L 354.616273 637.912961 
L 355.477617 638.105494 
L 356.349351 638.243563 
L 357.228034 638.326623 
L 358.110198 638.354346 
L 358.992362 638.326623 
L 359.871045 638.243563 
L 360.742779 638.105494 
L 361.604122 637.912961 
L 362.451678 637.666723 
L 363.282099 637.367753 
L 364.092109 637.01723 
L 364.878511 636.616538 
L 365.638202 636.167259 
L 561.060027 520.387865 
L 561.790008 519.891771 
L 562.487398 519.350819 
L 563.149446 518.767145 
L 563.773539 518.143053 
L 564.357212 517.481005 
L 564.898164 516.783614 
L 565.394259 516.053633 
L 565.843539 515.293942 
L 566.244231 514.50754 
L 566.594753 513.69753 
L 566.893723 512.867109 
L 567.139961 512.019554 
L 567.332494 511.15821 
L 567.470563 510.286476 
L 567.553623 509.407793 
L 567.581346 508.525629 
L 567.553623 507.643465 
L 567.470563 506.764782 
L 567.332494 505.893048 
L 567.139961 505.031705 
L 566.893723 504.184149 
L 566.594753 503.353728 
L 566.244231 502.543718 
L 565.843539 501.757316 
L 565.394259 500.997625 
L 564.898164 500.267644 
L 564.357212 499.570253 
L 563.773539 498.908206 
L 563.149446 498.284113 
L 473.731825 409.242643 
L 473.069777 408.65897 
L 472.372386 408.118018 
L 471.642405 407.621923 
L 470.882714 407.172643 
L 470.096312 406.771951 
L 469.286302 406.421429 
L 468.455881 406.122459 
L 467.608326 405.876221 
L 466.746982 405.683688 
L 304.438472 376.349363 
L 303.566739 376.211294 
L 302.688056 376.128234 
L 301.805892 376.100511 
L 300.923727 376.128234 
L 300.045044 376.211294 
L 299.173311 376.349363 
L 298.311967 376.541896 
L 297.464412 376.788133 
L 296.633991 377.087103 
L 295.823981 377.437626 
L 295.037578 377.838318 
L 294.277888 378.287598 
L 293.547906 378.783693 
L 292.850516 379.324644 
L 202.877761 449.175715 
L 202.215713 449.759389 
L 201.591621 450.383481 
L 201.007947 451.045529 
L 200.466996 451.74292 
L 199.970901 452.472901 
L 199.521621 453.232592 
L 199.120929 454.018994 
L 198.770407 454.829004 
L 198.471437 455.659425 
L 198.225199 456.50698 
L 198.032666 457.368324 
L 197.894597 458.240058 
L 197.811537 459.118741 
L 197.783814 460.000905 
L 197.811537 460.883069 
L 197.894597 461.761752 
L 198.032666 462.633486 
L 198.225199 463.49483 
L 198.471437 464.342385 
L 198.770407 465.172806 
L 199.120929 465.982816 
L 199.521621 466.769218 
L 199.970901 467.528909 
L 235.179218 526.061598 
L 235.675313 526.791579 
L 236.216265 527.48897 
z
" clip-path="url(#pc554e67f7a)" style="fill: #f59e0b; fill-opacity: 0.13; stroke: #d97706; stroke-opacity: 0.13; stroke-width: 0.8"/>
    <path d="M 225.309928 597.800192 
L 225.556166 598.647747 
L 225.855136 599.478168 
L 226.205658 600.288178 
L 226.60635 601.074581 
L 227.05563 601.834271 
L 227.551725 602.564253 
L 228.092677 603.261643 
L 228.67635 603.923691 
L 229.300443 604.547784 
L 229.962491 605.131457 
L 230.659881 605.672409 
L 231.389862 606.168504 
L 232.149553 606.617783 
L 232.935955 607.018475 
L 233.745965 607.368998 
L 234.576387 607.667968 
L 235.423942 607.914206 
L 236.285286 608.106739 
L 237.157019 608.244808 
L 238.035702 608.327868 
L 238.917866 608.355591 
L 239.800031 608.327868 
L 300.739286 604.680444 
L 301.617969 604.597384 
L 302.489702 604.459315 
L 303.351046 604.266782 
L 417.727427 572.706964 
L 418.574982 572.460727 
L 419.405403 572.161757 
L 558.703924 521.58836 
L 559.513934 521.237837 
L 560.300336 520.837145 
L 561.060027 520.387865 
L 561.790008 519.891771 
L 562.487398 519.350819 
L 563.149446 518.767145 
L 563.773539 518.143053 
L 564.357212 517.481005 
L 564.898164 516.783614 
L 565.394259 516.053633 
L 565.843539 515.293942 
L 566.244231 514.50754 
L 566.594753 513.69753 
L 566.893723 512.867109 
L 567.139961 512.019554 
L 567.332494 511.15821 
L 567.470563 510.286476 
L 567.553623 509.407793 
L 567.581346 508.525629 
L 567.553623 507.643465 
L 567.470563 506.764782 
L 567.332494 505.893048 
L 567.139961 505.031705 
L 566.893723 504.184149 
L 566.594753 503.353728 
L 566.244231 502.543718 
L 565.843539 501.757316 
L 565.394259 500.997625 
L 564.898164 500.267644 
L 564.357212 499.570253 
L 563.773539 498.908206 
L 563.149446 498.284113 
L 562.487398 497.700439 
L 561.790008 497.159488 
L 561.060027 496.663393 
L 560.300336 496.214113 
L 340.781622 383.913557 
L 339.99522 383.512865 
L 339.18521 383.162342 
L 338.354789 382.863372 
L 337.507234 382.617135 
L 260.967631 364.056785 
L 260.106287 363.864251 
L 259.234553 363.726182 
L 258.35587 363.643122 
L 257.473706 363.615399 
L 256.591542 363.643122 
L 255.712859 363.726182 
L 254.841125 363.864251 
L 253.979781 364.056785 
L 253.132226 364.303022 
L 252.301805 364.601992 
L 251.491795 364.952515 
L 250.705393 365.353207 
L 249.945702 365.802487 
L 249.215721 366.298581 
L 248.51833 366.839533 
L 247.856282 367.423207 
L 247.23219 368.047299 
L 246.648516 368.709347 
L 246.107565 369.406738 
L 245.61147 370.136719 
L 245.16219 370.89641 
L 195.188903 459.328607 
L 194.788211 460.115009 
L 194.437689 460.92502 
L 194.138719 461.755441 
L 193.892481 462.602996 
L 193.699948 463.46434 
L 193.561879 464.336073 
L 193.478819 465.214756 
L 193.451096 466.09692 
L 193.478819 466.979085 
L 193.561879 467.857768 
L 193.699948 468.729501 
L 193.892481 469.590845 
z
" clip-path="url(#pc554e67f7a)" style="fill: #f59e0b; fill-opacity: 0.13; stroke: #d97706; stroke-opacity: 0.13; stroke-width: 0.8"/>
    <path d="M 129.653928 428.352566 
L 129.626205 429.23473 
L 129.653928 430.116894 
L 129.736988 430.995577 
L 129.875057 431.867311 
L 130.06759 432.728655 
L 130.313828 433.57621 
L 130.612798 434.406631 
L 130.96332 435.216641 
L 131.364012 436.003043 
L 131.813292 436.762734 
L 132.309387 437.492715 
L 132.850338 438.190106 
L 133.434012 438.852154 
L 134.058105 439.476246 
L 134.720152 440.05992 
L 238.086079 529.358784 
L 238.783469 529.899736 
L 239.513451 530.39583 
L 240.273141 530.84511 
L 241.059543 531.245802 
L 241.869554 531.596325 
L 242.699975 531.895295 
L 243.54753 532.141532 
L 244.408874 532.334066 
L 245.280607 532.472135 
L 246.15929 532.555195 
L 247.041454 532.582918 
L 247.923619 532.555195 
L 248.802302 532.472135 
L 249.674035 532.334066 
L 306.696222 522.813183 
L 307.557566 522.62065 
L 308.405121 522.374412 
L 309.235542 522.075442 
L 310.045552 521.72492 
L 310.831955 521.324228 
L 311.591645 520.874948 
L 312.321627 520.378853 
L 313.019017 519.837901 
L 313.681065 519.254228 
L 314.305158 518.630135 
L 314.888831 517.968087 
L 315.429783 517.270697 
L 315.925878 516.540716 
L 353.677798 460.409377 
L 354.127078 459.649686 
L 354.52777 458.863284 
L 354.878293 458.053274 
L 355.177263 457.222853 
L 355.4235 456.375298 
L 355.616034 455.513954 
L 355.754103 454.64222 
L 355.837163 453.763537 
L 355.864886 452.881373 
L 355.837163 451.999209 
L 355.754103 451.120526 
L 347.951849 394.464225 
L 347.81378 393.592492 
L 347.621247 392.731148 
L 347.375009 391.883593 
L 347.076039 391.053172 
L 346.725517 390.243162 
L 256.272947 204.857478 
L 255.872255 204.071076 
L 255.422975 203.311385 
L 254.92688 202.581404 
L 254.385928 201.884013 
L 253.802255 201.221965 
L 253.178162 200.597873 
L 252.516115 200.014199 
L 251.818724 199.473247 
L 251.088743 198.977153 
L 250.329052 198.527873 
L 249.54265 198.127181 
L 248.73264 197.776658 
L 247.902218 197.477688 
L 247.054663 197.231451 
L 246.193319 197.038918 
L 245.321586 196.900849 
L 244.442903 196.817789 
L 243.560739 196.790065 
L 242.678574 196.817789 
L 241.799892 196.900849 
L 240.928158 197.038918 
L 240.066814 197.231451 
L 239.219259 197.477688 
L 238.388838 197.776658 
L 237.578828 198.127181 
L 236.792426 198.527873 
L 236.032735 198.977153 
L 235.302754 199.473247 
L 234.605363 200.014199 
L 233.943315 200.597873 
L 233.319223 201.221965 
L 232.735549 201.884013 
L 232.194597 202.581404 
L 140.769964 322.954041 
L 140.27387 323.684022 
L 139.82459 324.443713 
L 139.423898 325.230115 
L 139.073375 326.040125 
L 138.774405 326.870546 
L 138.528168 327.718101 
L 138.335634 328.579445 
L 138.197565 329.451179 
L 138.114505 330.329861 
z
" clip-path="url(#pc554e67f7a)" style="fill: #f59e0b; fill-opacity: 0.13; stroke: #d97706; stroke-opacity: 0.13; stroke-width: 0.8"/>
    <path d="M 366.850377 549.122129 
L 355.754103 451.120526 
L 355.616034 450.248792 
L 355.4235 449.387448 
L 355.177263 448.539893 
L 354.878293 447.709472 
L 354.52777 446.899462 
L 354.127078 446.11306 
L 353.677798 445.353369 
L 353.181704 444.623388 
L 352.640752 443.925997 
L 352.057078 443.263949 
L 351.432986 442.639857 
L 350.770938 442.056183 
L 350.073547 441.515232 
L 349.343566 441.019137 
L 348.583876 440.569857 
L 347.797473 440.169165 
L 346.987463 439.818642 
L 346.157042 439.519672 
L 345.309487 439.273435 
L 344.448143 439.080902 
L 343.57641 438.942833 
L 261.479382 428.473645 
L 260.600699 428.390585 
L 259.718535 428.362862 
L 258.836371 428.390585 
L 257.957688 428.473645 
L 257.085954 428.611715 
L 256.224611 428.804248 
L 255.377056 429.050485 
L 254.546634 429.349455 
L 253.736624 429.699978 
L 201.518508 453.384713 
L 200.732106 453.785404 
L 199.972415 454.234684 
L 199.242434 454.730779 
L 198.545044 455.271731 
L 197.882996 455.855404 
L 197.258903 456.479497 
L 196.67523 457.141545 
L 196.134278 457.838935 
L 195.638183 458.568916 
L 160.988919 512.270454 
L 160.539639 513.030144 
L 160.138947 513.816547 
L 159.788424 514.626557 
L 159.489454 515.456978 
L 159.243217 516.304533 
L 159.050684 517.165877 
L 148.572525 582.435018 
L 148.434456 583.306752 
L 148.351396 584.185434 
L 148.323673 585.067599 
L 148.351396 585.949763 
L 148.434456 586.828446 
L 148.572525 587.700179 
L 148.765059 588.561523 
L 149.011296 589.409078 
L 149.310266 590.2395 
L 149.660789 591.04951 
L 150.061481 591.835912 
L 150.510761 592.595603 
L 151.006855 593.325584 
L 151.547807 594.022974 
L 152.131481 594.685022 
L 152.755573 595.309115 
L 153.417621 595.892788 
L 154.115011 596.43374 
L 154.844993 596.929835 
L 155.604683 597.379115 
L 156.391086 597.779807 
L 157.201096 598.130329 
L 158.031517 598.429299 
L 158.879072 598.675537 
L 159.740416 598.86807 
L 160.612149 599.006139 
L 237.157019 608.244808 
L 238.035702 608.327868 
L 238.917866 608.355591 
L 239.800031 608.327868 
L 305.356713 602.547199 
L 306.235396 602.464139 
L 307.10713 602.32607 
L 307.968474 602.133537 
L 308.816029 601.8873 
L 309.64645 601.58833 
L 310.45646 601.237807 
L 311.242862 600.837115 
L 312.002553 600.387835 
L 312.732534 599.891741 
L 313.429925 599.350789 
L 361.867212 561.708166 
L 362.52926 561.124492 
L 363.153352 560.5004 
L 363.737026 559.838352 
L 364.277978 559.140961 
L 364.774072 558.41098 
L 365.223352 557.651289 
L 365.624044 556.864887 
L 365.974567 556.054877 
L 366.273537 555.224456 
L 366.519774 554.376901 
L 366.712308 553.515557 
L 366.850377 552.643823 
L 366.933437 551.76514 
L 366.96116 550.882976 
L 366.933437 550.000812 
z
" clip-path="url(#pc554e67f7a)" style="fill: #f59e0b; fill-opacity: 0.13; stroke: #d97706; stroke-opacity: 0.13; stroke-width: 0.8"/>
    <path d="M 363.737026 559.838352 
L 474.939591 428.439535 
L 475.480542 427.742144 
L 475.976637 427.012163 
L 476.425917 426.252472 
L 476.826609 425.46607 
L 477.177132 424.65606 
L 477.476102 423.825639 
L 477.722339 422.978084 
L 477.914872 422.11674 
L 478.052941 421.245006 
L 478.136001 420.366324 
L 478.163724 419.484159 
L 478.136001 418.601995 
L 478.052941 417.723312 
L 477.914872 416.851579 
L 477.722339 415.990235 
L 477.476102 415.14268 
L 477.177132 414.312258 
L 476.826609 413.502248 
L 476.425917 412.715846 
L 475.976637 411.956155 
L 475.480542 411.226174 
L 474.939591 410.528784 
L 474.355917 409.866736 
L 473.731825 409.242643 
L 473.069777 408.65897 
L 472.372386 408.118018 
L 471.642405 407.621923 
L 470.882714 407.172643 
L 470.096312 406.771951 
L 469.286302 406.421429 
L 468.455881 406.122459 
L 467.608326 405.876221 
L 466.746982 405.683688 
L 465.875248 405.545619 
L 464.996565 405.462559 
L 464.114401 405.434836 
L 463.232237 405.462559 
L 462.353554 405.545619 
L 257.957688 428.473645 
L 257.085954 428.611715 
L 256.224611 428.804248 
L 255.377056 429.050485 
L 254.546634 429.349455 
L 206.661236 446.938174 
L 205.851226 447.288697 
L 205.064824 447.689389 
L 204.305133 448.138669 
L 203.575152 448.634764 
L 202.877761 449.175715 
L 202.215713 449.759389 
L 201.591621 450.383481 
L 201.007947 451.045529 
L 200.466996 451.74292 
L 196.134278 457.838935 
L 195.638183 458.568916 
L 195.188903 459.328607 
L 194.788211 460.115009 
L 194.437689 460.92502 
L 194.138719 461.755441 
L 193.892481 462.602996 
L 193.699948 463.46434 
L 193.561879 464.336073 
L 193.478819 465.214756 
L 193.451096 466.09692 
L 193.478819 466.979085 
L 193.561879 467.857768 
L 193.699948 468.729501 
L 193.892481 469.590845 
L 194.138719 470.4384 
L 194.437689 471.268821 
L 261.358462 642.092512 
L 261.708985 642.902522 
L 262.109677 643.688924 
L 262.558957 644.448615 
L 263.055051 645.178596 
L 263.596003 645.875987 
L 264.179677 646.538035 
L 264.803769 647.162127 
L 265.465817 647.745801 
L 266.163208 648.286753 
L 266.893189 648.782847 
L 267.65288 649.232127 
L 268.439282 649.632819 
L 269.249292 649.983342 
L 270.079713 650.282312 
L 270.927268 650.528549 
L 271.788612 650.721082 
L 272.660346 650.859151 
L 273.539029 650.942211 
L 274.421193 650.969935 
L 275.303357 650.942211 
L 276.18204 650.859151 
L 277.053774 650.721082 
L 277.915117 650.528549 
L 278.762672 650.282312 
L 279.593094 649.983342 
L 280.403104 649.632819 
L 281.189506 649.232127 
L 281.949197 648.782847 
L 282.679178 648.286753 
L 283.376569 647.745801 
L 284.038616 647.162127 
L 284.662709 646.538035 
L 363.153352 560.5004 
z
" clip-path="url(#pc554e67f7a)" style="fill: #f59e0b; fill-opacity: 0.13; stroke: #d97706; stroke-opacity: 0.13; stroke-width: 0.8"/>
    <path d="M 191.95543 394.563718 
L 159.243217 516.304533 
L 159.050684 517.165877 
L 158.912615 518.03761 
L 158.829555 518.916293 
L 158.801832 519.798458 
L 158.829555 520.680622 
L 158.912615 521.559305 
L 159.050684 522.431038 
L 159.243217 523.292382 
L 159.489454 524.139937 
L 159.788424 524.970358 
L 160.138947 525.780369 
L 160.539639 526.566771 
L 160.988919 527.326462 
L 161.485014 528.056443 
L 162.025965 528.753833 
L 162.609639 529.415881 
L 163.233731 530.039974 
L 163.895779 530.623647 
L 164.59317 531.164599 
L 165.323151 531.660694 
L 166.082842 532.109974 
L 293.088808 602.97036 
L 293.875211 603.371052 
L 294.685221 603.721574 
L 295.515642 604.020545 
L 296.363197 604.266782 
L 297.224541 604.459315 
L 298.096274 604.597384 
L 298.974957 604.680444 
L 299.857122 604.708167 
L 300.739286 604.680444 
L 301.617969 604.597384 
L 302.489702 604.459315 
L 303.351046 604.266782 
L 304.198601 604.020545 
L 305.029022 603.721574 
L 305.839032 603.371052 
L 306.625435 602.97036 
L 307.385125 602.52108 
L 308.115107 602.024985 
L 308.812497 601.484034 
L 309.474545 600.90036 
L 310.098637 600.276268 
L 403.026073 507.149036 
L 403.609747 506.486989 
L 404.150699 505.789598 
L 404.646793 505.059617 
L 405.096073 504.299926 
L 405.496765 503.513524 
L 405.847288 502.703514 
L 406.146258 501.873093 
L 406.392495 501.025537 
L 406.585028 500.164194 
L 406.723098 499.29246 
L 406.806157 498.413777 
L 406.833881 497.531613 
L 406.806157 496.649449 
L 406.723098 495.770766 
L 406.585028 494.899032 
L 406.392495 494.037688 
L 406.146258 493.190133 
L 405.847288 492.359712 
L 405.496765 491.549702 
L 405.096073 490.7633 
L 346.324825 389.456759 
L 345.875545 388.697069 
L 345.37945 387.967088 
L 344.838499 387.269697 
L 344.254825 386.607649 
L 343.630733 385.983557 
L 342.968685 385.399883 
L 342.271294 384.858931 
L 341.541313 384.362837 
L 340.781622 383.913557 
L 339.99522 383.512865 
L 339.18521 383.162342 
L 338.354789 382.863372 
L 337.507234 382.617135 
L 260.967631 364.056785 
L 260.106287 363.864251 
L 259.234553 363.726182 
L 258.35587 363.643122 
L 257.473706 363.615399 
L 256.591542 363.643122 
L 255.712859 363.726182 
L 254.841125 363.864251 
L 253.979781 364.056785 
L 253.132226 364.303022 
L 252.301805 364.601992 
L 200.391467 384.994912 
L 199.581457 385.345435 
L 198.795055 385.746127 
L 198.035364 386.195407 
L 197.305383 386.691501 
L 196.607993 387.232453 
L 195.945945 387.816127 
L 195.321852 388.440219 
L 194.738179 389.102267 
L 194.197227 389.799658 
L 193.701132 390.529639 
L 193.251852 391.28933 
L 192.851161 392.075732 
L 192.500638 392.885742 
L 192.201668 393.716163 
z
" clip-path="url(#pc554e67f7a)" style="fill: #f59e0b; fill-opacity: 0.13; stroke: #d97706; stroke-opacity: 0.13; stroke-width: 0.8"/>
    <path d="M 125.446377 515.900659 
L 125.418654 516.782824 
L 125.446377 517.664988 
L 125.529437 518.543671 
L 125.667506 519.415404 
L 125.860039 520.276748 
L 126.106277 521.124303 
L 149.011296 589.409078 
L 149.310266 590.2395 
L 149.660789 591.04951 
L 150.061481 591.835912 
L 150.510761 592.595603 
L 151.006855 593.325584 
L 151.547807 594.022974 
L 152.131481 594.685022 
L 152.755573 595.309115 
L 153.417621 595.892788 
L 154.115011 596.43374 
L 154.844993 596.929835 
L 155.604683 597.379115 
L 156.391086 597.779807 
L 157.201096 598.130329 
L 158.031517 598.429299 
L 158.879072 598.675537 
L 159.740416 598.86807 
L 355.477617 638.105494 
L 356.349351 638.243563 
L 357.228034 638.326623 
L 358.110198 638.354346 
L 358.992362 638.326623 
L 359.871045 638.243563 
L 360.742779 638.105494 
L 361.604122 637.912961 
L 362.451678 637.666723 
L 363.282099 637.367753 
L 364.092109 637.01723 
L 364.878511 636.616538 
L 365.638202 636.167259 
L 366.368183 635.671164 
L 367.065574 635.130212 
L 367.727621 634.546538 
L 368.351714 633.922446 
L 368.935388 633.260398 
L 369.476339 632.563008 
L 369.972434 631.833026 
L 370.421714 631.073336 
L 370.822406 630.286933 
L 371.172928 629.476923 
L 371.471898 628.646502 
L 371.718136 627.798947 
L 371.910669 626.937603 
L 372.048738 626.06587 
L 372.131798 625.187187 
L 372.159521 624.305022 
L 372.131798 623.422858 
L 372.048738 622.544175 
L 355.754103 451.120526 
L 355.616034 450.248792 
L 355.4235 449.387448 
L 355.177263 448.539893 
L 354.878293 447.709472 
L 354.52777 446.899462 
L 354.127078 446.11306 
L 353.677798 445.353369 
L 353.181704 444.623388 
L 352.640752 443.925997 
L 352.057078 443.263949 
L 351.432986 442.639857 
L 350.770938 442.056183 
L 350.073547 441.515232 
L 349.343566 441.019137 
L 159.66411 319.34979 
L 158.904419 318.90051 
L 158.118017 318.499818 
L 157.308007 318.149295 
L 156.477585 317.850325 
L 155.63003 317.604088 
L 154.768686 317.411554 
L 153.896953 317.273485 
L 153.01827 317.190425 
L 152.136106 317.162702 
L 151.253941 317.190425 
L 150.375259 317.273485 
L 149.503525 317.411554 
L 148.642181 317.604088 
L 147.794626 317.850325 
L 146.964205 318.149295 
L 146.154195 318.499818 
L 145.367792 318.90051 
L 144.608102 319.34979 
L 143.878121 319.845884 
L 143.18073 320.386836 
L 142.518682 320.97051 
L 141.89459 321.594602 
L 141.310916 322.25665 
L 140.769964 322.954041 
L 140.27387 323.684022 
L 139.82459 324.443713 
L 139.423898 325.230115 
L 139.073375 326.040125 
L 138.774405 326.870546 
L 138.528168 327.718101 
L 138.335634 328.579445 
L 138.197565 329.451179 
L 138.114505 330.329861 
z
" clip-path="url(#pc554e67f7a)" style="fill: #f59e0b; fill-opacity: 0.13; stroke: #d97706; stroke-opacity: 0.13; stroke-width: 0.8"/>
   </g>
   <g id="LineCollection_1"/>
   <g id="PathCollection_1">
    <defs>
     <path id="m82c9e98f7c" d="M 0 6 
C 1.591219 6 3.117479 5.367802 4.242641 4.242641 
C 5.367802 3.117479 6 1.591219 6 0 
C 6 -1.591219 5.367802 -3.117479 4.242641 -4.242641 
C 3.117479 -5.367802 1.591219 -6 0 -6 
C -1.591219 -6 -3.117479 -5.367802 -4.242641 -4.242641 
C -5.367802 -3.117479 -6 -1.591219 -6 0 
C -6 1.591219 -5.367802 3.117479 -4.242641 4.242641 
C -3.117479 5.367802 -1.591219 6 0 6 
z
" style="stroke: #334155; stroke-width: 0.8"/>
    </defs>
    <g clip-path="url(#pc554e67f7a)">
     <use xlink:href="#m82c9e98f7c" x="301.805892" y="390.149834" style="fill: #38bdf8; stroke: #334155; stroke-width: 0.8"/>
     <use xlink:href="#m82c9e98f7c" x="464.114401" y="419.484159" style="fill: #38bdf8; stroke: #334155; stroke-width: 0.8"/>
     <use xlink:href="#m82c9e98f7c" x="304.474549" y="588.525599" style="fill: #38bdf8; stroke: #334155; stroke-width: 0.8"/>
     <use xlink:href="#m82c9e98f7c" x="205.563368" y="398.057643" style="fill: #38bdf8; stroke: #334155; stroke-width: 0.8"/>
     <use xlink:href="#m82c9e98f7c" x="334.013309" y="396.225073" style="fill: #38bdf8; stroke: #334155; stroke-width: 0.8"/>
     <use xlink:href="#m82c9e98f7c" x="177.34225" y="579.019789" style="fill: #38bdf8; stroke: #334155; stroke-width: 0.8"/>
     <use xlink:href="#m82c9e98f7c" x="293.652417" y="501.543638" style="fill: #38bdf8; stroke: #334155; stroke-width: 0.8"/>
     <use xlink:href="#m82c9e98f7c" x="247.041454" y="518.533594" style="fill: #38bdf8; stroke: #334155; stroke-width: 0.8"/>
     <use xlink:href="#m82c9e98f7c" x="352.899363" y="550.877038" style="fill: #38bdf8; stroke: #334155; stroke-width: 0.8"/>
     <use xlink:href="#m82c9e98f7c" x="274.421193" y="636.920611" style="fill: #38bdf8; stroke: #334155; stroke-width: 0.8"/>
     <use xlink:href="#m82c9e98f7c" x="139.467977" y="516.782824" style="fill: #38bdf8; stroke: #334155; stroke-width: 0.8"/>
     <use xlink:href="#m82c9e98f7c" x="331.438004" y="461.200796" style="fill: #38bdf8; stroke: #334155; stroke-width: 0.8"/>
     <use xlink:href="#m82c9e98f7c" x="212.490546" y="633.998126" style="fill: #38bdf8; stroke: #334155; stroke-width: 0.8"/>
     <use xlink:href="#m82c9e98f7c" x="304.063642" y="509.012712" style="fill: #38bdf8; stroke: #334155; stroke-width: 0.8"/>
     <use xlink:href="#m82c9e98f7c" x="333.132234" y="456.945792" style="fill: #38bdf8; stroke: #334155; stroke-width: 0.8"/>
     <use xlink:href="#m82c9e98f7c" x="259.718535" y="442.412186" style="fill: #38bdf8; stroke: #334155; stroke-width: 0.8"/>
     <use xlink:href="#m82c9e98f7c" x="207.500419" y="466.09692" style="fill: #38bdf8; stroke: #334155; stroke-width: 0.8"/>
     <use xlink:href="#m82c9e98f7c" x="352.911836" y="550.882976" style="fill: #38bdf8; stroke: #334155; stroke-width: 0.8"/>
     <use xlink:href="#m82c9e98f7c" x="172.851155" y="519.798458" style="fill: #38bdf8; stroke: #334155; stroke-width: 0.8"/>
     <use xlink:href="#m82c9e98f7c" x="238.917866" y="594.306268" style="fill: #38bdf8; stroke: #334155; stroke-width: 0.8"/>
     <use xlink:href="#m82c9e98f7c" x="211.833137" y="460.000905" style="fill: #38bdf8; stroke: #334155; stroke-width: 0.8"/>
     <use xlink:href="#m82c9e98f7c" x="257.473706" y="377.664723" style="fill: #38bdf8; stroke: #334155; stroke-width: 0.8"/>
     <use xlink:href="#m82c9e98f7c" x="249.93751" y="516.462586" style="fill: #38bdf8; stroke: #334155; stroke-width: 0.8"/>
     <use xlink:href="#m82c9e98f7c" x="299.857122" y="590.658844" style="fill: #38bdf8; stroke: #334155; stroke-width: 0.8"/>
     <use xlink:href="#m82c9e98f7c" x="341.815562" y="452.881373" style="fill: #38bdf8; stroke: #334155; stroke-width: 0.8"/>
     <use xlink:href="#m82c9e98f7c" x="392.784557" y="497.531613" style="fill: #38bdf8; stroke: #334155; stroke-width: 0.8"/>
     <use xlink:href="#m82c9e98f7c" x="268.521486" y="447.821596" style="fill: #38bdf8; stroke: #334155; stroke-width: 0.8"/>
     <use xlink:href="#m82c9e98f7c" x="414.233502" y="559.099026" style="fill: #38bdf8; stroke: #334155; stroke-width: 0.8"/>
     <use xlink:href="#m82c9e98f7c" x="553.532023" y="508.525629" style="fill: #38bdf8; stroke: #334155; stroke-width: 0.8"/>
     <use xlink:href="#m82c9e98f7c" x="358.110198" y="624.305022" style="fill: #38bdf8; stroke: #334155; stroke-width: 0.8"/>
     <use xlink:href="#m82c9e98f7c" x="143.675528" y="429.23473" style="fill: #38bdf8; stroke: #334155; stroke-width: 0.8"/>
     <use xlink:href="#m82c9e98f7c" x="162.372997" y="585.067599" style="fill: #38bdf8; stroke: #334155; stroke-width: 0.8"/>
     <use xlink:href="#m82c9e98f7c" x="152.136106" y="331.212026" style="fill: #38bdf8; stroke: #334155; stroke-width: 0.8"/>
     <use xlink:href="#m82c9e98f7c" x="243.560739" y="210.839389" style="fill: #38bdf8; stroke: #334155; stroke-width: 0.8"/>
    </g>
   </g>
   <g id="text_2">
    <g clip-path="url(#pc554e67f7a)">
     <text style="font-size: 8.2px; font-family: 'DejaVu Sans', 'Bitstream Vera Sans', 'Computer Modern Sans Serif', 'Lucida Grande', 'Verdana', 'Geneva', 'Lucid', 'Arial', 'Helvetica', 'Avant Garde', sans-serif; text-anchor: middle; fill: #111827" x="293.652417" y="503.806325" transform="rotate(-0 293.652417 503.806325)">fair</text>
    </g>
   </g>
   <g id="text_3">
    <g clip-path="url(#pc554e67f7a)">
     <text style="font-size: 8.2px; font-family: 'DejaVu Sans', 'Bitstream Vera Sans', 'Computer Modern Sans Serif', 'Lucida Grande', 'Verdana', 'Geneva', 'Lucid', 'Arial', 'Helvetica', 'Avant Garde', sans-serif; text-anchor: middle; fill: #111827" x="358.110198" y="626.56771" transform="rotate(-0 358.110198 626.56771)">steadfast</text>
    </g>
   </g>
   <g id="text_4">
    <g clip-path="url(#pc554e67f7a)">
     <text style="font-size: 8.2px; font-family: 'DejaVu Sans', 'Bitstream Vera Sans', 'Computer Modern Sans Serif', 'Lucida Grande', 'Verdana', 'Geneva', 'Lucid', 'Arial', 'Helvetica', 'Avant Garde', sans-serif; text-anchor: middle; fill: #111827" x="341.815562" y="455.14406" transform="rotate(-0 341.815562 455.14406)">evil</text>
    </g>
   </g>
   <g id="text_5">
    <g clip-path="url(#pc554e67f7a)">
     <text style="font-size: 8.2px; font-family: 'DejaVu Sans', 'Bitstream Vera Sans', 'Computer Modern Sans Serif', 'Lucida Grande', 'Verdana', 'Geneva', 'Lucid', 'Arial', 'Helvetica', 'Avant Garde', sans-serif; text-anchor: middle; fill: #111827" x="259.718535" y="444.674873" transform="rotate(-0 259.718535 444.674873)">long</text>
    </g>
   </g>
   <g id="text_6">
    <g clip-path="url(#pc554e67f7a)">
     <text style="font-size: 8.2px; font-family: 'DejaVu Sans', 'Bitstream Vera Sans', 'Computer Modern Sans Serif', 'Lucida Grande', 'Verdana', 'Geneva', 'Lucid', 'Arial', 'Helvetica', 'Avant Garde', sans-serif; text-anchor: middle; fill: #111827" x="333.132234" y="459.20848" transform="rotate(-0 333.132234 459.20848)">high</text>
    </g>
   </g>
   <g id="text_7">
    <g clip-path="url(#pc554e67f7a)">
     <text style="font-size: 8.2px; font-family: 'DejaVu Sans', 'Bitstream Vera Sans', 'Computer Modern Sans Serif', 'Lucida Grande', 'Verdana', 'Geneva', 'Lucid', 'Arial', 'Helvetica', 'Avant Garde', sans-serif; text-anchor: middle; fill: #111827" x="299.857122" y="592.921532" transform="rotate(-0 299.857122 592.921532)">young</text>
    </g>
   </g>
   <g id="text_8">
    <g clip-path="url(#pc554e67f7a)">
     <text style="font-size: 8.2px; font-family: 'DejaVu Sans', 'Bitstream Vera Sans', 'Computer Modern Sans Serif', 'Lucida Grande', 'Verdana', 'Geneva', 'Lucid', 'Arial', 'Helvetica', 'Avant Garde', sans-serif; text-anchor: middle; fill: #111827" x="331.438004" y="463.463483" transform="rotate(-0 331.438004 463.463483)">good</text>
    </g>
   </g>
   <g id="text_9">
    <g clip-path="url(#pc554e67f7a)">
     <text style="font-size: 8.2px; font-family: 'DejaVu Sans', 'Bitstream Vera Sans', 'Computer Modern Sans Serif', 'Lucida Grande', 'Verdana', 'Geneva', 'Lucid', 'Arial', 'Helvetica', 'Avant Garde', sans-serif; text-anchor: middle; fill: #111827" x="177.34225" y="581.282477" transform="rotate(-0 177.34225 581.282477)">divine</text>
    </g>
   </g>
   <g id="text_10">
    <g clip-path="url(#pc554e67f7a)">
     <text style="font-size: 8.2px; font-family: 'DejaVu Sans', 'Bitstream Vera Sans', 'Computer Modern Sans Serif', 'Lucida Grande', 'Verdana', 'Geneva', 'Lucid', 'Arial', 'Helvetica', 'Avant Garde', sans-serif; text-anchor: middle; fill: #111827" x="352.911836" y="553.145663" transform="rotate(-0 352.911836 553.145663)">old</text>
    </g>
   </g>
   <g id="text_11">
    <g clip-path="url(#pc554e67f7a)">
     <text style="font-size: 8.2px; font-family: 'DejaVu Sans', 'Bitstream Vera Sans', 'Computer Modern Sans Serif', 'Lucida Grande', 'Verdana', 'Geneva', 'Lucid', 'Arial', 'Helvetica', 'Avant Garde', sans-serif; text-anchor: middle; fill: #111827" x="212.490546" y="636.260814" transform="rotate(-0 212.490546 636.260814)">gray-eyed</text>
    </g>
   </g>
   <g id="text_12">
    <g clip-path="url(#pc554e67f7a)">
     <text style="font-size: 8.2px; font-family: 'DejaVu Sans', 'Bitstream Vera Sans', 'Computer Modern Sans Serif', 'Lucida Grande', 'Verdana', 'Geneva', 'Lucid', 'Arial', 'Helvetica', 'Avant Garde', sans-serif; text-anchor: middle; fill: #111827" x="304.063642" y="511.275399" transform="rotate(-0 304.063642 511.275399)">great</text>
    </g>
   </g>
   <g id="text_13">
    <g clip-path="url(#pc554e67f7a)">
     <text style="font-size: 8.2px; font-family: 'DejaVu Sans', 'Bitstream Vera Sans', 'Computer Modern Sans Serif', 'Lucida Grande', 'Verdana', 'Geneva', 'Lucid', 'Arial', 'Helvetica', 'Avant Garde', sans-serif; text-anchor: middle; fill: #111827" x="247.041454" y="520.796282" transform="rotate(-0 247.041454 520.796282)">glad</text>
    </g>
   </g>
   <g id="text_14">
    <g clip-path="url(#pc554e67f7a)">
     <text style="font-size: 8.2px; font-family: 'DejaVu Sans', 'Bitstream Vera Sans', 'Computer Modern Sans Serif', 'Lucida Grande', 'Verdana', 'Geneva', 'Lucid', 'Arial', 'Helvetica', 'Avant Garde', sans-serif; text-anchor: middle; fill: #111827" x="301.805892" y="392.412521" transform="rotate(-0 301.805892 392.412521)">black</text>
    </g>
   </g>
   <g id="text_15">
    <g clip-path="url(#pc554e67f7a)">
     <text style="font-size: 8.2px; font-family: 'DejaVu Sans', 'Bitstream Vera Sans', 'Computer Modern Sans Serif', 'Lucida Grande', 'Verdana', 'Geneva', 'Lucid', 'Arial', 'Helvetica', 'Avant Garde', sans-serif; text-anchor: middle; fill: #111827" x="249.93751" y="518.725274" transform="rotate(-0 249.93751 518.725274)">wise</text>
    </g>
   </g>
   <g id="text_16">
    <g clip-path="url(#pc554e67f7a)">
     <text style="font-size: 8.2px; font-family: 'DejaVu Sans', 'Bitstream Vera Sans', 'Computer Modern Sans Serif', 'Lucida Grande', 'Verdana', 'Geneva', 'Lucid', 'Arial', 'Helvetica', 'Avant Garde', sans-serif; text-anchor: middle; fill: #111827" x="207.500419" y="468.359608" transform="rotate(-0 207.500419 468.359608)">mighty</text>
    </g>
   </g>
   <g id="text_17">
    <g clip-path="url(#pc554e67f7a)">
     <text style="font-size: 8.2px; font-family: 'DejaVu Sans', 'Bitstream Vera Sans', 'Computer Modern Sans Serif', 'Lucida Grande', 'Verdana', 'Geneva', 'Lucid', 'Arial', 'Helvetica', 'Avant Garde', sans-serif; text-anchor: middle; fill: #111827" x="334.013309" y="398.48776" transform="rotate(-0 334.013309 398.48776)">deep</text>
    </g>
   </g>
  </g>
  <g id="axes_2">
   <g id="LineCollection_2">
    <path d="M 1006.738246 352.01611 
L 946.374055 394.656438 
" clip-path="url(#p26d755cbce)" style="fill: none; stroke: #64748b; stroke-width: 0.65"/>
    <path d="M 1116.809501 372.509177 
L 946.374055 394.656438 
" clip-path="url(#p26d755cbce)" style="fill: none; stroke: #64748b; stroke-width: 0.65"/>
    <path d="M 995.058499 302.620481 
L 946.374055 394.656438 
" clip-path="url(#p26d755cbce)" style="fill: none; stroke: #64748b; stroke-width: 0.65"/>
    <path d="M 1024.804919 310.524989 
L 946.374055 394.656438 
" clip-path="url(#p26d755cbce)" style="fill: none; stroke: #64748b; stroke-width: 0.65"/>
    <path d="M 883.240732 560.886899 
L 946.374055 394.656438 
" clip-path="url(#p26d755cbce)" style="fill: none; stroke: #64748b; stroke-width: 0.65"/>
    <path d="M 985.68145 335.53735 
L 946.374055 394.656438 
" clip-path="url(#p26d755cbce)" style="fill: none; stroke: #64748b; stroke-width: 0.65"/>
    <path d="M 836.578347 401.714742 
L 946.374055 394.656438 
" clip-path="url(#p26d755cbce)" style="fill: none; stroke: #64748b; stroke-width: 0.65"/>
    <path d="M 956.595464 261.425547 
L 946.374055 394.656438 
" clip-path="url(#p26d755cbce)" style="fill: none; stroke: #64748b; stroke-width: 0.65"/>
    <path d="M 888.46934 456.878548 
L 946.374055 394.656438 
" clip-path="url(#p26d755cbce)" style="fill: none; stroke: #64748b; stroke-width: 0.65"/>
    <path d="M 848.460736 288.677454 
L 946.374055 394.656438 
" clip-path="url(#p26d755cbce)" style="fill: none; stroke: #64748b; stroke-width: 0.65"/>
    <path d="M 873.585899 409.142082 
L 946.374055 394.656438 
" clip-path="url(#p26d755cbce)" style="fill: none; stroke: #64748b; stroke-width: 0.65"/>
    <path d="M 828.867977 368.083146 
L 946.374055 394.656438 
" clip-path="url(#p26d755cbce)" style="fill: none; stroke: #64748b; stroke-width: 0.65"/>
    <path d="M 1099.969607 419.106668 
L 946.374055 394.656438 
" clip-path="url(#p26d755cbce)" style="fill: none; stroke: #64748b; stroke-width: 0.65"/>
    <path d="M 864.093231 439.855319 
L 946.374055 394.656438 
" clip-path="url(#p26d755cbce)" style="fill: none; stroke: #64748b; stroke-width: 0.65"/>
    <path d="M 892.478727 259.816727 
L 946.374055 394.656438 
" clip-path="url(#p26d755cbce)" style="fill: none; stroke: #64748b; stroke-width: 0.65"/>
    <path d="M 917.025988 373.95023 
L 946.374055 394.656438 
" clip-path="url(#p26d755cbce)" style="fill: none; stroke: #64748b; stroke-width: 0.65"/>
    <path d="M 1059.822798 467.180187 
L 946.374055 394.656438 
" clip-path="url(#p26d755cbce)" style="fill: none; stroke: #64748b; stroke-width: 0.65"/>
    <path d="M 923.416859 483.597801 
L 946.374055 394.656438 
" clip-path="url(#p26d755cbce)" style="fill: none; stroke: #64748b; stroke-width: 0.65"/>
    <path d="M 960.863824 315.546792 
L 946.374055 394.656438 
" clip-path="url(#p26d755cbce)" style="fill: none; stroke: #64748b; stroke-width: 0.65"/>
    <path d="M 1028.654325 452.583781 
L 946.374055 394.656438 
" clip-path="url(#p26d755cbce)" style="fill: none; stroke: #64748b; stroke-width: 0.65"/>
    <path d="M 1013.492921 417.522342 
L 946.374055 394.656438 
" clip-path="url(#p26d755cbce)" style="fill: none; stroke: #64748b; stroke-width: 0.65"/>
    <path d="M 1001.559969 382.486696 
L 946.374055 394.656438 
" clip-path="url(#p26d755cbce)" style="fill: none; stroke: #64748b; stroke-width: 0.65"/>
    <path d="M 1086.59035 447.253602 
L 946.374055 394.656438 
" clip-path="url(#p26d755cbce)" style="fill: none; stroke: #64748b; stroke-width: 0.65"/>
    <path d="M 835.535495 325.174531 
L 946.374055 394.656438 
" clip-path="url(#p26d755cbce)" style="fill: none; stroke: #64748b; stroke-width: 0.65"/>
    <path d="M 1006.738246 352.01611 
L 935.500106 426.16911 
" clip-path="url(#p26d755cbce)" style="fill: none; stroke: #64748b; stroke-width: 0.65"/>
    <path d="M 995.058499 302.620481 
L 935.500106 426.16911 
" clip-path="url(#p26d755cbce)" style="fill: none; stroke: #64748b; stroke-width: 0.65"/>
    <path d="M 883.240732 560.886899 
L 935.500106 426.16911 
" clip-path="url(#p26d755cbce)" style="fill: none; stroke: #64748b; stroke-width: 0.65"/>
    <path d="M 985.68145 335.53735 
L 935.500106 426.16911 
" clip-path="url(#p26d755cbce)" style="fill: none; stroke: #64748b; stroke-width: 0.65"/>
    <path d="M 888.46934 456.878548 
L 935.500106 426.16911 
" clip-path="url(#p26d755cbce)" style="fill: none; stroke: #64748b; stroke-width: 0.65"/>
    <path d="M 873.585899 409.142082 
L 935.500106 426.16911 
" clip-path="url(#p26d755cbce)" style="fill: none; stroke: #64748b; stroke-width: 0.65"/>
    <path d="M 828.867977 368.083146 
L 935.500106 426.16911 
" clip-path="url(#p26d755cbce)" style="fill: none; stroke: #64748b; stroke-width: 0.65"/>
    <path d="M 966.353185 499.081954 
L 935.500106 426.16911 
" clip-path="url(#p26d755cbce)" style="fill: none; stroke: #64748b; stroke-width: 0.65"/>
    <path d="M 917.025988 373.95023 
L 935.500106 426.16911 
" clip-path="url(#p26d755cbce)" style="fill: none; stroke: #64748b; stroke-width: 0.65"/>
    <path d="M 1035.356574 375.660805 
L 935.500106 426.16911 
" clip-path="url(#p26d755cbce)" style="fill: none; stroke: #64748b; stroke-width: 0.65"/>
    <path d="M 1034.197388 339.430087 
L 935.500106 426.16911 
" clip-path="url(#p26d755cbce)" style="fill: none; stroke: #64748b; stroke-width: 0.65"/>
    <path d="M 923.416859 483.597801 
L 935.500106 426.16911 
" clip-path="url(#p26d755cbce)" style="fill: none; stroke: #64748b; stroke-width: 0.65"/>
    <path d="M 1028.654325 452.583781 
L 935.500106 426.16911 
" clip-path="url(#p26d755cbce)" style="fill: none; stroke: #64748b; stroke-width: 0.65"/>
    <path d="M 1013.492921 417.522342 
L 935.500106 426.16911 
" clip-path="url(#p26d755cbce)" style="fill: none; stroke: #64748b; stroke-width: 0.65"/>
    <path d="M 1001.559969 382.486696 
L 935.500106 426.16911 
" clip-path="url(#p26d755cbce)" style="fill: none; stroke: #64748b; stroke-width: 0.65"/>
    <path d="M 960.863824 315.546792 
L 935.500106 426.16911 
" clip-path="url(#p26d755cbce)" style="fill: none; stroke: #64748b; stroke-width: 0.65"/>
    <path d="M 1006.738246 352.01611 
L 990.451632 442.655103 
" clip-path="url(#p26d755cbce)" style="fill: none; stroke: #64748b; stroke-width: 0.65"/>
    <path d="M 1099.288132 311.783788 
L 990.451632 442.655103 
" clip-path="url(#p26d755cbce)" style="fill: none; stroke: #64748b; stroke-width: 0.65"/>
    <path d="M 995.058499 302.620481 
L 990.451632 442.655103 
" clip-path="url(#p26d755cbce)" style="fill: none; stroke: #64748b; stroke-width: 0.65"/>
    <path d="M 1024.804919 310.524989 
L 990.451632 442.655103 
" clip-path="url(#p26d755cbce)" style="fill: none; stroke: #64748b; stroke-width: 0.65"/>
    <path d="M 883.240732 560.886899 
L 990.451632 442.655103 
" clip-path="url(#p26d755cbce)" style="fill: none; stroke: #64748b; stroke-width: 0.65"/>
    <path d="M 985.68145 335.53735 
L 990.451632 442.655103 
" clip-path="url(#p26d755cbce)" style="fill: none; stroke: #64748b; stroke-width: 0.65"/>
    <path d="M 888.46934 456.878548 
L 990.451632 442.655103 
" clip-path="url(#p26d755cbce)" style="fill: none; stroke: #64748b; stroke-width: 0.65"/>
    <path d="M 1001.892631 534.657818 
L 990.451632 442.655103 
" clip-path="url(#p26d755cbce)" style="fill: none; stroke: #64748b; stroke-width: 0.65"/>
    <path d="M 873.585899 409.142082 
L 990.451632 442.655103 
" clip-path="url(#p26d755cbce)" style="fill: none; stroke: #64748b; stroke-width: 0.65"/>
    <path d="M 864.093231 439.855319 
L 990.451632 442.655103 
" clip-path="url(#p26d755cbce)" style="fill: none; stroke: #64748b; stroke-width: 0.65"/>
    <path d="M 966.353185 499.081954 
L 990.451632 442.655103 
" clip-path="url(#p26d755cbce)" style="fill: none; stroke: #64748b; stroke-width: 0.65"/>
    <path d="M 1059.822798 467.180187 
L 990.451632 442.655103 
" clip-path="url(#p26d755cbce)" style="fill: none; stroke: #64748b; stroke-width: 0.65"/>
    <path d="M 1035.356574 375.660805 
L 990.451632 442.655103 
" clip-path="url(#p26d755cbce)" style="fill: none; stroke: #64748b; stroke-width: 0.65"/>
    <path d="M 1034.197388 339.430087 
L 990.451632 442.655103 
" clip-path="url(#p26d755cbce)" style="fill: none; stroke: #64748b; stroke-width: 0.65"/>
    <path d="M 1028.654325 452.583781 
L 990.451632 442.655103 
" clip-path="url(#p26d755cbce)" style="fill: none; stroke: #64748b; stroke-width: 0.65"/>
    <path d="M 1006.179793 634.909139 
L 990.451632 442.655103 
" clip-path="url(#p26d755cbce)" style="fill: none; stroke: #64748b; stroke-width: 0.65"/>
    <path d="M 1013.492921 417.522342 
L 990.451632 442.655103 
" clip-path="url(#p26d755cbce)" style="fill: none; stroke: #64748b; stroke-width: 0.65"/>
    <path d="M 1001.559969 382.486696 
L 990.451632 442.655103 
" clip-path="url(#p26d755cbce)" style="fill: none; stroke: #64748b; stroke-width: 0.65"/>
    <path d="M 1086.59035 447.253602 
L 990.451632 442.655103 
" clip-path="url(#p26d755cbce)" style="fill: none; stroke: #64748b; stroke-width: 0.65"/>
    <path d="M 960.863824 315.546792 
L 990.451632 442.655103 
" clip-path="url(#p26d755cbce)" style="fill: none; stroke: #64748b; stroke-width: 0.65"/>
    <path d="M 1006.738246 352.01611 
L 966.764319 458.329298 
" clip-path="url(#p26d755cbce)" style="fill: none; stroke: #64748b; stroke-width: 0.65"/>
    <path d="M 1024.804919 310.524989 
L 966.764319 458.329298 
" clip-path="url(#p26d755cbce)" style="fill: none; stroke: #64748b; stroke-width: 0.65"/>
    <path d="M 985.68145 335.53735 
L 966.764319 458.329298 
" clip-path="url(#p26d755cbce)" style="fill: none; stroke: #64748b; stroke-width: 0.65"/>
    <path d="M 836.578347 401.714742 
L 966.764319 458.329298 
" clip-path="url(#p26d755cbce)" style="fill: none; stroke: #64748b; stroke-width: 0.65"/>
    <path d="M 888.46934 456.878548 
L 966.764319 458.329298 
" clip-path="url(#p26d755cbce)" style="fill: none; stroke: #64748b; stroke-width: 0.65"/>
    <path d="M 1001.892631 534.657818 
L 966.764319 458.329298 
" clip-path="url(#p26d755cbce)" style="fill: none; stroke: #64748b; stroke-width: 0.65"/>
    <path d="M 873.585899 409.142082 
L 966.764319 458.329298 
" clip-path="url(#p26d755cbce)" style="fill: none; stroke: #64748b; stroke-width: 0.65"/>
    <path d="M 1099.969607 419.106668 
L 966.764319 458.329298 
" clip-path="url(#p26d755cbce)" style="fill: none; stroke: #64748b; stroke-width: 0.65"/>
    <path d="M 966.353185 499.081954 
L 966.764319 458.329298 
" clip-path="url(#p26d755cbce)" style="fill: none; stroke: #64748b; stroke-width: 0.65"/>
    <path d="M 864.093231 439.855319 
L 966.764319 458.329298 
" clip-path="url(#p26d755cbce)" style="fill: none; stroke: #64748b; stroke-width: 0.65"/>
    <path d="M 917.025988 373.95023 
L 966.764319 458.329298 
" clip-path="url(#p26d755cbce)" style="fill: none; stroke: #64748b; stroke-width: 0.65"/>
    <path d="M 1059.822798 467.180187 
L 966.764319 458.329298 
" clip-path="url(#p26d755cbce)" style="fill: none; stroke: #64748b; stroke-width: 0.65"/>
    <path d="M 1035.356574 375.660805 
L 966.764319 458.329298 
" clip-path="url(#p26d755cbce)" style="fill: none; stroke: #64748b; stroke-width: 0.65"/>
    <path d="M 1034.197388 339.430087 
L 966.764319 458.329298 
" clip-path="url(#p26d755cbce)" style="fill: none; stroke: #64748b; stroke-width: 0.65"/>
    <path d="M 923.416859 483.597801 
L 966.764319 458.329298 
" clip-path="url(#p26d755cbce)" style="fill: none; stroke: #64748b; stroke-width: 0.65"/>
    <path d="M 1006.179793 634.909139 
L 966.764319 458.329298 
" clip-path="url(#p26d755cbce)" style="fill: none; stroke: #64748b; stroke-width: 0.65"/>
    <path d="M 1013.492921 417.522342 
L 966.764319 458.329298 
" clip-path="url(#p26d755cbce)" style="fill: none; stroke: #64748b; stroke-width: 0.65"/>
    <path d="M 1001.559969 382.486696 
L 966.764319 458.329298 
" clip-path="url(#p26d755cbce)" style="fill: none; stroke: #64748b; stroke-width: 0.65"/>
    <path d="M 960.863824 315.546792 
L 966.764319 458.329298 
" clip-path="url(#p26d755cbce)" style="fill: none; stroke: #64748b; stroke-width: 0.65"/>
    <path d="M 1006.738246 352.01611 
L 967.518066 374.604492 
" clip-path="url(#p26d755cbce)" style="fill: none; stroke: #64748b; stroke-width: 0.65"/>
    <path d="M 1085.470841 264.827101 
L 967.518066 374.604492 
" clip-path="url(#p26d755cbce)" style="fill: none; stroke: #64748b; stroke-width: 0.65"/>
    <path d="M 1099.288132 311.783788 
L 967.518066 374.604492 
" clip-path="url(#p26d755cbce)" style="fill: none; stroke: #64748b; stroke-width: 0.65"/>
    <path d="M 1116.809501 372.509177 
L 967.518066 374.604492 
" clip-path="url(#p26d755cbce)" style="fill: none; stroke: #64748b; stroke-width: 0.65"/>
    <path d="M 995.058499 302.620481 
L 967.518066 374.604492 
" clip-path="url(#p26d755cbce)" style="fill: none; stroke: #64748b; stroke-width: 0.65"/>
    <path d="M 1024.804919 310.524989 
L 967.518066 374.604492 
" clip-path="url(#p26d755cbce)" style="fill: none; stroke: #64748b; stroke-width: 0.65"/>
    <path d="M 985.68145 335.53735 
L 967.518066 374.604492 
" clip-path="url(#p26d755cbce)" style="fill: none; stroke: #64748b; stroke-width: 0.65"/>
    <path d="M 836.578347 401.714742 
L 967.518066 374.604492 
" clip-path="url(#p26d755cbce)" style="fill: none; stroke: #64748b; stroke-width: 0.65"/>
    <path d="M 956.595464 261.425547 
L 967.518066 374.604492 
" clip-path="url(#p26d755cbce)" style="fill: none; stroke: #64748b; stroke-width: 0.65"/>
    <path d="M 888.46934 456.878548 
L 967.518066 374.604492 
" clip-path="url(#p26d755cbce)" style="fill: none; stroke: #64748b; stroke-width: 0.65"/>
    <path d="M 848.460736 288.677454 
L 967.518066 374.604492 
" clip-path="url(#p26d755cbce)" style="fill: none; stroke: #64748b; stroke-width: 0.65"/>
    <path d="M 1001.892631 534.657818 
L 967.518066 374.604492 
" clip-path="url(#p26d755cbce)" style="fill: none; stroke: #64748b; stroke-width: 0.65"/>
    <path d="M 873.585899 409.142082 
L 967.518066 374.604492 
" clip-path="url(#p26d755cbce)" style="fill: none; stroke: #64748b; stroke-width: 0.65"/>
    <path d="M 828.867977 368.083146 
L 967.518066 374.604492 
" clip-path="url(#p26d755cbce)" style="fill: none; stroke: #64748b; stroke-width: 0.65"/>
    <path d="M 1099.969607 419.106668 
L 967.518066 374.604492 
" clip-path="url(#p26d755cbce)" style="fill: none; stroke: #64748b; stroke-width: 0.65"/>
    <path d="M 864.093231 439.855319 
L 967.518066 374.604492 
" clip-path="url(#p26d755cbce)" style="fill: none; stroke: #64748b; stroke-width: 0.65"/>
    <path d="M 966.353185 499.081954 
L 967.518066 374.604492 
" clip-path="url(#p26d755cbce)" style="fill: none; stroke: #64748b; stroke-width: 0.65"/>
    <path d="M 892.478727 259.816727 
L 967.518066 374.604492 
" clip-path="url(#p26d755cbce)" style="fill: none; stroke: #64748b; stroke-width: 0.65"/>
    <path d="M 917.025988 373.95023 
L 967.518066 374.604492 
" clip-path="url(#p26d755cbce)" style="fill: none; stroke: #64748b; stroke-width: 0.65"/>
    <path d="M 1059.822798 467.180187 
L 967.518066 374.604492 
" clip-path="url(#p26d755cbce)" style="fill: none; stroke: #64748b; stroke-width: 0.65"/>
    <path d="M 1035.356574 375.660805 
L 967.518066 374.604492 
" clip-path="url(#p26d755cbce)" style="fill: none; stroke: #64748b; stroke-width: 0.65"/>
    <path d="M 1034.197388 339.430087 
L 967.518066 374.604492 
" clip-path="url(#p26d755cbce)" style="fill: none; stroke: #64748b; stroke-width: 0.65"/>
    <path d="M 923.416859 483.597801 
L 967.518066 374.604492 
" clip-path="url(#p26d755cbce)" style="fill: none; stroke: #64748b; stroke-width: 0.65"/>
    <path d="M 917.627608 226.542619 
L 967.518066 374.604492 
" clip-path="url(#p26d755cbce)" style="fill: none; stroke: #64748b; stroke-width: 0.65"/>
    <path d="M 960.863824 315.546792 
L 967.518066 374.604492 
" clip-path="url(#p26d755cbce)" style="fill: none; stroke: #64748b; stroke-width: 0.65"/>
    <path d="M 1028.654325 452.583781 
L 967.518066 374.604492 
" clip-path="url(#p26d755cbce)" style="fill: none; stroke: #64748b; stroke-width: 0.65"/>
    <path d="M 1013.492921 417.522342 
L 967.518066 374.604492 
" clip-path="url(#p26d755cbce)" style="fill: none; stroke: #64748b; stroke-width: 0.65"/>
    <path d="M 1001.559969 382.486696 
L 967.518066 374.604492 
" clip-path="url(#p26d755cbce)" style="fill: none; stroke: #64748b; stroke-width: 0.65"/>
    <path d="M 1086.59035 447.253602 
L 967.518066 374.604492 
" clip-path="url(#p26d755cbce)" style="fill: none; stroke: #64748b; stroke-width: 0.65"/>
    <path d="M 835.535495 325.174531 
L 967.518066 374.604492 
" clip-path="url(#p26d755cbce)" style="fill: none; stroke: #64748b; stroke-width: 0.65"/>
    <path d="M 1035.356574 375.660805 
L 1017.667509 228.139557 
" clip-path="url(#p26d755cbce)" style="fill: none; stroke: #64748b; stroke-width: 0.65"/>
    <path d="M 1006.738246 352.01611 
L 1017.667509 228.139557 
" clip-path="url(#p26d755cbce)" style="fill: none; stroke: #64748b; stroke-width: 0.65"/>
    <path d="M 1099.288132 311.783788 
L 1017.667509 228.139557 
" clip-path="url(#p26d755cbce)" style="fill: none; stroke: #64748b; stroke-width: 0.65"/>
    <path d="M 1034.197388 339.430087 
L 1017.667509 228.139557 
" clip-path="url(#p26d755cbce)" style="fill: none; stroke: #64748b; stroke-width: 0.65"/>
    <path d="M 1024.804919 310.524989 
L 1017.667509 228.139557 
" clip-path="url(#p26d755cbce)" style="fill: none; stroke: #64748b; stroke-width: 0.65"/>
    <path d="M 995.058499 302.620481 
L 1017.667509 228.139557 
" clip-path="url(#p26d755cbce)" style="fill: none; stroke: #64748b; stroke-width: 0.65"/>
    <path d="M 985.68145 335.53735 
L 1017.667509 228.139557 
" clip-path="url(#p26d755cbce)" style="fill: none; stroke: #64748b; stroke-width: 0.65"/>
    <path d="M 917.627608 226.542619 
L 1017.667509 228.139557 
" clip-path="url(#p26d755cbce)" style="fill: none; stroke: #64748b; stroke-width: 0.65"/>
    <path d="M 956.595464 261.425547 
L 1017.667509 228.139557 
" clip-path="url(#p26d755cbce)" style="fill: none; stroke: #64748b; stroke-width: 0.65"/>
    <path d="M 1103.006232 212.850861 
L 1017.667509 228.139557 
" clip-path="url(#p26d755cbce)" style="fill: none; stroke: #64748b; stroke-width: 0.65"/>
    <path d="M 1001.559969 382.486696 
L 1017.667509 228.139557 
" clip-path="url(#p26d755cbce)" style="fill: none; stroke: #64748b; stroke-width: 0.65"/>
    <path d="M 960.863824 315.546792 
L 1017.667509 228.139557 
" clip-path="url(#p26d755cbce)" style="fill: none; stroke: #64748b; stroke-width: 0.65"/>
    <path d="M 892.478727 259.816727 
L 1017.667509 228.139557 
" clip-path="url(#p26d755cbce)" style="fill: none; stroke: #64748b; stroke-width: 0.65"/>
    <path d="M 1006.738246 352.01611 
L 1072.079931 349.158165 
" clip-path="url(#p26d755cbce)" style="fill: none; stroke: #64748b; stroke-width: 0.65"/>
    <path d="M 1085.470841 264.827101 
L 1072.079931 349.158165 
" clip-path="url(#p26d755cbce)" style="fill: none; stroke: #64748b; stroke-width: 0.65"/>
    <path d="M 1116.809501 372.509177 
L 1072.079931 349.158165 
" clip-path="url(#p26d755cbce)" style="fill: none; stroke: #64748b; stroke-width: 0.65"/>
    <path d="M 1024.804919 310.524989 
L 1072.079931 349.158165 
" clip-path="url(#p26d755cbce)" style="fill: none; stroke: #64748b; stroke-width: 0.65"/>
    <path d="M 995.058499 302.620481 
L 1072.079931 349.158165 
" clip-path="url(#p26d755cbce)" style="fill: none; stroke: #64748b; stroke-width: 0.65"/>
    <path d="M 985.68145 335.53735 
L 1072.079931 349.158165 
" clip-path="url(#p26d755cbce)" style="fill: none; stroke: #64748b; stroke-width: 0.65"/>
    <path d="M 1099.969607 419.106668 
L 1072.079931 349.158165 
" clip-path="url(#p26d755cbce)" style="fill: none; stroke: #64748b; stroke-width: 0.65"/>
    <path d="M 917.025988 373.95023 
L 1072.079931 349.158165 
" clip-path="url(#p26d755cbce)" style="fill: none; stroke: #64748b; stroke-width: 0.65"/>
    <path d="M 1059.822798 467.180187 
L 1072.079931 349.158165 
" clip-path="url(#p26d755cbce)" style="fill: none; stroke: #64748b; stroke-width: 0.65"/>
    <path d="M 1035.356574 375.660805 
L 1072.079931 349.158165 
" clip-path="url(#p26d755cbce)" style="fill: none; stroke: #64748b; stroke-width: 0.65"/>
    <path d="M 1034.197388 339.430087 
L 1072.079931 349.158165 
" clip-path="url(#p26d755cbce)" style="fill: none; stroke: #64748b; stroke-width: 0.65"/>
    <path d="M 1103.006232 212.850861 
L 1072.079931 349.158165 
" clip-path="url(#p26d755cbce)" style="fill: none; stroke: #64748b; stroke-width: 0.65"/>
    <path d="M 1028.654325 452.583781 
L 1072.079931 349.158165 
" clip-path="url(#p26d755cbce)" style="fill: none; stroke: #64748b; stroke-width: 0.65"/>
    <path d="M 1013.492921 417.522342 
L 1072.079931 349.158165 
" clip-path="url(#p26d755cbce)" style="fill: none; stroke: #64748b; stroke-width: 0.65"/>
    <path d="M 1001.559969 382.486696 
L 1072.079931 349.158165 
" clip-path="url(#p26d755cbce)" style="fill: none; stroke: #64748b; stroke-width: 0.65"/>
    <path d="M 1086.59035 447.253602 
L 1072.079931 349.158165 
" clip-path="url(#p26d755cbce)" style="fill: none; stroke: #64748b; stroke-width: 0.65"/>
    <path d="M 960.863824 315.546792 
L 1072.079931 349.158165 
" clip-path="url(#p26d755cbce)" style="fill: none; stroke: #64748b; stroke-width: 0.65"/>
    <path d="M 1242.932023 313.600089 
L 1072.079931 349.158165 
" clip-path="url(#p26d755cbce)" style="fill: none; stroke: #64748b; stroke-width: 0.65"/>
    <path d="M 1035.356574 375.660805 
L 1066.389895 400.451915 
" clip-path="url(#p26d755cbce)" style="fill: none; stroke: #64748b; stroke-width: 0.65"/>
    <path d="M 1006.738246 352.01611 
L 1066.389895 400.451915 
" clip-path="url(#p26d755cbce)" style="fill: none; stroke: #64748b; stroke-width: 0.65"/>
    <path d="M 1034.197388 339.430087 
L 1066.389895 400.451915 
" clip-path="url(#p26d755cbce)" style="fill: none; stroke: #64748b; stroke-width: 0.65"/>
    <path d="M 1116.809501 372.509177 
L 1066.389895 400.451915 
" clip-path="url(#p26d755cbce)" style="fill: none; stroke: #64748b; stroke-width: 0.65"/>
    <path d="M 1024.804919 310.524989 
L 1066.389895 400.451915 
" clip-path="url(#p26d755cbce)" style="fill: none; stroke: #64748b; stroke-width: 0.65"/>
    <path d="M 995.058499 302.620481 
L 1066.389895 400.451915 
" clip-path="url(#p26d755cbce)" style="fill: none; stroke: #64748b; stroke-width: 0.65"/>
    <path d="M 923.416859 483.597801 
L 1066.389895 400.451915 
" clip-path="url(#p26d755cbce)" style="fill: none; stroke: #64748b; stroke-width: 0.65"/>
    <path d="M 985.68145 335.53735 
L 1066.389895 400.451915 
" clip-path="url(#p26d755cbce)" style="fill: none; stroke: #64748b; stroke-width: 0.65"/>
    <path d="M 956.595464 261.425547 
L 1066.389895 400.451915 
" clip-path="url(#p26d755cbce)" style="fill: none; stroke: #64748b; stroke-width: 0.65"/>
    <path d="M 1013.492921 417.522342 
L 1066.389895 400.451915 
" clip-path="url(#p26d755cbce)" style="fill: none; stroke: #64748b; stroke-width: 0.65"/>
    <path d="M 1099.969607 419.106668 
L 1066.389895 400.451915 
" clip-path="url(#p26d755cbce)" style="fill: none; stroke: #64748b; stroke-width: 0.65"/>
    <path d="M 1086.59035 447.253602 
L 1066.389895 400.451915 
" clip-path="url(#p26d755cbce)" style="fill: none; stroke: #64748b; stroke-width: 0.65"/>
    <path d="M 966.353185 499.081954 
L 1066.389895 400.451915 
" clip-path="url(#p26d755cbce)" style="fill: none; stroke: #64748b; stroke-width: 0.65"/>
    <path d="M 1059.822798 467.180187 
L 1066.389895 400.451915 
" clip-path="url(#p26d755cbce)" style="fill: none; stroke: #64748b; stroke-width: 0.65"/>
    <path d="M 1006.738246 352.01611 
L 912.495875 331.610204 
" clip-path="url(#p26d755cbce)" style="fill: none; stroke: #64748b; stroke-width: 0.65"/>
    <path d="M 1024.804919 310.524989 
L 912.495875 331.610204 
" clip-path="url(#p26d755cbce)" style="fill: none; stroke: #64748b; stroke-width: 0.65"/>
    <path d="M 995.058499 302.620481 
L 912.495875 331.610204 
" clip-path="url(#p26d755cbce)" style="fill: none; stroke: #64748b; stroke-width: 0.65"/>
    <path d="M 985.68145 335.53735 
L 912.495875 331.610204 
" clip-path="url(#p26d755cbce)" style="fill: none; stroke: #64748b; stroke-width: 0.65"/>
    <path d="M 836.578347 401.714742 
L 912.495875 331.610204 
" clip-path="url(#p26d755cbce)" style="fill: none; stroke: #64748b; stroke-width: 0.65"/>
    <path d="M 835.535495 325.174531 
L 912.495875 331.610204 
" clip-path="url(#p26d755cbce)" style="fill: none; stroke: #64748b; stroke-width: 0.65"/>
    <path d="M 956.595464 261.425547 
L 912.495875 331.610204 
" clip-path="url(#p26d755cbce)" style="fill: none; stroke: #64748b; stroke-width: 0.65"/>
    <path d="M 888.46934 456.878548 
L 912.495875 331.610204 
" clip-path="url(#p26d755cbce)" style="fill: none; stroke: #64748b; stroke-width: 0.65"/>
    <path d="M 873.585899 409.142082 
L 912.495875 331.610204 
" clip-path="url(#p26d755cbce)" style="fill: none; stroke: #64748b; stroke-width: 0.65"/>
    <path d="M 864.093231 439.855319 
L 912.495875 331.610204 
" clip-path="url(#p26d755cbce)" style="fill: none; stroke: #64748b; stroke-width: 0.65"/>
    <path d="M 917.025988 373.95023 
L 912.495875 331.610204 
" clip-path="url(#p26d755cbce)" style="fill: none; stroke: #64748b; stroke-width: 0.65"/>
    <path d="M 1035.356574 375.660805 
L 912.495875 331.610204 
" clip-path="url(#p26d755cbce)" style="fill: none; stroke: #64748b; stroke-width: 0.65"/>
    <path d="M 1034.197388 339.430087 
L 912.495875 331.610204 
" clip-path="url(#p26d755cbce)" style="fill: none; stroke: #64748b; stroke-width: 0.65"/>
    <path d="M 917.627608 226.542619 
L 912.495875 331.610204 
" clip-path="url(#p26d755cbce)" style="fill: none; stroke: #64748b; stroke-width: 0.65"/>
    <path d="M 1013.492921 417.522342 
L 912.495875 331.610204 
" clip-path="url(#p26d755cbce)" style="fill: none; stroke: #64748b; stroke-width: 0.65"/>
    <path d="M 1001.559969 382.486696 
L 912.495875 331.610204 
" clip-path="url(#p26d755cbce)" style="fill: none; stroke: #64748b; stroke-width: 0.65"/>
    <path d="M 960.863824 315.546792 
L 912.495875 331.610204 
" clip-path="url(#p26d755cbce)" style="fill: none; stroke: #64748b; stroke-width: 0.65"/>
    <path d="M 1006.738246 352.01611 
L 933.792898 347.267115 
" clip-path="url(#p26d755cbce)" style="fill: none; stroke: #64748b; stroke-width: 0.65"/>
    <path d="M 995.058499 302.620481 
L 933.792898 347.267115 
" clip-path="url(#p26d755cbce)" style="fill: none; stroke: #64748b; stroke-width: 0.65"/>
    <path d="M 1024.804919 310.524989 
L 933.792898 347.267115 
" clip-path="url(#p26d755cbce)" style="fill: none; stroke: #64748b; stroke-width: 0.65"/>
    <path d="M 985.68145 335.53735 
L 933.792898 347.267115 
" clip-path="url(#p26d755cbce)" style="fill: none; stroke: #64748b; stroke-width: 0.65"/>
    <path d="M 836.578347 401.714742 
L 933.792898 347.267115 
" clip-path="url(#p26d755cbce)" style="fill: none; stroke: #64748b; stroke-width: 0.65"/>
    <path d="M 956.595464 261.425547 
L 933.792898 347.267115 
" clip-path="url(#p26d755cbce)" style="fill: none; stroke: #64748b; stroke-width: 0.65"/>
    <path d="M 888.46934 456.878548 
L 933.792898 347.267115 
" clip-path="url(#p26d755cbce)" style="fill: none; stroke: #64748b; stroke-width: 0.65"/>
    <path d="M 848.460736 288.677454 
L 933.792898 347.267115 
" clip-path="url(#p26d755cbce)" style="fill: none; stroke: #64748b; stroke-width: 0.65"/>
    <path d="M 873.585899 409.142082 
L 933.792898 347.267115 
" clip-path="url(#p26d755cbce)" style="fill: none; stroke: #64748b; stroke-width: 0.65"/>
    <path d="M 828.867977 368.083146 
L 933.792898 347.267115 
" clip-path="url(#p26d755cbce)" style="fill: none; stroke: #64748b; stroke-width: 0.65"/>
    <path d="M 864.093231 439.855319 
L 933.792898 347.267115 
" clip-path="url(#p26d755cbce)" style="fill: none; stroke: #64748b; stroke-width: 0.65"/>
    <path d="M 966.353185 499.081954 
L 933.792898 347.267115 
" clip-path="url(#p26d755cbce)" style="fill: none; stroke: #64748b; stroke-width: 0.65"/>
    <path d="M 892.478727 259.816727 
L 933.792898 347.267115 
" clip-path="url(#p26d755cbce)" style="fill: none; stroke: #64748b; stroke-width: 0.65"/>
    <path d="M 917.025988 373.95023 
L 933.792898 347.267115 
" clip-path="url(#p26d755cbce)" style="fill: none; stroke: #64748b; stroke-width: 0.65"/>
    <path d="M 1035.356574 375.660805 
L 933.792898 347.267115 
" clip-path="url(#p26d755cbce)" style="fill: none; stroke: #64748b; stroke-width: 0.65"/>
    <path d="M 1034.197388 339.430087 
L 933.792898 347.267115 
" clip-path="url(#p26d755cbce)" style="fill: none; stroke: #64748b; stroke-width: 0.65"/>
    <path d="M 923.416859 483.597801 
L 933.792898 347.267115 
" clip-path="url(#p26d755cbce)" style="fill: none; stroke: #64748b; stroke-width: 0.65"/>
    <path d="M 917.627608 226.542619 
L 933.792898 347.267115 
" clip-path="url(#p26d755cbce)" style="fill: none; stroke: #64748b; stroke-width: 0.65"/>
    <path d="M 1103.006232 212.850861 
L 933.792898 347.267115 
" clip-path="url(#p26d755cbce)" style="fill: none; stroke: #64748b; stroke-width: 0.65"/>
    <path d="M 960.863824 315.546792 
L 933.792898 347.267115 
" clip-path="url(#p26d755cbce)" style="fill: none; stroke: #64748b; stroke-width: 0.65"/>
    <path d="M 1028.654325 452.583781 
L 933.792898 347.267115 
" clip-path="url(#p26d755cbce)" style="fill: none; stroke: #64748b; stroke-width: 0.65"/>
    <path d="M 1013.492921 417.522342 
L 933.792898 347.267115 
" clip-path="url(#p26d755cbce)" style="fill: none; stroke: #64748b; stroke-width: 0.65"/>
    <path d="M 1001.559969 382.486696 
L 933.792898 347.267115 
" clip-path="url(#p26d755cbce)" style="fill: none; stroke: #64748b; stroke-width: 0.65"/>
    <path d="M 835.535495 325.174531 
L 933.792898 347.267115 
" clip-path="url(#p26d755cbce)" style="fill: none; stroke: #64748b; stroke-width: 0.65"/>
   </g>
   <g id="PathCollection_2">
    <defs>
     <path id="m7e11591f4b" d="M -6.5 6.5 
L 6.5 6.5 
L 6.5 -6.5 
L -6.5 -6.5 
z
" style="stroke: #334155; stroke-width: 0.8"/>
    </defs>
    <g clip-path="url(#p26d755cbce)">
     <use xlink:href="#m7e11591f4b" x="1072.079931" y="349.158165" style="fill: #f59e0b; stroke: #334155; stroke-width: 0.8"/>
     <use xlink:href="#m7e11591f4b" x="990.451632" y="442.655103" style="fill: #f59e0b; stroke: #334155; stroke-width: 0.8"/>
     <use xlink:href="#m7e11591f4b" x="1066.389895" y="400.451915" style="fill: #f59e0b; stroke: #334155; stroke-width: 0.8"/>
     <use xlink:href="#m7e11591f4b" x="946.374055" y="394.656438" style="fill: #f59e0b; stroke: #334155; stroke-width: 0.8"/>
     <use xlink:href="#m7e11591f4b" x="967.518066" y="374.604492" style="fill: #f59e0b; stroke: #334155; stroke-width: 0.8"/>
     <use xlink:href="#m7e11591f4b" x="935.500106" y="426.16911" style="fill: #f59e0b; stroke: #334155; stroke-width: 0.8"/>
     <use xlink:href="#m7e11591f4b" x="912.495875" y="331.610204" style="fill: #f59e0b; stroke: #334155; stroke-width: 0.8"/>
     <use xlink:href="#m7e11591f4b" x="966.764319" y="458.329298" style="fill: #f59e0b; stroke: #334155; stroke-width: 0.8"/>
     <use xlink:href="#m7e11591f4b" x="933.792898" y="347.267115" style="fill: #f59e0b; stroke: #334155; stroke-width: 0.8"/>
     <use xlink:href="#m7e11591f4b" x="1017.667509" y="228.139557" style="fill: #f59e0b; stroke: #334155; stroke-width: 0.8"/>
    </g>
   </g>
   <g id="PathCollection_3">
    <defs>
     <path id="md867d47734" d="M 0 5 
C 1.326016 5 2.597899 4.473168 3.535534 3.535534 
C 4.473168 2.597899 5 1.326016 5 0 
C 5 -1.326016 4.473168 -2.597899 3.535534 -3.535534 
C 2.597899 -4.473168 1.326016 -5 0 -5 
C -1.326016 -5 -2.597899 -4.473168 -3.535534 -3.535534 
C -4.473168 -2.597899 -5 -1.326016 -5 0 
C -5 1.326016 -4.473168 2.597899 -3.535534 3.535534 
C -2.597899 4.473168 -1.326016 5 0 5 
z
" style="stroke: #334155; stroke-width: 0.8"/>
    </defs>
    <g clip-path="url(#p26d755cbce)">
     <use xlink:href="#md867d47734" x="1086.59035" y="447.253602" style="fill: #38bdf8; stroke: #334155; stroke-width: 0.8"/>
     <use xlink:href="#md867d47734" x="883.240732" y="560.886899" style="fill: #38bdf8; stroke: #334155; stroke-width: 0.8"/>
     <use xlink:href="#md867d47734" x="864.093231" y="439.855319" style="fill: #38bdf8; stroke: #334155; stroke-width: 0.8"/>
     <use xlink:href="#md867d47734" x="1116.809501" y="372.509177" style="fill: #38bdf8; stroke: #334155; stroke-width: 0.8"/>
     <use xlink:href="#md867d47734" x="1059.822798" y="467.180187" style="fill: #38bdf8; stroke: #334155; stroke-width: 0.8"/>
     <use xlink:href="#md867d47734" x="835.535495" y="325.174531" style="fill: #38bdf8; stroke: #334155; stroke-width: 0.8"/>
     <use xlink:href="#md867d47734" x="1006.738246" y="352.01611" style="fill: #38bdf8; stroke: #334155; stroke-width: 0.8"/>
     <use xlink:href="#md867d47734" x="1001.559969" y="382.486696" style="fill: #38bdf8; stroke: #334155; stroke-width: 0.8"/>
     <use xlink:href="#md867d47734" x="873.585899" y="409.142082" style="fill: #38bdf8; stroke: #334155; stroke-width: 0.8"/>
     <use xlink:href="#md867d47734" x="828.867977" y="368.083146" style="fill: #38bdf8; stroke: #334155; stroke-width: 0.8"/>
     <use xlink:href="#md867d47734" x="892.478727" y="259.816727" style="fill: #38bdf8; stroke: #334155; stroke-width: 0.8"/>
     <use xlink:href="#md867d47734" x="985.68145" y="335.53735" style="fill: #38bdf8; stroke: #334155; stroke-width: 0.8"/>
     <use xlink:href="#md867d47734" x="848.460736" y="288.677454" style="fill: #38bdf8; stroke: #334155; stroke-width: 0.8"/>
     <use xlink:href="#md867d47734" x="1013.492921" y="417.522342" style="fill: #38bdf8; stroke: #334155; stroke-width: 0.8"/>
     <use xlink:href="#md867d47734" x="1024.804919" y="310.524989" style="fill: #38bdf8; stroke: #334155; stroke-width: 0.8"/>
     <use xlink:href="#md867d47734" x="995.058499" y="302.620481" style="fill: #38bdf8; stroke: #334155; stroke-width: 0.8"/>
     <use xlink:href="#md867d47734" x="917.025988" y="373.95023" style="fill: #38bdf8; stroke: #334155; stroke-width: 0.8"/>
     <use xlink:href="#md867d47734" x="888.46934" y="456.878548" style="fill: #38bdf8; stroke: #334155; stroke-width: 0.8"/>
     <use xlink:href="#md867d47734" x="956.595464" y="261.425547" style="fill: #38bdf8; stroke: #334155; stroke-width: 0.8"/>
     <use xlink:href="#md867d47734" x="836.578347" y="401.714742" style="fill: #38bdf8; stroke: #334155; stroke-width: 0.8"/>
     <use xlink:href="#md867d47734" x="1028.654325" y="452.583781" style="fill: #38bdf8; stroke: #334155; stroke-width: 0.8"/>
     <use xlink:href="#md867d47734" x="1099.969607" y="419.106668" style="fill: #38bdf8; stroke: #334155; stroke-width: 0.8"/>
     <use xlink:href="#md867d47734" x="960.863824" y="315.546792" style="fill: #38bdf8; stroke: #334155; stroke-width: 0.8"/>
     <use xlink:href="#md867d47734" x="923.416859" y="483.597801" style="fill: #38bdf8; stroke: #334155; stroke-width: 0.8"/>
     <use xlink:href="#md867d47734" x="1035.356574" y="375.660805" style="fill: #38bdf8; stroke: #334155; stroke-width: 0.8"/>
     <use xlink:href="#md867d47734" x="966.353185" y="499.081954" style="fill: #38bdf8; stroke: #334155; stroke-width: 0.8"/>
     <use xlink:href="#md867d47734" x="1034.197388" y="339.430087" style="fill: #38bdf8; stroke: #334155; stroke-width: 0.8"/>
     <use xlink:href="#md867d47734" x="1001.892631" y="534.657818" style="fill: #38bdf8; stroke: #334155; stroke-width: 0.8"/>
     <use xlink:href="#md867d47734" x="1006.179793" y="634.909139" style="fill: #38bdf8; stroke: #334155; stroke-width: 0.8"/>
     <use xlink:href="#md867d47734" x="1099.288132" y="311.783788" style="fill: #38bdf8; stroke: #334155; stroke-width: 0.8"/>
     <use xlink:href="#md867d47734" x="1085.470841" y="264.827101" style="fill: #38bdf8; stroke: #334155; stroke-width: 0.8"/>
     <use xlink:href="#md867d47734" x="917.627608" y="226.542619" style="fill: #38bdf8; stroke: #334155; stroke-width: 0.8"/>
     <use xlink:href="#md867d47734" x="1103.006232" y="212.850861" style="fill: #38bdf8; stroke: #334155; stroke-width: 0.8"/>
     <use xlink:href="#md867d47734" x="1242.932023" y="313.600089" style="fill: #38bdf8; stroke: #334155; stroke-width: 0.8"/>
    </g>
   </g>
   <g id="text_18">
    <text style="font-weight: 700; font-size: 15px; font-family: 'DejaVu Sans'; text-anchor: start; fill: #111827" x="696.6" y="108.72" transform="rotate(-0 696.6 108.72)">XGI bipartite incidence view</text>
   </g>
   <g id="text_19">
    <g clip-path="url(#p26d755cbce)">
     <text style="font-size: 7.6px; font-family: 'DejaVu Sans', 'Bitstream Vera Sans', 'Computer Modern Sans Serif', 'Lucida Grande', 'Verdana', 'Geneva', 'Lucid', 'Arial', 'Helvetica', 'Avant Garde', sans-serif; text-anchor: middle; fill: #111827" x="967.518066" y="376.701617" transform="rotate(-0 967.518066 376.701617)">ODYSSEUS</text>
    </g>
   </g>
   <g id="text_20">
    <g clip-path="url(#p26d755cbce)">
     <text style="font-size: 7.6px; font-family: 'DejaVu Sans', 'Bitstream Vera Sans', 'Computer Modern Sans Serif', 'Lucida Grande', 'Verdana', 'Geneva', 'Lucid', 'Arial', 'Helvetica', 'Avant Garde', sans-serif; text-anchor: middle; fill: #111827" x="1072.079931" y="351.25529" transform="rotate(-0 1072.079931 351.25529)">SEA</text>
    </g>
   </g>
   <g id="text_21">
    <g clip-path="url(#p26d755cbce)">
     <text style="font-size: 7.6px; font-family: 'DejaVu Sans', 'Bitstream Vera Sans', 'Computer Modern Sans Serif', 'Lucida Grande', 'Verdana', 'Geneva', 'Lucid', 'Arial', 'Helvetica', 'Avant Garde', sans-serif; text-anchor: middle; fill: #111827" x="990.451632" y="444.752228" transform="rotate(-0 990.451632 444.752228)">MIND</text>
    </g>
   </g>
   <g id="text_22">
    <g clip-path="url(#p26d755cbce)">
     <text style="font-size: 7.6px; font-family: 'DejaVu Sans', 'Bitstream Vera Sans', 'Computer Modern Sans Serif', 'Lucida Grande', 'Verdana', 'Geneva', 'Lucid', 'Arial', 'Helvetica', 'Avant Garde', sans-serif; text-anchor: middle; fill: #111827" x="912.495875" y="333.707329" transform="rotate(-0 912.495875 333.707329)">TELEMACHUS</text>
    </g>
   </g>
   <g id="text_23">
    <g clip-path="url(#p26d755cbce)">
     <text style="font-size: 7.6px; font-family: 'DejaVu Sans', 'Bitstream Vera Sans', 'Computer Modern Sans Serif', 'Lucida Grande', 'Verdana', 'Geneva', 'Lucid', 'Arial', 'Helvetica', 'Avant Garde', sans-serif; text-anchor: middle; fill: #111827" x="935.500106" y="428.093454" transform="rotate(-0 935.500106 428.093454)">GENERIC_MAN</text>
    </g>
   </g>
   <g id="text_24">
    <g clip-path="url(#p26d755cbce)">
     <text style="font-size: 7.6px; font-family: 'DejaVu Sans', 'Bitstream Vera Sans', 'Computer Modern Sans Serif', 'Lucida Grande', 'Verdana', 'Geneva', 'Lucid', 'Arial', 'Helvetica', 'Avant Garde', sans-serif; text-anchor: middle; fill: #111827" x="946.374055" y="396.753563" transform="rotate(-0 946.374055 396.753563)">ATHENA</text>
    </g>
   </g>
   <g id="text_25">
    <g clip-path="url(#p26d755cbce)">
     <text style="font-size: 7.6px; font-family: 'DejaVu Sans', 'Bitstream Vera Sans', 'Computer Modern Sans Serif', 'Lucida Grande', 'Verdana', 'Geneva', 'Lucid', 'Arial', 'Helvetica', 'Avant Garde', sans-serif; text-anchor: middle; fill: #111827" x="933.792898" y="349.36424" transform="rotate(-0 933.792898 349.36424)">ZEUS</text>
    </g>
   </g>
   <g id="text_26">
    <g clip-path="url(#p26d755cbce)">
     <text style="font-size: 7.6px; font-family: 'DejaVu Sans', 'Bitstream Vera Sans', 'Computer Modern Sans Serif', 'Lucida Grande', 'Verdana', 'Geneva', 'Lucid', 'Arial', 'Helvetica', 'Avant Garde', sans-serif; text-anchor: middle; fill: #111827" x="1066.389895" y="402.54904" transform="rotate(-0 1066.389895 402.54904)">SHIP</text>
    </g>
   </g>
   <g id="text_27">
    <g clip-path="url(#p26d755cbce)">
     <text style="font-size: 7.6px; font-family: 'DejaVu Sans', 'Bitstream Vera Sans', 'Computer Modern Sans Serif', 'Lucida Grande', 'Verdana', 'Geneva', 'Lucid', 'Arial', 'Helvetica', 'Avant Garde', sans-serif; text-anchor: middle; fill: #111827" x="966.764319" y="460.426423" transform="rotate(-0 966.764319 460.426423)">MORTALS</text>
    </g>
   </g>
   <g id="text_28">
    <g clip-path="url(#p26d755cbce)">
     <text style="font-size: 7.6px; font-family: 'DejaVu Sans', 'Bitstream Vera Sans', 'Computer Modern Sans Serif', 'Lucida Grande', 'Verdana', 'Geneva', 'Lucid', 'Arial', 'Helvetica', 'Avant Garde', sans-serif; text-anchor: middle; fill: #111827" x="1017.667509" y="230.236682" transform="rotate(-0 1017.667509 230.236682)">PENELOPE</text>
    </g>
   </g>
   <g id="text_29">
    <g clip-path="url(#p26d755cbce)">
     <text style="font-size: 7.6px; font-family: 'DejaVu Sans', 'Bitstream Vera Sans', 'Computer Modern Sans Serif', 'Lucida Grande', 'Verdana', 'Geneva', 'Lucid', 'Arial', 'Helvetica', 'Avant Garde', sans-serif; text-anchor: middle; fill: #111827" x="1006.738246" y="354.113235" transform="rotate(-0 1006.738246 354.113235)">fair</text>
    </g>
   </g>
   <g id="text_30">
    <g clip-path="url(#p26d755cbce)">
     <text style="font-size: 7.6px; font-family: 'DejaVu Sans', 'Bitstream Vera Sans', 'Computer Modern Sans Serif', 'Lucida Grande', 'Verdana', 'Geneva', 'Lucid', 'Arial', 'Helvetica', 'Avant Garde', sans-serif; text-anchor: middle; fill: #111827" x="1099.288132" y="313.880913" transform="rotate(-0 1099.288132 313.880913)">steadfast</text>
    </g>
   </g>
   <g id="text_31">
    <g clip-path="url(#p26d755cbce)">
     <text style="font-size: 7.6px; font-family: 'DejaVu Sans', 'Bitstream Vera Sans', 'Computer Modern Sans Serif', 'Lucida Grande', 'Verdana', 'Geneva', 'Lucid', 'Arial', 'Helvetica', 'Avant Garde', sans-serif; text-anchor: middle; fill: #111827" x="1035.356574" y="377.75793" transform="rotate(-0 1035.356574 377.75793)">evil</text>
    </g>
   </g>
   <g id="text_32">
    <g clip-path="url(#p26d755cbce)">
     <text style="font-size: 7.6px; font-family: 'DejaVu Sans', 'Bitstream Vera Sans', 'Computer Modern Sans Serif', 'Lucida Grande', 'Verdana', 'Geneva', 'Lucid', 'Arial', 'Helvetica', 'Avant Garde', sans-serif; text-anchor: middle; fill: #111827" x="995.058499" y="304.717606" transform="rotate(-0 995.058499 304.717606)">long</text>
    </g>
   </g>
   <g id="text_33">
    <g clip-path="url(#p26d755cbce)">
     <text style="font-size: 7.6px; font-family: 'DejaVu Sans', 'Bitstream Vera Sans', 'Computer Modern Sans Serif', 'Lucida Grande', 'Verdana', 'Geneva', 'Lucid', 'Arial', 'Helvetica', 'Avant Garde', sans-serif; text-anchor: middle; fill: #111827" x="1024.804919" y="312.622114" transform="rotate(-0 1024.804919 312.622114)">high</text>
    </g>
   </g>
   <g id="text_34">
    <g clip-path="url(#p26d755cbce)">
     <text style="font-size: 7.6px; font-family: 'DejaVu Sans', 'Bitstream Vera Sans', 'Computer Modern Sans Serif', 'Lucida Grande', 'Verdana', 'Geneva', 'Lucid', 'Arial', 'Helvetica', 'Avant Garde', sans-serif; text-anchor: middle; fill: #111827" x="923.416859" y="485.694926" transform="rotate(-0 923.416859 485.694926)">young</text>
    </g>
   </g>
   <g id="text_35">
    <g clip-path="url(#p26d755cbce)">
     <text style="font-size: 7.6px; font-family: 'DejaVu Sans', 'Bitstream Vera Sans', 'Computer Modern Sans Serif', 'Lucida Grande', 'Verdana', 'Geneva', 'Lucid', 'Arial', 'Helvetica', 'Avant Garde', sans-serif; text-anchor: middle; fill: #111827" x="985.68145" y="337.634475" transform="rotate(-0 985.68145 337.634475)">good</text>
    </g>
   </g>
   <g id="text_36">
    <g clip-path="url(#p26d755cbce)">
     <text style="font-size: 7.6px; font-family: 'DejaVu Sans', 'Bitstream Vera Sans', 'Computer Modern Sans Serif', 'Lucida Grande', 'Verdana', 'Geneva', 'Lucid', 'Arial', 'Helvetica', 'Avant Garde', sans-serif; text-anchor: middle; fill: #111827" x="835.535495" y="327.271656" transform="rotate(-0 835.535495 327.271656)">divine</text>
    </g>
   </g>
   <g id="text_37">
    <g clip-path="url(#p26d755cbce)">
     <text style="font-size: 7.6px; font-family: 'DejaVu Sans', 'Bitstream Vera Sans', 'Computer Modern Sans Serif', 'Lucida Grande', 'Verdana', 'Geneva', 'Lucid', 'Arial', 'Helvetica', 'Avant Garde', sans-serif; text-anchor: middle; fill: #111827" x="888.46934" y="458.975673" transform="rotate(-0 888.46934 458.975673)">old</text>
    </g>
   </g>
   <g id="text_38">
    <g clip-path="url(#p26d755cbce)">
     <text style="font-size: 7.6px; font-family: 'DejaVu Sans', 'Bitstream Vera Sans', 'Computer Modern Sans Serif', 'Lucida Grande', 'Verdana', 'Geneva', 'Lucid', 'Arial', 'Helvetica', 'Avant Garde', sans-serif; text-anchor: middle; fill: #111827" x="848.460736" y="290.774579" transform="rotate(-0 848.460736 290.774579)">gray-eyed</text>
    </g>
   </g>
   <g id="text_39">
    <g clip-path="url(#p26d755cbce)">
     <text style="font-size: 7.6px; font-family: 'DejaVu Sans', 'Bitstream Vera Sans', 'Computer Modern Sans Serif', 'Lucida Grande', 'Verdana', 'Geneva', 'Lucid', 'Arial', 'Helvetica', 'Avant Garde', sans-serif; text-anchor: middle; fill: #111827" x="1013.492921" y="419.619467" transform="rotate(-0 1013.492921 419.619467)">great</text>
    </g>
   </g>
   <g id="text_40">
    <g clip-path="url(#p26d755cbce)">
     <text style="font-size: 7.6px; font-family: 'DejaVu Sans', 'Bitstream Vera Sans', 'Computer Modern Sans Serif', 'Lucida Grande', 'Verdana', 'Geneva', 'Lucid', 'Arial', 'Helvetica', 'Avant Garde', sans-serif; text-anchor: middle; fill: #111827" x="1001.559969" y="384.583821" transform="rotate(-0 1001.559969 384.583821)">glad</text>
    </g>
   </g>
   <g id="text_41">
    <g clip-path="url(#p26d755cbce)">
     <text style="font-size: 7.6px; font-family: 'DejaVu Sans', 'Bitstream Vera Sans', 'Computer Modern Sans Serif', 'Lucida Grande', 'Verdana', 'Geneva', 'Lucid', 'Arial', 'Helvetica', 'Avant Garde', sans-serif; text-anchor: middle; fill: #111827" x="1086.59035" y="449.350727" transform="rotate(-0 1086.59035 449.350727)">black</text>
    </g>
   </g>
   <g id="text_42">
    <g clip-path="url(#p26d755cbce)">
     <text style="font-size: 7.6px; font-family: 'DejaVu Sans', 'Bitstream Vera Sans', 'Computer Modern Sans Serif', 'Lucida Grande', 'Verdana', 'Geneva', 'Lucid', 'Arial', 'Helvetica', 'Avant Garde', sans-serif; text-anchor: middle; fill: #111827" x="960.863824" y="317.643917" transform="rotate(-0 960.863824 317.643917)">wise</text>
    </g>
   </g>
   <g id="text_43">
    <g clip-path="url(#p26d755cbce)">
     <text style="font-size: 7.6px; font-family: 'DejaVu Sans', 'Bitstream Vera Sans', 'Computer Modern Sans Serif', 'Lucida Grande', 'Verdana', 'Geneva', 'Lucid', 'Arial', 'Helvetica', 'Avant Garde', sans-serif; text-anchor: middle; fill: #111827" x="917.025988" y="376.047355" transform="rotate(-0 917.025988 376.047355)">mighty</text>
    </g>
   </g>
   <g id="text_44">
    <g clip-path="url(#p26d755cbce)">
     <text style="font-size: 7.6px; font-family: 'DejaVu Sans', 'Bitstream Vera Sans', 'Computer Modern Sans Serif', 'Lucida Grande', 'Verdana', 'Geneva', 'Lucid', 'Arial', 'Helvetica', 'Avant Garde', sans-serif; text-anchor: middle; fill: #111827" x="1059.822798" y="469.277312" transform="rotate(-0 1059.822798 469.277312)">deep</text>
    </g>
   </g>
  </g>
  <g id="text_45">
   <text style="font-weight: 700; font-size: 22px; font-family: 'DejaVu Sans'; text-anchor: start; fill: #111827" x="18" y="23.916562" transform="rotate(-0 18 23.916562)">S. H. Butcher and Andrew Lang (1879) — Native target-as-hyperedge visualization</text>
  </g>
  <g id="text_46">
   <text style="font-size: 11px; font-family: 'DejaVu Sans'; text-anchor: start; fill: #475569" x="18" y="42.84" transform="rotate(-0 18 42.84)">Readable weighted core: 34 of 131 attribute nodes; 10 of 90 target hyperedges; 195 of 967 incidences.</text>
  </g>
  <g id="text_47">
   <text style="font-size: 9px; font-family: 'DejaVu Sans'; text-anchor: start; fill: #475569" x="18" y="755.64" transform="rotate(-0 18 755.64)">Attribute circles and target hyperedges use the colors specified in config/visualizations.json.</text>
  </g>
 </g>
 <defs>
  <clipPath id="pc554e67f7a">
   <rect x="7.2" y="122.72" width="678.6" height="602.32"/>
  </clipPath>
  <clipPath id="p26d755cbce">
   <rect x="696.6" y="122.72" width="678.6" height="602.32"/>
  </clipPath>
 </defs>
</svg>
