<?xml version="1.0" encoding="utf-8" standalone="no"?>
<!DOCTYPE svg PUBLIC "-//W3C//DTD SVG 1.1//EN"
  "http://www.w3.org/Graphics/SVG/1.1/DTD/svg11.dtd">
<svg xmlns:xlink="http://www.w3.org/1999/xlink" width="1382.4pt" height="764.711719pt" viewBox="0 0 1382.4 764.711719" xmlns="http://www.w3.org/2000/svg" version="1.1">
 <metadata>
  <rdf:RDF xmlns:dc="http://purl.org/dc/elements/1.1/" xmlns:cc="http://creativecommons.org/ns#" xmlns:rdf="http://www.w3.org/1999/02/22-rdf-syntax-ns#">
   <cc:Work>
    <dc:type rdf:resource="http://purl.org/dc/dcmitype/StillImage"/>
    <dc:format>image/svg+xml</dc:format>
    <dc:creator>
     <cc:Agent>
      <dc:title>Matplotlib v3.10.3, https://matplotlib.org/</dc:title>
     </cc:Agent>
    </dc:creator>
   </cc:Work>
  </rdf:RDF>
 </metadata>
 <defs>
  <style type="text/css">*{stroke-linejoin: round; stroke-linecap: butt}</style>
 </defs>
 <g id="figure_1">
  <g id="patch_1">
   <path d="M 0 764.711719
L 1382.4 764.711719
L 1382.4 0
L 0 0
z
" style="fill: #ffffff"/>
  </g>
  <g id="axes_1">
   <g id="text_1">
    <text style="font-weight: 700; font-size: 15px; font-family: 'DejaVu Sans'; text-anchor: start; fill: #111827" x="7.2" y="108.72" transform="rotate(-0 7.2 108.72)">XGI native hyperedge-hull view</text>
   </g>
   <g id="PatchCollection_1">
    <path d="M 485.187685 476.384817
L 566.152586 389.394216
L 566.797899 388.662252
L 567.395978 387.891213
L 567.944464 387.084141
L 568.44119 386.244223
L 568.884197 385.374772
L 569.271737 384.47922
L 569.60228 383.561102
L 569.874522 382.62404
L 570.087388 381.671733
L 570.240038 380.707939
L 570.331869 379.736462
L 570.36252 378.761136
L 570.331869 377.78581
L 570.240038 376.814334
L 557.778903 267.36908
L 557.626253 266.405287
L 557.413387 265.45298
L 557.141146 264.515918
L 556.810603 263.597799
L 556.423063 262.702248
L 555.980055 261.832797
L 555.483329 260.992878
L 517.991355 198.09219
L 517.44287 197.285118
L 516.844791 196.514079
L 516.199478 195.782115
L 515.509478 195.092115
L 514.777514 194.446802
L 514.006475 193.848723
L 513.199403 193.300237
L 512.359485 192.803511
L 511.490034 192.360504
L 510.594482 191.972964
L 509.676363 191.642421
L 416.729957 160.214664
L 415.792896 159.942423
L 414.840589 159.729557
L 413.876795 159.576907
L 412.905318 159.485075
L 411.929992 159.454424
L 410.954666 159.485075
L 409.983189 159.576907
L 409.019396 159.729557
L 408.067089 159.942423
L 407.130027 160.214664
L 406.211909 160.545207
L 405.316357 160.932747
L 404.446906 161.375754
L 403.606987 161.872481
L 402.799916 162.420966
L 402.028877 163.019045
L 325.71486 229.562027
L 324.982896 230.20734
L 324.292896 230.89734
L 323.647583 231.629304
L 291.372589 269.098724
L 290.77451 269.869764
L 290.226025 270.676835
L 289.729298 271.516754
L 262.031425 325.337068
L 261.588418 326.206519
L 261.200878 327.10207
L 260.870335 328.020189
L 260.598094 328.957251
L 260.385228 329.909558
L 260.232578 330.873351
L 260.140746 331.844828
L 260.110095 332.820154
L 259.171312 410.936091
L 259.201963 411.911417
L 259.293794 412.882893
L 259.446444 413.846687
L 259.65931 414.798994
L 259.931552 415.736056
L 260.262095 416.654174
L 260.649634 417.549726
L 261.092642 418.419177
L 261.589368 419.259095
L 262.137853 420.066167
L 262.735933 420.837206
L 263.381246 421.56917
L 264.071246 422.25917
L 264.80321 422.904483
L 265.574249 423.502563
L 266.38132 424.051048
L 330.813234 463.142952
L 331.653153 463.639678
L 332.522603 464.082686
L 333.418155 464.470226
L 334.336274 464.800769
L 335.273335 465.07301
L 336.225642 465.285876
L 337.189436 465.438526
L 406.952698 476.062917
L 407.924175 476.154749
L 472.88928 481.254101
L 473.864606 481.284751
L 474.839932 481.254101
L 475.811409 481.162269
L 476.775202 481.009619
L 477.727509 480.796753
L 478.664571 480.524512
L 479.58269 480.193969
L 480.478241 479.806429
L 481.347692 479.363421
L 482.187611 478.866695
L 482.994682 478.31821
L 483.765721 477.720131
L 484.497685 477.074817
z
" clip-path="url(#pc554e67f7a)" style="fill: #f59e0b; fill-opacity: 0.13; stroke: #d97706; stroke-opacity: 0.13; stroke-width: 0.8"/>
    <path d="M 371.165655 591.002434
L 566.152586 389.394216
L 566.797899 388.662252
L 567.395978 387.891213
L 567.944464 387.084141
L 568.44119 386.244223
L 568.884197 385.374772
L 569.271737 384.47922
L 569.60228 383.561102
L 569.874522 382.62404
L 570.087388 381.671733
L 570.240038 380.707939
L 570.331869 379.736462
L 570.36252 378.761136
L 570.331869 377.78581
L 570.240038 376.814334
L 570.087388 375.85054
L 559.664637 324.981605
L 559.451772 324.029299
L 559.17953 323.092237
L 558.848987 322.174118
L 558.461447 321.278566
L 558.01844 320.409116
L 557.521713 319.569197
L 556.973228 318.762126
L 556.375149 317.991087
L 555.729836 317.259123
L 555.039836 316.569122
L 507.854407 269.662846
L 507.122443 269.017533
L 506.351404 268.419454
L 505.544332 267.870968
L 504.704414 267.374242
L 503.834963 266.931235
L 376.097133 206.589476
L 375.201581 206.201936
L 374.283463 205.871393
L 373.346401 205.599152
L 372.394094 205.386286
L 371.4303 205.233636
L 370.458823 205.141804
L 369.483497 205.111153
L 368.508171 205.141804
L 367.536695 205.233636
L 366.572901 205.386286
L 365.620594 205.599152
L 364.683532 205.871393
L 363.765414 206.201936
L 362.869862 206.589476
L 362.000411 207.032483
L 361.160492 207.52921
L 327.292971 228.415462
L 326.485899 228.963947
L 325.71486 229.562027
L 324.982896 230.20734
L 324.292896 230.89734
L 323.647583 231.629304
L 291.372589 269.098724
L 290.77451 269.869764
L 290.226025 270.676835
L 289.729298 271.516754
L 289.286291 272.386204
L 288.898751 273.281756
L 288.568208 274.199875
L 288.295966 275.136937
L 288.083101 276.089243
L 287.930451 277.053037
L 287.838619 278.024514
L 287.807968 278.99984
L 287.838619 279.975166
L 296.917037 378.043201
L 297.008869 379.014678
L 297.161519 379.978472
L 297.374385 380.930778
L 344.79756 584.232258
L 345.069801 585.16932
L 345.400344 586.087438
L 345.787884 586.98299
L 346.230892 587.852441
L 346.727618 588.692359
L 347.276103 589.499431
L 347.874182 590.27047
L 348.519495 591.002434
L 349.209496 591.692434
L 349.94146 592.337747
L 350.712499 592.935826
L 351.51957 593.484312
L 352.359489 593.981038
L 353.22894 594.424045
L 354.124491 594.811585
L 355.04261 595.142128
L 355.979672 595.41437
L 356.931979 595.627236
L 357.895772 595.779886
L 358.867249 595.871717
L 359.842575 595.902368
L 360.817901 595.871717
L 361.789378 595.779886
L 362.753172 595.627236
L 363.705478 595.41437
L 364.64254 595.142128
L 365.560659 594.811585
L 366.456211 594.424045
L 367.325661 593.981038
L 368.16558 593.484312
L 368.972651 592.935826
L 369.74369 592.337747
L 370.475654 591.692434
z
" clip-path="url(#pc554e67f7a)" style="fill: #f59e0b; fill-opacity: 0.13; stroke: #d97706; stroke-opacity: 0.13; stroke-width: 0.8"/>
    <path d="M 262.031425 340.30324
L 325.524555 457.511081
L 326.021282 458.351
L 326.569767 459.158071
L 327.167846 459.92911
L 327.813159 460.661074
L 328.503159 461.351074
L 329.235123 461.996388
L 330.006163 462.594467
L 330.813234 463.142952
L 331.653153 463.639678
L 332.522603 464.082686
L 333.418155 464.470226
L 334.336274 464.800769
L 335.273335 465.07301
L 336.225642 465.285876
L 337.189436 465.438526
L 406.952698 476.062917
L 407.924175 476.154749
L 408.899501 476.1854
L 409.874827 476.154749
L 410.846304 476.062917
L 411.810098 475.910268
L 412.762405 475.697402
L 413.699466 475.42516
L 414.617585 475.094617
L 415.513137 474.707077
L 416.382588 474.26407
L 513.589855 418.95333
L 514.429773 418.456604
L 515.236845 417.908119
L 516.007884 417.310039
L 516.739848 416.664726
L 517.429848 415.974726
L 518.075161 415.242762
L 518.67324 414.471723
L 519.221726 413.664652
L 519.718452 412.824733
L 520.161459 411.955282
L 520.548999 411.05973
L 520.879542 410.141612
L 521.151784 409.20455
L 521.36465 408.252243
L 521.5173 407.288449
L 521.609131 406.316973
L 522.128533 399.785746
L 522.159184 398.81042
L 522.128533 397.835094
L 522.036702 396.863617
L 521.884052 395.899823
L 521.671186 394.947517
L 504.736355 331.425012
L 504.464113 330.487951
L 473.548317 227.70091
L 473.217774 226.782791
L 472.830234 225.887239
L 472.387227 225.017788
L 471.890501 224.17787
L 471.342015 223.370798
L 470.743936 222.599759
L 470.098623 221.867795
L 469.408623 221.177795
L 468.676659 220.532482
L 467.90562 219.934403
L 467.098548 219.385918
L 466.25863 218.889191
L 465.389179 218.446184
L 464.493627 218.058644
L 463.575509 217.728101
L 462.638447 217.455859
L 461.68614 217.242994
L 460.722346 217.090344
L 459.75087 216.998512
L 458.775544 216.967861
L 457.800218 216.998512
L 456.828741 217.090344
L 455.864947 217.242994
L 454.91264 217.455859
L 453.975578 217.728101
L 298.541017 264.227066
L 297.622898 264.557609
L 296.727346 264.945149
L 295.857895 265.388156
L 295.017977 265.884883
L 294.210905 266.433368
L 293.439866 267.031447
L 292.707902 267.67676
L 292.017902 268.36676
L 291.372589 269.098724
L 290.77451 269.869764
L 290.226025 270.676835
L 289.729298 271.516754
L 262.031425 325.337068
L 261.588418 326.206519
L 261.200878 327.10207
L 260.870335 328.020189
L 260.598094 328.957251
L 260.385228 329.909558
L 260.232578 330.873351
L 260.140746 331.844828
L 260.110095 332.820154
L 260.140746 333.79548
L 260.232578 334.766957
L 260.385228 335.730751
L 260.598094 336.683057
L 260.870335 337.620119
L 261.200878 338.538238
L 261.588418 339.43379
z
" clip-path="url(#pc554e67f7a)" style="fill: #f59e0b; fill-opacity: 0.13; stroke: #d97706; stroke-opacity: 0.13; stroke-width: 0.8"/>
    <path d="M 485.187685 476.384817
L 566.152586 389.394216
L 566.797899 388.662252
L 567.395978 387.891213
L 567.944464 387.084141
L 568.44119 386.244223
L 568.884197 385.374772
L 569.271737 384.47922
L 569.60228 383.561102
L 569.874522 382.62404
L 570.087388 381.671733
L 570.240038 380.707939
L 570.331869 379.736462
L 570.36252 378.761136
L 570.331869 377.78581
L 570.240038 376.814334
L 557.778903 267.36908
L 557.626253 266.405287
L 557.413387 265.45298
L 557.141146 264.515918
L 556.810603 263.597799
L 556.423063 262.702248
L 555.980055 261.832797
L 555.483329 260.992878
L 554.934844 260.185807
L 554.336765 259.414768
L 553.691451 258.682804
L 553.001451 257.992804
L 552.269487 257.34749
L 551.498448 256.749411
L 550.691377 256.200926
L 549.851458 255.7042
L 548.982007 255.261192
L 465.389179 218.446184
L 464.493627 218.058644
L 463.575509 217.728101
L 462.638447 217.455859
L 461.68614 217.242994
L 460.722346 217.090344
L 459.75087 216.998512
L 458.775544 216.967861
L 457.800218 216.998512
L 456.828741 217.090344
L 455.864947 217.242994
L 454.91264 217.455859
L 453.975578 217.728101
L 453.05746 218.058644
L 452.161908 218.446184
L 451.292457 218.889191
L 355.048236 273.566603
L 354.208318 274.063329
L 353.401246 274.611815
L 352.630207 275.209894
L 351.898243 275.855207
L 351.208243 276.545207
L 350.56293 277.277171
L 349.964851 278.04821
L 349.416366 278.855282
L 348.919639 279.6952
L 348.476632 280.564651
L 348.089092 281.460203
L 347.758549 282.378321
L 347.486307 283.315383
L 347.273442 284.26769
L 347.120792 285.231484
L 347.02896 286.202961
L 342.180493 408.176074
L 342.149842 409.1514
L 342.180493 410.126726
L 342.272325 411.098202
L 342.424975 412.061996
L 342.63784 413.014303
L 342.910082 413.951365
L 343.240625 414.869483
L 343.628165 415.765035
L 344.071172 416.634486
L 344.567899 417.474404
L 345.116384 418.281476
L 345.714463 419.052515
L 346.359776 419.784479
L 397.576422 471.285466
L 398.266422 471.975466
L 398.998386 472.620779
L 399.769425 473.218858
L 400.576496 473.767343
L 401.416415 474.26407
L 402.285866 474.707077
L 403.181418 475.094617
L 404.099536 475.42516
L 405.036598 475.697402
L 405.988905 475.910268
L 406.952698 476.062917
L 407.924175 476.154749
L 472.88928 481.254101
L 473.864606 481.284751
L 474.839932 481.254101
L 475.811409 481.162269
L 476.775202 481.009619
L 477.727509 480.796753
L 478.664571 480.524512
L 479.58269 480.193969
L 480.478241 479.806429
L 481.347692 479.363421
L 482.187611 478.866695
L 482.994682 478.31821
L 483.765721 477.720131
L 484.497685 477.074817
z
" clip-path="url(#pc554e67f7a)" style="fill: #f59e0b; fill-opacity: 0.13; stroke: #d97706; stroke-opacity: 0.13; stroke-width: 0.8"/>
    <path d="M 262.031425 325.337068
L 124.55881 571.524196
L 124.115803 572.393647
L 123.728263 573.289199
L 123.39772 574.207318
L 123.125478 575.144379
L 122.912612 576.096686
L 122.759962 577.06048
L 122.668131 578.031957
L 122.63748 579.007283
L 122.668131 579.982609
L 122.759962 580.954086
L 122.912612 581.917879
L 123.125478 582.870186
L 123.39772 583.807248
L 123.728263 584.725366
L 124.115803 585.620918
L 124.55881 586.490369
L 125.055536 587.330288
L 125.604022 588.137359
L 126.202101 588.908398
L 126.847414 589.640362
L 127.537414 590.330362
L 128.269378 590.975675
L 236.554976 684.740955
L 237.326015 685.339034
L 238.133087 685.887519
L 238.973005 686.384246
L 239.842456 686.827253
L 240.738008 687.214793
L 241.656126 687.545336
L 242.593188 687.817577
L 243.545495 688.030443
L 244.509289 688.183093
L 245.480766 688.274925
L 246.456092 688.305576
L 247.431418 688.274925
L 248.402894 688.183093
L 249.366688 688.030443
L 250.318995 687.817577
L 251.256057 687.545336
L 252.174175 687.214793
L 253.069727 686.827253
L 253.939178 686.384246
L 254.779096 685.887519
L 255.586168 685.339034
L 256.357207 684.740955
L 369.74369 592.337747
L 370.475654 591.692434
L 371.165655 591.002434
L 485.187685 476.384817
L 485.832998 475.652853
L 486.431078 474.881814
L 486.979563 474.074743
L 487.476289 473.234824
L 487.919297 472.365373
L 488.306837 471.469822
L 488.63738 470.551703
L 488.909621 469.614641
L 489.122487 468.662334
L 489.275137 467.698541
L 489.366969 466.727064
L 489.397619 465.751738
L 489.366969 464.776412
L 489.275137 463.804935
L 489.122487 462.841141
L 488.909621 461.888835
L 488.63738 460.951773
L 488.306837 460.033654
L 487.919297 459.138102
L 487.476289 458.268652
L 444.957723 382.790632
L 444.460996 381.950714
L 443.912511 381.143642
L 415.04605 339.720715
L 414.44797 338.949676
L 413.802657 338.217712
L 413.112657 337.527712
L 412.380693 336.882398
L 411.609654 336.284319
L 410.802583 335.735834
L 409.962664 335.239108
L 409.093213 334.7961
L 408.197661 334.40856
L 407.279543 334.078017
L 406.342481 333.805776
L 405.390174 333.59291
L 404.426381 333.44026
L 277.589912 317.409623
L 276.618435 317.317791
L 275.643109 317.287141
L 274.667783 317.317791
L 273.696306 317.409623
L 272.732512 317.562273
L 271.780206 317.775139
L 270.843144 318.04738
L 269.925025 318.377923
L 269.029473 318.765463
L 268.160023 319.208471
L 267.320104 319.705197
L 266.513033 320.253682
L 265.741994 320.851761
L 265.01003 321.497075
L 264.320029 322.187075
L 263.674716 322.919039
L 263.076637 323.690078
L 262.528152 324.497149
z
" clip-path="url(#pc554e67f7a)" style="fill: #f59e0b; fill-opacity: 0.13; stroke: #d97706; stroke-opacity: 0.13; stroke-width: 0.8"/>
    <path d="M 315.650397 341.012951
L 315.619746 341.988277
L 315.650397 342.963603
L 315.742228 343.935079
L 315.894878 344.898873
L 316.107744 345.85118
L 316.379985 346.788242
L 316.710528 347.70636
L 343.240625 414.869483
L 343.628165 415.765035
L 344.071172 416.634486
L 344.567899 417.474404
L 345.116384 418.281476
L 345.714463 419.052515
L 346.359776 419.784479
L 347.049776 420.474479
L 347.78174 421.119792
L 348.552779 421.717871
L 349.359851 422.266357
L 350.199769 422.763083
L 351.06922 423.20609
L 351.964772 423.59363
L 352.882891 423.924173
L 353.819952 424.196415
L 354.772259 424.409281
L 355.736053 424.561931
L 356.70753 424.653762
L 357.682856 424.684413
L 506.106768 420.87466
L 507.082094 420.844009
L 508.053571 420.752178
L 509.017365 420.599528
L 509.969672 420.386662
L 510.906734 420.11442
L 511.824852 419.783877
L 512.720404 419.396337
L 513.589855 418.95333
L 514.429773 418.456604
L 515.236845 417.908119
L 516.007884 417.310039
L 516.739848 416.664726
L 517.429848 415.974726
L 518.075161 415.242762
L 518.67324 414.471723
L 519.221726 413.664652
L 519.718452 412.824733
L 520.161459 411.955282
L 520.548999 411.05973
L 520.879542 410.141612
L 521.151784 409.20455
L 557.413387 273.178786
L 557.626253 272.22648
L 557.778903 271.262686
L 557.870735 270.291209
L 557.901385 269.315883
L 557.870735 268.340557
L 557.778903 267.36908
L 557.626253 266.405287
L 557.413387 265.45298
L 557.141146 264.515918
L 556.810603 263.597799
L 556.423063 262.702248
L 555.980055 261.832797
L 555.483329 260.992878
L 554.934844 260.185807
L 554.336765 259.414768
L 553.691451 258.682804
L 553.001451 257.992804
L 552.269487 257.34749
L 551.498448 256.749411
L 550.691377 256.200926
L 549.851458 255.7042
L 548.982007 255.261192
L 465.389179 218.446184
L 464.493627 218.058644
L 463.575509 217.728101
L 462.638447 217.455859
L 461.68614 217.242994
L 460.722346 217.090344
L 371.4303 205.233636
L 370.458823 205.141804
L 369.483497 205.111153
L 368.508171 205.141804
L 367.536695 205.233636
L 366.572901 205.386286
L 365.620594 205.599152
L 364.683532 205.871393
L 363.765414 206.201936
L 362.869862 206.589476
L 362.000411 207.032483
L 361.160492 207.52921
L 327.292971 228.415462
L 326.485899 228.963947
L 325.71486 229.562027
L 324.982896 230.20734
L 324.292896 230.89734
L 323.647583 231.629304
L 323.049504 232.400343
L 322.501018 233.207415
L 322.004292 234.047333
L 321.561285 234.916784
L 321.173745 235.812336
L 320.843202 236.730454
L 320.57096 237.667516
L 320.358094 238.619823
L 320.205444 239.583617
L 320.113613 240.555093
z
" clip-path="url(#pc554e67f7a)" style="fill: #f59e0b; fill-opacity: 0.13; stroke: #d97706; stroke-opacity: 0.13; stroke-width: 0.8"/>
    <path d="M 357.515105 210.743052
L 263.674716 322.919039
L 263.076637 323.690078
L 262.528152 324.497149
L 262.031425 325.337068
L 261.588418 326.206519
L 261.200878 327.10207
L 260.870335 328.020189
L 260.598094 328.957251
L 260.385228 329.909558
L 260.232578 330.873351
L 260.140746 331.844828
L 260.110095 332.820154
L 260.140746 333.79548
L 260.232578 334.766957
L 260.385228 335.730751
L 260.598094 336.683057
L 260.870335 337.620119
L 261.200878 338.538238
L 261.588418 339.43379
L 262.031425 340.30324
L 262.528152 341.143159
L 263.076637 341.95023
L 263.674716 342.72127
L 300.451007 386.96899
L 301.09632 387.700954
L 301.786321 388.390955
L 302.518285 389.036268
L 303.289324 389.634347
L 304.096395 390.182832
L 304.936314 390.679559
L 305.805765 391.122566
L 306.701316 391.510106
L 307.619435 391.840649
L 308.556497 392.11289
L 309.508804 392.325756
L 310.472597 392.478406
L 429.399236 405.68425
L 430.370713 405.776081
L 431.346039 405.806732
L 432.321365 405.776081
L 433.292842 405.68425
L 434.256636 405.5316
L 435.208943 405.318734
L 436.146004 405.046492
L 437.064123 404.715949
L 437.959675 404.328409
L 438.829126 403.885402
L 439.669044 403.388676
L 440.476116 402.840191
L 441.247155 402.242111
L 441.979119 401.596798
L 500.324419 346.610995
L 501.014419 345.920995
L 501.659732 345.189031
L 554.336765 279.216999
L 554.934844 278.445959
L 555.483329 277.638888
L 555.980055 276.798969
L 556.423063 275.929519
L 556.810603 275.033967
L 557.141146 274.115848
L 557.413387 273.178786
L 557.626253 272.22648
L 557.778903 271.262686
L 557.870735 270.291209
L 557.901385 269.315883
L 557.870735 268.340557
L 557.778903 267.36908
L 557.626253 266.405287
L 557.413387 265.45298
L 557.141146 264.515918
L 556.810603 263.597799
L 556.423063 262.702248
L 555.980055 261.832797
L 555.483329 260.992878
L 554.934844 260.185807
L 554.336765 259.414768
L 553.691451 258.682804
L 553.001451 257.992804
L 552.269487 257.34749
L 551.498448 256.749411
L 550.691377 256.200926
L 549.851458 255.7042
L 548.982007 255.261192
L 465.389179 218.446184
L 464.493627 218.058644
L 463.575509 217.728101
L 462.638447 217.455859
L 461.68614 217.242994
L 460.722346 217.090344
L 371.4303 205.233636
L 370.458823 205.141804
L 369.483497 205.111153
L 368.508171 205.141804
L 367.536695 205.233636
L 366.572901 205.386286
L 365.620594 205.599152
L 364.683532 205.871393
L 363.765414 206.201936
L 362.869862 206.589476
L 362.000411 207.032483
L 361.160492 207.52921
L 360.353421 208.077695
L 359.582382 208.675774
L 358.850418 209.321087
L 358.160418 210.011088
z
" clip-path="url(#pc554e67f7a)" style="fill: #f59e0b; fill-opacity: 0.13; stroke: #d97706; stroke-opacity: 0.13; stroke-width: 0.8"/>
    <path d="M 358.658182 424.653762
L 438.633661 419.560928
L 439.605138 419.469097
L 440.568931 419.316447
L 441.521238 419.103581
L 442.4583 418.831339
L 443.376418 418.500796
L 444.27197 418.113256
L 445.141421 417.670249
L 445.98134 417.173523
L 446.788411 416.625037
L 553.536832 340.458674
L 554.307872 339.860595
L 555.039836 339.215282
L 555.729836 338.525281
L 556.375149 337.793317
L 556.973228 337.022278
L 557.521713 336.215207
L 558.01844 335.375288
L 558.461447 334.505837
L 558.848987 333.610286
L 559.17953 332.692167
L 559.451772 331.755105
L 559.664637 330.802798
L 559.817287 329.839005
L 559.909119 328.867528
L 559.93977 327.892202
L 559.909119 326.916876
L 559.817287 325.945399
L 559.664637 324.981605
L 559.451772 324.029299
L 559.17953 323.092237
L 558.848987 322.174118
L 558.461447 321.278566
L 558.01844 320.409116
L 557.521713 319.569197
L 556.973228 318.762126
L 556.375149 317.991087
L 555.729836 317.259123
L 470.098623 221.867795
L 469.408623 221.177795
L 468.676659 220.532482
L 467.90562 219.934403
L 467.098548 219.385918
L 466.25863 218.889191
L 465.389179 218.446184
L 464.493627 218.058644
L 463.575509 217.728101
L 462.638447 217.455859
L 461.68614 217.242994
L 460.722346 217.090344
L 459.75087 216.998512
L 458.775544 216.967861
L 457.800218 216.998512
L 456.828741 217.090344
L 455.864947 217.242994
L 454.91264 217.455859
L 453.975578 217.728101
L 453.05746 218.058644
L 404.865802 236.21496
L 403.97025 236.6025
L 403.100799 237.045508
L 402.260881 237.542234
L 401.453809 238.090719
L 400.68277 238.688798
L 399.950806 239.334112
L 399.260806 240.024112
L 398.615493 240.756076
L 319.184367 332.087161
L 318.586287 332.8582
L 318.037802 333.665272
L 317.541076 334.50519
L 317.098068 335.374641
L 316.710528 336.270193
L 316.379985 337.188311
L 316.107744 338.125373
L 315.894878 339.07768
L 315.742228 340.041474
L 315.650397 341.012951
L 315.619746 341.988277
L 315.650397 342.963603
L 315.742228 343.935079
L 315.894878 344.898873
L 316.107744 345.85118
L 316.379985 346.788242
L 316.710528 347.70636
L 343.240625 414.869483
L 343.628165 415.765035
L 344.071172 416.634486
L 344.567899 417.474404
L 345.116384 418.281476
L 345.714463 419.052515
L 346.359776 419.784479
L 347.049776 420.474479
L 347.78174 421.119792
L 348.552779 421.717871
L 349.359851 422.266357
L 350.199769 422.763083
L 351.06922 423.20609
L 351.964772 423.59363
L 352.882891 423.924173
L 353.819952 424.196415
L 354.772259 424.409281
L 355.736053 424.561931
L 356.70753 424.653762
L 357.682856 424.684413
z
" clip-path="url(#pc554e67f7a)" style="fill: #f59e0b; fill-opacity: 0.13; stroke: #d97706; stroke-opacity: 0.13; stroke-width: 0.8"/>
    <path d="M 369.701469 356.910734
L 461.896213 475.652853
L 462.541526 476.384817
L 463.231526 477.074817
L 463.96349 477.720131
L 464.73453 478.31821
L 465.541601 478.866695
L 466.38152 479.363421
L 467.25097 479.806429
L 468.146522 480.193969
L 469.064641 480.524512
L 470.001702 480.796753
L 470.954009 481.009619
L 471.917803 481.162269
L 472.88928 481.254101
L 473.864606 481.284751
L 474.839932 481.254101
L 475.811409 481.162269
L 476.775202 481.009619
L 477.727509 480.796753
L 478.664571 480.524512
L 479.58269 480.193969
L 480.478241 479.806429
L 481.347692 479.363421
L 482.187611 478.866695
L 482.994682 478.31821
L 483.765721 477.720131
L 484.497685 477.074817
L 485.187685 476.384817
L 485.832998 475.652853
L 486.431078 474.881814
L 486.979563 474.074743
L 487.476289 473.234824
L 487.919297 472.365373
L 520.680862 405.424055
L 521.068402 404.528504
L 521.398945 403.610385
L 521.671186 402.673323
L 557.413387 273.178786
L 557.626253 272.22648
L 557.778903 271.262686
L 557.870735 270.291209
L 557.901385 269.315883
L 557.870735 268.340557
L 557.778903 267.36908
L 557.626253 266.405287
L 557.413387 265.45298
L 557.141146 264.515918
L 556.810603 263.597799
L 556.423063 262.702248
L 555.980055 261.832797
L 555.483329 260.992878
L 517.991355 198.09219
L 517.44287 197.285118
L 516.844791 196.514079
L 516.199478 195.782115
L 515.509478 195.092115
L 514.777514 194.446802
L 514.006475 193.848723
L 513.199403 193.300237
L 512.359485 192.803511
L 511.490034 192.360504
L 510.594482 191.972964
L 509.676363 191.642421
L 508.739302 191.370179
L 507.786995 191.157313
L 506.823201 191.004663
L 505.851724 190.912832
L 504.876398 190.882181
L 503.901072 190.912832
L 502.929595 191.004663
L 501.965802 191.157313
L 332.705379 226.272538
L 331.753072 226.485404
L 330.81601 226.757646
L 329.897892 227.088189
L 329.00234 227.475729
L 328.132889 227.918736
L 327.292971 228.415462
L 326.485899 228.963947
L 325.71486 229.562027
L 324.982896 230.20734
L 324.292896 230.89734
L 323.647583 231.629304
L 323.049504 232.400343
L 322.501018 233.207415
L 322.004292 234.047333
L 321.561285 234.916784
L 321.173745 235.812336
L 320.843202 236.730454
L 320.57096 237.667516
L 320.358094 238.619823
L 320.205444 239.583617
L 320.113613 240.555093
L 320.082962 241.530419
L 320.113613 242.505745
L 320.205444 243.477222
L 320.358094 244.441016
L 320.57096 245.393323
L 320.843202 246.330385
L 321.173745 247.248503
L 321.561285 248.144055
L 367.61517 353.623254
L 368.058178 354.492705
L 368.554904 355.332623
L 369.103389 356.139695
z
" clip-path="url(#pc554e67f7a)" style="fill: #f59e0b; fill-opacity: 0.13; stroke: #d97706; stroke-opacity: 0.13; stroke-width: 0.8"/>
    <path d="M 347.120792 285.231484
L 347.02896 286.202961
L 342.180493 408.176074
L 342.149842 409.1514
L 342.180493 410.126726
L 342.272325 411.098202
L 342.424975 412.061996
L 342.63784 413.014303
L 342.910082 413.951365
L 343.240625 414.869483
L 343.628165 415.765035
L 344.071172 416.634486
L 344.567899 417.474404
L 345.116384 418.281476
L 345.714463 419.052515
L 346.359776 419.784479
L 347.049776 420.474479
L 347.78174 421.119792
L 348.552779 421.717871
L 349.359851 422.266357
L 350.199769 422.763083
L 351.06922 423.20609
L 351.964772 423.59363
L 352.882891 423.924173
L 353.819952 424.196415
L 354.772259 424.409281
L 355.736053 424.561931
L 356.70753 424.653762
L 357.682856 424.684413
L 358.658182 424.653762
L 359.629659 424.561931
L 360.593452 424.409281
L 361.545759 424.196415
L 362.482821 423.924173
L 363.400939 423.59363
L 364.296491 423.20609
L 365.165942 422.763083
L 366.005861 422.266357
L 366.812932 421.717871
L 367.583971 421.119792
L 368.315935 420.474479
L 369.005935 419.784479
L 369.651248 419.052515
L 370.249328 418.281476
L 415.04605 357.980867
L 415.594535 357.173796
L 416.091261 356.333877
L 416.534269 355.464427
L 416.921809 354.568875
L 417.252352 353.650756
L 417.524593 352.713695
L 417.737459 351.761388
L 417.890109 350.797594
L 417.98194 349.826117
L 418.012591 348.850791
L 417.98194 347.875465
L 417.890109 346.903988
L 417.737459 345.940195
L 417.524593 344.987888
L 417.252352 344.050826
L 416.921809 343.132707
L 416.534269 342.237156
L 416.091261 341.367705
L 415.594535 340.527786
L 375.64628 278.855282
L 375.097795 278.04821
L 374.499715 277.277171
L 373.854402 276.545207
L 373.164402 275.855207
L 372.432438 275.209894
L 371.661399 274.611815
L 370.854328 274.063329
L 370.014409 273.566603
L 369.144958 273.123596
L 368.249406 272.736056
L 367.331288 272.405513
L 366.394226 272.133271
L 365.441919 271.920405
L 364.478125 271.767755
L 363.506649 271.675924
L 362.531323 271.645273
L 361.555997 271.675924
L 360.58452 271.767755
L 359.620726 271.920405
L 358.668419 272.133271
L 357.731358 272.405513
L 356.813239 272.736056
L 355.917687 273.123596
L 355.048236 273.566603
L 354.208318 274.063329
L 353.401246 274.611815
L 352.630207 275.209894
L 351.898243 275.855207
L 351.208243 276.545207
L 350.56293 277.277171
L 349.964851 278.04821
L 349.416366 278.855282
L 348.919639 279.6952
L 348.476632 280.564651
L 348.089092 281.460203
L 347.758549 282.378321
L 347.486307 283.315383
L 347.273442 284.26769
z
" clip-path="url(#pc554e67f7a)" style="fill: #f59e0b; fill-opacity: 0.13; stroke: #d97706; stroke-opacity: 0.13; stroke-width: 0.8"/>
   </g>
   <g id="LineCollection_1"/>
   <g id="PathCollection_1">
    <defs>
     <path id="m82c9e98f7c" d="M 0 6
C 1.591219 6 3.117479 5.367802 4.242641 4.242641
C 5.367802 3.117479 6 1.591219 6 0
C 6 -1.591219 5.367802 -3.117479 4.242641 -4.242641
C 3.117479 -5.367802 1.591219 -6 0 -6
C -1.591219 -6 -3.117479 -5.367802 -4.242641 -4.242641
C -5.367802 -3.117479 -6 -1.591219 -6 0
C -6 1.591219 -5.367802 3.117479 -4.242641 4.242641
C -3.117479 5.367802 -1.591219 6 0 6
z
" style="stroke: #334155; stroke-width: 0.8"/>
    </defs>
    <g clip-path="url(#pc554e67f7a)">
     <use xlink:href="#m82c9e98f7c" x="458.775544" y="232.500875" style="fill: #38bdf8; stroke: #334155; stroke-width: 0.8"/>
     <use xlink:href="#m82c9e98f7c" x="497.221327" y="280.985925" style="fill: #38bdf8; stroke: #334155; stroke-width: 0.8"/>
     <use xlink:href="#m82c9e98f7c" x="506.106768" y="405.341647" style="fill: #38bdf8; stroke: #334155; stroke-width: 0.8"/>
     <use xlink:href="#m82c9e98f7c" x="473.864606" y="465.751738" style="fill: #38bdf8; stroke: #334155; stroke-width: 0.8"/>
     <use xlink:href="#m82c9e98f7c" x="357.682856" y="409.1514" style="fill: #38bdf8; stroke: #334155; stroke-width: 0.8"/>
     <use xlink:href="#m82c9e98f7c" x="544.406756" y="327.892202" style="fill: #38bdf8; stroke: #334155; stroke-width: 0.8"/>
     <use xlink:href="#m82c9e98f7c" x="506.626171" y="398.81042" style="fill: #38bdf8; stroke: #334155; stroke-width: 0.8"/>
     <use xlink:href="#m82c9e98f7c" x="457.585842" y="308.576162" style="fill: #38bdf8; stroke: #334155; stroke-width: 0.8"/>
     <use xlink:href="#m82c9e98f7c" x="402.479578" y="348.850791" style="fill: #38bdf8; stroke: #334155; stroke-width: 0.8"/>
     <use xlink:href="#m82c9e98f7c" x="431.346039" y="390.273719" style="fill: #38bdf8; stroke: #334155; stroke-width: 0.8"/>
     <use xlink:href="#m82c9e98f7c" x="358.321405" y="408.53279" style="fill: #38bdf8; stroke: #334155; stroke-width: 0.8"/>
     <use xlink:href="#m82c9e98f7c" x="437.658335" y="404.058565" style="fill: #38bdf8; stroke: #334155; stroke-width: 0.8"/>
     <use xlink:href="#m82c9e98f7c" x="554.829507" y="378.761136" style="fill: #38bdf8; stroke: #334155; stroke-width: 0.8"/>
     <use xlink:href="#m82c9e98f7c" x="381.669861" y="347.009618" style="fill: #38bdf8; stroke: #334155; stroke-width: 0.8"/>
     <use xlink:href="#m82c9e98f7c" x="411.127119" y="456.465284" style="fill: #38bdf8; stroke: #334155; stroke-width: 0.8"/>
     <use xlink:href="#m82c9e98f7c" x="362.531323" y="287.178286" style="fill: #38bdf8; stroke: #334155; stroke-width: 0.8"/>
     <use xlink:href="#m82c9e98f7c" x="542.368372" y="269.315883" style="fill: #38bdf8; stroke: #334155; stroke-width: 0.8"/>
     <use xlink:href="#m82c9e98f7c" x="408.899501" y="460.652386" style="fill: #38bdf8; stroke: #334155; stroke-width: 0.8"/>
     <use xlink:href="#m82c9e98f7c" x="422.768473" y="278.197319" style="fill: #38bdf8; stroke: #334155; stroke-width: 0.8"/>
     <use xlink:href="#m82c9e98f7c" x="312.4194" y="377.067875" style="fill: #38bdf8; stroke: #334155; stroke-width: 0.8"/>
     <use xlink:href="#m82c9e98f7c" x="275.643109" y="332.820154" style="fill: #38bdf8; stroke: #334155; stroke-width: 0.8"/>
     <use xlink:href="#m82c9e98f7c" x="369.483497" y="220.644167" style="fill: #38bdf8; stroke: #334155; stroke-width: 0.8"/>
     <use xlink:href="#m82c9e98f7c" x="331.152759" y="341.988277" style="fill: #38bdf8; stroke: #334155; stroke-width: 0.8"/>
     <use xlink:href="#m82c9e98f7c" x="489.691339" y="335.287916" style="fill: #38bdf8; stroke: #334155; stroke-width: 0.8"/>
     <use xlink:href="#m82c9e98f7c" x="335.615976" y="241.530419" style="fill: #38bdf8; stroke: #334155; stroke-width: 0.8"/>
     <use xlink:href="#m82c9e98f7c" x="410.583885" y="250.657191" style="fill: #38bdf8; stroke: #334155; stroke-width: 0.8"/>
     <use xlink:href="#m82c9e98f7c" x="504.876398" y="206.415194" style="fill: #38bdf8; stroke: #334155; stroke-width: 0.8"/>
     <use xlink:href="#m82c9e98f7c" x="339.136239" y="450.027995" style="fill: #38bdf8; stroke: #334155; stroke-width: 0.8"/>
     <use xlink:href="#m82c9e98f7c" x="274.704325" y="410.936091" style="fill: #38bdf8; stroke: #334155; stroke-width: 0.8"/>
     <use xlink:href="#m82c9e98f7c" x="303.340982" y="278.99984" style="fill: #38bdf8; stroke: #334155; stroke-width: 0.8"/>
     <use xlink:href="#m82c9e98f7c" x="411.929992" y="174.987438" style="fill: #38bdf8; stroke: #334155; stroke-width: 0.8"/>
     <use xlink:href="#m82c9e98f7c" x="359.842575" y="580.369355" style="fill: #38bdf8; stroke: #334155; stroke-width: 0.8"/>
     <use xlink:href="#m82c9e98f7c" x="138.170493" y="579.007283" style="fill: #38bdf8; stroke: #334155; stroke-width: 0.8"/>
     <use xlink:href="#m82c9e98f7c" x="246.456092" y="672.772562" style="fill: #38bdf8; stroke: #334155; stroke-width: 0.8"/>
    </g>
   </g>
   <g id="text_2">
    <g clip-path="url(#pc554e67f7a)">
     <text style="font-size: 8.2px; font-family: 'DejaVu Sans', 'Bitstream Vera Sans', 'Computer Modern Sans Serif', 'Lucida Grande', 'Verdana', 'Geneva', 'Lucid', 'Arial', 'Helvetica', 'Avant Garde', sans-serif; text-anchor: middle; fill: #111827" x="357.682856" y="411.414087" transform="rotate(-0 357.682856 411.414087)">fair</text>
    </g>
   </g>
   <g id="text_3">
    <g clip-path="url(#pc554e67f7a)">
     <text style="font-size: 8.2px; font-family: 'DejaVu Sans', 'Bitstream Vera Sans', 'Computer Modern Sans Serif', 'Lucida Grande', 'Verdana', 'Geneva', 'Lucid', 'Arial', 'Helvetica', 'Avant Garde', sans-serif; text-anchor: middle; fill: #111827" x="437.658335" y="406.321253" transform="rotate(-0 437.658335 406.321253)">long</text>
    </g>
   </g>
   <g id="text_4">
    <g clip-path="url(#pc554e67f7a)">
     <text style="font-size: 8.2px; font-family: 'DejaVu Sans', 'Bitstream Vera Sans', 'Computer Modern Sans Serif', 'Lucida Grande', 'Verdana', 'Geneva', 'Lucid', 'Arial', 'Helvetica', 'Avant Garde', sans-serif; text-anchor: middle; fill: #111827" x="422.768473" y="280.460007" transform="rotate(-0 422.768473 280.460007)">young</text>
    </g>
   </g>
   <g id="text_5">
    <g clip-path="url(#pc554e67f7a)">
     <text style="font-size: 8.2px; font-family: 'DejaVu Sans', 'Bitstream Vera Sans', 'Computer Modern Sans Serif', 'Lucida Grande', 'Verdana', 'Geneva', 'Lucid', 'Arial', 'Helvetica', 'Avant Garde', sans-serif; text-anchor: middle; fill: #111827" x="431.346039" y="392.536406" transform="rotate(-0 431.346039 392.536406)">just</text>
    </g>
   </g>
   <g id="text_6">
    <g clip-path="url(#pc554e67f7a)">
     <text style="font-size: 8.2px; font-family: 'DejaVu Sans', 'Bitstream Vera Sans', 'Computer Modern Sans Serif', 'Lucida Grande', 'Verdana', 'Geneva', 'Lucid', 'Arial', 'Helvetica', 'Avant Garde', sans-serif; text-anchor: middle; fill: #111827" x="497.221327" y="283.248613" transform="rotate(-0 497.221327 283.248613)">brave</text>
    </g>
   </g>
   <g id="text_7">
    <g clip-path="url(#pc554e67f7a)">
     <text style="font-size: 8.2px; font-family: 'DejaVu Sans', 'Bitstream Vera Sans', 'Computer Modern Sans Serif', 'Lucida Grande', 'Verdana', 'Geneva', 'Lucid', 'Arial', 'Helvetica', 'Avant Garde', sans-serif; text-anchor: middle; fill: #111827" x="457.585842" y="310.838849" transform="rotate(-0 457.585842 310.838849)">good</text>
    </g>
   </g>
   <g id="text_8">
    <g clip-path="url(#pc554e67f7a)">
     <text style="font-size: 8.2px; font-family: 'DejaVu Sans', 'Bitstream Vera Sans', 'Computer Modern Sans Serif', 'Lucida Grande', 'Verdana', 'Geneva', 'Lucid', 'Arial', 'Helvetica', 'Avant Garde', sans-serif; text-anchor: middle; fill: #111827" x="312.4194" y="379.330563" transform="rotate(-0 312.4194 379.330563)">angry</text>
    </g>
   </g>
   <g id="text_9">
    <g clip-path="url(#pc554e67f7a)">
     <text style="font-size: 8.2px; font-family: 'DejaVu Sans', 'Bitstream Vera Sans', 'Computer Modern Sans Serif', 'Lucida Grande', 'Verdana', 'Geneva', 'Lucid', 'Arial', 'Helvetica', 'Avant Garde', sans-serif; text-anchor: middle; fill: #111827" x="331.152759" y="344.250964" transform="rotate(-0 331.152759 344.250964)">high</text>
    </g>
   </g>
   <g id="text_10">
    <g clip-path="url(#pc554e67f7a)">
     <text style="font-size: 8.2px; font-family: 'DejaVu Sans', 'Bitstream Vera Sans', 'Computer Modern Sans Serif', 'Lucida Grande', 'Verdana', 'Geneva', 'Lucid', 'Arial', 'Helvetica', 'Avant Garde', sans-serif; text-anchor: middle; fill: #111827" x="358.321405" y="410.795478" transform="rotate(-0 358.321405 410.795478)">little</text>
    </g>
   </g>
   <g id="text_11">
    <g clip-path="url(#pc554e67f7a)">
     <text style="font-size: 8.2px; font-family: 'DejaVu Sans', 'Bitstream Vera Sans', 'Computer Modern Sans Serif', 'Lucida Grande', 'Verdana', 'Geneva', 'Lucid', 'Arial', 'Helvetica', 'Avant Garde', sans-serif; text-anchor: middle; fill: #111827" x="381.669861" y="349.272306" transform="rotate(-0 381.669861 349.272306)">old</text>
    </g>
   </g>
   <g id="text_12">
    <g clip-path="url(#pc554e67f7a)">
     <text style="font-size: 8.2px; font-family: 'DejaVu Sans', 'Bitstream Vera Sans', 'Computer Modern Sans Serif', 'Lucida Grande', 'Verdana', 'Geneva', 'Lucid', 'Arial', 'Helvetica', 'Avant Garde', sans-serif; text-anchor: middle; fill: #111827" x="402.479578" y="351.113479" transform="rotate(-0 402.479578 351.113479)">great</text>
    </g>
   </g>
   <g id="text_13">
    <g clip-path="url(#pc554e67f7a)">
     <text style="font-size: 8.2px; font-family: 'DejaVu Sans', 'Bitstream Vera Sans', 'Computer Modern Sans Serif', 'Lucida Grande', 'Verdana', 'Geneva', 'Lucid', 'Arial', 'Helvetica', 'Avant Garde', sans-serif; text-anchor: middle; fill: #111827" x="369.483497" y="222.906854" transform="rotate(-0 369.483497 222.906854)">glad</text>
    </g>
   </g>
   <g id="text_14">
    <g clip-path="url(#pc554e67f7a)">
     <text style="font-size: 8.2px; font-family: 'DejaVu Sans', 'Bitstream Vera Sans', 'Computer Modern Sans Serif', 'Lucida Grande', 'Verdana', 'Geneva', 'Lucid', 'Arial', 'Helvetica', 'Avant Garde', sans-serif; text-anchor: middle; fill: #111827" x="489.691339" y="337.550603" transform="rotate(-0 489.691339 337.550603)">kind</text>
    </g>
   </g>
   <g id="text_15">
    <g clip-path="url(#pc554e67f7a)">
     <text style="font-size: 8.2px; font-family: 'DejaVu Sans', 'Bitstream Vera Sans', 'Computer Modern Sans Serif', 'Lucida Grande', 'Verdana', 'Geneva', 'Lucid', 'Arial', 'Helvetica', 'Avant Garde', sans-serif; text-anchor: middle; fill: #111827" x="458.775544" y="234.763562" transform="rotate(-0 458.775544 234.763562)">able</text>
    </g>
   </g>
   <g id="text_16">
    <g clip-path="url(#pc554e67f7a)">
     <text style="font-size: 8.2px; font-family: 'DejaVu Sans', 'Bitstream Vera Sans', 'Computer Modern Sans Serif', 'Lucida Grande', 'Verdana', 'Geneva', 'Lucid', 'Arial', 'Helvetica', 'Avant Garde', sans-serif; text-anchor: middle; fill: #111827" x="411.929992" y="177.250126" transform="rotate(-0 411.929992 177.250126)">noble</text>
    </g>
   </g>
   <g id="text_17">
    <g clip-path="url(#pc554e67f7a)">
     <text style="font-size: 8.2px; font-family: 'DejaVu Sans', 'Bitstream Vera Sans', 'Computer Modern Sans Serif', 'Lucida Grande', 'Verdana', 'Geneva', 'Lucid', 'Arial', 'Helvetica', 'Avant Garde', sans-serif; text-anchor: middle; fill: #111827" x="274.704325" y="413.198778" transform="rotate(-0 274.704325 413.198778)">deep</text>
    </g>
   </g>
  </g>
  <g id="axes_2">
   <g id="LineCollection_2">
    <path d="M 1081.257101 395.210871
L 1157.981244 459.434789
" clip-path="url(#p26d755cbce)" style="fill: none; stroke: #64748b; stroke-width: 0.65"/>
    <path d="M 1096.320781 351.328792
L 1157.981244 459.434789
" clip-path="url(#p26d755cbce)" style="fill: none; stroke: #64748b; stroke-width: 0.65"/>
    <path d="M 1077.362222 538.990993
L 1157.981244 459.434789
" clip-path="url(#p26d755cbce)" style="fill: none; stroke: #64748b; stroke-width: 0.65"/>
    <path d="M 1097.828432 461.279444
L 1157.981244 459.434789
" clip-path="url(#p26d755cbce)" style="fill: none; stroke: #64748b; stroke-width: 0.65"/>
    <path d="M 1217.397114 381.774217
L 1157.981244 459.434789
" clip-path="url(#p26d755cbce)" style="fill: none; stroke: #64748b; stroke-width: 0.65"/>
    <path d="M 1251.581032 558.406769
L 1157.981244 459.434789
" clip-path="url(#p26d755cbce)" style="fill: none; stroke: #64748b; stroke-width: 0.65"/>
    <path d="M 1167.272556 365.105873
L 1157.981244 459.434789
" clip-path="url(#p26d755cbce)" style="fill: none; stroke: #64748b; stroke-width: 0.65"/>
    <path d="M 1118.176773 419.061448
L 1157.981244 459.434789
" clip-path="url(#p26d755cbce)" style="fill: none; stroke: #64748b; stroke-width: 0.65"/>
    <path d="M 1141.546621 638.639077
L 1157.981244 459.434789
" clip-path="url(#p26d755cbce)" style="fill: none; stroke: #64748b; stroke-width: 0.65"/>
    <path d="M 1211.19134 618.82626
L 1157.981244 459.434789
" clip-path="url(#p26d755cbce)" style="fill: none; stroke: #64748b; stroke-width: 0.65"/>
    <path d="M 1227.440964 429.703428
L 1157.981244 459.434789
" clip-path="url(#p26d755cbce)" style="fill: none; stroke: #64748b; stroke-width: 0.65"/>
    <path d="M 1035.879103 563.754721
L 1157.981244 459.434789
" clip-path="url(#p26d755cbce)" style="fill: none; stroke: #64748b; stroke-width: 0.65"/>
    <path d="M 1265.07725 449.472875
L 1157.981244 459.434789
" clip-path="url(#p26d755cbce)" style="fill: none; stroke: #64748b; stroke-width: 0.65"/>
    <path d="M 1018.274621 458.029271
L 1157.981244 459.434789
" clip-path="url(#p26d755cbce)" style="fill: none; stroke: #64748b; stroke-width: 0.65"/>
    <path d="M 1027.324853 420.467679
L 1157.981244 459.434789
" clip-path="url(#p26d755cbce)" style="fill: none; stroke: #64748b; stroke-width: 0.65"/>
    <path d="M 1251.596365 491.77183
L 1157.981244 459.434789
" clip-path="url(#p26d755cbce)" style="fill: none; stroke: #64748b; stroke-width: 0.65"/>
    <path d="M 1028.164002 531.03073
L 1157.981244 459.434789
" clip-path="url(#p26d755cbce)" style="fill: none; stroke: #64748b; stroke-width: 0.65"/>
    <path d="M 1316.313223 461.213816
L 1157.981244 459.434789
" clip-path="url(#p26d755cbce)" style="fill: none; stroke: #64748b; stroke-width: 0.65"/>
    <path d="M 1141.582118 405.382705
L 1157.981244 459.434789
" clip-path="url(#p26d755cbce)" style="fill: none; stroke: #64748b; stroke-width: 0.65"/>
    <path d="M 1029.006416 495.794469
L 1198.38617 488.810342
" clip-path="url(#p26d755cbce)" style="fill: none; stroke: #64748b; stroke-width: 0.65"/>
    <path d="M 1059.210662 427.44035
L 1198.38617 488.810342
" clip-path="url(#p26d755cbce)" style="fill: none; stroke: #64748b; stroke-width: 0.65"/>
    <path d="M 1080.625715 587.544118
L 1198.38617 488.810342
" clip-path="url(#p26d755cbce)" style="fill: none; stroke: #64748b; stroke-width: 0.65"/>
    <path d="M 1077.362222 538.990993
L 1198.38617 488.810342
" clip-path="url(#p26d755cbce)" style="fill: none; stroke: #64748b; stroke-width: 0.65"/>
    <path d="M 1217.397114 381.774217
L 1198.38617 488.810342
" clip-path="url(#p26d755cbce)" style="fill: none; stroke: #64748b; stroke-width: 0.65"/>
    <path d="M 1251.581032 558.406769
L 1198.38617 488.810342
" clip-path="url(#p26d755cbce)" style="fill: none; stroke: #64748b; stroke-width: 0.65"/>
    <path d="M 1167.272556 365.105873
L 1198.38617 488.810342
" clip-path="url(#p26d755cbce)" style="fill: none; stroke: #64748b; stroke-width: 0.65"/>
    <path d="M 1251.596365 491.77183
L 1198.38617 488.810342
" clip-path="url(#p26d755cbce)" style="fill: none; stroke: #64748b; stroke-width: 0.65"/>
    <path d="M 1316.313223 461.213816
L 1198.38617 488.810342
" clip-path="url(#p26d755cbce)" style="fill: none; stroke: #64748b; stroke-width: 0.65"/>
    <path d="M 1118.176773 419.061448
L 1198.38617 488.810342
" clip-path="url(#p26d755cbce)" style="fill: none; stroke: #64748b; stroke-width: 0.65"/>
    <path d="M 1141.582118 405.382705
L 1198.38617 488.810342
" clip-path="url(#p26d755cbce)" style="fill: none; stroke: #64748b; stroke-width: 0.65"/>
    <path d="M 1250.531369 617.105992
L 1198.38617 488.810342
" clip-path="url(#p26d755cbce)" style="fill: none; stroke: #64748b; stroke-width: 0.65"/>
    <path d="M 1269.269907 529.481626
L 1198.38617 488.810342
" clip-path="url(#p26d755cbce)" style="fill: none; stroke: #64748b; stroke-width: 0.65"/>
    <path d="M 1211.19134 618.82626
L 1198.38617 488.810342
" clip-path="url(#p26d755cbce)" style="fill: none; stroke: #64748b; stroke-width: 0.65"/>
    <path d="M 1310.687409 516.613716
L 1214.861872 547.783886
" clip-path="url(#p26d755cbce)" style="fill: none; stroke: #64748b; stroke-width: 0.65"/>
    <path d="M 1081.257101 395.210871
L 1214.861872 547.783886
" clip-path="url(#p26d755cbce)" style="fill: none; stroke: #64748b; stroke-width: 0.65"/>
    <path d="M 1080.625715 587.544118
L 1214.861872 547.783886
" clip-path="url(#p26d755cbce)" style="fill: none; stroke: #64748b; stroke-width: 0.65"/>
    <path d="M 1077.362222 538.990993
L 1214.861872 547.783886
" clip-path="url(#p26d755cbce)" style="fill: none; stroke: #64748b; stroke-width: 0.65"/>
    <path d="M 1097.828432 461.279444
L 1214.861872 547.783886
" clip-path="url(#p26d755cbce)" style="fill: none; stroke: #64748b; stroke-width: 0.65"/>
    <path d="M 1251.581032 558.406769
L 1214.861872 547.783886
" clip-path="url(#p26d755cbce)" style="fill: none; stroke: #64748b; stroke-width: 0.65"/>
    <path d="M 1316.313223 461.213816
L 1214.861872 547.783886
" clip-path="url(#p26d755cbce)" style="fill: none; stroke: #64748b; stroke-width: 0.65"/>
    <path d="M 1118.176773 419.061448
L 1214.861872 547.783886
" clip-path="url(#p26d755cbce)" style="fill: none; stroke: #64748b; stroke-width: 0.65"/>
    <path d="M 1141.582118 405.382705
L 1214.861872 547.783886
" clip-path="url(#p26d755cbce)" style="fill: none; stroke: #64748b; stroke-width: 0.65"/>
    <path d="M 1250.531369 617.105992
L 1214.861872 547.783886
" clip-path="url(#p26d755cbce)" style="fill: none; stroke: #64748b; stroke-width: 0.65"/>
    <path d="M 1269.269907 529.481626
L 1214.861872 547.783886
" clip-path="url(#p26d755cbce)" style="fill: none; stroke: #64748b; stroke-width: 0.65"/>
    <path d="M 1211.19134 618.82626
L 1214.861872 547.783886
" clip-path="url(#p26d755cbce)" style="fill: none; stroke: #64748b; stroke-width: 0.65"/>
    <path d="M 1227.440964 429.703428
L 1214.861872 547.783886
" clip-path="url(#p26d755cbce)" style="fill: none; stroke: #64748b; stroke-width: 0.65"/>
    <path d="M 1180.427804 652.6732
L 1214.861872 547.783886
" clip-path="url(#p26d755cbce)" style="fill: none; stroke: #64748b; stroke-width: 0.65"/>
    <path d="M 1310.687409 516.613716
L 1285.942432 388.980259
" clip-path="url(#p26d755cbce)" style="fill: none; stroke: #64748b; stroke-width: 0.65"/>
    <path d="M 1096.320781 351.328792
L 1285.942432 388.980259
" clip-path="url(#p26d755cbce)" style="fill: none; stroke: #64748b; stroke-width: 0.65"/>
    <path d="M 1097.828432 461.279444
L 1285.942432 388.980259
" clip-path="url(#p26d755cbce)" style="fill: none; stroke: #64748b; stroke-width: 0.65"/>
    <path d="M 1251.596365 491.77183
L 1285.942432 388.980259
" clip-path="url(#p26d755cbce)" style="fill: none; stroke: #64748b; stroke-width: 0.65"/>
    <path d="M 1264.197967 345.172397
L 1285.942432 388.980259
" clip-path="url(#p26d755cbce)" style="fill: none; stroke: #64748b; stroke-width: 0.65"/>
    <path d="M 1217.397114 381.774217
L 1285.942432 388.980259
" clip-path="url(#p26d755cbce)" style="fill: none; stroke: #64748b; stroke-width: 0.65"/>
    <path d="M 1251.581032 558.406769
L 1285.942432 388.980259
" clip-path="url(#p26d755cbce)" style="fill: none; stroke: #64748b; stroke-width: 0.65"/>
    <path d="M 1316.313223 461.213816
L 1285.942432 388.980259
" clip-path="url(#p26d755cbce)" style="fill: none; stroke: #64748b; stroke-width: 0.65"/>
    <path d="M 1118.176773 419.061448
L 1285.942432 388.980259
" clip-path="url(#p26d755cbce)" style="fill: none; stroke: #64748b; stroke-width: 0.65"/>
    <path d="M 1141.582118 405.382705
L 1285.942432 388.980259
" clip-path="url(#p26d755cbce)" style="fill: none; stroke: #64748b; stroke-width: 0.65"/>
    <path d="M 1269.269907 529.481626
L 1285.942432 388.980259
" clip-path="url(#p26d755cbce)" style="fill: none; stroke: #64748b; stroke-width: 0.65"/>
    <path d="M 1265.07725 449.472875
L 1285.942432 388.980259
" clip-path="url(#p26d755cbce)" style="fill: none; stroke: #64748b; stroke-width: 0.65"/>
    <path d="M 1081.257101 395.210871
L 1153.701826 504.054646
" clip-path="url(#p26d755cbce)" style="fill: none; stroke: #64748b; stroke-width: 0.65"/>
    <path d="M 1096.320781 351.328792
L 1153.701826 504.054646
" clip-path="url(#p26d755cbce)" style="fill: none; stroke: #64748b; stroke-width: 0.65"/>
    <path d="M 1077.362222 538.990993
L 1153.701826 504.054646
" clip-path="url(#p26d755cbce)" style="fill: none; stroke: #64748b; stroke-width: 0.65"/>
    <path d="M 1097.828432 461.279444
L 1153.701826 504.054646
" clip-path="url(#p26d755cbce)" style="fill: none; stroke: #64748b; stroke-width: 0.65"/>
    <path d="M 1080.625715 587.544118
L 1153.701826 504.054646
" clip-path="url(#p26d755cbce)" style="fill: none; stroke: #64748b; stroke-width: 0.65"/>
    <path d="M 1217.397114 381.774217
L 1153.701826 504.054646
" clip-path="url(#p26d755cbce)" style="fill: none; stroke: #64748b; stroke-width: 0.65"/>
    <path d="M 1264.197967 345.172397
L 1153.701826 504.054646
" clip-path="url(#p26d755cbce)" style="fill: none; stroke: #64748b; stroke-width: 0.65"/>
    <path d="M 1251.581032 558.406769
L 1153.701826 504.054646
" clip-path="url(#p26d755cbce)" style="fill: none; stroke: #64748b; stroke-width: 0.65"/>
    <path d="M 1167.272556 365.105873
L 1153.701826 504.054646
" clip-path="url(#p26d755cbce)" style="fill: none; stroke: #64748b; stroke-width: 0.65"/>
    <path d="M 1118.176773 419.061448
L 1153.701826 504.054646
" clip-path="url(#p26d755cbce)" style="fill: none; stroke: #64748b; stroke-width: 0.65"/>
    <path d="M 1141.546621 638.639077
L 1153.701826 504.054646
" clip-path="url(#p26d755cbce)" style="fill: none; stroke: #64748b; stroke-width: 0.65"/>
    <path d="M 1211.19134 618.82626
L 1153.701826 504.054646
" clip-path="url(#p26d755cbce)" style="fill: none; stroke: #64748b; stroke-width: 0.65"/>
    <path d="M 1227.440964 429.703428
L 1153.701826 504.054646
" clip-path="url(#p26d755cbce)" style="fill: none; stroke: #64748b; stroke-width: 0.65"/>
    <path d="M 1311.942446 617.588073
L 1153.701826 504.054646
" clip-path="url(#p26d755cbce)" style="fill: none; stroke: #64748b; stroke-width: 0.65"/>
    <path d="M 1035.879103 563.754721
L 1153.701826 504.054646
" clip-path="url(#p26d755cbce)" style="fill: none; stroke: #64748b; stroke-width: 0.65"/>
    <path d="M 1265.07725 449.472875
L 1153.701826 504.054646
" clip-path="url(#p26d755cbce)" style="fill: none; stroke: #64748b; stroke-width: 0.65"/>
    <path d="M 1018.274621 458.029271
L 1153.701826 504.054646
" clip-path="url(#p26d755cbce)" style="fill: none; stroke: #64748b; stroke-width: 0.65"/>
    <path d="M 972.416411 557.458476
L 1153.701826 504.054646
" clip-path="url(#p26d755cbce)" style="fill: none; stroke: #64748b; stroke-width: 0.65"/>
    <path d="M 1310.687409 516.613716
L 1153.701826 504.054646
" clip-path="url(#p26d755cbce)" style="fill: none; stroke: #64748b; stroke-width: 0.65"/>
    <path d="M 1027.324853 420.467679
L 1153.701826 504.054646
" clip-path="url(#p26d755cbce)" style="fill: none; stroke: #64748b; stroke-width: 0.65"/>
    <path d="M 1029.006416 495.794469
L 1153.701826 504.054646
" clip-path="url(#p26d755cbce)" style="fill: none; stroke: #64748b; stroke-width: 0.65"/>
    <path d="M 1059.210662 427.44035
L 1153.701826 504.054646
" clip-path="url(#p26d755cbce)" style="fill: none; stroke: #64748b; stroke-width: 0.65"/>
    <path d="M 1251.596365 491.77183
L 1153.701826 504.054646
" clip-path="url(#p26d755cbce)" style="fill: none; stroke: #64748b; stroke-width: 0.65"/>
    <path d="M 1024.666881 598.068818
L 1153.701826 504.054646
" clip-path="url(#p26d755cbce)" style="fill: none; stroke: #64748b; stroke-width: 0.65"/>
    <path d="M 1028.164002 531.03073
L 1153.701826 504.054646
" clip-path="url(#p26d755cbce)" style="fill: none; stroke: #64748b; stroke-width: 0.65"/>
    <path d="M 1316.313223 461.213816
L 1153.701826 504.054646
" clip-path="url(#p26d755cbce)" style="fill: none; stroke: #64748b; stroke-width: 0.65"/>
    <path d="M 1141.582118 405.382705
L 1153.701826 504.054646
" clip-path="url(#p26d755cbce)" style="fill: none; stroke: #64748b; stroke-width: 0.65"/>
    <path d="M 1250.531369 617.105992
L 1153.701826 504.054646
" clip-path="url(#p26d755cbce)" style="fill: none; stroke: #64748b; stroke-width: 0.65"/>
    <path d="M 1269.269907 529.481626
L 1153.701826 504.054646
" clip-path="url(#p26d755cbce)" style="fill: none; stroke: #64748b; stroke-width: 0.65"/>
    <path d="M 1099.163848 655.744502
L 1153.701826 504.054646
" clip-path="url(#p26d755cbce)" style="fill: none; stroke: #64748b; stroke-width: 0.65"/>
    <path d="M 1180.427804 652.6732
L 1153.701826 504.054646
" clip-path="url(#p26d755cbce)" style="fill: none; stroke: #64748b; stroke-width: 0.65"/>
    <path d="M 1081.257101 395.210871
L 1154.011325 574.214434
" clip-path="url(#p26d755cbce)" style="fill: none; stroke: #64748b; stroke-width: 0.65"/>
    <path d="M 1080.625715 587.544118
L 1154.011325 574.214434
" clip-path="url(#p26d755cbce)" style="fill: none; stroke: #64748b; stroke-width: 0.65"/>
    <path d="M 1077.362222 538.990993
L 1154.011325 574.214434
" clip-path="url(#p26d755cbce)" style="fill: none; stroke: #64748b; stroke-width: 0.65"/>
    <path d="M 1097.828432 461.279444
L 1154.011325 574.214434
" clip-path="url(#p26d755cbce)" style="fill: none; stroke: #64748b; stroke-width: 0.65"/>
    <path d="M 1251.596365 491.77183
L 1154.011325 574.214434
" clip-path="url(#p26d755cbce)" style="fill: none; stroke: #64748b; stroke-width: 0.65"/>
    <path d="M 1251.581032 558.406769
L 1154.011325 574.214434
" clip-path="url(#p26d755cbce)" style="fill: none; stroke: #64748b; stroke-width: 0.65"/>
    <path d="M 1028.164002 531.03073
L 1154.011325 574.214434
" clip-path="url(#p26d755cbce)" style="fill: none; stroke: #64748b; stroke-width: 0.65"/>
    <path d="M 1118.176773 419.061448
L 1154.011325 574.214434
" clip-path="url(#p26d755cbce)" style="fill: none; stroke: #64748b; stroke-width: 0.65"/>
    <path d="M 1269.269907 529.481626
L 1154.011325 574.214434
" clip-path="url(#p26d755cbce)" style="fill: none; stroke: #64748b; stroke-width: 0.65"/>
    <path d="M 1141.582118 405.382705
L 1154.011325 574.214434
" clip-path="url(#p26d755cbce)" style="fill: none; stroke: #64748b; stroke-width: 0.65"/>
    <path d="M 1141.546621 638.639077
L 1154.011325 574.214434
" clip-path="url(#p26d755cbce)" style="fill: none; stroke: #64748b; stroke-width: 0.65"/>
    <path d="M 1211.19134 618.82626
L 1154.011325 574.214434
" clip-path="url(#p26d755cbce)" style="fill: none; stroke: #64748b; stroke-width: 0.65"/>
    <path d="M 1180.427804 652.6732
L 1154.011325 574.214434
" clip-path="url(#p26d755cbce)" style="fill: none; stroke: #64748b; stroke-width: 0.65"/>
    <path d="M 1081.257101 395.210871
L 972.002216 459.306767
" clip-path="url(#p26d755cbce)" style="fill: none; stroke: #64748b; stroke-width: 0.65"/>
    <path d="M 782.264164 358.364884
L 972.002216 459.306767
" clip-path="url(#p26d755cbce)" style="fill: none; stroke: #64748b; stroke-width: 0.65"/>
    <path d="M 1096.320781 351.328792
L 972.002216 459.306767
" clip-path="url(#p26d755cbce)" style="fill: none; stroke: #64748b; stroke-width: 0.65"/>
    <path d="M 1080.625715 587.544118
L 972.002216 459.306767
" clip-path="url(#p26d755cbce)" style="fill: none; stroke: #64748b; stroke-width: 0.65"/>
    <path d="M 1077.362222 538.990993
L 972.002216 459.306767
" clip-path="url(#p26d755cbce)" style="fill: none; stroke: #64748b; stroke-width: 0.65"/>
    <path d="M 1097.828432 461.279444
L 972.002216 459.306767
" clip-path="url(#p26d755cbce)" style="fill: none; stroke: #64748b; stroke-width: 0.65"/>
    <path d="M 1118.176773 419.061448
L 972.002216 459.306767
" clip-path="url(#p26d755cbce)" style="fill: none; stroke: #64748b; stroke-width: 0.65"/>
    <path d="M 1035.879103 563.754721
L 972.002216 459.306767
" clip-path="url(#p26d755cbce)" style="fill: none; stroke: #64748b; stroke-width: 0.65"/>
    <path d="M 874.36546 506.969883
L 972.002216 459.306767
" clip-path="url(#p26d755cbce)" style="fill: none; stroke: #64748b; stroke-width: 0.65"/>
    <path d="M 972.416411 557.458476
L 972.002216 459.306767
" clip-path="url(#p26d755cbce)" style="fill: none; stroke: #64748b; stroke-width: 0.65"/>
    <path d="M 1027.324853 420.467679
L 972.002216 459.306767
" clip-path="url(#p26d755cbce)" style="fill: none; stroke: #64748b; stroke-width: 0.65"/>
    <path d="M 1029.006416 495.794469
L 972.002216 459.306767
" clip-path="url(#p26d755cbce)" style="fill: none; stroke: #64748b; stroke-width: 0.65"/>
    <path d="M 1059.210662 427.44035
L 972.002216 459.306767
" clip-path="url(#p26d755cbce)" style="fill: none; stroke: #64748b; stroke-width: 0.65"/>
    <path d="M 1024.666881 598.068818
L 972.002216 459.306767
" clip-path="url(#p26d755cbce)" style="fill: none; stroke: #64748b; stroke-width: 0.65"/>
    <path d="M 1028.164002 531.03073
L 972.002216 459.306767
" clip-path="url(#p26d755cbce)" style="fill: none; stroke: #64748b; stroke-width: 0.65"/>
    <path d="M 755.486777 448.643742
L 972.002216 459.306767
" clip-path="url(#p26d755cbce)" style="fill: none; stroke: #64748b; stroke-width: 0.65"/>
    <path d="M 1141.582118 405.382705
L 972.002216 459.306767
" clip-path="url(#p26d755cbce)" style="fill: none; stroke: #64748b; stroke-width: 0.65"/>
    <path d="M 1081.257101 395.210871
L 1108.753744 192.015498
" clip-path="url(#p26d755cbce)" style="fill: none; stroke: #64748b; stroke-width: 0.65"/>
    <path d="M 1167.272556 365.105873
L 1108.753744 192.015498
" clip-path="url(#p26d755cbce)" style="fill: none; stroke: #64748b; stroke-width: 0.65"/>
    <path d="M 1141.582118 405.382705
L 1108.753744 192.015498
" clip-path="url(#p26d755cbce)" style="fill: none; stroke: #64748b; stroke-width: 0.65"/>
    <path d="M 1118.176773 419.061448
L 1108.753744 192.015498
" clip-path="url(#p26d755cbce)" style="fill: none; stroke: #64748b; stroke-width: 0.65"/>
    <path d="M 1077.362222 538.990993
L 1136.315008 534.198829
" clip-path="url(#p26d755cbce)" style="fill: none; stroke: #64748b; stroke-width: 0.65"/>
    <path d="M 1097.828432 461.279444
L 1136.315008 534.198829
" clip-path="url(#p26d755cbce)" style="fill: none; stroke: #64748b; stroke-width: 0.65"/>
    <path d="M 1080.625715 587.544118
L 1136.315008 534.198829
" clip-path="url(#p26d755cbce)" style="fill: none; stroke: #64748b; stroke-width: 0.65"/>
    <path d="M 1251.581032 558.406769
L 1136.315008 534.198829
" clip-path="url(#p26d755cbce)" style="fill: none; stroke: #64748b; stroke-width: 0.65"/>
    <path d="M 1167.272556 365.105873
L 1136.315008 534.198829
" clip-path="url(#p26d755cbce)" style="fill: none; stroke: #64748b; stroke-width: 0.65"/>
    <path d="M 1118.176773 419.061448
L 1136.315008 534.198829
" clip-path="url(#p26d755cbce)" style="fill: none; stroke: #64748b; stroke-width: 0.65"/>
    <path d="M 1211.19134 618.82626
L 1136.315008 534.198829
" clip-path="url(#p26d755cbce)" style="fill: none; stroke: #64748b; stroke-width: 0.65"/>
    <path d="M 1227.440964 429.703428
L 1136.315008 534.198829
" clip-path="url(#p26d755cbce)" style="fill: none; stroke: #64748b; stroke-width: 0.65"/>
    <path d="M 1035.879103 563.754721
L 1136.315008 534.198829
" clip-path="url(#p26d755cbce)" style="fill: none; stroke: #64748b; stroke-width: 0.65"/>
    <path d="M 1265.07725 449.472875
L 1136.315008 534.198829
" clip-path="url(#p26d755cbce)" style="fill: none; stroke: #64748b; stroke-width: 0.65"/>
    <path d="M 1027.324853 420.467679
L 1136.315008 534.198829
" clip-path="url(#p26d755cbce)" style="fill: none; stroke: #64748b; stroke-width: 0.65"/>
    <path d="M 1029.006416 495.794469
L 1136.315008 534.198829
" clip-path="url(#p26d755cbce)" style="fill: none; stroke: #64748b; stroke-width: 0.65"/>
    <path d="M 1059.210662 427.44035
L 1136.315008 534.198829
" clip-path="url(#p26d755cbce)" style="fill: none; stroke: #64748b; stroke-width: 0.65"/>
    <path d="M 1251.596365 491.77183
L 1136.315008 534.198829
" clip-path="url(#p26d755cbce)" style="fill: none; stroke: #64748b; stroke-width: 0.65"/>
    <path d="M 1024.666881 598.068818
L 1136.315008 534.198829
" clip-path="url(#p26d755cbce)" style="fill: none; stroke: #64748b; stroke-width: 0.65"/>
    <path d="M 1028.164002 531.03073
L 1136.315008 534.198829
" clip-path="url(#p26d755cbce)" style="fill: none; stroke: #64748b; stroke-width: 0.65"/>
    <path d="M 1141.582118 405.382705
L 1136.315008 534.198829
" clip-path="url(#p26d755cbce)" style="fill: none; stroke: #64748b; stroke-width: 0.65"/>
    <path d="M 1269.269907 529.481626
L 1136.315008 534.198829
" clip-path="url(#p26d755cbce)" style="fill: none; stroke: #64748b; stroke-width: 0.65"/>
    <path d="M 1099.163848 655.744502
L 1136.315008 534.198829
" clip-path="url(#p26d755cbce)" style="fill: none; stroke: #64748b; stroke-width: 0.65"/>
    <path d="M 1180.427804 652.6732
L 1136.315008 534.198829
" clip-path="url(#p26d755cbce)" style="fill: none; stroke: #64748b; stroke-width: 0.65"/>
    <path d="M 1081.257101 395.210871
L 1125.590172 507.999136
" clip-path="url(#p26d755cbce)" style="fill: none; stroke: #64748b; stroke-width: 0.65"/>
    <path d="M 1077.362222 538.990993
L 1125.590172 507.999136
" clip-path="url(#p26d755cbce)" style="fill: none; stroke: #64748b; stroke-width: 0.65"/>
    <path d="M 1097.828432 461.279444
L 1125.590172 507.999136
" clip-path="url(#p26d755cbce)" style="fill: none; stroke: #64748b; stroke-width: 0.65"/>
    <path d="M 1080.625715 587.544118
L 1125.590172 507.999136
" clip-path="url(#p26d755cbce)" style="fill: none; stroke: #64748b; stroke-width: 0.65"/>
    <path d="M 1217.397114 381.774217
L 1125.590172 507.999136
" clip-path="url(#p26d755cbce)" style="fill: none; stroke: #64748b; stroke-width: 0.65"/>
    <path d="M 1251.581032 558.406769
L 1125.590172 507.999136
" clip-path="url(#p26d755cbce)" style="fill: none; stroke: #64748b; stroke-width: 0.65"/>
    <path d="M 1167.272556 365.105873
L 1125.590172 507.999136
" clip-path="url(#p26d755cbce)" style="fill: none; stroke: #64748b; stroke-width: 0.65"/>
    <path d="M 1118.176773 419.061448
L 1125.590172 507.999136
" clip-path="url(#p26d755cbce)" style="fill: none; stroke: #64748b; stroke-width: 0.65"/>
    <path d="M 1141.546621 638.639077
L 1125.590172 507.999136
" clip-path="url(#p26d755cbce)" style="fill: none; stroke: #64748b; stroke-width: 0.65"/>
    <path d="M 1227.440964 429.703428
L 1125.590172 507.999136
" clip-path="url(#p26d755cbce)" style="fill: none; stroke: #64748b; stroke-width: 0.65"/>
    <path d="M 1035.879103 563.754721
L 1125.590172 507.999136
" clip-path="url(#p26d755cbce)" style="fill: none; stroke: #64748b; stroke-width: 0.65"/>
    <path d="M 1265.07725 449.472875
L 1125.590172 507.999136
" clip-path="url(#p26d755cbce)" style="fill: none; stroke: #64748b; stroke-width: 0.65"/>
    <path d="M 874.36546 506.969883
L 1125.590172 507.999136
" clip-path="url(#p26d755cbce)" style="fill: none; stroke: #64748b; stroke-width: 0.65"/>
    <path d="M 1018.274621 458.029271
L 1125.590172 507.999136
" clip-path="url(#p26d755cbce)" style="fill: none; stroke: #64748b; stroke-width: 0.65"/>
    <path d="M 1310.687409 516.613716
L 1125.590172 507.999136
" clip-path="url(#p26d755cbce)" style="fill: none; stroke: #64748b; stroke-width: 0.65"/>
    <path d="M 1027.324853 420.467679
L 1125.590172 507.999136
" clip-path="url(#p26d755cbce)" style="fill: none; stroke: #64748b; stroke-width: 0.65"/>
    <path d="M 1059.210662 427.44035
L 1125.590172 507.999136
" clip-path="url(#p26d755cbce)" style="fill: none; stroke: #64748b; stroke-width: 0.65"/>
    <path d="M 1251.596365 491.77183
L 1125.590172 507.999136
" clip-path="url(#p26d755cbce)" style="fill: none; stroke: #64748b; stroke-width: 0.65"/>
    <path d="M 1024.666881 598.068818
L 1125.590172 507.999136
" clip-path="url(#p26d755cbce)" style="fill: none; stroke: #64748b; stroke-width: 0.65"/>
    <path d="M 1028.164002 531.03073
L 1125.590172 507.999136
" clip-path="url(#p26d755cbce)" style="fill: none; stroke: #64748b; stroke-width: 0.65"/>
    <path d="M 1141.582118 405.382705
L 1125.590172 507.999136
" clip-path="url(#p26d755cbce)" style="fill: none; stroke: #64748b; stroke-width: 0.65"/>
    <path d="M 1250.531369 617.105992
L 1125.590172 507.999136
" clip-path="url(#p26d755cbce)" style="fill: none; stroke: #64748b; stroke-width: 0.65"/>
    <path d="M 1269.269907 529.481626
L 1125.590172 507.999136
" clip-path="url(#p26d755cbce)" style="fill: none; stroke: #64748b; stroke-width: 0.65"/>
    <path d="M 1099.163848 655.744502
L 1125.590172 507.999136
" clip-path="url(#p26d755cbce)" style="fill: none; stroke: #64748b; stroke-width: 0.65"/>
    <path d="M 1180.427804 652.6732
L 1125.590172 507.999136
" clip-path="url(#p26d755cbce)" style="fill: none; stroke: #64748b; stroke-width: 0.65"/>
   </g>
   <g id="PathCollection_2">
    <defs>
     <path id="m7e11591f4b" d="M -6.5 6.5
L 6.5 6.5
L 6.5 -6.5
L -6.5 -6.5
z
" style="stroke: #334155; stroke-width: 0.8"/>
    </defs>
    <g clip-path="url(#p26d755cbce)">
     <use xlink:href="#m7e11591f4b" x="1136.315008" y="534.198829" style="fill: #f59e0b; stroke: #334155; stroke-width: 0.8"/>
     <use xlink:href="#m7e11591f4b" x="1198.38617" y="488.810342" style="fill: #f59e0b; stroke: #334155; stroke-width: 0.8"/>
     <use xlink:href="#m7e11591f4b" x="1157.981244" y="459.434789" style="fill: #f59e0b; stroke: #334155; stroke-width: 0.8"/>
     <use xlink:href="#m7e11591f4b" x="1153.701826" y="504.054646" style="fill: #f59e0b; stroke: #334155; stroke-width: 0.8"/>
     <use xlink:href="#m7e11591f4b" x="1154.011325" y="574.214434" style="fill: #f59e0b; stroke: #334155; stroke-width: 0.8"/>
     <use xlink:href="#m7e11591f4b" x="1214.861872" y="547.783886" style="fill: #f59e0b; stroke: #334155; stroke-width: 0.8"/>
     <use xlink:href="#m7e11591f4b" x="1285.942432" y="388.980259" style="fill: #f59e0b; stroke: #334155; stroke-width: 0.8"/>
     <use xlink:href="#m7e11591f4b" x="1125.590172" y="507.999136" style="fill: #f59e0b; stroke: #334155; stroke-width: 0.8"/>
     <use xlink:href="#m7e11591f4b" x="972.002216" y="459.306767" style="fill: #f59e0b; stroke: #334155; stroke-width: 0.8"/>
     <use xlink:href="#m7e11591f4b" x="1108.753744" y="192.015498" style="fill: #f59e0b; stroke: #334155; stroke-width: 0.8"/>
    </g>
   </g>
   <g id="PathCollection_3">
    <defs>
     <path id="md867d47734" d="M 0 5
C 1.326016 5 2.597899 4.473168 3.535534 3.535534
C 4.473168 2.597899 5 1.326016 5 0
C 5 -1.326016 4.473168 -2.597899 3.535534 -3.535534
C 2.597899 -4.473168 1.326016 -5 0 -5
C -1.326016 -5 -2.597899 -4.473168 -3.535534 -3.535534
C -4.473168 -2.597899 -5 -1.326016 -5 0
C -5 1.326016 -4.473168 2.597899 -3.535534 3.535534
C -2.597899 4.473168 -1.326016 5 0 5
z
" style="stroke: #334155; stroke-width: 0.8"/>
    </defs>
    <g clip-path="url(#p26d755cbce)">
     <use xlink:href="#md867d47734" x="1211.19134" y="618.82626" style="fill: #38bdf8; stroke: #334155; stroke-width: 0.8"/>
     <use xlink:href="#md867d47734" x="1217.397114" y="381.774217" style="fill: #38bdf8; stroke: #334155; stroke-width: 0.8"/>
     <use xlink:href="#md867d47734" x="1227.440964" y="429.703428" style="fill: #38bdf8; stroke: #334155; stroke-width: 0.8"/>
     <use xlink:href="#md867d47734" x="1096.320781" y="351.328792" style="fill: #38bdf8; stroke: #334155; stroke-width: 0.8"/>
     <use xlink:href="#md867d47734" x="1081.257101" y="395.210871" style="fill: #38bdf8; stroke: #334155; stroke-width: 0.8"/>
     <use xlink:href="#md867d47734" x="1141.546621" y="638.639077" style="fill: #38bdf8; stroke: #334155; stroke-width: 0.8"/>
     <use xlink:href="#md867d47734" x="1265.07725" y="449.472875" style="fill: #38bdf8; stroke: #334155; stroke-width: 0.8"/>
     <use xlink:href="#md867d47734" x="1251.581032" y="558.406769" style="fill: #38bdf8; stroke: #334155; stroke-width: 0.8"/>
     <use xlink:href="#md867d47734" x="1141.582118" y="405.382705" style="fill: #38bdf8; stroke: #334155; stroke-width: 0.8"/>
     <use xlink:href="#md867d47734" x="1077.362222" y="538.990993" style="fill: #38bdf8; stroke: #334155; stroke-width: 0.8"/>
     <use xlink:href="#md867d47734" x="1028.164002" y="531.03073" style="fill: #38bdf8; stroke: #334155; stroke-width: 0.8"/>
     <use xlink:href="#md867d47734" x="1097.828432" y="461.279444" style="fill: #38bdf8; stroke: #334155; stroke-width: 0.8"/>
     <use xlink:href="#md867d47734" x="1018.274621" y="458.029271" style="fill: #38bdf8; stroke: #334155; stroke-width: 0.8"/>
     <use xlink:href="#md867d47734" x="1118.176773" y="419.061448" style="fill: #38bdf8; stroke: #334155; stroke-width: 0.8"/>
     <use xlink:href="#md867d47734" x="1035.879103" y="563.754721" style="fill: #38bdf8; stroke: #334155; stroke-width: 0.8"/>
     <use xlink:href="#md867d47734" x="1167.272556" y="365.105873" style="fill: #38bdf8; stroke: #334155; stroke-width: 0.8"/>
     <use xlink:href="#md867d47734" x="1316.313223" y="461.213816" style="fill: #38bdf8; stroke: #334155; stroke-width: 0.8"/>
     <use xlink:href="#md867d47734" x="1027.324853" y="420.467679" style="fill: #38bdf8; stroke: #334155; stroke-width: 0.8"/>
     <use xlink:href="#md867d47734" x="1251.596365" y="491.77183" style="fill: #38bdf8; stroke: #334155; stroke-width: 0.8"/>
     <use xlink:href="#md867d47734" x="1059.210662" y="427.44035" style="fill: #38bdf8; stroke: #334155; stroke-width: 0.8"/>
     <use xlink:href="#md867d47734" x="1029.006416" y="495.794469" style="fill: #38bdf8; stroke: #334155; stroke-width: 0.8"/>
     <use xlink:href="#md867d47734" x="1250.531369" y="617.105992" style="fill: #38bdf8; stroke: #334155; stroke-width: 0.8"/>
     <use xlink:href="#md867d47734" x="1080.625715" y="587.544118" style="fill: #38bdf8; stroke: #334155; stroke-width: 0.8"/>
     <use xlink:href="#md867d47734" x="1269.269907" y="529.481626" style="fill: #38bdf8; stroke: #334155; stroke-width: 0.8"/>
     <use xlink:href="#md867d47734" x="1310.687409" y="516.613716" style="fill: #38bdf8; stroke: #334155; stroke-width: 0.8"/>
     <use xlink:href="#md867d47734" x="1180.427804" y="652.6732" style="fill: #38bdf8; stroke: #334155; stroke-width: 0.8"/>
     <use xlink:href="#md867d47734" x="1264.197967" y="345.172397" style="fill: #38bdf8; stroke: #334155; stroke-width: 0.8"/>
     <use xlink:href="#md867d47734" x="1024.666881" y="598.068818" style="fill: #38bdf8; stroke: #334155; stroke-width: 0.8"/>
     <use xlink:href="#md867d47734" x="972.416411" y="557.458476" style="fill: #38bdf8; stroke: #334155; stroke-width: 0.8"/>
     <use xlink:href="#md867d47734" x="1099.163848" y="655.744502" style="fill: #38bdf8; stroke: #334155; stroke-width: 0.8"/>
     <use xlink:href="#md867d47734" x="1311.942446" y="617.588073" style="fill: #38bdf8; stroke: #334155; stroke-width: 0.8"/>
     <use xlink:href="#md867d47734" x="874.36546" y="506.969883" style="fill: #38bdf8; stroke: #334155; stroke-width: 0.8"/>
     <use xlink:href="#md867d47734" x="782.264164" y="358.364884" style="fill: #38bdf8; stroke: #334155; stroke-width: 0.8"/>
     <use xlink:href="#md867d47734" x="755.486777" y="448.643742" style="fill: #38bdf8; stroke: #334155; stroke-width: 0.8"/>
    </g>
   </g>
   <g id="text_18">
    <text style="font-weight: 700; font-size: 15px; font-family: 'DejaVu Sans'; text-anchor: start; fill: #111827" x="696.6" y="108.72" transform="rotate(-0 696.6 108.72)">XGI bipartite incidence view</text>
   </g>
   <g id="text_19">
    <g clip-path="url(#p26d755cbce)">
     <text style="font-size: 7.6px; font-family: 'DejaVu Sans', 'Bitstream Vera Sans', 'Computer Modern Sans Serif', 'Lucida Grande', 'Verdana', 'Geneva', 'Lucid', 'Arial', 'Helvetica', 'Avant Garde', sans-serif; text-anchor: middle; fill: #111827" x="1153.701826" y="506.151771" transform="rotate(-0 1153.701826 506.151771)">ODYSSEUS</text>
    </g>
   </g>
   <g id="text_20">
    <g clip-path="url(#p26d755cbce)">
     <text style="font-size: 7.6px; font-family: 'DejaVu Sans', 'Bitstream Vera Sans', 'Computer Modern Sans Serif', 'Lucida Grande', 'Verdana', 'Geneva', 'Lucid', 'Arial', 'Helvetica', 'Avant Garde', sans-serif; text-anchor: middle; fill: #111827" x="972.002216" y="461.403892" transform="rotate(-0 972.002216 461.403892)">SEA</text>
    </g>
   </g>
   <g id="text_21">
    <g clip-path="url(#p26d755cbce)">
     <text style="font-size: 7.6px; font-family: 'DejaVu Sans', 'Bitstream Vera Sans', 'Computer Modern Sans Serif', 'Lucida Grande', 'Verdana', 'Geneva', 'Lucid', 'Arial', 'Helvetica', 'Avant Garde', sans-serif; text-anchor: middle; fill: #111827" x="1125.590172" y="510.096261" transform="rotate(-0 1125.590172 510.096261)">ZEUS</text>
    </g>
   </g>
   <g id="text_22">
    <g clip-path="url(#p26d755cbce)">
     <text style="font-size: 7.6px; font-family: 'DejaVu Sans', 'Bitstream Vera Sans', 'Computer Modern Sans Serif', 'Lucida Grande', 'Verdana', 'Geneva', 'Lucid', 'Arial', 'Helvetica', 'Avant Garde', sans-serif; text-anchor: middle; fill: #111827" x="1198.38617" y="490.734686" transform="rotate(-0 1198.38617 490.734686)">GENERIC_MAN</text>
    </g>
   </g>
   <g id="text_23">
    <g clip-path="url(#p26d755cbce)">
     <text style="font-size: 7.6px; font-family: 'DejaVu Sans', 'Bitstream Vera Sans', 'Computer Modern Sans Serif', 'Lucida Grande', 'Verdana', 'Geneva', 'Lucid', 'Arial', 'Helvetica', 'Avant Garde', sans-serif; text-anchor: middle; fill: #111827" x="1136.315008" y="536.295954" transform="rotate(-0 1136.315008 536.295954)">TELEMACHUS</text>
    </g>
   </g>
   <g id="text_24">
    <g clip-path="url(#p26d755cbce)">
     <text style="font-size: 7.6px; font-family: 'DejaVu Sans', 'Bitstream Vera Sans', 'Computer Modern Sans Serif', 'Lucida Grande', 'Verdana', 'Geneva', 'Lucid', 'Arial', 'Helvetica', 'Avant Garde', sans-serif; text-anchor: middle; fill: #111827" x="1285.942432" y="391.077384" transform="rotate(-0 1285.942432 391.077384)">MORTALS</text>
    </g>
   </g>
   <g id="text_25">
    <g clip-path="url(#p26d755cbce)">
     <text style="font-size: 7.6px; font-family: 'DejaVu Sans', 'Bitstream Vera Sans', 'Computer Modern Sans Serif', 'Lucida Grande', 'Verdana', 'Geneva', 'Lucid', 'Arial', 'Helvetica', 'Avant Garde', sans-serif; text-anchor: middle; fill: #111827" x="1154.011325" y="576.311559" transform="rotate(-0 1154.011325 576.311559)">PALACE</text>
    </g>
   </g>
   <g id="text_26">
    <g clip-path="url(#p26d755cbce)">
     <text style="font-size: 7.6px; font-family: 'DejaVu Sans', 'Bitstream Vera Sans', 'Computer Modern Sans Serif', 'Lucida Grande', 'Verdana', 'Geneva', 'Lucid', 'Arial', 'Helvetica', 'Avant Garde', sans-serif; text-anchor: middle; fill: #111827" x="1157.981244" y="461.531914" transform="rotate(-0 1157.981244 461.531914)">ATHENA</text>
    </g>
   </g>
   <g id="text_27">
    <g clip-path="url(#p26d755cbce)">
     <text style="font-size: 7.6px; font-family: 'DejaVu Sans', 'Bitstream Vera Sans', 'Computer Modern Sans Serif', 'Lucida Grande', 'Verdana', 'Geneva', 'Lucid', 'Arial', 'Helvetica', 'Avant Garde', sans-serif; text-anchor: middle; fill: #111827" x="1214.861872" y="549.881011" transform="rotate(-0 1214.861872 549.881011)">HOME</text>
    </g>
   </g>
   <g id="text_28">
    <g clip-path="url(#p26d755cbce)">
     <text style="font-size: 7.6px; font-family: 'DejaVu Sans', 'Bitstream Vera Sans', 'Computer Modern Sans Serif', 'Lucida Grande', 'Verdana', 'Geneva', 'Lucid', 'Arial', 'Helvetica', 'Avant Garde', sans-serif; text-anchor: middle; fill: #111827" x="1108.753744" y="194.112623" transform="rotate(-0 1108.753744 194.112623)">STORM</text>
    </g>
   </g>
   <g id="text_29">
    <g clip-path="url(#p26d755cbce)">
     <text style="font-size: 7.6px; font-family: 'DejaVu Sans', 'Bitstream Vera Sans', 'Computer Modern Sans Serif', 'Lucida Grande', 'Verdana', 'Geneva', 'Lucid', 'Arial', 'Helvetica', 'Avant Garde', sans-serif; text-anchor: middle; fill: #111827" x="1081.257101" y="397.307996" transform="rotate(-0 1081.257101 397.307996)">fair</text>
    </g>
   </g>
   <g id="text_30">
    <g clip-path="url(#p26d755cbce)">
     <text style="font-size: 7.6px; font-family: 'DejaVu Sans', 'Bitstream Vera Sans', 'Computer Modern Sans Serif', 'Lucida Grande', 'Verdana', 'Geneva', 'Lucid', 'Arial', 'Helvetica', 'Avant Garde', sans-serif; text-anchor: middle; fill: #111827" x="1097.828432" y="463.376569" transform="rotate(-0 1097.828432 463.376569)">long</text>
    </g>
   </g>
   <g id="text_31">
    <g clip-path="url(#p26d755cbce)">
     <text style="font-size: 7.6px; font-family: 'DejaVu Sans', 'Bitstream Vera Sans', 'Computer Modern Sans Serif', 'Lucida Grande', 'Verdana', 'Geneva', 'Lucid', 'Arial', 'Helvetica', 'Avant Garde', sans-serif; text-anchor: middle; fill: #111827" x="1251.596365" y="493.868955" transform="rotate(-0 1251.596365 493.868955)">young</text>
    </g>
   </g>
   <g id="text_32">
    <g clip-path="url(#p26d755cbce)">
     <text style="font-size: 7.6px; font-family: 'DejaVu Sans', 'Bitstream Vera Sans', 'Computer Modern Sans Serif', 'Lucida Grande', 'Verdana', 'Geneva', 'Lucid', 'Arial', 'Helvetica', 'Avant Garde', sans-serif; text-anchor: middle; fill: #111827" x="1077.362222" y="541.088118" transform="rotate(-0 1077.362222 541.088118)">just</text>
    </g>
   </g>
   <g id="text_33">
    <g clip-path="url(#p26d755cbce)">
     <text style="font-size: 7.6px; font-family: 'DejaVu Sans', 'Bitstream Vera Sans', 'Computer Modern Sans Serif', 'Lucida Grande', 'Verdana', 'Geneva', 'Lucid', 'Arial', 'Helvetica', 'Avant Garde', sans-serif; text-anchor: middle; fill: #111827" x="1217.397114" y="383.871342" transform="rotate(-0 1217.397114 383.871342)">brave</text>
    </g>
   </g>
   <g id="text_34">
    <g clip-path="url(#p26d755cbce)">
     <text style="font-size: 7.6px; font-family: 'DejaVu Sans', 'Bitstream Vera Sans', 'Computer Modern Sans Serif', 'Lucida Grande', 'Verdana', 'Geneva', 'Lucid', 'Arial', 'Helvetica', 'Avant Garde', sans-serif; text-anchor: middle; fill: #111827" x="1251.581032" y="560.503894" transform="rotate(-0 1251.581032 560.503894)">good</text>
    </g>
   </g>
   <g id="text_35">
    <g clip-path="url(#p26d755cbce)">
     <text style="font-size: 7.6px; font-family: 'DejaVu Sans', 'Bitstream Vera Sans', 'Computer Modern Sans Serif', 'Lucida Grande', 'Verdana', 'Geneva', 'Lucid', 'Arial', 'Helvetica', 'Avant Garde', sans-serif; text-anchor: middle; fill: #111827" x="1059.210662" y="429.537475" transform="rotate(-0 1059.210662 429.537475)">angry</text>
    </g>
   </g>
   <g id="text_36">
    <g clip-path="url(#p26d755cbce)">
     <text style="font-size: 7.6px; font-family: 'DejaVu Sans', 'Bitstream Vera Sans', 'Computer Modern Sans Serif', 'Lucida Grande', 'Verdana', 'Geneva', 'Lucid', 'Arial', 'Helvetica', 'Avant Garde', sans-serif; text-anchor: middle; fill: #111827" x="1080.625715" y="589.641243" transform="rotate(-0 1080.625715 589.641243)">high</text>
    </g>
   </g>
   <g id="text_37">
    <g clip-path="url(#p26d755cbce)">
     <text style="font-size: 7.6px; font-family: 'DejaVu Sans', 'Bitstream Vera Sans', 'Computer Modern Sans Serif', 'Lucida Grande', 'Verdana', 'Geneva', 'Lucid', 'Arial', 'Helvetica', 'Avant Garde', sans-serif; text-anchor: middle; fill: #111827" x="1028.164002" y="533.127855" transform="rotate(-0 1028.164002 533.127855)">little</text>
    </g>
   </g>
   <g id="text_38">
    <g clip-path="url(#p26d755cbce)">
     <text style="font-size: 7.6px; font-family: 'DejaVu Sans', 'Bitstream Vera Sans', 'Computer Modern Sans Serif', 'Lucida Grande', 'Verdana', 'Geneva', 'Lucid', 'Arial', 'Helvetica', 'Avant Garde', sans-serif; text-anchor: middle; fill: #111827" x="1118.176773" y="421.158573" transform="rotate(-0 1118.176773 421.158573)">old</text>
    </g>
   </g>
   <g id="text_39">
    <g clip-path="url(#p26d755cbce)">
     <text style="font-size: 7.6px; font-family: 'DejaVu Sans', 'Bitstream Vera Sans', 'Computer Modern Sans Serif', 'Lucida Grande', 'Verdana', 'Geneva', 'Lucid', 'Arial', 'Helvetica', 'Avant Garde', sans-serif; text-anchor: middle; fill: #111827" x="1141.582118" y="407.47983" transform="rotate(-0 1141.582118 407.47983)">great</text>
    </g>
   </g>
   <g id="text_40">
    <g clip-path="url(#p26d755cbce)">
     <text style="font-size: 7.6px; font-family: 'DejaVu Sans', 'Bitstream Vera Sans', 'Computer Modern Sans Serif', 'Lucida Grande', 'Verdana', 'Geneva', 'Lucid', 'Arial', 'Helvetica', 'Avant Garde', sans-serif; text-anchor: middle; fill: #111827" x="1250.531369" y="619.203117" transform="rotate(-0 1250.531369 619.203117)">glad</text>
    </g>
   </g>
   <g id="text_41">
    <g clip-path="url(#p26d755cbce)">
     <text style="font-size: 7.6px; font-family: 'DejaVu Sans', 'Bitstream Vera Sans', 'Computer Modern Sans Serif', 'Lucida Grande', 'Verdana', 'Geneva', 'Lucid', 'Arial', 'Helvetica', 'Avant Garde', sans-serif; text-anchor: middle; fill: #111827" x="1269.269907" y="531.578751" transform="rotate(-0 1269.269907 531.578751)">kind</text>
    </g>
   </g>
   <g id="text_42">
    <g clip-path="url(#p26d755cbce)">
     <text style="font-size: 7.6px; font-family: 'DejaVu Sans', 'Bitstream Vera Sans', 'Computer Modern Sans Serif', 'Lucida Grande', 'Verdana', 'Geneva', 'Lucid', 'Arial', 'Helvetica', 'Avant Garde', sans-serif; text-anchor: middle; fill: #111827" x="1211.19134" y="620.923385" transform="rotate(-0 1211.19134 620.923385)">able</text>
    </g>
   </g>
   <g id="text_43">
    <g clip-path="url(#p26d755cbce)">
     <text style="font-size: 7.6px; font-family: 'DejaVu Sans', 'Bitstream Vera Sans', 'Computer Modern Sans Serif', 'Lucida Grande', 'Verdana', 'Geneva', 'Lucid', 'Arial', 'Helvetica', 'Avant Garde', sans-serif; text-anchor: middle; fill: #111827" x="1311.942446" y="619.685198" transform="rotate(-0 1311.942446 619.685198)">noble</text>
    </g>
   </g>
   <g id="text_44">
    <g clip-path="url(#p26d755cbce)">
     <text style="font-size: 7.6px; font-family: 'DejaVu Sans', 'Bitstream Vera Sans', 'Computer Modern Sans Serif', 'Lucida Grande', 'Verdana', 'Geneva', 'Lucid', 'Arial', 'Helvetica', 'Avant Garde', sans-serif; text-anchor: middle; fill: #111827" x="972.416411" y="559.555601" transform="rotate(-0 972.416411 559.555601)">deep</text>
    </g>
   </g>
  </g>
  <g id="text_45">
   <text style="font-weight: 700; font-size: 22px; font-family: 'DejaVu Sans'; text-anchor: start; fill: #111827" x="18" y="23.916562" transform="rotate(-0 18 23.916562)">Samuel Butler (1900) — Native target-as-hyperedge visualization</text>
  </g>
  <g id="text_46">
   <text style="font-size: 11px; font-family: 'DejaVu Sans'; text-anchor: start; fill: #475569" x="18" y="42.84" transform="rotate(-0 18 42.84)">Readable weighted core: 34 of 118 attribute nodes; 10 of 89 target hyperedges; 169 of 821 incidences.</text>
  </g>
  <g id="text_47">
   <text style="font-size: 9px; font-family: 'DejaVu Sans'; text-anchor: start; fill: #475569" x="18" y="755.64" transform="rotate(-0 18 755.64)">Attribute circles and target hyperedges use the colors specified in config/visualizations.json.</text>
  </g>
 </g>
 <defs>
  <clipPath id="pc554e67f7a">
   <rect x="7.2" y="122.72" width="678.6" height="602.32"/>
  </clipPath>
  <clipPath id="p26d755cbce">
   <rect x="696.6" y="122.72" width="678.6" height="602.32"/>
  </clipPath>
 </defs>
</svg>
