<?xml version="1.0" encoding="utf-8" standalone="no"?>
<!DOCTYPE svg PUBLIC "-//W3C//DTD SVG 1.1//EN"
  "http://www.w3.org/Graphics/SVG/1.1/DTD/svg11.dtd">
<svg xmlns:xlink="http://www.w3.org/1999/xlink" width="1382.4pt" height="764.711719pt" viewBox="0 0 1382.4 764.711719" xmlns="http://www.w3.org/2000/svg" version="1.1">
 <metadata>
  <rdf:RDF xmlns:dc="http://purl.org/dc/elements/1.1/" xmlns:cc="http://creativecommons.org/ns#" xmlns:rdf="http://www.w3.org/1999/02/22-rdf-syntax-ns#">
   <cc:Work>
    <dc:type rdf:resource="http://purl.org/dc/dcmitype/StillImage"/>
    <dc:format>image/svg+xml</dc:format>
    <dc:creator>
     <cc:Agent>
      <dc:title>Matplotlib v3.10.3, https://matplotlib.org/</dc:title>
     </cc:Agent>
    </dc:creator>
   </cc:Work>
  </rdf:RDF>
 </metadata>
 <defs>
  <style type="text/css">*{stroke-linejoin: round; stroke-linecap: butt}</style>
 </defs>
 <g id="figure_1">
  <g id="patch_1">
   <path d="M 0 764.711719 
L 1382.4 764.711719 
L 1382.4 0 
L 0 0 
z
" style="fill: #0b1220"/>
  </g>
  <g id="axes_1">
   <g id="text_1">
    <text style="font-weight: 700; font-size: 15px; font-family: 'DejaVu Sans'; text-anchor: start; fill: #e5e7eb" x="7.2" y="108.72" transform="rotate(-0 7.2 108.72)">XGI native hyperedge-hull view</text>
   </g>
   <g id="PatchCollection_1">
    <path d="M 287.08587 402.593912 
L 208.981145 489.43053 
L 208.303628 490.199022 
L 207.675702 491.00854 
L 207.099845 491.855887 
L 206.57833 492.737721 
L 206.113215 493.650561 
L 205.706335 494.590805 
L 205.359296 495.554741 
L 205.073469 496.538566 
L 193.944311 544.395433 
L 193.720823 545.395264 
L 193.560555 546.407155 
L 193.46414 547.427112 
L 193.43196 548.451111 
L 193.46414 549.47511 
L 193.560555 550.495067 
L 193.720823 551.506958 
L 193.944311 552.506789 
L 194.230139 553.490614 
L 194.577177 554.454551 
L 194.984057 555.394794 
L 195.449172 556.307634 
L 195.970687 557.189468 
L 262.587123 668.587329 
L 263.162979 669.434677 
L 263.790905 670.244194 
L 264.468422 671.012686 
L 265.192856 671.73712 
L 265.961348 672.414637 
L 266.770865 673.042563 
L 267.618213 673.61842 
L 268.500047 674.139935 
L 269.412887 674.60505 
L 270.353131 675.01193 
L 271.317067 675.358969 
L 272.300892 675.644796 
L 273.300723 675.868285 
L 350.953162 688.791875 
L 351.965053 688.952142 
L 352.98501 689.048557 
L 354.009009 689.080737 
L 355.033008 689.048557 
L 356.052965 688.952142 
L 432.496275 677.187359 
L 433.508166 677.027091 
L 434.507997 676.803602 
L 435.491822 676.517775 
L 436.455759 676.170736 
L 437.396002 675.763856 
L 438.308842 675.298741 
L 439.190676 674.777226 
L 440.038024 674.201369 
L 440.847541 673.573443 
L 441.616033 672.895926 
L 442.340467 672.171492 
L 443.017984 671.403 
L 443.64591 670.593483 
L 444.221767 669.746136 
L 444.743282 668.864302 
L 445.208397 667.951462 
L 498.015943 556.214668 
L 498.422823 555.274424 
L 498.769861 554.310488 
L 499.055689 553.326663 
L 499.279177 552.326832 
L 499.439445 551.314941 
L 499.53586 550.294984 
L 499.56804 549.270985 
L 499.53586 548.246986 
L 499.439445 547.227028 
L 499.279177 546.215137 
L 499.055689 545.215306 
L 498.769861 544.231481 
L 463.715697 445.681991 
L 463.368659 444.718055 
L 443.763623 391.221994 
L 443.356744 390.281751 
L 442.891628 389.368911 
L 442.370113 388.487077 
L 441.794256 387.639729 
L 441.16633 386.830212 
L 440.488814 386.06172 
L 439.76438 385.337286 
L 438.995888 384.659769 
L 438.18637 384.031843 
L 437.339023 383.455986 
L 436.457189 382.934471 
L 435.544349 382.469356 
L 434.604105 382.062476 
L 433.640169 381.715437 
L 432.656344 381.42961 
L 431.656513 381.206121 
L 430.644622 381.045853 
L 429.624664 380.949439 
L 428.600665 380.917259 
L 361.524753 379.430857 
L 360.500755 379.463038 
L 359.480797 379.559452 
L 358.468906 379.71972 
L 357.469075 379.943208 
L 294.91834 397.961803 
L 293.934515 398.24763 
L 292.970579 398.594669 
L 292.030335 399.001548 
L 291.117495 399.466664 
L 290.235661 399.988179 
L 289.388314 400.564036 
L 288.578796 401.191962 
L 287.810304 401.869478 
z
" clip-path="url(#pc554e67f7a)" style="fill: #f59e0b; fill-opacity: 0.13; stroke: #fbbf24; stroke-opacity: 0.13; stroke-width: 0.8"/>
    <path d="M 196.428578 291.360043 
L 193.43196 548.451111 
L 193.46414 549.47511 
L 193.560555 550.495067 
L 193.720823 551.506958 
L 193.944311 552.506789 
L 194.230139 553.490614 
L 194.577177 554.454551 
L 194.984057 555.394794 
L 195.449172 556.307634 
L 195.970687 557.189468 
L 224.252266 601.592677 
L 224.828123 602.440025 
L 225.456049 603.249542 
L 226.133566 604.018034 
L 226.858 604.742468 
L 227.626492 605.419985 
L 228.436009 606.047911 
L 229.283356 606.623768 
L 230.16519 607.145283 
L 231.07803 607.610398 
L 317.422897 647.813431 
L 318.363141 648.220311 
L 319.327077 648.56735 
L 320.310902 648.853177 
L 321.310733 649.076666 
L 322.322624 649.236934 
L 323.342582 649.333348 
L 324.366581 649.365529 
L 325.390579 649.333348 
L 326.410537 649.236934 
L 327.422428 649.076666 
L 328.422259 648.853177 
L 329.406084 648.56735 
L 330.37002 648.220311 
L 331.310264 647.813431 
L 332.223104 647.348316 
L 333.104938 646.826801 
L 333.952286 646.250944 
L 334.761803 645.623018 
L 335.530295 644.945501 
L 474.024603 516.572893 
L 474.749037 515.848459 
L 475.426554 515.079967 
L 476.05448 514.27045 
L 476.630337 513.423102 
L 477.151852 512.541268 
L 477.616967 511.628428 
L 478.023847 510.688184 
L 478.370886 509.724248 
L 478.656713 508.740423 
L 478.880202 507.740592 
L 479.04047 506.728701 
L 479.136884 505.708743 
L 479.169064 504.684745 
L 479.136884 503.660746 
L 479.04047 502.640788 
L 478.880202 501.628897 
L 478.656713 500.629066 
L 478.370886 499.645241 
L 478.023847 498.681305 
L 477.616967 497.741061 
L 477.151852 496.828221 
L 476.630337 495.946387 
L 476.05448 495.09904 
L 475.426554 494.289522 
L 474.749037 493.52103 
L 474.024603 492.796596 
L 473.256111 492.11908 
L 223.131975 278.794378 
L 222.322458 278.166452 
L 221.47511 277.590595 
L 220.593276 277.06908 
L 219.680436 276.603965 
L 218.740193 276.197085 
L 217.776256 275.850046 
L 216.792431 275.564219 
L 215.7926 275.34073 
L 214.780709 275.180462 
L 213.760752 275.084048 
L 212.736753 275.051867 
L 211.712754 275.084048 
L 210.692797 275.180462 
L 209.680906 275.34073 
L 208.681075 275.564219 
L 207.69725 275.850046 
L 206.733313 276.197085 
L 205.79307 276.603965 
L 204.88023 277.06908 
L 203.998396 277.590595 
L 203.151048 278.166452 
L 202.341531 278.794378 
L 201.573039 279.471895 
L 200.848605 280.196328 
L 200.171088 280.964821 
L 199.543162 281.774338 
L 198.967305 282.621685 
L 198.44579 283.503519 
L 197.980675 284.416359 
L 197.573795 285.356603 
L 197.226757 286.320539 
L 196.940929 287.304364 
L 196.71744 288.304195 
L 196.557172 289.316086 
L 196.460758 290.336044 
z
" clip-path="url(#pc554e67f7a)" style="fill: #f59e0b; fill-opacity: 0.13; stroke: #fbbf24; stroke-opacity: 0.13; stroke-width: 0.8"/>
    <path d="M 452.261379 434.92567 
L 306.720156 401.619376 
L 305.720325 401.395887 
L 304.708434 401.235619 
L 303.688477 401.139205 
L 302.664478 401.107024 
L 301.640479 401.139205 
L 300.620522 401.235619 
L 299.608631 401.395887 
L 298.6088 401.619376 
L 297.624975 401.905203 
L 296.661038 402.252242 
L 295.720795 402.659122 
L 294.807955 403.124237 
L 293.926121 403.645752 
L 293.078773 404.221609 
L 292.269256 404.849535 
L 291.500764 405.527052 
L 290.77633 406.251485 
L 290.098813 407.019978 
L 252.029712 452.563831 
L 251.401787 453.373348 
L 250.82593 454.220695 
L 250.304415 455.102529 
L 249.839299 456.015369 
L 249.43242 456.955613 
L 249.085381 457.919549 
L 248.799554 458.903375 
L 248.576065 459.903205 
L 222.002401 589.798472 
L 221.842133 590.810363 
L 221.745719 591.830321 
L 221.713538 592.85432 
L 221.745719 593.878319 
L 221.842133 594.898276 
L 222.002401 595.910167 
L 222.22589 596.909998 
L 222.511717 597.893823 
L 222.858756 598.85776 
L 223.265636 599.798003 
L 223.730751 600.710843 
L 224.252266 601.592677 
L 224.828123 602.440025 
L 225.456049 603.249542 
L 226.133566 604.018034 
L 226.858 604.742468 
L 227.626492 605.419985 
L 228.436009 606.047911 
L 229.283356 606.623768 
L 230.16519 607.145283 
L 231.07803 607.610398 
L 232.018274 608.017278 
L 232.98221 608.364316 
L 233.966035 608.650144 
L 234.965866 608.873632 
L 277.273244 615.649081 
L 278.285135 615.809349 
L 279.305093 615.905763 
L 280.329092 615.937943 
L 341.755158 615.134101 
L 342.779157 615.101921 
L 343.799115 615.005507 
L 408.759669 604.798501 
L 409.77156 604.638233 
L 410.771391 604.414744 
L 411.755216 604.128917 
L 412.719152 603.781878 
L 413.659396 603.374999 
L 414.572236 602.909883 
L 491.116388 563.561948 
L 491.998222 563.040433 
L 492.84557 562.464576 
L 493.655087 561.83665 
L 494.423579 561.159133 
L 495.148013 560.434699 
L 495.82553 559.666207 
L 496.453456 558.85669 
L 497.029313 558.009342 
L 497.550828 557.127508 
L 498.015943 556.214668 
L 498.422823 555.274424 
L 498.769861 554.310488 
L 499.055689 553.326663 
L 499.279177 552.326832 
L 499.439445 551.314941 
L 499.53586 550.294984 
L 499.56804 549.270985 
L 499.53586 548.246986 
L 499.439445 547.227028 
L 499.279177 546.215137 
L 499.055689 545.215306 
L 498.769861 544.231481 
L 463.715697 445.681991 
L 463.368659 444.718055 
L 462.961779 443.777811 
L 462.496664 442.864971 
L 461.975149 441.983137 
L 461.399292 441.135789 
L 460.771366 440.326272 
L 460.093849 439.55778 
L 459.369415 438.833346 
L 458.600923 438.155829 
L 457.791406 437.527903 
L 456.944058 436.952046 
L 456.062224 436.430531 
L 455.149384 435.965416 
L 454.209141 435.558536 
L 453.245204 435.211498 
z
" clip-path="url(#pc554e67f7a)" style="fill: #f59e0b; fill-opacity: 0.13; stroke: #fbbf24; stroke-opacity: 0.13; stroke-width: 0.8"/>
    <path d="M 472.648476 595.083604 
L 472.616296 594.059605 
L 464.481696 449.697495 
L 464.385281 448.677538 
L 464.225014 447.665647 
L 464.001525 446.665816 
L 463.715697 445.681991 
L 463.368659 444.718055 
L 462.961779 443.777811 
L 462.496664 442.864971 
L 461.975149 441.983137 
L 461.399292 441.135789 
L 460.771366 440.326272 
L 460.093849 439.55778 
L 459.369415 438.833346 
L 458.600923 438.155829 
L 457.791406 437.527903 
L 456.944058 436.952046 
L 370.263111 381.969585 
L 369.381277 381.44807 
L 368.468437 380.982954 
L 367.528193 380.576075 
L 366.564257 380.229036 
L 365.580432 379.943208 
L 364.580601 379.71972 
L 363.56871 379.559452 
L 362.548752 379.463038 
L 361.524753 379.430857 
L 360.500755 379.463038 
L 359.480797 379.559452 
L 358.468906 379.71972 
L 357.469075 379.943208 
L 294.91834 397.961803 
L 293.934515 398.24763 
L 292.970579 398.594669 
L 292.030335 399.001548 
L 291.117495 399.466664 
L 290.235661 399.988179 
L 289.388314 400.564036 
L 288.578796 401.191962 
L 287.810304 401.869478 
L 287.08587 402.593912 
L 208.981145 489.43053 
L 208.303628 490.199022 
L 207.675702 491.00854 
L 207.099845 491.855887 
L 206.57833 492.737721 
L 206.113215 493.650561 
L 205.706335 494.590805 
L 205.359296 495.554741 
L 205.073469 496.538566 
L 193.944311 544.395433 
L 193.720823 545.395264 
L 193.560555 546.407155 
L 193.46414 547.427112 
L 193.43196 548.451111 
L 193.46414 549.47511 
L 193.560555 550.495067 
L 193.720823 551.506958 
L 193.944311 552.506789 
L 194.230139 553.490614 
L 194.577177 554.454551 
L 194.984057 555.394794 
L 195.449172 556.307634 
L 195.970687 557.189468 
L 196.546544 558.036816 
L 197.17447 558.846333 
L 197.851987 559.614825 
L 198.576421 560.339259 
L 199.344913 561.016776 
L 200.15443 561.644702 
L 201.001778 562.220559 
L 201.883612 562.742074 
L 202.796452 563.207189 
L 203.736695 563.614069 
L 335.751719 613.988884 
L 336.715655 614.335923 
L 337.69948 614.62175 
L 338.699311 614.845239 
L 339.711202 615.005507 
L 340.73116 615.101921 
L 341.755158 615.134101 
L 342.779157 615.101921 
L 457.3643 611.359599 
L 458.384257 611.263185 
L 459.396148 611.102917 
L 460.395979 610.879428 
L 461.379804 610.593601 
L 462.343741 610.246562 
L 463.283984 609.839682 
L 464.196824 609.374567 
L 465.078658 608.853052 
L 465.926006 608.277195 
L 466.735523 607.649269 
L 467.504015 606.971752 
L 468.228449 606.247318 
L 468.905966 605.478826 
L 469.533892 604.669309 
L 470.109749 603.821961 
L 470.631264 602.940128 
L 471.096379 602.027287 
L 471.503259 601.087044 
L 471.850297 600.123107 
L 472.136125 599.139282 
L 472.359614 598.139451 
L 472.519881 597.12756 
L 472.616296 596.107603 
z
" clip-path="url(#pc554e67f7a)" style="fill: #f59e0b; fill-opacity: 0.13; stroke: #fbbf24; stroke-opacity: 0.13; stroke-width: 0.8"/>
    <path d="M 197.226757 296.399546 
L 249.085381 467.998556 
L 249.75583 469.882151 
L 250.102869 470.846087 
L 250.509748 471.786331 
L 250.974864 472.699171 
L 251.496379 473.581005 
L 252.072236 474.428353 
L 252.700162 475.23787 
L 253.377678 476.006362 
L 254.102112 476.730796 
L 254.870604 477.408313 
L 255.680122 478.036239 
L 256.527469 478.612095 
L 257.409303 479.133611 
L 312.389432 509.497304 
L 313.302272 509.962419 
L 314.242515 510.369299 
L 315.206452 510.716337 
L 316.190277 511.002165 
L 317.190108 511.225654 
L 318.201999 511.385922 
L 378.107784 518.69589 
L 379.127742 518.792304 
L 380.151741 518.824485 
L 381.175739 518.792304 
L 382.195697 518.69589 
L 383.207588 518.535622 
L 384.207419 518.312133 
L 385.191244 518.026306 
L 386.15518 517.679267 
L 387.095424 517.272388 
L 388.008264 516.807272 
L 388.890098 516.285757 
L 389.737446 515.7099 
L 457.791406 463.915085 
L 458.600923 463.287159 
L 459.369415 462.609642 
L 460.093849 461.885208 
L 460.771366 461.116716 
L 461.399292 460.307199 
L 461.975149 459.459852 
L 462.496664 458.578018 
L 462.961779 457.665178 
L 463.368659 456.724934 
L 463.715697 455.760998 
L 464.001525 454.777173 
L 464.225014 453.777342 
L 464.385281 452.765451 
L 464.481696 451.745493 
L 464.513876 450.721494 
L 464.481696 449.697495 
L 446.469772 182.559326 
L 446.373358 181.539369 
L 446.21309 180.527478 
L 445.989601 179.527647 
L 445.703773 178.543822 
L 445.356735 177.579885 
L 444.949855 176.639642 
L 444.48474 175.726802 
L 443.963225 174.844968 
L 443.387368 173.99762 
L 442.759442 173.188103 
L 442.081925 172.419611 
L 441.357491 171.695177 
L 440.588999 171.01766 
L 439.779482 170.389734 
L 438.932134 169.813877 
L 438.0503 169.292362 
L 437.13746 168.827247 
L 436.197217 168.420367 
L 435.23328 168.073329 
L 434.249455 167.787501 
L 433.249624 167.564012 
L 432.237733 167.403744 
L 431.217776 167.30733 
L 305.321278 158.711443 
L 304.297279 158.679263 
L 303.273281 158.711443 
L 302.253323 158.807858 
L 301.241432 158.968125 
L 300.241601 159.191614 
L 299.257776 159.477442 
L 298.29384 159.82448 
L 297.353596 160.23136 
L 296.440756 160.696475 
L 295.558922 161.21799 
L 294.711574 161.793847 
L 293.902057 162.421773 
L 293.133565 163.09929 
L 292.409131 163.823724 
L 291.731614 164.592216 
L 200.171088 280.964821 
L 199.543162 281.774338 
L 198.967305 282.621685 
L 198.44579 283.503519 
L 197.980675 284.416359 
L 197.573795 285.356603 
L 197.226757 286.320539 
L 196.940929 287.304364 
L 196.71744 288.304195 
L 196.557172 289.316086 
L 196.460758 290.336044 
L 196.428578 291.360043 
L 196.460758 292.384041 
L 196.557172 293.403999 
L 196.71744 294.41589 
L 196.940929 295.415721 
z
" clip-path="url(#pc554e67f7a)" style="fill: #f59e0b; fill-opacity: 0.13; stroke: #fbbf24; stroke-opacity: 0.13; stroke-width: 0.8"/>
    <path d="M 242.000975 554.621395 
L 265.573014 606.573452 
L 266.038129 607.486292 
L 266.559644 608.368125 
L 267.135501 609.215473 
L 267.763427 610.02499 
L 268.440944 610.793482 
L 269.165378 611.517916 
L 342.845295 684.66071 
L 343.613787 685.338227 
L 344.423304 685.966153 
L 345.270652 686.54201 
L 346.152485 687.063525 
L 347.065326 687.52864 
L 348.005569 687.93552 
L 348.969506 688.282558 
L 349.953331 688.568386 
L 350.953162 688.791875 
L 351.965053 688.952142 
L 352.98501 689.048557 
L 354.009009 689.080737 
L 355.033008 689.048557 
L 356.052965 688.952142 
L 357.064856 688.791875 
L 358.064687 688.568386 
L 359.048512 688.282558 
L 360.012449 687.93552 
L 360.952692 687.52864 
L 361.865532 687.063525 
L 362.747366 686.54201 
L 363.594714 685.966153 
L 414.46545 650.390929 
L 415.274968 649.763003 
L 466.735523 607.649269 
L 467.504015 606.971752 
L 468.228449 606.247318 
L 468.905966 605.478826 
L 469.533892 604.669309 
L 470.109749 603.821961 
L 470.631264 602.940128 
L 471.096379 602.027287 
L 471.503259 601.087044 
L 471.850297 600.123107 
L 472.136125 599.139282 
L 472.359614 598.139451 
L 472.519881 597.12756 
L 472.616296 596.107603 
L 472.648476 595.083604 
L 472.616296 594.059605 
L 472.519881 593.039648 
L 472.359614 592.027757 
L 472.136125 591.027926 
L 471.850297 590.044101 
L 471.503259 589.080164 
L 421.764529 470.038936 
L 421.357649 469.098692 
L 420.892534 468.185852 
L 420.371019 467.304018 
L 419.795162 466.456671 
L 419.167236 465.647154 
L 418.489719 464.878662 
L 417.765285 464.154228 
L 416.996793 463.476711 
L 416.187276 462.848785 
L 415.339928 462.272928 
L 414.458094 461.751413 
L 413.545254 461.286298 
L 412.605011 460.879418 
L 411.641074 460.532379 
L 410.657249 460.246552 
L 409.657418 460.023063 
L 408.645527 459.862795 
L 407.62557 459.766381 
L 265.619376 446.683058 
L 264.595377 446.650877 
L 263.571379 446.683058 
L 262.551421 446.779472 
L 261.53953 446.93974 
L 260.539699 447.163229 
L 259.555874 447.449056 
L 258.591938 447.796095 
L 257.651694 448.202975 
L 256.738854 448.66809 
L 255.85702 449.189605 
L 255.009673 449.765462 
L 254.200155 450.393388 
L 253.431663 451.070905 
L 252.707229 451.795339 
L 252.029712 452.563831 
L 251.401787 453.373348 
L 250.82593 454.220695 
L 250.304415 455.102529 
L 249.839299 456.015369 
L 249.43242 456.955613 
L 249.085381 457.919549 
L 248.799554 458.903375 
L 248.576065 459.903205 
L 248.415797 460.915096 
L 248.319383 461.935054 
L 240.481059 546.653713 
L 240.448878 547.677712 
L 240.481059 548.701711 
L 240.577473 549.721668 
L 240.737741 550.733559 
L 240.96123 551.73339 
L 241.247057 552.717215 
L 241.594096 553.681152 
z
" clip-path="url(#pc554e67f7a)" style="fill: #f59e0b; fill-opacity: 0.13; stroke: #fbbf24; stroke-opacity: 0.13; stroke-width: 0.8"/>
    <path d="M 303.93778 495.206341 
L 308.058405 633.057353 
L 308.090586 634.081352 
L 308.187 635.10131 
L 308.347268 636.113201 
L 308.570757 637.113032 
L 308.856584 638.096857 
L 309.203623 639.060793 
L 309.610502 640.001037 
L 310.075618 640.913877 
L 310.597133 641.795711 
L 311.17299 642.643058 
L 311.800916 643.452575 
L 312.478432 644.221067 
L 313.202866 644.945501 
L 313.971358 645.623018 
L 314.780876 646.250944 
L 315.628223 646.826801 
L 316.510057 647.348316 
L 317.422897 647.813431 
L 318.363141 648.220311 
L 319.327077 648.56735 
L 320.310902 648.853177 
L 321.310733 649.076666 
L 322.322624 649.236934 
L 323.342582 649.333348 
L 403.855747 653.473332 
L 404.879745 653.505513 
L 405.903744 653.473332 
L 406.923702 653.376918 
L 407.935593 653.21665 
L 408.935424 652.993162 
L 409.919249 652.707334 
L 410.883185 652.360296 
L 411.823429 651.953416 
L 412.736269 651.488301 
L 413.618103 650.966785 
L 414.46545 650.390929 
L 415.274968 649.763003 
L 466.735523 607.649269 
L 467.504015 606.971752 
L 468.228449 606.247318 
L 468.905966 605.478826 
L 469.533892 604.669309 
L 470.109749 603.821961 
L 470.631264 602.940128 
L 497.550828 557.127508 
L 498.015943 556.214668 
L 498.422823 555.274424 
L 498.769861 554.310488 
L 499.055689 553.326663 
L 499.279177 552.326832 
L 499.439445 551.314941 
L 499.53586 550.294984 
L 499.56804 549.270985 
L 499.53586 548.246986 
L 499.439445 547.227028 
L 499.279177 546.215137 
L 499.055689 545.215306 
L 498.769861 544.231481 
L 498.422823 543.267545 
L 498.015943 542.327301 
L 477.616967 497.741061 
L 477.151852 496.828221 
L 476.630337 495.946387 
L 476.05448 495.09904 
L 475.426554 494.289522 
L 474.749037 493.52103 
L 373.412902 384.575318 
L 372.688468 383.850884 
L 371.919976 383.173367 
L 371.110458 382.545442 
L 370.263111 381.969585 
L 369.381277 381.44807 
L 368.468437 380.982954 
L 367.528193 380.576075 
L 366.564257 380.229036 
L 365.580432 379.943208 
L 364.580601 379.71972 
L 363.56871 379.559452 
L 362.548752 379.463038 
L 361.524753 379.430857 
L 360.500755 379.463038 
L 359.480797 379.559452 
L 358.468906 379.71972 
L 357.469075 379.943208 
L 356.48525 380.229036 
L 355.521314 380.576075 
L 354.58107 380.982954 
L 353.66823 381.44807 
L 352.786396 381.969585 
L 351.939048 382.545442 
L 351.129531 383.173367 
L 350.361039 383.850884 
L 349.636605 384.575318 
L 348.959088 385.34381 
L 348.331162 386.153328 
L 347.755306 387.000675 
L 347.23379 387.882509 
L 346.768675 388.795349 
L 346.361796 389.735593 
L 305.082997 489.202901 
L 304.735959 490.166838 
L 304.450131 491.150663 
L 304.226642 492.150494 
L 304.066375 493.162385 
L 303.96996 494.182342 
z
" clip-path="url(#pc554e67f7a)" style="fill: #f59e0b; fill-opacity: 0.13; stroke: #fbbf24; stroke-opacity: 0.13; stroke-width: 0.8"/>
    <path d="M 495.82553 538.875763 
L 374.090418 385.34381 
L 373.412902 384.575318 
L 372.688468 383.850884 
L 371.919976 383.173367 
L 371.110458 382.545442 
L 370.263111 381.969585 
L 369.381277 381.44807 
L 368.468437 380.982954 
L 367.528193 380.576075 
L 366.564257 380.229036 
L 365.580432 379.943208 
L 364.580601 379.71972 
L 363.56871 379.559452 
L 362.548752 379.463038 
L 361.524753 379.430857 
L 360.500755 379.463038 
L 359.480797 379.559452 
L 358.468906 379.71972 
L 357.469075 379.943208 
L 294.91834 397.961803 
L 293.934515 398.24763 
L 292.970579 398.594669 
L 292.030335 399.001548 
L 291.117495 399.466664 
L 290.235661 399.988179 
L 289.388314 400.564036 
L 288.578796 401.191962 
L 287.810304 401.869478 
L 287.08587 402.593912 
L 208.981145 489.43053 
L 208.303628 490.199022 
L 207.675702 491.00854 
L 207.099845 491.855887 
L 206.57833 492.737721 
L 206.113215 493.650561 
L 205.706335 494.590805 
L 205.359296 495.554741 
L 205.073469 496.538566 
L 204.84998 497.538397 
L 204.689712 498.550288 
L 204.593298 499.570246 
L 204.561117 500.594245 
L 204.593298 501.618243 
L 204.689712 502.638201 
L 204.84998 503.650092 
L 205.073469 504.649923 
L 205.359296 505.633748 
L 205.706335 506.597684 
L 206.113215 507.537928 
L 206.57833 508.450768 
L 207.099845 509.332602 
L 207.675702 510.179949 
L 208.303628 510.989467 
L 208.981145 511.757959 
L 209.705579 512.482393 
L 210.474071 513.15991 
L 211.283588 513.787836 
L 212.130935 514.363692 
L 298.385041 569.496478 
L 299.266874 570.017993 
L 300.179715 570.483108 
L 301.119958 570.889988 
L 302.083895 571.237026 
L 401.676209 604.128917 
L 402.660034 604.414744 
L 403.659865 604.638233 
L 404.671756 604.798501 
L 405.691714 604.894915 
L 406.715713 604.927096 
L 407.739711 604.894915 
L 408.759669 604.798501 
L 409.77156 604.638233 
L 410.771391 604.414744 
L 411.755216 604.128917 
L 412.719152 603.781878 
L 413.659396 603.374999 
L 414.572236 602.909883 
L 491.116388 563.561948 
L 491.998222 563.040433 
L 492.84557 562.464576 
L 493.655087 561.83665 
L 494.423579 561.159133 
L 495.148013 560.434699 
L 495.82553 559.666207 
L 496.453456 558.85669 
L 497.029313 558.009342 
L 497.550828 557.127508 
L 498.015943 556.214668 
L 498.422823 555.274424 
L 498.769861 554.310488 
L 499.055689 553.326663 
L 499.279177 552.326832 
L 499.439445 551.314941 
L 499.53586 550.294984 
L 499.56804 549.270985 
L 499.53586 548.246986 
L 499.439445 547.227028 
L 499.279177 546.215137 
L 499.055689 545.215306 
L 498.769861 544.231481 
L 498.422823 543.267545 
L 498.015943 542.327301 
L 497.550828 541.414461 
L 497.029313 540.532627 
L 496.453456 539.68528 
z
" clip-path="url(#pc554e67f7a)" style="fill: #f59e0b; fill-opacity: 0.13; stroke: #fbbf24; stroke-opacity: 0.13; stroke-width: 0.8"/>
    <path d="M 392.089141 414.205803 
L 345.200458 430.194577 
L 344.236522 430.541615 
L 343.296278 430.948495 
L 342.383438 431.41361 
L 341.501604 431.935125 
L 340.654257 432.510982 
L 339.844739 433.138908 
L 339.076247 433.816425 
L 338.351813 434.540859 
L 244.868906 536.513998 
L 244.191389 537.28249 
L 243.563463 538.092007 
L 242.987606 538.939355 
L 242.466091 539.821189 
L 242.000975 540.734029 
L 241.594096 541.674272 
L 241.247057 542.638209 
L 240.96123 543.622034 
L 240.737741 544.621865 
L 240.577473 545.633756 
L 240.481059 546.653713 
L 240.448878 547.677712 
L 240.481059 548.701711 
L 240.577473 549.721668 
L 240.737741 550.733559 
L 260.337258 662.904819 
L 260.560746 663.90465 
L 260.846574 664.888475 
L 261.193612 665.852412 
L 261.600492 666.792655 
L 262.065607 667.705496 
L 262.587123 668.587329 
L 263.162979 669.434677 
L 263.790905 670.244194 
L 264.468422 671.012686 
L 265.192856 671.73712 
L 265.961348 672.414637 
L 266.770865 673.042563 
L 267.618213 673.61842 
L 268.500047 674.139935 
L 269.412887 674.60505 
L 270.353131 675.01193 
L 271.317067 675.358969 
L 272.300892 675.644796 
L 273.300723 675.868285 
L 274.312614 676.028553 
L 275.332572 676.124967 
L 276.35657 676.157147 
L 277.380569 676.124967 
L 278.400527 676.028553 
L 279.412418 675.868285 
L 280.412249 675.644796 
L 281.396074 675.358969 
L 461.379804 610.593601 
L 462.343741 610.246562 
L 463.283984 609.839682 
L 464.196824 609.374567 
L 465.078658 608.853052 
L 465.926006 608.277195 
L 466.735523 607.649269 
L 467.504015 606.971752 
L 468.228449 606.247318 
L 468.905966 605.478826 
L 469.533892 604.669309 
L 470.109749 603.821961 
L 470.631264 602.940128 
L 471.096379 602.027287 
L 471.503259 601.087044 
L 471.850297 600.123107 
L 472.136125 599.139282 
L 472.359614 598.139451 
L 472.519881 597.12756 
L 472.616296 596.107603 
L 472.648476 595.083604 
L 472.616296 594.059605 
L 472.519881 593.039648 
L 472.359614 592.027757 
L 472.136125 591.027926 
L 471.850297 590.044101 
L 412.638641 424.676296 
L 412.291602 423.71236 
L 411.884722 422.772116 
L 411.419607 421.859276 
L 410.898092 420.977442 
L 410.322235 420.130094 
L 409.694309 419.320577 
L 409.016792 418.552085 
L 408.292358 417.827651 
L 407.523866 417.150134 
L 406.714349 416.522208 
L 405.867002 415.946351 
L 404.985168 415.424836 
L 404.072328 414.959721 
L 403.132084 414.552841 
L 402.168148 414.205803 
L 401.184323 413.919975 
L 400.184492 413.696487 
L 399.172601 413.536219 
L 398.152643 413.439804 
L 397.128644 413.407624 
L 396.104645 413.439804 
L 395.084688 413.536219 
L 394.072797 413.696487 
L 393.072966 413.919975 
z
" clip-path="url(#pc554e67f7a)" style="fill: #f59e0b; fill-opacity: 0.13; stroke: #fbbf24; stroke-opacity: 0.13; stroke-width: 0.8"/>
    <path d="M 338.846051 678.776002 
L 339.252931 679.716245 
L 339.718046 680.629085 
L 340.239561 681.510919 
L 340.815418 682.358267 
L 341.443344 683.167784 
L 342.120861 683.936276 
L 342.845295 684.66071 
L 343.613787 685.338227 
L 344.423304 685.966153 
L 345.270652 686.54201 
L 346.152485 687.063525 
L 347.065326 687.52864 
L 348.005569 687.93552 
L 348.969506 688.282558 
L 349.953331 688.568386 
L 350.953162 688.791875 
L 351.965053 688.952142 
L 352.98501 689.048557 
L 354.009009 689.080737 
L 355.033008 689.048557 
L 356.052965 688.952142 
L 357.064856 688.791875 
L 358.064687 688.568386 
L 359.048512 688.282558 
L 360.012449 687.93552 
L 360.952692 687.52864 
L 361.865532 687.063525 
L 362.747366 686.54201 
L 363.594714 685.966153 
L 364.404231 685.338227 
L 365.172723 684.66071 
L 365.897157 683.936276 
L 366.574674 683.167784 
L 367.2026 682.358267 
L 367.778457 681.510919 
L 368.299972 680.629085 
L 368.765087 679.716245 
L 369.171967 678.776002 
L 369.519005 677.812065 
L 369.804833 676.82824 
L 370.028322 675.828409 
L 370.188589 674.816518 
L 396.331321 504.560266 
L 396.427735 503.540308 
L 396.459916 502.516309 
L 396.427735 501.492311 
L 396.331321 500.472353 
L 396.171053 499.460462 
L 377.544066 392.683185 
L 377.320577 391.683354 
L 377.03475 390.699529 
L 376.687711 389.735593 
L 376.280832 388.795349 
L 375.815716 387.882509 
L 375.294201 387.000675 
L 374.718344 386.153328 
L 374.090418 385.34381 
L 373.412902 384.575318 
L 372.688468 383.850884 
L 371.919976 383.173367 
L 371.110458 382.545442 
L 370.263111 381.969585 
L 369.381277 381.44807 
L 368.468437 380.982954 
L 367.528193 380.576075 
L 366.564257 380.229036 
L 365.580432 379.943208 
L 364.580601 379.71972 
L 363.56871 379.559452 
L 362.548752 379.463038 
L 361.524753 379.430857 
L 360.500755 379.463038 
L 359.480797 379.559452 
L 358.468906 379.71972 
L 357.469075 379.943208 
L 356.48525 380.229036 
L 355.521314 380.576075 
L 354.58107 380.982954 
L 353.66823 381.44807 
L 352.786396 381.969585 
L 351.939048 382.545442 
L 255.680122 451.649057 
L 254.870604 452.276983 
L 254.102112 452.954499 
L 253.377678 453.678933 
L 252.700162 454.447425 
L 252.072236 455.256943 
L 251.496379 456.10429 
L 250.974864 456.986124 
L 250.509748 457.898964 
L 250.102869 458.839208 
L 249.75583 459.803144 
L 249.470003 460.786969 
L 249.246514 461.7868 
L 249.086246 462.798691 
L 248.989832 463.818649 
L 248.957651 464.842648 
L 248.989832 465.866646 
L 249.086246 466.886604 
L 249.246514 467.898495 
L 249.470003 468.898326 
L 249.75583 469.882151 
L 250.102869 470.846087 
z
" clip-path="url(#pc554e67f7a)" style="fill: #f59e0b; fill-opacity: 0.13; stroke: #fbbf24; stroke-opacity: 0.13; stroke-width: 0.8"/>
   </g>
   <g id="LineCollection_1"/>
   <g id="PathCollection_1">
    <defs>
     <path id="mb460ae4eaa" d="M 0 6 
C 1.591219 6 3.117479 5.367802 4.242641 4.242641 
C 5.367802 3.117479 6 1.591219 6 0 
C 6 -1.591219 5.367802 -3.117479 4.242641 -4.242641 
C 3.117479 -5.367802 1.591219 -6 0 -6 
C -1.591219 -6 -3.117479 -5.367802 -4.242641 -4.242641 
C -5.367802 -3.117479 -6 -1.591219 -6 0 
C -6 1.591219 -5.367802 3.117479 -4.242641 4.242641 
C -3.117479 5.367802 -1.591219 6 0 6 
z
" style="stroke: #f8fafc; stroke-width: 0.8"/>
    </defs>
    <g clip-path="url(#pc554e67f7a)">
     <use xlink:href="#mb460ae4eaa" x="430.749472" y="543.780983" style="fill: #38bdf8; stroke: #f8fafc; stroke-width: 0.8"/>
     <use xlink:href="#mb460ae4eaa" x="256.757054" y="547.677712" style="fill: #38bdf8; stroke: #f8fafc; stroke-width: 0.8"/>
     <use xlink:href="#mb460ae4eaa" x="397.128644" y="429.715799" style="fill: #38bdf8; stroke: #f8fafc; stroke-width: 0.8"/>
     <use xlink:href="#mb460ae4eaa" x="361.524753" y="395.739032" style="fill: #38bdf8; stroke: #f8fafc; stroke-width: 0.8"/>
     <use xlink:href="#mb460ae4eaa" x="220.869293" y="500.594245" style="fill: #38bdf8; stroke: #f8fafc; stroke-width: 0.8"/>
     <use xlink:href="#mb460ae4eaa" x="341.755158" y="598.825926" style="fill: #38bdf8; stroke: #f8fafc; stroke-width: 0.8"/>
     <use xlink:href="#mb460ae4eaa" x="364.98348" y="557.779338" style="fill: #38bdf8; stroke: #f8fafc; stroke-width: 0.8"/>
     <use xlink:href="#mb460ae4eaa" x="320.245955" y="495.206341" style="fill: #38bdf8; stroke: #f8fafc; stroke-width: 0.8"/>
     <use xlink:href="#mb460ae4eaa" x="329.661869" y="490.492708" style="fill: #38bdf8; stroke: #f8fafc; stroke-width: 0.8"/>
     <use xlink:href="#mb460ae4eaa" x="298.974019" y="413.757627" style="fill: #38bdf8; stroke: #f8fafc; stroke-width: 0.8"/>
     <use xlink:href="#mb460ae4eaa" x="350.239962" y="445.704573" style="fill: #38bdf8; stroke: #f8fafc; stroke-width: 0.8"/>
     <use xlink:href="#mb460ae4eaa" x="209.740135" y="548.451111" style="fill: #38bdf8; stroke: #f8fafc; stroke-width: 0.8"/>
     <use xlink:href="#mb460ae4eaa" x="380.151741" y="502.516309" style="fill: #38bdf8; stroke: #f8fafc; stroke-width: 0.8"/>
     <use xlink:href="#mb460ae4eaa" x="448.205701" y="450.721494" style="fill: #38bdf8; stroke: #f8fafc; stroke-width: 0.8"/>
     <use xlink:href="#mb460ae4eaa" x="456.340301" y="595.083604" style="fill: #38bdf8; stroke: #f8fafc; stroke-width: 0.8"/>
     <use xlink:href="#mb460ae4eaa" x="302.664478" y="417.4152" style="fill: #38bdf8; stroke: #f8fafc; stroke-width: 0.8"/>
     <use xlink:href="#mb460ae4eaa" x="307.123398" y="555.72703" style="fill: #38bdf8; stroke: #f8fafc; stroke-width: 0.8"/>
     <use xlink:href="#mb460ae4eaa" x="265.265827" y="464.842648" style="fill: #38bdf8; stroke: #f8fafc; stroke-width: 0.8"/>
     <use xlink:href="#mb460ae4eaa" x="264.595377" y="462.959053" style="fill: #38bdf8; stroke: #f8fafc; stroke-width: 0.8"/>
     <use xlink:href="#mb460ae4eaa" x="404.879745" y="637.197338" style="fill: #38bdf8; stroke: #f8fafc; stroke-width: 0.8"/>
     <use xlink:href="#mb460ae4eaa" x="406.601571" y="476.042376" style="fill: #38bdf8; stroke: #f8fafc; stroke-width: 0.8"/>
     <use xlink:href="#mb460ae4eaa" x="406.715713" y="588.61892" style="fill: #38bdf8; stroke: #f8fafc; stroke-width: 0.8"/>
     <use xlink:href="#mb460ae4eaa" x="280.329092" y="599.629768" style="fill: #38bdf8; stroke: #f8fafc; stroke-width: 0.8"/>
     <use xlink:href="#mb460ae4eaa" x="354.009009" y="672.772562" style="fill: #38bdf8; stroke: #f8fafc; stroke-width: 0.8"/>
     <use xlink:href="#mb460ae4eaa" x="462.860889" y="504.684745" style="fill: #38bdf8; stroke: #f8fafc; stroke-width: 0.8"/>
     <use xlink:href="#mb460ae4eaa" x="324.366581" y="633.057353" style="fill: #38bdf8; stroke: #f8fafc; stroke-width: 0.8"/>
     <use xlink:href="#mb460ae4eaa" x="483.259865" y="549.270985" style="fill: #38bdf8; stroke: #f8fafc; stroke-width: 0.8"/>
     <use xlink:href="#mb460ae4eaa" x="276.35657" y="659.848972" style="fill: #38bdf8; stroke: #f8fafc; stroke-width: 0.8"/>
     <use xlink:href="#mb460ae4eaa" x="428.600665" y="397.225434" style="fill: #38bdf8; stroke: #f8fafc; stroke-width: 0.8"/>
     <use xlink:href="#mb460ae4eaa" x="238.021714" y="592.85432" style="fill: #38bdf8; stroke: #f8fafc; stroke-width: 0.8"/>
     <use xlink:href="#mb460ae4eaa" x="430.452319" y="661.007778" style="fill: #38bdf8; stroke: #f8fafc; stroke-width: 0.8"/>
     <use xlink:href="#mb460ae4eaa" x="212.736753" y="291.360043" style="fill: #38bdf8; stroke: #f8fafc; stroke-width: 0.8"/>
     <use xlink:href="#mb460ae4eaa" x="430.193777" y="183.583325" style="fill: #38bdf8; stroke: #f8fafc; stroke-width: 0.8"/>
     <use xlink:href="#mb460ae4eaa" x="304.297279" y="174.987438" style="fill: #38bdf8; stroke: #f8fafc; stroke-width: 0.8"/>
    </g>
   </g>
   <g id="text_2">
    <g clip-path="url(#pc554e67f7a)">
     <text style="font-size: 8.2px; font-family: 'Noto Sans', 'Noto Sans CJK SC', 'Noto Sans CJK JP', 'Amiri', 'Scheherazade', 'Abyssinica SIL', 'Padauk', 'Lohit Devanagari', 'Lohit Tamil', 'Lohit Gujarati', 'Loma', 'Garuda', 'DejaVu Sans', 'Arial', 'Helvetica', sans-serif; text-anchor: middle; fill: #e5e7eb" x="430.193777" y="185.715325" transform="rotate(-0 430.193777 185.715325)">gray</text>
    </g>
   </g>
   <g id="text_3">
    <g clip-path="url(#pc554e67f7a)">
     <text style="font-size: 8.2px; font-family: 'Noto Sans', 'Noto Sans CJK SC', 'Noto Sans CJK JP', 'Amiri', 'Scheherazade', 'Abyssinica SIL', 'Padauk', 'Lohit Devanagari', 'Lohit Tamil', 'Lohit Gujarati', 'Loma', 'Garuda', 'DejaVu Sans', 'Arial', 'Helvetica', sans-serif; text-anchor: middle; fill: #e5e7eb" x="264.595377" y="465.091053" transform="rotate(-0 264.595377 465.091053)">beautiful</text>
    </g>
   </g>
   <g id="text_4">
    <g clip-path="url(#pc554e67f7a)">
     <text style="font-size: 8.2px; font-family: 'Noto Sans', 'Noto Sans CJK SC', 'Noto Sans CJK JP', 'Amiri', 'Scheherazade', 'Abyssinica SIL', 'Padauk', 'Lohit Devanagari', 'Lohit Tamil', 'Lohit Gujarati', 'Loma', 'Garuda', 'DejaVu Sans', 'Arial', 'Helvetica', sans-serif; text-anchor: middle; fill: #e5e7eb" x="350.239962" y="447.836573" transform="rotate(-0 350.239962 447.836573)">long</text>
    </g>
   </g>
   <g id="text_5">
    <g clip-path="url(#pc554e67f7a)">
     <text style="font-size: 8.2px; font-family: 'Noto Sans', 'Noto Sans CJK SC', 'Noto Sans CJK JP', 'Amiri', 'Scheherazade', 'Abyssinica SIL', 'Padauk', 'Lohit Devanagari', 'Lohit Tamil', 'Lohit Gujarati', 'Loma', 'Garuda', 'DejaVu Sans', 'Arial', 'Helvetica', sans-serif; text-anchor: middle; fill: #e5e7eb" x="307.123398" y="557.85903" transform="rotate(-0 307.123398 557.85903)">young</text>
    </g>
   </g>
   <g id="text_6">
    <g clip-path="url(#pc554e67f7a)">
     <text style="font-size: 8.2px; font-family: 'Noto Sans', 'Noto Sans CJK SC', 'Noto Sans CJK JP', 'Amiri', 'Scheherazade', 'Abyssinica SIL', 'Padauk', 'Lohit Devanagari', 'Lohit Tamil', 'Lohit Gujarati', 'Loma', 'Garuda', 'DejaVu Sans', 'Arial', 'Helvetica', sans-serif; text-anchor: middle; fill: #e5e7eb" x="329.661869" y="492.624708" transform="rotate(-0 329.661869 492.624708)">just</text>
    </g>
   </g>
   <g id="text_7">
    <g clip-path="url(#pc554e67f7a)">
     <text style="font-size: 8.2px; font-family: 'Noto Sans', 'Noto Sans CJK SC', 'Noto Sans CJK JP', 'Amiri', 'Scheherazade', 'Abyssinica SIL', 'Padauk', 'Lohit Devanagari', 'Lohit Tamil', 'Lohit Gujarati', 'Loma', 'Garuda', 'DejaVu Sans', 'Arial', 'Helvetica', sans-serif; text-anchor: middle; fill: #e5e7eb" x="256.757054" y="549.809712" transform="rotate(-0 256.757054 549.809712)">brave</text>
    </g>
   </g>
   <g id="text_8">
    <g clip-path="url(#pc554e67f7a)">
     <text style="font-size: 8.2px; font-family: 'Noto Sans', 'Noto Sans CJK SC', 'Noto Sans CJK JP', 'Amiri', 'Scheherazade', 'Abyssinica SIL', 'Padauk', 'Lohit Devanagari', 'Lohit Tamil', 'Lohit Gujarati', 'Loma', 'Garuda', 'DejaVu Sans', 'Arial', 'Helvetica', sans-serif; text-anchor: middle; fill: #e5e7eb" x="364.98348" y="559.911338" transform="rotate(-0 364.98348 559.911338)">good</text>
    </g>
   </g>
   <g id="text_9">
    <g clip-path="url(#pc554e67f7a)">
     <text style="font-size: 8.2px; font-family: 'Noto Sans', 'Noto Sans CJK SC', 'Noto Sans CJK JP', 'Amiri', 'Scheherazade', 'Abyssinica SIL', 'Padauk', 'Lohit Devanagari', 'Lohit Tamil', 'Lohit Gujarati', 'Loma', 'Garuda', 'DejaVu Sans', 'Arial', 'Helvetica', sans-serif; text-anchor: middle; fill: #e5e7eb" x="265.265827" y="466.974648" transform="rotate(-0 265.265827 466.974648)">angry</text>
    </g>
   </g>
   <g id="text_10">
    <g clip-path="url(#pc554e67f7a)">
     <text style="font-size: 8.2px; font-family: 'Noto Sans', 'Noto Sans CJK SC', 'Noto Sans CJK JP', 'Amiri', 'Scheherazade', 'Abyssinica SIL', 'Padauk', 'Lohit Devanagari', 'Lohit Tamil', 'Lohit Gujarati', 'Loma', 'Garuda', 'DejaVu Sans', 'Arial', 'Helvetica', sans-serif; text-anchor: middle; fill: #e5e7eb" x="406.601571" y="478.174376" transform="rotate(-0 406.601571 478.174376)">high</text>
    </g>
   </g>
   <g id="text_11">
    <g clip-path="url(#pc554e67f7a)">
     <text style="font-size: 8.2px; font-family: 'Noto Sans', 'Noto Sans CJK SC', 'Noto Sans CJK JP', 'Amiri', 'Scheherazade', 'Abyssinica SIL', 'Padauk', 'Lohit Devanagari', 'Lohit Tamil', 'Lohit Gujarati', 'Loma', 'Garuda', 'DejaVu Sans', 'Arial', 'Helvetica', sans-serif; text-anchor: middle; fill: #e5e7eb" x="380.151741" y="504.648309" transform="rotate(-0 380.151741 504.648309)">old</text>
    </g>
   </g>
   <g id="text_12">
    <g clip-path="url(#pc554e67f7a)">
     <text style="font-size: 8.2px; font-family: 'Noto Sans', 'Noto Sans CJK SC', 'Noto Sans CJK JP', 'Amiri', 'Scheherazade', 'Abyssinica SIL', 'Padauk', 'Lohit Devanagari', 'Lohit Tamil', 'Lohit Gujarati', 'Loma', 'Garuda', 'DejaVu Sans', 'Arial', 'Helvetica', sans-serif; text-anchor: middle; fill: #e5e7eb" x="320.245955" y="497.338341" transform="rotate(-0 320.245955 497.338341)">great</text>
    </g>
   </g>
   <g id="text_13">
    <g clip-path="url(#pc554e67f7a)">
     <text style="font-size: 8.2px; font-family: 'Noto Sans', 'Noto Sans CJK SC', 'Noto Sans CJK JP', 'Amiri', 'Scheherazade', 'Abyssinica SIL', 'Padauk', 'Lohit Devanagari', 'Lohit Tamil', 'Lohit Gujarati', 'Loma', 'Garuda', 'DejaVu Sans', 'Arial', 'Helvetica', sans-serif; text-anchor: middle; fill: #e5e7eb" x="404.879745" y="639.329338" transform="rotate(-0 404.879745 639.329338)">glad</text>
    </g>
   </g>
   <g id="text_14">
    <g clip-path="url(#pc554e67f7a)">
     <text style="font-size: 8.2px; font-family: 'Noto Sans', 'Noto Sans CJK SC', 'Noto Sans CJK JP', 'Amiri', 'Scheherazade', 'Abyssinica SIL', 'Padauk', 'Lohit Devanagari', 'Lohit Tamil', 'Lohit Gujarati', 'Loma', 'Garuda', 'DejaVu Sans', 'Arial', 'Helvetica', sans-serif; text-anchor: middle; fill: #e5e7eb" x="406.715713" y="590.75092" transform="rotate(-0 406.715713 590.75092)">kind</text>
    </g>
   </g>
   <g id="text_15">
    <g clip-path="url(#pc554e67f7a)">
     <text style="font-size: 8.2px; font-family: 'Noto Sans', 'Noto Sans CJK SC', 'Noto Sans CJK JP', 'Amiri', 'Scheherazade', 'Abyssinica SIL', 'Padauk', 'Lohit Devanagari', 'Lohit Tamil', 'Lohit Gujarati', 'Loma', 'Garuda', 'DejaVu Sans', 'Arial', 'Helvetica', sans-serif; text-anchor: middle; fill: #e5e7eb" x="430.749472" y="545.912983" transform="rotate(-0 430.749472 545.912983)">able</text>
    </g>
   </g>
   <g id="text_16">
    <g clip-path="url(#pc554e67f7a)">
     <text style="font-size: 8.2px; font-family: 'Noto Sans', 'Noto Sans CJK SC', 'Noto Sans CJK JP', 'Amiri', 'Scheherazade', 'Abyssinica SIL', 'Padauk', 'Lohit Devanagari', 'Lohit Tamil', 'Lohit Gujarati', 'Loma', 'Garuda', 'DejaVu Sans', 'Arial', 'Helvetica', sans-serif; text-anchor: middle; fill: #e5e7eb" x="430.452319" y="663.139778" transform="rotate(-0 430.452319 663.139778)">noble</text>
    </g>
   </g>
   <g id="text_17">
    <g clip-path="url(#pc554e67f7a)">
     <text style="font-size: 8.2px; font-family: 'Noto Sans', 'Noto Sans CJK SC', 'Noto Sans CJK JP', 'Amiri', 'Scheherazade', 'Abyssinica SIL', 'Padauk', 'Lohit Devanagari', 'Lohit Tamil', 'Lohit Gujarati', 'Loma', 'Garuda', 'DejaVu Sans', 'Arial', 'Helvetica', sans-serif; text-anchor: middle; fill: #e5e7eb" x="428.600665" y="399.357434" transform="rotate(-0 428.600665 399.357434)">deep</text>
    </g>
   </g>
  </g>
  <g id="axes_2">
   <g id="LineCollection_2">
    <path d="M 1109.044134 496.954554 
L 1058.387593 324.223271 
" clip-path="url(#p26d755cbce)" style="fill: none; stroke: #94a3b8; stroke-width: 0.65"/>
    <path d="M 967.130019 338.448579 
L 1058.387593 324.223271 
" clip-path="url(#p26d755cbce)" style="fill: none; stroke: #94a3b8; stroke-width: 0.65"/>
    <path d="M 1058.573676 429.535918 
L 1058.387593 324.223271 
" clip-path="url(#p26d755cbce)" style="fill: none; stroke: #94a3b8; stroke-width: 0.65"/>
    <path d="M 1041.511666 396.81972 
L 1058.387593 324.223271 
" clip-path="url(#p26d755cbce)" style="fill: none; stroke: #94a3b8; stroke-width: 0.65"/>
    <path d="M 1107.542598 227.526067 
L 1058.387593 324.223271 
" clip-path="url(#p26d755cbce)" style="fill: none; stroke: #94a3b8; stroke-width: 0.65"/>
    <path d="M 1175.920367 377.539761 
L 1058.387593 324.223271 
" clip-path="url(#p26d755cbce)" style="fill: none; stroke: #94a3b8; stroke-width: 0.65"/>
    <path d="M 1094.513884 413.336366 
L 1058.387593 324.223271 
" clip-path="url(#p26d755cbce)" style="fill: none; stroke: #94a3b8; stroke-width: 0.65"/>
    <path d="M 1012.781985 290.876666 
L 1058.387593 324.223271 
" clip-path="url(#p26d755cbce)" style="fill: none; stroke: #94a3b8; stroke-width: 0.65"/>
    <path d="M 1203.702443 333.846477 
L 1058.387593 324.223271 
" clip-path="url(#p26d755cbce)" style="fill: none; stroke: #94a3b8; stroke-width: 0.65"/>
    <path d="M 950.671928 368.946684 
L 1058.387593 324.223271 
" clip-path="url(#p26d755cbce)" style="fill: none; stroke: #94a3b8; stroke-width: 0.65"/>
    <path d="M 958.321623 277.116818 
L 1058.387593 324.223271 
" clip-path="url(#p26d755cbce)" style="fill: none; stroke: #94a3b8; stroke-width: 0.65"/>
    <path d="M 1046.789809 240.405249 
L 1058.387593 324.223271 
" clip-path="url(#p26d755cbce)" style="fill: none; stroke: #94a3b8; stroke-width: 0.65"/>
    <path d="M 973.126437 391.1882 
L 1058.387593 324.223271 
" clip-path="url(#p26d755cbce)" style="fill: none; stroke: #94a3b8; stroke-width: 0.65"/>
    <path d="M 1161.408804 324.697622 
L 1058.387593 324.223271 
" clip-path="url(#p26d755cbce)" style="fill: none; stroke: #94a3b8; stroke-width: 0.65"/>
    <path d="M 1013.172243 454.949319 
L 1058.387593 324.223271 
" clip-path="url(#p26d755cbce)" style="fill: none; stroke: #94a3b8; stroke-width: 0.65"/>
    <path d="M 1181.234958 257.896299 
L 1058.387593 324.223271 
" clip-path="url(#p26d755cbce)" style="fill: none; stroke: #94a3b8; stroke-width: 0.65"/>
    <path d="M 1112.137557 433.691392 
L 1058.387593 324.223271 
" clip-path="url(#p26d755cbce)" style="fill: none; stroke: #94a3b8; stroke-width: 0.65"/>
    <path d="M 1003.187208 412.521489 
L 1147.191421 355.764046 
" clip-path="url(#p26d755cbce)" style="fill: none; stroke: #94a3b8; stroke-width: 0.65"/>
    <path d="M 1095.873803 469.966457 
L 1147.191421 355.764046 
" clip-path="url(#p26d755cbce)" style="fill: none; stroke: #94a3b8; stroke-width: 0.65"/>
    <path d="M 1066.992356 459.941009 
L 1147.191421 355.764046 
" clip-path="url(#p26d755cbce)" style="fill: none; stroke: #94a3b8; stroke-width: 0.65"/>
    <path d="M 1058.573676 429.535918 
L 1147.191421 355.764046 
" clip-path="url(#p26d755cbce)" style="fill: none; stroke: #94a3b8; stroke-width: 0.65"/>
    <path d="M 1107.542598 227.526067 
L 1147.191421 355.764046 
" clip-path="url(#p26d755cbce)" style="fill: none; stroke: #94a3b8; stroke-width: 0.65"/>
    <path d="M 1175.920367 377.539761 
L 1147.191421 355.764046 
" clip-path="url(#p26d755cbce)" style="fill: none; stroke: #94a3b8; stroke-width: 0.65"/>
    <path d="M 1082.922955 249.962231 
L 1147.191421 355.764046 
" clip-path="url(#p26d755cbce)" style="fill: none; stroke: #94a3b8; stroke-width: 0.65"/>
    <path d="M 1161.408804 324.697622 
L 1147.191421 355.764046 
" clip-path="url(#p26d755cbce)" style="fill: none; stroke: #94a3b8; stroke-width: 0.65"/>
    <path d="M 1181.234958 257.896299 
L 1147.191421 355.764046 
" clip-path="url(#p26d755cbce)" style="fill: none; stroke: #94a3b8; stroke-width: 0.65"/>
    <path d="M 1094.513884 413.336366 
L 1147.191421 355.764046 
" clip-path="url(#p26d755cbce)" style="fill: none; stroke: #94a3b8; stroke-width: 0.65"/>
    <path d="M 1112.137557 433.691392 
L 1147.191421 355.764046 
" clip-path="url(#p26d755cbce)" style="fill: none; stroke: #94a3b8; stroke-width: 0.65"/>
    <path d="M 1241.4319 305.387754 
L 1147.191421 355.764046 
" clip-path="url(#p26d755cbce)" style="fill: none; stroke: #94a3b8; stroke-width: 0.65"/>
    <path d="M 1195.287028 294.077883 
L 1147.191421 355.764046 
" clip-path="url(#p26d755cbce)" style="fill: none; stroke: #94a3b8; stroke-width: 0.65"/>
    <path d="M 1203.702443 333.846477 
L 1147.191421 355.764046 
" clip-path="url(#p26d755cbce)" style="fill: none; stroke: #94a3b8; stroke-width: 0.65"/>
    <path d="M 1242.932023 410.732046 
L 1147.191421 355.764046 
" clip-path="url(#p26d755cbce)" style="fill: none; stroke: #94a3b8; stroke-width: 0.65"/>
    <path d="M 1109.044134 496.954554 
L 1237.620729 513.787823 
" clip-path="url(#p26d755cbce)" style="fill: none; stroke: #94a3b8; stroke-width: 0.65"/>
    <path d="M 1112.137557 433.691392 
L 1237.620729 513.787823 
" clip-path="url(#p26d755cbce)" style="fill: none; stroke: #94a3b8; stroke-width: 0.65"/>
    <path d="M 1095.873803 469.966457 
L 1237.620729 513.787823 
" clip-path="url(#p26d755cbce)" style="fill: none; stroke: #94a3b8; stroke-width: 0.65"/>
    <path d="M 1161.408804 324.697622 
L 1237.620729 513.787823 
" clip-path="url(#p26d755cbce)" style="fill: none; stroke: #94a3b8; stroke-width: 0.65"/>
    <path d="M 1175.920367 377.539761 
L 1237.620729 513.787823 
" clip-path="url(#p26d755cbce)" style="fill: none; stroke: #94a3b8; stroke-width: 0.65"/>
    <path d="M 1242.932023 410.732046 
L 1237.620729 513.787823 
" clip-path="url(#p26d755cbce)" style="fill: none; stroke: #94a3b8; stroke-width: 0.65"/>
    <path d="M 1094.513884 413.336366 
L 1237.620729 513.787823 
" clip-path="url(#p26d755cbce)" style="fill: none; stroke: #94a3b8; stroke-width: 0.65"/>
    <path d="M 1147.960985 242.332666 
L 1211.327744 415.130956 
" clip-path="url(#p26d755cbce)" style="fill: none; stroke: #94a3b8; stroke-width: 0.65"/>
    <path d="M 1109.044134 496.954554 
L 1211.327744 415.130956 
" clip-path="url(#p26d755cbce)" style="fill: none; stroke: #94a3b8; stroke-width: 0.65"/>
    <path d="M 1066.992356 459.941009 
L 1211.327744 415.130956 
" clip-path="url(#p26d755cbce)" style="fill: none; stroke: #94a3b8; stroke-width: 0.65"/>
    <path d="M 1058.573676 429.535918 
L 1211.327744 415.130956 
" clip-path="url(#p26d755cbce)" style="fill: none; stroke: #94a3b8; stroke-width: 0.65"/>
    <path d="M 1041.511666 396.81972 
L 1211.327744 415.130956 
" clip-path="url(#p26d755cbce)" style="fill: none; stroke: #94a3b8; stroke-width: 0.65"/>
    <path d="M 1175.920367 377.539761 
L 1211.327744 415.130956 
" clip-path="url(#p26d755cbce)" style="fill: none; stroke: #94a3b8; stroke-width: 0.65"/>
    <path d="M 1181.234958 257.896299 
L 1211.327744 415.130956 
" clip-path="url(#p26d755cbce)" style="fill: none; stroke: #94a3b8; stroke-width: 0.65"/>
    <path d="M 1094.513884 413.336366 
L 1211.327744 415.130956 
" clip-path="url(#p26d755cbce)" style="fill: none; stroke: #94a3b8; stroke-width: 0.65"/>
    <path d="M 1112.137557 433.691392 
L 1211.327744 415.130956 
" clip-path="url(#p26d755cbce)" style="fill: none; stroke: #94a3b8; stroke-width: 0.65"/>
    <path d="M 1241.4319 305.387754 
L 1211.327744 415.130956 
" clip-path="url(#p26d755cbce)" style="fill: none; stroke: #94a3b8; stroke-width: 0.65"/>
    <path d="M 1195.287028 294.077883 
L 1211.327744 415.130956 
" clip-path="url(#p26d755cbce)" style="fill: none; stroke: #94a3b8; stroke-width: 0.65"/>
    <path d="M 1203.702443 333.846477 
L 1211.327744 415.130956 
" clip-path="url(#p26d755cbce)" style="fill: none; stroke: #94a3b8; stroke-width: 0.65"/>
    <path d="M 1164.953941 456.88081 
L 1211.327744 415.130956 
" clip-path="url(#p26d755cbce)" style="fill: none; stroke: #94a3b8; stroke-width: 0.65"/>
    <path d="M 1234.864089 362.678468 
L 1211.327744 415.130956 
" clip-path="url(#p26d755cbce)" style="fill: none; stroke: #94a3b8; stroke-width: 0.65"/>
    <path d="M 1147.960985 242.332666 
L 1108.199764 278.970617 
" clip-path="url(#p26d755cbce)" style="fill: none; stroke: #94a3b8; stroke-width: 0.65"/>
    <path d="M 967.130019 338.448579 
L 1108.199764 278.970617 
" clip-path="url(#p26d755cbce)" style="fill: none; stroke: #94a3b8; stroke-width: 0.65"/>
    <path d="M 1041.511666 396.81972 
L 1108.199764 278.970617 
" clip-path="url(#p26d755cbce)" style="fill: none; stroke: #94a3b8; stroke-width: 0.65"/>
    <path d="M 1161.408804 324.697622 
L 1108.199764 278.970617 
" clip-path="url(#p26d755cbce)" style="fill: none; stroke: #94a3b8; stroke-width: 0.65"/>
    <path d="M 1028.559687 201.083822 
L 1108.199764 278.970617 
" clip-path="url(#p26d755cbce)" style="fill: none; stroke: #94a3b8; stroke-width: 0.65"/>
    <path d="M 1107.542598 227.526067 
L 1108.199764 278.970617 
" clip-path="url(#p26d755cbce)" style="fill: none; stroke: #94a3b8; stroke-width: 0.65"/>
    <path d="M 1175.920367 377.539761 
L 1108.199764 278.970617 
" clip-path="url(#p26d755cbce)" style="fill: none; stroke: #94a3b8; stroke-width: 0.65"/>
    <path d="M 1082.922955 249.962231 
L 1108.199764 278.970617 
" clip-path="url(#p26d755cbce)" style="fill: none; stroke: #94a3b8; stroke-width: 0.65"/>
    <path d="M 1181.234958 257.896299 
L 1108.199764 278.970617 
" clip-path="url(#p26d755cbce)" style="fill: none; stroke: #94a3b8; stroke-width: 0.65"/>
    <path d="M 1094.513884 413.336366 
L 1108.199764 278.970617 
" clip-path="url(#p26d755cbce)" style="fill: none; stroke: #94a3b8; stroke-width: 0.65"/>
    <path d="M 1112.137557 433.691392 
L 1108.199764 278.970617 
" clip-path="url(#p26d755cbce)" style="fill: none; stroke: #94a3b8; stroke-width: 0.65"/>
    <path d="M 1195.287028 294.077883 
L 1108.199764 278.970617 
" clip-path="url(#p26d755cbce)" style="fill: none; stroke: #94a3b8; stroke-width: 0.65"/>
    <path d="M 1046.789809 240.405249 
L 1108.199764 278.970617 
" clip-path="url(#p26d755cbce)" style="fill: none; stroke: #94a3b8; stroke-width: 0.65"/>
    <path d="M 1109.044134 496.954554 
L 1086.094566 354.914189 
" clip-path="url(#p26d755cbce)" style="fill: none; stroke: #94a3b8; stroke-width: 0.65"/>
    <path d="M 967.130019 338.448579 
L 1086.094566 354.914189 
" clip-path="url(#p26d755cbce)" style="fill: none; stroke: #94a3b8; stroke-width: 0.65"/>
    <path d="M 1058.573676 429.535918 
L 1086.094566 354.914189 
" clip-path="url(#p26d755cbce)" style="fill: none; stroke: #94a3b8; stroke-width: 0.65"/>
    <path d="M 1041.511666 396.81972 
L 1086.094566 354.914189 
" clip-path="url(#p26d755cbce)" style="fill: none; stroke: #94a3b8; stroke-width: 0.65"/>
    <path d="M 1066.992356 459.941009 
L 1086.094566 354.914189 
" clip-path="url(#p26d755cbce)" style="fill: none; stroke: #94a3b8; stroke-width: 0.65"/>
    <path d="M 1107.542598 227.526067 
L 1086.094566 354.914189 
" clip-path="url(#p26d755cbce)" style="fill: none; stroke: #94a3b8; stroke-width: 0.65"/>
    <path d="M 1028.559687 201.083822 
L 1086.094566 354.914189 
" clip-path="url(#p26d755cbce)" style="fill: none; stroke: #94a3b8; stroke-width: 0.65"/>
    <path d="M 1175.920367 377.539761 
L 1086.094566 354.914189 
" clip-path="url(#p26d755cbce)" style="fill: none; stroke: #94a3b8; stroke-width: 0.65"/>
    <path d="M 1082.922955 249.962231 
L 1086.094566 354.914189 
" clip-path="url(#p26d755cbce)" style="fill: none; stroke: #94a3b8; stroke-width: 0.65"/>
    <path d="M 998.666463 250.632474 
L 1086.094566 354.914189 
" clip-path="url(#p26d755cbce)" style="fill: none; stroke: #94a3b8; stroke-width: 0.65"/>
    <path d="M 1094.513884 413.336366 
L 1086.094566 354.914189 
" clip-path="url(#p26d755cbce)" style="fill: none; stroke: #94a3b8; stroke-width: 0.65"/>
    <path d="M 1012.781985 290.876666 
L 1086.094566 354.914189 
" clip-path="url(#p26d755cbce)" style="fill: none; stroke: #94a3b8; stroke-width: 0.65"/>
    <path d="M 1203.702443 333.846477 
L 1086.094566 354.914189 
" clip-path="url(#p26d755cbce)" style="fill: none; stroke: #94a3b8; stroke-width: 0.65"/>
    <path d="M 1164.953941 456.88081 
L 1086.094566 354.914189 
" clip-path="url(#p26d755cbce)" style="fill: none; stroke: #94a3b8; stroke-width: 0.65"/>
    <path d="M 1057.196523 521.558285 
L 1086.094566 354.914189 
" clip-path="url(#p26d755cbce)" style="fill: none; stroke: #94a3b8; stroke-width: 0.65"/>
    <path d="M 950.671928 368.946684 
L 1086.094566 354.914189 
" clip-path="url(#p26d755cbce)" style="fill: none; stroke: #94a3b8; stroke-width: 0.65"/>
    <path d="M 1046.789809 240.405249 
L 1086.094566 354.914189 
" clip-path="url(#p26d755cbce)" style="fill: none; stroke: #94a3b8; stroke-width: 0.65"/>
    <path d="M 958.321623 277.116818 
L 1086.094566 354.914189 
" clip-path="url(#p26d755cbce)" style="fill: none; stroke: #94a3b8; stroke-width: 0.65"/>
    <path d="M 936.45314 422.543291 
L 1086.094566 354.914189 
" clip-path="url(#p26d755cbce)" style="fill: none; stroke: #94a3b8; stroke-width: 0.65"/>
    <path d="M 1147.960985 242.332666 
L 1086.094566 354.914189 
" clip-path="url(#p26d755cbce)" style="fill: none; stroke: #94a3b8; stroke-width: 0.65"/>
    <path d="M 973.126437 391.1882 
L 1086.094566 354.914189 
" clip-path="url(#p26d755cbce)" style="fill: none; stroke: #94a3b8; stroke-width: 0.65"/>
    <path d="M 1003.187208 412.521489 
L 1086.094566 354.914189 
" clip-path="url(#p26d755cbce)" style="fill: none; stroke: #94a3b8; stroke-width: 0.65"/>
    <path d="M 1095.873803 469.966457 
L 1086.094566 354.914189 
" clip-path="url(#p26d755cbce)" style="fill: none; stroke: #94a3b8; stroke-width: 0.65"/>
    <path d="M 1161.408804 324.697622 
L 1086.094566 354.914189 
" clip-path="url(#p26d755cbce)" style="fill: none; stroke: #94a3b8; stroke-width: 0.65"/>
    <path d="M 1013.172243 454.949319 
L 1086.094566 354.914189 
" clip-path="url(#p26d755cbce)" style="fill: none; stroke: #94a3b8; stroke-width: 0.65"/>
    <path d="M 1181.234958 257.896299 
L 1086.094566 354.914189 
" clip-path="url(#p26d755cbce)" style="fill: none; stroke: #94a3b8; stroke-width: 0.65"/>
    <path d="M 1112.137557 433.691392 
L 1086.094566 354.914189 
" clip-path="url(#p26d755cbce)" style="fill: none; stroke: #94a3b8; stroke-width: 0.65"/>
    <path d="M 1241.4319 305.387754 
L 1086.094566 354.914189 
" clip-path="url(#p26d755cbce)" style="fill: none; stroke: #94a3b8; stroke-width: 0.65"/>
    <path d="M 1195.287028 294.077883 
L 1086.094566 354.914189 
" clip-path="url(#p26d755cbce)" style="fill: none; stroke: #94a3b8; stroke-width: 0.65"/>
    <path d="M 1242.932023 410.732046 
L 1086.094566 354.914189 
" clip-path="url(#p26d755cbce)" style="fill: none; stroke: #94a3b8; stroke-width: 0.65"/>
    <path d="M 1234.864089 362.678468 
L 1086.094566 354.914189 
" clip-path="url(#p26d755cbce)" style="fill: none; stroke: #94a3b8; stroke-width: 0.65"/>
    <path d="M 1109.044134 496.954554 
L 1152.638732 415.84685 
" clip-path="url(#p26d755cbce)" style="fill: none; stroke: #94a3b8; stroke-width: 0.65"/>
    <path d="M 1066.992356 459.941009 
L 1152.638732 415.84685 
" clip-path="url(#p26d755cbce)" style="fill: none; stroke: #94a3b8; stroke-width: 0.65"/>
    <path d="M 1058.573676 429.535918 
L 1152.638732 415.84685 
" clip-path="url(#p26d755cbce)" style="fill: none; stroke: #94a3b8; stroke-width: 0.65"/>
    <path d="M 1041.511666 396.81972 
L 1152.638732 415.84685 
" clip-path="url(#p26d755cbce)" style="fill: none; stroke: #94a3b8; stroke-width: 0.65"/>
    <path d="M 1161.408804 324.697622 
L 1152.638732 415.84685 
" clip-path="url(#p26d755cbce)" style="fill: none; stroke: #94a3b8; stroke-width: 0.65"/>
    <path d="M 1175.920367 377.539761 
L 1152.638732 415.84685 
" clip-path="url(#p26d755cbce)" style="fill: none; stroke: #94a3b8; stroke-width: 0.65"/>
    <path d="M 1013.172243 454.949319 
L 1152.638732 415.84685 
" clip-path="url(#p26d755cbce)" style="fill: none; stroke: #94a3b8; stroke-width: 0.65"/>
    <path d="M 1094.513884 413.336366 
L 1152.638732 415.84685 
" clip-path="url(#p26d755cbce)" style="fill: none; stroke: #94a3b8; stroke-width: 0.65"/>
    <path d="M 1195.287028 294.077883 
L 1152.638732 415.84685 
" clip-path="url(#p26d755cbce)" style="fill: none; stroke: #94a3b8; stroke-width: 0.65"/>
    <path d="M 1112.137557 433.691392 
L 1152.638732 415.84685 
" clip-path="url(#p26d755cbce)" style="fill: none; stroke: #94a3b8; stroke-width: 0.65"/>
    <path d="M 1012.781985 290.876666 
L 1152.638732 415.84685 
" clip-path="url(#p26d755cbce)" style="fill: none; stroke: #94a3b8; stroke-width: 0.65"/>
    <path d="M 1203.702443 333.846477 
L 1152.638732 415.84685 
" clip-path="url(#p26d755cbce)" style="fill: none; stroke: #94a3b8; stroke-width: 0.65"/>
    <path d="M 1234.864089 362.678468 
L 1152.638732 415.84685 
" clip-path="url(#p26d755cbce)" style="fill: none; stroke: #94a3b8; stroke-width: 0.65"/>
    <path d="M 1109.044134 496.954554 
L 974.839992 483.411664 
" clip-path="url(#p26d755cbce)" style="fill: none; stroke: #94a3b8; stroke-width: 0.65"/>
    <path d="M 828.867977 597.922152 
L 974.839992 483.411664 
" clip-path="url(#p26d755cbce)" style="fill: none; stroke: #94a3b8; stroke-width: 0.65"/>
    <path d="M 967.130019 338.448579 
L 974.839992 483.411664 
" clip-path="url(#p26d755cbce)" style="fill: none; stroke: #94a3b8; stroke-width: 0.65"/>
    <path d="M 1066.992356 459.941009 
L 974.839992 483.411664 
" clip-path="url(#p26d755cbce)" style="fill: none; stroke: #94a3b8; stroke-width: 0.65"/>
    <path d="M 1058.573676 429.535918 
L 974.839992 483.411664 
" clip-path="url(#p26d755cbce)" style="fill: none; stroke: #94a3b8; stroke-width: 0.65"/>
    <path d="M 1041.511666 396.81972 
L 974.839992 483.411664 
" clip-path="url(#p26d755cbce)" style="fill: none; stroke: #94a3b8; stroke-width: 0.65"/>
    <path d="M 1094.513884 413.336366 
L 974.839992 483.411664 
" clip-path="url(#p26d755cbce)" style="fill: none; stroke: #94a3b8; stroke-width: 0.65"/>
    <path d="M 950.671928 368.946684 
L 974.839992 483.411664 
" clip-path="url(#p26d755cbce)" style="fill: none; stroke: #94a3b8; stroke-width: 0.65"/>
    <path d="M 850.188655 474.609336 
L 974.839992 483.411664 
" clip-path="url(#p26d755cbce)" style="fill: none; stroke: #94a3b8; stroke-width: 0.65"/>
    <path d="M 936.45314 422.543291 
L 974.839992 483.411664 
" clip-path="url(#p26d755cbce)" style="fill: none; stroke: #94a3b8; stroke-width: 0.65"/>
    <path d="M 973.126437 391.1882 
L 974.839992 483.411664 
" clip-path="url(#p26d755cbce)" style="fill: none; stroke: #94a3b8; stroke-width: 0.65"/>
    <path d="M 1003.187208 412.521489 
L 974.839992 483.411664 
" clip-path="url(#p26d755cbce)" style="fill: none; stroke: #94a3b8; stroke-width: 0.65"/>
    <path d="M 1095.873803 469.966457 
L 974.839992 483.411664 
" clip-path="url(#p26d755cbce)" style="fill: none; stroke: #94a3b8; stroke-width: 0.65"/>
    <path d="M 1013.172243 454.949319 
L 974.839992 483.411664 
" clip-path="url(#p26d755cbce)" style="fill: none; stroke: #94a3b8; stroke-width: 0.65"/>
    <path d="M 890.267709 646.676178 
L 974.839992 483.411664 
" clip-path="url(#p26d755cbce)" style="fill: none; stroke: #94a3b8; stroke-width: 0.65"/>
    <path d="M 1112.137557 433.691392 
L 974.839992 483.411664 
" clip-path="url(#p26d755cbce)" style="fill: none; stroke: #94a3b8; stroke-width: 0.65"/>
    <path d="M 1066.992356 459.941009 
L 1103.461887 352.590235 
" clip-path="url(#p26d755cbce)" style="fill: none; stroke: #94a3b8; stroke-width: 0.65"/>
    <path d="M 1058.573676 429.535918 
L 1103.461887 352.590235 
" clip-path="url(#p26d755cbce)" style="fill: none; stroke: #94a3b8; stroke-width: 0.65"/>
    <path d="M 1041.511666 396.81972 
L 1103.461887 352.590235 
" clip-path="url(#p26d755cbce)" style="fill: none; stroke: #94a3b8; stroke-width: 0.65"/>
    <path d="M 1175.920367 377.539761 
L 1103.461887 352.590235 
" clip-path="url(#p26d755cbce)" style="fill: none; stroke: #94a3b8; stroke-width: 0.65"/>
    <path d="M 1082.922955 249.962231 
L 1103.461887 352.590235 
" clip-path="url(#p26d755cbce)" style="fill: none; stroke: #94a3b8; stroke-width: 0.65"/>
    <path d="M 1094.513884 413.336366 
L 1103.461887 352.590235 
" clip-path="url(#p26d755cbce)" style="fill: none; stroke: #94a3b8; stroke-width: 0.65"/>
    <path d="M 1203.702443 333.846477 
L 1103.461887 352.590235 
" clip-path="url(#p26d755cbce)" style="fill: none; stroke: #94a3b8; stroke-width: 0.65"/>
    <path d="M 1164.953941 456.88081 
L 1103.461887 352.590235 
" clip-path="url(#p26d755cbce)" style="fill: none; stroke: #94a3b8; stroke-width: 0.65"/>
    <path d="M 950.671928 368.946684 
L 1103.461887 352.590235 
" clip-path="url(#p26d755cbce)" style="fill: none; stroke: #94a3b8; stroke-width: 0.65"/>
    <path d="M 1046.789809 240.405249 
L 1103.461887 352.590235 
" clip-path="url(#p26d755cbce)" style="fill: none; stroke: #94a3b8; stroke-width: 0.65"/>
    <path d="M 973.126437 391.1882 
L 1103.461887 352.590235 
" clip-path="url(#p26d755cbce)" style="fill: none; stroke: #94a3b8; stroke-width: 0.65"/>
    <path d="M 1003.187208 412.521489 
L 1103.461887 352.590235 
" clip-path="url(#p26d755cbce)" style="fill: none; stroke: #94a3b8; stroke-width: 0.65"/>
    <path d="M 1095.873803 469.966457 
L 1103.461887 352.590235 
" clip-path="url(#p26d755cbce)" style="fill: none; stroke: #94a3b8; stroke-width: 0.65"/>
    <path d="M 1161.408804 324.697622 
L 1103.461887 352.590235 
" clip-path="url(#p26d755cbce)" style="fill: none; stroke: #94a3b8; stroke-width: 0.65"/>
    <path d="M 1112.137557 433.691392 
L 1103.461887 352.590235 
" clip-path="url(#p26d755cbce)" style="fill: none; stroke: #94a3b8; stroke-width: 0.65"/>
    <path d="M 1195.287028 294.077883 
L 1103.461887 352.590235 
" clip-path="url(#p26d755cbce)" style="fill: none; stroke: #94a3b8; stroke-width: 0.65"/>
    <path d="M 998.666463 250.632474 
L 1103.461887 352.590235 
" clip-path="url(#p26d755cbce)" style="fill: none; stroke: #94a3b8; stroke-width: 0.65"/>
    <path d="M 1234.864089 362.678468 
L 1103.461887 352.590235 
" clip-path="url(#p26d755cbce)" style="fill: none; stroke: #94a3b8; stroke-width: 0.65"/>
    <path d="M 1058.573676 429.535918 
L 1038.662524 354.870404 
" clip-path="url(#p26d755cbce)" style="fill: none; stroke: #94a3b8; stroke-width: 0.65"/>
    <path d="M 1041.511666 396.81972 
L 1038.662524 354.870404 
" clip-path="url(#p26d755cbce)" style="fill: none; stroke: #94a3b8; stroke-width: 0.65"/>
    <path d="M 1066.992356 459.941009 
L 1038.662524 354.870404 
" clip-path="url(#p26d755cbce)" style="fill: none; stroke: #94a3b8; stroke-width: 0.65"/>
    <path d="M 1107.542598 227.526067 
L 1038.662524 354.870404 
" clip-path="url(#p26d755cbce)" style="fill: none; stroke: #94a3b8; stroke-width: 0.65"/>
    <path d="M 1175.920367 377.539761 
L 1038.662524 354.870404 
" clip-path="url(#p26d755cbce)" style="fill: none; stroke: #94a3b8; stroke-width: 0.65"/>
    <path d="M 1082.922955 249.962231 
L 1038.662524 354.870404 
" clip-path="url(#p26d755cbce)" style="fill: none; stroke: #94a3b8; stroke-width: 0.65"/>
    <path d="M 1094.513884 413.336366 
L 1038.662524 354.870404 
" clip-path="url(#p26d755cbce)" style="fill: none; stroke: #94a3b8; stroke-width: 0.65"/>
    <path d="M 1012.781985 290.876666 
L 1038.662524 354.870404 
" clip-path="url(#p26d755cbce)" style="fill: none; stroke: #94a3b8; stroke-width: 0.65"/>
    <path d="M 1164.953941 456.88081 
L 1038.662524 354.870404 
" clip-path="url(#p26d755cbce)" style="fill: none; stroke: #94a3b8; stroke-width: 0.65"/>
    <path d="M 1046.789809 240.405249 
L 1038.662524 354.870404 
" clip-path="url(#p26d755cbce)" style="fill: none; stroke: #94a3b8; stroke-width: 0.65"/>
    <path d="M 958.321623 277.116818 
L 1038.662524 354.870404 
" clip-path="url(#p26d755cbce)" style="fill: none; stroke: #94a3b8; stroke-width: 0.65"/>
    <path d="M 850.188655 474.609336 
L 1038.662524 354.870404 
" clip-path="url(#p26d755cbce)" style="fill: none; stroke: #94a3b8; stroke-width: 0.65"/>
    <path d="M 1147.960985 242.332666 
L 1038.662524 354.870404 
" clip-path="url(#p26d755cbce)" style="fill: none; stroke: #94a3b8; stroke-width: 0.65"/>
    <path d="M 973.126437 391.1882 
L 1038.662524 354.870404 
" clip-path="url(#p26d755cbce)" style="fill: none; stroke: #94a3b8; stroke-width: 0.65"/>
    <path d="M 1003.187208 412.521489 
L 1038.662524 354.870404 
" clip-path="url(#p26d755cbce)" style="fill: none; stroke: #94a3b8; stroke-width: 0.65"/>
    <path d="M 1095.873803 469.966457 
L 1038.662524 354.870404 
" clip-path="url(#p26d755cbce)" style="fill: none; stroke: #94a3b8; stroke-width: 0.65"/>
    <path d="M 1161.408804 324.697622 
L 1038.662524 354.870404 
" clip-path="url(#p26d755cbce)" style="fill: none; stroke: #94a3b8; stroke-width: 0.65"/>
    <path d="M 1013.172243 454.949319 
L 1038.662524 354.870404 
" clip-path="url(#p26d755cbce)" style="fill: none; stroke: #94a3b8; stroke-width: 0.65"/>
    <path d="M 1112.137557 433.691392 
L 1038.662524 354.870404 
" clip-path="url(#p26d755cbce)" style="fill: none; stroke: #94a3b8; stroke-width: 0.65"/>
    <path d="M 998.666463 250.632474 
L 1038.662524 354.870404 
" clip-path="url(#p26d755cbce)" style="fill: none; stroke: #94a3b8; stroke-width: 0.65"/>
   </g>
   <g id="PathCollection_2">
    <defs>
     <path id="mf8dd1875f9" d="M -6.5 6.5 
L 6.5 6.5 
L 6.5 -6.5 
L -6.5 -6.5 
z
" style="stroke: #f8fafc; stroke-width: 0.8"/>
    </defs>
    <g clip-path="url(#p26d755cbce)">
     <use xlink:href="#mf8dd1875f9" x="1103.461887" y="352.590235" style="fill: #f59e0b; stroke: #f8fafc; stroke-width: 0.8"/>
     <use xlink:href="#mf8dd1875f9" x="1147.191421" y="355.764046" style="fill: #f59e0b; stroke: #f8fafc; stroke-width: 0.8"/>
     <use xlink:href="#mf8dd1875f9" x="1058.387593" y="324.223271" style="fill: #f59e0b; stroke: #f8fafc; stroke-width: 0.8"/>
     <use xlink:href="#mf8dd1875f9" x="1086.094566" y="354.914189" style="fill: #f59e0b; stroke: #f8fafc; stroke-width: 0.8"/>
     <use xlink:href="#mf8dd1875f9" x="1152.638732" y="415.84685" style="fill: #f59e0b; stroke: #f8fafc; stroke-width: 0.8"/>
     <use xlink:href="#mf8dd1875f9" x="1211.327744" y="415.130956" style="fill: #f59e0b; stroke: #f8fafc; stroke-width: 0.8"/>
     <use xlink:href="#mf8dd1875f9" x="1108.199764" y="278.970617" style="fill: #f59e0b; stroke: #f8fafc; stroke-width: 0.8"/>
     <use xlink:href="#mf8dd1875f9" x="1038.662524" y="354.870404" style="fill: #f59e0b; stroke: #f8fafc; stroke-width: 0.8"/>
     <use xlink:href="#mf8dd1875f9" x="974.839992" y="483.411664" style="fill: #f59e0b; stroke: #f8fafc; stroke-width: 0.8"/>
     <use xlink:href="#mf8dd1875f9" x="1237.620729" y="513.787823" style="fill: #f59e0b; stroke: #f8fafc; stroke-width: 0.8"/>
    </g>
   </g>
   <g id="PathCollection_3">
    <defs>
     <path id="m6609c2da2e" d="M 0 5 
C 1.326016 5 2.597899 4.473168 3.535534 3.535534 
C 4.473168 2.597899 5 1.326016 5 0 
C 5 -1.326016 4.473168 -2.597899 3.535534 -3.535534 
C 2.597899 -4.473168 1.326016 -5 0 -5 
C -1.326016 -5 -2.597899 -4.473168 -3.535534 -3.535534 
C -4.473168 -2.597899 -5 -1.326016 -5 0 
C -5 1.326016 -4.473168 2.597899 -3.535534 3.535534 
C -2.597899 4.473168 -1.326016 5 0 5 
z
" style="stroke: #f8fafc; stroke-width: 0.8"/>
    </defs>
    <g clip-path="url(#p26d755cbce)">
     <use xlink:href="#m6609c2da2e" x="1203.702443" y="333.846477" style="fill: #38bdf8; stroke: #f8fafc; stroke-width: 0.8"/>
     <use xlink:href="#m6609c2da2e" x="1107.542598" y="227.526067" style="fill: #38bdf8; stroke: #f8fafc; stroke-width: 0.8"/>
     <use xlink:href="#m6609c2da2e" x="967.130019" y="338.448579" style="fill: #38bdf8; stroke: #f8fafc; stroke-width: 0.8"/>
     <use xlink:href="#m6609c2da2e" x="1109.044134" y="496.954554" style="fill: #38bdf8; stroke: #f8fafc; stroke-width: 0.8"/>
     <use xlink:href="#m6609c2da2e" x="1012.781985" y="290.876666" style="fill: #38bdf8; stroke: #f8fafc; stroke-width: 0.8"/>
     <use xlink:href="#m6609c2da2e" x="1046.789809" y="240.405249" style="fill: #38bdf8; stroke: #f8fafc; stroke-width: 0.8"/>
     <use xlink:href="#m6609c2da2e" x="1175.920367" y="377.539761" style="fill: #38bdf8; stroke: #f8fafc; stroke-width: 0.8"/>
     <use xlink:href="#m6609c2da2e" x="1112.137557" y="433.691392" style="fill: #38bdf8; stroke: #f8fafc; stroke-width: 0.8"/>
     <use xlink:href="#m6609c2da2e" x="1058.573676" y="429.535918" style="fill: #38bdf8; stroke: #f8fafc; stroke-width: 0.8"/>
     <use xlink:href="#m6609c2da2e" x="1013.172243" y="454.949319" style="fill: #38bdf8; stroke: #f8fafc; stroke-width: 0.8"/>
     <use xlink:href="#m6609c2da2e" x="1041.511666" y="396.81972" style="fill: #38bdf8; stroke: #f8fafc; stroke-width: 0.8"/>
     <use xlink:href="#m6609c2da2e" x="958.321623" y="277.116818" style="fill: #38bdf8; stroke: #f8fafc; stroke-width: 0.8"/>
     <use xlink:href="#m6609c2da2e" x="1094.513884" y="413.336366" style="fill: #38bdf8; stroke: #f8fafc; stroke-width: 0.8"/>
     <use xlink:href="#m6609c2da2e" x="950.671928" y="368.946684" style="fill: #38bdf8; stroke: #f8fafc; stroke-width: 0.8"/>
     <use xlink:href="#m6609c2da2e" x="1181.234958" y="257.896299" style="fill: #38bdf8; stroke: #f8fafc; stroke-width: 0.8"/>
     <use xlink:href="#m6609c2da2e" x="973.126437" y="391.1882" style="fill: #38bdf8; stroke: #f8fafc; stroke-width: 0.8"/>
     <use xlink:href="#m6609c2da2e" x="1161.408804" y="324.697622" style="fill: #38bdf8; stroke: #f8fafc; stroke-width: 0.8"/>
     <use xlink:href="#m6609c2da2e" x="1095.873803" y="469.966457" style="fill: #38bdf8; stroke: #f8fafc; stroke-width: 0.8"/>
     <use xlink:href="#m6609c2da2e" x="1003.187208" y="412.521489" style="fill: #38bdf8; stroke: #f8fafc; stroke-width: 0.8"/>
     <use xlink:href="#m6609c2da2e" x="1241.4319" y="305.387754" style="fill: #38bdf8; stroke: #f8fafc; stroke-width: 0.8"/>
     <use xlink:href="#m6609c2da2e" x="1066.992356" y="459.941009" style="fill: #38bdf8; stroke: #f8fafc; stroke-width: 0.8"/>
     <use xlink:href="#m6609c2da2e" x="1195.287028" y="294.077883" style="fill: #38bdf8; stroke: #f8fafc; stroke-width: 0.8"/>
     <use xlink:href="#m6609c2da2e" x="1082.922955" y="249.962231" style="fill: #38bdf8; stroke: #f8fafc; stroke-width: 0.8"/>
     <use xlink:href="#m6609c2da2e" x="1242.932023" y="410.732046" style="fill: #38bdf8; stroke: #f8fafc; stroke-width: 0.8"/>
     <use xlink:href="#m6609c2da2e" x="1164.953941" y="456.88081" style="fill: #38bdf8; stroke: #f8fafc; stroke-width: 0.8"/>
     <use xlink:href="#m6609c2da2e" x="1147.960985" y="242.332666" style="fill: #38bdf8; stroke: #f8fafc; stroke-width: 0.8"/>
     <use xlink:href="#m6609c2da2e" x="1234.864089" y="362.678468" style="fill: #38bdf8; stroke: #f8fafc; stroke-width: 0.8"/>
     <use xlink:href="#m6609c2da2e" x="1028.559687" y="201.083822" style="fill: #38bdf8; stroke: #f8fafc; stroke-width: 0.8"/>
     <use xlink:href="#m6609c2da2e" x="936.45314" y="422.543291" style="fill: #38bdf8; stroke: #f8fafc; stroke-width: 0.8"/>
     <use xlink:href="#m6609c2da2e" x="998.666463" y="250.632474" style="fill: #38bdf8; stroke: #f8fafc; stroke-width: 0.8"/>
     <use xlink:href="#m6609c2da2e" x="1057.196523" y="521.558285" style="fill: #38bdf8; stroke: #f8fafc; stroke-width: 0.8"/>
     <use xlink:href="#m6609c2da2e" x="850.188655" y="474.609336" style="fill: #38bdf8; stroke: #f8fafc; stroke-width: 0.8"/>
     <use xlink:href="#m6609c2da2e" x="828.867977" y="597.922152" style="fill: #38bdf8; stroke: #f8fafc; stroke-width: 0.8"/>
     <use xlink:href="#m6609c2da2e" x="890.267709" y="646.676178" style="fill: #38bdf8; stroke: #f8fafc; stroke-width: 0.8"/>
    </g>
   </g>
   <g id="text_18">
    <text style="font-weight: 700; font-size: 15px; font-family: 'DejaVu Sans'; text-anchor: start; fill: #e5e7eb" x="696.6" y="108.72" transform="rotate(-0 696.6 108.72)">XGI bipartite incidence view</text>
   </g>
   <g id="text_19">
    <g clip-path="url(#p26d755cbce)">
     <text style="font-size: 7.6px; font-family: 'Noto Sans', 'Noto Sans CJK SC', 'Noto Sans CJK JP', 'Amiri', 'Scheherazade', 'Abyssinica SIL', 'Padauk', 'Lohit Devanagari', 'Lohit Tamil', 'Lohit Gujarati', 'Loma', 'Garuda', 'DejaVu Sans', 'Arial', 'Helvetica', sans-serif; text-anchor: middle; fill: #e5e7eb" x="1086.094566" y="356.890189" transform="rotate(-0 1086.094566 356.890189)">ODYSSEUS</text>
    </g>
   </g>
   <g id="text_20">
    <g clip-path="url(#p26d755cbce)">
     <text style="font-size: 7.6px; font-family: 'Noto Sans', 'Noto Sans CJK SC', 'Noto Sans CJK JP', 'Amiri', 'Scheherazade', 'Abyssinica SIL', 'Padauk', 'Lohit Devanagari', 'Lohit Tamil', 'Lohit Gujarati', 'Loma', 'Garuda', 'DejaVu Sans', 'Arial', 'Helvetica', sans-serif; text-anchor: middle; fill: #e5e7eb" x="974.839992" y="485.387664" transform="rotate(-0 974.839992 485.387664)">SEA</text>
    </g>
   </g>
   <g id="text_21">
    <g clip-path="url(#p26d755cbce)">
     <text style="font-size: 7.6px; font-family: 'Noto Sans', 'Noto Sans CJK SC', 'Noto Sans CJK JP', 'Amiri', 'Scheherazade', 'Abyssinica SIL', 'Padauk', 'Lohit Devanagari', 'Lohit Tamil', 'Lohit Gujarati', 'Loma', 'Garuda', 'DejaVu Sans', 'Arial', 'Helvetica', sans-serif; text-anchor: middle; fill: #e5e7eb" x="1038.662524" y="356.846404" transform="rotate(-0 1038.662524 356.846404)">ZEUS</text>
    </g>
   </g>
   <g id="text_22">
    <g clip-path="url(#p26d755cbce)">
     <text style="font-size: 7.6px; font-family: 'Noto Sans', 'Noto Sans CJK SC', 'Noto Sans CJK JP', 'Amiri', 'Scheherazade', 'Abyssinica SIL', 'Padauk', 'Lohit Devanagari', 'Lohit Tamil', 'Lohit Gujarati', 'Loma', 'Garuda', 'DejaVu Sans', 'Arial', 'Helvetica', sans-serif; text-anchor: middle; fill: #e5e7eb" x="1147.191421" y="357.740046" transform="rotate(-0 1147.191421 357.740046)">GENERIC_MAN</text>
    </g>
   </g>
   <g id="text_23">
    <g clip-path="url(#p26d755cbce)">
     <text style="font-size: 7.6px; font-family: 'Noto Sans', 'Noto Sans CJK SC', 'Noto Sans CJK JP', 'Amiri', 'Scheherazade', 'Abyssinica SIL', 'Padauk', 'Lohit Devanagari', 'Lohit Tamil', 'Lohit Gujarati', 'Loma', 'Garuda', 'DejaVu Sans', 'Arial', 'Helvetica', sans-serif; text-anchor: middle; fill: #e5e7eb" x="1103.461887" y="354.566235" transform="rotate(-0 1103.461887 354.566235)">TELEMACHUS</text>
    </g>
   </g>
   <g id="text_24">
    <g clip-path="url(#p26d755cbce)">
     <text style="font-size: 7.6px; font-family: 'Noto Sans', 'Noto Sans CJK SC', 'Noto Sans CJK JP', 'Amiri', 'Scheherazade', 'Abyssinica SIL', 'Padauk', 'Lohit Devanagari', 'Lohit Tamil', 'Lohit Gujarati', 'Loma', 'Garuda', 'DejaVu Sans', 'Arial', 'Helvetica', sans-serif; text-anchor: middle; fill: #e5e7eb" x="1108.199764" y="280.946617" transform="rotate(-0 1108.199764 280.946617)">MORTALS</text>
    </g>
   </g>
   <g id="text_25">
    <g clip-path="url(#p26d755cbce)">
     <text style="font-size: 7.6px; font-family: 'Noto Sans', 'Noto Sans CJK SC', 'Noto Sans CJK JP', 'Amiri', 'Scheherazade', 'Abyssinica SIL', 'Padauk', 'Lohit Devanagari', 'Lohit Tamil', 'Lohit Gujarati', 'Loma', 'Garuda', 'DejaVu Sans', 'Arial', 'Helvetica', sans-serif; text-anchor: middle; fill: #e5e7eb" x="1152.638732" y="417.82285" transform="rotate(-0 1152.638732 417.82285)">PALACE</text>
    </g>
   </g>
   <g id="text_26">
    <g clip-path="url(#p26d755cbce)">
     <text style="font-size: 7.6px; font-family: 'Noto Sans', 'Noto Sans CJK SC', 'Noto Sans CJK JP', 'Amiri', 'Scheherazade', 'Abyssinica SIL', 'Padauk', 'Lohit Devanagari', 'Lohit Tamil', 'Lohit Gujarati', 'Loma', 'Garuda', 'DejaVu Sans', 'Arial', 'Helvetica', sans-serif; text-anchor: middle; fill: #e5e7eb" x="1058.387593" y="326.199271" transform="rotate(-0 1058.387593 326.199271)">ATHENA</text>
    </g>
   </g>
   <g id="text_27">
    <g clip-path="url(#p26d755cbce)">
     <text style="font-size: 7.6px; font-family: 'Noto Sans', 'Noto Sans CJK SC', 'Noto Sans CJK JP', 'Amiri', 'Scheherazade', 'Abyssinica SIL', 'Padauk', 'Lohit Devanagari', 'Lohit Tamil', 'Lohit Gujarati', 'Loma', 'Garuda', 'DejaVu Sans', 'Arial', 'Helvetica', sans-serif; text-anchor: middle; fill: #e5e7eb" x="1237.620729" y="515.763823" transform="rotate(-0 1237.620729 515.763823)">GENERIC_WOMAN</text>
    </g>
   </g>
   <g id="text_28">
    <g clip-path="url(#p26d755cbce)">
     <text style="font-size: 7.6px; font-family: 'Noto Sans', 'Noto Sans CJK SC', 'Noto Sans CJK JP', 'Amiri', 'Scheherazade', 'Abyssinica SIL', 'Padauk', 'Lohit Devanagari', 'Lohit Tamil', 'Lohit Gujarati', 'Loma', 'Garuda', 'DejaVu Sans', 'Arial', 'Helvetica', sans-serif; text-anchor: middle; fill: #e5e7eb" x="1211.327744" y="417.106956" transform="rotate(-0 1211.327744 417.106956)">HOME</text>
    </g>
   </g>
   <g id="text_29">
    <g clip-path="url(#p26d755cbce)">
     <text style="font-size: 7.6px; font-family: 'Noto Sans', 'Noto Sans CJK SC', 'Noto Sans CJK JP', 'Amiri', 'Scheherazade', 'Abyssinica SIL', 'Padauk', 'Lohit Devanagari', 'Lohit Tamil', 'Lohit Gujarati', 'Loma', 'Garuda', 'DejaVu Sans', 'Arial', 'Helvetica', sans-serif; text-anchor: middle; fill: #e5e7eb" x="828.867977" y="599.898152" transform="rotate(-0 828.867977 599.898152)">gray</text>
    </g>
   </g>
   <g id="text_30">
    <g clip-path="url(#p26d755cbce)">
     <text style="font-size: 7.6px; font-family: 'Noto Sans', 'Noto Sans CJK SC', 'Noto Sans CJK JP', 'Amiri', 'Scheherazade', 'Abyssinica SIL', 'Padauk', 'Lohit Devanagari', 'Lohit Tamil', 'Lohit Gujarati', 'Loma', 'Garuda', 'DejaVu Sans', 'Arial', 'Helvetica', sans-serif; text-anchor: middle; fill: #e5e7eb" x="1003.187208" y="414.497489" transform="rotate(-0 1003.187208 414.497489)">beautiful</text>
    </g>
   </g>
   <g id="text_31">
    <g clip-path="url(#p26d755cbce)">
     <text style="font-size: 7.6px; font-family: 'Noto Sans', 'Noto Sans CJK SC', 'Noto Sans CJK JP', 'Amiri', 'Scheherazade', 'Abyssinica SIL', 'Padauk', 'Lohit Devanagari', 'Lohit Tamil', 'Lohit Gujarati', 'Loma', 'Garuda', 'DejaVu Sans', 'Arial', 'Helvetica', sans-serif; text-anchor: middle; fill: #e5e7eb" x="1041.511666" y="398.79572" transform="rotate(-0 1041.511666 398.79572)">long</text>
    </g>
   </g>
   <g id="text_32">
    <g clip-path="url(#p26d755cbce)">
     <text style="font-size: 7.6px; font-family: 'Noto Sans', 'Noto Sans CJK SC', 'Noto Sans CJK JP', 'Amiri', 'Scheherazade', 'Abyssinica SIL', 'Padauk', 'Lohit Devanagari', 'Lohit Tamil', 'Lohit Gujarati', 'Loma', 'Garuda', 'DejaVu Sans', 'Arial', 'Helvetica', sans-serif; text-anchor: middle; fill: #e5e7eb" x="1161.408804" y="326.673622" transform="rotate(-0 1161.408804 326.673622)">young</text>
    </g>
   </g>
   <g id="text_33">
    <g clip-path="url(#p26d755cbce)">
     <text style="font-size: 7.6px; font-family: 'Noto Sans', 'Noto Sans CJK SC', 'Noto Sans CJK JP', 'Amiri', 'Scheherazade', 'Abyssinica SIL', 'Padauk', 'Lohit Devanagari', 'Lohit Tamil', 'Lohit Gujarati', 'Loma', 'Garuda', 'DejaVu Sans', 'Arial', 'Helvetica', sans-serif; text-anchor: middle; fill: #e5e7eb" x="1058.573676" y="431.511918" transform="rotate(-0 1058.573676 431.511918)">just</text>
    </g>
   </g>
   <g id="text_34">
    <g clip-path="url(#p26d755cbce)">
     <text style="font-size: 7.6px; font-family: 'Noto Sans', 'Noto Sans CJK SC', 'Noto Sans CJK JP', 'Amiri', 'Scheherazade', 'Abyssinica SIL', 'Padauk', 'Lohit Devanagari', 'Lohit Tamil', 'Lohit Gujarati', 'Loma', 'Garuda', 'DejaVu Sans', 'Arial', 'Helvetica', sans-serif; text-anchor: middle; fill: #e5e7eb" x="1107.542598" y="229.502067" transform="rotate(-0 1107.542598 229.502067)">brave</text>
    </g>
   </g>
   <g id="text_35">
    <g clip-path="url(#p26d755cbce)">
     <text style="font-size: 7.6px; font-family: 'Noto Sans', 'Noto Sans CJK SC', 'Noto Sans CJK JP', 'Amiri', 'Scheherazade', 'Abyssinica SIL', 'Padauk', 'Lohit Devanagari', 'Lohit Tamil', 'Lohit Gujarati', 'Loma', 'Garuda', 'DejaVu Sans', 'Arial', 'Helvetica', sans-serif; text-anchor: middle; fill: #e5e7eb" x="1175.920367" y="379.515761" transform="rotate(-0 1175.920367 379.515761)">good</text>
    </g>
   </g>
   <g id="text_36">
    <g clip-path="url(#p26d755cbce)">
     <text style="font-size: 7.6px; font-family: 'Noto Sans', 'Noto Sans CJK SC', 'Noto Sans CJK JP', 'Amiri', 'Scheherazade', 'Abyssinica SIL', 'Padauk', 'Lohit Devanagari', 'Lohit Tamil', 'Lohit Gujarati', 'Loma', 'Garuda', 'DejaVu Sans', 'Arial', 'Helvetica', sans-serif; text-anchor: middle; fill: #e5e7eb" x="1095.873803" y="471.942457" transform="rotate(-0 1095.873803 471.942457)">angry</text>
    </g>
   </g>
   <g id="text_37">
    <g clip-path="url(#p26d755cbce)">
     <text style="font-size: 7.6px; font-family: 'Noto Sans', 'Noto Sans CJK SC', 'Noto Sans CJK JP', 'Amiri', 'Scheherazade', 'Abyssinica SIL', 'Padauk', 'Lohit Devanagari', 'Lohit Tamil', 'Lohit Gujarati', 'Loma', 'Garuda', 'DejaVu Sans', 'Arial', 'Helvetica', sans-serif; text-anchor: middle; fill: #e5e7eb" x="1066.992356" y="461.917009" transform="rotate(-0 1066.992356 461.917009)">high</text>
    </g>
   </g>
   <g id="text_38">
    <g clip-path="url(#p26d755cbce)">
     <text style="font-size: 7.6px; font-family: 'Noto Sans', 'Noto Sans CJK SC', 'Noto Sans CJK JP', 'Amiri', 'Scheherazade', 'Abyssinica SIL', 'Padauk', 'Lohit Devanagari', 'Lohit Tamil', 'Lohit Gujarati', 'Loma', 'Garuda', 'DejaVu Sans', 'Arial', 'Helvetica', sans-serif; text-anchor: middle; fill: #e5e7eb" x="1094.513884" y="415.312366" transform="rotate(-0 1094.513884 415.312366)">old</text>
    </g>
   </g>
   <g id="text_39">
    <g clip-path="url(#p26d755cbce)">
     <text style="font-size: 7.6px; font-family: 'Noto Sans', 'Noto Sans CJK SC', 'Noto Sans CJK JP', 'Amiri', 'Scheherazade', 'Abyssinica SIL', 'Padauk', 'Lohit Devanagari', 'Lohit Tamil', 'Lohit Gujarati', 'Loma', 'Garuda', 'DejaVu Sans', 'Arial', 'Helvetica', sans-serif; text-anchor: middle; fill: #e5e7eb" x="1112.137557" y="435.667392" transform="rotate(-0 1112.137557 435.667392)">great</text>
    </g>
   </g>
   <g id="text_40">
    <g clip-path="url(#p26d755cbce)">
     <text style="font-size: 7.6px; font-family: 'Noto Sans', 'Noto Sans CJK SC', 'Noto Sans CJK JP', 'Amiri', 'Scheherazade', 'Abyssinica SIL', 'Padauk', 'Lohit Devanagari', 'Lohit Tamil', 'Lohit Gujarati', 'Loma', 'Garuda', 'DejaVu Sans', 'Arial', 'Helvetica', sans-serif; text-anchor: middle; fill: #e5e7eb" x="1241.4319" y="307.363754" transform="rotate(-0 1241.4319 307.363754)">glad</text>
    </g>
   </g>
   <g id="text_41">
    <g clip-path="url(#p26d755cbce)">
     <text style="font-size: 7.6px; font-family: 'Noto Sans', 'Noto Sans CJK SC', 'Noto Sans CJK JP', 'Amiri', 'Scheherazade', 'Abyssinica SIL', 'Padauk', 'Lohit Devanagari', 'Lohit Tamil', 'Lohit Gujarati', 'Loma', 'Garuda', 'DejaVu Sans', 'Arial', 'Helvetica', sans-serif; text-anchor: middle; fill: #e5e7eb" x="1195.287028" y="296.053883" transform="rotate(-0 1195.287028 296.053883)">kind</text>
    </g>
   </g>
   <g id="text_42">
    <g clip-path="url(#p26d755cbce)">
     <text style="font-size: 7.6px; font-family: 'Noto Sans', 'Noto Sans CJK SC', 'Noto Sans CJK JP', 'Amiri', 'Scheherazade', 'Abyssinica SIL', 'Padauk', 'Lohit Devanagari', 'Lohit Tamil', 'Lohit Gujarati', 'Loma', 'Garuda', 'DejaVu Sans', 'Arial', 'Helvetica', sans-serif; text-anchor: middle; fill: #e5e7eb" x="1203.702443" y="335.822477" transform="rotate(-0 1203.702443 335.822477)">able</text>
    </g>
   </g>
   <g id="text_43">
    <g clip-path="url(#p26d755cbce)">
     <text style="font-size: 7.6px; font-family: 'Noto Sans', 'Noto Sans CJK SC', 'Noto Sans CJK JP', 'Amiri', 'Scheherazade', 'Abyssinica SIL', 'Padauk', 'Lohit Devanagari', 'Lohit Tamil', 'Lohit Gujarati', 'Loma', 'Garuda', 'DejaVu Sans', 'Arial', 'Helvetica', sans-serif; text-anchor: middle; fill: #e5e7eb" x="1057.196523" y="523.534285" transform="rotate(-0 1057.196523 523.534285)">noble</text>
    </g>
   </g>
   <g id="text_44">
    <g clip-path="url(#p26d755cbce)">
     <text style="font-size: 7.6px; font-family: 'Noto Sans', 'Noto Sans CJK SC', 'Noto Sans CJK JP', 'Amiri', 'Scheherazade', 'Abyssinica SIL', 'Padauk', 'Lohit Devanagari', 'Lohit Tamil', 'Lohit Gujarati', 'Loma', 'Garuda', 'DejaVu Sans', 'Arial', 'Helvetica', sans-serif; text-anchor: middle; fill: #e5e7eb" x="936.45314" y="424.519291" transform="rotate(-0 936.45314 424.519291)">deep</text>
    </g>
   </g>
  </g>
  <g id="text_45">
   <text style="font-weight: 700; font-size: 22px; font-family: 'DejaVu Sans'; text-anchor: start; fill: #e5e7eb" x="18" y="23.916562" transform="rotate(-0 18 23.916562)">Samuel Butler (1900) — Native target-as-hyperedge visualization</text>
  </g>
  <g id="text_46">
   <text style="font-size: 11px; font-family: 'DejaVu Sans'; text-anchor: start; fill: #94a3b8" x="18" y="42.84" transform="rotate(-0 18 42.84)">Readable weighted core: 34 of 115 attribute nodes; 10 of 89 target hyperedges; 164 of 785 incidences.</text>
  </g>
  <g id="text_47">
   <text style="font-size: 9px; font-family: 'DejaVu Sans'; text-anchor: start; fill: #94a3b8" x="18" y="755.64" transform="rotate(-0 18 755.64)">Blue circles are attributes; amber hulls or squares are target hyperedges. Selection is ranked by summed incidence weight.</text>
  </g>
 </g>
 <defs>
  <clipPath id="pc554e67f7a">
   <rect x="7.2" y="122.72" width="678.6" height="602.32"/>
  </clipPath>
  <clipPath id="p26d755cbce">
   <rect x="696.6" y="122.72" width="678.6" height="602.32"/>
  </clipPath>
 </defs>
</svg>
