<?xml version="1.0" encoding="utf-8" standalone="no"?>
<!DOCTYPE svg PUBLIC "-//W3C//DTD SVG 1.1//EN"
  "http://www.w3.org/Graphics/SVG/1.1/DTD/svg11.dtd">
<svg xmlns:xlink="http://www.w3.org/1999/xlink" width="1382.4pt" height="764.711719pt" viewBox="0 0 1382.4 764.711719" xmlns="http://www.w3.org/2000/svg" version="1.1">
 <metadata>
  <rdf:RDF xmlns:dc="http://purl.org/dc/elements/1.1/" xmlns:cc="http://creativecommons.org/ns#" xmlns:rdf="http://www.w3.org/1999/02/22-rdf-syntax-ns#">
   <cc:Work>
    <dc:type rdf:resource="http://purl.org/dc/dcmitype/StillImage"/>
    <dc:format>image/svg+xml</dc:format>
    <dc:creator>
     <cc:Agent>
      <dc:title>Matplotlib v3.10.3, https://matplotlib.org/</dc:title>
     </cc:Agent>
    </dc:creator>
   </cc:Work>
  </rdf:RDF>
 </metadata>
 <defs>
  <style type="text/css">*{stroke-linejoin: round; stroke-linecap: butt}</style>
 </defs>
 <g id="figure_1">
  <g id="patch_1">
   <path d="M 0 764.711719
L 1382.4 764.711719
L 1382.4 0
L 0 0
z
" style="fill: #ffffff"/>
  </g>
  <g id="axes_1">
   <g id="text_1">
    <text style="font-weight: 700; font-size: 15px; font-family: 'DejaVu Sans'; text-anchor: start; fill: #111827" x="7.2" y="108.72" transform="rotate(-0 7.2 108.72)">XGI native hyperedge-hull view</text>
   </g>
   <g id="PatchCollection_1">
    <path d="M 446.885363 215.608989
L 208.909109 244.02114
L 208.253211 244.125024
L 207.60513 244.269887
L 206.967424 244.455158
L 206.342609 244.680105
L 205.733152 244.94384
L 205.141458 245.245324
L 204.569861 245.583365
L 204.020618 245.95663
L 203.495897 246.363646
L 202.997768 246.802806
L 202.528196 247.272377
L 202.089036 247.770507
L 201.68202 248.295228
L 134.636272 337.502561
L 134.263007 338.051803
L 133.924966 338.6234
L 133.623482 339.215094
L 133.359747 339.824551
L 133.1348 340.449366
L 132.949529 341.087072
L 132.804666 341.735153
L 132.700781 342.391052
L 132.638287 343.052178
L 128.91803 432.057569
L 128.897171 432.721315
L 128.91803 433.385062
L 128.980525 434.046189
L 129.084409 434.702087
L 129.229272 435.350168
L 129.414543 435.987874
L 129.63949 436.612689
L 129.903225 437.222146
L 130.204709 437.81384
L 130.54275 438.385437
L 177.877332 516.017084
L 178.250597 516.566327
L 235.239645 594.676611
L 235.64666 595.201332
L 236.08582 595.699462
L 236.555392 596.169033
L 237.053521 596.608193
L 237.578243 597.015209
L 238.127485 597.388474
L 238.699082 597.726515
L 239.290776 598.027998
L 239.900233 598.291734
L 240.525048 598.516681
L 241.162754 598.701952
L 326.118584 622.054574
L 326.766665 622.199437
L 327.422564 622.303321
L 414.042429 632.151011
L 414.703556 632.213506
L 415.367302 632.234365
L 416.031048 632.213506
L 416.692175 632.151011
L 417.348074 632.047127
L 417.996155 631.902264
L 418.633861 631.716993
L 419.258676 631.492046
L 419.868133 631.228311
L 420.459827 630.926827
L 421.031424 630.588786
L 421.580666 630.215521
L 422.105388 629.808505
L 422.603517 629.369345
L 486.431337 567.925419
L 486.900908 567.455847
L 487.340068 566.957718
L 487.747084 566.432997
L 488.120349 565.883754
L 541.438543 479.495624
L 541.776584 478.924027
L 542.078068 478.332333
L 542.341803 477.722876
L 542.56675 477.098061
L 542.752021 476.460355
L 542.896885 475.812274
L 563.915591 381.017535
L 564.019475 380.361637
L 564.08197 379.70051
L 564.102829 379.036763
L 564.08197 378.373017
L 564.019475 377.71189
L 563.915591 377.055992
L 563.770728 376.407911
L 563.585457 375.770204
L 563.36051 375.14539
L 563.096775 374.535933
L 562.795291 373.944238
L 562.45725 373.372642
L 562.083985 372.823399
L 456.762198 219.883077
L 456.355183 219.358356
L 455.916022 218.860226
L 455.446451 218.390655
L 454.948322 217.951495
L 454.4236 217.544479
L 453.874357 217.171214
L 453.302761 216.833173
L 452.711067 216.531689
L 452.101609 216.267954
L 451.476795 216.043007
L 450.839089 215.857736
L 450.191008 215.712873
L 449.535109 215.608989
L 448.873982 215.546494
L 448.210236 215.525635
L 447.546489 215.546494
z
" clip-path="url(#pc554e67f7a)" style="fill: #f59e0b; fill-opacity: 0.13; stroke: #d97706; stroke-opacity: 0.13; stroke-width: 0.8"/>
    <path d="M 289.096641 260.35631
L 177.237807 505.852132
L 176.974072 506.461589
L 176.749124 507.086403
L 176.563854 507.72411
L 176.41899 508.372191
L 176.315106 509.028089
L 176.252611 509.689216
L 176.231752 510.352962
L 176.252611 511.016709
L 176.315106 511.677836
L 176.41899 512.333734
L 176.563854 512.981815
L 176.749124 513.619521
L 176.974072 514.244336
L 177.237807 514.853793
L 177.53929 515.445487
L 177.877332 516.017084
L 178.250597 516.566327
L 235.239645 594.676611
L 235.64666 595.201332
L 236.08582 595.699462
L 236.555392 596.169033
L 237.053521 596.608193
L 237.578243 597.015209
L 238.127485 597.388474
L 238.699082 597.726515
L 239.290776 598.027998
L 239.900233 598.291734
L 240.525048 598.516681
L 241.162754 598.701952
L 326.118584 622.054574
L 326.766665 622.199437
L 327.422564 622.303321
L 414.042429 632.151011
L 414.703556 632.213506
L 415.367302 632.234365
L 416.031048 632.213506
L 416.692175 632.151011
L 417.348074 632.047127
L 417.996155 631.902264
L 418.633861 631.716993
L 419.258676 631.492046
L 419.868133 631.228311
L 420.459827 630.926827
L 421.031424 630.588786
L 421.580666 630.215521
L 422.105388 629.808505
L 422.603517 629.369345
L 486.431337 567.925419
L 486.900908 567.455847
L 487.340068 566.957718
L 487.747084 566.432997
L 488.120349 565.883754
L 541.438543 479.495624
L 541.776584 478.924027
L 542.078068 478.332333
L 542.341803 477.722876
L 542.56675 477.098061
L 542.752021 476.460355
L 542.896885 475.812274
L 563.915591 381.017535
L 564.019475 380.361637
L 564.08197 379.70051
L 564.102829 379.036763
L 564.08197 378.373017
L 564.019475 377.71189
L 563.915591 377.055992
L 563.770728 376.407911
L 563.585457 375.770204
L 563.36051 375.14539
L 563.096775 374.535933
L 562.795291 373.944238
L 562.45725 373.372642
L 562.083985 372.823399
L 561.676969 372.298677
L 561.237809 371.800548
L 560.768238 371.330977
L 430.426349 255.185938
L 429.928219 254.746777
L 429.403498 254.339762
L 428.854255 253.966497
L 428.282658 253.628455
L 427.690964 253.326972
L 427.081507 253.063236
L 426.456692 252.838289
L 425.818986 252.653019
L 425.170905 252.508155
L 424.515007 252.404271
L 423.85388 252.341776
L 423.190133 252.320917
L 298.661393 254.286333
L 297.997647 254.307192
L 297.33652 254.369687
L 296.680621 254.473571
L 296.03254 254.618435
L 295.394834 254.803705
L 294.77002 255.028653
L 294.160563 255.292388
L 293.568868 255.593872
L 292.997272 255.931913
L 292.448029 256.305178
L 291.923307 256.712194
L 291.425178 257.151354
L 290.955607 257.620925
L 290.516447 258.119054
L 290.109431 258.643776
L 289.736166 259.193019
L 289.398125 259.764615
z
" clip-path="url(#pc554e67f7a)" style="fill: #f59e0b; fill-opacity: 0.13; stroke: #d97706; stroke-opacity: 0.13; stroke-width: 0.8"/>
    <path d="M 417.526012 253.966497
L 133.803856 423.796088
L 133.254613 424.169353
L 132.729891 424.576369
L 132.231762 425.015529
L 131.762191 425.4851
L 131.323031 425.983229
L 130.916015 426.507951
L 130.54275 427.057194
L 130.204709 427.62879
L 129.903225 428.220485
L 129.63949 428.829942
L 129.414543 429.454756
L 129.229272 430.092462
L 129.084409 430.740543
L 128.980525 431.396442
L 128.91803 432.057569
L 128.897171 432.721315
L 128.91803 433.385062
L 128.980525 434.046189
L 129.084409 434.702087
L 129.229272 435.350168
L 129.414543 435.987874
L 129.63949 436.612689
L 129.903225 437.222146
L 130.204709 437.81384
L 130.54275 438.385437
L 177.877332 516.017084
L 178.250597 516.566327
L 235.239645 594.676611
L 235.64666 595.201332
L 236.08582 595.699462
L 236.555392 596.169033
L 237.053521 596.608193
L 237.578243 597.015209
L 238.127485 597.388474
L 238.699082 597.726515
L 239.290776 598.027998
L 239.900233 598.291734
L 240.525048 598.516681
L 241.162754 598.701952
L 326.118584 622.054574
L 326.766665 622.199437
L 327.422564 622.303321
L 414.042429 632.151011
L 414.703556 632.213506
L 415.367302 632.234365
L 416.031048 632.213506
L 416.692175 632.151011
L 417.348074 632.047127
L 417.996155 631.902264
L 418.633861 631.716993
L 419.258676 631.492046
L 419.868133 631.228311
L 420.459827 630.926827
L 421.031424 630.588786
L 421.580666 630.215521
L 422.105388 629.808505
L 422.603517 629.369345
L 486.431337 567.925419
L 486.900908 567.455847
L 487.340068 566.957718
L 487.747084 566.432997
L 488.120349 565.883754
L 488.45839 565.312157
L 488.759874 564.720463
L 489.023609 564.111006
L 521.154082 475.12649
L 521.379029 474.501675
L 521.5643 473.863969
L 521.709163 473.215888
L 521.813047 472.559989
L 521.875542 471.898863
L 521.896401 471.235116
L 521.875542 470.57137
L 521.813047 469.910243
L 521.709163 469.254344
L 521.5643 468.606263
L 492.208686 350.970229
L 492.023415 350.332522
L 491.798468 349.707708
L 491.534732 349.098251
L 491.233249 348.506556
L 490.895208 347.93496
L 432.115361 257.227603
L 431.742096 256.67836
L 431.33508 256.153638
L 430.89592 255.655509
L 430.426349 255.185938
L 429.928219 254.746777
L 429.403498 254.339762
L 428.854255 253.966497
L 428.282658 253.628455
L 427.690964 253.326972
L 427.081507 253.063236
L 426.456692 252.838289
L 425.818986 252.653019
L 425.170905 252.508155
L 424.515007 252.404271
L 423.85388 252.341776
L 423.190133 252.320917
L 422.526387 252.341776
L 421.86526 252.404271
L 421.209362 252.508155
L 420.561281 252.653019
L 419.923574 252.838289
L 419.29876 253.063236
L 418.689303 253.326972
L 418.097608 253.628455
z
" clip-path="url(#pc554e67f7a)" style="fill: #f59e0b; fill-opacity: 0.13; stroke: #d97706; stroke-opacity: 0.13; stroke-width: 0.8"/>
    <path d="M 241.162754 598.701952
L 326.118584 622.054574
L 326.766665 622.199437
L 327.422564 622.303321
L 328.08369 622.365816
L 328.747437 622.386675
L 329.411183 622.365816
L 330.07231 622.303321
L 330.728209 622.199437
L 331.37629 622.054574
L 332.013996 621.869303
L 332.63881 621.644356
L 333.248268 621.38062
L 333.839962 621.079137
L 334.411558 620.741096
L 334.960801 620.367831
L 335.485523 619.960815
L 335.983652 619.521655
L 336.453223 619.052084
L 336.892384 618.553954
L 419.451985 524.665082
L 419.859001 524.14036
L 420.232266 523.591117
L 420.570307 523.019521
L 420.87179 522.427826
L 421.135526 521.818369
L 421.360473 521.193555
L 479.931539 350.020874
L 480.11681 349.383167
L 480.261673 348.735086
L 480.365557 348.079188
L 480.428052 347.418061
L 480.448911 346.754315
L 480.428052 346.090568
L 480.365557 345.429441
L 480.261673 344.773543
L 480.11681 344.125462
L 479.931539 343.487756
L 479.706592 342.862941
L 479.442856 342.253484
L 479.141373 341.66179
L 478.803331 341.090193
L 478.430066 340.54095
L 478.023051 340.016229
L 477.583891 339.5181
L 477.114319 339.048528
L 476.61619 338.609368
L 476.091468 338.202352
L 475.542226 337.829087
L 474.970629 337.491046
L 474.378935 337.189563
L 303.162224 255.292388
L 302.552767 255.028653
L 301.927952 254.803705
L 301.290246 254.618435
L 300.642165 254.473571
L 299.986267 254.369687
L 211.558856 244.02114
L 210.897729 243.958645
L 210.233983 243.937786
L 209.570236 243.958645
L 208.909109 244.02114
L 208.253211 244.125024
L 207.60513 244.269887
L 206.967424 244.455158
L 206.342609 244.680105
L 205.733152 244.94384
L 205.141458 245.245324
L 204.569861 245.583365
L 204.020618 245.95663
L 203.495897 246.363646
L 202.997768 246.802806
L 202.528196 247.272377
L 202.089036 247.770507
L 201.68202 248.295228
L 134.636272 337.502561
L 134.263007 338.051803
L 133.924966 338.6234
L 133.623482 339.215094
L 133.359747 339.824551
L 133.1348 340.449366
L 132.949529 341.087072
L 132.804666 341.735153
L 132.700781 342.391052
L 132.638287 343.052178
L 128.91803 432.057569
L 128.897171 432.721315
L 128.91803 433.385062
L 128.980525 434.046189
L 129.084409 434.702087
L 129.229272 435.350168
L 129.414543 435.987874
L 129.63949 436.612689
L 129.903225 437.222146
L 130.204709 437.81384
L 130.54275 438.385437
L 177.877332 516.017084
L 178.250597 516.566327
L 235.239645 594.676611
L 235.64666 595.201332
L 236.08582 595.699462
L 236.555392 596.169033
L 237.053521 596.608193
L 237.578243 597.015209
L 238.127485 597.388474
L 238.699082 597.726515
L 239.290776 598.027998
L 239.900233 598.291734
L 240.525048 598.516681
z
" clip-path="url(#pc554e67f7a)" style="fill: #f59e0b; fill-opacity: 0.13; stroke: #d97706; stroke-opacity: 0.13; stroke-width: 0.8"/>
    <path d="M 199.74653 255.833466
L 239.199809 559.515852
L 239.303693 560.171751
L 239.448556 560.819832
L 239.633827 561.457538
L 239.858774 562.082353
L 240.12251 562.69181
L 240.423993 563.283504
L 240.762034 563.855101
L 241.135299 564.404343
L 241.542315 564.929065
L 241.981475 565.427194
L 242.451046 565.896766
L 242.949176 566.335926
L 243.473897 566.742941
L 244.02314 567.116206
L 244.594737 567.454248
L 245.186431 567.755731
L 332.753067 611.530943
L 333.362524 611.794678
L 333.987339 612.019626
L 334.625045 612.204896
L 335.273126 612.34976
L 335.929025 612.453644
L 336.590151 612.516139
L 337.253898 612.536998
L 337.917644 612.516139
L 338.578771 612.453644
L 339.23467 612.34976
L 339.882751 612.204896
L 340.520457 612.019626
L 341.145271 611.794678
L 341.754729 611.530943
L 342.346423 611.229459
L 342.918019 610.891418
L 538.177437 482.756729
L 538.72668 482.383464
L 539.251402 481.976449
L 539.749531 481.537289
L 540.219102 481.067717
L 540.658262 480.569588
L 541.065278 480.044866
L 541.438543 479.495624
L 541.776584 478.924027
L 542.078068 478.332333
L 542.341803 477.722876
L 542.56675 477.098061
L 542.752021 476.460355
L 542.896885 475.812274
L 563.915591 381.017535
L 564.019475 380.361637
L 564.08197 379.70051
L 564.102829 379.036763
L 564.08197 378.373017
L 564.019475 377.71189
L 563.915591 377.055992
L 563.770728 376.407911
L 563.585457 375.770204
L 563.36051 375.14539
L 563.096775 374.535933
L 562.795291 373.944238
L 562.45725 373.372642
L 562.083985 372.823399
L 561.676969 372.298677
L 561.237809 371.800548
L 560.768238 371.330977
L 560.270109 370.891817
L 559.745387 370.484801
L 559.196144 370.111536
L 558.624548 369.773495
L 558.032853 369.472011
L 303.162224 255.292388
L 302.552767 255.028653
L 301.927952 254.803705
L 301.290246 254.618435
L 300.642165 254.473571
L 299.986267 254.369687
L 211.558856 244.02114
L 210.897729 243.958645
L 210.233983 243.937786
L 209.570236 243.958645
L 208.909109 244.02114
L 208.253211 244.125024
L 207.60513 244.269887
L 206.967424 244.455158
L 206.342609 244.680105
L 205.733152 244.94384
L 205.141458 245.245324
L 204.569861 245.583365
L 204.020618 245.95663
L 203.495897 246.363646
L 202.997768 246.802806
L 202.528196 247.272377
L 202.089036 247.770507
L 201.68202 248.295228
L 201.308755 248.844471
L 200.970714 249.416067
L 200.669231 250.007762
L 200.405495 250.617219
L 200.180548 251.242033
L 199.995277 251.87974
L 199.850414 252.527821
L 199.74653 253.183719
L 199.684035 253.844846
L 199.663176 254.508592
L 199.684035 255.172339
z
" clip-path="url(#pc554e67f7a)" style="fill: #f59e0b; fill-opacity: 0.13; stroke: #d97706; stroke-opacity: 0.13; stroke-width: 0.8"/>
    <path d="M 444.318862 216.267954
L 139.296861 333.887437
L 138.687404 334.151173
L 138.095709 334.452656
L 137.524113 334.790698
L 136.97487 335.163963
L 136.450148 335.570978
L 135.952019 336.010138
L 135.482448 336.47971
L 135.043288 336.977839
L 134.636272 337.502561
L 134.263007 338.051803
L 133.924966 338.6234
L 133.623482 339.215094
L 133.359747 339.824551
L 133.1348 340.449366
L 132.949529 341.087072
L 132.804666 341.735153
L 132.700781 342.391052
L 132.638287 343.052178
L 132.617428 343.715925
L 132.638287 344.379671
L 132.700781 345.040798
L 132.804666 345.696697
L 132.949529 346.344778
L 133.1348 346.982484
L 189.008111 507.248571
L 189.233058 507.873386
L 189.496793 508.482843
L 189.798277 509.074537
L 190.136318 509.646134
L 190.509583 510.195377
L 190.916599 510.720098
L 191.355759 511.218228
L 241.981475 565.427194
L 242.451046 565.896766
L 242.949176 566.335926
L 243.473897 566.742941
L 244.02314 567.116206
L 323.083315 620.741096
L 323.654912 621.079137
L 324.246606 621.38062
L 324.856063 621.644356
L 325.480878 621.869303
L 326.118584 622.054574
L 326.766665 622.199437
L 327.422564 622.303321
L 414.042429 632.151011
L 414.703556 632.213506
L 415.367302 632.234365
L 416.031048 632.213506
L 416.692175 632.151011
L 417.348074 632.047127
L 417.996155 631.902264
L 418.633861 631.716993
L 419.258676 631.492046
L 419.868133 631.228311
L 420.459827 630.926827
L 421.031424 630.588786
L 421.580666 630.215521
L 422.105388 629.808505
L 422.603517 629.369345
L 486.431337 567.925419
L 486.900908 567.455847
L 487.340068 566.957718
L 487.747084 566.432997
L 488.120349 565.883754
L 541.438543 479.495624
L 541.776584 478.924027
L 542.078068 478.332333
L 542.341803 477.722876
L 542.56675 477.098061
L 542.752021 476.460355
L 542.896885 475.812274
L 543.000769 475.156375
L 543.063263 474.495249
L 543.084123 473.831502
L 543.063263 473.167756
L 543.000769 472.506629
L 542.896885 471.85073
L 542.752021 471.202649
L 542.56675 470.564943
L 458.263671 222.829882
L 458.038724 222.205068
L 457.774988 221.595611
L 457.473505 221.003916
L 457.135463 220.43232
L 456.762198 219.883077
L 456.355183 219.358356
L 455.916022 218.860226
L 455.446451 218.390655
L 454.948322 217.951495
L 454.4236 217.544479
L 453.874357 217.171214
L 453.302761 216.833173
L 452.711067 216.531689
L 452.101609 216.267954
L 451.476795 216.043007
L 450.839089 215.857736
L 450.191008 215.712873
L 449.535109 215.608989
L 448.873982 215.546494
L 448.210236 215.525635
L 447.546489 215.546494
L 446.885363 215.608989
L 446.229464 215.712873
L 445.581383 215.857736
L 444.943677 216.043007
z
" clip-path="url(#pc554e67f7a)" style="fill: #f59e0b; fill-opacity: 0.13; stroke: #d97706; stroke-opacity: 0.13; stroke-width: 0.8"/>
    <path d="M 486.470811 344.034329
L 303.162224 255.292388
L 302.552767 255.028653
L 301.927952 254.803705
L 301.290246 254.618435
L 300.642165 254.473571
L 299.986267 254.369687
L 299.32514 254.307192
L 298.661393 254.286333
L 297.997647 254.307192
L 297.33652 254.369687
L 296.680621 254.473571
L 296.03254 254.618435
L 295.394834 254.803705
L 294.77002 255.028653
L 294.160563 255.292388
L 138.687404 334.151173
L 138.095709 334.452656
L 137.524113 334.790698
L 136.97487 335.163963
L 136.450148 335.570978
L 135.952019 336.010138
L 135.482448 336.47971
L 135.043288 336.977839
L 134.636272 337.502561
L 134.263007 338.051803
L 133.924966 338.6234
L 133.623482 339.215094
L 133.359747 339.824551
L 133.1348 340.449366
L 132.949529 341.087072
L 132.804666 341.735153
L 132.700781 342.391052
L 132.638287 343.052178
L 128.91803 432.057569
L 128.897171 432.721315
L 128.91803 433.385062
L 128.980525 434.046189
L 129.084409 434.702087
L 129.229272 435.350168
L 129.414543 435.987874
L 129.63949 436.612689
L 129.903225 437.222146
L 130.204709 437.81384
L 130.54275 438.385437
L 177.877332 516.017084
L 178.250597 516.566327
L 178.657612 517.091048
L 179.096773 517.589177
L 179.566344 518.058749
L 180.064473 518.497909
L 180.589195 518.904925
L 243.473897 566.742941
L 244.02314 567.116206
L 323.083315 620.741096
L 323.654912 621.079137
L 324.246606 621.38062
L 324.856063 621.644356
L 325.480878 621.869303
L 326.118584 622.054574
L 326.766665 622.199437
L 327.422564 622.303321
L 328.08369 622.365816
L 328.747437 622.386675
L 329.411183 622.365816
L 330.07231 622.303321
L 330.728209 622.199437
L 331.37629 622.054574
L 451.694826 587.514452
L 452.332532 587.329181
L 452.957347 587.104234
L 453.566804 586.840499
L 454.158498 586.539015
L 454.730095 586.200974
L 455.279338 585.827709
L 455.804059 585.420693
L 456.302188 584.981533
L 456.77176 584.511962
L 457.21092 584.013833
L 457.617936 583.489111
L 457.991201 582.939868
L 458.329242 582.368272
L 458.630725 581.776577
L 458.894461 581.16712
L 459.119408 580.542306
L 459.304679 579.9046
L 459.449542 579.256518
L 459.553426 578.60062
L 492.457433 354.923955
L 492.519928 354.262828
L 492.540787 353.599081
L 492.519928 352.935335
L 492.457433 352.274208
L 492.353549 351.61831
L 492.208686 350.970229
L 492.023415 350.332522
L 491.798468 349.707708
L 491.534732 349.098251
L 491.233249 348.506556
L 490.895208 347.93496
L 490.521943 347.385717
L 490.114927 346.860996
L 489.675767 346.362866
L 489.206196 345.893295
L 488.708066 345.454135
L 488.183345 345.047119
L 487.634102 344.673854
L 487.062506 344.335813
z
" clip-path="url(#pc554e67f7a)" style="fill: #f59e0b; fill-opacity: 0.13; stroke: #d97706; stroke-opacity: 0.13; stroke-width: 0.8"/>
    <path d="M 233.734745 411.600982
L 233.2208 588.463246
L 233.241659 589.126993
L 233.304154 589.78812
L 233.408038 590.444018
L 233.552901 591.092099
L 233.738172 591.729805
L 233.963119 592.35462
L 234.226855 592.964077
L 234.528338 593.555771
L 234.86638 594.127368
L 235.239645 594.676611
L 235.64666 595.201332
L 236.08582 595.699462
L 236.555392 596.169033
L 237.053521 596.608193
L 237.578243 597.015209
L 238.127485 597.388474
L 238.699082 597.726515
L 239.290776 598.027998
L 239.900233 598.291734
L 240.525048 598.516681
L 241.162754 598.701952
L 241.810835 598.846815
L 242.466734 598.950699
L 243.12786 599.013194
L 243.791607 599.034053
L 244.455353 599.013194
L 449.72972 587.825695
L 450.390847 587.7632
L 451.046745 587.659316
L 451.694826 587.514452
L 452.332532 587.329181
L 452.957347 587.104234
L 453.566804 586.840499
L 454.158498 586.539015
L 484.287647 569.482901
L 484.859243 569.14486
L 485.408486 568.771595
L 485.933208 568.364579
L 486.431337 567.925419
L 486.900908 567.455847
L 487.340068 566.957718
L 487.747084 566.432997
L 488.120349 565.883754
L 541.438543 479.495624
L 541.776584 478.924027
L 542.078068 478.332333
L 542.341803 477.722876
L 542.56675 477.098061
L 542.752021 476.460355
L 542.896885 475.812274
L 543.000769 475.156375
L 543.063263 474.495249
L 543.084123 473.831502
L 543.063263 473.167756
L 543.000769 472.506629
L 542.896885 471.85073
L 542.752021 471.202649
L 542.56675 470.564943
L 458.263671 222.829882
L 458.038724 222.205068
L 457.774988 221.595611
L 457.473505 221.003916
L 457.135463 220.43232
L 456.762198 219.883077
L 456.355183 219.358356
L 455.916022 218.860226
L 455.446451 218.390655
L 454.948322 217.951495
L 454.4236 217.544479
L 453.874357 217.171214
L 453.302761 216.833173
L 452.711067 216.531689
L 452.101609 216.267954
L 451.476795 216.043007
L 450.839089 215.857736
L 450.191008 215.712873
L 449.535109 215.608989
L 448.873982 215.546494
L 448.210236 215.525635
L 447.546489 215.546494
L 446.885363 215.608989
L 446.229464 215.712873
L 445.581383 215.857736
L 444.943677 216.043007
L 444.318862 216.267954
L 443.709405 216.531689
L 443.117711 216.833173
L 442.546114 217.171214
L 441.996872 217.544479
L 441.47215 217.951495
L 253.954085 365.510904
L 253.455955 365.950064
L 252.986384 366.419635
L 252.547224 366.917764
L 252.140208 367.442486
L 251.766943 367.991729
L 251.428902 368.563325
L 251.127419 369.15502
L 250.863683 369.764477
L 234.477064 407.709609
L 234.252117 408.334423
L 234.066846 408.97213
L 233.921983 409.620211
L 233.818099 410.276109
L 233.755604 410.937236
z
" clip-path="url(#pc554e67f7a)" style="fill: #f59e0b; fill-opacity: 0.13; stroke: #d97706; stroke-opacity: 0.13; stroke-width: 0.8"/>
    <path d="M 184.821787 520.736531
L 477.21435 570.603201
L 477.870248 570.707085
L 478.531375 570.76958
L 479.195122 570.790439
L 479.858868 570.76958
L 480.519995 570.707085
L 481.175894 570.603201
L 481.823975 570.458338
L 482.461681 570.273067
L 483.086495 570.04812
L 483.695952 569.784384
L 484.287647 569.482901
L 484.859243 569.14486
L 485.408486 568.771595
L 485.933208 568.364579
L 486.431337 567.925419
L 486.900908 567.455847
L 487.340068 566.957718
L 487.747084 566.432997
L 488.120349 565.883754
L 488.45839 565.312157
L 488.759874 564.720463
L 489.023609 564.111006
L 563.36051 382.928137
L 563.585457 382.303322
L 563.770728 381.665616
L 563.915591 381.017535
L 564.019475 380.361637
L 564.08197 379.70051
L 564.102829 379.036763
L 564.08197 378.373017
L 564.019475 377.71189
L 563.915591 377.055992
L 563.770728 376.407911
L 563.585457 375.770204
L 563.36051 375.14539
L 563.096775 374.535933
L 562.795291 373.944238
L 562.45725 373.372642
L 562.083985 372.823399
L 456.762198 219.883077
L 456.355183 219.358356
L 455.916022 218.860226
L 455.446451 218.390655
L 454.948322 217.951495
L 454.4236 217.544479
L 453.874357 217.171214
L 453.302761 216.833173
L 452.711067 216.531689
L 452.101609 216.267954
L 451.476795 216.043007
L 450.839089 215.857736
L 450.191008 215.712873
L 449.535109 215.608989
L 448.873982 215.546494
L 448.210236 215.525635
L 447.546489 215.546494
L 446.885363 215.608989
L 446.229464 215.712873
L 445.581383 215.857736
L 444.943677 216.043007
L 444.318862 216.267954
L 443.709405 216.531689
L 443.117711 216.833173
L 442.546114 217.171214
L 133.803856 423.796088
L 133.254613 424.169353
L 132.729891 424.576369
L 132.231762 425.015529
L 131.762191 425.4851
L 131.323031 425.983229
L 130.916015 426.507951
L 130.54275 427.057194
L 130.204709 427.62879
L 129.903225 428.220485
L 129.63949 428.829942
L 129.414543 429.454756
L 129.229272 430.092462
L 129.084409 430.740543
L 128.980525 431.396442
L 128.91803 432.057569
L 128.897171 432.721315
L 128.91803 433.385062
L 128.980525 434.046189
L 129.084409 434.702087
L 129.229272 435.350168
L 129.414543 435.987874
L 129.63949 436.612689
L 129.903225 437.222146
L 130.204709 437.81384
L 130.54275 438.385437
L 177.877332 516.017084
L 178.250597 516.566327
L 178.657612 517.091048
L 179.096773 517.589177
L 179.566344 518.058749
L 180.064473 518.497909
L 180.589195 518.904925
L 181.138438 519.27819
L 181.710034 519.616231
L 182.301728 519.917714
L 182.911186 520.18145
L 183.536 520.406397
L 184.173706 520.591668
z
" clip-path="url(#pc554e67f7a)" style="fill: #f59e0b; fill-opacity: 0.13; stroke: #d97706; stroke-opacity: 0.13; stroke-width: 0.8"/>
    <path d="M 290.955607 257.620925
L 131.762191 425.4851
L 131.323031 425.983229
L 130.916015 426.507951
L 130.54275 427.057194
L 130.204709 427.62879
L 129.903225 428.220485
L 129.63949 428.829942
L 129.414543 429.454756
L 129.229272 430.092462
L 129.084409 430.740543
L 128.980525 431.396442
L 128.91803 432.057569
L 128.897171 432.721315
L 128.91803 433.385062
L 128.980525 434.046189
L 129.084409 434.702087
L 129.229272 435.350168
L 129.414543 435.987874
L 129.63949 436.612689
L 129.903225 437.222146
L 130.204709 437.81384
L 130.54275 438.385437
L 130.916015 438.934679
L 131.323031 439.459401
L 190.916599 510.720098
L 191.355759 511.218228
L 241.981475 565.427194
L 242.451046 565.896766
L 242.949176 566.335926
L 243.473897 566.742941
L 244.02314 567.116206
L 244.594737 567.454248
L 245.186431 567.755731
L 245.795888 568.019467
L 411.475929 631.492046
L 412.100743 631.716993
L 412.738449 631.902264
L 413.38653 632.047127
L 414.042429 632.151011
L 414.703556 632.213506
L 415.367302 632.234365
L 416.031048 632.213506
L 416.692175 632.151011
L 417.348074 632.047127
L 417.996155 631.902264
L 418.633861 631.716993
L 419.258676 631.492046
L 419.868133 631.228311
L 420.459827 630.926827
L 421.031424 630.588786
L 421.580666 630.215521
L 422.105388 629.808505
L 422.603517 629.369345
L 486.431337 567.925419
L 486.900908 567.455847
L 487.340068 566.957718
L 487.747084 566.432997
L 488.120349 565.883754
L 488.45839 565.312157
L 488.759874 564.720463
L 489.023609 564.111006
L 521.154082 475.12649
L 521.379029 474.501675
L 521.5643 473.863969
L 521.709163 473.215888
L 521.813047 472.559989
L 521.875542 471.898863
L 521.896401 471.235116
L 521.875542 470.57137
L 521.813047 469.910243
L 521.709163 469.254344
L 521.5643 468.606263
L 492.208686 350.970229
L 492.023415 350.332522
L 491.798468 349.707708
L 491.534732 349.098251
L 491.233249 348.506556
L 490.895208 347.93496
L 490.521943 347.385717
L 490.114927 346.860996
L 489.675767 346.362866
L 489.206196 345.893295
L 488.708066 345.454135
L 488.183345 345.047119
L 487.634102 344.673854
L 487.062506 344.335813
L 486.470811 344.034329
L 303.162224 255.292388
L 302.552767 255.028653
L 301.927952 254.803705
L 301.290246 254.618435
L 300.642165 254.473571
L 299.986267 254.369687
L 299.32514 254.307192
L 298.661393 254.286333
L 297.997647 254.307192
L 297.33652 254.369687
L 296.680621 254.473571
L 296.03254 254.618435
L 295.394834 254.803705
L 294.77002 255.028653
L 294.160563 255.292388
L 293.568868 255.593872
L 292.997272 255.931913
L 292.448029 256.305178
L 291.923307 256.712194
L 291.425178 257.151354
z
" clip-path="url(#pc554e67f7a)" style="fill: #f59e0b; fill-opacity: 0.13; stroke: #d97706; stroke-opacity: 0.13; stroke-width: 0.8"/>
   </g>
   <g id="LineCollection_1"/>
   <g id="PathCollection_1">
    <defs>
     <path id="m82c9e98f7c" d="M 0 6
C 1.591219 6 3.117479 5.367802 4.242641 4.242641
C 5.367802 3.117479 6 1.591219 6 0
C 6 -1.591219 5.367802 -3.117479 4.242641 -4.242641
C 3.117479 -5.367802 1.591219 -6 0 -6
C -1.591219 -6 -3.117479 -5.367802 -4.242641 -4.242641
C -5.367802 -3.117479 -6 -1.591219 -6 0
C -6 1.591219 -5.367802 3.117479 -4.242641 4.242641
C -3.117479 5.367802 -1.591219 6 0 6
z
" style="stroke: #334155; stroke-width: 0.8"/>
    </defs>
    <g clip-path="url(#pc554e67f7a)">
     <use xlink:href="#m82c9e98f7c" x="511.325594" y="471.235116" style="fill: #38bdf8; stroke: #334155; stroke-width: 0.8"/>
     <use xlink:href="#m82c9e98f7c" x="139.467977" y="432.721315" style="fill: #38bdf8; stroke: #334155; stroke-width: 0.8"/>
     <use xlink:href="#m82c9e98f7c" x="333.96088" y="500.62334" style="fill: #38bdf8; stroke: #334155; stroke-width: 0.8"/>
     <use xlink:href="#m82c9e98f7c" x="396.870737" y="409.561895" style="fill: #38bdf8; stroke: #334155; stroke-width: 0.8"/>
     <use xlink:href="#m82c9e98f7c" x="260.686191" y="373.711339" style="fill: #38bdf8; stroke: #334155; stroke-width: 0.8"/>
     <use xlink:href="#m82c9e98f7c" x="328.747437" y="611.815868" style="fill: #38bdf8; stroke: #334155; stroke-width: 0.8"/>
     <use xlink:href="#m82c9e98f7c" x="415.367302" y="621.663559" style="fill: #38bdf8; stroke: #334155; stroke-width: 0.8"/>
     <use xlink:href="#m82c9e98f7c" x="411.307038" y="517.926996" style="fill: #38bdf8; stroke: #334155; stroke-width: 0.8"/>
     <use xlink:href="#m82c9e98f7c" x="260.692171" y="373.65585" style="fill: #38bdf8; stroke: #334155; stroke-width: 0.8"/>
     <use xlink:href="#m82c9e98f7c" x="389.248191" y="410.898114" style="fill: #38bdf8; stroke: #334155; stroke-width: 0.8"/>
     <use xlink:href="#m82c9e98f7c" x="199.061545" y="503.982012" style="fill: #38bdf8; stroke: #334155; stroke-width: 0.8"/>
     <use xlink:href="#m82c9e98f7c" x="244.305552" y="411.600982" style="fill: #38bdf8; stroke: #334155; stroke-width: 0.8"/>
     <use xlink:href="#m82c9e98f7c" x="481.969981" y="353.599081" style="fill: #38bdf8; stroke: #334155; stroke-width: 0.8"/>
     <use xlink:href="#m82c9e98f7c" x="337.253898" y="601.966191" style="fill: #38bdf8; stroke: #334155; stroke-width: 0.8"/>
     <use xlink:href="#m82c9e98f7c" x="340.667627" y="326.485352" style="fill: #38bdf8; stroke: #334155; stroke-width: 0.8"/>
     <use xlink:href="#m82c9e98f7c" x="259.576201" y="423.748949" style="fill: #38bdf8; stroke: #334155; stroke-width: 0.8"/>
     <use xlink:href="#m82c9e98f7c" x="485.236768" y="472.271301" style="fill: #38bdf8; stroke: #334155; stroke-width: 0.8"/>
     <use xlink:href="#m82c9e98f7c" x="339.663481" y="319.889049" style="fill: #38bdf8; stroke: #334155; stroke-width: 0.8"/>
     <use xlink:href="#m82c9e98f7c" x="423.190133" y="262.891724" style="fill: #38bdf8; stroke: #334155; stroke-width: 0.8"/>
     <use xlink:href="#m82c9e98f7c" x="186.802559" y="510.352962" style="fill: #38bdf8; stroke: #334155; stroke-width: 0.8"/>
     <use xlink:href="#m82c9e98f7c" x="340.113294" y="497.284032" style="fill: #38bdf8; stroke: #334155; stroke-width: 0.8"/>
     <use xlink:href="#m82c9e98f7c" x="406.89871" y="391.475593" style="fill: #38bdf8; stroke: #334155; stroke-width: 0.8"/>
     <use xlink:href="#m82c9e98f7c" x="243.791607" y="588.463246" style="fill: #38bdf8; stroke: #334155; stroke-width: 0.8"/>
     <use xlink:href="#m82c9e98f7c" x="319.705839" y="503.116713" style="fill: #38bdf8; stroke: #334155; stroke-width: 0.8"/>
     <use xlink:href="#m82c9e98f7c" x="479.195122" y="560.219632" style="fill: #38bdf8; stroke: #334155; stroke-width: 0.8"/>
     <use xlink:href="#m82c9e98f7c" x="298.661393" y="264.85714" style="fill: #38bdf8; stroke: #334155; stroke-width: 0.8"/>
     <use xlink:href="#m82c9e98f7c" x="249.687262" y="558.190979" style="fill: #38bdf8; stroke: #334155; stroke-width: 0.8"/>
     <use xlink:href="#m82c9e98f7c" x="469.878104" y="346.754315" style="fill: #38bdf8; stroke: #334155; stroke-width: 0.8"/>
     <use xlink:href="#m82c9e98f7c" x="448.210236" y="226.096441" style="fill: #38bdf8; stroke: #334155; stroke-width: 0.8"/>
     <use xlink:href="#m82c9e98f7c" x="449.065973" y="577.275747" style="fill: #38bdf8; stroke: #334155; stroke-width: 0.8"/>
     <use xlink:href="#m82c9e98f7c" x="532.513316" y="473.831502" style="fill: #38bdf8; stroke: #334155; stroke-width: 0.8"/>
     <use xlink:href="#m82c9e98f7c" x="553.532023" y="379.036763" style="fill: #38bdf8; stroke: #334155; stroke-width: 0.8"/>
     <use xlink:href="#m82c9e98f7c" x="210.233983" y="254.508592" style="fill: #38bdf8; stroke: #334155; stroke-width: 0.8"/>
     <use xlink:href="#m82c9e98f7c" x="143.188234" y="343.715925" style="fill: #38bdf8; stroke: #334155; stroke-width: 0.8"/>
    </g>
   </g>
   <g id="text_2">
    <g clip-path="url(#pc554e67f7a)">
     <text style="font-size: 8.2px; font-family: 'DejaVu Sans', 'Bitstream Vera Sans', 'Computer Modern Sans Serif', 'Lucida Grande', 'Verdana', 'Geneva', 'Lucid', 'Arial', 'Helvetica', 'Avant Garde', sans-serif; text-anchor: middle; fill: #111827" x="396.870737" y="411.824583" transform="rotate(-0 396.870737 411.824583)">fair</text>
    </g>
   </g>
   <g id="text_3">
    <g clip-path="url(#pc554e67f7a)">
     <text style="font-size: 8.2px; font-family: 'DejaVu Sans', 'Bitstream Vera Sans', 'Computer Modern Sans Serif', 'Lucida Grande', 'Verdana', 'Geneva', 'Lucid', 'Arial', 'Helvetica', 'Avant Garde', sans-serif; text-anchor: middle; fill: #111827" x="340.113294" y="499.546719" transform="rotate(-0 340.113294 499.546719)">sacred</text>
    </g>
   </g>
   <g id="text_4">
    <g clip-path="url(#pc554e67f7a)">
     <text style="font-size: 8.2px; font-family: 'DejaVu Sans', 'Bitstream Vera Sans', 'Computer Modern Sans Serif', 'Lucida Grande', 'Verdana', 'Geneva', 'Lucid', 'Arial', 'Helvetica', 'Avant Garde', sans-serif; text-anchor: middle; fill: #111827" x="340.667627" y="328.748039" transform="rotate(-0 340.667627 328.748039)">long</text>
    </g>
   </g>
   <g id="text_5">
    <g clip-path="url(#pc554e67f7a)">
     <text style="font-size: 8.2px; font-family: 'DejaVu Sans', 'Bitstream Vera Sans', 'Computer Modern Sans Serif', 'Lucida Grande', 'Verdana', 'Geneva', 'Lucid', 'Arial', 'Helvetica', 'Avant Garde', sans-serif; text-anchor: middle; fill: #111827" x="389.248191" y="413.160801" transform="rotate(-0 389.248191 413.160801)">high</text>
    </g>
   </g>
   <g id="text_6">
    <g clip-path="url(#pc554e67f7a)">
     <text style="font-size: 8.2px; font-family: 'DejaVu Sans', 'Bitstream Vera Sans', 'Computer Modern Sans Serif', 'Lucida Grande', 'Verdana', 'Geneva', 'Lucid', 'Arial', 'Helvetica', 'Avant Garde', sans-serif; text-anchor: middle; fill: #111827" x="479.195122" y="562.48232" transform="rotate(-0 479.195122 562.48232)">young</text>
    </g>
   </g>
   <g id="text_7">
    <g clip-path="url(#pc554e67f7a)">
     <text style="font-size: 8.2px; font-family: 'DejaVu Sans', 'Bitstream Vera Sans', 'Computer Modern Sans Serif', 'Lucida Grande', 'Verdana', 'Geneva', 'Lucid', 'Arial', 'Helvetica', 'Avant Garde', sans-serif; text-anchor: middle; fill: #111827" x="411.307038" y="520.189683" transform="rotate(-0 411.307038 520.189683)">good</text>
    </g>
   </g>
   <g id="text_8">
    <g clip-path="url(#pc554e67f7a)">
     <text style="font-size: 8.2px; font-family: 'DejaVu Sans', 'Bitstream Vera Sans', 'Computer Modern Sans Serif', 'Lucida Grande', 'Verdana', 'Geneva', 'Lucid', 'Arial', 'Helvetica', 'Avant Garde', sans-serif; text-anchor: middle; fill: #111827" x="406.89871" y="393.738281" transform="rotate(-0 406.89871 393.738281)">strong</text>
    </g>
   </g>
   <g id="text_9">
    <g clip-path="url(#pc554e67f7a)">
     <text style="font-size: 8.2px; font-family: 'DejaVu Sans', 'Bitstream Vera Sans', 'Computer Modern Sans Serif', 'Lucida Grande', 'Verdana', 'Geneva', 'Lucid', 'Arial', 'Helvetica', 'Avant Garde', sans-serif; text-anchor: middle; fill: #111827" x="339.663481" y="322.151737" transform="rotate(-0 339.663481 322.151737)">old</text>
    </g>
   </g>
   <g id="text_10">
    <g clip-path="url(#pc554e67f7a)">
     <text style="font-size: 8.2px; font-family: 'DejaVu Sans', 'Bitstream Vera Sans', 'Computer Modern Sans Serif', 'Lucida Grande', 'Verdana', 'Geneva', 'Lucid', 'Arial', 'Helvetica', 'Avant Garde', sans-serif; text-anchor: middle; fill: #111827" x="319.705839" y="505.3794" transform="rotate(-0 319.705839 505.3794)">wise</text>
    </g>
   </g>
   <g id="text_11">
    <g clip-path="url(#pc554e67f7a)">
     <text style="font-size: 8.2px; font-family: 'DejaVu Sans', 'Bitstream Vera Sans', 'Computer Modern Sans Serif', 'Lucida Grande', 'Verdana', 'Geneva', 'Lucid', 'Arial', 'Helvetica', 'Avant Garde', sans-serif; text-anchor: middle; fill: #111827" x="199.061545" y="506.2447" transform="rotate(-0 199.061545 506.2447)">huge</text>
    </g>
   </g>
   <g id="text_12">
    <g clip-path="url(#pc554e67f7a)">
     <text style="font-size: 8.2px; font-family: 'DejaVu Sans', 'Bitstream Vera Sans', 'Computer Modern Sans Serif', 'Lucida Grande', 'Verdana', 'Geneva', 'Lucid', 'Arial', 'Helvetica', 'Avant Garde', sans-serif; text-anchor: middle; fill: #111827" x="481.969981" y="355.861769" transform="rotate(-0 481.969981 355.861769)">kind</text>
    </g>
   </g>
   <g id="text_13">
    <g clip-path="url(#pc554e67f7a)">
     <text style="font-size: 8.2px; font-family: 'DejaVu Sans', 'Bitstream Vera Sans', 'Computer Modern Sans Serif', 'Lucida Grande', 'Verdana', 'Geneva', 'Lucid', 'Arial', 'Helvetica', 'Avant Garde', sans-serif; text-anchor: middle; fill: #111827" x="260.692171" y="375.918538" transform="rotate(-0 260.692171 375.918538)">great</text>
    </g>
   </g>
   <g id="text_14">
    <g clip-path="url(#pc554e67f7a)">
     <text style="font-size: 8.2px; font-family: 'DejaVu Sans', 'Bitstream Vera Sans', 'Computer Modern Sans Serif', 'Lucida Grande', 'Verdana', 'Geneva', 'Lucid', 'Arial', 'Helvetica', 'Avant Garde', sans-serif; text-anchor: middle; fill: #111827" x="249.687262" y="560.453667" transform="rotate(-0 249.687262 560.453667)">sad</text>
    </g>
   </g>
   <g id="text_15">
    <g clip-path="url(#pc554e67f7a)">
     <text style="font-size: 8.2px; font-family: 'DejaVu Sans', 'Bitstream Vera Sans', 'Computer Modern Sans Serif', 'Lucida Grande', 'Verdana', 'Geneva', 'Lucid', 'Arial', 'Helvetica', 'Avant Garde', sans-serif; text-anchor: middle; fill: #111827" x="260.686191" y="375.974026" transform="rotate(-0 260.686191 375.974026)">free</text>
    </g>
   </g>
   <g id="text_16">
    <g clip-path="url(#pc554e67f7a)">
     <text style="font-size: 8.2px; font-family: 'DejaVu Sans', 'Bitstream Vera Sans', 'Computer Modern Sans Serif', 'Lucida Grande', 'Verdana', 'Geneva', 'Lucid', 'Arial', 'Helvetica', 'Avant Garde', sans-serif; text-anchor: middle; fill: #111827" x="333.96088" y="502.886027" transform="rotate(-0 333.96088 502.886027)">divine</text>
    </g>
   </g>
   <g id="text_17">
    <g clip-path="url(#pc554e67f7a)">
     <text style="font-size: 8.2px; font-family: 'DejaVu Sans', 'Bitstream Vera Sans', 'Computer Modern Sans Serif', 'Lucida Grande', 'Verdana', 'Geneva', 'Lucid', 'Arial', 'Helvetica', 'Avant Garde', sans-serif; text-anchor: middle; fill: #111827" x="210.233983" y="256.77128" transform="rotate(-0 210.233983 256.77128)">deep</text>
    </g>
   </g>
  </g>
  <g id="axes_2">
   <g id="LineCollection_2">
    <path d="M 914.542765 411.798113
L 1064.557364 440.99451
" clip-path="url(#p26d755cbce)" style="fill: none; stroke: #64748b; stroke-width: 0.65"/>
    <path d="M 946.393935 311.943212
L 1064.557364 440.99451
" clip-path="url(#p26d755cbce)" style="fill: none; stroke: #64748b; stroke-width: 0.65"/>
    <path d="M 949.609144 351.547131
L 1064.557364 440.99451
" clip-path="url(#p26d755cbce)" style="fill: none; stroke: #64748b; stroke-width: 0.65"/>
    <path d="M 1142.002218 478.333216
L 1064.557364 440.99451
" clip-path="url(#p26d755cbce)" style="fill: none; stroke: #64748b; stroke-width: 0.65"/>
    <path d="M 929.180669 467.606213
L 1064.557364 440.99451
" clip-path="url(#p26d755cbce)" style="fill: none; stroke: #64748b; stroke-width: 0.65"/>
    <path d="M 1028.210224 547.101069
L 1064.557364 440.99451
" clip-path="url(#p26d755cbce)" style="fill: none; stroke: #64748b; stroke-width: 0.65"/>
    <path d="M 1107.803737 559.438206
L 1064.557364 440.99451
" clip-path="url(#p26d755cbce)" style="fill: none; stroke: #64748b; stroke-width: 0.65"/>
    <path d="M 963.674161 598.317572
L 1064.557364 440.99451
" clip-path="url(#p26d755cbce)" style="fill: none; stroke: #64748b; stroke-width: 0.65"/>
    <path d="M 1142.080774 526.94125
L 1064.557364 440.99451
" clip-path="url(#p26d755cbce)" style="fill: none; stroke: #64748b; stroke-width: 0.65"/>
    <path d="M 1192.511031 321.911688
L 1064.557364 440.99451
" clip-path="url(#p26d755cbce)" style="fill: none; stroke: #64748b; stroke-width: 0.65"/>
    <path d="M 1137.377428 627.08092
L 1064.557364 440.99451
" clip-path="url(#p26d755cbce)" style="fill: none; stroke: #64748b; stroke-width: 0.65"/>
    <path d="M 855.548022 518.855361
L 1064.557364 440.99451
" clip-path="url(#p26d755cbce)" style="fill: none; stroke: #64748b; stroke-width: 0.65"/>
    <path d="M 879.412106 292.8215
L 1064.557364 440.99451
" clip-path="url(#p26d755cbce)" style="fill: none; stroke: #64748b; stroke-width: 0.65"/>
    <path d="M 1165.191758 373.715399
L 1064.557364 440.99451
" clip-path="url(#p26d755cbce)" style="fill: none; stroke: #64748b; stroke-width: 0.65"/>
    <path d="M 1226.357236 477.708505
L 1064.557364 440.99451
" clip-path="url(#p26d755cbce)" style="fill: none; stroke: #64748b; stroke-width: 0.65"/>
    <path d="M 909.606593 535.033194
L 1064.557364 440.99451
" clip-path="url(#p26d755cbce)" style="fill: none; stroke: #64748b; stroke-width: 0.65"/>
    <path d="M 1242.932023 391.058022
L 1064.557364 440.99451
" clip-path="url(#p26d755cbce)" style="fill: none; stroke: #64748b; stroke-width: 0.65"/>
    <path d="M 888.370189 345.383234
L 1064.557364 440.99451
" clip-path="url(#p26d755cbce)" style="fill: none; stroke: #64748b; stroke-width: 0.65"/>
    <path d="M 1145.709727 286.365252
L 1064.557364 440.99451
" clip-path="url(#p26d755cbce)" style="fill: none; stroke: #64748b; stroke-width: 0.65"/>
    <path d="M 1175.095409 447.00913
L 1064.557364 440.99451
" clip-path="url(#p26d755cbce)" style="fill: none; stroke: #64748b; stroke-width: 0.65"/>
    <path d="M 1134.670943 418.484636
L 1064.557364 440.99451
" clip-path="url(#p26d755cbce)" style="fill: none; stroke: #64748b; stroke-width: 0.65"/>
    <path d="M 867.106927 456.239089
L 1064.557364 440.99451
" clip-path="url(#p26d755cbce)" style="fill: none; stroke: #64748b; stroke-width: 0.65"/>
    <path d="M 1087.299921 509.614207
L 1064.557364 440.99451
" clip-path="url(#p26d755cbce)" style="fill: none; stroke: #64748b; stroke-width: 0.65"/>
    <path d="M 1072.559099 269.099821
L 1064.557364 440.99451
" clip-path="url(#p26d755cbce)" style="fill: none; stroke: #64748b; stroke-width: 0.65"/>
    <path d="M 1205.021084 528.999272
L 1064.557364 440.99451
" clip-path="url(#p26d755cbce)" style="fill: none; stroke: #64748b; stroke-width: 0.65"/>
    <path d="M 914.542765 411.798113
L 1017.668559 336.502686
" clip-path="url(#p26d755cbce)" style="fill: none; stroke: #64748b; stroke-width: 0.65"/>
    <path d="M 946.393935 311.943212
L 1017.668559 336.502686
" clip-path="url(#p26d755cbce)" style="fill: none; stroke: #64748b; stroke-width: 0.65"/>
    <path d="M 951.442876 250.697138
L 1017.668559 336.502686
" clip-path="url(#p26d755cbce)" style="fill: none; stroke: #64748b; stroke-width: 0.65"/>
    <path d="M 929.180669 467.606213
L 1017.668559 336.502686
" clip-path="url(#p26d755cbce)" style="fill: none; stroke: #64748b; stroke-width: 0.65"/>
    <path d="M 1142.002218 478.333216
L 1017.668559 336.502686
" clip-path="url(#p26d755cbce)" style="fill: none; stroke: #64748b; stroke-width: 0.65"/>
    <path d="M 1028.210224 547.101069
L 1017.668559 336.502686
" clip-path="url(#p26d755cbce)" style="fill: none; stroke: #64748b; stroke-width: 0.65"/>
    <path d="M 963.674161 598.317572
L 1017.668559 336.502686
" clip-path="url(#p26d755cbce)" style="fill: none; stroke: #64748b; stroke-width: 0.65"/>
    <path d="M 1107.803737 559.438206
L 1017.668559 336.502686
" clip-path="url(#p26d755cbce)" style="fill: none; stroke: #64748b; stroke-width: 0.65"/>
    <path d="M 1165.191758 373.715399
L 1017.668559 336.502686
" clip-path="url(#p26d755cbce)" style="fill: none; stroke: #64748b; stroke-width: 0.65"/>
    <path d="M 879.412106 292.8215
L 1017.668559 336.502686
" clip-path="url(#p26d755cbce)" style="fill: none; stroke: #64748b; stroke-width: 0.65"/>
    <path d="M 909.606593 535.033194
L 1017.668559 336.502686
" clip-path="url(#p26d755cbce)" style="fill: none; stroke: #64748b; stroke-width: 0.65"/>
    <path d="M 1242.932023 391.058022
L 1017.668559 336.502686
" clip-path="url(#p26d755cbce)" style="fill: none; stroke: #64748b; stroke-width: 0.65"/>
    <path d="M 1145.709727 286.365252
L 1017.668559 336.502686
" clip-path="url(#p26d755cbce)" style="fill: none; stroke: #64748b; stroke-width: 0.65"/>
    <path d="M 867.106927 456.239089
L 1017.668559 336.502686
" clip-path="url(#p26d755cbce)" style="fill: none; stroke: #64748b; stroke-width: 0.65"/>
    <path d="M 1134.670943 418.484636
L 1017.668559 336.502686
" clip-path="url(#p26d755cbce)" style="fill: none; stroke: #64748b; stroke-width: 0.65"/>
    <path d="M 1010.645904 256.436937
L 1017.668559 336.502686
" clip-path="url(#p26d755cbce)" style="fill: none; stroke: #64748b; stroke-width: 0.65"/>
    <path d="M 1087.299921 509.614207
L 1017.668559 336.502686
" clip-path="url(#p26d755cbce)" style="fill: none; stroke: #64748b; stroke-width: 0.65"/>
    <path d="M 1072.559099 269.099821
L 1017.668559 336.502686
" clip-path="url(#p26d755cbce)" style="fill: none; stroke: #64748b; stroke-width: 0.65"/>
    <path d="M 914.542765 411.798113
L 980.551367 532.0754
" clip-path="url(#p26d755cbce)" style="fill: none; stroke: #64748b; stroke-width: 0.65"/>
    <path d="M 946.393935 311.943212
L 980.551367 532.0754
" clip-path="url(#p26d755cbce)" style="fill: none; stroke: #64748b; stroke-width: 0.65"/>
    <path d="M 949.609144 351.547131
L 980.551367 532.0754
" clip-path="url(#p26d755cbce)" style="fill: none; stroke: #64748b; stroke-width: 0.65"/>
    <path d="M 1142.002218 478.333216
L 980.551367 532.0754
" clip-path="url(#p26d755cbce)" style="fill: none; stroke: #64748b; stroke-width: 0.65"/>
    <path d="M 929.180669 467.606213
L 980.551367 532.0754
" clip-path="url(#p26d755cbce)" style="fill: none; stroke: #64748b; stroke-width: 0.65"/>
    <path d="M 828.867977 580.032489
L 980.551367 532.0754
" clip-path="url(#p26d755cbce)" style="fill: none; stroke: #64748b; stroke-width: 0.65"/>
    <path d="M 1028.210224 547.101069
L 980.551367 532.0754
" clip-path="url(#p26d755cbce)" style="fill: none; stroke: #64748b; stroke-width: 0.65"/>
    <path d="M 963.674161 598.317572
L 980.551367 532.0754
" clip-path="url(#p26d755cbce)" style="fill: none; stroke: #64748b; stroke-width: 0.65"/>
    <path d="M 1142.080774 526.94125
L 980.551367 532.0754
" clip-path="url(#p26d755cbce)" style="fill: none; stroke: #64748b; stroke-width: 0.65"/>
    <path d="M 832.430546 391.058402
L 980.551367 532.0754
" clip-path="url(#p26d755cbce)" style="fill: none; stroke: #64748b; stroke-width: 0.65"/>
    <path d="M 1137.377428 627.08092
L 980.551367 532.0754
" clip-path="url(#p26d755cbce)" style="fill: none; stroke: #64748b; stroke-width: 0.65"/>
    <path d="M 855.548022 518.855361
L 980.551367 532.0754
" clip-path="url(#p26d755cbce)" style="fill: none; stroke: #64748b; stroke-width: 0.65"/>
    <path d="M 1226.357236 477.708505
L 980.551367 532.0754
" clip-path="url(#p26d755cbce)" style="fill: none; stroke: #64748b; stroke-width: 0.65"/>
    <path d="M 909.606593 535.033194
L 980.551367 532.0754
" clip-path="url(#p26d755cbce)" style="fill: none; stroke: #64748b; stroke-width: 0.65"/>
    <path d="M 896.537926 588.003523
L 980.551367 532.0754
" clip-path="url(#p26d755cbce)" style="fill: none; stroke: #64748b; stroke-width: 0.65"/>
    <path d="M 1049.260351 591.316917
L 980.551367 532.0754
" clip-path="url(#p26d755cbce)" style="fill: none; stroke: #64748b; stroke-width: 0.65"/>
    <path d="M 1134.670943 418.484636
L 980.551367 532.0754
" clip-path="url(#p26d755cbce)" style="fill: none; stroke: #64748b; stroke-width: 0.65"/>
    <path d="M 867.106927 456.239089
L 980.551367 532.0754
" clip-path="url(#p26d755cbce)" style="fill: none; stroke: #64748b; stroke-width: 0.65"/>
    <path d="M 1087.299921 509.614207
L 980.551367 532.0754
" clip-path="url(#p26d755cbce)" style="fill: none; stroke: #64748b; stroke-width: 0.65"/>
    <path d="M 1175.095409 447.00913
L 980.551367 532.0754
" clip-path="url(#p26d755cbce)" style="fill: none; stroke: #64748b; stroke-width: 0.65"/>
    <path d="M 914.542765 411.798113
L 1059.270508 640.480416
" clip-path="url(#p26d755cbce)" style="fill: none; stroke: #64748b; stroke-width: 0.65"/>
    <path d="M 1142.002218 478.333216
L 1059.270508 640.480416
" clip-path="url(#p26d755cbce)" style="fill: none; stroke: #64748b; stroke-width: 0.65"/>
    <path d="M 929.180669 467.606213
L 1059.270508 640.480416
" clip-path="url(#p26d755cbce)" style="fill: none; stroke: #64748b; stroke-width: 0.65"/>
    <path d="M 828.867977 580.032489
L 1059.270508 640.480416
" clip-path="url(#p26d755cbce)" style="fill: none; stroke: #64748b; stroke-width: 0.65"/>
    <path d="M 1028.210224 547.101069
L 1059.270508 640.480416
" clip-path="url(#p26d755cbce)" style="fill: none; stroke: #64748b; stroke-width: 0.65"/>
    <path d="M 1107.803737 559.438206
L 1059.270508 640.480416
" clip-path="url(#p26d755cbce)" style="fill: none; stroke: #64748b; stroke-width: 0.65"/>
    <path d="M 963.674161 598.317572
L 1059.270508 640.480416
" clip-path="url(#p26d755cbce)" style="fill: none; stroke: #64748b; stroke-width: 0.65"/>
    <path d="M 1142.080774 526.94125
L 1059.270508 640.480416
" clip-path="url(#p26d755cbce)" style="fill: none; stroke: #64748b; stroke-width: 0.65"/>
    <path d="M 855.548022 518.855361
L 1059.270508 640.480416
" clip-path="url(#p26d755cbce)" style="fill: none; stroke: #64748b; stroke-width: 0.65"/>
    <path d="M 1165.191758 373.715399
L 1059.270508 640.480416
" clip-path="url(#p26d755cbce)" style="fill: none; stroke: #64748b; stroke-width: 0.65"/>
    <path d="M 966.369668 656.409473
L 1059.270508 640.480416
" clip-path="url(#p26d755cbce)" style="fill: none; stroke: #64748b; stroke-width: 0.65"/>
    <path d="M 909.606593 535.033194
L 1059.270508 640.480416
" clip-path="url(#p26d755cbce)" style="fill: none; stroke: #64748b; stroke-width: 0.65"/>
    <path d="M 1242.932023 391.058022
L 1059.270508 640.480416
" clip-path="url(#p26d755cbce)" style="fill: none; stroke: #64748b; stroke-width: 0.65"/>
    <path d="M 1049.260351 591.316917
L 1059.270508 640.480416
" clip-path="url(#p26d755cbce)" style="fill: none; stroke: #64748b; stroke-width: 0.65"/>
    <path d="M 1134.670943 418.484636
L 1059.270508 640.480416
" clip-path="url(#p26d755cbce)" style="fill: none; stroke: #64748b; stroke-width: 0.65"/>
    <path d="M 867.106927 456.239089
L 1059.270508 640.480416
" clip-path="url(#p26d755cbce)" style="fill: none; stroke: #64748b; stroke-width: 0.65"/>
    <path d="M 1087.299921 509.614207
L 1059.270508 640.480416
" clip-path="url(#p26d755cbce)" style="fill: none; stroke: #64748b; stroke-width: 0.65"/>
    <path d="M 1175.095409 447.00913
L 1059.270508 640.480416
" clip-path="url(#p26d755cbce)" style="fill: none; stroke: #64748b; stroke-width: 0.65"/>
    <path d="M 1205.021084 528.999272
L 1059.270508 640.480416
" clip-path="url(#p26d755cbce)" style="fill: none; stroke: #64748b; stroke-width: 0.65"/>
    <path d="M 914.542765 411.798113
L 985.821812 440.830012
" clip-path="url(#p26d755cbce)" style="fill: none; stroke: #64748b; stroke-width: 0.65"/>
    <path d="M 946.393935 311.943212
L 985.821812 440.830012
" clip-path="url(#p26d755cbce)" style="fill: none; stroke: #64748b; stroke-width: 0.65"/>
    <path d="M 951.442876 250.697138
L 985.821812 440.830012
" clip-path="url(#p26d755cbce)" style="fill: none; stroke: #64748b; stroke-width: 0.65"/>
    <path d="M 949.609144 351.547131
L 985.821812 440.830012
" clip-path="url(#p26d755cbce)" style="fill: none; stroke: #64748b; stroke-width: 0.65"/>
    <path d="M 1142.002218 478.333216
L 985.821812 440.830012
" clip-path="url(#p26d755cbce)" style="fill: none; stroke: #64748b; stroke-width: 0.65"/>
    <path d="M 929.180669 467.606213
L 985.821812 440.830012
" clip-path="url(#p26d755cbce)" style="fill: none; stroke: #64748b; stroke-width: 0.65"/>
    <path d="M 1028.210224 547.101069
L 985.821812 440.830012
" clip-path="url(#p26d755cbce)" style="fill: none; stroke: #64748b; stroke-width: 0.65"/>
    <path d="M 1107.803737 559.438206
L 985.821812 440.830012
" clip-path="url(#p26d755cbce)" style="fill: none; stroke: #64748b; stroke-width: 0.65"/>
    <path d="M 963.674161 598.317572
L 985.821812 440.830012
" clip-path="url(#p26d755cbce)" style="fill: none; stroke: #64748b; stroke-width: 0.65"/>
    <path d="M 1142.080774 526.94125
L 985.821812 440.830012
" clip-path="url(#p26d755cbce)" style="fill: none; stroke: #64748b; stroke-width: 0.65"/>
    <path d="M 855.548022 518.855361
L 985.821812 440.830012
" clip-path="url(#p26d755cbce)" style="fill: none; stroke: #64748b; stroke-width: 0.65"/>
    <path d="M 1165.191758 373.715399
L 985.821812 440.830012
" clip-path="url(#p26d755cbce)" style="fill: none; stroke: #64748b; stroke-width: 0.65"/>
    <path d="M 1016.778542 191.350527
L 985.821812 440.830012
" clip-path="url(#p26d755cbce)" style="fill: none; stroke: #64748b; stroke-width: 0.65"/>
    <path d="M 966.369668 656.409473
L 985.821812 440.830012
" clip-path="url(#p26d755cbce)" style="fill: none; stroke: #64748b; stroke-width: 0.65"/>
    <path d="M 888.370189 345.383234
L 985.821812 440.830012
" clip-path="url(#p26d755cbce)" style="fill: none; stroke: #64748b; stroke-width: 0.65"/>
    <path d="M 896.537926 588.003523
L 985.821812 440.830012
" clip-path="url(#p26d755cbce)" style="fill: none; stroke: #64748b; stroke-width: 0.65"/>
    <path d="M 1049.260351 591.316917
L 985.821812 440.830012
" clip-path="url(#p26d755cbce)" style="fill: none; stroke: #64748b; stroke-width: 0.65"/>
    <path d="M 867.106927 456.239089
L 985.821812 440.830012
" clip-path="url(#p26d755cbce)" style="fill: none; stroke: #64748b; stroke-width: 0.65"/>
    <path d="M 1175.095409 447.00913
L 985.821812 440.830012
" clip-path="url(#p26d755cbce)" style="fill: none; stroke: #64748b; stroke-width: 0.65"/>
    <path d="M 1134.670943 418.484636
L 985.821812 440.830012
" clip-path="url(#p26d755cbce)" style="fill: none; stroke: #64748b; stroke-width: 0.65"/>
    <path d="M 1010.645904 256.436937
L 985.821812 440.830012
" clip-path="url(#p26d755cbce)" style="fill: none; stroke: #64748b; stroke-width: 0.65"/>
    <path d="M 1087.299921 509.614207
L 985.821812 440.830012
" clip-path="url(#p26d755cbce)" style="fill: none; stroke: #64748b; stroke-width: 0.65"/>
    <path d="M 1072.559099 269.099821
L 985.821812 440.830012
" clip-path="url(#p26d755cbce)" style="fill: none; stroke: #64748b; stroke-width: 0.65"/>
    <path d="M 914.542765 411.798113
L 1014.471995 397.830682
" clip-path="url(#p26d755cbce)" style="fill: none; stroke: #64748b; stroke-width: 0.65"/>
    <path d="M 946.393935 311.943212
L 1014.471995 397.830682
" clip-path="url(#p26d755cbce)" style="fill: none; stroke: #64748b; stroke-width: 0.65"/>
    <path d="M 949.609144 351.547131
L 1014.471995 397.830682
" clip-path="url(#p26d755cbce)" style="fill: none; stroke: #64748b; stroke-width: 0.65"/>
    <path d="M 1142.002218 478.333216
L 1014.471995 397.830682
" clip-path="url(#p26d755cbce)" style="fill: none; stroke: #64748b; stroke-width: 0.65"/>
    <path d="M 929.180669 467.606213
L 1014.471995 397.830682
" clip-path="url(#p26d755cbce)" style="fill: none; stroke: #64748b; stroke-width: 0.65"/>
    <path d="M 828.867977 580.032489
L 1014.471995 397.830682
" clip-path="url(#p26d755cbce)" style="fill: none; stroke: #64748b; stroke-width: 0.65"/>
    <path d="M 1028.210224 547.101069
L 1014.471995 397.830682
" clip-path="url(#p26d755cbce)" style="fill: none; stroke: #64748b; stroke-width: 0.65"/>
    <path d="M 1107.803737 559.438206
L 1014.471995 397.830682
" clip-path="url(#p26d755cbce)" style="fill: none; stroke: #64748b; stroke-width: 0.65"/>
    <path d="M 1142.080774 526.94125
L 1014.471995 397.830682
" clip-path="url(#p26d755cbce)" style="fill: none; stroke: #64748b; stroke-width: 0.65"/>
    <path d="M 832.430546 391.058402
L 1014.471995 397.830682
" clip-path="url(#p26d755cbce)" style="fill: none; stroke: #64748b; stroke-width: 0.65"/>
    <path d="M 1192.511031 321.911688
L 1014.471995 397.830682
" clip-path="url(#p26d755cbce)" style="fill: none; stroke: #64748b; stroke-width: 0.65"/>
    <path d="M 879.412106 292.8215
L 1014.471995 397.830682
" clip-path="url(#p26d755cbce)" style="fill: none; stroke: #64748b; stroke-width: 0.65"/>
    <path d="M 1165.191758 373.715399
L 1014.471995 397.830682
" clip-path="url(#p26d755cbce)" style="fill: none; stroke: #64748b; stroke-width: 0.65"/>
    <path d="M 909.606593 535.033194
L 1014.471995 397.830682
" clip-path="url(#p26d755cbce)" style="fill: none; stroke: #64748b; stroke-width: 0.65"/>
    <path d="M 896.537926 588.003523
L 1014.471995 397.830682
" clip-path="url(#p26d755cbce)" style="fill: none; stroke: #64748b; stroke-width: 0.65"/>
    <path d="M 1145.709727 286.365252
L 1014.471995 397.830682
" clip-path="url(#p26d755cbce)" style="fill: none; stroke: #64748b; stroke-width: 0.65"/>
    <path d="M 1049.260351 591.316917
L 1014.471995 397.830682
" clip-path="url(#p26d755cbce)" style="fill: none; stroke: #64748b; stroke-width: 0.65"/>
    <path d="M 1175.095409 447.00913
L 1014.471995 397.830682
" clip-path="url(#p26d755cbce)" style="fill: none; stroke: #64748b; stroke-width: 0.65"/>
    <path d="M 1134.670943 418.484636
L 1014.471995 397.830682
" clip-path="url(#p26d755cbce)" style="fill: none; stroke: #64748b; stroke-width: 0.65"/>
    <path d="M 1010.645904 256.436937
L 1014.471995 397.830682
" clip-path="url(#p26d755cbce)" style="fill: none; stroke: #64748b; stroke-width: 0.65"/>
    <path d="M 1087.299921 509.614207
L 1014.471995 397.830682
" clip-path="url(#p26d755cbce)" style="fill: none; stroke: #64748b; stroke-width: 0.65"/>
    <path d="M 1134.804076 209.094629
L 1014.471995 397.830682
" clip-path="url(#p26d755cbce)" style="fill: none; stroke: #64748b; stroke-width: 0.65"/>
    <path d="M 1072.559099 269.099821
L 1014.471995 397.830682
" clip-path="url(#p26d755cbce)" style="fill: none; stroke: #64748b; stroke-width: 0.65"/>
    <path d="M 949.609144 351.547131
L 1029.002054 429.853614
" clip-path="url(#p26d755cbce)" style="fill: none; stroke: #64748b; stroke-width: 0.65"/>
    <path d="M 1142.002218 478.333216
L 1029.002054 429.853614
" clip-path="url(#p26d755cbce)" style="fill: none; stroke: #64748b; stroke-width: 0.65"/>
    <path d="M 828.867977 580.032489
L 1029.002054 429.853614
" clip-path="url(#p26d755cbce)" style="fill: none; stroke: #64748b; stroke-width: 0.65"/>
    <path d="M 1028.210224 547.101069
L 1029.002054 429.853614
" clip-path="url(#p26d755cbce)" style="fill: none; stroke: #64748b; stroke-width: 0.65"/>
    <path d="M 1107.803737 559.438206
L 1029.002054 429.853614
" clip-path="url(#p26d755cbce)" style="fill: none; stroke: #64748b; stroke-width: 0.65"/>
    <path d="M 1142.080774 526.94125
L 1029.002054 429.853614
" clip-path="url(#p26d755cbce)" style="fill: none; stroke: #64748b; stroke-width: 0.65"/>
    <path d="M 832.430546 391.058402
L 1029.002054 429.853614
" clip-path="url(#p26d755cbce)" style="fill: none; stroke: #64748b; stroke-width: 0.65"/>
    <path d="M 879.412106 292.8215
L 1029.002054 429.853614
" clip-path="url(#p26d755cbce)" style="fill: none; stroke: #64748b; stroke-width: 0.65"/>
    <path d="M 966.369668 656.409473
L 1029.002054 429.853614
" clip-path="url(#p26d755cbce)" style="fill: none; stroke: #64748b; stroke-width: 0.65"/>
    <path d="M 909.606593 535.033194
L 1029.002054 429.853614
" clip-path="url(#p26d755cbce)" style="fill: none; stroke: #64748b; stroke-width: 0.65"/>
    <path d="M 1242.932023 391.058022
L 1029.002054 429.853614
" clip-path="url(#p26d755cbce)" style="fill: none; stroke: #64748b; stroke-width: 0.65"/>
    <path d="M 888.370189 345.383234
L 1029.002054 429.853614
" clip-path="url(#p26d755cbce)" style="fill: none; stroke: #64748b; stroke-width: 0.65"/>
    <path d="M 1145.709727 286.365252
L 1029.002054 429.853614
" clip-path="url(#p26d755cbce)" style="fill: none; stroke: #64748b; stroke-width: 0.65"/>
    <path d="M 1049.260351 591.316917
L 1029.002054 429.853614
" clip-path="url(#p26d755cbce)" style="fill: none; stroke: #64748b; stroke-width: 0.65"/>
    <path d="M 1134.670943 418.484636
L 1029.002054 429.853614
" clip-path="url(#p26d755cbce)" style="fill: none; stroke: #64748b; stroke-width: 0.65"/>
    <path d="M 1010.645904 256.436937
L 1029.002054 429.853614
" clip-path="url(#p26d755cbce)" style="fill: none; stroke: #64748b; stroke-width: 0.65"/>
    <path d="M 1087.299921 509.614207
L 1029.002054 429.853614
" clip-path="url(#p26d755cbce)" style="fill: none; stroke: #64748b; stroke-width: 0.65"/>
    <path d="M 1072.559099 269.099821
L 1029.002054 429.853614
" clip-path="url(#p26d755cbce)" style="fill: none; stroke: #64748b; stroke-width: 0.65"/>
    <path d="M 914.542765 411.798113
L 1029.002054 429.853614
" clip-path="url(#p26d755cbce)" style="fill: none; stroke: #64748b; stroke-width: 0.65"/>
    <path d="M 946.393935 311.943212
L 1029.002054 429.853614
" clip-path="url(#p26d755cbce)" style="fill: none; stroke: #64748b; stroke-width: 0.65"/>
    <path d="M 951.442876 250.697138
L 1029.002054 429.853614
" clip-path="url(#p26d755cbce)" style="fill: none; stroke: #64748b; stroke-width: 0.65"/>
    <path d="M 929.180669 467.606213
L 1029.002054 429.853614
" clip-path="url(#p26d755cbce)" style="fill: none; stroke: #64748b; stroke-width: 0.65"/>
    <path d="M 963.674161 598.317572
L 1029.002054 429.853614
" clip-path="url(#p26d755cbce)" style="fill: none; stroke: #64748b; stroke-width: 0.65"/>
    <path d="M 1192.511031 321.911688
L 1029.002054 429.853614
" clip-path="url(#p26d755cbce)" style="fill: none; stroke: #64748b; stroke-width: 0.65"/>
    <path d="M 1137.377428 627.08092
L 1029.002054 429.853614
" clip-path="url(#p26d755cbce)" style="fill: none; stroke: #64748b; stroke-width: 0.65"/>
    <path d="M 855.548022 518.855361
L 1029.002054 429.853614
" clip-path="url(#p26d755cbce)" style="fill: none; stroke: #64748b; stroke-width: 0.65"/>
    <path d="M 1165.191758 373.715399
L 1029.002054 429.853614
" clip-path="url(#p26d755cbce)" style="fill: none; stroke: #64748b; stroke-width: 0.65"/>
    <path d="M 1016.778542 191.350527
L 1029.002054 429.853614
" clip-path="url(#p26d755cbce)" style="fill: none; stroke: #64748b; stroke-width: 0.65"/>
    <path d="M 1226.357236 477.708505
L 1029.002054 429.853614
" clip-path="url(#p26d755cbce)" style="fill: none; stroke: #64748b; stroke-width: 0.65"/>
    <path d="M 896.537926 588.003523
L 1029.002054 429.853614
" clip-path="url(#p26d755cbce)" style="fill: none; stroke: #64748b; stroke-width: 0.65"/>
    <path d="M 867.106927 456.239089
L 1029.002054 429.853614
" clip-path="url(#p26d755cbce)" style="fill: none; stroke: #64748b; stroke-width: 0.65"/>
    <path d="M 1134.804076 209.094629
L 1029.002054 429.853614
" clip-path="url(#p26d755cbce)" style="fill: none; stroke: #64748b; stroke-width: 0.65"/>
    <path d="M 1175.095409 447.00913
L 1029.002054 429.853614
" clip-path="url(#p26d755cbce)" style="fill: none; stroke: #64748b; stroke-width: 0.65"/>
    <path d="M 1205.021084 528.999272
L 1029.002054 429.853614
" clip-path="url(#p26d755cbce)" style="fill: none; stroke: #64748b; stroke-width: 0.65"/>
    <path d="M 914.542765 411.798113
L 1078.370558 319.516736
" clip-path="url(#p26d755cbce)" style="fill: none; stroke: #64748b; stroke-width: 0.65"/>
    <path d="M 946.393935 311.943212
L 1078.370558 319.516736
" clip-path="url(#p26d755cbce)" style="fill: none; stroke: #64748b; stroke-width: 0.65"/>
    <path d="M 951.442876 250.697138
L 1078.370558 319.516736
" clip-path="url(#p26d755cbce)" style="fill: none; stroke: #64748b; stroke-width: 0.65"/>
    <path d="M 949.609144 351.547131
L 1078.370558 319.516736
" clip-path="url(#p26d755cbce)" style="fill: none; stroke: #64748b; stroke-width: 0.65"/>
    <path d="M 1142.002218 478.333216
L 1078.370558 319.516736
" clip-path="url(#p26d755cbce)" style="fill: none; stroke: #64748b; stroke-width: 0.65"/>
    <path d="M 929.180669 467.606213
L 1078.370558 319.516736
" clip-path="url(#p26d755cbce)" style="fill: none; stroke: #64748b; stroke-width: 0.65"/>
    <path d="M 1142.080774 526.94125
L 1078.370558 319.516736
" clip-path="url(#p26d755cbce)" style="fill: none; stroke: #64748b; stroke-width: 0.65"/>
    <path d="M 832.430546 391.058402
L 1078.370558 319.516736
" clip-path="url(#p26d755cbce)" style="fill: none; stroke: #64748b; stroke-width: 0.65"/>
    <path d="M 1192.511031 321.911688
L 1078.370558 319.516736
" clip-path="url(#p26d755cbce)" style="fill: none; stroke: #64748b; stroke-width: 0.65"/>
    <path d="M 1165.191758 373.715399
L 1078.370558 319.516736
" clip-path="url(#p26d755cbce)" style="fill: none; stroke: #64748b; stroke-width: 0.65"/>
    <path d="M 1242.932023 391.058022
L 1078.370558 319.516736
" clip-path="url(#p26d755cbce)" style="fill: none; stroke: #64748b; stroke-width: 0.65"/>
    <path d="M 888.370189 345.383234
L 1078.370558 319.516736
" clip-path="url(#p26d755cbce)" style="fill: none; stroke: #64748b; stroke-width: 0.65"/>
    <path d="M 1145.709727 286.365252
L 1078.370558 319.516736
" clip-path="url(#p26d755cbce)" style="fill: none; stroke: #64748b; stroke-width: 0.65"/>
    <path d="M 1175.095409 447.00913
L 1078.370558 319.516736
" clip-path="url(#p26d755cbce)" style="fill: none; stroke: #64748b; stroke-width: 0.65"/>
    <path d="M 867.106927 456.239089
L 1078.370558 319.516736
" clip-path="url(#p26d755cbce)" style="fill: none; stroke: #64748b; stroke-width: 0.65"/>
    <path d="M 1134.670943 418.484636
L 1078.370558 319.516736
" clip-path="url(#p26d755cbce)" style="fill: none; stroke: #64748b; stroke-width: 0.65"/>
    <path d="M 1010.645904 256.436937
L 1078.370558 319.516736
" clip-path="url(#p26d755cbce)" style="fill: none; stroke: #64748b; stroke-width: 0.65"/>
    <path d="M 1087.299921 509.614207
L 1078.370558 319.516736
" clip-path="url(#p26d755cbce)" style="fill: none; stroke: #64748b; stroke-width: 0.65"/>
    <path d="M 1134.804076 209.094629
L 1078.370558 319.516736
" clip-path="url(#p26d755cbce)" style="fill: none; stroke: #64748b; stroke-width: 0.65"/>
    <path d="M 1072.559099 269.099821
L 1078.370558 319.516736
" clip-path="url(#p26d755cbce)" style="fill: none; stroke: #64748b; stroke-width: 0.65"/>
    <path d="M 1205.021084 528.999272
L 1078.370558 319.516736
" clip-path="url(#p26d755cbce)" style="fill: none; stroke: #64748b; stroke-width: 0.65"/>
    <path d="M 914.542765 411.798113
L 1087.143583 376.563083
" clip-path="url(#p26d755cbce)" style="fill: none; stroke: #64748b; stroke-width: 0.65"/>
    <path d="M 946.393935 311.943212
L 1087.143583 376.563083
" clip-path="url(#p26d755cbce)" style="fill: none; stroke: #64748b; stroke-width: 0.65"/>
    <path d="M 951.442876 250.697138
L 1087.143583 376.563083
" clip-path="url(#p26d755cbce)" style="fill: none; stroke: #64748b; stroke-width: 0.65"/>
    <path d="M 949.609144 351.547131
L 1087.143583 376.563083
" clip-path="url(#p26d755cbce)" style="fill: none; stroke: #64748b; stroke-width: 0.65"/>
    <path d="M 1142.002218 478.333216
L 1087.143583 376.563083
" clip-path="url(#p26d755cbce)" style="fill: none; stroke: #64748b; stroke-width: 0.65"/>
    <path d="M 929.180669 467.606213
L 1087.143583 376.563083
" clip-path="url(#p26d755cbce)" style="fill: none; stroke: #64748b; stroke-width: 0.65"/>
    <path d="M 1028.210224 547.101069
L 1087.143583 376.563083
" clip-path="url(#p26d755cbce)" style="fill: none; stroke: #64748b; stroke-width: 0.65"/>
    <path d="M 1107.803737 559.438206
L 1087.143583 376.563083
" clip-path="url(#p26d755cbce)" style="fill: none; stroke: #64748b; stroke-width: 0.65"/>
    <path d="M 1142.080774 526.94125
L 1087.143583 376.563083
" clip-path="url(#p26d755cbce)" style="fill: none; stroke: #64748b; stroke-width: 0.65"/>
    <path d="M 1192.511031 321.911688
L 1087.143583 376.563083
" clip-path="url(#p26d755cbce)" style="fill: none; stroke: #64748b; stroke-width: 0.65"/>
    <path d="M 1165.191758 373.715399
L 1087.143583 376.563083
" clip-path="url(#p26d755cbce)" style="fill: none; stroke: #64748b; stroke-width: 0.65"/>
    <path d="M 1016.778542 191.350527
L 1087.143583 376.563083
" clip-path="url(#p26d755cbce)" style="fill: none; stroke: #64748b; stroke-width: 0.65"/>
    <path d="M 1226.357236 477.708505
L 1087.143583 376.563083
" clip-path="url(#p26d755cbce)" style="fill: none; stroke: #64748b; stroke-width: 0.65"/>
    <path d="M 1242.932023 391.058022
L 1087.143583 376.563083
" clip-path="url(#p26d755cbce)" style="fill: none; stroke: #64748b; stroke-width: 0.65"/>
    <path d="M 888.370189 345.383234
L 1087.143583 376.563083
" clip-path="url(#p26d755cbce)" style="fill: none; stroke: #64748b; stroke-width: 0.65"/>
    <path d="M 1145.709727 286.365252
L 1087.143583 376.563083
" clip-path="url(#p26d755cbce)" style="fill: none; stroke: #64748b; stroke-width: 0.65"/>
    <path d="M 1049.260351 591.316917
L 1087.143583 376.563083
" clip-path="url(#p26d755cbce)" style="fill: none; stroke: #64748b; stroke-width: 0.65"/>
    <path d="M 1175.095409 447.00913
L 1087.143583 376.563083
" clip-path="url(#p26d755cbce)" style="fill: none; stroke: #64748b; stroke-width: 0.65"/>
    <path d="M 1134.670943 418.484636
L 1087.143583 376.563083
" clip-path="url(#p26d755cbce)" style="fill: none; stroke: #64748b; stroke-width: 0.65"/>
    <path d="M 1010.645904 256.436937
L 1087.143583 376.563083
" clip-path="url(#p26d755cbce)" style="fill: none; stroke: #64748b; stroke-width: 0.65"/>
    <path d="M 1087.299921 509.614207
L 1087.143583 376.563083
" clip-path="url(#p26d755cbce)" style="fill: none; stroke: #64748b; stroke-width: 0.65"/>
    <path d="M 1134.804076 209.094629
L 1087.143583 376.563083
" clip-path="url(#p26d755cbce)" style="fill: none; stroke: #64748b; stroke-width: 0.65"/>
    <path d="M 1072.559099 269.099821
L 1087.143583 376.563083
" clip-path="url(#p26d755cbce)" style="fill: none; stroke: #64748b; stroke-width: 0.65"/>
    <path d="M 1205.021084 528.999272
L 1087.143583 376.563083
" clip-path="url(#p26d755cbce)" style="fill: none; stroke: #64748b; stroke-width: 0.65"/>
    <path d="M 914.542765 411.798113
L 1023.442643 453.823195
" clip-path="url(#p26d755cbce)" style="fill: none; stroke: #64748b; stroke-width: 0.65"/>
    <path d="M 946.393935 311.943212
L 1023.442643 453.823195
" clip-path="url(#p26d755cbce)" style="fill: none; stroke: #64748b; stroke-width: 0.65"/>
    <path d="M 951.442876 250.697138
L 1023.442643 453.823195
" clip-path="url(#p26d755cbce)" style="fill: none; stroke: #64748b; stroke-width: 0.65"/>
    <path d="M 949.609144 351.547131
L 1023.442643 453.823195
" clip-path="url(#p26d755cbce)" style="fill: none; stroke: #64748b; stroke-width: 0.65"/>
    <path d="M 1142.002218 478.333216
L 1023.442643 453.823195
" clip-path="url(#p26d755cbce)" style="fill: none; stroke: #64748b; stroke-width: 0.65"/>
    <path d="M 929.180669 467.606213
L 1023.442643 453.823195
" clip-path="url(#p26d755cbce)" style="fill: none; stroke: #64748b; stroke-width: 0.65"/>
    <path d="M 1028.210224 547.101069
L 1023.442643 453.823195
" clip-path="url(#p26d755cbce)" style="fill: none; stroke: #64748b; stroke-width: 0.65"/>
    <path d="M 1107.803737 559.438206
L 1023.442643 453.823195
" clip-path="url(#p26d755cbce)" style="fill: none; stroke: #64748b; stroke-width: 0.65"/>
    <path d="M 963.674161 598.317572
L 1023.442643 453.823195
" clip-path="url(#p26d755cbce)" style="fill: none; stroke: #64748b; stroke-width: 0.65"/>
    <path d="M 1142.080774 526.94125
L 1023.442643 453.823195
" clip-path="url(#p26d755cbce)" style="fill: none; stroke: #64748b; stroke-width: 0.65"/>
    <path d="M 832.430546 391.058402
L 1023.442643 453.823195
" clip-path="url(#p26d755cbce)" style="fill: none; stroke: #64748b; stroke-width: 0.65"/>
    <path d="M 1192.511031 321.911688
L 1023.442643 453.823195
" clip-path="url(#p26d755cbce)" style="fill: none; stroke: #64748b; stroke-width: 0.65"/>
    <path d="M 1137.377428 627.08092
L 1023.442643 453.823195
" clip-path="url(#p26d755cbce)" style="fill: none; stroke: #64748b; stroke-width: 0.65"/>
    <path d="M 855.548022 518.855361
L 1023.442643 453.823195
" clip-path="url(#p26d755cbce)" style="fill: none; stroke: #64748b; stroke-width: 0.65"/>
    <path d="M 879.412106 292.8215
L 1023.442643 453.823195
" clip-path="url(#p26d755cbce)" style="fill: none; stroke: #64748b; stroke-width: 0.65"/>
    <path d="M 1165.191758 373.715399
L 1023.442643 453.823195
" clip-path="url(#p26d755cbce)" style="fill: none; stroke: #64748b; stroke-width: 0.65"/>
    <path d="M 1226.357236 477.708505
L 1023.442643 453.823195
" clip-path="url(#p26d755cbce)" style="fill: none; stroke: #64748b; stroke-width: 0.65"/>
    <path d="M 966.369668 656.409473
L 1023.442643 453.823195
" clip-path="url(#p26d755cbce)" style="fill: none; stroke: #64748b; stroke-width: 0.65"/>
    <path d="M 909.606593 535.033194
L 1023.442643 453.823195
" clip-path="url(#p26d755cbce)" style="fill: none; stroke: #64748b; stroke-width: 0.65"/>
    <path d="M 888.370189 345.383234
L 1023.442643 453.823195
" clip-path="url(#p26d755cbce)" style="fill: none; stroke: #64748b; stroke-width: 0.65"/>
    <path d="M 896.537926 588.003523
L 1023.442643 453.823195
" clip-path="url(#p26d755cbce)" style="fill: none; stroke: #64748b; stroke-width: 0.65"/>
    <path d="M 1145.709727 286.365252
L 1023.442643 453.823195
" clip-path="url(#p26d755cbce)" style="fill: none; stroke: #64748b; stroke-width: 0.65"/>
    <path d="M 1049.260351 591.316917
L 1023.442643 453.823195
" clip-path="url(#p26d755cbce)" style="fill: none; stroke: #64748b; stroke-width: 0.65"/>
    <path d="M 867.106927 456.239089
L 1023.442643 453.823195
" clip-path="url(#p26d755cbce)" style="fill: none; stroke: #64748b; stroke-width: 0.65"/>
    <path d="M 1175.095409 447.00913
L 1023.442643 453.823195
" clip-path="url(#p26d755cbce)" style="fill: none; stroke: #64748b; stroke-width: 0.65"/>
    <path d="M 1134.670943 418.484636
L 1023.442643 453.823195
" clip-path="url(#p26d755cbce)" style="fill: none; stroke: #64748b; stroke-width: 0.65"/>
    <path d="M 1010.645904 256.436937
L 1023.442643 453.823195
" clip-path="url(#p26d755cbce)" style="fill: none; stroke: #64748b; stroke-width: 0.65"/>
    <path d="M 1087.299921 509.614207
L 1023.442643 453.823195
" clip-path="url(#p26d755cbce)" style="fill: none; stroke: #64748b; stroke-width: 0.65"/>
    <path d="M 1072.559099 269.099821
L 1023.442643 453.823195
" clip-path="url(#p26d755cbce)" style="fill: none; stroke: #64748b; stroke-width: 0.65"/>
    <path d="M 1205.021084 528.999272
L 1023.442643 453.823195
" clip-path="url(#p26d755cbce)" style="fill: none; stroke: #64748b; stroke-width: 0.65"/>
   </g>
   <g id="PathCollection_2">
    <defs>
     <path id="m7e11591f4b" d="M -6.5 6.5
L 6.5 6.5
L 6.5 -6.5
L -6.5 -6.5
z
" style="stroke: #334155; stroke-width: 0.8"/>
    </defs>
    <g clip-path="url(#p26d755cbce)">
     <use xlink:href="#m7e11591f4b" x="985.821812" y="440.830012" style="fill: #f59e0b; stroke: #334155; stroke-width: 0.8"/>
     <use xlink:href="#m7e11591f4b" x="980.551367" y="532.0754" style="fill: #f59e0b; stroke: #334155; stroke-width: 0.8"/>
     <use xlink:href="#m7e11591f4b" x="1064.557364" y="440.99451" style="fill: #f59e0b; stroke: #334155; stroke-width: 0.8"/>
     <use xlink:href="#m7e11591f4b" x="1017.668559" y="336.502686" style="fill: #f59e0b; stroke: #334155; stroke-width: 0.8"/>
     <use xlink:href="#m7e11591f4b" x="1029.002054" y="429.853614" style="fill: #f59e0b; stroke: #334155; stroke-width: 0.8"/>
     <use xlink:href="#m7e11591f4b" x="1059.270508" y="640.480416" style="fill: #f59e0b; stroke: #334155; stroke-width: 0.8"/>
     <use xlink:href="#m7e11591f4b" x="1023.442643" y="453.823195" style="fill: #f59e0b; stroke: #334155; stroke-width: 0.8"/>
     <use xlink:href="#m7e11591f4b" x="1087.143583" y="376.563083" style="fill: #f59e0b; stroke: #334155; stroke-width: 0.8"/>
     <use xlink:href="#m7e11591f4b" x="1078.370558" y="319.516736" style="fill: #f59e0b; stroke: #334155; stroke-width: 0.8"/>
     <use xlink:href="#m7e11591f4b" x="1014.471995" y="397.830682" style="fill: #f59e0b; stroke: #334155; stroke-width: 0.8"/>
    </g>
   </g>
   <g id="PathCollection_3">
    <defs>
     <path id="md867d47734" d="M 0 5
C 1.326016 5 2.597899 4.473168 3.535534 3.535534
C 4.473168 2.597899 5 1.326016 5 0
C 5 -1.326016 4.473168 -2.597899 3.535534 -3.535534
C 2.597899 -4.473168 1.326016 -5 0 -5
C -1.326016 -5 -2.597899 -4.473168 -3.535534 -3.535534
C -4.473168 -2.597899 -5 -1.326016 -5 0
C -5 1.326016 -4.473168 2.597899 -3.535534 3.535534
C -2.597899 4.473168 -1.326016 5 0 5
z
" style="stroke: #334155; stroke-width: 0.8"/>
    </defs>
    <g clip-path="url(#p26d755cbce)">
     <use xlink:href="#md867d47734" x="963.674161" y="598.317572" style="fill: #38bdf8; stroke: #334155; stroke-width: 0.8"/>
     <use xlink:href="#md867d47734" x="1242.932023" y="391.058022" style="fill: #38bdf8; stroke: #334155; stroke-width: 0.8"/>
     <use xlink:href="#md867d47734" x="1072.559099" y="269.099821" style="fill: #38bdf8; stroke: #334155; stroke-width: 0.8"/>
     <use xlink:href="#md867d47734" x="914.542765" y="411.798113" style="fill: #38bdf8; stroke: #334155; stroke-width: 0.8"/>
     <use xlink:href="#md867d47734" x="1087.299921" y="509.614207" style="fill: #38bdf8; stroke: #334155; stroke-width: 0.8"/>
     <use xlink:href="#md867d47734" x="1192.511031" y="321.911688" style="fill: #38bdf8; stroke: #334155; stroke-width: 0.8"/>
     <use xlink:href="#md867d47734" x="879.412106" y="292.8215" style="fill: #38bdf8; stroke: #334155; stroke-width: 0.8"/>
     <use xlink:href="#md867d47734" x="1028.210224" y="547.101069" style="fill: #38bdf8; stroke: #334155; stroke-width: 0.8"/>
     <use xlink:href="#md867d47734" x="1134.670943" y="418.484636" style="fill: #38bdf8; stroke: #334155; stroke-width: 0.8"/>
     <use xlink:href="#md867d47734" x="929.180669" y="467.606213" style="fill: #38bdf8; stroke: #334155; stroke-width: 0.8"/>
     <use xlink:href="#md867d47734" x="1145.709727" y="286.365252" style="fill: #38bdf8; stroke: #334155; stroke-width: 0.8"/>
     <use xlink:href="#md867d47734" x="949.609144" y="351.547131" style="fill: #38bdf8; stroke: #334155; stroke-width: 0.8"/>
     <use xlink:href="#md867d47734" x="867.106927" y="456.239089" style="fill: #38bdf8; stroke: #334155; stroke-width: 0.8"/>
     <use xlink:href="#md867d47734" x="888.370189" y="345.383234" style="fill: #38bdf8; stroke: #334155; stroke-width: 0.8"/>
     <use xlink:href="#md867d47734" x="1142.002218" y="478.333216" style="fill: #38bdf8; stroke: #334155; stroke-width: 0.8"/>
     <use xlink:href="#md867d47734" x="1165.191758" y="373.715399" style="fill: #38bdf8; stroke: #334155; stroke-width: 0.8"/>
     <use xlink:href="#md867d47734" x="855.548022" y="518.855361" style="fill: #38bdf8; stroke: #334155; stroke-width: 0.8"/>
     <use xlink:href="#md867d47734" x="1142.080774" y="526.94125" style="fill: #38bdf8; stroke: #334155; stroke-width: 0.8"/>
     <use xlink:href="#md867d47734" x="1137.377428" y="627.08092" style="fill: #38bdf8; stroke: #334155; stroke-width: 0.8"/>
     <use xlink:href="#md867d47734" x="1205.021084" y="528.999272" style="fill: #38bdf8; stroke: #334155; stroke-width: 0.8"/>
     <use xlink:href="#md867d47734" x="946.393935" y="311.943212" style="fill: #38bdf8; stroke: #334155; stroke-width: 0.8"/>
     <use xlink:href="#md867d47734" x="1107.803737" y="559.438206" style="fill: #38bdf8; stroke: #334155; stroke-width: 0.8"/>
     <use xlink:href="#md867d47734" x="1226.357236" y="477.708505" style="fill: #38bdf8; stroke: #334155; stroke-width: 0.8"/>
     <use xlink:href="#md867d47734" x="1175.095409" y="447.00913" style="fill: #38bdf8; stroke: #334155; stroke-width: 0.8"/>
     <use xlink:href="#md867d47734" x="909.606593" y="535.033194" style="fill: #38bdf8; stroke: #334155; stroke-width: 0.8"/>
     <use xlink:href="#md867d47734" x="951.442876" y="250.697138" style="fill: #38bdf8; stroke: #334155; stroke-width: 0.8"/>
     <use xlink:href="#md867d47734" x="1010.645904" y="256.436937" style="fill: #38bdf8; stroke: #334155; stroke-width: 0.8"/>
     <use xlink:href="#md867d47734" x="1049.260351" y="591.316917" style="fill: #38bdf8; stroke: #334155; stroke-width: 0.8"/>
     <use xlink:href="#md867d47734" x="828.867977" y="580.032489" style="fill: #38bdf8; stroke: #334155; stroke-width: 0.8"/>
     <use xlink:href="#md867d47734" x="832.430546" y="391.058402" style="fill: #38bdf8; stroke: #334155; stroke-width: 0.8"/>
     <use xlink:href="#md867d47734" x="896.537926" y="588.003523" style="fill: #38bdf8; stroke: #334155; stroke-width: 0.8"/>
     <use xlink:href="#md867d47734" x="966.369668" y="656.409473" style="fill: #38bdf8; stroke: #334155; stroke-width: 0.8"/>
     <use xlink:href="#md867d47734" x="1016.778542" y="191.350527" style="fill: #38bdf8; stroke: #334155; stroke-width: 0.8"/>
     <use xlink:href="#md867d47734" x="1134.804076" y="209.094629" style="fill: #38bdf8; stroke: #334155; stroke-width: 0.8"/>
    </g>
   </g>
   <g id="text_18">
    <text style="font-weight: 700; font-size: 15px; font-family: 'DejaVu Sans'; text-anchor: start; fill: #111827" x="696.6" y="108.72" transform="rotate(-0 696.6 108.72)">XGI bipartite incidence view</text>
   </g>
   <g id="text_19">
    <g clip-path="url(#p26d755cbce)">
     <text style="font-size: 7.6px; font-family: 'DejaVu Sans', 'Bitstream Vera Sans', 'Computer Modern Sans Serif', 'Lucida Grande', 'Verdana', 'Geneva', 'Lucid', 'Arial', 'Helvetica', 'Avant Garde', sans-serif; text-anchor: middle; fill: #111827" x="1029.002054" y="431.950739" transform="rotate(-0 1029.002054 431.950739)">ODYSSEUS</text>
    </g>
   </g>
   <g id="text_20">
    <g clip-path="url(#p26d755cbce)">
     <text style="font-size: 7.6px; font-family: 'DejaVu Sans', 'Bitstream Vera Sans', 'Computer Modern Sans Serif', 'Lucida Grande', 'Verdana', 'Geneva', 'Lucid', 'Arial', 'Helvetica', 'Avant Garde', sans-serif; text-anchor: middle; fill: #111827" x="1023.442643" y="455.92032" transform="rotate(-0 1023.442643 455.92032)">ZEUS</text>
    </g>
   </g>
   <g id="text_21">
    <g clip-path="url(#p26d755cbce)">
     <text style="font-size: 7.6px; font-family: 'DejaVu Sans', 'Bitstream Vera Sans', 'Computer Modern Sans Serif', 'Lucida Grande', 'Verdana', 'Geneva', 'Lucid', 'Arial', 'Helvetica', 'Avant Garde', sans-serif; text-anchor: middle; fill: #111827" x="1087.143583" y="378.660208" transform="rotate(-0 1087.143583 378.660208)">SEA</text>
    </g>
   </g>
   <g id="text_22">
    <g clip-path="url(#p26d755cbce)">
     <text style="font-size: 7.6px; font-family: 'DejaVu Sans', 'Bitstream Vera Sans', 'Computer Modern Sans Serif', 'Lucida Grande', 'Verdana', 'Geneva', 'Lucid', 'Arial', 'Helvetica', 'Avant Garde', sans-serif; text-anchor: middle; fill: #111827" x="1064.557364" y="443.091635" transform="rotate(-0 1064.557364 443.091635)">ATHENA</text>
    </g>
   </g>
   <g id="text_23">
    <g clip-path="url(#p26d755cbce)">
     <text style="font-size: 7.6px; font-family: 'DejaVu Sans', 'Bitstream Vera Sans', 'Computer Modern Sans Serif', 'Lucida Grande', 'Verdana', 'Geneva', 'Lucid', 'Arial', 'Helvetica', 'Avant Garde', sans-serif; text-anchor: middle; fill: #111827" x="985.821812" y="442.927137" transform="rotate(-0 985.821812 442.927137)">MIND</text>
    </g>
   </g>
   <g id="text_24">
    <g clip-path="url(#p26d755cbce)">
     <text style="font-size: 7.6px; font-family: 'DejaVu Sans', 'Bitstream Vera Sans', 'Computer Modern Sans Serif', 'Lucida Grande', 'Verdana', 'Geneva', 'Lucid', 'Arial', 'Helvetica', 'Avant Garde', sans-serif; text-anchor: middle; fill: #111827" x="1014.471995" y="399.927807" transform="rotate(-0 1014.471995 399.927807)">MORTALS</text>
    </g>
   </g>
   <g id="text_25">
    <g clip-path="url(#p26d755cbce)">
     <text style="font-size: 7.6px; font-family: 'DejaVu Sans', 'Bitstream Vera Sans', 'Computer Modern Sans Serif', 'Lucida Grande', 'Verdana', 'Geneva', 'Lucid', 'Arial', 'Helvetica', 'Avant Garde', sans-serif; text-anchor: middle; fill: #111827" x="980.551367" y="533.999744" transform="rotate(-0 980.551367 533.999744)">GENERIC_MAN</text>
    </g>
   </g>
   <g id="text_26">
    <g clip-path="url(#p26d755cbce)">
     <text style="font-size: 7.6px; font-family: 'DejaVu Sans', 'Bitstream Vera Sans', 'Computer Modern Sans Serif', 'Lucida Grande', 'Verdana', 'Geneva', 'Lucid', 'Arial', 'Helvetica', 'Avant Garde', sans-serif; text-anchor: middle; fill: #111827" x="1078.370558" y="321.613861" transform="rotate(-0 1078.370558 321.613861)">PALACE</text>
    </g>
   </g>
   <g id="text_27">
    <g clip-path="url(#p26d755cbce)">
     <text style="font-size: 7.6px; font-family: 'DejaVu Sans', 'Bitstream Vera Sans', 'Computer Modern Sans Serif', 'Lucida Grande', 'Verdana', 'Geneva', 'Lucid', 'Arial', 'Helvetica', 'Avant Garde', sans-serif; text-anchor: middle; fill: #111827" x="1017.668559" y="338.599811" transform="rotate(-0 1017.668559 338.599811)">CIRCE</text>
    </g>
   </g>
   <g id="text_28">
    <g clip-path="url(#p26d755cbce)">
     <text style="font-size: 7.6px; font-family: 'DejaVu Sans', 'Bitstream Vera Sans', 'Computer Modern Sans Serif', 'Lucida Grande', 'Verdana', 'Geneva', 'Lucid', 'Arial', 'Helvetica', 'Avant Garde', sans-serif; text-anchor: middle; fill: #111827" x="1059.270508" y="642.40476" transform="rotate(-0 1059.270508 642.40476)">GENERIC_SON</text>
    </g>
   </g>
   <g id="text_29">
    <g clip-path="url(#p26d755cbce)">
     <text style="font-size: 7.6px; font-family: 'DejaVu Sans', 'Bitstream Vera Sans', 'Computer Modern Sans Serif', 'Lucida Grande', 'Verdana', 'Geneva', 'Lucid', 'Arial', 'Helvetica', 'Avant Garde', sans-serif; text-anchor: middle; fill: #111827" x="914.542765" y="413.895238" transform="rotate(-0 914.542765 413.895238)">fair</text>
    </g>
   </g>
   <g id="text_30">
    <g clip-path="url(#p26d755cbce)">
     <text style="font-size: 7.6px; font-family: 'DejaVu Sans', 'Bitstream Vera Sans', 'Computer Modern Sans Serif', 'Lucida Grande', 'Verdana', 'Geneva', 'Lucid', 'Arial', 'Helvetica', 'Avant Garde', sans-serif; text-anchor: middle; fill: #111827" x="946.393935" y="314.040337" transform="rotate(-0 946.393935 314.040337)">sacred</text>
    </g>
   </g>
   <g id="text_31">
    <g clip-path="url(#p26d755cbce)">
     <text style="font-size: 7.6px; font-family: 'DejaVu Sans', 'Bitstream Vera Sans', 'Computer Modern Sans Serif', 'Lucida Grande', 'Verdana', 'Geneva', 'Lucid', 'Arial', 'Helvetica', 'Avant Garde', sans-serif; text-anchor: middle; fill: #111827" x="1142.002218" y="480.430341" transform="rotate(-0 1142.002218 480.430341)">long</text>
    </g>
   </g>
   <g id="text_32">
    <g clip-path="url(#p26d755cbce)">
     <text style="font-size: 7.6px; font-family: 'DejaVu Sans', 'Bitstream Vera Sans', 'Computer Modern Sans Serif', 'Lucida Grande', 'Verdana', 'Geneva', 'Lucid', 'Arial', 'Helvetica', 'Avant Garde', sans-serif; text-anchor: middle; fill: #111827" x="929.180669" y="469.703338" transform="rotate(-0 929.180669 469.703338)">high</text>
    </g>
   </g>
   <g id="text_33">
    <g clip-path="url(#p26d755cbce)">
     <text style="font-size: 7.6px; font-family: 'DejaVu Sans', 'Bitstream Vera Sans', 'Computer Modern Sans Serif', 'Lucida Grande', 'Verdana', 'Geneva', 'Lucid', 'Arial', 'Helvetica', 'Avant Garde', sans-serif; text-anchor: middle; fill: #111827" x="909.606593" y="537.130319" transform="rotate(-0 909.606593 537.130319)">young</text>
    </g>
   </g>
   <g id="text_34">
    <g clip-path="url(#p26d755cbce)">
     <text style="font-size: 7.6px; font-family: 'DejaVu Sans', 'Bitstream Vera Sans', 'Computer Modern Sans Serif', 'Lucida Grande', 'Verdana', 'Geneva', 'Lucid', 'Arial', 'Helvetica', 'Avant Garde', sans-serif; text-anchor: middle; fill: #111827" x="1028.210224" y="549.198194" transform="rotate(-0 1028.210224 549.198194)">good</text>
    </g>
   </g>
   <g id="text_35">
    <g clip-path="url(#p26d755cbce)">
     <text style="font-size: 7.6px; font-family: 'DejaVu Sans', 'Bitstream Vera Sans', 'Computer Modern Sans Serif', 'Lucida Grande', 'Verdana', 'Geneva', 'Lucid', 'Arial', 'Helvetica', 'Avant Garde', sans-serif; text-anchor: middle; fill: #111827" x="1107.803737" y="561.535331" transform="rotate(-0 1107.803737 561.535331)">strong</text>
    </g>
   </g>
   <g id="text_36">
    <g clip-path="url(#p26d755cbce)">
     <text style="font-size: 7.6px; font-family: 'DejaVu Sans', 'Bitstream Vera Sans', 'Computer Modern Sans Serif', 'Lucida Grande', 'Verdana', 'Geneva', 'Lucid', 'Arial', 'Helvetica', 'Avant Garde', sans-serif; text-anchor: middle; fill: #111827" x="1142.080774" y="529.038375" transform="rotate(-0 1142.080774 529.038375)">old</text>
    </g>
   </g>
   <g id="text_37">
    <g clip-path="url(#p26d755cbce)">
     <text style="font-size: 7.6px; font-family: 'DejaVu Sans', 'Bitstream Vera Sans', 'Computer Modern Sans Serif', 'Lucida Grande', 'Verdana', 'Geneva', 'Lucid', 'Arial', 'Helvetica', 'Avant Garde', sans-serif; text-anchor: middle; fill: #111827" x="1175.095409" y="449.106255" transform="rotate(-0 1175.095409 449.106255)">wise</text>
    </g>
   </g>
   <g id="text_38">
    <g clip-path="url(#p26d755cbce)">
     <text style="font-size: 7.6px; font-family: 'DejaVu Sans', 'Bitstream Vera Sans', 'Computer Modern Sans Serif', 'Lucida Grande', 'Verdana', 'Geneva', 'Lucid', 'Arial', 'Helvetica', 'Avant Garde', sans-serif; text-anchor: middle; fill: #111827" x="1145.709727" y="288.462377" transform="rotate(-0 1145.709727 288.462377)">huge</text>
    </g>
   </g>
   <g id="text_39">
    <g clip-path="url(#p26d755cbce)">
     <text style="font-size: 7.6px; font-family: 'DejaVu Sans', 'Bitstream Vera Sans', 'Computer Modern Sans Serif', 'Lucida Grande', 'Verdana', 'Geneva', 'Lucid', 'Arial', 'Helvetica', 'Avant Garde', sans-serif; text-anchor: middle; fill: #111827" x="867.106927" y="458.336214" transform="rotate(-0 867.106927 458.336214)">kind</text>
    </g>
   </g>
   <g id="text_40">
    <g clip-path="url(#p26d755cbce)">
     <text style="font-size: 7.6px; font-family: 'DejaVu Sans', 'Bitstream Vera Sans', 'Computer Modern Sans Serif', 'Lucida Grande', 'Verdana', 'Geneva', 'Lucid', 'Arial', 'Helvetica', 'Avant Garde', sans-serif; text-anchor: middle; fill: #111827" x="1134.670943" y="420.581761" transform="rotate(-0 1134.670943 420.581761)">great</text>
    </g>
   </g>
   <g id="text_41">
    <g clip-path="url(#p26d755cbce)">
     <text style="font-size: 7.6px; font-family: 'DejaVu Sans', 'Bitstream Vera Sans', 'Computer Modern Sans Serif', 'Lucida Grande', 'Verdana', 'Geneva', 'Lucid', 'Arial', 'Helvetica', 'Avant Garde', sans-serif; text-anchor: middle; fill: #111827" x="1010.645904" y="258.534062" transform="rotate(-0 1010.645904 258.534062)">sad</text>
    </g>
   </g>
   <g id="text_42">
    <g clip-path="url(#p26d755cbce)">
     <text style="font-size: 7.6px; font-family: 'DejaVu Sans', 'Bitstream Vera Sans', 'Computer Modern Sans Serif', 'Lucida Grande', 'Verdana', 'Geneva', 'Lucid', 'Arial', 'Helvetica', 'Avant Garde', sans-serif; text-anchor: middle; fill: #111827" x="1087.299921" y="511.711332" transform="rotate(-0 1087.299921 511.711332)">free</text>
    </g>
   </g>
   <g id="text_43">
    <g clip-path="url(#p26d755cbce)">
     <text style="font-size: 7.6px; font-family: 'DejaVu Sans', 'Bitstream Vera Sans', 'Computer Modern Sans Serif', 'Lucida Grande', 'Verdana', 'Geneva', 'Lucid', 'Arial', 'Helvetica', 'Avant Garde', sans-serif; text-anchor: middle; fill: #111827" x="1072.559099" y="271.196946" transform="rotate(-0 1072.559099 271.196946)">divine</text>
    </g>
   </g>
   <g id="text_44">
    <g clip-path="url(#p26d755cbce)">
     <text style="font-size: 7.6px; font-family: 'DejaVu Sans', 'Bitstream Vera Sans', 'Computer Modern Sans Serif', 'Lucida Grande', 'Verdana', 'Geneva', 'Lucid', 'Arial', 'Helvetica', 'Avant Garde', sans-serif; text-anchor: middle; fill: #111827" x="1016.778542" y="193.447652" transform="rotate(-0 1016.778542 193.447652)">deep</text>
    </g>
   </g>
  </g>
  <g id="text_45">
   <text style="font-weight: 700; font-size: 22px; font-family: 'DejaVu Sans'; text-anchor: start; fill: #111827" x="18" y="23.916562" transform="rotate(-0 18 23.916562)">George Chapman (1616) — Native target-as-hyperedge visualization</text>
  </g>
  <g id="text_46">
   <text style="font-size: 11px; font-family: 'DejaVu Sans'; text-anchor: start; fill: #475569" x="18" y="42.84" transform="rotate(-0 18 42.84)">Readable weighted core: 34 of 125 attribute nodes; 10 of 88 target hyperedges; 237 of 1141 incidences.</text>
  </g>
  <g id="text_47">
   <text style="font-size: 9px; font-family: 'DejaVu Sans'; text-anchor: start; fill: #475569" x="18" y="755.64" transform="rotate(-0 18 755.64)">Attribute circles and target hyperedges use the colors specified in config/visualizations.json.</text>
  </g>
 </g>
 <defs>
  <clipPath id="pc554e67f7a">
   <rect x="7.2" y="122.72" width="678.6" height="602.32"/>
  </clipPath>
  <clipPath id="p26d755cbce">
   <rect x="696.6" y="122.72" width="678.6" height="602.32"/>
  </clipPath>
 </defs>
</svg>
