<?xml version="1.0" encoding="utf-8" standalone="no"?>
<!DOCTYPE svg PUBLIC "-//W3C//DTD SVG 1.1//EN"
  "http://www.w3.org/Graphics/SVG/1.1/DTD/svg11.dtd">
<svg xmlns:xlink="http://www.w3.org/1999/xlink" width="1382.4pt" height="764.711719pt" viewBox="0 0 1382.4 764.711719" xmlns="http://www.w3.org/2000/svg" version="1.1">
 <metadata>
  <rdf:RDF xmlns:dc="http://purl.org/dc/elements/1.1/" xmlns:cc="http://creativecommons.org/ns#" xmlns:rdf="http://www.w3.org/1999/02/22-rdf-syntax-ns#">
   <cc:Work>
    <dc:type rdf:resource="http://purl.org/dc/dcmitype/StillImage"/>
    <dc:format>image/svg+xml</dc:format>
    <dc:creator>
     <cc:Agent>
      <dc:title>Matplotlib v3.10.3, https://matplotlib.org/</dc:title>
     </cc:Agent>
    </dc:creator>
   </cc:Work>
  </rdf:RDF>
 </metadata>
 <defs>
  <style type="text/css">*{stroke-linejoin: round; stroke-linecap: butt}</style>
 </defs>
 <g id="figure_1">
  <g id="patch_1">
   <path d="M 0 764.711719 
L 1382.4 764.711719 
L 1382.4 0 
L 0 0 
z
" style="fill: #0b1220"/>
  </g>
  <g id="axes_1">
   <g id="text_1">
    <text style="font-weight: 700; font-size: 15px; font-family: 'DejaVu Sans'; text-anchor: start; fill: #e5e7eb" x="7.2" y="108.72" transform="rotate(-0 7.2 108.72)">XGI native hyperedge-hull view</text>
   </g>
   <g id="PatchCollection_1">
    <path d="M 214.539966 226.141648 
L 129.822523 384.41704 
L 129.508601 385.033146 
L 129.233984 385.667749 
L 128.999756 386.318342 
L 128.806841 386.982359 
L 128.656001 387.657179 
L 128.547831 388.340138 
L 128.482757 389.028542 
L 128.461038 389.719673 
L 128.482757 390.410805 
L 128.547831 391.099209 
L 128.656001 391.782168 
L 128.806841 392.456988 
L 128.999756 393.121005 
L 129.233984 393.771598 
L 163.119189 485.633116 
L 163.393806 486.267718 
L 195.816981 555.245545 
L 196.130903 555.861652 
L 196.482891 556.456831 
L 196.871557 557.028735 
L 197.295365 557.575106 
L 197.752644 558.093787 
L 198.241589 558.582732 
L 198.76027 559.040011 
L 199.306641 559.463819 
L 199.878545 559.852485 
L 333.120438 650.003296 
L 333.715617 650.355285 
L 334.331724 650.669207 
L 334.966326 650.943823 
L 335.61692 651.178051 
L 336.280936 651.370966 
L 336.955756 651.521806 
L 337.638716 651.629976 
L 338.32712 651.69505 
L 339.018251 651.716769 
L 339.709382 651.69505 
L 340.397786 651.629976 
L 341.080746 651.521806 
L 341.755566 651.370966 
L 342.419582 651.178051 
L 343.070176 650.943823 
L 428.000974 615.672866 
L 428.635576 615.398249 
L 518.188756 573.477048 
L 518.804863 573.163126 
L 519.400042 572.811137 
L 519.971946 572.422472 
L 520.518316 571.998664 
L 521.036998 571.541385 
L 521.525943 571.05244 
L 521.983222 570.533758 
L 522.40703 569.987388 
L 522.795695 569.415484 
L 523.147684 568.820304 
L 563.177477 495.577696 
L 563.491399 494.96159 
L 563.766016 494.326988 
L 564.000244 493.676394 
L 564.193159 493.012377 
L 564.343999 492.337558 
L 564.452169 491.654598 
L 564.517243 490.966194 
L 564.538962 490.275063 
L 564.517243 489.583931 
L 564.452169 488.895527 
L 541.683165 339.273666 
L 541.574995 338.590707 
L 541.424155 337.915887 
L 541.23124 337.25187 
L 540.997012 336.601277 
L 540.722395 335.966674 
L 540.408473 335.350568 
L 540.056485 334.755388 
L 539.66782 334.183485 
L 442.954564 200.580453 
L 442.530756 200.034083 
L 442.073477 199.515402 
L 441.584532 199.026457 
L 441.06585 198.569177 
L 440.51948 198.145369 
L 439.947576 197.756704 
L 439.352397 197.404715 
L 438.73629 197.090793 
L 438.101688 196.816177 
L 437.451095 196.581949 
L 436.787078 196.389034 
L 436.112258 196.238194 
L 435.429299 196.130024 
L 434.740895 196.06495 
L 434.049763 196.043231 
L 433.358632 196.06495 
L 432.670228 196.130024 
L 222.805885 220.524135 
L 222.122926 220.632305 
L 221.448106 220.783145 
L 220.784089 220.97606 
L 220.133496 221.210288 
L 219.498893 221.484904 
L 218.882787 221.798826 
L 218.287607 222.150815 
L 217.715704 222.53948 
L 217.169333 222.963288 
L 216.650652 223.420568 
L 216.161707 223.909513 
L 215.704428 224.428194 
L 215.280619 224.974564 
L 214.891954 225.546468 
z
" clip-path="url(#pc554e67f7a)" style="fill: #f59e0b; fill-opacity: 0.13; stroke: #fbbf24; stroke-opacity: 0.13; stroke-width: 0.8"/>
    <path d="M 214.539966 226.141648 
L 129.822523 384.41704 
L 129.508601 385.033146 
L 129.233984 385.667749 
L 128.999756 386.318342 
L 128.806841 386.982359 
L 128.656001 387.657179 
L 128.547831 388.340138 
L 128.482757 389.028542 
L 128.461038 389.719673 
L 128.482757 390.410805 
L 128.547831 391.099209 
L 128.656001 391.782168 
L 128.806841 392.456988 
L 128.999756 393.121005 
L 129.233984 393.771598 
L 163.119189 485.633116 
L 163.393806 486.267718 
L 195.816981 555.245545 
L 196.130903 555.861652 
L 196.482891 556.456831 
L 196.871557 557.028735 
L 197.295365 557.575106 
L 243.494878 616.463185 
L 243.952157 616.981866 
L 244.441102 617.470811 
L 244.959783 617.92809 
L 245.506154 618.351898 
L 246.078058 618.740564 
L 246.673237 619.092552 
L 247.289344 619.406474 
L 247.923946 619.681091 
L 248.574539 619.915319 
L 249.238556 620.108234 
L 249.913376 620.259074 
L 250.596335 620.367244 
L 251.284739 620.432317 
L 251.975871 620.454037 
L 252.667002 620.432317 
L 253.355406 620.367244 
L 254.038366 620.259074 
L 424.587428 586.213802 
L 425.262248 586.062962 
L 425.926265 585.870047 
L 426.576858 585.635819 
L 427.21146 585.361202 
L 427.827567 585.04728 
L 428.422746 584.695292 
L 428.99465 584.306627 
L 429.541021 583.882818 
L 430.059702 583.425539 
L 430.548647 582.936594 
L 431.005926 582.417913 
L 431.429734 581.871542 
L 431.8184 581.299639 
L 432.170388 580.704459 
L 505.783406 441.100549 
L 506.097328 440.484442 
L 506.371945 439.84984 
L 506.606173 439.199247 
L 506.799087 438.53523 
L 506.949928 437.86041 
L 507.058098 437.17745 
L 507.123171 436.489047 
L 507.144891 435.797915 
L 507.123171 435.106784 
L 507.058098 434.41838 
L 491.239948 298.310444 
L 491.131778 297.627485 
L 490.980938 296.952665 
L 490.788023 296.288648 
L 490.553795 295.638055 
L 490.279178 295.003453 
L 489.965256 294.387346 
L 489.613268 293.792166 
L 489.224603 293.220263 
L 488.800794 292.673892 
L 488.343515 292.155211 
L 487.85457 291.666266 
L 487.335889 291.208987 
L 486.789518 290.785178 
L 486.217615 290.396513 
L 485.622435 290.044525 
L 485.006328 289.730603 
L 484.371726 289.455986 
L 483.721133 289.221758 
L 326.586208 242.234203 
L 325.922191 242.041288 
L 325.247371 241.890448 
L 226.247915 220.632305 
L 225.564956 220.524135 
L 224.876552 220.459061 
L 224.18542 220.437342 
L 223.494289 220.459061 
L 222.805885 220.524135 
L 222.122926 220.632305 
L 221.448106 220.783145 
L 220.784089 220.97606 
L 220.133496 221.210288 
L 219.498893 221.484904 
L 218.882787 221.798826 
L 218.287607 222.150815 
L 217.715704 222.53948 
L 217.169333 222.963288 
L 216.650652 223.420568 
L 216.161707 223.909513 
L 215.704428 224.428194 
L 215.280619 224.974564 
L 214.891954 225.546468 
z
" clip-path="url(#pc554e67f7a)" style="fill: #f59e0b; fill-opacity: 0.13; stroke: #fbbf24; stroke-opacity: 0.13; stroke-width: 0.8"/>
    <path d="M 261.036169 324.282668 
L 164.059717 475.683378 
L 163.707728 476.278558 
L 163.393806 476.894664 
L 163.119189 477.529266 
L 162.884961 478.17986 
L 162.692047 478.843877 
L 162.541207 479.518696 
L 162.433037 480.201656 
L 162.367963 480.89006 
L 162.346243 481.581191 
L 162.367963 482.272323 
L 162.433037 482.960726 
L 162.541207 483.643686 
L 162.692047 484.318506 
L 162.884961 484.982522 
L 163.119189 485.633116 
L 163.393806 486.267718 
L 195.816981 555.245545 
L 196.130903 555.861652 
L 196.482891 556.456831 
L 196.871557 557.028735 
L 197.295365 557.575106 
L 243.494878 616.463185 
L 243.952157 616.981866 
L 244.441102 617.470811 
L 244.959783 617.92809 
L 245.506154 618.351898 
L 246.078058 618.740564 
L 246.673237 619.092552 
L 247.289344 619.406474 
L 247.923946 619.681091 
L 248.574539 619.915319 
L 335.61692 651.178051 
L 336.280936 651.370966 
L 336.955756 651.521806 
L 337.638716 651.629976 
L 338.32712 651.69505 
L 339.018251 651.716769 
L 339.709382 651.69505 
L 340.397786 651.629976 
L 341.080746 651.521806 
L 341.755566 651.370966 
L 342.419582 651.178051 
L 343.070176 650.943823 
L 428.000974 615.672866 
L 428.635576 615.398249 
L 518.188756 573.477048 
L 518.804863 573.163126 
L 519.400042 572.811137 
L 519.971946 572.422472 
L 520.518316 571.998664 
L 521.036998 571.541385 
L 521.525943 571.05244 
L 521.983222 570.533758 
L 522.40703 569.987388 
L 522.795695 569.415484 
L 523.147684 568.820304 
L 563.177477 495.577696 
L 563.491399 494.96159 
L 563.766016 494.326988 
L 564.000244 493.676394 
L 564.193159 493.012377 
L 564.343999 492.337558 
L 564.452169 491.654598 
L 564.517243 490.966194 
L 564.538962 490.275063 
L 564.517243 489.583931 
L 564.452169 488.895527 
L 564.343999 488.212568 
L 564.193159 487.537748 
L 564.000244 486.873731 
L 563.766016 486.223138 
L 563.491399 485.588536 
L 563.177477 484.972429 
L 562.825489 484.37725 
L 562.436824 483.805346 
L 562.013015 483.258976 
L 561.555736 482.740294 
L 561.066791 482.251349 
L 503.672077 427.771415 
L 503.153395 427.314136 
L 430.853733 363.685124 
L 430.307362 363.261316 
L 429.735459 362.872651 
L 429.140279 362.520662 
L 428.524172 362.20674 
L 427.88957 361.932123 
L 367.41772 339.905312 
L 366.767126 339.671084 
L 366.10311 339.478169 
L 365.42829 339.327329 
L 272.392131 319.368505 
L 271.709171 319.260335 
L 271.020767 319.195262 
L 270.329636 319.173542 
L 269.638504 319.195262 
L 268.950101 319.260335 
L 268.267141 319.368505 
L 267.592321 319.519345 
L 266.928305 319.71226 
L 266.277711 319.946488 
L 265.643109 320.221105 
L 265.027002 320.535027 
L 264.431823 320.887015 
L 263.859919 321.27568 
L 263.313549 321.699489 
L 262.794867 322.156768 
L 262.305922 322.645713 
L 261.848643 323.164394 
L 261.424835 323.710765 
z
" clip-path="url(#pc554e67f7a)" style="fill: #f59e0b; fill-opacity: 0.13; stroke: #fbbf24; stroke-opacity: 0.13; stroke-width: 0.8"/>
    <path d="M 251.975871 620.454037 
L 423.949049 616.445812 
L 424.640181 616.424093 
L 425.328585 616.359019 
L 426.011544 616.250849 
L 426.686364 616.100009 
L 427.350381 615.907094 
L 428.000974 615.672866 
L 428.635576 615.398249 
L 429.251683 615.084327 
L 429.846862 614.732339 
L 430.418766 614.343674 
L 430.965137 613.919865 
L 431.483818 613.462586 
L 561.066791 498.298776 
L 561.555736 497.809831 
L 562.013015 497.29115 
L 562.436824 496.74478 
L 562.825489 496.172876 
L 563.177477 495.577696 
L 563.491399 494.96159 
L 563.766016 494.326988 
L 564.000244 493.676394 
L 564.193159 493.012377 
L 564.343999 492.337558 
L 564.452169 491.654598 
L 564.517243 490.966194 
L 564.538962 490.275063 
L 564.517243 489.583931 
L 564.452169 488.895527 
L 541.683165 339.273666 
L 541.574995 338.590707 
L 541.424155 337.915887 
L 541.23124 337.25187 
L 540.997012 336.601277 
L 540.722395 335.966674 
L 540.408473 335.350568 
L 540.056485 334.755388 
L 539.66782 334.183485 
L 539.244011 333.637114 
L 538.786732 333.118433 
L 538.297787 332.629488 
L 537.779106 332.172209 
L 537.232735 331.7484 
L 536.660832 331.359735 
L 536.065652 331.007747 
L 535.449545 330.693825 
L 534.814943 330.419208 
L 327.236801 242.468431 
L 326.586208 242.234203 
L 325.922191 242.041288 
L 325.247371 241.890448 
L 324.564412 241.782278 
L 323.876008 241.717204 
L 323.184877 241.695485 
L 322.493745 241.717204 
L 321.805341 241.782278 
L 321.122382 241.890448 
L 320.447562 242.041288 
L 319.783545 242.234203 
L 319.132952 242.468431 
L 318.49835 242.743048 
L 317.882243 243.05697 
L 197.215524 309.806501 
L 196.620345 310.158489 
L 196.048441 310.547154 
L 195.502071 310.970963 
L 194.983389 311.428242 
L 194.494444 311.917187 
L 131.444264 382.184905 
L 130.986985 382.703586 
L 130.563176 383.249957 
L 130.174511 383.82186 
L 129.822523 384.41704 
L 129.508601 385.033146 
L 129.233984 385.667749 
L 128.999756 386.318342 
L 128.806841 386.982359 
L 128.656001 387.657179 
L 128.547831 388.340138 
L 128.482757 389.028542 
L 128.461038 389.719673 
L 128.482757 390.410805 
L 128.547831 391.099209 
L 128.656001 391.782168 
L 128.806841 392.456988 
L 128.999756 393.121005 
L 129.233984 393.771598 
L 195.542364 554.610943 
L 195.816981 555.245545 
L 196.130903 555.861652 
L 196.482891 556.456831 
L 196.871557 557.028735 
L 197.295365 557.575106 
L 243.494878 616.463185 
L 243.952157 616.981866 
L 244.441102 617.470811 
L 244.959783 617.92809 
L 245.506154 618.351898 
L 246.078058 618.740564 
L 246.673237 619.092552 
L 247.289344 619.406474 
L 247.923946 619.681091 
L 248.574539 619.915319 
L 249.238556 620.108234 
L 249.913376 620.259074 
L 250.596335 620.367244 
L 251.284739 620.432317 
z
" clip-path="url(#pc554e67f7a)" style="fill: #f59e0b; fill-opacity: 0.13; stroke: #fbbf24; stroke-opacity: 0.13; stroke-width: 0.8"/>
    <path d="M 164.059717 487.479004 
L 242.682404 615.34491 
L 243.07107 615.916814 
L 243.494878 616.463185 
L 243.952157 616.981866 
L 244.441102 617.470811 
L 244.959783 617.92809 
L 245.506154 618.351898 
L 246.078058 618.740564 
L 246.673237 619.092552 
L 247.289344 619.406474 
L 247.923946 619.681091 
L 248.574539 619.915319 
L 335.61692 651.178051 
L 336.280936 651.370966 
L 336.955756 651.521806 
L 337.638716 651.629976 
L 338.32712 651.69505 
L 339.018251 651.716769 
L 339.709382 651.69505 
L 340.397786 651.629976 
L 341.080746 651.521806 
L 341.755566 651.370966 
L 342.419582 651.178051 
L 343.070176 650.943823 
L 428.000974 615.672866 
L 428.635576 615.398249 
L 429.251683 615.084327 
L 429.846862 614.732339 
L 430.418766 614.343674 
L 430.965137 613.919865 
L 431.483818 613.462586 
L 431.972763 612.973641 
L 432.430042 612.45496 
L 432.85385 611.90859 
L 433.242516 611.336686 
L 433.594504 610.741506 
L 433.908426 610.1254 
L 434.183043 609.490798 
L 506.371945 439.84984 
L 540.997012 344.705126 
L 541.23124 344.054533 
L 541.424155 343.390516 
L 541.574995 342.715696 
L 541.683165 342.032737 
L 541.748238 341.344333 
L 541.769958 340.653201 
L 541.748238 339.96207 
L 541.683165 339.273666 
L 541.574995 338.590707 
L 541.424155 337.915887 
L 541.23124 337.25187 
L 540.997012 336.601277 
L 540.722395 335.966674 
L 540.408473 335.350568 
L 540.056485 334.755388 
L 539.66782 334.183485 
L 539.244011 333.637114 
L 538.786732 333.118433 
L 538.297787 332.629488 
L 537.779106 332.172209 
L 537.232735 331.7484 
L 536.660832 331.359735 
L 536.065652 331.007747 
L 535.449545 330.693825 
L 411.955684 271.10809 
L 411.321082 270.833473 
L 410.670489 270.599245 
L 410.006472 270.40633 
L 409.331652 270.25549 
L 317.433974 249.752919 
L 316.751015 249.644749 
L 316.062611 249.579676 
L 315.371479 249.557956 
L 314.680348 249.579676 
L 313.991944 249.644749 
L 313.308985 249.752919 
L 312.634165 249.903759 
L 311.970148 250.096674 
L 311.319555 250.330902 
L 310.684952 250.605519 
L 310.068846 250.919441 
L 197.215524 309.806501 
L 196.620345 310.158489 
L 196.048441 310.547154 
L 195.502071 310.970963 
L 194.983389 311.428242 
L 194.494444 311.917187 
L 194.037165 312.435868 
L 193.613357 312.982239 
L 193.224691 313.554142 
L 192.872703 314.149322 
L 192.558781 314.765429 
L 192.284164 315.400031 
L 192.049936 316.050624 
L 191.857022 316.714641 
L 191.706182 317.389461 
L 162.541207 479.518696 
L 162.433037 480.201656 
L 162.367963 480.89006 
L 162.346243 481.581191 
L 162.367963 482.272323 
L 162.433037 482.960726 
L 162.541207 483.643686 
L 162.692047 484.318506 
L 162.884961 484.982522 
L 163.119189 485.633116 
L 163.393806 486.267718 
L 163.707728 486.883825 
z
" clip-path="url(#pc554e67f7a)" style="fill: #f59e0b; fill-opacity: 0.13; stroke: #fbbf24; stroke-opacity: 0.13; stroke-width: 0.8"/>
    <path d="M 216.055909 417.982604 
L 241.055724 610.826633 
L 241.163894 611.509592 
L 241.314734 612.184412 
L 241.507649 612.848429 
L 241.741877 613.499022 
L 242.016494 614.133624 
L 242.330416 614.749731 
L 242.682404 615.34491 
L 243.07107 615.916814 
L 243.494878 616.463185 
L 243.952157 616.981866 
L 244.441102 617.470811 
L 244.959783 617.92809 
L 245.506154 618.351898 
L 246.078058 618.740564 
L 246.673237 619.092552 
L 247.289344 619.406474 
L 247.923946 619.681091 
L 248.574539 619.915319 
L 249.238556 620.108234 
L 249.913376 620.259074 
L 250.596335 620.367244 
L 251.284739 620.432317 
L 251.975871 620.454037 
L 252.667002 620.432317 
L 253.355406 620.367244 
L 254.038366 620.259074 
L 515.564724 574.329647 
L 516.239544 574.178807 
L 516.90356 573.985892 
L 517.554154 573.751664 
L 518.188756 573.477048 
L 518.804863 573.163126 
L 519.400042 572.811137 
L 519.971946 572.422472 
L 520.518316 571.998664 
L 521.036998 571.541385 
L 521.525943 571.05244 
L 521.983222 570.533758 
L 522.40703 569.987388 
L 522.795695 569.415484 
L 523.147684 568.820304 
L 523.461606 568.204198 
L 523.736223 567.569596 
L 523.970451 566.919002 
L 524.163365 566.254985 
L 524.314205 565.580166 
L 524.422376 564.897206 
L 524.487449 564.208802 
L 524.509169 563.517671 
L 524.487449 562.826539 
L 524.422376 562.138136 
L 491.239948 298.310444 
L 491.131778 297.627485 
L 490.980938 296.952665 
L 490.788023 296.288648 
L 490.553795 295.638055 
L 490.279178 295.003453 
L 444.00914 202.363643 
L 443.695218 201.747537 
L 443.34323 201.152357 
L 442.954564 200.580453 
L 442.530756 200.034083 
L 442.073477 199.515402 
L 441.584532 199.026457 
L 441.06585 198.569177 
L 440.51948 198.145369 
L 439.947576 197.756704 
L 439.352397 197.404715 
L 438.73629 197.090793 
L 438.101688 196.816177 
L 437.451095 196.581949 
L 436.787078 196.389034 
L 436.112258 196.238194 
L 435.429299 196.130024 
L 434.740895 196.06495 
L 434.049763 196.043231 
L 433.358632 196.06495 
L 432.670228 196.130024 
L 431.987268 196.238194 
L 431.312449 196.389034 
L 430.648432 196.581949 
L 429.997839 196.816177 
L 319.132952 242.468431 
L 318.49835 242.743048 
L 317.882243 243.05697 
L 317.287064 243.408958 
L 316.71516 243.797623 
L 316.168789 244.221432 
L 315.650108 244.678711 
L 315.161163 245.167656 
L 314.703884 245.686337 
L 314.280076 246.232707 
L 261.424835 323.710765 
L 261.036169 324.282668 
L 260.684181 324.877848 
L 260.370259 325.493955 
L 217.016679 411.916542 
L 216.742062 412.551144 
L 216.507834 413.201738 
L 216.314919 413.865755 
L 216.164079 414.540574 
L 216.055909 415.223534 
L 215.990835 415.911938 
L 215.969116 416.603069 
L 215.990835 417.294201 
z
" clip-path="url(#pc554e67f7a)" style="fill: #f59e0b; fill-opacity: 0.13; stroke: #fbbf24; stroke-opacity: 0.13; stroke-width: 0.8"/>
    <path d="M 195.795449 399.217847 
L 194.769418 550.559018 
L 194.791138 551.25015 
L 194.856211 551.938554 
L 194.964381 552.621513 
L 195.115221 553.296333 
L 195.308136 553.96035 
L 195.542364 554.610943 
L 195.816981 555.245545 
L 196.130903 555.861652 
L 196.482891 556.456831 
L 196.871557 557.028735 
L 197.295365 557.575106 
L 243.494878 616.463185 
L 243.952157 616.981866 
L 244.441102 617.470811 
L 244.959783 617.92809 
L 245.506154 618.351898 
L 246.078058 618.740564 
L 246.673237 619.092552 
L 247.289344 619.406474 
L 247.923946 619.681091 
L 248.574539 619.915319 
L 335.61692 651.178051 
L 336.280936 651.370966 
L 336.955756 651.521806 
L 337.638716 651.629976 
L 338.32712 651.69505 
L 339.018251 651.716769 
L 339.709382 651.69505 
L 340.397786 651.629976 
L 341.080746 651.521806 
L 341.755566 651.370966 
L 342.419582 651.178051 
L 343.070176 650.943823 
L 428.000974 615.672866 
L 428.635576 615.398249 
L 518.188756 573.477048 
L 518.804863 573.163126 
L 519.400042 572.811137 
L 519.971946 572.422472 
L 520.518316 571.998664 
L 521.036998 571.541385 
L 521.525943 571.05244 
L 521.983222 570.533758 
L 522.40703 569.987388 
L 522.795695 569.415484 
L 523.147684 568.820304 
L 523.461606 568.204198 
L 523.736223 567.569596 
L 523.970451 566.919002 
L 524.163365 566.254985 
L 524.314205 565.580166 
L 524.422376 564.897206 
L 524.487449 564.208802 
L 524.509169 563.517671 
L 524.487449 562.826539 
L 524.422376 562.138136 
L 491.239948 298.310444 
L 491.131778 297.627485 
L 490.980938 296.952665 
L 490.788023 296.288648 
L 490.553795 295.638055 
L 490.279178 295.003453 
L 489.965256 294.387346 
L 489.613268 293.792166 
L 489.224603 293.220263 
L 488.800794 292.673892 
L 488.343515 292.155211 
L 487.85457 291.666266 
L 487.335889 291.208987 
L 486.789518 290.785178 
L 486.217615 290.396513 
L 485.622435 290.044525 
L 485.006328 289.730603 
L 484.371726 289.455986 
L 483.721133 289.221758 
L 483.057116 289.028843 
L 482.382296 288.878003 
L 481.699337 288.769833 
L 481.010933 288.70476 
L 480.319801 288.68304 
L 479.62867 288.70476 
L 478.940266 288.769833 
L 478.257307 288.878003 
L 477.582487 289.028843 
L 476.91847 289.221758 
L 476.267877 289.455986 
L 202.750464 388.983854 
L 202.115861 389.258471 
L 201.499755 389.572393 
L 200.904575 389.924381 
L 200.332672 390.313046 
L 199.786301 390.736854 
L 199.26762 391.194134 
L 198.778675 391.683079 
L 198.321396 392.20176 
L 197.897587 392.74813 
L 197.508922 393.320034 
L 197.156934 393.915214 
L 196.843012 394.53132 
L 196.568395 395.165922 
L 196.334167 395.816516 
L 196.141252 396.480533 
L 195.990412 397.155352 
L 195.882242 397.838312 
L 195.817168 398.526716 
z
" clip-path="url(#pc554e67f7a)" style="fill: #f59e0b; fill-opacity: 0.13; stroke: #fbbf24; stroke-opacity: 0.13; stroke-width: 0.8"/>
    <path d="M 539.66782 334.183485 
L 442.954564 200.580453 
L 442.530756 200.034083 
L 442.073477 199.515402 
L 441.584532 199.026457 
L 441.06585 198.569177 
L 440.51948 198.145369 
L 439.947576 197.756704 
L 439.352397 197.404715 
L 438.73629 197.090793 
L 438.101688 196.816177 
L 437.451095 196.581949 
L 436.787078 196.389034 
L 436.112258 196.238194 
L 435.429299 196.130024 
L 434.740895 196.06495 
L 434.049763 196.043231 
L 433.358632 196.06495 
L 432.670228 196.130024 
L 222.805885 220.524135 
L 222.122926 220.632305 
L 221.448106 220.783145 
L 220.784089 220.97606 
L 220.133496 221.210288 
L 219.498893 221.484904 
L 218.882787 221.798826 
L 218.287607 222.150815 
L 217.715704 222.53948 
L 217.169333 222.963288 
L 216.650652 223.420568 
L 216.161707 223.909513 
L 215.704428 224.428194 
L 215.280619 224.974564 
L 214.891954 225.546468 
L 214.539966 226.141648 
L 214.226044 226.757754 
L 213.951427 227.392356 
L 213.717199 228.04295 
L 213.524284 228.706967 
L 213.373444 229.381786 
L 162.541207 479.518696 
L 162.433037 480.201656 
L 162.367963 480.89006 
L 162.346243 481.581191 
L 162.367963 482.272323 
L 162.433037 482.960726 
L 162.541207 483.643686 
L 162.692047 484.318506 
L 162.884961 484.982522 
L 163.119189 485.633116 
L 163.393806 486.267718 
L 163.707728 486.883825 
L 164.059717 487.479004 
L 164.448382 488.050908 
L 164.87219 488.597278 
L 165.329469 489.11596 
L 165.818414 489.604905 
L 166.337096 490.062184 
L 166.883466 490.485992 
L 167.45537 490.874658 
L 168.050549 491.226646 
L 168.666656 491.540568 
L 169.301258 491.815185 
L 169.951852 492.049413 
L 170.615868 492.242327 
L 171.290688 492.393167 
L 255.829242 508.57284 
L 256.512201 508.68101 
L 257.200605 508.746083 
L 257.891736 508.767803 
L 258.582868 508.746083 
L 418.502547 494.869592 
L 419.190951 494.804519 
L 419.873911 494.696349 
L 420.54873 494.545509 
L 421.212747 494.352594 
L 421.863341 494.118366 
L 422.497943 493.843749 
L 423.11405 493.529827 
L 423.709229 493.177839 
L 424.281133 492.789174 
L 424.827503 492.365365 
L 425.346185 491.908086 
L 425.83513 491.419141 
L 426.292409 490.90046 
L 539.244011 347.669289 
L 539.66782 347.122918 
L 540.056485 346.551014 
L 540.408473 345.955835 
L 540.722395 345.339728 
L 540.997012 344.705126 
L 541.23124 344.054533 
L 541.424155 343.390516 
L 541.574995 342.715696 
L 541.683165 342.032737 
L 541.748238 341.344333 
L 541.769958 340.653201 
L 541.748238 339.96207 
L 541.683165 339.273666 
L 541.574995 338.590707 
L 541.424155 337.915887 
L 541.23124 337.25187 
L 540.997012 336.601277 
L 540.722395 335.966674 
L 540.408473 335.350568 
L 540.056485 334.755388 
z
" clip-path="url(#pc554e67f7a)" style="fill: #f59e0b; fill-opacity: 0.13; stroke: #fbbf24; stroke-opacity: 0.13; stroke-width: 0.8"/>
    <path d="M 433.531873 575.401826 
L 445.056703 207.05017 
L 445.034983 206.359039 
L 444.96991 205.670635 
L 444.86174 204.987675 
L 444.710899 204.312856 
L 444.517985 203.648839 
L 444.283757 202.998245 
L 444.00914 202.363643 
L 443.695218 201.747537 
L 443.34323 201.152357 
L 442.954564 200.580453 
L 442.530756 200.034083 
L 442.073477 199.515402 
L 441.584532 199.026457 
L 441.06585 198.569177 
L 440.51948 198.145369 
L 439.947576 197.756704 
L 439.352397 197.404715 
L 438.73629 197.090793 
L 438.101688 196.816177 
L 437.451095 196.581949 
L 436.787078 196.389034 
L 436.112258 196.238194 
L 435.429299 196.130024 
L 434.740895 196.06495 
L 434.049763 196.043231 
L 433.358632 196.06495 
L 432.670228 196.130024 
L 431.987268 196.238194 
L 431.312449 196.389034 
L 430.648432 196.581949 
L 429.997839 196.816177 
L 429.363236 197.090793 
L 310.684952 250.605519 
L 310.068846 250.919441 
L 197.215524 309.806501 
L 196.620345 310.158489 
L 196.048441 310.547154 
L 195.502071 310.970963 
L 194.983389 311.428242 
L 194.494444 311.917187 
L 131.444264 382.184905 
L 130.986985 382.703586 
L 130.563176 383.249957 
L 130.174511 383.82186 
L 129.822523 384.41704 
L 129.508601 385.033146 
L 129.233984 385.667749 
L 128.999756 386.318342 
L 128.806841 386.982359 
L 128.656001 387.657179 
L 128.547831 388.340138 
L 128.482757 389.028542 
L 128.461038 389.719673 
L 128.482757 390.410805 
L 128.547831 391.099209 
L 128.656001 391.782168 
L 128.806841 392.456988 
L 128.999756 393.121005 
L 129.233984 393.771598 
L 129.508601 394.4062 
L 129.822523 395.022307 
L 242.330416 614.749731 
L 242.682404 615.34491 
L 243.07107 615.916814 
L 243.494878 616.463185 
L 243.952157 616.981866 
L 244.441102 617.470811 
L 244.959783 617.92809 
L 245.506154 618.351898 
L 246.078058 618.740564 
L 246.673237 619.092552 
L 247.289344 619.406474 
L 247.923946 619.681091 
L 248.574539 619.915319 
L 335.61692 651.178051 
L 336.280936 651.370966 
L 336.955756 651.521806 
L 337.638716 651.629976 
L 338.32712 651.69505 
L 339.018251 651.716769 
L 339.709382 651.69505 
L 340.397786 651.629976 
L 341.080746 651.521806 
L 341.755566 651.370966 
L 342.419582 651.178051 
L 343.070176 650.943823 
L 343.704778 650.669207 
L 344.320885 650.355285 
L 344.916064 650.003296 
L 345.487968 649.614631 
L 346.034338 649.190823 
L 429.541021 583.882818 
L 430.059702 583.425539 
L 430.548647 582.936594 
L 431.005926 582.417913 
L 431.429734 581.871542 
L 431.8184 581.299639 
L 432.170388 580.704459 
L 432.48431 580.088352 
L 432.758927 579.45375 
L 432.993155 578.803157 
L 433.18607 578.13914 
L 433.33691 577.46432 
L 433.44508 576.781361 
L 433.510153 576.092957 
z
" clip-path="url(#pc554e67f7a)" style="fill: #f59e0b; fill-opacity: 0.13; stroke: #fbbf24; stroke-opacity: 0.13; stroke-width: 0.8"/>
    <path d="M 129.822523 395.022307 
L 242.330416 614.749731 
L 242.682404 615.34491 
L 243.07107 615.916814 
L 243.494878 616.463185 
L 243.952157 616.981866 
L 244.441102 617.470811 
L 244.959783 617.92809 
L 245.506154 618.351898 
L 246.078058 618.740564 
L 246.673237 619.092552 
L 247.289344 619.406474 
L 247.923946 619.681091 
L 248.574539 619.915319 
L 249.238556 620.108234 
L 249.913376 620.259074 
L 250.596335 620.367244 
L 251.284739 620.432317 
L 251.975871 620.454037 
L 252.667002 620.432317 
L 253.355406 620.367244 
L 254.038366 620.259074 
L 515.564724 574.329647 
L 516.239544 574.178807 
L 516.90356 573.985892 
L 517.554154 573.751664 
L 518.188756 573.477048 
L 518.804863 573.163126 
L 519.400042 572.811137 
L 519.971946 572.422472 
L 520.518316 571.998664 
L 521.036998 571.541385 
L 521.525943 571.05244 
L 521.983222 570.533758 
L 522.40703 569.987388 
L 522.795695 569.415484 
L 523.147684 568.820304 
L 563.177477 495.577696 
L 563.491399 494.96159 
L 563.766016 494.326988 
L 564.000244 493.676394 
L 564.193159 493.012377 
L 564.343999 492.337558 
L 564.452169 491.654598 
L 564.517243 490.966194 
L 564.538962 490.275063 
L 564.517243 489.583931 
L 564.452169 488.895527 
L 541.683165 339.273666 
L 541.574995 338.590707 
L 541.424155 337.915887 
L 541.23124 337.25187 
L 540.997012 336.601277 
L 540.722395 335.966674 
L 540.408473 335.350568 
L 540.056485 334.755388 
L 539.66782 334.183485 
L 539.244011 333.637114 
L 538.786732 333.118433 
L 538.297787 332.629488 
L 537.779106 332.172209 
L 537.232735 331.7484 
L 536.660832 331.359735 
L 536.065652 331.007747 
L 535.449545 330.693825 
L 411.955684 271.10809 
L 411.321082 270.833473 
L 410.670489 270.599245 
L 410.006472 270.40633 
L 409.331652 270.25549 
L 408.648693 270.14732 
L 407.960289 270.082247 
L 407.269157 270.060527 
L 406.578026 270.082247 
L 405.889622 270.14732 
L 405.206662 270.25549 
L 200.455663 308.639979 
L 199.780843 308.790819 
L 199.116827 308.983734 
L 198.466233 309.217962 
L 197.831631 309.492579 
L 197.215524 309.806501 
L 196.620345 310.158489 
L 196.048441 310.547154 
L 195.502071 310.970963 
L 194.983389 311.428242 
L 194.494444 311.917187 
L 131.444264 382.184905 
L 130.986985 382.703586 
L 130.563176 383.249957 
L 130.174511 383.82186 
L 129.822523 384.41704 
L 129.508601 385.033146 
L 129.233984 385.667749 
L 128.999756 386.318342 
L 128.806841 386.982359 
L 128.656001 387.657179 
L 128.547831 388.340138 
L 128.482757 389.028542 
L 128.461038 389.719673 
L 128.482757 390.410805 
L 128.547831 391.099209 
L 128.656001 391.782168 
L 128.806841 392.456988 
L 128.999756 393.121005 
L 129.233984 393.771598 
L 129.508601 394.4062 
z
" clip-path="url(#pc554e67f7a)" style="fill: #f59e0b; fill-opacity: 0.13; stroke: #fbbf24; stroke-opacity: 0.13; stroke-width: 0.8"/>
   </g>
   <g id="LineCollection_1"/>
   <g id="PathCollection_1">
    <defs>
     <path id="mb460ae4eaa" d="M 0 6 
C 1.591219 6 3.117479 5.367802 4.242641 4.242641 
C 5.367802 3.117479 6 1.591219 6 0 
C 6 -1.591219 5.367802 -3.117479 4.242641 -4.242641 
C 3.117479 -5.367802 1.591219 -6 0 -6 
C -1.591219 -6 -3.117479 -5.367802 -4.242641 -4.242641 
C -5.367802 -3.117479 -6 -1.591219 -6 0 
C -6 1.591219 -5.367802 3.117479 -4.242641 4.242641 
C -3.117479 5.367802 -1.591219 6 0 6 
z
" style="stroke: #f8fafc; stroke-width: 0.8"/>
    </defs>
    <g clip-path="url(#pc554e67f7a)">
     <use xlink:href="#mb460ae4eaa" x="202.518158" y="319.451955" style="fill: #38bdf8; stroke: #f8fafc; stroke-width: 0.8"/>
     <use xlink:href="#mb460ae4eaa" x="339.018251" y="640.70983" style="fill: #38bdf8; stroke: #f8fafc; stroke-width: 0.8"/>
     <use xlink:href="#mb460ae4eaa" x="530.763019" y="340.653201" style="fill: #38bdf8; stroke: #f8fafc; stroke-width: 0.8"/>
     <use xlink:href="#mb460ae4eaa" x="337.34733" y="545.235765" style="fill: #38bdf8; stroke: #f8fafc; stroke-width: 0.8"/>
     <use xlink:href="#mb460ae4eaa" x="272.502907" y="486.286423" style="fill: #38bdf8; stroke: #f8fafc; stroke-width: 0.8"/>
     <use xlink:href="#mb460ae4eaa" x="309.252497" y="404.558398" style="fill: #38bdf8; stroke: #f8fafc; stroke-width: 0.8"/>
     <use xlink:href="#mb460ae4eaa" x="496.137951" y="435.797915" style="fill: #38bdf8; stroke: #f8fafc; stroke-width: 0.8"/>
     <use xlink:href="#mb460ae4eaa" x="423.837646" y="372.166117" style="fill: #38bdf8; stroke: #f8fafc; stroke-width: 0.8"/>
     <use xlink:href="#mb460ae4eaa" x="364.739997" y="465.268893" style="fill: #38bdf8; stroke: #f8fafc; stroke-width: 0.8"/>
     <use xlink:href="#mb460ae4eaa" x="311.587367" y="388.011523" style="fill: #38bdf8; stroke: #f8fafc; stroke-width: 0.8"/>
     <use xlink:href="#mb460ae4eaa" x="496.137308" y="435.795129" style="fill: #38bdf8; stroke: #f8fafc; stroke-width: 0.8"/>
     <use xlink:href="#mb460ae4eaa" x="206.802388" y="399.217847" style="fill: #38bdf8; stroke: #f8fafc; stroke-width: 0.8"/>
     <use xlink:href="#mb460ae4eaa" x="423.949049" y="605.438873" style="fill: #38bdf8; stroke: #f8fafc; stroke-width: 0.8"/>
     <use xlink:href="#mb460ae4eaa" x="417.730276" y="379.728976" style="fill: #38bdf8; stroke: #f8fafc; stroke-width: 0.8"/>
     <use xlink:href="#mb460ae4eaa" x="251.975871" y="609.447097" style="fill: #38bdf8; stroke: #f8fafc; stroke-width: 0.8"/>
     <use xlink:href="#mb460ae4eaa" x="315.371479" y="260.564895" style="fill: #38bdf8; stroke: #f8fafc; stroke-width: 0.8"/>
     <use xlink:href="#mb460ae4eaa" x="363.365795" y="350.139306" style="fill: #38bdf8; stroke: #f8fafc; stroke-width: 0.8"/>
     <use xlink:href="#mb460ae4eaa" x="422.524933" y="575.401826" style="fill: #38bdf8; stroke: #f8fafc; stroke-width: 0.8"/>
     <use xlink:href="#mb460ae4eaa" x="401.633429" y="475.475837" style="fill: #38bdf8; stroke: #f8fafc; stroke-width: 0.8"/>
     <use xlink:href="#mb460ae4eaa" x="226.976055" y="416.603069" style="fill: #38bdf8; stroke: #f8fafc; stroke-width: 0.8"/>
     <use xlink:href="#mb460ae4eaa" x="173.353183" y="481.581191" style="fill: #38bdf8; stroke: #f8fafc; stroke-width: 0.8"/>
     <use xlink:href="#mb460ae4eaa" x="417.811416" y="483.884372" style="fill: #38bdf8; stroke: #f8fafc; stroke-width: 0.8"/>
     <use xlink:href="#mb460ae4eaa" x="407.269157" y="281.067467" style="fill: #38bdf8; stroke: #f8fafc; stroke-width: 0.8"/>
     <use xlink:href="#mb460ae4eaa" x="139.467977" y="389.719673" style="fill: #38bdf8; stroke: #f8fafc; stroke-width: 0.8"/>
     <use xlink:href="#mb460ae4eaa" x="513.502229" y="563.517671" style="fill: #38bdf8; stroke: #f8fafc; stroke-width: 0.8"/>
     <use xlink:href="#mb460ae4eaa" x="553.532023" y="490.275063" style="fill: #38bdf8; stroke: #f8fafc; stroke-width: 0.8"/>
     <use xlink:href="#mb460ae4eaa" x="329.493296" y="559.039119" style="fill: #38bdf8; stroke: #f8fafc; stroke-width: 0.8"/>
     <use xlink:href="#mb460ae4eaa" x="270.329636" y="330.180482" style="fill: #38bdf8; stroke: #f8fafc; stroke-width: 0.8"/>
     <use xlink:href="#mb460ae4eaa" x="434.049763" y="207.05017" style="fill: #38bdf8; stroke: #f8fafc; stroke-width: 0.8"/>
     <use xlink:href="#mb460ae4eaa" x="480.319801" y="299.689979" style="fill: #38bdf8; stroke: #f8fafc; stroke-width: 0.8"/>
     <use xlink:href="#mb460ae4eaa" x="257.891736" y="497.760863" style="fill: #38bdf8; stroke: #f8fafc; stroke-width: 0.8"/>
     <use xlink:href="#mb460ae4eaa" x="224.18542" y="231.444281" style="fill: #38bdf8; stroke: #f8fafc; stroke-width: 0.8"/>
     <use xlink:href="#mb460ae4eaa" x="323.184877" y="252.702424" style="fill: #38bdf8; stroke: #f8fafc; stroke-width: 0.8"/>
     <use xlink:href="#mb460ae4eaa" x="205.776358" y="550.559018" style="fill: #38bdf8; stroke: #f8fafc; stroke-width: 0.8"/>
    </g>
   </g>
   <g id="text_2">
    <g clip-path="url(#pc554e67f7a)">
     <text style="font-size: 8.2px; font-family: 'Noto Sans', 'Noto Sans CJK SC', 'Noto Sans CJK JP', 'Amiri', 'Scheherazade', 'Abyssinica SIL', 'Padauk', 'Lohit Devanagari', 'Lohit Tamil', 'Lohit Gujarati', 'Loma', 'Garuda', 'DejaVu Sans', 'Arial', 'Helvetica', sans-serif; text-anchor: middle; fill: #e5e7eb" x="272.502907" y="488.418423" transform="rotate(-0 272.502907 488.418423)">fair</text>
    </g>
   </g>
   <g id="text_3">
    <g clip-path="url(#pc554e67f7a)">
     <text style="font-size: 8.2px; font-family: 'Noto Sans', 'Noto Sans CJK SC', 'Noto Sans CJK JP', 'Amiri', 'Scheherazade', 'Abyssinica SIL', 'Padauk', 'Lohit Devanagari', 'Lohit Tamil', 'Lohit Gujarati', 'Loma', 'Garuda', 'DejaVu Sans', 'Arial', 'Helvetica', sans-serif; text-anchor: middle; fill: #e5e7eb" x="401.633429" y="477.607837" transform="rotate(-0 401.633429 477.607837)">sacred</text>
    </g>
   </g>
   <g id="text_4">
    <g clip-path="url(#pc554e67f7a)">
     <text style="font-size: 8.2px; font-family: 'Noto Sans', 'Noto Sans CJK SC', 'Noto Sans CJK JP', 'Amiri', 'Scheherazade', 'Abyssinica SIL', 'Padauk', 'Lohit Devanagari', 'Lohit Tamil', 'Lohit Gujarati', 'Loma', 'Garuda', 'DejaVu Sans', 'Arial', 'Helvetica', sans-serif; text-anchor: middle; fill: #e5e7eb" x="311.587367" y="390.143523" transform="rotate(-0 311.587367 390.143523)">high</text>
    </g>
   </g>
   <g id="text_5">
    <g clip-path="url(#pc554e67f7a)">
     <text style="font-size: 8.2px; font-family: 'Noto Sans', 'Noto Sans CJK SC', 'Noto Sans CJK JP', 'Amiri', 'Scheherazade', 'Abyssinica SIL', 'Padauk', 'Lohit Devanagari', 'Lohit Tamil', 'Lohit Gujarati', 'Loma', 'Garuda', 'DejaVu Sans', 'Arial', 'Helvetica', sans-serif; text-anchor: middle; fill: #e5e7eb" x="417.730276" y="381.860976" transform="rotate(-0 417.730276 381.860976)">long</text>
    </g>
   </g>
   <g id="text_6">
    <g clip-path="url(#pc554e67f7a)">
     <text style="font-size: 8.2px; font-family: 'Noto Sans', 'Noto Sans CJK SC', 'Noto Sans CJK JP', 'Amiri', 'Scheherazade', 'Abyssinica SIL', 'Padauk', 'Lohit Devanagari', 'Lohit Tamil', 'Lohit Gujarati', 'Loma', 'Garuda', 'DejaVu Sans', 'Arial', 'Helvetica', sans-serif; text-anchor: middle; fill: #e5e7eb" x="407.269157" y="283.199467" transform="rotate(-0 407.269157 283.199467)">young</text>
    </g>
   </g>
   <g id="text_7">
    <g clip-path="url(#pc554e67f7a)">
     <text style="font-size: 8.2px; font-family: 'Noto Sans', 'Noto Sans CJK SC', 'Noto Sans CJK JP', 'Amiri', 'Scheherazade', 'Abyssinica SIL', 'Padauk', 'Lohit Devanagari', 'Lohit Tamil', 'Lohit Gujarati', 'Loma', 'Garuda', 'DejaVu Sans', 'Arial', 'Helvetica', sans-serif; text-anchor: middle; fill: #e5e7eb" x="257.891736" y="499.892863" transform="rotate(-0 257.891736 499.892863)">just</text>
    </g>
   </g>
   <g id="text_8">
    <g clip-path="url(#pc554e67f7a)">
     <text style="font-size: 8.2px; font-family: 'Noto Sans', 'Noto Sans CJK SC', 'Noto Sans CJK JP', 'Amiri', 'Scheherazade', 'Abyssinica SIL', 'Padauk', 'Lohit Devanagari', 'Lohit Tamil', 'Lohit Gujarati', 'Loma', 'Garuda', 'DejaVu Sans', 'Arial', 'Helvetica', sans-serif; text-anchor: middle; fill: #e5e7eb" x="423.837646" y="374.298117" transform="rotate(-0 423.837646 374.298117)">good</text>
    </g>
   </g>
   <g id="text_9">
    <g clip-path="url(#pc554e67f7a)">
     <text style="font-size: 8.2px; font-family: 'Noto Sans', 'Noto Sans CJK SC', 'Noto Sans CJK JP', 'Amiri', 'Scheherazade', 'Abyssinica SIL', 'Padauk', 'Lohit Devanagari', 'Lohit Tamil', 'Lohit Gujarati', 'Loma', 'Garuda', 'DejaVu Sans', 'Arial', 'Helvetica', sans-serif; text-anchor: middle; fill: #e5e7eb" x="226.976055" y="418.735069" transform="rotate(-0 226.976055 418.735069)">strong</text>
    </g>
   </g>
   <g id="text_10">
    <g clip-path="url(#pc554e67f7a)">
     <text style="font-size: 8.2px; font-family: 'Noto Sans', 'Noto Sans CJK SC', 'Noto Sans CJK JP', 'Amiri', 'Scheherazade', 'Abyssinica SIL', 'Padauk', 'Lohit Devanagari', 'Lohit Tamil', 'Lohit Gujarati', 'Loma', 'Garuda', 'DejaVu Sans', 'Arial', 'Helvetica', sans-serif; text-anchor: middle; fill: #e5e7eb" x="363.365795" y="352.271306" transform="rotate(-0 363.365795 352.271306)">old</text>
    </g>
   </g>
   <g id="text_11">
    <g clip-path="url(#pc554e67f7a)">
     <text style="font-size: 8.2px; font-family: 'Noto Sans', 'Noto Sans CJK SC', 'Noto Sans CJK JP', 'Amiri', 'Scheherazade', 'Abyssinica SIL', 'Padauk', 'Lohit Devanagari', 'Lohit Tamil', 'Lohit Gujarati', 'Loma', 'Garuda', 'DejaVu Sans', 'Arial', 'Helvetica', sans-serif; text-anchor: middle; fill: #e5e7eb" x="417.811416" y="486.016372" transform="rotate(-0 417.811416 486.016372)">wise</text>
    </g>
   </g>
   <g id="text_12">
    <g clip-path="url(#pc554e67f7a)">
     <text style="font-size: 8.2px; font-family: 'Noto Sans', 'Noto Sans CJK SC', 'Noto Sans CJK JP', 'Amiri', 'Scheherazade', 'Abyssinica SIL', 'Padauk', 'Lohit Devanagari', 'Lohit Tamil', 'Lohit Gujarati', 'Loma', 'Garuda', 'DejaVu Sans', 'Arial', 'Helvetica', sans-serif; text-anchor: middle; fill: #e5e7eb" x="364.739997" y="467.400893" transform="rotate(-0 364.739997 467.400893)">great</text>
    </g>
   </g>
   <g id="text_13">
    <g clip-path="url(#pc554e67f7a)">
     <text style="font-size: 8.2px; font-family: 'Noto Sans', 'Noto Sans CJK SC', 'Noto Sans CJK JP', 'Amiri', 'Scheherazade', 'Abyssinica SIL', 'Padauk', 'Lohit Devanagari', 'Lohit Tamil', 'Lohit Gujarati', 'Loma', 'Garuda', 'DejaVu Sans', 'Arial', 'Helvetica', sans-serif; text-anchor: middle; fill: #e5e7eb" x="329.493296" y="561.171119" transform="rotate(-0 329.493296 561.171119)">sad</text>
    </g>
   </g>
   <g id="text_14">
    <g clip-path="url(#pc554e67f7a)">
     <text style="font-size: 8.2px; font-family: 'Noto Sans', 'Noto Sans CJK SC', 'Noto Sans CJK JP', 'Amiri', 'Scheherazade', 'Abyssinica SIL', 'Padauk', 'Lohit Devanagari', 'Lohit Tamil', 'Lohit Gujarati', 'Loma', 'Garuda', 'DejaVu Sans', 'Arial', 'Helvetica', sans-serif; text-anchor: middle; fill: #e5e7eb" x="309.252497" y="406.690398" transform="rotate(-0 309.252497 406.690398)">free</text>
    </g>
   </g>
   <g id="text_15">
    <g clip-path="url(#pc554e67f7a)">
     <text style="font-size: 8.2px; font-family: 'Noto Sans', 'Noto Sans CJK SC', 'Noto Sans CJK JP', 'Amiri', 'Scheherazade', 'Abyssinica SIL', 'Padauk', 'Lohit Devanagari', 'Lohit Tamil', 'Lohit Gujarati', 'Loma', 'Garuda', 'DejaVu Sans', 'Arial', 'Helvetica', sans-serif; text-anchor: middle; fill: #e5e7eb" x="337.34733" y="547.367765" transform="rotate(-0 337.34733 547.367765)">divine</text>
    </g>
   </g>
   <g id="text_16">
    <g clip-path="url(#pc554e67f7a)">
     <text style="font-size: 8.2px; font-family: 'Noto Sans', 'Noto Sans CJK SC', 'Noto Sans CJK JP', 'Amiri', 'Scheherazade', 'Abyssinica SIL', 'Padauk', 'Lohit Devanagari', 'Lohit Tamil', 'Lohit Gujarati', 'Loma', 'Garuda', 'DejaVu Sans', 'Arial', 'Helvetica', sans-serif; text-anchor: middle; fill: #e5e7eb" x="251.975871" y="611.579097" transform="rotate(-0 251.975871 611.579097)">mighty</text>
    </g>
   </g>
   <g id="text_17">
    <g clip-path="url(#pc554e67f7a)">
     <text style="font-size: 8.2px; font-family: 'Noto Sans', 'Noto Sans CJK SC', 'Noto Sans CJK JP', 'Amiri', 'Scheherazade', 'Abyssinica SIL', 'Padauk', 'Lohit Devanagari', 'Lohit Tamil', 'Lohit Gujarati', 'Loma', 'Garuda', 'DejaVu Sans', 'Arial', 'Helvetica', sans-serif; text-anchor: middle; fill: #e5e7eb" x="553.532023" y="492.407063" transform="rotate(-0 553.532023 492.407063)">deep</text>
    </g>
   </g>
  </g>
  <g id="axes_2">
   <g id="LineCollection_2">
    <path d="M 1162.831522 416.799231 
L 1024.034977 405.062949 
" clip-path="url(#p26d755cbce)" style="fill: none; stroke: #94a3b8; stroke-width: 0.65"/>
    <path d="M 948.191715 376.882541 
L 1024.034977 405.062949 
" clip-path="url(#p26d755cbce)" style="fill: none; stroke: #94a3b8; stroke-width: 0.65"/>
    <path d="M 958.80314 429.724619 
L 1024.034977 405.062949 
" clip-path="url(#p26d755cbce)" style="fill: none; stroke: #94a3b8; stroke-width: 0.65"/>
    <path d="M 1144.288916 355.701625 
L 1024.034977 405.062949 
" clip-path="url(#p26d755cbce)" style="fill: none; stroke: #94a3b8; stroke-width: 0.65"/>
    <path d="M 951.934056 595.903421 
L 1024.034977 405.062949 
" clip-path="url(#p26d755cbce)" style="fill: none; stroke: #94a3b8; stroke-width: 0.65"/>
    <path d="M 1038.801545 548.676801 
L 1024.034977 405.062949 
" clip-path="url(#p26d755cbce)" style="fill: none; stroke: #94a3b8; stroke-width: 0.65"/>
    <path d="M 1187.954563 371.218501 
L 1024.034977 405.062949 
" clip-path="url(#p26d755cbce)" style="fill: none; stroke: #94a3b8; stroke-width: 0.65"/>
    <path d="M 986.358179 355.591152 
L 1024.034977 405.062949 
" clip-path="url(#p26d755cbce)" style="fill: none; stroke: #94a3b8; stroke-width: 0.65"/>
    <path d="M 1075.604807 247.574924 
L 1024.034977 405.062949 
" clip-path="url(#p26d755cbce)" style="fill: none; stroke: #94a3b8; stroke-width: 0.65"/>
    <path d="M 1136.822473 567.473146 
L 1024.034977 405.062949 
" clip-path="url(#p26d755cbce)" style="fill: none; stroke: #94a3b8; stroke-width: 0.65"/>
    <path d="M 965.144946 282.858844 
L 1024.034977 405.062949 
" clip-path="url(#p26d755cbce)" style="fill: none; stroke: #94a3b8; stroke-width: 0.65"/>
    <path d="M 1233.614041 395.335628 
L 1024.034977 405.062949 
" clip-path="url(#p26d755cbce)" style="fill: none; stroke: #94a3b8; stroke-width: 0.65"/>
    <path d="M 900.78024 389.583251 
L 1024.034977 405.062949 
" clip-path="url(#p26d755cbce)" style="fill: none; stroke: #94a3b8; stroke-width: 0.65"/>
    <path d="M 882.104261 314.100443 
L 1024.034977 405.062949 
" clip-path="url(#p26d755cbce)" style="fill: none; stroke: #94a3b8; stroke-width: 0.65"/>
    <path d="M 1023.163777 231.348675 
L 1024.034977 405.062949 
" clip-path="url(#p26d755cbce)" style="fill: none; stroke: #94a3b8; stroke-width: 0.65"/>
    <path d="M 1162.775212 274.596908 
L 1024.034977 405.062949 
" clip-path="url(#p26d755cbce)" style="fill: none; stroke: #94a3b8; stroke-width: 0.65"/>
    <path d="M 1008.797347 482.100965 
L 1024.034977 405.062949 
" clip-path="url(#p26d755cbce)" style="fill: none; stroke: #94a3b8; stroke-width: 0.65"/>
    <path d="M 1169.120845 502.87978 
L 1024.034977 405.062949 
" clip-path="url(#p26d755cbce)" style="fill: none; stroke: #94a3b8; stroke-width: 0.65"/>
    <path d="M 955.510437 473.722702 
L 1024.034977 405.062949 
" clip-path="url(#p26d755cbce)" style="fill: none; stroke: #94a3b8; stroke-width: 0.65"/>
    <path d="M 924.139887 548.23383 
L 1024.034977 405.062949 
" clip-path="url(#p26d755cbce)" style="fill: none; stroke: #94a3b8; stroke-width: 0.65"/>
    <path d="M 983.72393 513.59726 
L 1024.034977 405.062949 
" clip-path="url(#p26d755cbce)" style="fill: none; stroke: #94a3b8; stroke-width: 0.65"/>
    <path d="M 942.822173 325.938051 
L 1024.034977 405.062949 
" clip-path="url(#p26d755cbce)" style="fill: none; stroke: #94a3b8; stroke-width: 0.65"/>
    <path d="M 901.026876 471.26955 
L 1024.034977 405.062949 
" clip-path="url(#p26d755cbce)" style="fill: none; stroke: #94a3b8; stroke-width: 0.65"/>
    <path d="M 948.191715 376.882541 
L 828.867977 486.524309 
" clip-path="url(#p26d755cbce)" style="fill: none; stroke: #94a3b8; stroke-width: 0.65"/>
    <path d="M 1003.665713 616.411325 
L 828.867977 486.524309 
" clip-path="url(#p26d755cbce)" style="fill: none; stroke: #94a3b8; stroke-width: 0.65"/>
    <path d="M 958.80314 429.724619 
L 828.867977 486.524309 
" clip-path="url(#p26d755cbce)" style="fill: none; stroke: #94a3b8; stroke-width: 0.65"/>
    <path d="M 900.78024 389.583251 
L 828.867977 486.524309 
" clip-path="url(#p26d755cbce)" style="fill: none; stroke: #94a3b8; stroke-width: 0.65"/>
    <path d="M 951.934056 595.903421 
L 828.867977 486.524309 
" clip-path="url(#p26d755cbce)" style="fill: none; stroke: #94a3b8; stroke-width: 0.65"/>
    <path d="M 1038.801545 548.676801 
L 828.867977 486.524309 
" clip-path="url(#p26d755cbce)" style="fill: none; stroke: #94a3b8; stroke-width: 0.65"/>
    <path d="M 986.358179 355.591152 
L 828.867977 486.524309 
" clip-path="url(#p26d755cbce)" style="fill: none; stroke: #94a3b8; stroke-width: 0.65"/>
    <path d="M 955.510437 473.722702 
L 828.867977 486.524309 
" clip-path="url(#p26d755cbce)" style="fill: none; stroke: #94a3b8; stroke-width: 0.65"/>
    <path d="M 903.588 421.352345 
L 828.867977 486.524309 
" clip-path="url(#p26d755cbce)" style="fill: none; stroke: #94a3b8; stroke-width: 0.65"/>
    <path d="M 924.139887 548.23383 
L 828.867977 486.524309 
" clip-path="url(#p26d755cbce)" style="fill: none; stroke: #94a3b8; stroke-width: 0.65"/>
    <path d="M 983.72393 513.59726 
L 828.867977 486.524309 
" clip-path="url(#p26d755cbce)" style="fill: none; stroke: #94a3b8; stroke-width: 0.65"/>
    <path d="M 927.230136 249.532035 
L 828.867977 486.524309 
" clip-path="url(#p26d755cbce)" style="fill: none; stroke: #94a3b8; stroke-width: 0.65"/>
    <path d="M 942.822173 325.938051 
L 828.867977 486.524309 
" clip-path="url(#p26d755cbce)" style="fill: none; stroke: #94a3b8; stroke-width: 0.65"/>
    <path d="M 965.144946 282.858844 
L 828.867977 486.524309 
" clip-path="url(#p26d755cbce)" style="fill: none; stroke: #94a3b8; stroke-width: 0.65"/>
    <path d="M 1050.665329 606.827019 
L 828.867977 486.524309 
" clip-path="url(#p26d755cbce)" style="fill: none; stroke: #94a3b8; stroke-width: 0.65"/>
    <path d="M 1162.831522 416.799231 
L 1112.786602 484.767221 
" clip-path="url(#p26d755cbce)" style="fill: none; stroke: #94a3b8; stroke-width: 0.65"/>
    <path d="M 948.191715 376.882541 
L 1112.786602 484.767221 
" clip-path="url(#p26d755cbce)" style="fill: none; stroke: #94a3b8; stroke-width: 0.65"/>
    <path d="M 1136.936285 309.511879 
L 1112.786602 484.767221 
" clip-path="url(#p26d755cbce)" style="fill: none; stroke: #94a3b8; stroke-width: 0.65"/>
    <path d="M 958.80314 429.724619 
L 1112.786602 484.767221 
" clip-path="url(#p26d755cbce)" style="fill: none; stroke: #94a3b8; stroke-width: 0.65"/>
    <path d="M 1144.288916 355.701625 
L 1112.786602 484.767221 
" clip-path="url(#p26d755cbce)" style="fill: none; stroke: #94a3b8; stroke-width: 0.65"/>
    <path d="M 951.934056 595.903421 
L 1112.786602 484.767221 
" clip-path="url(#p26d755cbce)" style="fill: none; stroke: #94a3b8; stroke-width: 0.65"/>
    <path d="M 1164.107482 610.01301 
L 1112.786602 484.767221 
" clip-path="url(#p26d755cbce)" style="fill: none; stroke: #94a3b8; stroke-width: 0.65"/>
    <path d="M 1038.801545 548.676801 
L 1112.786602 484.767221 
" clip-path="url(#p26d755cbce)" style="fill: none; stroke: #94a3b8; stroke-width: 0.65"/>
    <path d="M 986.358179 355.591152 
L 1112.786602 484.767221 
" clip-path="url(#p26d755cbce)" style="fill: none; stroke: #94a3b8; stroke-width: 0.65"/>
    <path d="M 1225.982724 322.512392 
L 1112.786602 484.767221 
" clip-path="url(#p26d755cbce)" style="fill: none; stroke: #94a3b8; stroke-width: 0.65"/>
    <path d="M 1242.932023 552.874626 
L 1112.786602 484.767221 
" clip-path="url(#p26d755cbce)" style="fill: none; stroke: #94a3b8; stroke-width: 0.65"/>
    <path d="M 1136.822473 567.473146 
L 1112.786602 484.767221 
" clip-path="url(#p26d755cbce)" style="fill: none; stroke: #94a3b8; stroke-width: 0.65"/>
    <path d="M 1233.614041 395.335628 
L 1112.786602 484.767221 
" clip-path="url(#p26d755cbce)" style="fill: none; stroke: #94a3b8; stroke-width: 0.65"/>
    <path d="M 900.78024 389.583251 
L 1112.786602 484.767221 
" clip-path="url(#p26d755cbce)" style="fill: none; stroke: #94a3b8; stroke-width: 0.65"/>
    <path d="M 1223.215777 497.942361 
L 1112.786602 484.767221 
" clip-path="url(#p26d755cbce)" style="fill: none; stroke: #94a3b8; stroke-width: 0.65"/>
    <path d="M 1205.049811 447.248933 
L 1112.786602 484.767221 
" clip-path="url(#p26d755cbce)" style="fill: none; stroke: #94a3b8; stroke-width: 0.65"/>
    <path d="M 955.510437 473.722702 
L 1112.786602 484.767221 
" clip-path="url(#p26d755cbce)" style="fill: none; stroke: #94a3b8; stroke-width: 0.65"/>
    <path d="M 1169.120845 502.87978 
L 1112.786602 484.767221 
" clip-path="url(#p26d755cbce)" style="fill: none; stroke: #94a3b8; stroke-width: 0.65"/>
    <path d="M 983.72393 513.59726 
L 1112.786602 484.767221 
" clip-path="url(#p26d755cbce)" style="fill: none; stroke: #94a3b8; stroke-width: 0.65"/>
    <path d="M 1008.797347 482.100965 
L 1112.786602 484.767221 
" clip-path="url(#p26d755cbce)" style="fill: none; stroke: #94a3b8; stroke-width: 0.65"/>
    <path d="M 1162.831522 416.799231 
L 1053.113903 513.863711 
" clip-path="url(#p26d755cbce)" style="fill: none; stroke: #94a3b8; stroke-width: 0.65"/>
    <path d="M 958.80314 429.724619 
L 1053.113903 513.863711 
" clip-path="url(#p26d755cbce)" style="fill: none; stroke: #94a3b8; stroke-width: 0.65"/>
    <path d="M 1144.288916 355.701625 
L 1053.113903 513.863711 
" clip-path="url(#p26d755cbce)" style="fill: none; stroke: #94a3b8; stroke-width: 0.65"/>
    <path d="M 1164.107482 610.01301 
L 1053.113903 513.863711 
" clip-path="url(#p26d755cbce)" style="fill: none; stroke: #94a3b8; stroke-width: 0.65"/>
    <path d="M 1038.801545 548.676801 
L 1053.113903 513.863711 
" clip-path="url(#p26d755cbce)" style="fill: none; stroke: #94a3b8; stroke-width: 0.65"/>
    <path d="M 1187.954563 371.218501 
L 1053.113903 513.863711 
" clip-path="url(#p26d755cbce)" style="fill: none; stroke: #94a3b8; stroke-width: 0.65"/>
    <path d="M 986.358179 355.591152 
L 1053.113903 513.863711 
" clip-path="url(#p26d755cbce)" style="fill: none; stroke: #94a3b8; stroke-width: 0.65"/>
    <path d="M 1136.822473 567.473146 
L 1053.113903 513.863711 
" clip-path="url(#p26d755cbce)" style="fill: none; stroke: #94a3b8; stroke-width: 0.65"/>
    <path d="M 965.144946 282.858844 
L 1053.113903 513.863711 
" clip-path="url(#p26d755cbce)" style="fill: none; stroke: #94a3b8; stroke-width: 0.65"/>
    <path d="M 1003.665713 616.411325 
L 1053.113903 513.863711 
" clip-path="url(#p26d755cbce)" style="fill: none; stroke: #94a3b8; stroke-width: 0.65"/>
    <path d="M 900.78024 389.583251 
L 1053.113903 513.863711 
" clip-path="url(#p26d755cbce)" style="fill: none; stroke: #94a3b8; stroke-width: 0.65"/>
    <path d="M 882.104261 314.100443 
L 1053.113903 513.863711 
" clip-path="url(#p26d755cbce)" style="fill: none; stroke: #94a3b8; stroke-width: 0.65"/>
    <path d="M 1205.049811 447.248933 
L 1053.113903 513.863711 
" clip-path="url(#p26d755cbce)" style="fill: none; stroke: #94a3b8; stroke-width: 0.65"/>
    <path d="M 1169.120845 502.87978 
L 1053.113903 513.863711 
" clip-path="url(#p26d755cbce)" style="fill: none; stroke: #94a3b8; stroke-width: 0.65"/>
    <path d="M 955.510437 473.722702 
L 1053.113903 513.863711 
" clip-path="url(#p26d755cbce)" style="fill: none; stroke: #94a3b8; stroke-width: 0.65"/>
    <path d="M 924.139887 548.23383 
L 1053.113903 513.863711 
" clip-path="url(#p26d755cbce)" style="fill: none; stroke: #94a3b8; stroke-width: 0.65"/>
    <path d="M 983.72393 513.59726 
L 1053.113903 513.863711 
" clip-path="url(#p26d755cbce)" style="fill: none; stroke: #94a3b8; stroke-width: 0.65"/>
    <path d="M 1008.797347 482.100965 
L 1053.113903 513.863711 
" clip-path="url(#p26d755cbce)" style="fill: none; stroke: #94a3b8; stroke-width: 0.65"/>
    <path d="M 901.026876 471.26955 
L 1053.113903 513.863711 
" clip-path="url(#p26d755cbce)" style="fill: none; stroke: #94a3b8; stroke-width: 0.65"/>
    <path d="M 1162.831522 416.799231 
L 1052.072887 451.827179 
" clip-path="url(#p26d755cbce)" style="fill: none; stroke: #94a3b8; stroke-width: 0.65"/>
    <path d="M 948.191715 376.882541 
L 1052.072887 451.827179 
" clip-path="url(#p26d755cbce)" style="fill: none; stroke: #94a3b8; stroke-width: 0.65"/>
    <path d="M 1122.244006 251.007019 
L 1052.072887 451.827179 
" clip-path="url(#p26d755cbce)" style="fill: none; stroke: #94a3b8; stroke-width: 0.65"/>
    <path d="M 1136.936285 309.511879 
L 1052.072887 451.827179 
" clip-path="url(#p26d755cbce)" style="fill: none; stroke: #94a3b8; stroke-width: 0.65"/>
    <path d="M 958.80314 429.724619 
L 1052.072887 451.827179 
" clip-path="url(#p26d755cbce)" style="fill: none; stroke: #94a3b8; stroke-width: 0.65"/>
    <path d="M 1144.288916 355.701625 
L 1052.072887 451.827179 
" clip-path="url(#p26d755cbce)" style="fill: none; stroke: #94a3b8; stroke-width: 0.65"/>
    <path d="M 951.934056 595.903421 
L 1052.072887 451.827179 
" clip-path="url(#p26d755cbce)" style="fill: none; stroke: #94a3b8; stroke-width: 0.65"/>
    <path d="M 1038.801545 548.676801 
L 1052.072887 451.827179 
" clip-path="url(#p26d755cbce)" style="fill: none; stroke: #94a3b8; stroke-width: 0.65"/>
    <path d="M 1187.954563 371.218501 
L 1052.072887 451.827179 
" clip-path="url(#p26d755cbce)" style="fill: none; stroke: #94a3b8; stroke-width: 0.65"/>
    <path d="M 986.358179 355.591152 
L 1052.072887 451.827179 
" clip-path="url(#p26d755cbce)" style="fill: none; stroke: #94a3b8; stroke-width: 0.65"/>
    <path d="M 1136.822473 567.473146 
L 1052.072887 451.827179 
" clip-path="url(#p26d755cbce)" style="fill: none; stroke: #94a3b8; stroke-width: 0.65"/>
    <path d="M 924.139887 548.23383 
L 1052.072887 451.827179 
" clip-path="url(#p26d755cbce)" style="fill: none; stroke: #94a3b8; stroke-width: 0.65"/>
    <path d="M 965.144946 282.858844 
L 1052.072887 451.827179 
" clip-path="url(#p26d755cbce)" style="fill: none; stroke: #94a3b8; stroke-width: 0.65"/>
    <path d="M 1050.665329 606.827019 
L 1052.072887 451.827179 
" clip-path="url(#p26d755cbce)" style="fill: none; stroke: #94a3b8; stroke-width: 0.65"/>
    <path d="M 1003.665713 616.411325 
L 1052.072887 451.827179 
" clip-path="url(#p26d755cbce)" style="fill: none; stroke: #94a3b8; stroke-width: 0.65"/>
    <path d="M 1023.163777 231.348675 
L 1052.072887 451.827179 
" clip-path="url(#p26d755cbce)" style="fill: none; stroke: #94a3b8; stroke-width: 0.65"/>
    <path d="M 1223.215777 497.942361 
L 1052.072887 451.827179 
" clip-path="url(#p26d755cbce)" style="fill: none; stroke: #94a3b8; stroke-width: 0.65"/>
    <path d="M 1205.049811 447.248933 
L 1052.072887 451.827179 
" clip-path="url(#p26d755cbce)" style="fill: none; stroke: #94a3b8; stroke-width: 0.65"/>
    <path d="M 1169.120845 502.87978 
L 1052.072887 451.827179 
" clip-path="url(#p26d755cbce)" style="fill: none; stroke: #94a3b8; stroke-width: 0.65"/>
    <path d="M 1008.797347 482.100965 
L 1052.072887 451.827179 
" clip-path="url(#p26d755cbce)" style="fill: none; stroke: #94a3b8; stroke-width: 0.65"/>
    <path d="M 955.510437 473.722702 
L 1052.072887 451.827179 
" clip-path="url(#p26d755cbce)" style="fill: none; stroke: #94a3b8; stroke-width: 0.65"/>
    <path d="M 903.588 421.352345 
L 1052.072887 451.827179 
" clip-path="url(#p26d755cbce)" style="fill: none; stroke: #94a3b8; stroke-width: 0.65"/>
    <path d="M 983.72393 513.59726 
L 1052.072887 451.827179 
" clip-path="url(#p26d755cbce)" style="fill: none; stroke: #94a3b8; stroke-width: 0.65"/>
    <path d="M 942.822173 325.938051 
L 1052.072887 451.827179 
" clip-path="url(#p26d755cbce)" style="fill: none; stroke: #94a3b8; stroke-width: 0.65"/>
    <path d="M 1162.831522 416.799231 
L 1074.326584 379.11186 
" clip-path="url(#p26d755cbce)" style="fill: none; stroke: #94a3b8; stroke-width: 0.65"/>
    <path d="M 948.191715 376.882541 
L 1074.326584 379.11186 
" clip-path="url(#p26d755cbce)" style="fill: none; stroke: #94a3b8; stroke-width: 0.65"/>
    <path d="M 1136.936285 309.511879 
L 1074.326584 379.11186 
" clip-path="url(#p26d755cbce)" style="fill: none; stroke: #94a3b8; stroke-width: 0.65"/>
    <path d="M 958.80314 429.724619 
L 1074.326584 379.11186 
" clip-path="url(#p26d755cbce)" style="fill: none; stroke: #94a3b8; stroke-width: 0.65"/>
    <path d="M 1144.288916 355.701625 
L 1074.326584 379.11186 
" clip-path="url(#p26d755cbce)" style="fill: none; stroke: #94a3b8; stroke-width: 0.65"/>
    <path d="M 1164.107482 610.01301 
L 1074.326584 379.11186 
" clip-path="url(#p26d755cbce)" style="fill: none; stroke: #94a3b8; stroke-width: 0.65"/>
    <path d="M 1038.801545 548.676801 
L 1074.326584 379.11186 
" clip-path="url(#p26d755cbce)" style="fill: none; stroke: #94a3b8; stroke-width: 0.65"/>
    <path d="M 1187.954563 371.218501 
L 1074.326584 379.11186 
" clip-path="url(#p26d755cbce)" style="fill: none; stroke: #94a3b8; stroke-width: 0.65"/>
    <path d="M 986.358179 355.591152 
L 1074.326584 379.11186 
" clip-path="url(#p26d755cbce)" style="fill: none; stroke: #94a3b8; stroke-width: 0.65"/>
    <path d="M 1225.982724 322.512392 
L 1074.326584 379.11186 
" clip-path="url(#p26d755cbce)" style="fill: none; stroke: #94a3b8; stroke-width: 0.65"/>
    <path d="M 1075.604807 247.574924 
L 1074.326584 379.11186 
" clip-path="url(#p26d755cbce)" style="fill: none; stroke: #94a3b8; stroke-width: 0.65"/>
    <path d="M 965.144946 282.858844 
L 1074.326584 379.11186 
" clip-path="url(#p26d755cbce)" style="fill: none; stroke: #94a3b8; stroke-width: 0.65"/>
    <path d="M 900.78024 389.583251 
L 1074.326584 379.11186 
" clip-path="url(#p26d755cbce)" style="fill: none; stroke: #94a3b8; stroke-width: 0.65"/>
    <path d="M 1223.215777 497.942361 
L 1074.326584 379.11186 
" clip-path="url(#p26d755cbce)" style="fill: none; stroke: #94a3b8; stroke-width: 0.65"/>
    <path d="M 1162.775212 274.596908 
L 1074.326584 379.11186 
" clip-path="url(#p26d755cbce)" style="fill: none; stroke: #94a3b8; stroke-width: 0.65"/>
    <path d="M 1205.049811 447.248933 
L 1074.326584 379.11186 
" clip-path="url(#p26d755cbce)" style="fill: none; stroke: #94a3b8; stroke-width: 0.65"/>
    <path d="M 1008.797347 482.100965 
L 1074.326584 379.11186 
" clip-path="url(#p26d755cbce)" style="fill: none; stroke: #94a3b8; stroke-width: 0.65"/>
    <path d="M 955.510437 473.722702 
L 1074.326584 379.11186 
" clip-path="url(#p26d755cbce)" style="fill: none; stroke: #94a3b8; stroke-width: 0.65"/>
    <path d="M 903.588 421.352345 
L 1074.326584 379.11186 
" clip-path="url(#p26d755cbce)" style="fill: none; stroke: #94a3b8; stroke-width: 0.65"/>
    <path d="M 983.72393 513.59726 
L 1074.326584 379.11186 
" clip-path="url(#p26d755cbce)" style="fill: none; stroke: #94a3b8; stroke-width: 0.65"/>
    <path d="M 927.230136 249.532035 
L 1074.326584 379.11186 
" clip-path="url(#p26d755cbce)" style="fill: none; stroke: #94a3b8; stroke-width: 0.65"/>
    <path d="M 942.822173 325.938051 
L 1074.326584 379.11186 
" clip-path="url(#p26d755cbce)" style="fill: none; stroke: #94a3b8; stroke-width: 0.65"/>
    <path d="M 1136.936285 309.511879 
L 1060.046959 424.786117 
" clip-path="url(#p26d755cbce)" style="fill: none; stroke: #94a3b8; stroke-width: 0.65"/>
    <path d="M 958.80314 429.724619 
L 1060.046959 424.786117 
" clip-path="url(#p26d755cbce)" style="fill: none; stroke: #94a3b8; stroke-width: 0.65"/>
    <path d="M 1164.107482 610.01301 
L 1060.046959 424.786117 
" clip-path="url(#p26d755cbce)" style="fill: none; stroke: #94a3b8; stroke-width: 0.65"/>
    <path d="M 951.934056 595.903421 
L 1060.046959 424.786117 
" clip-path="url(#p26d755cbce)" style="fill: none; stroke: #94a3b8; stroke-width: 0.65"/>
    <path d="M 1038.801545 548.676801 
L 1060.046959 424.786117 
" clip-path="url(#p26d755cbce)" style="fill: none; stroke: #94a3b8; stroke-width: 0.65"/>
    <path d="M 1187.954563 371.218501 
L 1060.046959 424.786117 
" clip-path="url(#p26d755cbce)" style="fill: none; stroke: #94a3b8; stroke-width: 0.65"/>
    <path d="M 986.358179 355.591152 
L 1060.046959 424.786117 
" clip-path="url(#p26d755cbce)" style="fill: none; stroke: #94a3b8; stroke-width: 0.65"/>
    <path d="M 1225.982724 322.512392 
L 1060.046959 424.786117 
" clip-path="url(#p26d755cbce)" style="fill: none; stroke: #94a3b8; stroke-width: 0.65"/>
    <path d="M 1003.665713 616.411325 
L 1060.046959 424.786117 
" clip-path="url(#p26d755cbce)" style="fill: none; stroke: #94a3b8; stroke-width: 0.65"/>
    <path d="M 900.78024 389.583251 
L 1060.046959 424.786117 
" clip-path="url(#p26d755cbce)" style="fill: none; stroke: #94a3b8; stroke-width: 0.65"/>
    <path d="M 882.104261 314.100443 
L 1060.046959 424.786117 
" clip-path="url(#p26d755cbce)" style="fill: none; stroke: #94a3b8; stroke-width: 0.65"/>
    <path d="M 1023.163777 231.348675 
L 1060.046959 424.786117 
" clip-path="url(#p26d755cbce)" style="fill: none; stroke: #94a3b8; stroke-width: 0.65"/>
    <path d="M 1162.775212 274.596908 
L 1060.046959 424.786117 
" clip-path="url(#p26d755cbce)" style="fill: none; stroke: #94a3b8; stroke-width: 0.65"/>
    <path d="M 1205.049811 447.248933 
L 1060.046959 424.786117 
" clip-path="url(#p26d755cbce)" style="fill: none; stroke: #94a3b8; stroke-width: 0.65"/>
    <path d="M 955.510437 473.722702 
L 1060.046959 424.786117 
" clip-path="url(#p26d755cbce)" style="fill: none; stroke: #94a3b8; stroke-width: 0.65"/>
    <path d="M 903.588 421.352345 
L 1060.046959 424.786117 
" clip-path="url(#p26d755cbce)" style="fill: none; stroke: #94a3b8; stroke-width: 0.65"/>
    <path d="M 983.72393 513.59726 
L 1060.046959 424.786117 
" clip-path="url(#p26d755cbce)" style="fill: none; stroke: #94a3b8; stroke-width: 0.65"/>
    <path d="M 942.822173 325.938051 
L 1060.046959 424.786117 
" clip-path="url(#p26d755cbce)" style="fill: none; stroke: #94a3b8; stroke-width: 0.65"/>
    <path d="M 1162.831522 416.799231 
L 1060.046959 424.786117 
" clip-path="url(#p26d755cbce)" style="fill: none; stroke: #94a3b8; stroke-width: 0.65"/>
    <path d="M 948.191715 376.882541 
L 1060.046959 424.786117 
" clip-path="url(#p26d755cbce)" style="fill: none; stroke: #94a3b8; stroke-width: 0.65"/>
    <path d="M 1122.244006 251.007019 
L 1060.046959 424.786117 
" clip-path="url(#p26d755cbce)" style="fill: none; stroke: #94a3b8; stroke-width: 0.65"/>
    <path d="M 1144.288916 355.701625 
L 1060.046959 424.786117 
" clip-path="url(#p26d755cbce)" style="fill: none; stroke: #94a3b8; stroke-width: 0.65"/>
    <path d="M 1075.604807 247.574924 
L 1060.046959 424.786117 
" clip-path="url(#p26d755cbce)" style="fill: none; stroke: #94a3b8; stroke-width: 0.65"/>
    <path d="M 1242.932023 552.874626 
L 1060.046959 424.786117 
" clip-path="url(#p26d755cbce)" style="fill: none; stroke: #94a3b8; stroke-width: 0.65"/>
    <path d="M 1136.822473 567.473146 
L 1060.046959 424.786117 
" clip-path="url(#p26d755cbce)" style="fill: none; stroke: #94a3b8; stroke-width: 0.65"/>
    <path d="M 1050.665329 606.827019 
L 1060.046959 424.786117 
" clip-path="url(#p26d755cbce)" style="fill: none; stroke: #94a3b8; stroke-width: 0.65"/>
    <path d="M 1233.614041 395.335628 
L 1060.046959 424.786117 
" clip-path="url(#p26d755cbce)" style="fill: none; stroke: #94a3b8; stroke-width: 0.65"/>
    <path d="M 1223.215777 497.942361 
L 1060.046959 424.786117 
" clip-path="url(#p26d755cbce)" style="fill: none; stroke: #94a3b8; stroke-width: 0.65"/>
    <path d="M 1169.120845 502.87978 
L 1060.046959 424.786117 
" clip-path="url(#p26d755cbce)" style="fill: none; stroke: #94a3b8; stroke-width: 0.65"/>
    <path d="M 924.139887 548.23383 
L 1060.046959 424.786117 
" clip-path="url(#p26d755cbce)" style="fill: none; stroke: #94a3b8; stroke-width: 0.65"/>
    <path d="M 927.230136 249.532035 
L 1060.046959 424.786117 
" clip-path="url(#p26d755cbce)" style="fill: none; stroke: #94a3b8; stroke-width: 0.65"/>
    <path d="M 1008.797347 482.100965 
L 1060.046959 424.786117 
" clip-path="url(#p26d755cbce)" style="fill: none; stroke: #94a3b8; stroke-width: 0.65"/>
    <path d="M 901.026876 471.26955 
L 1060.046959 424.786117 
" clip-path="url(#p26d755cbce)" style="fill: none; stroke: #94a3b8; stroke-width: 0.65"/>
    <path d="M 1162.831522 416.799231 
L 1027.912557 302.70724 
" clip-path="url(#p26d755cbce)" style="fill: none; stroke: #94a3b8; stroke-width: 0.65"/>
    <path d="M 948.191715 376.882541 
L 1027.912557 302.70724 
" clip-path="url(#p26d755cbce)" style="fill: none; stroke: #94a3b8; stroke-width: 0.65"/>
    <path d="M 1122.244006 251.007019 
L 1027.912557 302.70724 
" clip-path="url(#p26d755cbce)" style="fill: none; stroke: #94a3b8; stroke-width: 0.65"/>
    <path d="M 1136.936285 309.511879 
L 1027.912557 302.70724 
" clip-path="url(#p26d755cbce)" style="fill: none; stroke: #94a3b8; stroke-width: 0.65"/>
    <path d="M 958.80314 429.724619 
L 1027.912557 302.70724 
" clip-path="url(#p26d755cbce)" style="fill: none; stroke: #94a3b8; stroke-width: 0.65"/>
    <path d="M 1144.288916 355.701625 
L 1027.912557 302.70724 
" clip-path="url(#p26d755cbce)" style="fill: none; stroke: #94a3b8; stroke-width: 0.65"/>
    <path d="M 986.358179 355.591152 
L 1027.912557 302.70724 
" clip-path="url(#p26d755cbce)" style="fill: none; stroke: #94a3b8; stroke-width: 0.65"/>
    <path d="M 1225.982724 322.512392 
L 1027.912557 302.70724 
" clip-path="url(#p26d755cbce)" style="fill: none; stroke: #94a3b8; stroke-width: 0.65"/>
    <path d="M 1075.604807 247.574924 
L 1027.912557 302.70724 
" clip-path="url(#p26d755cbce)" style="fill: none; stroke: #94a3b8; stroke-width: 0.65"/>
    <path d="M 965.144946 282.858844 
L 1027.912557 302.70724 
" clip-path="url(#p26d755cbce)" style="fill: none; stroke: #94a3b8; stroke-width: 0.65"/>
    <path d="M 882.104261 314.100443 
L 1027.912557 302.70724 
" clip-path="url(#p26d755cbce)" style="fill: none; stroke: #94a3b8; stroke-width: 0.65"/>
    <path d="M 1023.163777 231.348675 
L 1027.912557 302.70724 
" clip-path="url(#p26d755cbce)" style="fill: none; stroke: #94a3b8; stroke-width: 0.65"/>
    <path d="M 1162.775212 274.596908 
L 1027.912557 302.70724 
" clip-path="url(#p26d755cbce)" style="fill: none; stroke: #94a3b8; stroke-width: 0.65"/>
    <path d="M 1008.797347 482.100965 
L 1027.912557 302.70724 
" clip-path="url(#p26d755cbce)" style="fill: none; stroke: #94a3b8; stroke-width: 0.65"/>
    <path d="M 1169.120845 502.87978 
L 1027.912557 302.70724 
" clip-path="url(#p26d755cbce)" style="fill: none; stroke: #94a3b8; stroke-width: 0.65"/>
    <path d="M 955.510437 473.722702 
L 1027.912557 302.70724 
" clip-path="url(#p26d755cbce)" style="fill: none; stroke: #94a3b8; stroke-width: 0.65"/>
    <path d="M 903.588 421.352345 
L 1027.912557 302.70724 
" clip-path="url(#p26d755cbce)" style="fill: none; stroke: #94a3b8; stroke-width: 0.65"/>
    <path d="M 983.72393 513.59726 
L 1027.912557 302.70724 
" clip-path="url(#p26d755cbce)" style="fill: none; stroke: #94a3b8; stroke-width: 0.65"/>
    <path d="M 927.230136 249.532035 
L 1027.912557 302.70724 
" clip-path="url(#p26d755cbce)" style="fill: none; stroke: #94a3b8; stroke-width: 0.65"/>
    <path d="M 942.822173 325.938051 
L 1027.912557 302.70724 
" clip-path="url(#p26d755cbce)" style="fill: none; stroke: #94a3b8; stroke-width: 0.65"/>
    <path d="M 901.026876 471.26955 
L 1027.912557 302.70724 
" clip-path="url(#p26d755cbce)" style="fill: none; stroke: #94a3b8; stroke-width: 0.65"/>
    <path d="M 1162.831522 416.799231 
L 1041.475446 365.289442 
" clip-path="url(#p26d755cbce)" style="fill: none; stroke: #94a3b8; stroke-width: 0.65"/>
    <path d="M 948.191715 376.882541 
L 1041.475446 365.289442 
" clip-path="url(#p26d755cbce)" style="fill: none; stroke: #94a3b8; stroke-width: 0.65"/>
    <path d="M 1122.244006 251.007019 
L 1041.475446 365.289442 
" clip-path="url(#p26d755cbce)" style="fill: none; stroke: #94a3b8; stroke-width: 0.65"/>
    <path d="M 1136.936285 309.511879 
L 1041.475446 365.289442 
" clip-path="url(#p26d755cbce)" style="fill: none; stroke: #94a3b8; stroke-width: 0.65"/>
    <path d="M 958.80314 429.724619 
L 1041.475446 365.289442 
" clip-path="url(#p26d755cbce)" style="fill: none; stroke: #94a3b8; stroke-width: 0.65"/>
    <path d="M 1144.288916 355.701625 
L 1041.475446 365.289442 
" clip-path="url(#p26d755cbce)" style="fill: none; stroke: #94a3b8; stroke-width: 0.65"/>
    <path d="M 1038.801545 548.676801 
L 1041.475446 365.289442 
" clip-path="url(#p26d755cbce)" style="fill: none; stroke: #94a3b8; stroke-width: 0.65"/>
    <path d="M 1187.954563 371.218501 
L 1041.475446 365.289442 
" clip-path="url(#p26d755cbce)" style="fill: none; stroke: #94a3b8; stroke-width: 0.65"/>
    <path d="M 986.358179 355.591152 
L 1041.475446 365.289442 
" clip-path="url(#p26d755cbce)" style="fill: none; stroke: #94a3b8; stroke-width: 0.65"/>
    <path d="M 1075.604807 247.574924 
L 1041.475446 365.289442 
" clip-path="url(#p26d755cbce)" style="fill: none; stroke: #94a3b8; stroke-width: 0.65"/>
    <path d="M 965.144946 282.858844 
L 1041.475446 365.289442 
" clip-path="url(#p26d755cbce)" style="fill: none; stroke: #94a3b8; stroke-width: 0.65"/>
    <path d="M 1050.665329 606.827019 
L 1041.475446 365.289442 
" clip-path="url(#p26d755cbce)" style="fill: none; stroke: #94a3b8; stroke-width: 0.65"/>
    <path d="M 1233.614041 395.335628 
L 1041.475446 365.289442 
" clip-path="url(#p26d755cbce)" style="fill: none; stroke: #94a3b8; stroke-width: 0.65"/>
    <path d="M 882.104261 314.100443 
L 1041.475446 365.289442 
" clip-path="url(#p26d755cbce)" style="fill: none; stroke: #94a3b8; stroke-width: 0.65"/>
    <path d="M 1023.163777 231.348675 
L 1041.475446 365.289442 
" clip-path="url(#p26d755cbce)" style="fill: none; stroke: #94a3b8; stroke-width: 0.65"/>
    <path d="M 1162.775212 274.596908 
L 1041.475446 365.289442 
" clip-path="url(#p26d755cbce)" style="fill: none; stroke: #94a3b8; stroke-width: 0.65"/>
    <path d="M 1205.049811 447.248933 
L 1041.475446 365.289442 
" clip-path="url(#p26d755cbce)" style="fill: none; stroke: #94a3b8; stroke-width: 0.65"/>
    <path d="M 1008.797347 482.100965 
L 1041.475446 365.289442 
" clip-path="url(#p26d755cbce)" style="fill: none; stroke: #94a3b8; stroke-width: 0.65"/>
    <path d="M 955.510437 473.722702 
L 1041.475446 365.289442 
" clip-path="url(#p26d755cbce)" style="fill: none; stroke: #94a3b8; stroke-width: 0.65"/>
    <path d="M 903.588 421.352345 
L 1041.475446 365.289442 
" clip-path="url(#p26d755cbce)" style="fill: none; stroke: #94a3b8; stroke-width: 0.65"/>
    <path d="M 983.72393 513.59726 
L 1041.475446 365.289442 
" clip-path="url(#p26d755cbce)" style="fill: none; stroke: #94a3b8; stroke-width: 0.65"/>
    <path d="M 927.230136 249.532035 
L 1041.475446 365.289442 
" clip-path="url(#p26d755cbce)" style="fill: none; stroke: #94a3b8; stroke-width: 0.65"/>
    <path d="M 942.822173 325.938051 
L 1041.475446 365.289442 
" clip-path="url(#p26d755cbce)" style="fill: none; stroke: #94a3b8; stroke-width: 0.65"/>
    <path d="M 901.026876 471.26955 
L 1041.475446 365.289442 
" clip-path="url(#p26d755cbce)" style="fill: none; stroke: #94a3b8; stroke-width: 0.65"/>
    <path d="M 1162.831522 416.799231 
L 1082.937008 422.259141 
" clip-path="url(#p26d755cbce)" style="fill: none; stroke: #94a3b8; stroke-width: 0.65"/>
    <path d="M 948.191715 376.882541 
L 1082.937008 422.259141 
" clip-path="url(#p26d755cbce)" style="fill: none; stroke: #94a3b8; stroke-width: 0.65"/>
    <path d="M 1122.244006 251.007019 
L 1082.937008 422.259141 
" clip-path="url(#p26d755cbce)" style="fill: none; stroke: #94a3b8; stroke-width: 0.65"/>
    <path d="M 1136.936285 309.511879 
L 1082.937008 422.259141 
" clip-path="url(#p26d755cbce)" style="fill: none; stroke: #94a3b8; stroke-width: 0.65"/>
    <path d="M 958.80314 429.724619 
L 1082.937008 422.259141 
" clip-path="url(#p26d755cbce)" style="fill: none; stroke: #94a3b8; stroke-width: 0.65"/>
    <path d="M 1144.288916 355.701625 
L 1082.937008 422.259141 
" clip-path="url(#p26d755cbce)" style="fill: none; stroke: #94a3b8; stroke-width: 0.65"/>
    <path d="M 1038.801545 548.676801 
L 1082.937008 422.259141 
" clip-path="url(#p26d755cbce)" style="fill: none; stroke: #94a3b8; stroke-width: 0.65"/>
    <path d="M 1187.954563 371.218501 
L 1082.937008 422.259141 
" clip-path="url(#p26d755cbce)" style="fill: none; stroke: #94a3b8; stroke-width: 0.65"/>
    <path d="M 986.358179 355.591152 
L 1082.937008 422.259141 
" clip-path="url(#p26d755cbce)" style="fill: none; stroke: #94a3b8; stroke-width: 0.65"/>
    <path d="M 1225.982724 322.512392 
L 1082.937008 422.259141 
" clip-path="url(#p26d755cbce)" style="fill: none; stroke: #94a3b8; stroke-width: 0.65"/>
    <path d="M 1075.604807 247.574924 
L 1082.937008 422.259141 
" clip-path="url(#p26d755cbce)" style="fill: none; stroke: #94a3b8; stroke-width: 0.65"/>
    <path d="M 1242.932023 552.874626 
L 1082.937008 422.259141 
" clip-path="url(#p26d755cbce)" style="fill: none; stroke: #94a3b8; stroke-width: 0.65"/>
    <path d="M 1136.822473 567.473146 
L 1082.937008 422.259141 
" clip-path="url(#p26d755cbce)" style="fill: none; stroke: #94a3b8; stroke-width: 0.65"/>
    <path d="M 924.139887 548.23383 
L 1082.937008 422.259141 
" clip-path="url(#p26d755cbce)" style="fill: none; stroke: #94a3b8; stroke-width: 0.65"/>
    <path d="M 965.144946 282.858844 
L 1082.937008 422.259141 
" clip-path="url(#p26d755cbce)" style="fill: none; stroke: #94a3b8; stroke-width: 0.65"/>
    <path d="M 1233.614041 395.335628 
L 1082.937008 422.259141 
" clip-path="url(#p26d755cbce)" style="fill: none; stroke: #94a3b8; stroke-width: 0.65"/>
    <path d="M 1003.665713 616.411325 
L 1082.937008 422.259141 
" clip-path="url(#p26d755cbce)" style="fill: none; stroke: #94a3b8; stroke-width: 0.65"/>
    <path d="M 900.78024 389.583251 
L 1082.937008 422.259141 
" clip-path="url(#p26d755cbce)" style="fill: none; stroke: #94a3b8; stroke-width: 0.65"/>
    <path d="M 1223.215777 497.942361 
L 1082.937008 422.259141 
" clip-path="url(#p26d755cbce)" style="fill: none; stroke: #94a3b8; stroke-width: 0.65"/>
    <path d="M 1162.775212 274.596908 
L 1082.937008 422.259141 
" clip-path="url(#p26d755cbce)" style="fill: none; stroke: #94a3b8; stroke-width: 0.65"/>
    <path d="M 1205.049811 447.248933 
L 1082.937008 422.259141 
" clip-path="url(#p26d755cbce)" style="fill: none; stroke: #94a3b8; stroke-width: 0.65"/>
    <path d="M 1169.120845 502.87978 
L 1082.937008 422.259141 
" clip-path="url(#p26d755cbce)" style="fill: none; stroke: #94a3b8; stroke-width: 0.65"/>
    <path d="M 1008.797347 482.100965 
L 1082.937008 422.259141 
" clip-path="url(#p26d755cbce)" style="fill: none; stroke: #94a3b8; stroke-width: 0.65"/>
    <path d="M 955.510437 473.722702 
L 1082.937008 422.259141 
" clip-path="url(#p26d755cbce)" style="fill: none; stroke: #94a3b8; stroke-width: 0.65"/>
    <path d="M 903.588 421.352345 
L 1082.937008 422.259141 
" clip-path="url(#p26d755cbce)" style="fill: none; stroke: #94a3b8; stroke-width: 0.65"/>
    <path d="M 983.72393 513.59726 
L 1082.937008 422.259141 
" clip-path="url(#p26d755cbce)" style="fill: none; stroke: #94a3b8; stroke-width: 0.65"/>
    <path d="M 942.822173 325.938051 
L 1082.937008 422.259141 
" clip-path="url(#p26d755cbce)" style="fill: none; stroke: #94a3b8; stroke-width: 0.65"/>
    <path d="M 901.026876 471.26955 
L 1082.937008 422.259141 
" clip-path="url(#p26d755cbce)" style="fill: none; stroke: #94a3b8; stroke-width: 0.65"/>
   </g>
   <g id="PathCollection_2">
    <defs>
     <path id="mf8dd1875f9" d="M -6.5 6.5 
L 6.5 6.5 
L 6.5 -6.5 
L -6.5 -6.5 
z
" style="stroke: #f8fafc; stroke-width: 0.8"/>
    </defs>
    <g clip-path="url(#p26d755cbce)">
     <use xlink:href="#mf8dd1875f9" x="828.867977" y="486.524309" style="fill: #f59e0b; stroke: #f8fafc; stroke-width: 0.8"/>
     <use xlink:href="#mf8dd1875f9" x="1052.072887" y="451.827179" style="fill: #f59e0b; stroke: #f8fafc; stroke-width: 0.8"/>
     <use xlink:href="#mf8dd1875f9" x="1024.034977" y="405.062949" style="fill: #f59e0b; stroke: #f8fafc; stroke-width: 0.8"/>
     <use xlink:href="#mf8dd1875f9" x="1060.046959" y="424.786117" style="fill: #f59e0b; stroke: #f8fafc; stroke-width: 0.8"/>
     <use xlink:href="#mf8dd1875f9" x="1053.113903" y="513.863711" style="fill: #f59e0b; stroke: #f8fafc; stroke-width: 0.8"/>
     <use xlink:href="#mf8dd1875f9" x="1082.937008" y="422.259141" style="fill: #f59e0b; stroke: #f8fafc; stroke-width: 0.8"/>
     <use xlink:href="#mf8dd1875f9" x="1041.475446" y="365.289442" style="fill: #f59e0b; stroke: #f8fafc; stroke-width: 0.8"/>
     <use xlink:href="#mf8dd1875f9" x="1027.912557" y="302.70724" style="fill: #f59e0b; stroke: #f8fafc; stroke-width: 0.8"/>
     <use xlink:href="#mf8dd1875f9" x="1112.786602" y="484.767221" style="fill: #f59e0b; stroke: #f8fafc; stroke-width: 0.8"/>
     <use xlink:href="#mf8dd1875f9" x="1074.326584" y="379.11186" style="fill: #f59e0b; stroke: #f8fafc; stroke-width: 0.8"/>
    </g>
   </g>
   <g id="PathCollection_3">
    <defs>
     <path id="m6609c2da2e" d="M 0 5 
C 1.326016 5 2.597899 4.473168 3.535534 3.535534 
C 4.473168 2.597899 5 1.326016 5 0 
C 5 -1.326016 4.473168 -2.597899 3.535534 -3.535534 
C 2.597899 -4.473168 1.326016 -5 0 -5 
C -1.326016 -5 -2.597899 -4.473168 -3.535534 -3.535534 
C -4.473168 -2.597899 -5 -1.326016 -5 0 
C -5 1.326016 -4.473168 2.597899 -3.535534 3.535534 
C -2.597899 4.473168 -1.326016 5 0 5 
z
" style="stroke: #f8fafc; stroke-width: 0.8"/>
    </defs>
    <g clip-path="url(#p26d755cbce)">
     <use xlink:href="#m6609c2da2e" x="924.139887" y="548.23383" style="fill: #38bdf8; stroke: #f8fafc; stroke-width: 0.8"/>
     <use xlink:href="#m6609c2da2e" x="882.104261" y="314.100443" style="fill: #38bdf8; stroke: #f8fafc; stroke-width: 0.8"/>
     <use xlink:href="#m6609c2da2e" x="951.934056" y="595.903421" style="fill: #38bdf8; stroke: #f8fafc; stroke-width: 0.8"/>
     <use xlink:href="#m6609c2da2e" x="942.822173" y="325.938051" style="fill: #38bdf8; stroke: #f8fafc; stroke-width: 0.8"/>
     <use xlink:href="#m6609c2da2e" x="1162.831522" y="416.799231" style="fill: #38bdf8; stroke: #f8fafc; stroke-width: 0.8"/>
     <use xlink:href="#m6609c2da2e" x="983.72393" y="513.59726" style="fill: #38bdf8; stroke: #f8fafc; stroke-width: 0.8"/>
     <use xlink:href="#m6609c2da2e" x="1075.604807" y="247.574924" style="fill: #38bdf8; stroke: #f8fafc; stroke-width: 0.8"/>
     <use xlink:href="#m6609c2da2e" x="1038.801545" y="548.676801" style="fill: #38bdf8; stroke: #f8fafc; stroke-width: 0.8"/>
     <use xlink:href="#m6609c2da2e" x="955.510437" y="473.722702" style="fill: #38bdf8; stroke: #f8fafc; stroke-width: 0.8"/>
     <use xlink:href="#m6609c2da2e" x="1144.288916" y="355.701625" style="fill: #38bdf8; stroke: #f8fafc; stroke-width: 0.8"/>
     <use xlink:href="#m6609c2da2e" x="1162.775212" y="274.596908" style="fill: #38bdf8; stroke: #f8fafc; stroke-width: 0.8"/>
     <use xlink:href="#m6609c2da2e" x="1169.120845" y="502.87978" style="fill: #38bdf8; stroke: #f8fafc; stroke-width: 0.8"/>
     <use xlink:href="#m6609c2da2e" x="1023.163777" y="231.348675" style="fill: #38bdf8; stroke: #f8fafc; stroke-width: 0.8"/>
     <use xlink:href="#m6609c2da2e" x="958.80314" y="429.724619" style="fill: #38bdf8; stroke: #f8fafc; stroke-width: 0.8"/>
     <use xlink:href="#m6609c2da2e" x="965.144946" y="282.858844" style="fill: #38bdf8; stroke: #f8fafc; stroke-width: 0.8"/>
     <use xlink:href="#m6609c2da2e" x="1136.822473" y="567.473146" style="fill: #38bdf8; stroke: #f8fafc; stroke-width: 0.8"/>
     <use xlink:href="#m6609c2da2e" x="986.358179" y="355.591152" style="fill: #38bdf8; stroke: #f8fafc; stroke-width: 0.8"/>
     <use xlink:href="#m6609c2da2e" x="901.026876" y="471.26955" style="fill: #38bdf8; stroke: #f8fafc; stroke-width: 0.8"/>
     <use xlink:href="#m6609c2da2e" x="948.191715" y="376.882541" style="fill: #38bdf8; stroke: #f8fafc; stroke-width: 0.8"/>
     <use xlink:href="#m6609c2da2e" x="1187.954563" y="371.218501" style="fill: #38bdf8; stroke: #f8fafc; stroke-width: 0.8"/>
     <use xlink:href="#m6609c2da2e" x="1233.614041" y="395.335628" style="fill: #38bdf8; stroke: #f8fafc; stroke-width: 0.8"/>
     <use xlink:href="#m6609c2da2e" x="1008.797347" y="482.100965" style="fill: #38bdf8; stroke: #f8fafc; stroke-width: 0.8"/>
     <use xlink:href="#m6609c2da2e" x="900.78024" y="389.583251" style="fill: #38bdf8; stroke: #f8fafc; stroke-width: 0.8"/>
     <use xlink:href="#m6609c2da2e" x="1003.665713" y="616.411325" style="fill: #38bdf8; stroke: #f8fafc; stroke-width: 0.8"/>
     <use xlink:href="#m6609c2da2e" x="927.230136" y="249.532035" style="fill: #38bdf8; stroke: #f8fafc; stroke-width: 0.8"/>
     <use xlink:href="#m6609c2da2e" x="1050.665329" y="606.827019" style="fill: #38bdf8; stroke: #f8fafc; stroke-width: 0.8"/>
     <use xlink:href="#m6609c2da2e" x="903.588" y="421.352345" style="fill: #38bdf8; stroke: #f8fafc; stroke-width: 0.8"/>
     <use xlink:href="#m6609c2da2e" x="1205.049811" y="447.248933" style="fill: #38bdf8; stroke: #f8fafc; stroke-width: 0.8"/>
     <use xlink:href="#m6609c2da2e" x="1164.107482" y="610.01301" style="fill: #38bdf8; stroke: #f8fafc; stroke-width: 0.8"/>
     <use xlink:href="#m6609c2da2e" x="1225.982724" y="322.512392" style="fill: #38bdf8; stroke: #f8fafc; stroke-width: 0.8"/>
     <use xlink:href="#m6609c2da2e" x="1136.936285" y="309.511879" style="fill: #38bdf8; stroke: #f8fafc; stroke-width: 0.8"/>
     <use xlink:href="#m6609c2da2e" x="1242.932023" y="552.874626" style="fill: #38bdf8; stroke: #f8fafc; stroke-width: 0.8"/>
     <use xlink:href="#m6609c2da2e" x="1223.215777" y="497.942361" style="fill: #38bdf8; stroke: #f8fafc; stroke-width: 0.8"/>
     <use xlink:href="#m6609c2da2e" x="1122.244006" y="251.007019" style="fill: #38bdf8; stroke: #f8fafc; stroke-width: 0.8"/>
    </g>
   </g>
   <g id="text_18">
    <text style="font-weight: 700; font-size: 15px; font-family: 'DejaVu Sans'; text-anchor: start; fill: #e5e7eb" x="696.6" y="108.72" transform="rotate(-0 696.6 108.72)">XGI bipartite incidence view</text>
   </g>
   <g id="text_19">
    <g clip-path="url(#p26d755cbce)">
     <text style="font-size: 7.6px; font-family: 'Noto Sans', 'Noto Sans CJK SC', 'Noto Sans CJK JP', 'Amiri', 'Scheherazade', 'Abyssinica SIL', 'Padauk', 'Lohit Devanagari', 'Lohit Tamil', 'Lohit Gujarati', 'Loma', 'Garuda', 'DejaVu Sans', 'Arial', 'Helvetica', sans-serif; text-anchor: middle; fill: #e5e7eb" x="1060.046959" y="426.762117" transform="rotate(-0 1060.046959 426.762117)">ODYSSEUS</text>
    </g>
   </g>
   <g id="text_20">
    <g clip-path="url(#p26d755cbce)">
     <text style="font-size: 7.6px; font-family: 'Noto Sans', 'Noto Sans CJK SC', 'Noto Sans CJK JP', 'Amiri', 'Scheherazade', 'Abyssinica SIL', 'Padauk', 'Lohit Devanagari', 'Lohit Tamil', 'Lohit Gujarati', 'Loma', 'Garuda', 'DejaVu Sans', 'Arial', 'Helvetica', sans-serif; text-anchor: middle; fill: #e5e7eb" x="1082.937008" y="424.235141" transform="rotate(-0 1082.937008 424.235141)">ZEUS</text>
    </g>
   </g>
   <g id="text_21">
    <g clip-path="url(#p26d755cbce)">
     <text style="font-size: 7.6px; font-family: 'Noto Sans', 'Noto Sans CJK SC', 'Noto Sans CJK JP', 'Amiri', 'Scheherazade', 'Abyssinica SIL', 'Padauk', 'Lohit Devanagari', 'Lohit Tamil', 'Lohit Gujarati', 'Loma', 'Garuda', 'DejaVu Sans', 'Arial', 'Helvetica', sans-serif; text-anchor: middle; fill: #e5e7eb" x="1041.475446" y="367.265442" transform="rotate(-0 1041.475446 367.265442)">SEA</text>
    </g>
   </g>
   <g id="text_22">
    <g clip-path="url(#p26d755cbce)">
     <text style="font-size: 7.6px; font-family: 'Noto Sans', 'Noto Sans CJK SC', 'Noto Sans CJK JP', 'Amiri', 'Scheherazade', 'Abyssinica SIL', 'Padauk', 'Lohit Devanagari', 'Lohit Tamil', 'Lohit Gujarati', 'Loma', 'Garuda', 'DejaVu Sans', 'Arial', 'Helvetica', sans-serif; text-anchor: middle; fill: #e5e7eb" x="1052.072887" y="453.803179" transform="rotate(-0 1052.072887 453.803179)">MIND</text>
    </g>
   </g>
   <g id="text_23">
    <g clip-path="url(#p26d755cbce)">
     <text style="font-size: 7.6px; font-family: 'Noto Sans', 'Noto Sans CJK SC', 'Noto Sans CJK JP', 'Amiri', 'Scheherazade', 'Abyssinica SIL', 'Padauk', 'Lohit Devanagari', 'Lohit Tamil', 'Lohit Gujarati', 'Loma', 'Garuda', 'DejaVu Sans', 'Arial', 'Helvetica', sans-serif; text-anchor: middle; fill: #e5e7eb" x="1074.326584" y="381.08786" transform="rotate(-0 1074.326584 381.08786)">MORTALS</text>
    </g>
   </g>
   <g id="text_24">
    <g clip-path="url(#p26d755cbce)">
     <text style="font-size: 7.6px; font-family: 'Noto Sans', 'Noto Sans CJK SC', 'Noto Sans CJK JP', 'Amiri', 'Scheherazade', 'Abyssinica SIL', 'Padauk', 'Lohit Devanagari', 'Lohit Tamil', 'Lohit Gujarati', 'Loma', 'Garuda', 'DejaVu Sans', 'Arial', 'Helvetica', sans-serif; text-anchor: middle; fill: #e5e7eb" x="1024.034977" y="407.038949" transform="rotate(-0 1024.034977 407.038949)">ATHENA</text>
    </g>
   </g>
   <g id="text_25">
    <g clip-path="url(#p26d755cbce)">
     <text style="font-size: 7.6px; font-family: 'Noto Sans', 'Noto Sans CJK SC', 'Noto Sans CJK JP', 'Amiri', 'Scheherazade', 'Abyssinica SIL', 'Padauk', 'Lohit Devanagari', 'Lohit Tamil', 'Lohit Gujarati', 'Loma', 'Garuda', 'DejaVu Sans', 'Arial', 'Helvetica', sans-serif; text-anchor: middle; fill: #e5e7eb" x="1112.786602" y="486.743221" transform="rotate(-0 1112.786602 486.743221)">GENERIC_MAN</text>
    </g>
   </g>
   <g id="text_26">
    <g clip-path="url(#p26d755cbce)">
     <text style="font-size: 7.6px; font-family: 'Noto Sans', 'Noto Sans CJK SC', 'Noto Sans CJK JP', 'Amiri', 'Scheherazade', 'Abyssinica SIL', 'Padauk', 'Lohit Devanagari', 'Lohit Tamil', 'Lohit Gujarati', 'Loma', 'Garuda', 'DejaVu Sans', 'Arial', 'Helvetica', sans-serif; text-anchor: middle; fill: #e5e7eb" x="1027.912557" y="304.68324" transform="rotate(-0 1027.912557 304.68324)">PALACE</text>
    </g>
   </g>
   <g id="text_27">
    <g clip-path="url(#p26d755cbce)">
     <text style="font-size: 7.6px; font-family: 'Noto Sans', 'Noto Sans CJK SC', 'Noto Sans CJK JP', 'Amiri', 'Scheherazade', 'Abyssinica SIL', 'Padauk', 'Lohit Devanagari', 'Lohit Tamil', 'Lohit Gujarati', 'Loma', 'Garuda', 'DejaVu Sans', 'Arial', 'Helvetica', sans-serif; text-anchor: middle; fill: #e5e7eb" x="1053.113903" y="515.839711" transform="rotate(-0 1053.113903 515.839711)">GENERIC_SON</text>
    </g>
   </g>
   <g id="text_28">
    <g clip-path="url(#p26d755cbce)">
     <text style="font-size: 7.6px; font-family: 'Noto Sans', 'Noto Sans CJK SC', 'Noto Sans CJK JP', 'Amiri', 'Scheherazade', 'Abyssinica SIL', 'Padauk', 'Lohit Devanagari', 'Lohit Tamil', 'Lohit Gujarati', 'Loma', 'Garuda', 'DejaVu Sans', 'Arial', 'Helvetica', sans-serif; text-anchor: middle; fill: #e5e7eb" x="828.867977" y="488.500309" transform="rotate(-0 828.867977 488.500309)">DEATH</text>
    </g>
   </g>
   <g id="text_29">
    <g clip-path="url(#p26d755cbce)">
     <text style="font-size: 7.6px; font-family: 'Noto Sans', 'Noto Sans CJK SC', 'Noto Sans CJK JP', 'Amiri', 'Scheherazade', 'Abyssinica SIL', 'Padauk', 'Lohit Devanagari', 'Lohit Tamil', 'Lohit Gujarati', 'Loma', 'Garuda', 'DejaVu Sans', 'Arial', 'Helvetica', sans-serif; text-anchor: middle; fill: #e5e7eb" x="1162.831522" y="418.775231" transform="rotate(-0 1162.831522 418.775231)">fair</text>
    </g>
   </g>
   <g id="text_30">
    <g clip-path="url(#p26d755cbce)">
     <text style="font-size: 7.6px; font-family: 'Noto Sans', 'Noto Sans CJK SC', 'Noto Sans CJK JP', 'Amiri', 'Scheherazade', 'Abyssinica SIL', 'Padauk', 'Lohit Devanagari', 'Lohit Tamil', 'Lohit Gujarati', 'Loma', 'Garuda', 'DejaVu Sans', 'Arial', 'Helvetica', sans-serif; text-anchor: middle; fill: #e5e7eb" x="948.191715" y="378.858541" transform="rotate(-0 948.191715 378.858541)">sacred</text>
    </g>
   </g>
   <g id="text_31">
    <g clip-path="url(#p26d755cbce)">
     <text style="font-size: 7.6px; font-family: 'Noto Sans', 'Noto Sans CJK SC', 'Noto Sans CJK JP', 'Amiri', 'Scheherazade', 'Abyssinica SIL', 'Padauk', 'Lohit Devanagari', 'Lohit Tamil', 'Lohit Gujarati', 'Loma', 'Garuda', 'DejaVu Sans', 'Arial', 'Helvetica', sans-serif; text-anchor: middle; fill: #e5e7eb" x="1144.288916" y="357.677625" transform="rotate(-0 1144.288916 357.677625)">high</text>
    </g>
   </g>
   <g id="text_32">
    <g clip-path="url(#p26d755cbce)">
     <text style="font-size: 7.6px; font-family: 'Noto Sans', 'Noto Sans CJK SC', 'Noto Sans CJK JP', 'Amiri', 'Scheherazade', 'Abyssinica SIL', 'Padauk', 'Lohit Devanagari', 'Lohit Tamil', 'Lohit Gujarati', 'Loma', 'Garuda', 'DejaVu Sans', 'Arial', 'Helvetica', sans-serif; text-anchor: middle; fill: #e5e7eb" x="958.80314" y="431.700619" transform="rotate(-0 958.80314 431.700619)">long</text>
    </g>
   </g>
   <g id="text_33">
    <g clip-path="url(#p26d755cbce)">
     <text style="font-size: 7.6px; font-family: 'Noto Sans', 'Noto Sans CJK SC', 'Noto Sans CJK JP', 'Amiri', 'Scheherazade', 'Abyssinica SIL', 'Padauk', 'Lohit Devanagari', 'Lohit Tamil', 'Lohit Gujarati', 'Loma', 'Garuda', 'DejaVu Sans', 'Arial', 'Helvetica', sans-serif; text-anchor: middle; fill: #e5e7eb" x="900.78024" y="391.559251" transform="rotate(-0 900.78024 391.559251)">young</text>
    </g>
   </g>
   <g id="text_34">
    <g clip-path="url(#p26d755cbce)">
     <text style="font-size: 7.6px; font-family: 'Noto Sans', 'Noto Sans CJK SC', 'Noto Sans CJK JP', 'Amiri', 'Scheherazade', 'Abyssinica SIL', 'Padauk', 'Lohit Devanagari', 'Lohit Tamil', 'Lohit Gujarati', 'Loma', 'Garuda', 'DejaVu Sans', 'Arial', 'Helvetica', sans-serif; text-anchor: middle; fill: #e5e7eb" x="1136.936285" y="311.487879" transform="rotate(-0 1136.936285 311.487879)">just</text>
    </g>
   </g>
   <g id="text_35">
    <g clip-path="url(#p26d755cbce)">
     <text style="font-size: 7.6px; font-family: 'Noto Sans', 'Noto Sans CJK SC', 'Noto Sans CJK JP', 'Amiri', 'Scheherazade', 'Abyssinica SIL', 'Padauk', 'Lohit Devanagari', 'Lohit Tamil', 'Lohit Gujarati', 'Loma', 'Garuda', 'DejaVu Sans', 'Arial', 'Helvetica', sans-serif; text-anchor: middle; fill: #e5e7eb" x="1038.801545" y="550.652801" transform="rotate(-0 1038.801545 550.652801)">good</text>
    </g>
   </g>
   <g id="text_36">
    <g clip-path="url(#p26d755cbce)">
     <text style="font-size: 7.6px; font-family: 'Noto Sans', 'Noto Sans CJK SC', 'Noto Sans CJK JP', 'Amiri', 'Scheherazade', 'Abyssinica SIL', 'Padauk', 'Lohit Devanagari', 'Lohit Tamil', 'Lohit Gujarati', 'Loma', 'Garuda', 'DejaVu Sans', 'Arial', 'Helvetica', sans-serif; text-anchor: middle; fill: #e5e7eb" x="1187.954563" y="373.194501" transform="rotate(-0 1187.954563 373.194501)">strong</text>
    </g>
   </g>
   <g id="text_37">
    <g clip-path="url(#p26d755cbce)">
     <text style="font-size: 7.6px; font-family: 'Noto Sans', 'Noto Sans CJK SC', 'Noto Sans CJK JP', 'Amiri', 'Scheherazade', 'Abyssinica SIL', 'Padauk', 'Lohit Devanagari', 'Lohit Tamil', 'Lohit Gujarati', 'Loma', 'Garuda', 'DejaVu Sans', 'Arial', 'Helvetica', sans-serif; text-anchor: middle; fill: #e5e7eb" x="986.358179" y="357.567152" transform="rotate(-0 986.358179 357.567152)">old</text>
    </g>
   </g>
   <g id="text_38">
    <g clip-path="url(#p26d755cbce)">
     <text style="font-size: 7.6px; font-family: 'Noto Sans', 'Noto Sans CJK SC', 'Noto Sans CJK JP', 'Amiri', 'Scheherazade', 'Abyssinica SIL', 'Padauk', 'Lohit Devanagari', 'Lohit Tamil', 'Lohit Gujarati', 'Loma', 'Garuda', 'DejaVu Sans', 'Arial', 'Helvetica', sans-serif; text-anchor: middle; fill: #e5e7eb" x="1008.797347" y="484.076965" transform="rotate(-0 1008.797347 484.076965)">wise</text>
    </g>
   </g>
   <g id="text_39">
    <g clip-path="url(#p26d755cbce)">
     <text style="font-size: 7.6px; font-family: 'Noto Sans', 'Noto Sans CJK SC', 'Noto Sans CJK JP', 'Amiri', 'Scheherazade', 'Abyssinica SIL', 'Padauk', 'Lohit Devanagari', 'Lohit Tamil', 'Lohit Gujarati', 'Loma', 'Garuda', 'DejaVu Sans', 'Arial', 'Helvetica', sans-serif; text-anchor: middle; fill: #e5e7eb" x="955.510437" y="475.698702" transform="rotate(-0 955.510437 475.698702)">great</text>
    </g>
   </g>
   <g id="text_40">
    <g clip-path="url(#p26d755cbce)">
     <text style="font-size: 7.6px; font-family: 'Noto Sans', 'Noto Sans CJK SC', 'Noto Sans CJK JP', 'Amiri', 'Scheherazade', 'Abyssinica SIL', 'Padauk', 'Lohit Devanagari', 'Lohit Tamil', 'Lohit Gujarati', 'Loma', 'Garuda', 'DejaVu Sans', 'Arial', 'Helvetica', sans-serif; text-anchor: middle; fill: #e5e7eb" x="903.588" y="423.328345" transform="rotate(-0 903.588 423.328345)">sad</text>
    </g>
   </g>
   <g id="text_41">
    <g clip-path="url(#p26d755cbce)">
     <text style="font-size: 7.6px; font-family: 'Noto Sans', 'Noto Sans CJK SC', 'Noto Sans CJK JP', 'Amiri', 'Scheherazade', 'Abyssinica SIL', 'Padauk', 'Lohit Devanagari', 'Lohit Tamil', 'Lohit Gujarati', 'Loma', 'Garuda', 'DejaVu Sans', 'Arial', 'Helvetica', sans-serif; text-anchor: middle; fill: #e5e7eb" x="983.72393" y="515.57326" transform="rotate(-0 983.72393 515.57326)">free</text>
    </g>
   </g>
   <g id="text_42">
    <g clip-path="url(#p26d755cbce)">
     <text style="font-size: 7.6px; font-family: 'Noto Sans', 'Noto Sans CJK SC', 'Noto Sans CJK JP', 'Amiri', 'Scheherazade', 'Abyssinica SIL', 'Padauk', 'Lohit Devanagari', 'Lohit Tamil', 'Lohit Gujarati', 'Loma', 'Garuda', 'DejaVu Sans', 'Arial', 'Helvetica', sans-serif; text-anchor: middle; fill: #e5e7eb" x="942.822173" y="327.914051" transform="rotate(-0 942.822173 327.914051)">divine</text>
    </g>
   </g>
   <g id="text_43">
    <g clip-path="url(#p26d755cbce)">
     <text style="font-size: 7.6px; font-family: 'Noto Sans', 'Noto Sans CJK SC', 'Noto Sans CJK JP', 'Amiri', 'Scheherazade', 'Abyssinica SIL', 'Padauk', 'Lohit Devanagari', 'Lohit Tamil', 'Lohit Gujarati', 'Loma', 'Garuda', 'DejaVu Sans', 'Arial', 'Helvetica', sans-serif; text-anchor: middle; fill: #e5e7eb" x="965.144946" y="284.834844" transform="rotate(-0 965.144946 284.834844)">mighty</text>
    </g>
   </g>
   <g id="text_44">
    <g clip-path="url(#p26d755cbce)">
     <text style="font-size: 7.6px; font-family: 'Noto Sans', 'Noto Sans CJK SC', 'Noto Sans CJK JP', 'Amiri', 'Scheherazade', 'Abyssinica SIL', 'Padauk', 'Lohit Devanagari', 'Lohit Tamil', 'Lohit Gujarati', 'Loma', 'Garuda', 'DejaVu Sans', 'Arial', 'Helvetica', sans-serif; text-anchor: middle; fill: #e5e7eb" x="1050.665329" y="608.803019" transform="rotate(-0 1050.665329 608.803019)">deep</text>
    </g>
   </g>
  </g>
  <g id="text_45">
   <text style="font-weight: 700; font-size: 22px; font-family: 'DejaVu Sans'; text-anchor: start; fill: #e5e7eb" x="18" y="23.916562" transform="rotate(-0 18 23.916562)">George Chapman (1616) — Native target-as-hyperedge visualization</text>
  </g>
  <g id="text_46">
   <text style="font-size: 11px; font-family: 'DejaVu Sans'; text-anchor: start; fill: #94a3b8" x="18" y="42.84" transform="rotate(-0 18 42.84)">Readable weighted core: 34 of 118 attribute nodes; 10 of 87 target hyperedges; 229 of 1069 incidences.</text>
  </g>
  <g id="text_47">
   <text style="font-size: 9px; font-family: 'DejaVu Sans'; text-anchor: start; fill: #94a3b8" x="18" y="755.64" transform="rotate(-0 18 755.64)">Blue circles are attributes; amber hulls or squares are target hyperedges. Selection is ranked by summed incidence weight.</text>
  </g>
 </g>
 <defs>
  <clipPath id="pc554e67f7a">
   <rect x="7.2" y="122.72" width="678.6" height="602.32"/>
  </clipPath>
  <clipPath id="p26d755cbce">
   <rect x="696.6" y="122.72" width="678.6" height="602.32"/>
  </clipPath>
 </defs>
</svg>
