<?xml version="1.0" encoding="utf-8" standalone="no"?>
<!DOCTYPE svg PUBLIC "-//W3C//DTD SVG 1.1//EN"
  "http://www.w3.org/Graphics/SVG/1.1/DTD/svg11.dtd">
<svg xmlns:xlink="http://www.w3.org/1999/xlink" width="1382.4pt" height="764.711719pt" viewBox="0 0 1382.4 764.711719" xmlns="http://www.w3.org/2000/svg" version="1.1">
 <metadata>
  <rdf:RDF xmlns:dc="http://purl.org/dc/elements/1.1/" xmlns:cc="http://creativecommons.org/ns#" xmlns:rdf="http://www.w3.org/1999/02/22-rdf-syntax-ns#">
   <cc:Work>
    <dc:type rdf:resource="http://purl.org/dc/dcmitype/StillImage"/>
    <dc:format>image/svg+xml</dc:format>
    <dc:creator>
     <cc:Agent>
      <dc:title>Matplotlib v3.10.3, https://matplotlib.org/</dc:title>
     </cc:Agent>
    </dc:creator>
   </cc:Work>
  </rdf:RDF>
 </metadata>
 <defs>
  <style type="text/css">*{stroke-linejoin: round; stroke-linecap: butt}</style>
 </defs>
 <g id="figure_1">
  <g id="patch_1">
   <path d="M 0 764.711719
L 1382.4 764.711719
L 1382.4 0
L 0 0
z
" style="fill: #ffffff"/>
  </g>
  <g id="axes_1">
   <g id="text_1">
    <text style="font-weight: 700; font-size: 15px; font-family: 'DejaVu Sans'; text-anchor: start; fill: #111827" x="7.2" y="108.72" transform="rotate(-0 7.2 108.72)">XGI native hyperedge-hull view</text>
   </g>
   <g id="PatchCollection_1">
    <path d="M 322.508942 254.933884
L 237.505221 281.192548
L 236.746363 281.465753
L 236.006157 281.786069
L 235.287524 282.152231
L 234.593301 282.562793
L 233.926227 283.016136
L 233.288936 283.51047
L 232.683941 284.043845
L 232.113631 284.614154
L 231.580257 285.219149
L 231.085922 285.856441
L 230.63258 286.523515
L 175.039889 368.674693
L 174.629327 369.368916
L 174.263165 370.087548
L 173.942849 370.827754
L 173.669644 371.586612
L 173.444626 372.361127
L 173.268685 373.148243
L 173.142514 373.944854
L 173.066612 374.747814
L 170.214305 452.033466
L 170.188971 452.839608
L 170.214305 453.64575
L 170.290207 454.448711
L 170.416378 455.245321
L 170.592319 456.032437
L 170.817337 456.806952
L 171.090543 457.56581
L 171.410858 458.306016
L 171.77702 459.024649
L 200.174361 514.289539
L 200.584923 514.983762
L 201.038266 515.650835
L 201.5326 516.288127
L 202.065974 516.893122
L 202.636284 517.463432
L 203.241279 517.996806
L 311.6038 602.702611
L 312.241092 603.196946
L 312.908165 603.650288
L 313.602388 604.060851
L 314.321021 604.427012
L 315.061227 604.747328
L 315.820085 605.020534
L 316.5946 605.245551
L 317.381716 605.421492
L 318.178327 605.547663
L 318.981287 605.623565
L 319.787429 605.648899
L 320.593572 605.623565
L 321.396532 605.547663
L 322.193143 605.421492
L 322.980259 605.245551
L 456.775096 567.314793
L 457.549611 567.089776
L 458.308469 566.81657
L 459.048675 566.496254
L 459.767308 566.130093
L 460.461531 565.71953
L 461.128605 565.266187
L 461.765896 564.771853
L 462.370891 564.238479
L 462.941201 563.668169
L 463.474576 563.063174
L 463.96891 562.425882
L 464.422252 561.758809
L 497.858489 506.337788
L 498.269052 505.643565
L 498.635213 504.924933
L 498.955529 504.184727
L 499.228735 503.425869
L 499.453752 502.651353
L 499.629693 501.864237
L 511.114887 447.578471
L 511.241058 446.781861
L 511.31696 445.9789
L 511.342294 445.172758
L 511.31696 444.366616
L 511.241058 443.563656
L 511.114887 442.767045
L 510.938946 441.979929
L 510.713928 441.205414
L 489.084089 367.774226
L 488.810883 367.015367
L 488.490567 366.275162
L 488.124406 365.556529
L 487.713844 364.862306
L 487.260501 364.195232
L 486.766167 363.557941
L 486.232792 362.952946
L 485.662482 362.382636
L 485.057487 361.849261
L 388.797528 281.085541
L 388.160236 280.591207
L 387.493162 280.137864
L 386.798939 279.727302
L 386.080307 279.361141
L 331.942695 255.527406
L 331.202489 255.20709
L 330.443631 254.933884
L 329.669116 254.708867
L 328.882 254.532925
L 328.085389 254.406755
L 327.282429 254.330853
L 326.476286 254.305519
L 325.670144 254.330853
L 324.867184 254.406755
L 324.070573 254.532925
L 323.283457 254.708867
z
" clip-path="url(#pc554e67f7a)" style="fill: #f59e0b; fill-opacity: 0.13; stroke: #d97706; stroke-opacity: 0.13; stroke-width: 0.8"/>
    <path d="M 522.785695 175.79358
L 522.811029 174.987438
L 522.785695 174.181296
L 522.709793 173.378335
L 522.583622 172.581725
L 522.407681 171.794609
L 522.182663 171.020094
L 521.909457 170.261235
L 521.589142 169.521029
L 521.22298 168.802397
L 520.812418 168.108174
L 520.359075 167.4411
L 519.864741 166.803809
L 519.331366 166.198814
L 518.761056 165.628504
L 518.156062 165.095129
L 517.51877 164.600795
L 516.851696 164.147452
L 516.157473 163.73689
L 515.438841 163.370729
L 514.698635 163.050413
L 513.939777 162.777207
L 513.165261 162.55219
L 512.378145 162.376248
L 511.581535 162.250078
L 510.778574 162.174176
L 509.972432 162.148842
L 509.16629 162.174176
L 508.363329 162.250078
L 507.566719 162.376248
L 506.779603 162.55219
L 506.005088 162.777207
L 505.24623 163.050413
L 504.506024 163.370729
L 236.006157 281.786069
L 235.287524 282.152231
L 234.593301 282.562793
L 233.926227 283.016136
L 233.288936 283.51047
L 232.683941 284.043845
L 232.113631 284.614154
L 231.580257 285.219149
L 231.085922 285.856441
L 230.63258 286.523515
L 175.039889 368.674693
L 174.629327 369.368916
L 174.263165 370.087548
L 173.942849 370.827754
L 173.669644 371.586612
L 173.444626 372.361127
L 173.268685 373.148243
L 173.142514 373.944854
L 173.066612 374.747814
L 173.041278 375.553957
L 173.066612 376.360099
L 173.142514 377.163059
L 173.268685 377.95967
L 173.444626 378.746786
L 173.669644 379.521301
L 173.942849 380.280159
L 174.263165 381.020365
L 174.629327 381.738998
L 261.90004 536.215355
L 262.310602 536.909578
L 262.763945 537.576652
L 263.258279 538.213943
L 263.791654 538.818938
L 264.361964 539.389248
L 264.966958 539.922623
L 265.60425 540.416957
L 266.271324 540.870299
L 266.965547 541.280862
L 267.684179 541.647023
L 268.424385 541.967339
L 269.183243 542.240545
L 269.957759 542.465562
L 270.744875 542.641504
L 271.541485 542.767674
L 272.344446 542.843576
L 273.150588 542.86891
L 273.95673 542.843576
L 274.759691 542.767674
L 488.627607 512.195884
L 489.424217 512.069714
L 490.211333 511.893772
L 490.985848 511.668755
L 491.744706 511.395549
L 492.484912 511.075233
L 493.203545 510.709072
L 493.897768 510.29851
L 494.564841 509.845167
L 495.202133 509.350833
L 495.807128 508.817458
L 496.377438 508.247148
L 496.910812 507.642153
L 497.405147 507.004862
L 497.858489 506.337788
L 498.269052 505.643565
L 498.635213 504.924933
L 498.955529 504.184727
L 499.228735 503.425869
L 499.453752 502.651353
L 499.629693 501.864237
L 511.114887 447.578471
L 511.241058 446.781861
L 511.31696 445.9789
z
" clip-path="url(#pc554e67f7a)" style="fill: #f59e0b; fill-opacity: 0.13; stroke: #d97706; stroke-opacity: 0.13; stroke-width: 0.8"/>
    <path d="M 409.914521 675.965391
L 476.484048 388.386865
L 476.65999 387.599749
L 476.78616 386.803139
L 476.862062 386.000178
L 476.887396 385.194036
L 476.862062 384.387894
L 476.78616 383.584933
L 476.65999 382.788323
L 476.484048 382.001207
L 476.259031 381.226692
L 475.985825 380.467833
L 475.665509 379.727628
L 475.299348 379.008995
L 474.888785 378.314772
L 474.435443 377.647698
L 473.941109 377.010407
L 473.407734 376.405412
L 389.972832 282.189226
L 389.402522 281.618916
L 388.797528 281.085541
L 388.160236 280.591207
L 387.493162 280.137864
L 386.798939 279.727302
L 386.080307 279.361141
L 385.340101 279.040825
L 384.581243 278.767619
L 383.806727 278.542602
L 383.019611 278.36666
L 382.223001 278.24049
L 381.42004 278.164588
L 380.613898 278.139253
L 379.807756 278.164588
L 379.004795 278.24049
L 378.208185 278.36666
L 377.421069 278.542602
L 376.646554 278.767619
L 297.807973 307.115407
L 297.049115 307.388613
L 296.308909 307.708929
L 295.590276 308.07509
L 294.896053 308.485653
L 294.228979 308.938995
L 293.591688 309.43333
L 292.986693 309.966704
L 292.416383 310.537014
L 237.936648 368.778294
L 237.403273 369.383289
L 173.135259 444.655978
L 172.640925 445.29327
L 172.187582 445.960344
L 171.77702 446.654567
L 171.410858 447.373199
L 171.090543 448.113405
L 170.817337 448.872263
L 170.592319 449.646779
L 170.416378 450.433895
L 170.290207 451.230505
L 170.214305 452.033466
L 170.188971 452.839608
L 170.214305 453.64575
L 170.290207 454.448711
L 170.416378 455.245321
L 170.592319 456.032437
L 170.817337 456.806952
L 171.090543 457.56581
L 171.410858 458.306016
L 171.77702 459.024649
L 200.174361 514.289539
L 200.584923 514.983762
L 201.038266 515.650835
L 201.5326 516.288127
L 202.065974 516.893122
L 202.636284 517.463432
L 388.690649 682.131496
L 389.295644 682.664871
L 389.932935 683.159205
L 390.600009 683.612548
L 391.294232 684.02311
L 392.012864 684.389271
L 392.75307 684.709587
L 393.511928 684.982793
L 394.286444 685.20781
L 395.07356 685.383752
L 395.87017 685.509922
L 396.673131 685.585824
L 397.479273 685.611158
L 398.285415 685.585824
L 399.088376 685.509922
L 399.884986 685.383752
L 400.672102 685.20781
L 401.446618 684.982793
L 402.205476 684.709587
L 402.945682 684.389271
L 403.664314 684.02311
L 404.358537 683.612548
L 405.025611 683.159205
L 405.662902 682.664871
L 406.267897 682.131496
L 406.838207 681.561186
L 407.371582 680.956191
L 407.865916 680.3189
L 408.319259 679.651826
L 408.729821 678.957603
L 409.095982 678.238971
L 409.416298 677.498765
L 409.689504 676.739906
z
" clip-path="url(#pc554e67f7a)" style="fill: #f59e0b; fill-opacity: 0.13; stroke: #d97706; stroke-opacity: 0.13; stroke-width: 0.8"/>
    <path d="M 202.636284 517.463432
L 388.690649 682.131496
L 389.295644 682.664871
L 389.932935 683.159205
L 390.600009 683.612548
L 391.294232 684.02311
L 392.012864 684.389271
L 392.75307 684.709587
L 393.511928 684.982793
L 394.286444 685.20781
L 395.07356 685.383752
L 395.87017 685.509922
L 396.673131 685.585824
L 397.479273 685.611158
L 398.285415 685.585824
L 399.088376 685.509922
L 399.884986 685.383752
L 400.672102 685.20781
L 401.446618 684.982793
L 402.205476 684.709587
L 402.945682 684.389271
L 403.664314 684.02311
L 404.358537 683.612548
L 405.025611 683.159205
L 405.662902 682.664871
L 406.267897 682.131496
L 406.838207 681.561186
L 407.371582 680.956191
L 407.865916 680.3189
L 408.319259 679.651826
L 408.729821 678.957603
L 409.095982 678.238971
L 465.198976 560.345953
L 465.519292 559.605747
L 465.792498 558.846889
L 466.017515 558.072374
L 466.193457 557.285258
L 466.319627 556.488647
L 489.611218 373.350673
L 489.68712 372.547712
L 489.712454 371.74157
L 489.68712 370.935428
L 489.611218 370.132467
L 489.485048 369.335857
L 489.309106 368.548741
L 489.084089 367.774226
L 488.810883 367.015367
L 488.490567 366.275162
L 488.124406 365.556529
L 487.713844 364.862306
L 487.260501 364.195232
L 486.766167 363.557941
L 486.232792 362.952946
L 485.662482 362.382636
L 485.057487 361.849261
L 484.420196 361.354927
L 483.753122 360.901585
L 424.428492 325.574854
L 423.734269 325.164292
L 423.015636 324.79813
L 422.275431 324.477814
L 421.516572 324.204609
L 420.742057 323.979591
L 419.954941 323.80365
L 419.158331 323.677479
L 418.35537 323.601577
L 417.549228 323.576243
L 416.743086 323.601577
L 317.195302 331.821099
L 316.392341 331.897001
L 315.595731 332.023172
L 314.808615 332.199113
L 314.0341 332.42413
L 313.275242 332.697336
L 312.535036 333.017652
L 241.829173 365.950209
L 241.110541 366.316371
L 240.416318 366.726933
L 239.749244 367.180276
L 239.111952 367.67461
L 238.506958 368.207984
L 237.936648 368.778294
L 237.403273 369.383289
L 236.908939 370.020581
L 236.455596 370.687655
L 236.045034 371.381877
L 235.678872 372.10051
L 235.358557 372.840716
L 235.085351 373.599574
L 234.860333 374.374089
L 198.98966 504.911669
L 198.813719 505.698785
L 198.687548 506.495395
L 198.611646 507.298356
L 198.586312 508.104498
L 198.611646 508.91064
L 198.687548 509.7136
L 198.813719 510.510211
L 198.98966 511.297327
L 199.214678 512.071842
L 199.487883 512.8307
L 199.808199 513.570906
L 200.174361 514.289539
L 200.584923 514.983762
L 201.038266 515.650835
L 201.5326 516.288127
L 202.065974 516.893122
z
" clip-path="url(#pc554e67f7a)" style="fill: #f59e0b; fill-opacity: 0.13; stroke: #d97706; stroke-opacity: 0.13; stroke-width: 0.8"/>
    <path d="M 522.785695 175.79358
L 522.811029 174.987438
L 522.785695 174.181296
L 522.709793 173.378335
L 522.583622 172.581725
L 522.407681 171.794609
L 522.182663 171.020094
L 521.909457 170.261235
L 521.589142 169.521029
L 521.22298 168.802397
L 520.812418 168.108174
L 520.359075 167.4411
L 519.864741 166.803809
L 519.331366 166.198814
L 518.761056 165.628504
L 518.156062 165.095129
L 517.51877 164.600795
L 516.851696 164.147452
L 516.157473 163.73689
L 515.438841 163.370729
L 514.698635 163.050413
L 513.939777 162.777207
L 513.165261 162.55219
L 512.378145 162.376248
L 511.581535 162.250078
L 510.778574 162.174176
L 509.972432 162.148842
L 509.16629 162.174176
L 508.363329 162.250078
L 507.566719 162.376248
L 506.779603 162.55219
L 506.005088 162.777207
L 505.24623 163.050413
L 504.506024 163.370729
L 503.787391 163.73689
L 503.093168 164.147452
L 502.426095 164.600795
L 294.228979 308.938995
L 293.591688 309.43333
L 292.986693 309.966704
L 292.416383 310.537014
L 291.883009 311.142009
L 291.388674 311.779301
L 290.935332 312.446374
L 290.524769 313.140597
L 290.158608 313.85923
L 289.838292 314.599436
L 233.468154 448.71585
L 233.194948 449.474708
L 232.969931 450.249223
L 232.79399 451.036339
L 232.667819 451.83295
L 232.591917 452.63591
L 232.566583 453.442052
L 232.591917 454.248195
L 232.667819 455.051155
L 232.79399 455.847766
L 232.969931 456.634882
L 233.194948 457.409397
L 233.468154 458.168255
L 233.78847 458.908461
L 234.154631 459.627094
L 234.565194 460.321317
L 280.252648 530.866031
L 280.705991 531.533105
L 281.200325 532.170396
L 281.733699 532.775391
L 282.304009 533.345701
L 282.909004 533.879076
L 283.546296 534.37341
L 284.21337 534.826753
L 284.907592 535.237315
L 285.626225 535.603477
L 286.366431 535.923792
L 287.125289 536.196998
L 387.201627 572.069755
L 387.976142 572.294773
L 388.763258 572.470714
L 389.559868 572.596885
L 390.362829 572.672787
L 391.168971 572.698121
L 391.975113 572.672787
L 392.778074 572.596885
L 393.574684 572.470714
L 394.3618 572.294773
L 395.136316 572.069755
L 395.895174 571.796549
L 396.63538 571.476234
L 397.354012 571.110072
L 398.048235 570.69951
L 493.897768 510.29851
L 494.564841 509.845167
L 495.202133 509.350833
L 495.807128 508.817458
L 496.377438 508.247148
L 496.910812 507.642153
L 497.405147 507.004862
L 497.858489 506.337788
L 498.269052 505.643565
L 498.635213 504.924933
L 498.955529 504.184727
L 499.228735 503.425869
L 499.453752 502.651353
L 499.629693 501.864237
L 499.755864 501.067627
L 499.831766 500.264666
z
" clip-path="url(#pc554e67f7a)" style="fill: #f59e0b; fill-opacity: 0.13; stroke: #d97706; stroke-opacity: 0.13; stroke-width: 0.8"/>
    <path d="M 522.785695 175.79358
L 522.811029 174.987438
L 522.785695 174.181296
L 522.709793 173.378335
L 522.583622 172.581725
L 522.407681 171.794609
L 522.182663 171.020094
L 521.909457 170.261235
L 521.589142 169.521029
L 521.22298 168.802397
L 520.812418 168.108174
L 520.359075 167.4411
L 519.864741 166.803809
L 519.331366 166.198814
L 518.761056 165.628504
L 518.156062 165.095129
L 517.51877 164.600795
L 516.851696 164.147452
L 516.157473 163.73689
L 515.438841 163.370729
L 514.698635 163.050413
L 513.939777 162.777207
L 513.165261 162.55219
L 512.378145 162.376248
L 511.581535 162.250078
L 510.778574 162.174176
L 509.972432 162.148842
L 509.16629 162.174176
L 508.363329 162.250078
L 507.566719 162.376248
L 506.779603 162.55219
L 506.005088 162.777207
L 505.24623 163.050413
L 504.506024 163.370729
L 321.009878 255.527406
L 320.291245 255.893567
L 319.597022 256.304129
L 318.929949 256.757472
L 318.292657 257.251806
L 317.687662 257.785181
L 317.117352 258.355491
L 316.583978 258.960486
L 316.089644 259.597777
L 172.640925 445.29327
L 172.187582 445.960344
L 171.77702 446.654567
L 171.410858 447.373199
L 171.090543 448.113405
L 170.817337 448.872263
L 170.592319 449.646779
L 170.416378 450.433895
L 170.290207 451.230505
L 170.214305 452.033466
L 170.188971 452.839608
L 170.214305 453.64575
L 170.290207 454.448711
L 170.416378 455.245321
L 170.592319 456.032437
L 170.817337 456.806952
L 171.090543 457.56581
L 171.410858 458.306016
L 171.77702 459.024649
L 172.187582 459.718872
L 172.640925 460.385946
L 173.135259 461.023237
L 173.668634 461.628232
L 174.238944 462.198542
L 174.843938 462.731916
L 175.48123 463.226251
L 176.148304 463.679593
L 176.842527 464.090156
L 384.98393 571.110072
L 385.702563 571.476234
L 386.442769 571.796549
L 387.201627 572.069755
L 387.976142 572.294773
L 388.763258 572.470714
L 389.559868 572.596885
L 390.362829 572.672787
L 391.168971 572.698121
L 391.975113 572.672787
L 392.778074 572.596885
L 393.574684 572.470714
L 394.3618 572.294773
L 395.136316 572.069755
L 395.895174 571.796549
L 396.63538 571.476234
L 397.354012 571.110072
L 398.048235 570.69951
L 398.715309 570.246167
L 399.352601 569.751833
L 399.957595 569.218458
L 400.527905 568.648148
L 507.862632 453.961382
L 508.396006 453.356388
L 508.89034 452.719096
L 509.343683 452.052022
L 509.754245 451.357799
L 510.120407 450.639167
L 510.440723 449.898961
L 510.713928 449.140103
L 510.938946 448.365587
L 511.114887 447.578471
L 511.241058 446.781861
L 511.31696 445.9789
z
" clip-path="url(#pc554e67f7a)" style="fill: #f59e0b; fill-opacity: 0.13; stroke: #d97706; stroke-opacity: 0.13; stroke-width: 0.8"/>
    <path d="M 380.613898 278.139253
L 241.472565 280.564182
L 240.666423 280.589516
L 239.863462 280.665418
L 239.066852 280.791589
L 238.279736 280.96753
L 237.505221 281.192548
L 236.746363 281.465753
L 236.006157 281.786069
L 235.287524 282.152231
L 234.593301 282.562793
L 233.926227 283.016136
L 233.288936 283.51047
L 232.683941 284.043845
L 232.113631 284.614154
L 231.580257 285.219149
L 231.085922 285.856441
L 230.63258 286.523515
L 175.039889 368.674693
L 174.629327 369.368916
L 174.263165 370.087548
L 173.942849 370.827754
L 173.669644 371.586612
L 173.444626 372.361127
L 173.268685 373.148243
L 173.142514 373.944854
L 173.066612 374.747814
L 173.041278 375.553957
L 173.066612 376.360099
L 173.142514 377.163059
L 173.268685 377.95967
L 198.813719 510.510211
L 198.98966 511.297327
L 199.214678 512.071842
L 199.487883 512.8307
L 199.808199 513.570906
L 200.174361 514.289539
L 200.584923 514.983762
L 201.038266 515.650835
L 201.5326 516.288127
L 202.065974 516.893122
L 202.636284 517.463432
L 203.241279 517.996806
L 203.878571 518.49114
L 204.545645 518.944483
L 205.239867 519.355046
L 205.9585 519.721207
L 206.698706 520.041523
L 207.457564 520.314729
L 269.183243 542.240545
L 269.957759 542.465562
L 270.744875 542.641504
L 271.541485 542.767674
L 451.973164 567.616905
L 452.776125 567.692807
L 453.582267 567.718141
L 454.388409 567.692807
L 455.19137 567.616905
L 455.98798 567.490734
L 456.775096 567.314793
L 457.549611 567.089776
L 458.308469 566.81657
L 459.048675 566.496254
L 459.767308 566.130093
L 460.461531 565.71953
L 461.128605 565.266187
L 461.765896 564.771853
L 462.370891 564.238479
L 462.941201 563.668169
L 463.474576 563.063174
L 463.96891 562.425882
L 464.422252 561.758809
L 464.832815 561.064586
L 465.198976 560.345953
L 465.519292 559.605747
L 465.792498 558.846889
L 466.017515 558.072374
L 466.193457 557.285258
L 466.319627 556.488647
L 466.395529 555.685687
L 466.420863 554.879545
L 466.395529 554.073402
L 466.319627 553.270442
L 466.193457 552.473832
L 423.706594 336.179509
L 423.530652 335.392392
L 423.305635 334.617877
L 423.032429 333.859019
L 422.712113 333.118813
L 422.345952 332.400181
L 421.935389 331.705958
L 391.453884 284.098586
L 391.000541 283.431512
L 390.506207 282.794221
L 389.972832 282.189226
L 389.402522 281.618916
L 388.797528 281.085541
L 388.160236 280.591207
L 387.493162 280.137864
L 386.798939 279.727302
L 386.080307 279.361141
L 385.340101 279.040825
L 384.581243 278.767619
L 383.806727 278.542602
L 383.019611 278.36666
L 382.223001 278.24049
L 381.42004 278.164588
z
" clip-path="url(#pc554e67f7a)" style="fill: #f59e0b; fill-opacity: 0.13; stroke: #d97706; stroke-opacity: 0.13; stroke-width: 0.8"/>
    <path d="M 170.214305 452.033466
L 170.188971 452.839608
L 170.214305 453.64575
L 170.290207 454.448711
L 170.416378 455.245321
L 170.592319 456.032437
L 170.817337 456.806952
L 171.090543 457.56581
L 171.410858 458.306016
L 171.77702 459.024649
L 200.174361 514.289539
L 200.584923 514.983762
L 201.038266 515.650835
L 201.5326 516.288127
L 202.065974 516.893122
L 202.636284 517.463432
L 388.690649 682.131496
L 389.295644 682.664871
L 389.932935 683.159205
L 390.600009 683.612548
L 391.294232 684.02311
L 392.012864 684.389271
L 392.75307 684.709587
L 393.511928 684.982793
L 394.286444 685.20781
L 395.07356 685.383752
L 395.87017 685.509922
L 396.673131 685.585824
L 397.479273 685.611158
L 398.285415 685.585824
L 399.088376 685.509922
L 399.884986 685.383752
L 400.672102 685.20781
L 401.446618 684.982793
L 402.205476 684.709587
L 402.945682 684.389271
L 403.664314 684.02311
L 404.358537 683.612548
L 405.025611 683.159205
L 405.662902 682.664871
L 406.267897 682.131496
L 406.838207 681.561186
L 407.371582 680.956191
L 407.865916 680.3189
L 408.319259 679.651826
L 408.729821 678.957603
L 409.095982 678.238971
L 409.416298 677.498765
L 409.689504 676.739906
L 409.914521 675.965391
L 410.090463 675.178275
L 410.216633 674.381665
L 410.292535 673.578704
L 410.31787 672.772562
L 410.292535 671.96642
L 410.216633 671.163459
L 372.586764 387.318462
L 372.460594 386.521852
L 372.284652 385.734736
L 338.911535 263.951286
L 338.686517 263.176771
L 338.413312 262.417912
L 338.092996 261.677707
L 337.726834 260.959074
L 337.316272 260.264851
L 336.862929 259.597777
L 336.368595 258.960486
L 335.83522 258.355491
L 335.264911 257.785181
L 334.659916 257.251806
L 334.022624 256.757472
L 333.35555 256.304129
L 332.661327 255.893567
L 331.942695 255.527406
L 331.202489 255.20709
L 330.443631 254.933884
L 329.669116 254.708867
L 328.882 254.532925
L 328.085389 254.406755
L 327.282429 254.330853
L 326.476286 254.305519
L 325.670144 254.330853
L 324.867184 254.406755
L 324.070573 254.532925
L 323.283457 254.708867
L 322.508942 254.933884
L 321.750084 255.20709
L 321.009878 255.527406
L 320.291245 255.893567
L 319.597022 256.304129
L 318.929949 256.757472
L 178.333537 365.167314
L 177.696245 365.661648
L 177.09125 366.195022
L 176.52094 366.765332
L 175.987566 367.370327
L 175.493232 368.007619
L 175.039889 368.674693
L 174.629327 369.368916
L 174.263165 370.087548
L 173.942849 370.827754
L 173.669644 371.586612
L 173.444626 372.361127
L 173.268685 373.148243
L 173.142514 373.944854
L 173.066612 374.747814
z
" clip-path="url(#pc554e67f7a)" style="fill: #f59e0b; fill-opacity: 0.13; stroke: #d97706; stroke-opacity: 0.13; stroke-width: 0.8"/>
    <path d="M 262.763945 537.576652
L 309.400787 600.356641
L 309.895121 600.993932
L 310.428495 601.598927
L 388.120339 681.561186
L 388.690649 682.131496
L 389.295644 682.664871
L 389.932935 683.159205
L 390.600009 683.612548
L 391.294232 684.02311
L 392.012864 684.389271
L 392.75307 684.709587
L 393.511928 684.982793
L 394.286444 685.20781
L 395.07356 685.383752
L 395.87017 685.509922
L 396.673131 685.585824
L 397.479273 685.611158
L 398.285415 685.585824
L 399.088376 685.509922
L 399.884986 685.383752
L 400.672102 685.20781
L 401.446618 684.982793
L 402.205476 684.709587
L 402.945682 684.389271
L 403.664314 684.02311
L 404.358537 683.612548
L 405.025611 683.159205
L 405.662902 682.664871
L 406.267897 682.131496
L 406.838207 681.561186
L 407.371582 680.956191
L 407.865916 680.3189
L 408.319259 679.651826
L 408.729821 678.957603
L 498.269052 505.643565
L 498.635213 504.924933
L 498.955529 504.184727
L 499.228735 503.425869
L 499.453752 502.651353
L 499.629693 501.864237
L 511.114887 447.578471
L 511.241058 446.781861
L 511.31696 445.9789
L 511.342294 445.172758
L 511.31696 444.366616
L 511.241058 443.563656
L 511.114887 442.767045
L 510.938946 441.979929
L 510.713928 441.205414
L 510.440723 440.446556
L 510.120407 439.70635
L 509.754245 438.987717
L 509.343683 438.293494
L 508.89034 437.626421
L 508.396006 436.989129
L 507.862632 436.384134
L 507.292322 435.813824
L 506.687327 435.28045
L 506.050035 434.786116
L 505.382962 434.332773
L 504.688739 433.92221
L 503.970106 433.556049
L 503.2299 433.235733
L 502.471042 432.962527
L 501.696527 432.73751
L 500.909411 432.561569
L 500.1128 432.435398
L 499.30984 432.359496
L 498.503698 432.334162
L 497.697555 432.359496
L 336.366118 444.854243
L 335.563158 444.930145
L 334.766547 445.056316
L 333.979431 445.232257
L 333.204916 445.457275
L 332.446058 445.73048
L 331.705852 446.050796
L 330.987219 446.416958
L 330.292996 446.82752
L 329.625923 447.280863
L 328.988631 447.775197
L 328.383636 448.308572
L 327.813326 448.878881
L 263.791654 521.24169
L 263.258279 521.846684
L 262.763945 522.483976
L 262.310602 523.15105
L 261.90004 523.845273
L 261.533878 524.563905
L 261.213563 525.304111
L 260.940357 526.062969
L 260.715339 526.837485
L 260.539398 527.624601
L 260.413228 528.421211
L 260.337325 529.224172
L 260.311991 530.030314
L 260.337325 530.836456
L 260.413228 531.639417
L 260.539398 532.436027
L 260.715339 533.223143
L 260.940357 533.997658
L 261.213563 534.756516
L 261.533878 535.496722
L 261.90004 536.215355
L 262.310602 536.909578
z
" clip-path="url(#pc554e67f7a)" style="fill: #f59e0b; fill-opacity: 0.13; stroke: #d97706; stroke-opacity: 0.13; stroke-width: 0.8"/>
    <path d="M 173.668634 461.628232
L 388.120339 681.561186
L 388.690649 682.131496
L 389.295644 682.664871
L 389.932935 683.159205
L 390.600009 683.612548
L 391.294232 684.02311
L 392.012864 684.389271
L 392.75307 684.709587
L 393.511928 684.982793
L 394.286444 685.20781
L 395.07356 685.383752
L 395.87017 685.509922
L 396.673131 685.585824
L 397.479273 685.611158
L 398.285415 685.585824
L 399.088376 685.509922
L 399.884986 685.383752
L 400.672102 685.20781
L 401.446618 684.982793
L 402.205476 684.709587
L 402.945682 684.389271
L 403.664314 684.02311
L 404.358537 683.612548
L 405.025611 683.159205
L 405.662902 682.664871
L 406.267897 682.131496
L 406.838207 681.561186
L 407.371582 680.956191
L 407.865916 680.3189
L 408.319259 679.651826
L 408.729821 678.957603
L 409.095982 678.238971
L 465.198976 560.345953
L 465.519292 559.605747
L 510.440723 449.898961
L 510.713928 449.140103
L 510.938946 448.365587
L 511.114887 447.578471
L 511.241058 446.781861
L 511.31696 445.9789
L 511.342294 445.172758
L 511.31696 444.366616
L 511.241058 443.563656
L 511.114887 442.767045
L 510.938946 441.979929
L 510.713928 441.205414
L 489.084089 367.774226
L 488.810883 367.015367
L 488.490567 366.275162
L 488.124406 365.556529
L 487.713844 364.862306
L 487.260501 364.195232
L 486.766167 363.557941
L 486.232792 362.952946
L 485.662482 362.382636
L 485.057487 361.849261
L 388.797528 281.085541
L 388.160236 280.591207
L 387.493162 280.137864
L 386.798939 279.727302
L 386.080307 279.361141
L 385.340101 279.040825
L 384.581243 278.767619
L 383.806727 278.542602
L 383.019611 278.36666
L 382.223001 278.24049
L 381.42004 278.164588
L 380.613898 278.139253
L 379.807756 278.164588
L 379.004795 278.24049
L 378.208185 278.36666
L 377.421069 278.542602
L 376.646554 278.767619
L 375.887696 279.040825
L 375.14749 279.361141
L 374.428857 279.727302
L 373.734634 280.137864
L 373.06756 280.591207
L 372.430269 281.085541
L 174.843938 442.947299
L 174.238944 443.480674
L 173.668634 444.050984
L 173.135259 444.655978
L 172.640925 445.29327
L 172.187582 445.960344
L 171.77702 446.654567
L 171.410858 447.373199
L 171.090543 448.113405
L 170.817337 448.872263
L 170.592319 449.646779
L 170.416378 450.433895
L 170.290207 451.230505
L 170.214305 452.033466
L 170.188971 452.839608
L 170.214305 453.64575
L 170.290207 454.448711
L 170.416378 455.245321
L 170.592319 456.032437
L 170.817337 456.806952
L 171.090543 457.56581
L 171.410858 458.306016
L 171.77702 459.024649
L 172.187582 459.718872
L 172.640925 460.385946
L 173.135259 461.023237
z
" clip-path="url(#pc554e67f7a)" style="fill: #f59e0b; fill-opacity: 0.13; stroke: #d97706; stroke-opacity: 0.13; stroke-width: 0.8"/>
   </g>
   <g id="LineCollection_1"/>
   <g id="PathCollection_1">
    <defs>
     <path id="m82c9e98f7c" d="M 0 6
C 1.591219 6 3.117479 5.367802 4.242641 4.242641
C 5.367802 3.117479 6 1.591219 6 0
C 6 -1.591219 5.367802 -3.117479 4.242641 -4.242641
C 3.117479 -5.367802 1.591219 -6 0 -6
C -1.591219 -6 -3.117479 -5.367802 -4.242641 -4.242641
C -5.367802 -3.117479 -6 -1.591219 -6 0
C -6 1.591219 -5.367802 3.117479 -4.242641 4.242641
C -3.117479 5.367802 -1.591219 6 0 6
z
" style="stroke: #334155; stroke-width: 0.8"/>
    </defs>
    <g clip-path="url(#pc554e67f7a)">
     <use xlink:href="#m82c9e98f7c" x="291.092634" y="523.986767" style="fill: #38bdf8; stroke: #334155; stroke-width: 0.8"/>
     <use xlink:href="#m82c9e98f7c" x="301.775317" y="319.325638" style="fill: #38bdf8; stroke: #334155; stroke-width: 0.8"/>
     <use xlink:href="#m82c9e98f7c" x="319.787429" y="592.810303" style="fill: #38bdf8; stroke: #334155; stroke-width: 0.8"/>
     <use xlink:href="#m82c9e98f7c" x="419.067791" y="463.164643" style="fill: #38bdf8; stroke: #334155; stroke-width: 0.8"/>
     <use xlink:href="#m82c9e98f7c" x="397.479273" y="672.772562" style="fill: #38bdf8; stroke: #334155; stroke-width: 0.8"/>
     <use xlink:href="#m82c9e98f7c" x="247.295582" y="377.566919" style="fill: #38bdf8; stroke: #334155; stroke-width: 0.8"/>
     <use xlink:href="#m82c9e98f7c" x="318.001444" y="344.634361" style="fill: #38bdf8; stroke: #334155; stroke-width: 0.8"/>
     <use xlink:href="#m82c9e98f7c" x="359.532994" y="388.903948" style="fill: #38bdf8; stroke: #334155; stroke-width: 0.8"/>
     <use xlink:href="#m82c9e98f7c" x="245.405179" y="453.442052" style="fill: #38bdf8; stroke: #334155; stroke-width: 0.8"/>
     <use xlink:href="#m82c9e98f7c" x="359.641081" y="504.858435" style="fill: #38bdf8; stroke: #334155; stroke-width: 0.8"/>
     <use xlink:href="#m82c9e98f7c" x="411.095404" y="338.585222" style="fill: #38bdf8; stroke: #334155; stroke-width: 0.8"/>
     <use xlink:href="#m82c9e98f7c" x="211.424909" y="508.104498" style="fill: #38bdf8; stroke: #334155; stroke-width: 0.8"/>
     <use xlink:href="#m82c9e98f7c" x="391.168971" y="559.859524" style="fill: #38bdf8; stroke: #334155; stroke-width: 0.8"/>
     <use xlink:href="#m82c9e98f7c" x="183.027568" y="452.839608" style="fill: #38bdf8; stroke: #334155; stroke-width: 0.8"/>
     <use xlink:href="#m82c9e98f7c" x="417.549228" y="336.41484" style="fill: #38bdf8; stroke: #334155; stroke-width: 0.8"/>
     <use xlink:href="#m82c9e98f7c" x="250.615207" y="383.571758" style="fill: #38bdf8; stroke: #334155; stroke-width: 0.8"/>
     <use xlink:href="#m82c9e98f7c" x="337.17226" y="457.667506" style="fill: #38bdf8; stroke: #334155; stroke-width: 0.8"/>
     <use xlink:href="#m82c9e98f7c" x="359.849404" y="388.927565" style="fill: #38bdf8; stroke: #334155; stroke-width: 0.8"/>
     <use xlink:href="#m82c9e98f7c" x="419.866674" y="460.149795" style="fill: #38bdf8; stroke: #334155; stroke-width: 0.8"/>
     <use xlink:href="#m82c9e98f7c" x="380.613898" y="290.97785" style="fill: #38bdf8; stroke: #334155; stroke-width: 0.8"/>
     <use xlink:href="#m82c9e98f7c" x="273.150588" y="530.030314" style="fill: #38bdf8; stroke: #334155; stroke-width: 0.8"/>
     <use xlink:href="#m82c9e98f7c" x="429.207358" y="462.471446" style="fill: #38bdf8; stroke: #334155; stroke-width: 0.8"/>
     <use xlink:href="#m82c9e98f7c" x="464.0488" y="385.194036" style="fill: #38bdf8; stroke: #334155; stroke-width: 0.8"/>
     <use xlink:href="#m82c9e98f7c" x="387.249598" y="549.186867" style="fill: #38bdf8; stroke: #334155; stroke-width: 0.8"/>
     <use xlink:href="#m82c9e98f7c" x="288.128874" y="427.825586" style="fill: #38bdf8; stroke: #334155; stroke-width: 0.8"/>
     <use xlink:href="#m82c9e98f7c" x="241.472565" y="293.402779" style="fill: #38bdf8; stroke: #334155; stroke-width: 0.8"/>
     <use xlink:href="#m82c9e98f7c" x="289.969503" y="524.205796" style="fill: #38bdf8; stroke: #334155; stroke-width: 0.8"/>
     <use xlink:href="#m82c9e98f7c" x="453.582267" y="554.879545" style="fill: #38bdf8; stroke: #334155; stroke-width: 0.8"/>
     <use xlink:href="#m82c9e98f7c" x="185.879874" y="375.553957" style="fill: #38bdf8; stroke: #334155; stroke-width: 0.8"/>
     <use xlink:href="#m82c9e98f7c" x="326.476286" y="267.144115" style="fill: #38bdf8; stroke: #334155; stroke-width: 0.8"/>
     <use xlink:href="#m82c9e98f7c" x="476.873858" y="371.74157" style="fill: #38bdf8; stroke: #334155; stroke-width: 0.8"/>
     <use xlink:href="#m82c9e98f7c" x="498.503698" y="445.172758" style="fill: #38bdf8; stroke: #334155; stroke-width: 0.8"/>
     <use xlink:href="#m82c9e98f7c" x="487.018504" y="499.458524" style="fill: #38bdf8; stroke: #334155; stroke-width: 0.8"/>
     <use xlink:href="#m82c9e98f7c" x="509.972432" y="174.987438" style="fill: #38bdf8; stroke: #334155; stroke-width: 0.8"/>
    </g>
   </g>
   <g id="text_2">
    <g clip-path="url(#pc554e67f7a)">
     <text style="font-size: 8.2px; font-family: 'DejaVu Sans', 'Bitstream Vera Sans', 'Computer Modern Sans Serif', 'Lucida Grande', 'Verdana', 'Geneva', 'Lucid', 'Arial', 'Helvetica', 'Avant Garde', sans-serif; text-anchor: middle; fill: #111827" x="318.001444" y="346.897049" transform="rotate(-0 318.001444 346.897049)">fair</text>
    </g>
   </g>
   <g id="text_3">
    <g clip-path="url(#pc554e67f7a)">
     <text style="font-size: 8.2px; font-family: 'DejaVu Sans', 'Bitstream Vera Sans', 'Computer Modern Sans Serif', 'Lucida Grande', 'Verdana', 'Geneva', 'Lucid', 'Arial', 'Helvetica', 'Avant Garde', sans-serif; text-anchor: middle; fill: #111827" x="429.207358" y="464.734133" transform="rotate(-0 429.207358 464.734133)">sacred</text>
    </g>
   </g>
   <g id="text_4">
    <g clip-path="url(#pc554e67f7a)">
     <text style="font-size: 8.2px; font-family: 'DejaVu Sans', 'Bitstream Vera Sans', 'Computer Modern Sans Serif', 'Lucida Grande', 'Verdana', 'Geneva', 'Lucid', 'Arial', 'Helvetica', 'Avant Garde', sans-serif; text-anchor: middle; fill: #111827" x="337.17226" y="459.930193" transform="rotate(-0 337.17226 459.930193)">long</text>
    </g>
   </g>
   <g id="text_5">
    <g clip-path="url(#pc554e67f7a)">
     <text style="font-size: 8.2px; font-family: 'DejaVu Sans', 'Bitstream Vera Sans', 'Computer Modern Sans Serif', 'Lucida Grande', 'Verdana', 'Geneva', 'Lucid', 'Arial', 'Helvetica', 'Avant Garde', sans-serif; text-anchor: middle; fill: #111827" x="476.873858" y="374.004258" transform="rotate(-0 476.873858 374.004258)">high</text>
    </g>
   </g>
   <g id="text_6">
    <g clip-path="url(#pc554e67f7a)">
     <text style="font-size: 8.2px; font-family: 'DejaVu Sans', 'Bitstream Vera Sans', 'Computer Modern Sans Serif', 'Lucida Grande', 'Verdana', 'Geneva', 'Lucid', 'Arial', 'Helvetica', 'Avant Garde', sans-serif; text-anchor: middle; fill: #111827" x="301.775317" y="321.588326" transform="rotate(-0 301.775317 321.588326)">brave</text>
    </g>
   </g>
   <g id="text_7">
    <g clip-path="url(#pc554e67f7a)">
     <text style="font-size: 8.2px; font-family: 'DejaVu Sans', 'Bitstream Vera Sans', 'Computer Modern Sans Serif', 'Lucida Grande', 'Verdana', 'Geneva', 'Lucid', 'Arial', 'Helvetica', 'Avant Garde', sans-serif; text-anchor: middle; fill: #111827" x="411.095404" y="340.847909" transform="rotate(-0 411.095404 340.847909)">good</text>
    </g>
   </g>
   <g id="text_8">
    <g clip-path="url(#pc554e67f7a)">
     <text style="font-size: 8.2px; font-family: 'DejaVu Sans', 'Bitstream Vera Sans', 'Computer Modern Sans Serif', 'Lucida Grande', 'Verdana', 'Geneva', 'Lucid', 'Arial', 'Helvetica', 'Avant Garde', sans-serif; text-anchor: middle; fill: #111827" x="247.295582" y="379.829606" transform="rotate(-0 247.295582 379.829606)">divine</text>
    </g>
   </g>
   <g id="text_9">
    <g clip-path="url(#pc554e67f7a)">
     <text style="font-size: 8.2px; font-family: 'DejaVu Sans', 'Bitstream Vera Sans', 'Computer Modern Sans Serif', 'Lucida Grande', 'Verdana', 'Geneva', 'Lucid', 'Arial', 'Helvetica', 'Avant Garde', sans-serif; text-anchor: middle; fill: #111827" x="419.067791" y="465.42733" transform="rotate(-0 419.067791 465.42733)">bright</text>
    </g>
   </g>
   <g id="text_10">
    <g clip-path="url(#pc554e67f7a)">
     <text style="font-size: 8.2px; font-family: 'DejaVu Sans', 'Bitstream Vera Sans', 'Computer Modern Sans Serif', 'Lucida Grande', 'Verdana', 'Geneva', 'Lucid', 'Arial', 'Helvetica', 'Avant Garde', sans-serif; text-anchor: middle; fill: #111827" x="419.866674" y="462.412482" transform="rotate(-0 419.866674 462.412482)">old</text>
    </g>
   </g>
   <g id="text_11">
    <g clip-path="url(#pc554e67f7a)">
     <text style="font-size: 8.2px; font-family: 'DejaVu Sans', 'Bitstream Vera Sans', 'Computer Modern Sans Serif', 'Lucida Grande', 'Verdana', 'Geneva', 'Lucid', 'Arial', 'Helvetica', 'Avant Garde', sans-serif; text-anchor: middle; fill: #111827" x="288.128874" y="430.088273" transform="rotate(-0 288.128874 430.088273)">wise</text>
    </g>
   </g>
   <g id="text_12">
    <g clip-path="url(#pc554e67f7a)">
     <text style="font-size: 8.2px; font-family: 'DejaVu Sans', 'Bitstream Vera Sans', 'Computer Modern Sans Serif', 'Lucida Grande', 'Verdana', 'Geneva', 'Lucid', 'Arial', 'Helvetica', 'Avant Garde', sans-serif; text-anchor: middle; fill: #111827" x="326.476286" y="269.406803" transform="rotate(-0 326.476286 269.406803)">prudent</text>
    </g>
   </g>
   <g id="text_13">
    <g clip-path="url(#pc554e67f7a)">
     <text style="font-size: 8.2px; font-family: 'DejaVu Sans', 'Bitstream Vera Sans', 'Computer Modern Sans Serif', 'Lucida Grande', 'Verdana', 'Geneva', 'Lucid', 'Arial', 'Helvetica', 'Avant Garde', sans-serif; text-anchor: middle; fill: #111827" x="359.532994" y="391.166635" transform="rotate(-0 359.532994 391.166635)">godlike</text>
    </g>
   </g>
   <g id="text_14">
    <g clip-path="url(#pc554e67f7a)">
     <text style="font-size: 8.2px; font-family: 'DejaVu Sans', 'Bitstream Vera Sans', 'Computer Modern Sans Serif', 'Lucida Grande', 'Verdana', 'Geneva', 'Lucid', 'Arial', 'Helvetica', 'Avant Garde', sans-serif; text-anchor: middle; fill: #111827" x="289.969503" y="526.468484" transform="rotate(-0 289.969503 526.468484)">glad</text>
    </g>
   </g>
   <g id="text_15">
    <g clip-path="url(#pc554e67f7a)">
     <text style="font-size: 8.2px; font-family: 'DejaVu Sans', 'Bitstream Vera Sans', 'Computer Modern Sans Serif', 'Lucida Grande', 'Verdana', 'Geneva', 'Lucid', 'Arial', 'Helvetica', 'Avant Garde', sans-serif; text-anchor: middle; fill: #111827" x="387.249598" y="551.449555" transform="rotate(-0 387.249598 551.449555)">wide</text>
    </g>
   </g>
   <g id="text_16">
    <g clip-path="url(#pc554e67f7a)">
     <text style="font-size: 8.2px; font-family: 'DejaVu Sans', 'Bitstream Vera Sans', 'Computer Modern Sans Serif', 'Lucida Grande', 'Verdana', 'Geneva', 'Lucid', 'Arial', 'Helvetica', 'Avant Garde', sans-serif; text-anchor: middle; fill: #111827" x="359.849404" y="391.190252" transform="rotate(-0 359.849404 391.190252)">noble</text>
    </g>
   </g>
   <g id="text_17">
    <g clip-path="url(#pc554e67f7a)">
     <text style="font-size: 8.2px; font-family: 'DejaVu Sans', 'Bitstream Vera Sans', 'Computer Modern Sans Serif', 'Lucida Grande', 'Verdana', 'Geneva', 'Lucid', 'Arial', 'Helvetica', 'Avant Garde', sans-serif; text-anchor: middle; fill: #111827" x="397.479273" y="675.035249" transform="rotate(-0 397.479273 675.035249)">deep</text>
    </g>
   </g>
  </g>
  <g id="axes_2">
   <g id="LineCollection_2">
    <path d="M 1104.403088 313.617961
L 970.347361 391.758396
" clip-path="url(#p26d755cbce)" style="fill: none; stroke: #64748b; stroke-width: 0.65"/>
    <path d="M 900.938301 369.068268
L 970.347361 391.758396
" clip-path="url(#p26d755cbce)" style="fill: none; stroke: #64748b; stroke-width: 0.65"/>
    <path d="M 971.081807 570.648306
L 970.347361 391.758396
" clip-path="url(#p26d755cbce)" style="fill: none; stroke: #64748b; stroke-width: 0.65"/>
    <path d="M 948.787609 470.144189
L 970.347361 391.758396
" clip-path="url(#p26d755cbce)" style="fill: none; stroke: #64748b; stroke-width: 0.65"/>
    <path d="M 1083.559866 229.87361
L 970.347361 391.758396
" clip-path="url(#p26d755cbce)" style="fill: none; stroke: #64748b; stroke-width: 0.65"/>
    <path d="M 1150.137553 391.898269
L 970.347361 391.758396
" clip-path="url(#p26d755cbce)" style="fill: none; stroke: #64748b; stroke-width: 0.65"/>
    <path d="M 900.046421 318.37416
L 970.347361 391.758396
" clip-path="url(#p26d755cbce)" style="fill: none; stroke: #64748b; stroke-width: 0.65"/>
    <path d="M 1072.099749 290.772584
L 970.347361 391.758396
" clip-path="url(#p26d755cbce)" style="fill: none; stroke: #64748b; stroke-width: 0.65"/>
    <path d="M 1139.514597 339.562571
L 970.347361 391.758396
" clip-path="url(#p26d755cbce)" style="fill: none; stroke: #64748b; stroke-width: 0.65"/>
    <path d="M 818.858681 346.488882
L 970.347361 391.758396
" clip-path="url(#p26d755cbce)" style="fill: none; stroke: #64748b; stroke-width: 0.65"/>
    <path d="M 1039.943605 482.793655
L 970.347361 391.758396
" clip-path="url(#p26d755cbce)" style="fill: none; stroke: #64748b; stroke-width: 0.65"/>
    <path d="M 912.784794 466.846392
L 970.347361 391.758396
" clip-path="url(#p26d755cbce)" style="fill: none; stroke: #64748b; stroke-width: 0.65"/>
    <path d="M 755.486777 474.391728
L 970.347361 391.758396
" clip-path="url(#p26d755cbce)" style="fill: none; stroke: #64748b; stroke-width: 0.65"/>
    <path d="M 847.354568 305.760317
L 970.347361 391.758396
" clip-path="url(#p26d755cbce)" style="fill: none; stroke: #64748b; stroke-width: 0.65"/>
    <path d="M 1111.48412 478.985901
L 970.347361 391.758396
" clip-path="url(#p26d755cbce)" style="fill: none; stroke: #64748b; stroke-width: 0.65"/>
    <path d="M 896.370843 411.456845
L 970.347361 391.758396
" clip-path="url(#p26d755cbce)" style="fill: none; stroke: #64748b; stroke-width: 0.65"/>
    <path d="M 1135.831111 441.821825
L 970.347361 391.758396
" clip-path="url(#p26d755cbce)" style="fill: none; stroke: #64748b; stroke-width: 0.65"/>
    <path d="M 869.130212 458.18441
L 970.347361 391.758396
" clip-path="url(#p26d755cbce)" style="fill: none; stroke: #64748b; stroke-width: 0.65"/>
    <path d="M 913.773524 272.4455
L 970.347361 391.758396
" clip-path="url(#p26d755cbce)" style="fill: none; stroke: #64748b; stroke-width: 0.65"/>
    <path d="M 1109.25442 396.885854
L 970.347361 391.758396
" clip-path="url(#p26d755cbce)" style="fill: none; stroke: #64748b; stroke-width: 0.65"/>
    <path d="M 954.552797 214.666776
L 970.347361 391.758396
" clip-path="url(#p26d755cbce)" style="fill: none; stroke: #64748b; stroke-width: 0.65"/>
    <path d="M 1025.093903 538.727084
L 970.347361 391.758396
" clip-path="url(#p26d755cbce)" style="fill: none; stroke: #64748b; stroke-width: 0.65"/>
    <path d="M 1025.809809 231.212315
L 970.347361 391.758396
" clip-path="url(#p26d755cbce)" style="fill: none; stroke: #64748b; stroke-width: 0.65"/>
    <path d="M 882.202422 522.256548
L 970.347361 391.758396
" clip-path="url(#p26d755cbce)" style="fill: none; stroke: #64748b; stroke-width: 0.65"/>
    <path d="M 980.036063 521.808971
L 970.347361 391.758396
" clip-path="url(#p26d755cbce)" style="fill: none; stroke: #64748b; stroke-width: 0.65"/>
    <path d="M 1104.403088 313.617961
L 1005.757122 282.906919
" clip-path="url(#p26d755cbce)" style="fill: none; stroke: #64748b; stroke-width: 0.65"/>
    <path d="M 948.787609 470.144189
L 1005.757122 282.906919
" clip-path="url(#p26d755cbce)" style="fill: none; stroke: #64748b; stroke-width: 0.65"/>
    <path d="M 1083.559866 229.87361
L 1005.757122 282.906919
" clip-path="url(#p26d755cbce)" style="fill: none; stroke: #64748b; stroke-width: 0.65"/>
    <path d="M 1150.137553 391.898269
L 1005.757122 282.906919
" clip-path="url(#p26d755cbce)" style="fill: none; stroke: #64748b; stroke-width: 0.65"/>
    <path d="M 1025.809809 231.212315
L 1005.757122 282.906919
" clip-path="url(#p26d755cbce)" style="fill: none; stroke: #64748b; stroke-width: 0.65"/>
    <path d="M 900.046421 318.37416
L 1005.757122 282.906919
" clip-path="url(#p26d755cbce)" style="fill: none; stroke: #64748b; stroke-width: 0.65"/>
    <path d="M 1072.099749 290.772584
L 1005.757122 282.906919
" clip-path="url(#p26d755cbce)" style="fill: none; stroke: #64748b; stroke-width: 0.65"/>
    <path d="M 1196.099506 338.407093
L 1005.757122 282.906919
" clip-path="url(#p26d755cbce)" style="fill: none; stroke: #64748b; stroke-width: 0.65"/>
    <path d="M 1039.943605 482.793655
L 1005.757122 282.906919
" clip-path="url(#p26d755cbce)" style="fill: none; stroke: #64748b; stroke-width: 0.65"/>
    <path d="M 815.342661 438.938671
L 1005.757122 282.906919
" clip-path="url(#p26d755cbce)" style="fill: none; stroke: #64748b; stroke-width: 0.65"/>
    <path d="M 847.354568 305.760317
L 1005.757122 282.906919
" clip-path="url(#p26d755cbce)" style="fill: none; stroke: #64748b; stroke-width: 0.65"/>
    <path d="M 896.370843 411.456845
L 1005.757122 282.906919
" clip-path="url(#p26d755cbce)" style="fill: none; stroke: #64748b; stroke-width: 0.65"/>
    <path d="M 954.552797 214.666776
L 1005.757122 282.906919
" clip-path="url(#p26d755cbce)" style="fill: none; stroke: #64748b; stroke-width: 0.65"/>
    <path d="M 882.391306 237.530773
L 1005.757122 282.906919
" clip-path="url(#p26d755cbce)" style="fill: none; stroke: #64748b; stroke-width: 0.65"/>
    <path d="M 1017.783798 176.946239
L 1005.757122 282.906919
" clip-path="url(#p26d755cbce)" style="fill: none; stroke: #64748b; stroke-width: 0.65"/>
    <path d="M 1109.25442 396.885854
L 1005.757122 282.906919
" clip-path="url(#p26d755cbce)" style="fill: none; stroke: #64748b; stroke-width: 0.65"/>
    <path d="M 980.036063 521.808971
L 1005.757122 282.906919
" clip-path="url(#p26d755cbce)" style="fill: none; stroke: #64748b; stroke-width: 0.65"/>
    <path d="M 1104.403088 313.617961
L 980.113321 322.669581
" clip-path="url(#p26d755cbce)" style="fill: none; stroke: #64748b; stroke-width: 0.65"/>
    <path d="M 971.081807 570.648306
L 980.113321 322.669581
" clip-path="url(#p26d755cbce)" style="fill: none; stroke: #64748b; stroke-width: 0.65"/>
    <path d="M 948.787609 470.144189
L 980.113321 322.669581
" clip-path="url(#p26d755cbce)" style="fill: none; stroke: #64748b; stroke-width: 0.65"/>
    <path d="M 1083.559866 229.87361
L 980.113321 322.669581
" clip-path="url(#p26d755cbce)" style="fill: none; stroke: #64748b; stroke-width: 0.65"/>
    <path d="M 1154.81836 270.088748
L 980.113321 322.669581
" clip-path="url(#p26d755cbce)" style="fill: none; stroke: #64748b; stroke-width: 0.65"/>
    <path d="M 1072.099749 290.772584
L 980.113321 322.669581
" clip-path="url(#p26d755cbce)" style="fill: none; stroke: #64748b; stroke-width: 0.65"/>
    <path d="M 1039.943605 482.793655
L 980.113321 322.669581
" clip-path="url(#p26d755cbce)" style="fill: none; stroke: #64748b; stroke-width: 0.65"/>
    <path d="M 912.784794 466.846392
L 980.113321 322.669581
" clip-path="url(#p26d755cbce)" style="fill: none; stroke: #64748b; stroke-width: 0.65"/>
    <path d="M 755.486777 474.391728
L 980.113321 322.669581
" clip-path="url(#p26d755cbce)" style="fill: none; stroke: #64748b; stroke-width: 0.65"/>
    <path d="M 847.354568 305.760317
L 980.113321 322.669581
" clip-path="url(#p26d755cbce)" style="fill: none; stroke: #64748b; stroke-width: 0.65"/>
    <path d="M 1135.831111 441.821825
L 980.113321 322.669581
" clip-path="url(#p26d755cbce)" style="fill: none; stroke: #64748b; stroke-width: 0.65"/>
    <path d="M 913.773524 272.4455
L 980.113321 322.669581
" clip-path="url(#p26d755cbce)" style="fill: none; stroke: #64748b; stroke-width: 0.65"/>
    <path d="M 954.552797 214.666776
L 980.113321 322.669581
" clip-path="url(#p26d755cbce)" style="fill: none; stroke: #64748b; stroke-width: 0.65"/>
    <path d="M 882.391306 237.530773
L 980.113321 322.669581
" clip-path="url(#p26d755cbce)" style="fill: none; stroke: #64748b; stroke-width: 0.65"/>
    <path d="M 1017.783798 176.946239
L 980.113321 322.669581
" clip-path="url(#p26d755cbce)" style="fill: none; stroke: #64748b; stroke-width: 0.65"/>
    <path d="M 1109.25442 396.885854
L 980.113321 322.669581
" clip-path="url(#p26d755cbce)" style="fill: none; stroke: #64748b; stroke-width: 0.65"/>
    <path d="M 971.081807 570.648306
L 874.803636 670.813761
" clip-path="url(#p26d755cbce)" style="fill: none; stroke: #64748b; stroke-width: 0.65"/>
    <path d="M 1065.392542 551.587179
L 874.803636 670.813761
" clip-path="url(#p26d755cbce)" style="fill: none; stroke: #64748b; stroke-width: 0.65"/>
    <path d="M 948.787609 470.144189
L 874.803636 670.813761
" clip-path="url(#p26d755cbce)" style="fill: none; stroke: #64748b; stroke-width: 0.65"/>
    <path d="M 980.036063 521.808971
L 874.803636 670.813761
" clip-path="url(#p26d755cbce)" style="fill: none; stroke: #64748b; stroke-width: 0.65"/>
    <path d="M 854.162411 502.431116
L 874.803636 670.813761
" clip-path="url(#p26d755cbce)" style="fill: none; stroke: #64748b; stroke-width: 0.65"/>
    <path d="M 1025.093903 538.727084
L 874.803636 670.813761
" clip-path="url(#p26d755cbce)" style="fill: none; stroke: #64748b; stroke-width: 0.65"/>
    <path d="M 1039.943605 482.793655
L 874.803636 670.813761
" clip-path="url(#p26d755cbce)" style="fill: none; stroke: #64748b; stroke-width: 0.65"/>
    <path d="M 815.342661 438.938671
L 874.803636 670.813761
" clip-path="url(#p26d755cbce)" style="fill: none; stroke: #64748b; stroke-width: 0.65"/>
    <path d="M 755.486777 474.391728
L 874.803636 670.813761
" clip-path="url(#p26d755cbce)" style="fill: none; stroke: #64748b; stroke-width: 0.65"/>
    <path d="M 971.081807 570.648306
L 991.788726 376.381714
" clip-path="url(#p26d755cbce)" style="fill: none; stroke: #64748b; stroke-width: 0.65"/>
    <path d="M 948.787609 470.144189
L 991.788726 376.381714
" clip-path="url(#p26d755cbce)" style="fill: none; stroke: #64748b; stroke-width: 0.65"/>
    <path d="M 1083.559866 229.87361
L 991.788726 376.381714
" clip-path="url(#p26d755cbce)" style="fill: none; stroke: #64748b; stroke-width: 0.65"/>
    <path d="M 1150.137553 391.898269
L 991.788726 376.381714
" clip-path="url(#p26d755cbce)" style="fill: none; stroke: #64748b; stroke-width: 0.65"/>
    <path d="M 900.046421 318.37416
L 991.788726 376.381714
" clip-path="url(#p26d755cbce)" style="fill: none; stroke: #64748b; stroke-width: 0.65"/>
    <path d="M 1154.81836 270.088748
L 991.788726 376.381714
" clip-path="url(#p26d755cbce)" style="fill: none; stroke: #64748b; stroke-width: 0.65"/>
    <path d="M 1196.099506 338.407093
L 991.788726 376.381714
" clip-path="url(#p26d755cbce)" style="fill: none; stroke: #64748b; stroke-width: 0.65"/>
    <path d="M 818.858681 346.488882
L 991.788726 376.381714
" clip-path="url(#p26d755cbce)" style="fill: none; stroke: #64748b; stroke-width: 0.65"/>
    <path d="M 912.784794 466.846392
L 991.788726 376.381714
" clip-path="url(#p26d755cbce)" style="fill: none; stroke: #64748b; stroke-width: 0.65"/>
    <path d="M 896.370843 411.456845
L 991.788726 376.381714
" clip-path="url(#p26d755cbce)" style="fill: none; stroke: #64748b; stroke-width: 0.65"/>
    <path d="M 1135.831111 441.821825
L 991.788726 376.381714
" clip-path="url(#p26d755cbce)" style="fill: none; stroke: #64748b; stroke-width: 0.65"/>
    <path d="M 869.130212 458.18441
L 991.788726 376.381714
" clip-path="url(#p26d755cbce)" style="fill: none; stroke: #64748b; stroke-width: 0.65"/>
    <path d="M 954.552797 214.666776
L 991.788726 376.381714
" clip-path="url(#p26d755cbce)" style="fill: none; stroke: #64748b; stroke-width: 0.65"/>
    <path d="M 882.391306 237.530773
L 991.788726 376.381714
" clip-path="url(#p26d755cbce)" style="fill: none; stroke: #64748b; stroke-width: 0.65"/>
    <path d="M 1017.783798 176.946239
L 991.788726 376.381714
" clip-path="url(#p26d755cbce)" style="fill: none; stroke: #64748b; stroke-width: 0.65"/>
    <path d="M 854.162411 502.431116
L 991.788726 376.381714
" clip-path="url(#p26d755cbce)" style="fill: none; stroke: #64748b; stroke-width: 0.65"/>
    <path d="M 1025.809809 231.212315
L 991.788726 376.381714
" clip-path="url(#p26d755cbce)" style="fill: none; stroke: #64748b; stroke-width: 0.65"/>
    <path d="M 1104.403088 313.617961
L 991.788726 376.381714
" clip-path="url(#p26d755cbce)" style="fill: none; stroke: #64748b; stroke-width: 0.65"/>
    <path d="M 900.938301 369.068268
L 991.788726 376.381714
" clip-path="url(#p26d755cbce)" style="fill: none; stroke: #64748b; stroke-width: 0.65"/>
    <path d="M 847.273722 268.286544
L 991.788726 376.381714
" clip-path="url(#p26d755cbce)" style="fill: none; stroke: #64748b; stroke-width: 0.65"/>
    <path d="M 1065.392542 551.587179
L 991.788726 376.381714
" clip-path="url(#p26d755cbce)" style="fill: none; stroke: #64748b; stroke-width: 0.65"/>
    <path d="M 1072.099749 290.772584
L 991.788726 376.381714
" clip-path="url(#p26d755cbce)" style="fill: none; stroke: #64748b; stroke-width: 0.65"/>
    <path d="M 1139.514597 339.562571
L 991.788726 376.381714
" clip-path="url(#p26d755cbce)" style="fill: none; stroke: #64748b; stroke-width: 0.65"/>
    <path d="M 1039.943605 482.793655
L 991.788726 376.381714
" clip-path="url(#p26d755cbce)" style="fill: none; stroke: #64748b; stroke-width: 0.65"/>
    <path d="M 815.342661 438.938671
L 991.788726 376.381714
" clip-path="url(#p26d755cbce)" style="fill: none; stroke: #64748b; stroke-width: 0.65"/>
    <path d="M 847.354568 305.760317
L 991.788726 376.381714
" clip-path="url(#p26d755cbce)" style="fill: none; stroke: #64748b; stroke-width: 0.65"/>
    <path d="M 1111.48412 478.985901
L 991.788726 376.381714
" clip-path="url(#p26d755cbce)" style="fill: none; stroke: #64748b; stroke-width: 0.65"/>
    <path d="M 913.773524 272.4455
L 991.788726 376.381714
" clip-path="url(#p26d755cbce)" style="fill: none; stroke: #64748b; stroke-width: 0.65"/>
    <path d="M 1025.093903 538.727084
L 991.788726 376.381714
" clip-path="url(#p26d755cbce)" style="fill: none; stroke: #64748b; stroke-width: 0.65"/>
    <path d="M 1109.25442 396.885854
L 991.788726 376.381714
" clip-path="url(#p26d755cbce)" style="fill: none; stroke: #64748b; stroke-width: 0.65"/>
    <path d="M 882.202422 522.256548
L 991.788726 376.381714
" clip-path="url(#p26d755cbce)" style="fill: none; stroke: #64748b; stroke-width: 0.65"/>
    <path d="M 980.036063 521.808971
L 991.788726 376.381714
" clip-path="url(#p26d755cbce)" style="fill: none; stroke: #64748b; stroke-width: 0.65"/>
    <path d="M 1104.403088 313.617961
L 1056.651352 409.641167
" clip-path="url(#p26d755cbce)" style="fill: none; stroke: #64748b; stroke-width: 0.65"/>
    <path d="M 900.938301 369.068268
L 1056.651352 409.641167
" clip-path="url(#p26d755cbce)" style="fill: none; stroke: #64748b; stroke-width: 0.65"/>
    <path d="M 847.273722 268.286544
L 1056.651352 409.641167
" clip-path="url(#p26d755cbce)" style="fill: none; stroke: #64748b; stroke-width: 0.65"/>
    <path d="M 1065.392542 551.587179
L 1056.651352 409.641167
" clip-path="url(#p26d755cbce)" style="fill: none; stroke: #64748b; stroke-width: 0.65"/>
    <path d="M 948.787609 470.144189
L 1056.651352 409.641167
" clip-path="url(#p26d755cbce)" style="fill: none; stroke: #64748b; stroke-width: 0.65"/>
    <path d="M 1083.559866 229.87361
L 1056.651352 409.641167
" clip-path="url(#p26d755cbce)" style="fill: none; stroke: #64748b; stroke-width: 0.65"/>
    <path d="M 1150.137553 391.898269
L 1056.651352 409.641167
" clip-path="url(#p26d755cbce)" style="fill: none; stroke: #64748b; stroke-width: 0.65"/>
    <path d="M 900.046421 318.37416
L 1056.651352 409.641167
" clip-path="url(#p26d755cbce)" style="fill: none; stroke: #64748b; stroke-width: 0.65"/>
    <path d="M 1072.099749 290.772584
L 1056.651352 409.641167
" clip-path="url(#p26d755cbce)" style="fill: none; stroke: #64748b; stroke-width: 0.65"/>
    <path d="M 1139.514597 339.562571
L 1056.651352 409.641167
" clip-path="url(#p26d755cbce)" style="fill: none; stroke: #64748b; stroke-width: 0.65"/>
    <path d="M 818.858681 346.488882
L 1056.651352 409.641167
" clip-path="url(#p26d755cbce)" style="fill: none; stroke: #64748b; stroke-width: 0.65"/>
    <path d="M 1039.943605 482.793655
L 1056.651352 409.641167
" clip-path="url(#p26d755cbce)" style="fill: none; stroke: #64748b; stroke-width: 0.65"/>
    <path d="M 1111.48412 478.985901
L 1056.651352 409.641167
" clip-path="url(#p26d755cbce)" style="fill: none; stroke: #64748b; stroke-width: 0.65"/>
    <path d="M 1316.313223 456.922635
L 1056.651352 409.641167
" clip-path="url(#p26d755cbce)" style="fill: none; stroke: #64748b; stroke-width: 0.65"/>
    <path d="M 913.773524 272.4455
L 1056.651352 409.641167
" clip-path="url(#p26d755cbce)" style="fill: none; stroke: #64748b; stroke-width: 0.65"/>
    <path d="M 869.130212 458.18441
L 1056.651352 409.641167
" clip-path="url(#p26d755cbce)" style="fill: none; stroke: #64748b; stroke-width: 0.65"/>
    <path d="M 1025.093903 538.727084
L 1056.651352 409.641167
" clip-path="url(#p26d755cbce)" style="fill: none; stroke: #64748b; stroke-width: 0.65"/>
    <path d="M 980.036063 521.808971
L 1056.651352 409.641167
" clip-path="url(#p26d755cbce)" style="fill: none; stroke: #64748b; stroke-width: 0.65"/>
    <path d="M 1104.403088 313.617961
L 1119.376223 527.330572
" clip-path="url(#p26d755cbce)" style="fill: none; stroke: #64748b; stroke-width: 0.65"/>
    <path d="M 900.938301 369.068268
L 1119.376223 527.330572
" clip-path="url(#p26d755cbce)" style="fill: none; stroke: #64748b; stroke-width: 0.65"/>
    <path d="M 1065.392542 551.587179
L 1119.376223 527.330572
" clip-path="url(#p26d755cbce)" style="fill: none; stroke: #64748b; stroke-width: 0.65"/>
    <path d="M 971.081807 570.648306
L 1119.376223 527.330572
" clip-path="url(#p26d755cbce)" style="fill: none; stroke: #64748b; stroke-width: 0.65"/>
    <path d="M 948.787609 470.144189
L 1119.376223 527.330572
" clip-path="url(#p26d755cbce)" style="fill: none; stroke: #64748b; stroke-width: 0.65"/>
    <path d="M 1150.137553 391.898269
L 1119.376223 527.330572
" clip-path="url(#p26d755cbce)" style="fill: none; stroke: #64748b; stroke-width: 0.65"/>
    <path d="M 1154.81836 270.088748
L 1119.376223 527.330572
" clip-path="url(#p26d755cbce)" style="fill: none; stroke: #64748b; stroke-width: 0.65"/>
    <path d="M 1072.099749 290.772584
L 1119.376223 527.330572
" clip-path="url(#p26d755cbce)" style="fill: none; stroke: #64748b; stroke-width: 0.65"/>
    <path d="M 1039.943605 482.793655
L 1119.376223 527.330572
" clip-path="url(#p26d755cbce)" style="fill: none; stroke: #64748b; stroke-width: 0.65"/>
    <path d="M 912.784794 466.846392
L 1119.376223 527.330572
" clip-path="url(#p26d755cbce)" style="fill: none; stroke: #64748b; stroke-width: 0.65"/>
    <path d="M 1316.313223 456.922635
L 1119.376223 527.330572
" clip-path="url(#p26d755cbce)" style="fill: none; stroke: #64748b; stroke-width: 0.65"/>
    <path d="M 896.370843 411.456845
L 1119.376223 527.330572
" clip-path="url(#p26d755cbce)" style="fill: none; stroke: #64748b; stroke-width: 0.65"/>
    <path d="M 1135.831111 441.821825
L 1119.376223 527.330572
" clip-path="url(#p26d755cbce)" style="fill: none; stroke: #64748b; stroke-width: 0.65"/>
    <path d="M 869.130212 458.18441
L 1119.376223 527.330572
" clip-path="url(#p26d755cbce)" style="fill: none; stroke: #64748b; stroke-width: 0.65"/>
    <path d="M 1025.093903 538.727084
L 1119.376223 527.330572
" clip-path="url(#p26d755cbce)" style="fill: none; stroke: #64748b; stroke-width: 0.65"/>
    <path d="M 854.162411 502.431116
L 1119.376223 527.330572
" clip-path="url(#p26d755cbce)" style="fill: none; stroke: #64748b; stroke-width: 0.65"/>
    <path d="M 1109.25442 396.885854
L 1119.376223 527.330572
" clip-path="url(#p26d755cbce)" style="fill: none; stroke: #64748b; stroke-width: 0.65"/>
    <path d="M 847.354568 305.760317
L 831.622462 388.16876
" clip-path="url(#p26d755cbce)" style="fill: none; stroke: #64748b; stroke-width: 0.65"/>
    <path d="M 900.938301 369.068268
L 831.622462 388.16876
" clip-path="url(#p26d755cbce)" style="fill: none; stroke: #64748b; stroke-width: 0.65"/>
    <path d="M 847.273722 268.286544
L 831.622462 388.16876
" clip-path="url(#p26d755cbce)" style="fill: none; stroke: #64748b; stroke-width: 0.65"/>
    <path d="M 948.787609 470.144189
L 831.622462 388.16876
" clip-path="url(#p26d755cbce)" style="fill: none; stroke: #64748b; stroke-width: 0.65"/>
    <path d="M 896.370843 411.456845
L 831.622462 388.16876
" clip-path="url(#p26d755cbce)" style="fill: none; stroke: #64748b; stroke-width: 0.65"/>
    <path d="M 913.773524 272.4455
L 831.622462 388.16876
" clip-path="url(#p26d755cbce)" style="fill: none; stroke: #64748b; stroke-width: 0.65"/>
    <path d="M 869.130212 458.18441
L 831.622462 388.16876
" clip-path="url(#p26d755cbce)" style="fill: none; stroke: #64748b; stroke-width: 0.65"/>
    <path d="M 900.046421 318.37416
L 831.622462 388.16876
" clip-path="url(#p26d755cbce)" style="fill: none; stroke: #64748b; stroke-width: 0.65"/>
    <path d="M 815.342661 438.938671
L 831.622462 388.16876
" clip-path="url(#p26d755cbce)" style="fill: none; stroke: #64748b; stroke-width: 0.65"/>
    <path d="M 882.391306 237.530773
L 831.622462 388.16876
" clip-path="url(#p26d755cbce)" style="fill: none; stroke: #64748b; stroke-width: 0.65"/>
    <path d="M 854.162411 502.431116
L 831.622462 388.16876
" clip-path="url(#p26d755cbce)" style="fill: none; stroke: #64748b; stroke-width: 0.65"/>
    <path d="M 818.858681 346.488882
L 831.622462 388.16876
" clip-path="url(#p26d755cbce)" style="fill: none; stroke: #64748b; stroke-width: 0.65"/>
    <path d="M 882.202422 522.256548
L 831.622462 388.16876
" clip-path="url(#p26d755cbce)" style="fill: none; stroke: #64748b; stroke-width: 0.65"/>
    <path d="M 912.784794 466.846392
L 831.622462 388.16876
" clip-path="url(#p26d755cbce)" style="fill: none; stroke: #64748b; stroke-width: 0.65"/>
    <path d="M 755.486777 474.391728
L 831.622462 388.16876
" clip-path="url(#p26d755cbce)" style="fill: none; stroke: #64748b; stroke-width: 0.65"/>
    <path d="M 1104.403088 313.617961
L 1035.37817 366.899157
" clip-path="url(#p26d755cbce)" style="fill: none; stroke: #64748b; stroke-width: 0.65"/>
    <path d="M 900.938301 369.068268
L 1035.37817 366.899157
" clip-path="url(#p26d755cbce)" style="fill: none; stroke: #64748b; stroke-width: 0.65"/>
    <path d="M 847.273722 268.286544
L 1035.37817 366.899157
" clip-path="url(#p26d755cbce)" style="fill: none; stroke: #64748b; stroke-width: 0.65"/>
    <path d="M 948.787609 470.144189
L 1035.37817 366.899157
" clip-path="url(#p26d755cbce)" style="fill: none; stroke: #64748b; stroke-width: 0.65"/>
    <path d="M 1065.392542 551.587179
L 1035.37817 366.899157
" clip-path="url(#p26d755cbce)" style="fill: none; stroke: #64748b; stroke-width: 0.65"/>
    <path d="M 1083.559866 229.87361
L 1035.37817 366.899157
" clip-path="url(#p26d755cbce)" style="fill: none; stroke: #64748b; stroke-width: 0.65"/>
    <path d="M 1150.137553 391.898269
L 1035.37817 366.899157
" clip-path="url(#p26d755cbce)" style="fill: none; stroke: #64748b; stroke-width: 0.65"/>
    <path d="M 900.046421 318.37416
L 1035.37817 366.899157
" clip-path="url(#p26d755cbce)" style="fill: none; stroke: #64748b; stroke-width: 0.65"/>
    <path d="M 1154.81836 270.088748
L 1035.37817 366.899157
" clip-path="url(#p26d755cbce)" style="fill: none; stroke: #64748b; stroke-width: 0.65"/>
    <path d="M 1072.099749 290.772584
L 1035.37817 366.899157
" clip-path="url(#p26d755cbce)" style="fill: none; stroke: #64748b; stroke-width: 0.65"/>
    <path d="M 1196.099506 338.407093
L 1035.37817 366.899157
" clip-path="url(#p26d755cbce)" style="fill: none; stroke: #64748b; stroke-width: 0.65"/>
    <path d="M 1139.514597 339.562571
L 1035.37817 366.899157
" clip-path="url(#p26d755cbce)" style="fill: none; stroke: #64748b; stroke-width: 0.65"/>
    <path d="M 1039.943605 482.793655
L 1035.37817 366.899157
" clip-path="url(#p26d755cbce)" style="fill: none; stroke: #64748b; stroke-width: 0.65"/>
    <path d="M 912.784794 466.846392
L 1035.37817 366.899157
" clip-path="url(#p26d755cbce)" style="fill: none; stroke: #64748b; stroke-width: 0.65"/>
    <path d="M 847.354568 305.760317
L 1035.37817 366.899157
" clip-path="url(#p26d755cbce)" style="fill: none; stroke: #64748b; stroke-width: 0.65"/>
    <path d="M 1111.48412 478.985901
L 1035.37817 366.899157
" clip-path="url(#p26d755cbce)" style="fill: none; stroke: #64748b; stroke-width: 0.65"/>
    <path d="M 1316.313223 456.922635
L 1035.37817 366.899157
" clip-path="url(#p26d755cbce)" style="fill: none; stroke: #64748b; stroke-width: 0.65"/>
    <path d="M 896.370843 411.456845
L 1035.37817 366.899157
" clip-path="url(#p26d755cbce)" style="fill: none; stroke: #64748b; stroke-width: 0.65"/>
    <path d="M 1135.831111 441.821825
L 1035.37817 366.899157
" clip-path="url(#p26d755cbce)" style="fill: none; stroke: #64748b; stroke-width: 0.65"/>
    <path d="M 913.773524 272.4455
L 1035.37817 366.899157
" clip-path="url(#p26d755cbce)" style="fill: none; stroke: #64748b; stroke-width: 0.65"/>
    <path d="M 1109.25442 396.885854
L 1035.37817 366.899157
" clip-path="url(#p26d755cbce)" style="fill: none; stroke: #64748b; stroke-width: 0.65"/>
    <path d="M 1025.093903 538.727084
L 1035.37817 366.899157
" clip-path="url(#p26d755cbce)" style="fill: none; stroke: #64748b; stroke-width: 0.65"/>
    <path d="M 882.391306 237.530773
L 1035.37817 366.899157
" clip-path="url(#p26d755cbce)" style="fill: none; stroke: #64748b; stroke-width: 0.65"/>
    <path d="M 1017.783798 176.946239
L 1035.37817 366.899157
" clip-path="url(#p26d755cbce)" style="fill: none; stroke: #64748b; stroke-width: 0.65"/>
    <path d="M 854.162411 502.431116
L 1035.37817 366.899157
" clip-path="url(#p26d755cbce)" style="fill: none; stroke: #64748b; stroke-width: 0.65"/>
    <path d="M 1025.809809 231.212315
L 1035.37817 366.899157
" clip-path="url(#p26d755cbce)" style="fill: none; stroke: #64748b; stroke-width: 0.65"/>
    <path d="M 980.036063 521.808971
L 1035.37817 366.899157
" clip-path="url(#p26d755cbce)" style="fill: none; stroke: #64748b; stroke-width: 0.65"/>
    <path d="M 1104.403088 313.617961
L 986.375764 417.944413
" clip-path="url(#p26d755cbce)" style="fill: none; stroke: #64748b; stroke-width: 0.65"/>
    <path d="M 900.938301 369.068268
L 986.375764 417.944413
" clip-path="url(#p26d755cbce)" style="fill: none; stroke: #64748b; stroke-width: 0.65"/>
    <path d="M 948.787609 470.144189
L 986.375764 417.944413
" clip-path="url(#p26d755cbce)" style="fill: none; stroke: #64748b; stroke-width: 0.65"/>
    <path d="M 1065.392542 551.587179
L 986.375764 417.944413
" clip-path="url(#p26d755cbce)" style="fill: none; stroke: #64748b; stroke-width: 0.65"/>
    <path d="M 1150.137553 391.898269
L 986.375764 417.944413
" clip-path="url(#p26d755cbce)" style="fill: none; stroke: #64748b; stroke-width: 0.65"/>
    <path d="M 900.046421 318.37416
L 986.375764 417.944413
" clip-path="url(#p26d755cbce)" style="fill: none; stroke: #64748b; stroke-width: 0.65"/>
    <path d="M 1072.099749 290.772584
L 986.375764 417.944413
" clip-path="url(#p26d755cbce)" style="fill: none; stroke: #64748b; stroke-width: 0.65"/>
    <path d="M 1139.514597 339.562571
L 986.375764 417.944413
" clip-path="url(#p26d755cbce)" style="fill: none; stroke: #64748b; stroke-width: 0.65"/>
    <path d="M 818.858681 346.488882
L 986.375764 417.944413
" clip-path="url(#p26d755cbce)" style="fill: none; stroke: #64748b; stroke-width: 0.65"/>
    <path d="M 1039.943605 482.793655
L 986.375764 417.944413
" clip-path="url(#p26d755cbce)" style="fill: none; stroke: #64748b; stroke-width: 0.65"/>
    <path d="M 912.784794 466.846392
L 986.375764 417.944413
" clip-path="url(#p26d755cbce)" style="fill: none; stroke: #64748b; stroke-width: 0.65"/>
    <path d="M 815.342661 438.938671
L 986.375764 417.944413
" clip-path="url(#p26d755cbce)" style="fill: none; stroke: #64748b; stroke-width: 0.65"/>
    <path d="M 755.486777 474.391728
L 986.375764 417.944413
" clip-path="url(#p26d755cbce)" style="fill: none; stroke: #64748b; stroke-width: 0.65"/>
    <path d="M 1111.48412 478.985901
L 986.375764 417.944413
" clip-path="url(#p26d755cbce)" style="fill: none; stroke: #64748b; stroke-width: 0.65"/>
    <path d="M 896.370843 411.456845
L 986.375764 417.944413
" clip-path="url(#p26d755cbce)" style="fill: none; stroke: #64748b; stroke-width: 0.65"/>
    <path d="M 1135.831111 441.821825
L 986.375764 417.944413
" clip-path="url(#p26d755cbce)" style="fill: none; stroke: #64748b; stroke-width: 0.65"/>
    <path d="M 869.130212 458.18441
L 986.375764 417.944413
" clip-path="url(#p26d755cbce)" style="fill: none; stroke: #64748b; stroke-width: 0.65"/>
    <path d="M 1109.25442 396.885854
L 986.375764 417.944413
" clip-path="url(#p26d755cbce)" style="fill: none; stroke: #64748b; stroke-width: 0.65"/>
    <path d="M 954.552797 214.666776
L 986.375764 417.944413
" clip-path="url(#p26d755cbce)" style="fill: none; stroke: #64748b; stroke-width: 0.65"/>
    <path d="M 1025.093903 538.727084
L 986.375764 417.944413
" clip-path="url(#p26d755cbce)" style="fill: none; stroke: #64748b; stroke-width: 0.65"/>
    <path d="M 1025.809809 231.212315
L 986.375764 417.944413
" clip-path="url(#p26d755cbce)" style="fill: none; stroke: #64748b; stroke-width: 0.65"/>
    <path d="M 882.202422 522.256548
L 986.375764 417.944413
" clip-path="url(#p26d755cbce)" style="fill: none; stroke: #64748b; stroke-width: 0.65"/>
   </g>
   <g id="PathCollection_2">
    <defs>
     <path id="m7e11591f4b" d="M -6.5 6.5
L 6.5 6.5
L 6.5 -6.5
L -6.5 -6.5
z
" style="stroke: #334155; stroke-width: 0.8"/>
    </defs>
    <g clip-path="url(#p26d755cbce)">
     <use xlink:href="#m7e11591f4b" x="1035.37817" y="366.899157" style="fill: #f59e0b; stroke: #334155; stroke-width: 0.8"/>
     <use xlink:href="#m7e11591f4b" x="831.622462" y="388.16876" style="fill: #f59e0b; stroke: #334155; stroke-width: 0.8"/>
     <use xlink:href="#m7e11591f4b" x="970.347361" y="391.758396" style="fill: #f59e0b; stroke: #334155; stroke-width: 0.8"/>
     <use xlink:href="#m7e11591f4b" x="991.788726" y="376.381714" style="fill: #f59e0b; stroke: #334155; stroke-width: 0.8"/>
     <use xlink:href="#m7e11591f4b" x="1056.651352" y="409.641167" style="fill: #f59e0b; stroke: #334155; stroke-width: 0.8"/>
     <use xlink:href="#m7e11591f4b" x="980.113321" y="322.669581" style="fill: #f59e0b; stroke: #334155; stroke-width: 0.8"/>
     <use xlink:href="#m7e11591f4b" x="1005.757122" y="282.906919" style="fill: #f59e0b; stroke: #334155; stroke-width: 0.8"/>
     <use xlink:href="#m7e11591f4b" x="986.375764" y="417.944413" style="fill: #f59e0b; stroke: #334155; stroke-width: 0.8"/>
     <use xlink:href="#m7e11591f4b" x="1119.376223" y="527.330572" style="fill: #f59e0b; stroke: #334155; stroke-width: 0.8"/>
     <use xlink:href="#m7e11591f4b" x="874.803636" y="670.813761" style="fill: #f59e0b; stroke: #334155; stroke-width: 0.8"/>
    </g>
   </g>
   <g id="PathCollection_3">
    <defs>
     <path id="md867d47734" d="M 0 5
C 1.326016 5 2.597899 4.473168 3.535534 3.535534
C 4.473168 2.597899 5 1.326016 5 0
C 5 -1.326016 4.473168 -2.597899 3.535534 -3.535534
C 2.597899 -4.473168 1.326016 -5 0 -5
C -1.326016 -5 -2.597899 -4.473168 -3.535534 -3.535534
C -4.473168 -2.597899 -5 -1.326016 -5 0
C -5 1.326016 -4.473168 2.597899 -3.535534 3.535534
C -2.597899 4.473168 -1.326016 5 0 5
z
" style="stroke: #334155; stroke-width: 0.8"/>
    </defs>
    <g clip-path="url(#p26d755cbce)">
     <use xlink:href="#md867d47734" x="913.773524" y="272.4455" style="fill: #38bdf8; stroke: #334155; stroke-width: 0.8"/>
     <use xlink:href="#md867d47734" x="1083.559866" y="229.87361" style="fill: #38bdf8; stroke: #334155; stroke-width: 0.8"/>
     <use xlink:href="#md867d47734" x="882.202422" y="522.256548" style="fill: #38bdf8; stroke: #334155; stroke-width: 0.8"/>
     <use xlink:href="#md867d47734" x="896.370843" y="411.456845" style="fill: #38bdf8; stroke: #334155; stroke-width: 0.8"/>
     <use xlink:href="#md867d47734" x="755.486777" y="474.391728" style="fill: #38bdf8; stroke: #334155; stroke-width: 0.8"/>
     <use xlink:href="#md867d47734" x="1025.809809" y="231.212315" style="fill: #38bdf8; stroke: #334155; stroke-width: 0.8"/>
     <use xlink:href="#md867d47734" x="1104.403088" y="313.617961" style="fill: #38bdf8; stroke: #334155; stroke-width: 0.8"/>
     <use xlink:href="#md867d47734" x="1072.099749" y="290.772584" style="fill: #38bdf8; stroke: #334155; stroke-width: 0.8"/>
     <use xlink:href="#md867d47734" x="1139.514597" y="339.562571" style="fill: #38bdf8; stroke: #334155; stroke-width: 0.8"/>
     <use xlink:href="#md867d47734" x="912.784794" y="466.846392" style="fill: #38bdf8; stroke: #334155; stroke-width: 0.8"/>
     <use xlink:href="#md867d47734" x="1150.137553" y="391.898269" style="fill: #38bdf8; stroke: #334155; stroke-width: 0.8"/>
     <use xlink:href="#md867d47734" x="954.552797" y="214.666776" style="fill: #38bdf8; stroke: #334155; stroke-width: 0.8"/>
     <use xlink:href="#md867d47734" x="869.130212" y="458.18441" style="fill: #38bdf8; stroke: #334155; stroke-width: 0.8"/>
     <use xlink:href="#md867d47734" x="971.081807" y="570.648306" style="fill: #38bdf8; stroke: #334155; stroke-width: 0.8"/>
     <use xlink:href="#md867d47734" x="1025.093903" y="538.727084" style="fill: #38bdf8; stroke: #334155; stroke-width: 0.8"/>
     <use xlink:href="#md867d47734" x="1135.831111" y="441.821825" style="fill: #38bdf8; stroke: #334155; stroke-width: 0.8"/>
     <use xlink:href="#md867d47734" x="948.787609" y="470.144189" style="fill: #38bdf8; stroke: #334155; stroke-width: 0.8"/>
     <use xlink:href="#md867d47734" x="1039.943605" y="482.793655" style="fill: #38bdf8; stroke: #334155; stroke-width: 0.8"/>
     <use xlink:href="#md867d47734" x="900.046421" y="318.37416" style="fill: #38bdf8; stroke: #334155; stroke-width: 0.8"/>
     <use xlink:href="#md867d47734" x="980.036063" y="521.808971" style="fill: #38bdf8; stroke: #334155; stroke-width: 0.8"/>
     <use xlink:href="#md867d47734" x="847.354568" y="305.760317" style="fill: #38bdf8; stroke: #334155; stroke-width: 0.8"/>
     <use xlink:href="#md867d47734" x="900.938301" y="369.068268" style="fill: #38bdf8; stroke: #334155; stroke-width: 0.8"/>
     <use xlink:href="#md867d47734" x="1111.48412" y="478.985901" style="fill: #38bdf8; stroke: #334155; stroke-width: 0.8"/>
     <use xlink:href="#md867d47734" x="818.858681" y="346.488882" style="fill: #38bdf8; stroke: #334155; stroke-width: 0.8"/>
     <use xlink:href="#md867d47734" x="1109.25442" y="396.885854" style="fill: #38bdf8; stroke: #334155; stroke-width: 0.8"/>
     <use xlink:href="#md867d47734" x="1196.099506" y="338.407093" style="fill: #38bdf8; stroke: #334155; stroke-width: 0.8"/>
     <use xlink:href="#md867d47734" x="882.391306" y="237.530773" style="fill: #38bdf8; stroke: #334155; stroke-width: 0.8"/>
     <use xlink:href="#md867d47734" x="815.342661" y="438.938671" style="fill: #38bdf8; stroke: #334155; stroke-width: 0.8"/>
     <use xlink:href="#md867d47734" x="1017.783798" y="176.946239" style="fill: #38bdf8; stroke: #334155; stroke-width: 0.8"/>
     <use xlink:href="#md867d47734" x="1154.81836" y="270.088748" style="fill: #38bdf8; stroke: #334155; stroke-width: 0.8"/>
     <use xlink:href="#md867d47734" x="1065.392542" y="551.587179" style="fill: #38bdf8; stroke: #334155; stroke-width: 0.8"/>
     <use xlink:href="#md867d47734" x="854.162411" y="502.431116" style="fill: #38bdf8; stroke: #334155; stroke-width: 0.8"/>
     <use xlink:href="#md867d47734" x="847.273722" y="268.286544" style="fill: #38bdf8; stroke: #334155; stroke-width: 0.8"/>
     <use xlink:href="#md867d47734" x="1316.313223" y="456.922635" style="fill: #38bdf8; stroke: #334155; stroke-width: 0.8"/>
    </g>
   </g>
   <g id="text_18">
    <text style="font-weight: 700; font-size: 15px; font-family: 'DejaVu Sans'; text-anchor: start; fill: #111827" x="696.6" y="108.72" transform="rotate(-0 696.6 108.72)">XGI bipartite incidence view</text>
   </g>
   <g id="text_19">
    <g clip-path="url(#p26d755cbce)">
     <text style="font-size: 7.6px; font-family: 'DejaVu Sans', 'Bitstream Vera Sans', 'Computer Modern Sans Serif', 'Lucida Grande', 'Verdana', 'Geneva', 'Lucid', 'Arial', 'Helvetica', 'Avant Garde', sans-serif; text-anchor: middle; fill: #111827" x="991.788726" y="378.478839" transform="rotate(-0 991.788726 378.478839)">ODYSSEUS</text>
    </g>
   </g>
   <g id="text_20">
    <g clip-path="url(#p26d755cbce)">
     <text style="font-size: 7.6px; font-family: 'DejaVu Sans', 'Bitstream Vera Sans', 'Computer Modern Sans Serif', 'Lucida Grande', 'Verdana', 'Geneva', 'Lucid', 'Arial', 'Helvetica', 'Avant Garde', sans-serif; text-anchor: middle; fill: #111827" x="831.622462" y="390.265885" transform="rotate(-0 831.622462 390.265885)">SEA</text>
    </g>
   </g>
   <g id="text_21">
    <g clip-path="url(#p26d755cbce)">
     <text style="font-size: 7.6px; font-family: 'DejaVu Sans', 'Bitstream Vera Sans', 'Computer Modern Sans Serif', 'Lucida Grande', 'Verdana', 'Geneva', 'Lucid', 'Arial', 'Helvetica', 'Avant Garde', sans-serif; text-anchor: middle; fill: #111827" x="986.375764" y="420.041538" transform="rotate(-0 986.375764 420.041538)">ZEUS</text>
    </g>
   </g>
   <g id="text_22">
    <g clip-path="url(#p26d755cbce)">
     <text style="font-size: 7.6px; font-family: 'DejaVu Sans', 'Bitstream Vera Sans', 'Computer Modern Sans Serif', 'Lucida Grande', 'Verdana', 'Geneva', 'Lucid', 'Arial', 'Helvetica', 'Avant Garde', sans-serif; text-anchor: middle; fill: #111827" x="1035.37817" y="368.996282" transform="rotate(-0 1035.37817 368.996282)">TELEMACHUS</text>
    </g>
   </g>
   <g id="text_23">
    <g clip-path="url(#p26d755cbce)">
     <text style="font-size: 7.6px; font-family: 'DejaVu Sans', 'Bitstream Vera Sans', 'Computer Modern Sans Serif', 'Lucida Grande', 'Verdana', 'Geneva', 'Lucid', 'Arial', 'Helvetica', 'Avant Garde', sans-serif; text-anchor: middle; fill: #111827" x="970.347361" y="393.855521" transform="rotate(-0 970.347361 393.855521)">ATHENA</text>
    </g>
   </g>
   <g id="text_24">
    <g clip-path="url(#p26d755cbce)">
     <text style="font-size: 7.6px; font-family: 'DejaVu Sans', 'Bitstream Vera Sans', 'Computer Modern Sans Serif', 'Lucida Grande', 'Verdana', 'Geneva', 'Lucid', 'Arial', 'Helvetica', 'Avant Garde', sans-serif; text-anchor: middle; fill: #111827" x="980.113321" y="324.766706" transform="rotate(-0 980.113321 324.766706)">JOURNEY</text>
    </g>
   </g>
   <g id="text_25">
    <g clip-path="url(#p26d755cbce)">
     <text style="font-size: 7.6px; font-family: 'DejaVu Sans', 'Bitstream Vera Sans', 'Computer Modern Sans Serif', 'Lucida Grande', 'Verdana', 'Geneva', 'Lucid', 'Arial', 'Helvetica', 'Avant Garde', sans-serif; text-anchor: middle; fill: #111827" x="1005.757122" y="284.831263" transform="rotate(-0 1005.757122 284.831263)">GENERIC_SON</text>
    </g>
   </g>
   <g id="text_26">
    <g clip-path="url(#p26d755cbce)">
     <text style="font-size: 7.6px; font-family: 'DejaVu Sans', 'Bitstream Vera Sans', 'Computer Modern Sans Serif', 'Lucida Grande', 'Verdana', 'Geneva', 'Lucid', 'Arial', 'Helvetica', 'Avant Garde', sans-serif; text-anchor: middle; fill: #111827" x="1056.651352" y="411.738292" transform="rotate(-0 1056.651352 411.738292)">PALACE</text>
    </g>
   </g>
   <g id="text_27">
    <g clip-path="url(#p26d755cbce)">
     <text style="font-size: 7.6px; font-family: 'DejaVu Sans', 'Bitstream Vera Sans', 'Computer Modern Sans Serif', 'Lucida Grande', 'Verdana', 'Geneva', 'Lucid', 'Arial', 'Helvetica', 'Avant Garde', sans-serif; text-anchor: middle; fill: #111827" x="874.803636" y="672.910886" transform="rotate(-0 874.803636 672.910886)">MIND</text>
    </g>
   </g>
   <g id="text_28">
    <g clip-path="url(#p26d755cbce)">
     <text style="font-size: 7.6px; font-family: 'DejaVu Sans', 'Bitstream Vera Sans', 'Computer Modern Sans Serif', 'Lucida Grande', 'Verdana', 'Geneva', 'Lucid', 'Arial', 'Helvetica', 'Avant Garde', sans-serif; text-anchor: middle; fill: #111827" x="1119.376223" y="529.427697" transform="rotate(-0 1119.376223 529.427697)">PENELOPE</text>
    </g>
   </g>
   <g id="text_29">
    <g clip-path="url(#p26d755cbce)">
     <text style="font-size: 7.6px; font-family: 'DejaVu Sans', 'Bitstream Vera Sans', 'Computer Modern Sans Serif', 'Lucida Grande', 'Verdana', 'Geneva', 'Lucid', 'Arial', 'Helvetica', 'Avant Garde', sans-serif; text-anchor: middle; fill: #111827" x="1104.403088" y="315.715086" transform="rotate(-0 1104.403088 315.715086)">fair</text>
    </g>
   </g>
   <g id="text_30">
    <g clip-path="url(#p26d755cbce)">
     <text style="font-size: 7.6px; font-family: 'DejaVu Sans', 'Bitstream Vera Sans', 'Computer Modern Sans Serif', 'Lucida Grande', 'Verdana', 'Geneva', 'Lucid', 'Arial', 'Helvetica', 'Avant Garde', sans-serif; text-anchor: middle; fill: #111827" x="900.938301" y="371.165393" transform="rotate(-0 900.938301 371.165393)">sacred</text>
    </g>
   </g>
   <g id="text_31">
    <g clip-path="url(#p26d755cbce)">
     <text style="font-size: 7.6px; font-family: 'DejaVu Sans', 'Bitstream Vera Sans', 'Computer Modern Sans Serif', 'Lucida Grande', 'Verdana', 'Geneva', 'Lucid', 'Arial', 'Helvetica', 'Avant Garde', sans-serif; text-anchor: middle; fill: #111827" x="948.787609" y="472.241314" transform="rotate(-0 948.787609 472.241314)">long</text>
    </g>
   </g>
   <g id="text_32">
    <g clip-path="url(#p26d755cbce)">
     <text style="font-size: 7.6px; font-family: 'DejaVu Sans', 'Bitstream Vera Sans', 'Computer Modern Sans Serif', 'Lucida Grande', 'Verdana', 'Geneva', 'Lucid', 'Arial', 'Helvetica', 'Avant Garde', sans-serif; text-anchor: middle; fill: #111827" x="1065.392542" y="553.684304" transform="rotate(-0 1065.392542 553.684304)">high</text>
    </g>
   </g>
   <g id="text_33">
    <g clip-path="url(#p26d755cbce)">
     <text style="font-size: 7.6px; font-family: 'DejaVu Sans', 'Bitstream Vera Sans', 'Computer Modern Sans Serif', 'Lucida Grande', 'Verdana', 'Geneva', 'Lucid', 'Arial', 'Helvetica', 'Avant Garde', sans-serif; text-anchor: middle; fill: #111827" x="1083.559866" y="231.970735" transform="rotate(-0 1083.559866 231.970735)">brave</text>
    </g>
   </g>
   <g id="text_34">
    <g clip-path="url(#p26d755cbce)">
     <text style="font-size: 7.6px; font-family: 'DejaVu Sans', 'Bitstream Vera Sans', 'Computer Modern Sans Serif', 'Lucida Grande', 'Verdana', 'Geneva', 'Lucid', 'Arial', 'Helvetica', 'Avant Garde', sans-serif; text-anchor: middle; fill: #111827" x="1150.137553" y="393.995394" transform="rotate(-0 1150.137553 393.995394)">good</text>
    </g>
   </g>
   <g id="text_35">
    <g clip-path="url(#p26d755cbce)">
     <text style="font-size: 7.6px; font-family: 'DejaVu Sans', 'Bitstream Vera Sans', 'Computer Modern Sans Serif', 'Lucida Grande', 'Verdana', 'Geneva', 'Lucid', 'Arial', 'Helvetica', 'Avant Garde', sans-serif; text-anchor: middle; fill: #111827" x="1025.809809" y="233.30944" transform="rotate(-0 1025.809809 233.30944)">divine</text>
    </g>
   </g>
   <g id="text_36">
    <g clip-path="url(#p26d755cbce)">
     <text style="font-size: 7.6px; font-family: 'DejaVu Sans', 'Bitstream Vera Sans', 'Computer Modern Sans Serif', 'Lucida Grande', 'Verdana', 'Geneva', 'Lucid', 'Arial', 'Helvetica', 'Avant Garde', sans-serif; text-anchor: middle; fill: #111827" x="896.370843" y="413.55397" transform="rotate(-0 896.370843 413.55397)">bright</text>
    </g>
   </g>
   <g id="text_37">
    <g clip-path="url(#p26d755cbce)">
     <text style="font-size: 7.6px; font-family: 'DejaVu Sans', 'Bitstream Vera Sans', 'Computer Modern Sans Serif', 'Lucida Grande', 'Verdana', 'Geneva', 'Lucid', 'Arial', 'Helvetica', 'Avant Garde', sans-serif; text-anchor: middle; fill: #111827" x="900.046421" y="320.471285" transform="rotate(-0 900.046421 320.471285)">old</text>
    </g>
   </g>
   <g id="text_38">
    <g clip-path="url(#p26d755cbce)">
     <text style="font-size: 7.6px; font-family: 'DejaVu Sans', 'Bitstream Vera Sans', 'Computer Modern Sans Serif', 'Lucida Grande', 'Verdana', 'Geneva', 'Lucid', 'Arial', 'Helvetica', 'Avant Garde', sans-serif; text-anchor: middle; fill: #111827" x="1109.25442" y="398.982979" transform="rotate(-0 1109.25442 398.982979)">wise</text>
    </g>
   </g>
   <g id="text_39">
    <g clip-path="url(#p26d755cbce)">
     <text style="font-size: 7.6px; font-family: 'DejaVu Sans', 'Bitstream Vera Sans', 'Computer Modern Sans Serif', 'Lucida Grande', 'Verdana', 'Geneva', 'Lucid', 'Arial', 'Helvetica', 'Avant Garde', sans-serif; text-anchor: middle; fill: #111827" x="1154.81836" y="272.185873" transform="rotate(-0 1154.81836 272.185873)">prudent</text>
    </g>
   </g>
   <g id="text_40">
    <g clip-path="url(#p26d755cbce)">
     <text style="font-size: 7.6px; font-family: 'DejaVu Sans', 'Bitstream Vera Sans', 'Computer Modern Sans Serif', 'Lucida Grande', 'Verdana', 'Geneva', 'Lucid', 'Arial', 'Helvetica', 'Avant Garde', sans-serif; text-anchor: middle; fill: #111827" x="1072.099749" y="292.869709" transform="rotate(-0 1072.099749 292.869709)">godlike</text>
    </g>
   </g>
   <g id="text_41">
    <g clip-path="url(#p26d755cbce)">
     <text style="font-size: 7.6px; font-family: 'DejaVu Sans', 'Bitstream Vera Sans', 'Computer Modern Sans Serif', 'Lucida Grande', 'Verdana', 'Geneva', 'Lucid', 'Arial', 'Helvetica', 'Avant Garde', sans-serif; text-anchor: middle; fill: #111827" x="882.391306" y="239.627898" transform="rotate(-0 882.391306 239.627898)">glad</text>
    </g>
   </g>
   <g id="text_42">
    <g clip-path="url(#p26d755cbce)">
     <text style="font-size: 7.6px; font-family: 'DejaVu Sans', 'Bitstream Vera Sans', 'Computer Modern Sans Serif', 'Lucida Grande', 'Verdana', 'Geneva', 'Lucid', 'Arial', 'Helvetica', 'Avant Garde', sans-serif; text-anchor: middle; fill: #111827" x="818.858681" y="348.586007" transform="rotate(-0 818.858681 348.586007)">wide</text>
    </g>
   </g>
   <g id="text_43">
    <g clip-path="url(#p26d755cbce)">
     <text style="font-size: 7.6px; font-family: 'DejaVu Sans', 'Bitstream Vera Sans', 'Computer Modern Sans Serif', 'Lucida Grande', 'Verdana', 'Geneva', 'Lucid', 'Arial', 'Helvetica', 'Avant Garde', sans-serif; text-anchor: middle; fill: #111827" x="1039.943605" y="484.89078" transform="rotate(-0 1039.943605 484.89078)">noble</text>
    </g>
   </g>
   <g id="text_44">
    <g clip-path="url(#p26d755cbce)">
     <text style="font-size: 7.6px; font-family: 'DejaVu Sans', 'Bitstream Vera Sans', 'Computer Modern Sans Serif', 'Lucida Grande', 'Verdana', 'Geneva', 'Lucid', 'Arial', 'Helvetica', 'Avant Garde', sans-serif; text-anchor: middle; fill: #111827" x="755.486777" y="476.488853" transform="rotate(-0 755.486777 476.488853)">deep</text>
    </g>
   </g>
  </g>
  <g id="text_45">
   <text style="font-weight: 700; font-size: 22px; font-family: 'DejaVu Sans'; text-anchor: start; fill: #111827" x="18" y="23.916562" transform="rotate(-0 18 23.916562)">William Cowper (1791) — Native target-as-hyperedge visualization</text>
  </g>
  <g id="text_46">
   <text style="font-size: 11px; font-family: 'DejaVu Sans'; text-anchor: start; fill: #475569" x="18" y="42.84" transform="rotate(-0 18 42.84)">Readable weighted core: 34 of 137 attribute nodes; 10 of 86 target hyperedges; 198 of 1017 incidences.</text>
  </g>
  <g id="text_47">
   <text style="font-size: 9px; font-family: 'DejaVu Sans'; text-anchor: start; fill: #475569" x="18" y="755.64" transform="rotate(-0 18 755.64)">Attribute circles and target hyperedges use the colors specified in config/visualizations.json.</text>
  </g>
 </g>
 <defs>
  <clipPath id="pc554e67f7a">
   <rect x="7.2" y="122.72" width="678.6" height="602.32"/>
  </clipPath>
  <clipPath id="p26d755cbce">
   <rect x="696.6" y="122.72" width="678.6" height="602.32"/>
  </clipPath>
 </defs>
</svg>
