<?xml version="1.0" encoding="utf-8" standalone="no"?>
<!DOCTYPE svg PUBLIC "-//W3C//DTD SVG 1.1//EN"
  "http://www.w3.org/Graphics/SVG/1.1/DTD/svg11.dtd">
<svg xmlns:xlink="http://www.w3.org/1999/xlink" width="1382.4pt" height="764.711719pt" viewBox="0 0 1382.4 764.711719" xmlns="http://www.w3.org/2000/svg" version="1.1">
 <metadata>
  <rdf:RDF xmlns:dc="http://purl.org/dc/elements/1.1/" xmlns:cc="http://creativecommons.org/ns#" xmlns:rdf="http://www.w3.org/1999/02/22-rdf-syntax-ns#">
   <cc:Work>
    <dc:type rdf:resource="http://purl.org/dc/dcmitype/StillImage"/>
    <dc:format>image/svg+xml</dc:format>
    <dc:creator>
     <cc:Agent>
      <dc:title>Matplotlib v3.10.3, https://matplotlib.org/</dc:title>
     </cc:Agent>
    </dc:creator>
   </cc:Work>
  </rdf:RDF>
 </metadata>
 <defs>
  <style type="text/css">*{stroke-linejoin: round; stroke-linecap: butt}</style>
 </defs>
 <g id="figure_1">
  <g id="patch_1">
   <path d="M 0 764.711719 
L 1382.4 764.711719 
L 1382.4 0 
L 0 0 
z
" style="fill: #ffffff"/>
  </g>
  <g id="axes_1">
   <g id="text_1">
    <text style="font-weight: 700; font-size: 15px; font-family: 'DejaVu Sans'; text-anchor: start; fill: #111827" x="7.2" y="108.72" transform="rotate(-0 7.2 108.72)">XGI native hyperedge-hull view</text>
   </g>
   <g id="PatchCollection_1">
    <path d="M 214.714585 548.368136 
L 281.089634 574.768308 
L 281.952188 575.078847 
L 282.832539 575.334612 
L 283.727213 575.534595 
L 284.632677 575.678007 
L 285.545361 575.764281 
L 286.46166 575.793077 
L 287.377959 575.764281 
L 288.290642 575.678007 
L 363.842705 565.080479 
L 364.74817 564.937067 
L 365.642844 564.737084 
L 366.523194 564.481319 
L 367.385748 564.17078 
L 480.931917 515.533573 
L 481.77327 515.169487 
L 482.590102 514.753291 
L 483.379189 514.286626 
L 484.137416 513.771335 
L 484.861792 513.209452 
L 485.549458 512.603193 
L 486.197699 511.954952 
L 486.803958 511.267286 
L 487.365841 510.54291 
L 487.881132 509.784683 
L 488.347797 508.995596 
L 488.763993 508.178765 
L 489.128079 507.337411 
L 489.438618 506.474857 
L 532.975178 381.08144 
L 533.230944 380.201089 
L 533.430927 379.306416 
L 533.574338 378.400951 
L 533.660612 377.488268 
L 533.689408 376.571969 
L 533.660612 375.655669 
L 533.574338 374.742986 
L 533.430927 373.837522 
L 533.230944 372.942848 
L 532.975178 372.062497 
L 508.749862 299.930655 
L 508.439323 299.068101 
L 508.075237 298.226748 
L 507.659041 297.409916 
L 507.192376 296.62083 
L 506.677085 295.862602 
L 506.115202 295.138226 
L 505.508943 294.450561 
L 504.860702 293.80232 
L 504.173036 293.196061 
L 503.44866 292.634177 
L 445.308431 252.10563 
L 377.185705 205.526171 
L 376.427477 205.01088 
L 375.638391 204.544216 
L 374.821559 204.128019 
L 373.980206 203.763933 
L 373.117652 203.453395 
L 372.237301 203.197629 
L 371.342628 202.997646 
L 370.437163 202.854234 
L 369.52448 202.767961 
L 368.608181 202.739165 
L 367.691881 202.767961 
L 366.779198 202.854234 
L 365.873734 202.997646 
L 286.35084 218.959851 
L 285.456166 219.159834 
L 284.575815 219.4156 
L 251.021726 229.259129 
L 250.159172 229.569668 
L 249.317819 229.933754 
L 248.500987 230.34995 
L 247.7119 230.816615 
L 246.953673 231.331906 
L 246.229297 231.893789 
L 245.541631 232.500048 
L 185.481416 290.308632 
L 184.833175 290.956873 
L 184.226916 291.644538 
L 183.665032 292.368914 
L 183.149741 293.127142 
L 182.683077 293.916228 
L 182.26688 294.73306 
L 181.902794 295.574413 
L 181.592256 296.436967 
L 181.33649 297.317318 
L 160.626519 374.292375 
L 160.426536 375.187048 
L 160.283124 376.092513 
L 160.19685 377.005196 
L 160.168054 377.921496 
L 160.19685 378.837795 
L 160.283124 379.750478 
L 169.634563 466.305723 
L 169.777974 467.211187 
L 169.977957 468.105861 
L 170.233723 468.986212 
L 170.544262 469.848766 
L 170.908348 470.690119 
L 171.324544 471.50695 
L 207.298705 541.830159 
L 207.76537 542.619246 
L 208.280661 543.377473 
L 208.842544 544.101849 
L 209.448803 544.789515 
L 210.097044 545.437756 
L 210.78471 546.044015 
L 211.509086 546.605898 
L 212.267313 547.121189 
L 213.0564 547.587854 
L 213.873232 548.00405 
z
" clip-path="url(#pc554e67f7a)" style="fill: #f59e0b; fill-opacity: 0.13; stroke: #d97706; stroke-opacity: 0.13; stroke-width: 0.8"/>
    <path d="M 254.986586 324.68078 
L 258.831744 491.675554 
L 258.86054 492.591854 
L 258.946814 493.504537 
L 259.090225 494.410002 
L 272.127185 563.934568 
L 272.327169 564.829242 
L 272.582934 565.709592 
L 272.893473 566.572146 
L 273.257559 567.413499 
L 273.673755 568.230331 
L 274.14042 569.019418 
L 274.655711 569.777645 
L 275.217594 570.502021 
L 275.823853 571.189687 
L 276.472094 571.837928 
L 277.15976 572.444187 
L 277.884136 573.00607 
L 278.642363 573.521361 
L 279.43145 573.988026 
L 280.248281 574.404222 
L 281.089634 574.768308 
L 281.952188 575.078847 
L 282.832539 575.334612 
L 283.727213 575.534595 
L 624.178776 644.762354 
L 625.084241 644.905766 
L 625.996924 644.992039 
L 626.913223 645.020835 
L 627.829522 644.992039 
L 628.742205 644.905766 
L 629.64767 644.762354 
L 630.542344 644.562371 
L 631.422694 644.306605 
L 632.285248 643.996067 
L 633.126601 643.631981 
L 633.943433 643.215784 
L 634.73252 642.74912 
L 635.490747 642.233829 
L 636.215123 641.671945 
L 636.902789 641.065687 
L 637.55103 640.417445 
L 638.157289 639.72978 
L 638.719172 639.005404 
L 639.234463 638.247176 
L 639.701128 637.45809 
L 640.117324 636.641258 
L 640.48141 635.799905 
L 640.791949 634.937351 
L 641.047714 634.057 
L 641.247698 633.162327 
L 641.391109 632.256862 
L 641.477383 631.344179 
L 641.506179 630.42788 
L 641.477383 629.51158 
L 641.391109 628.598897 
L 641.247698 627.693432 
L 641.047714 626.798759 
L 640.791949 625.918408 
L 640.48141 625.055854 
L 508.439323 299.068101 
L 508.075237 298.226748 
L 507.659041 297.409916 
L 507.192376 296.62083 
L 506.677085 295.862602 
L 506.115202 295.138226 
L 505.508943 294.450561 
L 504.860702 293.80232 
L 504.173036 293.196061 
L 503.44866 292.634177 
L 445.308431 252.10563 
L 444.550204 251.590339 
L 443.761117 251.123674 
L 442.944285 250.707478 
L 442.102932 250.343392 
L 441.240378 250.032853 
L 440.360027 249.777088 
L 439.465354 249.577104 
L 438.559889 249.433693 
L 437.647206 249.347419 
L 436.730907 249.318623 
L 435.814608 249.347419 
L 434.901925 249.433693 
L 433.99646 249.577104 
L 347.493021 267.057438 
L 346.598348 267.257421 
L 345.717997 267.513187 
L 344.855443 267.823725 
L 344.01409 268.187811 
L 343.197258 268.604008 
L 262.549331 311.892876 
L 261.760245 312.35954 
L 261.002017 312.874831 
L 260.277641 313.436715 
L 259.589976 314.042974 
L 258.941734 314.691215 
L 258.335476 315.37888 
L 257.773592 316.103256 
L 257.258301 316.861484 
L 256.791637 317.65057 
L 256.37544 318.467402 
L 256.011354 319.308755 
L 255.700816 320.171309 
L 255.44505 321.05166 
L 255.245067 321.946333 
L 255.101655 322.851798 
L 255.015382 323.764481 
z
" clip-path="url(#pc554e67f7a)" style="fill: #f59e0b; fill-opacity: 0.13; stroke: #d97706; stroke-opacity: 0.13; stroke-width: 0.8"/>
    <path d="M 59.873399 433.495811 
L 355.800345 563.806694 
L 356.641698 564.17078 
L 357.504252 564.481319 
L 358.384603 564.737084 
L 359.279276 564.937067 
L 360.184741 565.080479 
L 361.097424 565.166753 
L 362.013723 565.195549 
L 362.930022 565.166753 
L 363.842705 565.080479 
L 364.74817 564.937067 
L 365.642844 564.737084 
L 366.523194 564.481319 
L 367.385748 564.17078 
L 368.227101 563.806694 
L 369.043933 563.390498 
L 369.83302 562.923833 
L 370.591247 562.408542 
L 371.315623 561.846659 
L 372.003289 561.2404 
L 372.65153 560.592159 
L 420.852536 509.569755 
L 421.458795 508.882089 
L 422.020679 508.157714 
L 422.535969 507.399486 
L 423.002634 506.610399 
L 423.418831 505.793568 
L 423.782917 504.952215 
L 424.093455 504.089661 
L 465.522287 365.651363 
L 465.778053 364.771012 
L 465.978036 363.876339 
L 466.121447 362.970874 
L 466.207721 362.058191 
L 466.236517 361.141892 
L 466.207721 360.225592 
L 466.121447 359.312909 
L 465.978036 358.407444 
L 465.778053 357.512771 
L 465.522287 356.63242 
L 465.211748 355.769866 
L 464.847662 354.928513 
L 464.431466 354.111682 
L 463.964801 353.322595 
L 463.449511 352.564367 
L 462.887627 351.839992 
L 462.281368 351.152326 
L 461.633127 350.504085 
L 460.945461 349.897826 
L 298.387187 222.05026 
L 297.662811 221.488376 
L 296.904583 220.973085 
L 296.115497 220.506421 
L 295.298665 220.090224 
L 294.457312 219.726138 
L 293.594758 219.4156 
L 292.714407 219.159834 
L 291.819734 218.959851 
L 290.914269 218.816439 
L 290.001586 218.730165 
L 289.085287 218.70137 
L 288.168987 218.730165 
L 287.256304 218.816439 
L 286.35084 218.959851 
L 285.456166 219.159834 
L 284.575815 219.4156 
L 251.021726 229.259129 
L 250.159172 229.569668 
L 249.317819 229.933754 
L 248.500987 230.34995 
L 247.7119 230.816615 
L 246.953673 231.331906 
L 246.229297 231.893789 
L 245.541631 232.500048 
L 56.097211 409.653903 
L 55.44897 410.302144 
L 54.842711 410.98981 
L 54.280828 411.714186 
L 53.765537 412.472413 
L 53.298872 413.2615 
L 52.882676 414.078331 
L 52.51859 414.919684 
L 52.208051 415.782238 
L 51.952286 416.662589 
L 51.752302 417.557263 
L 51.608891 418.462727 
L 51.522617 419.375411 
L 51.493821 420.29171 
L 51.522617 421.208009 
L 51.608891 422.120692 
L 51.752302 423.026157 
L 51.952286 423.92083 
L 52.208051 424.801181 
L 52.51859 425.663735 
L 52.882676 426.505088 
L 53.298872 427.32192 
L 53.765537 428.111006 
L 54.280828 428.869234 
L 54.842711 429.59361 
L 55.44897 430.281275 
L 56.097211 430.929517 
L 56.784877 431.535775 
L 57.509253 432.097659 
L 58.26748 432.61295 
L 59.056567 433.079614 
z
" clip-path="url(#pc554e67f7a)" style="fill: #f59e0b; fill-opacity: 0.13; stroke: #d97706; stroke-opacity: 0.13; stroke-width: 0.8"/>
    <path d="M 494.20491 425.839727 
L 381.396085 210.30191 
L 380.929421 209.512824 
L 380.41413 208.754596 
L 379.852246 208.03022 
L 379.245988 207.342555 
L 378.597746 206.694313 
L 377.910081 206.088055 
L 377.185705 205.526171 
L 376.427477 205.01088 
L 375.638391 204.544216 
L 374.821559 204.128019 
L 373.980206 203.763933 
L 373.117652 203.453395 
L 372.237301 203.197629 
L 371.342628 202.997646 
L 370.437163 202.854234 
L 369.52448 202.767961 
L 368.608181 202.739165 
L 367.691881 202.767961 
L 366.779198 202.854234 
L 365.873734 202.997646 
L 364.97906 203.197629 
L 364.098709 203.453395 
L 363.236155 203.763933 
L 362.394802 204.128019 
L 361.577971 204.544216 
L 360.788884 205.01088 
L 58.26748 407.97047 
L 57.509253 408.485761 
L 56.784877 409.047644 
L 56.097211 409.653903 
L 55.44897 410.302144 
L 54.842711 410.98981 
L 54.280828 411.714186 
L 53.765537 412.472413 
L 53.298872 413.2615 
L 52.882676 414.078331 
L 52.51859 414.919684 
L 52.208051 415.782238 
L 51.952286 416.662589 
L 51.752302 417.557263 
L 51.608891 418.462727 
L 51.522617 419.375411 
L 51.493821 420.29171 
L 51.522617 421.208009 
L 51.608891 422.120692 
L 51.752302 423.026157 
L 51.952286 423.92083 
L 52.208051 424.801181 
L 52.51859 425.663735 
L 52.882676 426.505088 
L 53.298872 427.32192 
L 53.765537 428.111006 
L 54.280828 428.869234 
L 54.842711 429.59361 
L 55.44897 430.281275 
L 56.097211 430.929517 
L 56.784877 431.535775 
L 57.509253 432.097659 
L 211.509086 546.605898 
L 212.267313 547.121189 
L 213.0564 547.587854 
L 213.873232 548.00405 
L 214.714585 548.368136 
L 215.577139 548.678675 
L 216.457489 548.93444 
L 217.352163 549.134423 
L 218.257628 549.277835 
L 360.184741 565.080479 
L 361.097424 565.166753 
L 362.013723 565.195549 
L 362.930022 565.166753 
L 363.842705 565.080479 
L 364.74817 564.937067 
L 365.642844 564.737084 
L 366.523194 564.481319 
L 367.385748 564.17078 
L 480.931917 515.533573 
L 481.77327 515.169487 
L 482.590102 514.753291 
L 483.379189 514.286626 
L 484.137416 513.771335 
L 484.861792 513.209452 
L 485.549458 512.603193 
L 486.197699 511.954952 
L 486.803958 511.267286 
L 487.365841 510.54291 
L 487.881132 509.784683 
L 488.347797 508.995596 
L 488.763993 508.178765 
L 489.128079 507.337411 
L 489.438618 506.474857 
L 489.694383 505.594507 
L 489.894366 504.699833 
L 490.037778 503.794369 
L 490.124052 502.881685 
L 495.981166 433.786236 
L 496.009961 432.869937 
L 495.981166 431.953637 
L 495.894892 431.040954 
L 495.75148 430.13549 
L 495.551497 429.240816 
L 495.295731 428.360465 
L 494.985193 427.497911 
L 494.621107 426.656558 
z
" clip-path="url(#pc554e67f7a)" style="fill: #f59e0b; fill-opacity: 0.13; stroke: #d97706; stroke-opacity: 0.13; stroke-width: 0.8"/>
    <path d="M 400.452889 310.462405 
L 399.53659 310.491201 
L 271.05006 319.45154 
L 270.137377 319.537814 
L 269.231912 319.681225 
L 268.337239 319.881209 
L 267.456888 320.136974 
L 266.594334 320.447513 
L 265.752981 320.811599 
L 168.547632 364.717394 
L 167.7308 365.133591 
L 166.941713 365.600255 
L 166.183486 366.115546 
L 165.45911 366.67743 
L 164.771445 367.283689 
L 164.123203 367.93193 
L 163.516945 368.619595 
L 162.955061 369.343971 
L 162.43977 370.102199 
L 161.973106 370.891285 
L 161.556909 371.708117 
L 161.192823 372.54947 
L 160.882285 373.412024 
L 160.626519 374.292375 
L 160.426536 375.187048 
L 160.283124 376.092513 
L 160.19685 377.005196 
L 160.168054 377.921496 
L 160.19685 378.837795 
L 160.283124 379.750478 
L 160.426536 380.655943 
L 160.626519 381.550616 
L 205.952119 538.429069 
L 206.207884 539.30942 
L 206.518423 540.171974 
L 206.882509 541.013327 
L 207.298705 541.830159 
L 207.76537 542.619246 
L 208.280661 543.377473 
L 208.842544 544.101849 
L 209.448803 544.789515 
L 210.097044 545.437756 
L 210.78471 546.044015 
L 211.509086 546.605898 
L 212.267313 547.121189 
L 213.0564 547.587854 
L 213.873232 548.00405 
L 214.714585 548.368136 
L 281.089634 574.768308 
L 281.952188 575.078847 
L 282.832539 575.334612 
L 283.727213 575.534595 
L 624.178776 644.762354 
L 625.084241 644.905766 
L 625.996924 644.992039 
L 626.913223 645.020835 
L 627.829522 644.992039 
L 628.742205 644.905766 
L 629.64767 644.762354 
L 630.542344 644.562371 
L 631.422694 644.306605 
L 632.285248 643.996067 
L 633.126601 643.631981 
L 633.943433 643.215784 
L 634.73252 642.74912 
L 635.490747 642.233829 
L 636.215123 641.671945 
L 636.902789 641.065687 
L 637.55103 640.417445 
L 638.157289 639.72978 
L 638.719172 639.005404 
L 639.234463 638.247176 
L 639.701128 637.45809 
L 640.117324 636.641258 
L 640.48141 635.799905 
L 640.791949 634.937351 
L 641.047714 634.057 
L 641.247698 633.162327 
L 641.391109 632.256862 
L 641.477383 631.344179 
L 641.506179 630.42788 
L 641.477383 629.51158 
L 641.391109 628.598897 
L 641.247698 627.693432 
L 641.047714 626.798759 
L 640.791949 625.918408 
L 640.48141 625.055854 
L 640.117324 624.214501 
L 639.701128 623.39767 
L 639.234463 622.608583 
L 463.964801 353.322595 
L 463.449511 352.564367 
L 462.887627 351.839992 
L 462.281368 351.152326 
L 461.633127 350.504085 
L 460.945461 349.897826 
L 460.221086 349.335942 
L 409.030413 313.249412 
L 408.272186 312.734121 
L 407.483099 312.267457 
L 406.666268 311.85126 
L 405.824915 311.487174 
L 404.962361 311.176636 
L 404.08201 310.92087 
L 403.187336 310.720887 
L 402.281872 310.577475 
L 401.369188 310.491201 
z
" clip-path="url(#pc554e67f7a)" style="fill: #f59e0b; fill-opacity: 0.13; stroke: #d97706; stroke-opacity: 0.13; stroke-width: 0.8"/>
    <path d="M 245.541631 232.500048 
L 56.097211 409.653903 
L 55.44897 410.302144 
L 54.842711 410.98981 
L 54.280828 411.714186 
L 53.765537 412.472413 
L 53.298872 413.2615 
L 52.882676 414.078331 
L 52.51859 414.919684 
L 52.208051 415.782238 
L 51.952286 416.662589 
L 51.752302 417.557263 
L 51.608891 418.462727 
L 51.522617 419.375411 
L 51.493821 420.29171 
L 51.522617 421.208009 
L 51.608891 422.120692 
L 51.752302 423.026157 
L 51.952286 423.92083 
L 52.208051 424.801181 
L 52.51859 425.663735 
L 52.882676 426.505088 
L 53.298872 427.32192 
L 53.765537 428.111006 
L 54.280828 428.869234 
L 54.842711 429.59361 
L 55.44897 430.281275 
L 56.097211 430.929517 
L 56.784877 431.535775 
L 57.509253 432.097659 
L 58.26748 432.61295 
L 59.056567 433.079614 
L 59.873399 433.495811 
L 60.714752 433.859897 
L 61.577306 434.170435 
L 268.915228 505.55428 
L 269.795579 505.810046 
L 270.690253 506.010029 
L 271.595717 506.15344 
L 272.5084 506.239714 
L 426.966241 511.35931 
L 427.882541 511.388105 
L 428.79884 511.35931 
L 429.711523 511.273036 
L 430.616988 511.129624 
L 431.511661 510.929641 
L 432.392012 510.673875 
L 433.254566 510.363337 
L 434.095919 509.999251 
L 434.912751 509.583054 
L 435.701837 509.11639 
L 436.460065 508.601099 
L 437.184441 508.039215 
L 437.872106 507.432957 
L 438.520348 506.784715 
L 439.126606 506.09705 
L 492.661071 442.171837 
L 493.222955 441.447461 
L 493.738246 440.689233 
L 531.417693 384.391265 
L 531.884357 383.602179 
L 532.300554 382.785347 
L 532.66464 381.943994 
L 532.975178 381.08144 
L 533.230944 380.201089 
L 533.430927 379.306416 
L 533.574338 378.400951 
L 533.660612 377.488268 
L 533.689408 376.571969 
L 533.660612 375.655669 
L 533.574338 374.742986 
L 533.430927 373.837522 
L 533.230944 372.942848 
L 532.975178 372.062497 
L 532.66464 371.199943 
L 532.300554 370.35859 
L 531.884357 369.541759 
L 531.417693 368.752672 
L 530.902402 367.994445 
L 448.536856 255.334055 
L 447.974972 254.609679 
L 447.368714 253.922013 
L 446.720472 253.273772 
L 446.032807 252.667513 
L 445.308431 252.10563 
L 377.185705 205.526171 
L 376.427477 205.01088 
L 375.638391 204.544216 
L 374.821559 204.128019 
L 373.980206 203.763933 
L 373.117652 203.453395 
L 372.237301 203.197629 
L 371.342628 202.997646 
L 370.437163 202.854234 
L 369.52448 202.767961 
L 368.608181 202.739165 
L 367.691881 202.767961 
L 366.779198 202.854234 
L 365.873734 202.997646 
L 286.35084 218.959851 
L 285.456166 219.159834 
L 284.575815 219.4156 
L 251.021726 229.259129 
L 250.159172 229.569668 
L 249.317819 229.933754 
L 248.500987 230.34995 
L 247.7119 230.816615 
L 246.953673 231.331906 
L 246.229297 231.893789 
z
" clip-path="url(#pc554e67f7a)" style="fill: #f59e0b; fill-opacity: 0.13; stroke: #d97706; stroke-opacity: 0.13; stroke-width: 0.8"/>
    <path d="M 474.643593 516.529546 
L 475.559892 516.558342 
L 476.476191 516.529546 
L 477.388874 516.443272 
L 478.294339 516.299861 
L 479.189012 516.099877 
L 480.069363 515.844112 
L 480.931917 515.533573 
L 481.77327 515.169487 
L 482.590102 514.753291 
L 483.379189 514.286626 
L 484.137416 513.771335 
L 484.861792 513.209452 
L 485.549458 512.603193 
L 486.197699 511.954952 
L 486.803958 511.267286 
L 487.365841 510.54291 
L 487.881132 509.784683 
L 488.347797 508.995596 
L 488.763993 508.178765 
L 489.128079 507.337411 
L 489.438618 506.474857 
L 489.694383 505.594507 
L 489.894366 504.699833 
L 490.037778 503.794369 
L 509.349022 306.269109 
L 509.435296 305.356426 
L 509.464092 304.440126 
L 509.435296 303.523827 
L 509.349022 302.611144 
L 509.20561 301.705679 
L 509.005627 300.811006 
L 508.749862 299.930655 
L 508.439323 299.068101 
L 508.075237 298.226748 
L 507.659041 297.409916 
L 507.192376 296.62083 
L 506.677085 295.862602 
L 506.115202 295.138226 
L 505.508943 294.450561 
L 504.860702 293.80232 
L 504.173036 293.196061 
L 503.44866 292.634177 
L 445.308431 252.10563 
L 444.550204 251.590339 
L 443.761117 251.123674 
L 442.944285 250.707478 
L 442.102932 250.343392 
L 441.240378 250.032853 
L 440.360027 249.777088 
L 439.465354 249.577104 
L 291.819734 218.959851 
L 290.914269 218.816439 
L 290.001586 218.730165 
L 289.085287 218.70137 
L 288.168987 218.730165 
L 287.256304 218.816439 
L 286.35084 218.959851 
L 285.456166 219.159834 
L 284.575815 219.4156 
L 283.713261 219.726138 
L 282.871908 220.090224 
L 282.055077 220.506421 
L 281.26599 220.973085 
L 280.507763 221.488376 
L 279.783387 222.05026 
L 279.095721 222.656518 
L 278.44748 223.30476 
L 277.841221 223.992425 
L 277.279338 224.716801 
L 175.459186 361.110892 
L 174.943895 361.86912 
L 174.477231 362.658207 
L 174.061034 363.475038 
L 173.696948 364.316391 
L 173.38641 365.178945 
L 173.130644 366.059296 
L 172.930661 366.953969 
L 172.787249 367.859434 
L 172.700976 368.772117 
L 169.043879 458.85513 
L 169.015083 459.77143 
L 169.043879 460.687729 
L 169.130152 461.600412 
L 169.273564 462.505877 
L 169.473547 463.40055 
L 169.729313 464.280901 
L 170.039851 465.143455 
L 170.403937 465.984808 
L 170.820134 466.80164 
L 171.286798 467.590726 
L 171.802089 468.348954 
L 172.363973 469.07333 
L 172.970231 469.760995 
L 173.618473 470.409237 
L 174.306138 471.015495 
L 175.030514 471.577379 
L 175.788742 472.09267 
L 176.577828 472.559334 
L 177.39466 472.975531 
L 178.236013 473.339617 
L 179.098567 473.650155 
L 268.915228 505.55428 
L 269.795579 505.810046 
L 270.690253 506.010029 
L 271.595717 506.15344 
L 272.5084 506.239714 
z
" clip-path="url(#pc554e67f7a)" style="fill: #f59e0b; fill-opacity: 0.13; stroke: #d97706; stroke-opacity: 0.13; stroke-width: 0.8"/>
    <path d="M 185.481416 290.308632 
L 56.097211 409.653903 
L 55.44897 410.302144 
L 54.842711 410.98981 
L 54.280828 411.714186 
L 53.765537 412.472413 
L 53.298872 413.2615 
L 52.882676 414.078331 
L 52.51859 414.919684 
L 52.208051 415.782238 
L 51.952286 416.662589 
L 51.752302 417.557263 
L 51.608891 418.462727 
L 51.522617 419.375411 
L 51.493821 420.29171 
L 51.522617 421.208009 
L 51.608891 422.120692 
L 51.752302 423.026157 
L 51.952286 423.92083 
L 52.208051 424.801181 
L 52.51859 425.663735 
L 52.882676 426.505088 
L 53.298872 427.32192 
L 53.765537 428.111006 
L 54.280828 428.869234 
L 54.842711 429.59361 
L 55.44897 430.281275 
L 56.097211 430.929517 
L 56.784877 431.535775 
L 57.509253 432.097659 
L 211.509086 546.605898 
L 212.267313 547.121189 
L 213.0564 547.587854 
L 213.873232 548.00405 
L 214.714585 548.368136 
L 281.089634 574.768308 
L 281.952188 575.078847 
L 282.832539 575.334612 
L 283.727213 575.534595 
L 284.632677 575.678007 
L 285.545361 575.764281 
L 286.46166 575.793077 
L 287.377959 575.764281 
L 288.290642 575.678007 
L 289.196107 575.534595 
L 290.09078 575.334612 
L 290.971131 575.078847 
L 291.833685 574.768308 
L 292.675038 574.404222 
L 293.49187 573.988026 
L 294.280956 573.521361 
L 295.039184 573.00607 
L 295.76356 572.444187 
L 296.451225 571.837928 
L 297.099467 571.189687 
L 297.705725 570.502021 
L 298.267609 569.777645 
L 298.7829 569.019418 
L 299.249564 568.230331 
L 299.665761 567.413499 
L 300.029847 566.572146 
L 300.340385 565.709592 
L 300.596151 564.829242 
L 300.796134 563.934568 
L 300.939546 563.029103 
L 301.02582 562.11642 
L 306.807258 483.740586 
L 306.836054 482.824286 
L 306.807258 481.907987 
L 306.720984 480.995304 
L 286.444246 332.186717 
L 286.300834 331.281252 
L 286.100851 330.386579 
L 283.714033 321.05166 
L 283.458267 320.171309 
L 283.147728 319.308755 
L 282.783642 318.467402 
L 282.367446 317.65057 
L 281.900781 316.861484 
L 281.385491 316.103256 
L 280.823607 315.37888 
L 280.217348 314.691215 
L 279.569107 314.042974 
L 278.881441 313.436715 
L 278.157066 312.874831 
L 277.398838 312.35954 
L 276.609751 311.892876 
L 275.79292 311.476679 
L 274.951567 311.112593 
L 274.089013 310.802055 
L 199.980453 287.067713 
L 199.100102 286.811947 
L 198.205429 286.611964 
L 197.299964 286.468553 
L 196.387281 286.382279 
L 195.470981 286.353483 
L 194.554682 286.382279 
L 193.641999 286.468553 
L 192.736534 286.611964 
L 191.841861 286.811947 
L 190.96151 287.067713 
L 190.098956 287.378251 
L 189.257603 287.742337 
L 188.440771 288.158534 
L 187.651685 288.625198 
L 186.893457 289.140489 
L 186.169081 289.702373 
z
" clip-path="url(#pc554e67f7a)" style="fill: #f59e0b; fill-opacity: 0.13; stroke: #d97706; stroke-opacity: 0.13; stroke-width: 0.8"/>
    <path d="M 60.714752 433.859897 
L 350.491439 549.096907 
L 351.353993 549.407446 
L 352.234344 549.663211 
L 353.129017 549.863194 
L 354.034482 550.006606 
L 354.947165 550.09288 
L 355.863465 550.121676 
L 356.779764 550.09288 
L 357.692447 550.006606 
L 358.597912 549.863194 
L 359.492585 549.663211 
L 360.372936 549.407446 
L 361.23549 549.096907 
L 362.076843 548.732821 
L 362.893675 548.316625 
L 363.682761 547.84996 
L 364.440989 547.334669 
L 365.165365 546.772786 
L 365.85303 546.166527 
L 366.501272 545.518286 
L 367.10753 544.83062 
L 367.669414 544.106244 
L 368.184705 543.348017 
L 368.651369 542.55893 
L 369.067566 541.742098 
L 369.431652 540.900745 
L 369.74219 540.038191 
L 369.997956 539.157841 
L 370.197939 538.263167 
L 414.787364 327.789808 
L 414.930775 326.884344 
L 415.017049 325.97166 
L 415.045845 325.055361 
L 415.017049 324.139062 
L 414.930775 323.226379 
L 414.787364 322.320914 
L 414.58738 321.426241 
L 414.331615 320.54589 
L 382.486906 212.822649 
L 382.176368 211.960095 
L 381.812282 211.118742 
L 381.396085 210.30191 
L 380.929421 209.512824 
L 380.41413 208.754596 
L 379.852246 208.03022 
L 379.245988 207.342555 
L 378.597746 206.694313 
L 377.910081 206.088055 
L 377.185705 205.526171 
L 376.427477 205.01088 
L 375.638391 204.544216 
L 374.821559 204.128019 
L 373.980206 203.763933 
L 373.117652 203.453395 
L 372.237301 203.197629 
L 371.342628 202.997646 
L 370.437163 202.854234 
L 369.52448 202.767961 
L 368.608181 202.739165 
L 367.691881 202.767961 
L 366.779198 202.854234 
L 365.873734 202.997646 
L 286.35084 218.959851 
L 285.456166 219.159834 
L 284.575815 219.4156 
L 251.021726 229.259129 
L 250.159172 229.569668 
L 249.317819 229.933754 
L 248.500987 230.34995 
L 247.7119 230.816615 
L 246.953673 231.331906 
L 246.229297 231.893789 
L 245.541631 232.500048 
L 56.097211 409.653903 
L 55.44897 410.302144 
L 54.842711 410.98981 
L 54.280828 411.714186 
L 53.765537 412.472413 
L 53.298872 413.2615 
L 52.882676 414.078331 
L 52.51859 414.919684 
L 52.208051 415.782238 
L 51.952286 416.662589 
L 51.752302 417.557263 
L 51.608891 418.462727 
L 51.522617 419.375411 
L 51.493821 420.29171 
L 51.522617 421.208009 
L 51.608891 422.120692 
L 51.752302 423.026157 
L 51.952286 423.92083 
L 52.208051 424.801181 
L 52.51859 425.663735 
L 52.882676 426.505088 
L 53.298872 427.32192 
L 53.765537 428.111006 
L 54.280828 428.869234 
L 54.842711 429.59361 
L 55.44897 430.281275 
L 56.097211 430.929517 
L 56.784877 431.535775 
L 57.509253 432.097659 
L 58.26748 432.61295 
L 59.056567 433.079614 
L 59.873399 433.495811 
z
" clip-path="url(#pc554e67f7a)" style="fill: #f59e0b; fill-opacity: 0.13; stroke: #d97706; stroke-opacity: 0.13; stroke-width: 0.8"/>
    <path d="M 59.873399 433.495811 
L 355.800345 563.806694 
L 356.641698 564.17078 
L 357.504252 564.481319 
L 358.384603 564.737084 
L 359.279276 564.937067 
L 360.184741 565.080479 
L 361.097424 565.166753 
L 362.013723 565.195549 
L 362.930022 565.166753 
L 363.842705 565.080479 
L 364.74817 564.937067 
L 365.642844 564.737084 
L 366.523194 564.481319 
L 367.385748 564.17078 
L 480.931917 515.533573 
L 481.77327 515.169487 
L 482.590102 514.753291 
L 483.379189 514.286626 
L 484.137416 513.771335 
L 484.861792 513.209452 
L 485.549458 512.603193 
L 486.197699 511.954952 
L 486.803958 511.267286 
L 487.365841 510.54291 
L 487.881132 509.784683 
L 488.347797 508.995596 
L 488.763993 508.178765 
L 489.128079 507.337411 
L 489.438618 506.474857 
L 489.694383 505.594507 
L 489.894366 504.699833 
L 490.037778 503.794369 
L 490.124052 502.881685 
L 490.152848 501.965386 
L 490.124052 501.049087 
L 490.037778 500.136404 
L 489.894366 499.230939 
L 465.978036 358.407444 
L 465.778053 357.512771 
L 465.522287 356.63242 
L 465.211748 355.769866 
L 464.847662 354.928513 
L 464.431466 354.111682 
L 463.964801 353.322595 
L 463.449511 352.564367 
L 462.887627 351.839992 
L 462.281368 351.152326 
L 461.633127 350.504085 
L 460.945461 349.897826 
L 460.221086 349.335942 
L 459.462858 348.820652 
L 458.673771 348.353987 
L 457.85694 347.93779 
L 457.015587 347.573705 
L 456.153033 347.263166 
L 455.272682 347.0074 
L 454.378009 346.807417 
L 453.472544 346.664006 
L 452.559861 346.577732 
L 451.643561 346.548936 
L 450.727262 346.577732 
L 449.814579 346.664006 
L 64.257795 405.813824 
L 63.35233 405.957235 
L 62.457656 406.157219 
L 61.577306 406.412984 
L 60.714752 406.723523 
L 59.873399 407.087609 
L 59.056567 407.503805 
L 58.26748 407.97047 
L 57.509253 408.485761 
L 56.784877 409.047644 
L 56.097211 409.653903 
L 55.44897 410.302144 
L 54.842711 410.98981 
L 54.280828 411.714186 
L 53.765537 412.472413 
L 53.298872 413.2615 
L 52.882676 414.078331 
L 52.51859 414.919684 
L 52.208051 415.782238 
L 51.952286 416.662589 
L 51.752302 417.557263 
L 51.608891 418.462727 
L 51.522617 419.375411 
L 51.493821 420.29171 
L 51.522617 421.208009 
L 51.608891 422.120692 
L 51.752302 423.026157 
L 51.952286 423.92083 
L 52.208051 424.801181 
L 52.51859 425.663735 
L 52.882676 426.505088 
L 53.298872 427.32192 
L 53.765537 428.111006 
L 54.280828 428.869234 
L 54.842711 429.59361 
L 55.44897 430.281275 
L 56.097211 430.929517 
L 56.784877 431.535775 
L 57.509253 432.097659 
L 58.26748 432.61295 
L 59.056567 433.079614 
z
" clip-path="url(#pc554e67f7a)" style="fill: #f59e0b; fill-opacity: 0.13; stroke: #d97706; stroke-opacity: 0.13; stroke-width: 0.8"/>
   </g>
   <g id="LineCollection_1"/>
   <g id="PathCollection_1">
    <defs>
     <path id="m82c9e98f7c" d="M 0 6 
C 1.591219 6 3.117479 5.367802 4.242641 4.242641 
C 5.367802 3.117479 6 1.591219 6 0 
C 6 -1.591219 5.367802 -3.117479 4.242641 -4.242641 
C 3.117479 -5.367802 1.591219 -6 0 -6 
C -1.591219 -6 -3.117479 -5.367802 -4.242641 -4.242641 
C -5.367802 -3.117479 -6 -1.591219 -6 0 
C -6 1.591219 -5.367802 3.117479 -4.242641 4.242641 
C -3.117479 5.367802 -1.591219 6 0 6 
z
" style="stroke: #334155; stroke-width: 0.8"/>
    </defs>
    <g clip-path="url(#pc554e67f7a)">
     <use xlink:href="#m82c9e98f7c" x="481.417006" y="432.869937" style="fill: #38bdf8; stroke: #334155; stroke-width: 0.8"/>
     <use xlink:href="#m82c9e98f7c" x="184.112449" y="464.47674" style="fill: #38bdf8; stroke: #334155; stroke-width: 0.8"/>
     <use xlink:href="#m82c9e98f7c" x="187.265135" y="369.688417" style="fill: #38bdf8; stroke: #334155; stroke-width: 0.8"/>
     <use xlink:href="#m82c9e98f7c" x="66.086777" y="420.29171" style="fill: #38bdf8; stroke: #334155; stroke-width: 0.8"/>
     <use xlink:href="#m82c9e98f7c" x="369.134355" y="347.138013" style="fill: #38bdf8; stroke: #334155; stroke-width: 0.8"/>
     <use xlink:href="#m82c9e98f7c" x="358.594324" y="378.178172" style="fill: #38bdf8; stroke: #334155; stroke-width: 0.8"/>
     <use xlink:href="#m82c9e98f7c" x="362.921899" y="443.296037" style="fill: #38bdf8; stroke: #334155; stroke-width: 0.8"/>
     <use xlink:href="#m82c9e98f7c" x="355.863465" y="535.52872" style="fill: #38bdf8; stroke: #334155; stroke-width: 0.8"/>
     <use xlink:href="#m82c9e98f7c" x="400.452889" y="325.055361" style="fill: #38bdf8; stroke: #334155; stroke-width: 0.8"/>
     <use xlink:href="#m82c9e98f7c" x="368.608181" y="217.33212" style="fill: #38bdf8; stroke: #334155; stroke-width: 0.8"/>
     <use xlink:href="#m82c9e98f7c" x="362.013723" y="550.602593" style="fill: #38bdf8; stroke: #334155; stroke-width: 0.8"/>
     <use xlink:href="#m82c9e98f7c" x="434.332149" y="416.274259" style="fill: #38bdf8; stroke: #334155; stroke-width: 0.8"/>
     <use xlink:href="#m82c9e98f7c" x="275.362134" y="409.052132" style="fill: #38bdf8; stroke: #334155; stroke-width: 0.8"/>
     <use xlink:href="#m82c9e98f7c" x="427.882541" y="496.79515" style="fill: #38bdf8; stroke: #334155; stroke-width: 0.8"/>
     <use xlink:href="#m82c9e98f7c" x="280.316815" y="414.424398" style="fill: #38bdf8; stroke: #334155; stroke-width: 0.8"/>
     <use xlink:href="#m82c9e98f7c" x="475.559892" y="501.965386" style="fill: #38bdf8; stroke: #334155; stroke-width: 0.8"/>
     <use xlink:href="#m82c9e98f7c" x="292.243098" y="482.824286" style="fill: #38bdf8; stroke: #334155; stroke-width: 0.8"/>
     <use xlink:href="#m82c9e98f7c" x="410.214729" y="499.580189" style="fill: #38bdf8; stroke: #334155; stroke-width: 0.8"/>
     <use xlink:href="#m82c9e98f7c" x="220.08661" y="534.799949" style="fill: #38bdf8; stroke: #334155; stroke-width: 0.8"/>
     <use xlink:href="#m82c9e98f7c" x="350.227469" y="281.391913" style="fill: #38bdf8; stroke: #334155; stroke-width: 0.8"/>
     <use xlink:href="#m82c9e98f7c" x="494.871136" y="304.440126" style="fill: #38bdf8; stroke: #334155; stroke-width: 0.8"/>
     <use xlink:href="#m82c9e98f7c" x="273.4247" y="491.675554" style="fill: #38bdf8; stroke: #334155; stroke-width: 0.8"/>
     <use xlink:href="#m82c9e98f7c" x="289.085287" y="233.294325" style="fill: #38bdf8; stroke: #334155; stroke-width: 0.8"/>
     <use xlink:href="#m82c9e98f7c" x="183.608038" y="459.77143" style="fill: #38bdf8; stroke: #334155; stroke-width: 0.8"/>
     <use xlink:href="#m82c9e98f7c" x="269.579541" y="324.68078" style="fill: #38bdf8; stroke: #334155; stroke-width: 0.8"/>
     <use xlink:href="#m82c9e98f7c" x="436.730907" y="263.911579" style="fill: #38bdf8; stroke: #334155; stroke-width: 0.8"/>
     <use xlink:href="#m82c9e98f7c" x="255.531197" y="243.137855" style="fill: #38bdf8; stroke: #334155; stroke-width: 0.8"/>
     <use xlink:href="#m82c9e98f7c" x="271.96636" y="334.0157" style="fill: #38bdf8; stroke: #334155; stroke-width: 0.8"/>
     <use xlink:href="#m82c9e98f7c" x="195.470981" y="300.946439" style="fill: #38bdf8; stroke: #334155; stroke-width: 0.8"/>
     <use xlink:href="#m82c9e98f7c" x="519.096453" y="376.571969" style="fill: #38bdf8; stroke: #334155; stroke-width: 0.8"/>
     <use xlink:href="#m82c9e98f7c" x="451.643561" y="361.141892" style="fill: #38bdf8; stroke: #334155; stroke-width: 0.8"/>
     <use xlink:href="#m82c9e98f7c" x="286.46166" y="561.200121" style="fill: #38bdf8; stroke: #334155; stroke-width: 0.8"/>
     <use xlink:href="#m82c9e98f7c" x="174.76101" y="377.921496" style="fill: #38bdf8; stroke: #334155; stroke-width: 0.8"/>
     <use xlink:href="#m82c9e98f7c" x="626.913223" y="630.42788" style="fill: #38bdf8; stroke: #334155; stroke-width: 0.8"/>
    </g>
   </g>
   <g id="text_2">
    <g clip-path="url(#pc554e67f7a)">
     <text style="font-size: 8.2px; font-family: 'DejaVu Sans', 'Bitstream Vera Sans', 'Computer Modern Sans Serif', 'Lucida Grande', 'Verdana', 'Geneva', 'Lucid', 'Arial', 'Helvetica', 'Avant Garde', sans-serif; text-anchor: middle; fill: #111827" x="358.594324" y="380.44086" transform="rotate(-0 358.594324 380.44086)">fair</text>
    </g>
   </g>
   <g id="text_3">
    <g clip-path="url(#pc554e67f7a)">
     <text style="font-size: 8.2px; font-family: 'DejaVu Sans', 'Bitstream Vera Sans', 'Computer Modern Sans Serif', 'Lucida Grande', 'Verdana', 'Geneva', 'Lucid', 'Arial', 'Helvetica', 'Avant Garde', sans-serif; text-anchor: middle; fill: #111827" x="292.243098" y="485.086974" transform="rotate(-0 292.243098 485.086974)">sacred</text>
    </g>
   </g>
   <g id="text_4">
    <g clip-path="url(#pc554e67f7a)">
     <text style="font-size: 8.2px; font-family: 'DejaVu Sans', 'Bitstream Vera Sans', 'Computer Modern Sans Serif', 'Lucida Grande', 'Verdana', 'Geneva', 'Lucid', 'Arial', 'Helvetica', 'Avant Garde', sans-serif; text-anchor: middle; fill: #111827" x="275.362134" y="411.31482" transform="rotate(-0 275.362134 411.31482)">long</text>
    </g>
   </g>
   <g id="text_5">
    <g clip-path="url(#pc554e67f7a)">
     <text style="font-size: 8.2px; font-family: 'DejaVu Sans', 'Bitstream Vera Sans', 'Computer Modern Sans Serif', 'Lucida Grande', 'Verdana', 'Geneva', 'Lucid', 'Arial', 'Helvetica', 'Avant Garde', sans-serif; text-anchor: middle; fill: #111827" x="451.643561" y="363.404579" transform="rotate(-0 451.643561 363.404579)">high</text>
    </g>
   </g>
   <g id="text_6">
    <g clip-path="url(#pc554e67f7a)">
     <text style="font-size: 8.2px; font-family: 'DejaVu Sans', 'Bitstream Vera Sans', 'Computer Modern Sans Serif', 'Lucida Grande', 'Verdana', 'Geneva', 'Lucid', 'Arial', 'Helvetica', 'Avant Garde', sans-serif; text-anchor: middle; fill: #111827" x="481.417006" y="435.132624" transform="rotate(-0 481.417006 435.132624)">brave</text>
    </g>
   </g>
   <g id="text_7">
    <g clip-path="url(#pc554e67f7a)">
     <text style="font-size: 8.2px; font-family: 'DejaVu Sans', 'Bitstream Vera Sans', 'Computer Modern Sans Serif', 'Lucida Grande', 'Verdana', 'Geneva', 'Lucid', 'Arial', 'Helvetica', 'Avant Garde', sans-serif; text-anchor: middle; fill: #111827" x="400.452889" y="327.318049" transform="rotate(-0 400.452889 327.318049)">good</text>
    </g>
   </g>
   <g id="text_8">
    <g clip-path="url(#pc554e67f7a)">
     <text style="font-size: 8.2px; font-family: 'DejaVu Sans', 'Bitstream Vera Sans', 'Computer Modern Sans Serif', 'Lucida Grande', 'Verdana', 'Geneva', 'Lucid', 'Arial', 'Helvetica', 'Avant Garde', sans-serif; text-anchor: middle; fill: #111827" x="369.134355" y="349.400701" transform="rotate(-0 369.134355 349.400701)">divine</text>
    </g>
   </g>
   <g id="text_9">
    <g clip-path="url(#pc554e67f7a)">
     <text style="font-size: 8.2px; font-family: 'DejaVu Sans', 'Bitstream Vera Sans', 'Computer Modern Sans Serif', 'Lucida Grande', 'Verdana', 'Geneva', 'Lucid', 'Arial', 'Helvetica', 'Avant Garde', sans-serif; text-anchor: middle; fill: #111827" x="280.316815" y="416.687085" transform="rotate(-0 280.316815 416.687085)">old</text>
    </g>
   </g>
   <g id="text_10">
    <g clip-path="url(#pc554e67f7a)">
     <text style="font-size: 8.2px; font-family: 'DejaVu Sans', 'Bitstream Vera Sans', 'Computer Modern Sans Serif', 'Lucida Grande', 'Verdana', 'Geneva', 'Lucid', 'Arial', 'Helvetica', 'Avant Garde', sans-serif; text-anchor: middle; fill: #111827" x="350.227469" y="283.6546" transform="rotate(-0 350.227469 283.6546)">wise</text>
    </g>
   </g>
   <g id="text_11">
    <g clip-path="url(#pc554e67f7a)">
     <text style="font-size: 8.2px; font-family: 'DejaVu Sans', 'Bitstream Vera Sans', 'Computer Modern Sans Serif', 'Lucida Grande', 'Verdana', 'Geneva', 'Lucid', 'Arial', 'Helvetica', 'Avant Garde', sans-serif; text-anchor: middle; fill: #111827" x="475.559892" y="504.228074" transform="rotate(-0 475.559892 504.228074)">royal</text>
    </g>
   </g>
   <g id="text_12">
    <g clip-path="url(#pc554e67f7a)">
     <text style="font-size: 8.2px; font-family: 'DejaVu Sans', 'Bitstream Vera Sans', 'Computer Modern Sans Serif', 'Lucida Grande', 'Verdana', 'Geneva', 'Lucid', 'Arial', 'Helvetica', 'Avant Garde', sans-serif; text-anchor: middle; fill: #111827" x="519.096453" y="378.834656" transform="rotate(-0 519.096453 378.834656)">prudent</text>
    </g>
   </g>
   <g id="text_13">
    <g clip-path="url(#pc554e67f7a)">
     <text style="font-size: 8.2px; font-family: 'DejaVu Sans', 'Bitstream Vera Sans', 'Computer Modern Sans Serif', 'Lucida Grande', 'Verdana', 'Geneva', 'Lucid', 'Arial', 'Helvetica', 'Avant Garde', sans-serif; text-anchor: middle; fill: #111827" x="362.921899" y="445.558725" transform="rotate(-0 362.921899 445.558725)">godlike</text>
    </g>
   </g>
   <g id="text_14">
    <g clip-path="url(#pc554e67f7a)">
     <text style="font-size: 8.2px; font-family: 'DejaVu Sans', 'Bitstream Vera Sans', 'Computer Modern Sans Serif', 'Lucida Grande', 'Verdana', 'Geneva', 'Lucid', 'Arial', 'Helvetica', 'Avant Garde', sans-serif; text-anchor: middle; fill: #111827" x="273.4247" y="493.938242" transform="rotate(-0 273.4247 493.938242)">glad</text>
    </g>
   </g>
   <g id="text_15">
    <g clip-path="url(#pc554e67f7a)">
     <text style="font-size: 8.2px; font-family: 'DejaVu Sans', 'Bitstream Vera Sans', 'Computer Modern Sans Serif', 'Lucida Grande', 'Verdana', 'Geneva', 'Lucid', 'Arial', 'Helvetica', 'Avant Garde', sans-serif; text-anchor: middle; fill: #111827" x="220.08661" y="537.062636" transform="rotate(-0 220.08661 537.062636)">wide</text>
    </g>
   </g>
   <g id="text_16">
    <g clip-path="url(#pc554e67f7a)">
     <text style="font-size: 8.2px; font-family: 'DejaVu Sans', 'Bitstream Vera Sans', 'Computer Modern Sans Serif', 'Lucida Grande', 'Verdana', 'Geneva', 'Lucid', 'Arial', 'Helvetica', 'Avant Garde', sans-serif; text-anchor: middle; fill: #111827" x="427.882541" y="499.057837" transform="rotate(-0 427.882541 499.057837)">noble</text>
    </g>
   </g>
   <g id="text_17">
    <g clip-path="url(#pc554e67f7a)">
     <text style="font-size: 8.2px; font-family: 'DejaVu Sans', 'Bitstream Vera Sans', 'Computer Modern Sans Serif', 'Lucida Grande', 'Verdana', 'Geneva', 'Lucid', 'Arial', 'Helvetica', 'Avant Garde', sans-serif; text-anchor: middle; fill: #111827" x="66.086777" y="422.554397" transform="rotate(-0 66.086777 422.554397)">deep</text>
    </g>
   </g>
  </g>
  <g id="axes_2">
   <g id="LineCollection_2">
    <path d="M 1050.743282 551.29729 
L 1003.593692 452.545475 
" clip-path="url(#p26d755cbce)" style="fill: none; stroke: #64748b; stroke-width: 0.65"/>
    <path d="M 972.175087 392.915861 
L 1003.593692 452.545475 
" clip-path="url(#p26d755cbce)" style="fill: none; stroke: #64748b; stroke-width: 0.65"/>
    <path d="M 1026.912204 620.686459 
L 1003.593692 452.545475 
" clip-path="url(#p26d755cbce)" style="fill: none; stroke: #64748b; stroke-width: 0.65"/>
    <path d="M 953.756889 424.927032 
L 1003.593692 452.545475 
" clip-path="url(#p26d755cbce)" style="fill: none; stroke: #64748b; stroke-width: 0.65"/>
    <path d="M 1138.184959 478.27041 
L 1003.593692 452.545475 
" clip-path="url(#p26d755cbce)" style="fill: none; stroke: #64748b; stroke-width: 0.65"/>
    <path d="M 1022.649093 567.572257 
L 1003.593692 452.545475 
" clip-path="url(#p26d755cbce)" style="fill: none; stroke: #64748b; stroke-width: 0.65"/>
    <path d="M 933.750489 479.916661 
L 1003.593692 452.545475 
" clip-path="url(#p26d755cbce)" style="fill: none; stroke: #64748b; stroke-width: 0.65"/>
    <path d="M 1105.327603 466.647995 
L 1003.593692 452.545475 
" clip-path="url(#p26d755cbce)" style="fill: none; stroke: #64748b; stroke-width: 0.65"/>
    <path d="M 986.541535 554.358699 
L 1003.593692 452.545475 
" clip-path="url(#p26d755cbce)" style="fill: none; stroke: #64748b; stroke-width: 0.65"/>
    <path d="M 890.312593 368.326634 
L 1003.593692 452.545475 
" clip-path="url(#p26d755cbce)" style="fill: none; stroke: #64748b; stroke-width: 0.65"/>
    <path d="M 1097.328347 381.719813 
L 1003.593692 452.545475 
" clip-path="url(#p26d755cbce)" style="fill: none; stroke: #64748b; stroke-width: 0.65"/>
    <path d="M 828.867977 416.659144 
L 1003.593692 452.545475 
" clip-path="url(#p26d755cbce)" style="fill: none; stroke: #64748b; stroke-width: 0.65"/>
    <path d="M 1121.293709 416.268997 
L 1003.593692 452.545475 
" clip-path="url(#p26d755cbce)" style="fill: none; stroke: #64748b; stroke-width: 0.65"/>
    <path d="M 889.096371 505.533984 
L 1003.593692 452.545475 
" clip-path="url(#p26d755cbce)" style="fill: none; stroke: #64748b; stroke-width: 0.65"/>
    <path d="M 1081.250836 569.778962 
L 1003.593692 452.545475 
" clip-path="url(#p26d755cbce)" style="fill: none; stroke: #64748b; stroke-width: 0.65"/>
    <path d="M 1099.413813 525.169018 
L 1003.593692 452.545475 
" clip-path="url(#p26d755cbce)" style="fill: none; stroke: #64748b; stroke-width: 0.65"/>
    <path d="M 1046.16853 342.330084 
L 1003.593692 452.545475 
" clip-path="url(#p26d755cbce)" style="fill: none; stroke: #64748b; stroke-width: 0.65"/>
    <path d="M 948.708017 557.243891 
L 1003.593692 452.545475 
" clip-path="url(#p26d755cbce)" style="fill: none; stroke: #64748b; stroke-width: 0.65"/>
    <path d="M 868.313442 444.661554 
L 1003.593692 452.545475 
" clip-path="url(#p26d755cbce)" style="fill: none; stroke: #64748b; stroke-width: 0.65"/>
    <path d="M 1089.112216 344.271614 
L 1003.593692 452.545475 
" clip-path="url(#p26d755cbce)" style="fill: none; stroke: #64748b; stroke-width: 0.65"/>
    <path d="M 1050.743282 551.29729 
L 1048.042861 491.051184 
" clip-path="url(#p26d755cbce)" style="fill: none; stroke: #64748b; stroke-width: 0.65"/>
    <path d="M 953.756889 424.927032 
L 1048.042861 491.051184 
" clip-path="url(#p26d755cbce)" style="fill: none; stroke: #64748b; stroke-width: 0.65"/>
    <path d="M 1138.184959 478.27041 
L 1048.042861 491.051184 
" clip-path="url(#p26d755cbce)" style="fill: none; stroke: #64748b; stroke-width: 0.65"/>
    <path d="M 1022.649093 567.572257 
L 1048.042861 491.051184 
" clip-path="url(#p26d755cbce)" style="fill: none; stroke: #64748b; stroke-width: 0.65"/>
    <path d="M 948.708017 557.243891 
L 1048.042861 491.051184 
" clip-path="url(#p26d755cbce)" style="fill: none; stroke: #64748b; stroke-width: 0.65"/>
    <path d="M 933.750489 479.916661 
L 1048.042861 491.051184 
" clip-path="url(#p26d755cbce)" style="fill: none; stroke: #64748b; stroke-width: 0.65"/>
    <path d="M 1105.327603 466.647995 
L 1048.042861 491.051184 
" clip-path="url(#p26d755cbce)" style="fill: none; stroke: #64748b; stroke-width: 0.65"/>
    <path d="M 1168.973403 444.033476 
L 1048.042861 491.051184 
" clip-path="url(#p26d755cbce)" style="fill: none; stroke: #64748b; stroke-width: 0.65"/>
    <path d="M 1097.328347 381.719813 
L 1048.042861 491.051184 
" clip-path="url(#p26d755cbce)" style="fill: none; stroke: #64748b; stroke-width: 0.65"/>
    <path d="M 948.046648 338.959428 
L 1048.042861 491.051184 
" clip-path="url(#p26d755cbce)" style="fill: none; stroke: #64748b; stroke-width: 0.65"/>
    <path d="M 922.735738 515.905179 
L 1048.042861 491.051184 
" clip-path="url(#p26d755cbce)" style="fill: none; stroke: #64748b; stroke-width: 0.65"/>
    <path d="M 889.096371 505.533984 
L 1048.042861 491.051184 
" clip-path="url(#p26d755cbce)" style="fill: none; stroke: #64748b; stroke-width: 0.65"/>
    <path d="M 942.155192 596.690052 
L 1048.042861 491.051184 
" clip-path="url(#p26d755cbce)" style="fill: none; stroke: #64748b; stroke-width: 0.65"/>
    <path d="M 919.335434 448.621122 
L 1048.042861 491.051184 
" clip-path="url(#p26d755cbce)" style="fill: none; stroke: #64748b; stroke-width: 0.65"/>
    <path d="M 1150.3087 523.043798 
L 1048.042861 491.051184 
" clip-path="url(#p26d755cbce)" style="fill: none; stroke: #64748b; stroke-width: 0.65"/>
    <path d="M 1099.413813 525.169018 
L 1048.042861 491.051184 
" clip-path="url(#p26d755cbce)" style="fill: none; stroke: #64748b; stroke-width: 0.65"/>
    <path d="M 1089.112216 344.271614 
L 1048.042861 491.051184 
" clip-path="url(#p26d755cbce)" style="fill: none; stroke: #64748b; stroke-width: 0.65"/>
    <path d="M 1050.743282 551.29729 
L 874.659928 620.699661 
" clip-path="url(#p26d755cbce)" style="fill: none; stroke: #64748b; stroke-width: 0.65"/>
    <path d="M 922.735738 515.905179 
L 874.659928 620.699661 
" clip-path="url(#p26d755cbce)" style="fill: none; stroke: #64748b; stroke-width: 0.65"/>
    <path d="M 1026.912204 620.686459 
L 874.659928 620.699661 
" clip-path="url(#p26d755cbce)" style="fill: none; stroke: #64748b; stroke-width: 0.65"/>
    <path d="M 953.756889 424.927032 
L 874.659928 620.699661 
" clip-path="url(#p26d755cbce)" style="fill: none; stroke: #64748b; stroke-width: 0.65"/>
    <path d="M 1022.649093 567.572257 
L 874.659928 620.699661 
" clip-path="url(#p26d755cbce)" style="fill: none; stroke: #64748b; stroke-width: 0.65"/>
    <path d="M 933.750489 479.916661 
L 874.659928 620.699661 
" clip-path="url(#p26d755cbce)" style="fill: none; stroke: #64748b; stroke-width: 0.65"/>
    <path d="M 942.155192 596.690052 
L 874.659928 620.699661 
" clip-path="url(#p26d755cbce)" style="fill: none; stroke: #64748b; stroke-width: 0.65"/>
    <path d="M 986.541535 554.358699 
L 874.659928 620.699661 
" clip-path="url(#p26d755cbce)" style="fill: none; stroke: #64748b; stroke-width: 0.65"/>
    <path d="M 948.708017 557.243891 
L 874.659928 620.699661 
" clip-path="url(#p26d755cbce)" style="fill: none; stroke: #64748b; stroke-width: 0.65"/>
    <path d="M 978.42539 618.580177 
L 874.659928 620.699661 
" clip-path="url(#p26d755cbce)" style="fill: none; stroke: #64748b; stroke-width: 0.65"/>
    <path d="M 828.867977 416.659144 
L 874.659928 620.699661 
" clip-path="url(#p26d755cbce)" style="fill: none; stroke: #64748b; stroke-width: 0.65"/>
    <path d="M 1050.743282 551.29729 
L 1013.327077 519.433007 
" clip-path="url(#p26d755cbce)" style="fill: none; stroke: #64748b; stroke-width: 0.65"/>
    <path d="M 1026.912204 620.686459 
L 1013.327077 519.433007 
" clip-path="url(#p26d755cbce)" style="fill: none; stroke: #64748b; stroke-width: 0.65"/>
    <path d="M 953.756889 424.927032 
L 1013.327077 519.433007 
" clip-path="url(#p26d755cbce)" style="fill: none; stroke: #64748b; stroke-width: 0.65"/>
    <path d="M 1138.184959 478.27041 
L 1013.327077 519.433007 
" clip-path="url(#p26d755cbce)" style="fill: none; stroke: #64748b; stroke-width: 0.65"/>
    <path d="M 1129.342412 568.149415 
L 1013.327077 519.433007 
" clip-path="url(#p26d755cbce)" style="fill: none; stroke: #64748b; stroke-width: 0.65"/>
    <path d="M 1105.327603 466.647995 
L 1013.327077 519.433007 
" clip-path="url(#p26d755cbce)" style="fill: none; stroke: #64748b; stroke-width: 0.65"/>
    <path d="M 1097.328347 381.719813 
L 1013.327077 519.433007 
" clip-path="url(#p26d755cbce)" style="fill: none; stroke: #64748b; stroke-width: 0.65"/>
    <path d="M 865.257772 485.244451 
L 1013.327077 519.433007 
" clip-path="url(#p26d755cbce)" style="fill: none; stroke: #64748b; stroke-width: 0.65"/>
    <path d="M 828.867977 416.659144 
L 1013.327077 519.433007 
" clip-path="url(#p26d755cbce)" style="fill: none; stroke: #64748b; stroke-width: 0.65"/>
    <path d="M 922.735738 515.905179 
L 1013.327077 519.433007 
" clip-path="url(#p26d755cbce)" style="fill: none; stroke: #64748b; stroke-width: 0.65"/>
    <path d="M 1081.250836 569.778962 
L 1013.327077 519.433007 
" clip-path="url(#p26d755cbce)" style="fill: none; stroke: #64748b; stroke-width: 0.65"/>
    <path d="M 1007.255065 376.968828 
L 1013.327077 519.433007 
" clip-path="url(#p26d755cbce)" style="fill: none; stroke: #64748b; stroke-width: 0.65"/>
    <path d="M 942.155192 596.690052 
L 1013.327077 519.433007 
" clip-path="url(#p26d755cbce)" style="fill: none; stroke: #64748b; stroke-width: 0.65"/>
    <path d="M 919.335434 448.621122 
L 1013.327077 519.433007 
" clip-path="url(#p26d755cbce)" style="fill: none; stroke: #64748b; stroke-width: 0.65"/>
    <path d="M 1150.3087 523.043798 
L 1013.327077 519.433007 
" clip-path="url(#p26d755cbce)" style="fill: none; stroke: #64748b; stroke-width: 0.65"/>
    <path d="M 1099.413813 525.169018 
L 1013.327077 519.433007 
" clip-path="url(#p26d755cbce)" style="fill: none; stroke: #64748b; stroke-width: 0.65"/>
    <path d="M 978.42539 618.580177 
L 1013.327077 519.433007 
" clip-path="url(#p26d755cbce)" style="fill: none; stroke: #64748b; stroke-width: 0.65"/>
    <path d="M 953.756889 424.927032 
L 963.418664 227.060339 
" clip-path="url(#p26d755cbce)" style="fill: none; stroke: #64748b; stroke-width: 0.65"/>
    <path d="M 971.664118 358.462743 
L 963.418664 227.060339 
" clip-path="url(#p26d755cbce)" style="fill: none; stroke: #64748b; stroke-width: 0.65"/>
    <path d="M 828.867977 416.659144 
L 963.418664 227.060339 
" clip-path="url(#p26d755cbce)" style="fill: none; stroke: #64748b; stroke-width: 0.65"/>
    <path d="M 1046.16853 342.330084 
L 963.418664 227.060339 
" clip-path="url(#p26d755cbce)" style="fill: none; stroke: #64748b; stroke-width: 0.65"/>
    <path d="M 1097.328347 381.719813 
L 963.418664 227.060339 
" clip-path="url(#p26d755cbce)" style="fill: none; stroke: #64748b; stroke-width: 0.65"/>
    <path d="M 948.046648 338.959428 
L 963.418664 227.060339 
" clip-path="url(#p26d755cbce)" style="fill: none; stroke: #64748b; stroke-width: 0.65"/>
    <path d="M 1089.112216 344.271614 
L 963.418664 227.060339 
" clip-path="url(#p26d755cbce)" style="fill: none; stroke: #64748b; stroke-width: 0.65"/>
    <path d="M 1026.912204 620.686459 
L 1011.420838 468.204132 
" clip-path="url(#p26d755cbce)" style="fill: none; stroke: #64748b; stroke-width: 0.65"/>
    <path d="M 953.756889 424.927032 
L 1011.420838 468.204132 
" clip-path="url(#p26d755cbce)" style="fill: none; stroke: #64748b; stroke-width: 0.65"/>
    <path d="M 1138.184959 478.27041 
L 1011.420838 468.204132 
" clip-path="url(#p26d755cbce)" style="fill: none; stroke: #64748b; stroke-width: 0.65"/>
    <path d="M 1022.649093 567.572257 
L 1011.420838 468.204132 
" clip-path="url(#p26d755cbce)" style="fill: none; stroke: #64748b; stroke-width: 0.65"/>
    <path d="M 933.750489 479.916661 
L 1011.420838 468.204132 
" clip-path="url(#p26d755cbce)" style="fill: none; stroke: #64748b; stroke-width: 0.65"/>
    <path d="M 1129.342412 568.149415 
L 1011.420838 468.204132 
" clip-path="url(#p26d755cbce)" style="fill: none; stroke: #64748b; stroke-width: 0.65"/>
    <path d="M 1168.973403 444.033476 
L 1011.420838 468.204132 
" clip-path="url(#p26d755cbce)" style="fill: none; stroke: #64748b; stroke-width: 0.65"/>
    <path d="M 890.312593 368.326634 
L 1011.420838 468.204132 
" clip-path="url(#p26d755cbce)" style="fill: none; stroke: #64748b; stroke-width: 0.65"/>
    <path d="M 865.257772 485.244451 
L 1011.420838 468.204132 
" clip-path="url(#p26d755cbce)" style="fill: none; stroke: #64748b; stroke-width: 0.65"/>
    <path d="M 889.096371 505.533984 
L 1011.420838 468.204132 
" clip-path="url(#p26d755cbce)" style="fill: none; stroke: #64748b; stroke-width: 0.65"/>
    <path d="M 1081.250836 569.778962 
L 1011.420838 468.204132 
" clip-path="url(#p26d755cbce)" style="fill: none; stroke: #64748b; stroke-width: 0.65"/>
    <path d="M 919.04851 357.847363 
L 1011.420838 468.204132 
" clip-path="url(#p26d755cbce)" style="fill: none; stroke: #64748b; stroke-width: 0.65"/>
    <path d="M 942.155192 596.690052 
L 1011.420838 468.204132 
" clip-path="url(#p26d755cbce)" style="fill: none; stroke: #64748b; stroke-width: 0.65"/>
    <path d="M 919.335434 448.621122 
L 1011.420838 468.204132 
" clip-path="url(#p26d755cbce)" style="fill: none; stroke: #64748b; stroke-width: 0.65"/>
    <path d="M 1150.3087 523.043798 
L 1011.420838 468.204132 
" clip-path="url(#p26d755cbce)" style="fill: none; stroke: #64748b; stroke-width: 0.65"/>
    <path d="M 948.708017 557.243891 
L 1011.420838 468.204132 
" clip-path="url(#p26d755cbce)" style="fill: none; stroke: #64748b; stroke-width: 0.65"/>
    <path d="M 1050.743282 551.29729 
L 1011.420838 468.204132 
" clip-path="url(#p26d755cbce)" style="fill: none; stroke: #64748b; stroke-width: 0.65"/>
    <path d="M 972.175087 392.915861 
L 1011.420838 468.204132 
" clip-path="url(#p26d755cbce)" style="fill: none; stroke: #64748b; stroke-width: 0.65"/>
    <path d="M 994.00212 329.424813 
L 1011.420838 468.204132 
" clip-path="url(#p26d755cbce)" style="fill: none; stroke: #64748b; stroke-width: 0.65"/>
    <path d="M 971.664118 358.462743 
L 1011.420838 468.204132 
" clip-path="url(#p26d755cbce)" style="fill: none; stroke: #64748b; stroke-width: 0.65"/>
    <path d="M 868.313442 444.661554 
L 1011.420838 468.204132 
" clip-path="url(#p26d755cbce)" style="fill: none; stroke: #64748b; stroke-width: 0.65"/>
    <path d="M 1105.327603 466.647995 
L 1011.420838 468.204132 
" clip-path="url(#p26d755cbce)" style="fill: none; stroke: #64748b; stroke-width: 0.65"/>
    <path d="M 986.541535 554.358699 
L 1011.420838 468.204132 
" clip-path="url(#p26d755cbce)" style="fill: none; stroke: #64748b; stroke-width: 0.65"/>
    <path d="M 1097.328347 381.719813 
L 1011.420838 468.204132 
" clip-path="url(#p26d755cbce)" style="fill: none; stroke: #64748b; stroke-width: 0.65"/>
    <path d="M 948.046648 338.959428 
L 1011.420838 468.204132 
" clip-path="url(#p26d755cbce)" style="fill: none; stroke: #64748b; stroke-width: 0.65"/>
    <path d="M 922.735738 515.905179 
L 1011.420838 468.204132 
" clip-path="url(#p26d755cbce)" style="fill: none; stroke: #64748b; stroke-width: 0.65"/>
    <path d="M 1121.293709 416.268997 
L 1011.420838 468.204132 
" clip-path="url(#p26d755cbce)" style="fill: none; stroke: #64748b; stroke-width: 0.65"/>
    <path d="M 1007.255065 376.968828 
L 1011.420838 468.204132 
" clip-path="url(#p26d755cbce)" style="fill: none; stroke: #64748b; stroke-width: 0.65"/>
    <path d="M 1046.16853 342.330084 
L 1011.420838 468.204132 
" clip-path="url(#p26d755cbce)" style="fill: none; stroke: #64748b; stroke-width: 0.65"/>
    <path d="M 1099.413813 525.169018 
L 1011.420838 468.204132 
" clip-path="url(#p26d755cbce)" style="fill: none; stroke: #64748b; stroke-width: 0.65"/>
    <path d="M 978.42539 618.580177 
L 1011.420838 468.204132 
" clip-path="url(#p26d755cbce)" style="fill: none; stroke: #64748b; stroke-width: 0.65"/>
    <path d="M 1089.112216 344.271614 
L 1011.420838 468.204132 
" clip-path="url(#p26d755cbce)" style="fill: none; stroke: #64748b; stroke-width: 0.65"/>
    <path d="M 1050.743282 551.29729 
L 1059.360737 391.966477 
" clip-path="url(#p26d755cbce)" style="fill: none; stroke: #64748b; stroke-width: 0.65"/>
    <path d="M 972.175087 392.915861 
L 1059.360737 391.966477 
" clip-path="url(#p26d755cbce)" style="fill: none; stroke: #64748b; stroke-width: 0.65"/>
    <path d="M 994.00212 329.424813 
L 1059.360737 391.966477 
" clip-path="url(#p26d755cbce)" style="fill: none; stroke: #64748b; stroke-width: 0.65"/>
    <path d="M 971.664118 358.462743 
L 1059.360737 391.966477 
" clip-path="url(#p26d755cbce)" style="fill: none; stroke: #64748b; stroke-width: 0.65"/>
    <path d="M 953.756889 424.927032 
L 1059.360737 391.966477 
" clip-path="url(#p26d755cbce)" style="fill: none; stroke: #64748b; stroke-width: 0.65"/>
    <path d="M 1138.184959 478.27041 
L 1059.360737 391.966477 
" clip-path="url(#p26d755cbce)" style="fill: none; stroke: #64748b; stroke-width: 0.65"/>
    <path d="M 1022.649093 567.572257 
L 1059.360737 391.966477 
" clip-path="url(#p26d755cbce)" style="fill: none; stroke: #64748b; stroke-width: 0.65"/>
    <path d="M 933.750489 479.916661 
L 1059.360737 391.966477 
" clip-path="url(#p26d755cbce)" style="fill: none; stroke: #64748b; stroke-width: 0.65"/>
    <path d="M 1105.327603 466.647995 
L 1059.360737 391.966477 
" clip-path="url(#p26d755cbce)" style="fill: none; stroke: #64748b; stroke-width: 0.65"/>
    <path d="M 986.541535 554.358699 
L 1059.360737 391.966477 
" clip-path="url(#p26d755cbce)" style="fill: none; stroke: #64748b; stroke-width: 0.65"/>
    <path d="M 890.312593 368.326634 
L 1059.360737 391.966477 
" clip-path="url(#p26d755cbce)" style="fill: none; stroke: #64748b; stroke-width: 0.65"/>
    <path d="M 1097.328347 381.719813 
L 1059.360737 391.966477 
" clip-path="url(#p26d755cbce)" style="fill: none; stroke: #64748b; stroke-width: 0.65"/>
    <path d="M 1121.293709 416.268997 
L 1059.360737 391.966477 
" clip-path="url(#p26d755cbce)" style="fill: none; stroke: #64748b; stroke-width: 0.65"/>
    <path d="M 1242.932023 319.219329 
L 1059.360737 391.966477 
" clip-path="url(#p26d755cbce)" style="fill: none; stroke: #64748b; stroke-width: 0.65"/>
    <path d="M 1007.255065 376.968828 
L 1059.360737 391.966477 
" clip-path="url(#p26d755cbce)" style="fill: none; stroke: #64748b; stroke-width: 0.65"/>
    <path d="M 919.04851 357.847363 
L 1059.360737 391.966477 
" clip-path="url(#p26d755cbce)" style="fill: none; stroke: #64748b; stroke-width: 0.65"/>
    <path d="M 1046.16853 342.330084 
L 1059.360737 391.966477 
" clip-path="url(#p26d755cbce)" style="fill: none; stroke: #64748b; stroke-width: 0.65"/>
    <path d="M 1089.112216 344.271614 
L 1059.360737 391.966477 
" clip-path="url(#p26d755cbce)" style="fill: none; stroke: #64748b; stroke-width: 0.65"/>
    <path d="M 922.735738 515.905179 
L 902.146835 407.387011 
" clip-path="url(#p26d755cbce)" style="fill: none; stroke: #64748b; stroke-width: 0.65"/>
    <path d="M 972.175087 392.915861 
L 902.146835 407.387011 
" clip-path="url(#p26d755cbce)" style="fill: none; stroke: #64748b; stroke-width: 0.65"/>
    <path d="M 994.00212 329.424813 
L 902.146835 407.387011 
" clip-path="url(#p26d755cbce)" style="fill: none; stroke: #64748b; stroke-width: 0.65"/>
    <path d="M 953.756889 424.927032 
L 902.146835 407.387011 
" clip-path="url(#p26d755cbce)" style="fill: none; stroke: #64748b; stroke-width: 0.65"/>
    <path d="M 889.096371 505.533984 
L 902.146835 407.387011 
" clip-path="url(#p26d755cbce)" style="fill: none; stroke: #64748b; stroke-width: 0.65"/>
    <path d="M 1007.255065 376.968828 
L 902.146835 407.387011 
" clip-path="url(#p26d755cbce)" style="fill: none; stroke: #64748b; stroke-width: 0.65"/>
    <path d="M 919.04851 357.847363 
L 902.146835 407.387011 
" clip-path="url(#p26d755cbce)" style="fill: none; stroke: #64748b; stroke-width: 0.65"/>
    <path d="M 933.750489 479.916661 
L 902.146835 407.387011 
" clip-path="url(#p26d755cbce)" style="fill: none; stroke: #64748b; stroke-width: 0.65"/>
    <path d="M 948.046648 338.959428 
L 902.146835 407.387011 
" clip-path="url(#p26d755cbce)" style="fill: none; stroke: #64748b; stroke-width: 0.65"/>
    <path d="M 919.335434 448.621122 
L 902.146835 407.387011 
" clip-path="url(#p26d755cbce)" style="fill: none; stroke: #64748b; stroke-width: 0.65"/>
    <path d="M 890.312593 368.326634 
L 902.146835 407.387011 
" clip-path="url(#p26d755cbce)" style="fill: none; stroke: #64748b; stroke-width: 0.65"/>
    <path d="M 868.313442 444.661554 
L 902.146835 407.387011 
" clip-path="url(#p26d755cbce)" style="fill: none; stroke: #64748b; stroke-width: 0.65"/>
    <path d="M 865.257772 485.244451 
L 902.146835 407.387011 
" clip-path="url(#p26d755cbce)" style="fill: none; stroke: #64748b; stroke-width: 0.65"/>
    <path d="M 828.867977 416.659144 
L 902.146835 407.387011 
" clip-path="url(#p26d755cbce)" style="fill: none; stroke: #64748b; stroke-width: 0.65"/>
    <path d="M 1050.743282 551.29729 
L 1061.721189 449.051555 
" clip-path="url(#p26d755cbce)" style="fill: none; stroke: #64748b; stroke-width: 0.65"/>
    <path d="M 972.175087 392.915861 
L 1061.721189 449.051555 
" clip-path="url(#p26d755cbce)" style="fill: none; stroke: #64748b; stroke-width: 0.65"/>
    <path d="M 994.00212 329.424813 
L 1061.721189 449.051555 
" clip-path="url(#p26d755cbce)" style="fill: none; stroke: #64748b; stroke-width: 0.65"/>
    <path d="M 953.756889 424.927032 
L 1061.721189 449.051555 
" clip-path="url(#p26d755cbce)" style="fill: none; stroke: #64748b; stroke-width: 0.65"/>
    <path d="M 971.664118 358.462743 
L 1061.721189 449.051555 
" clip-path="url(#p26d755cbce)" style="fill: none; stroke: #64748b; stroke-width: 0.65"/>
    <path d="M 1138.184959 478.27041 
L 1061.721189 449.051555 
" clip-path="url(#p26d755cbce)" style="fill: none; stroke: #64748b; stroke-width: 0.65"/>
    <path d="M 1022.649093 567.572257 
L 1061.721189 449.051555 
" clip-path="url(#p26d755cbce)" style="fill: none; stroke: #64748b; stroke-width: 0.65"/>
    <path d="M 933.750489 479.916661 
L 1061.721189 449.051555 
" clip-path="url(#p26d755cbce)" style="fill: none; stroke: #64748b; stroke-width: 0.65"/>
    <path d="M 1129.342412 568.149415 
L 1061.721189 449.051555 
" clip-path="url(#p26d755cbce)" style="fill: none; stroke: #64748b; stroke-width: 0.65"/>
    <path d="M 1105.327603 466.647995 
L 1061.721189 449.051555 
" clip-path="url(#p26d755cbce)" style="fill: none; stroke: #64748b; stroke-width: 0.65"/>
    <path d="M 1168.973403 444.033476 
L 1061.721189 449.051555 
" clip-path="url(#p26d755cbce)" style="fill: none; stroke: #64748b; stroke-width: 0.65"/>
    <path d="M 986.541535 554.358699 
L 1061.721189 449.051555 
" clip-path="url(#p26d755cbce)" style="fill: none; stroke: #64748b; stroke-width: 0.65"/>
    <path d="M 1097.328347 381.719813 
L 1061.721189 449.051555 
" clip-path="url(#p26d755cbce)" style="fill: none; stroke: #64748b; stroke-width: 0.65"/>
    <path d="M 922.735738 515.905179 
L 1061.721189 449.051555 
" clip-path="url(#p26d755cbce)" style="fill: none; stroke: #64748b; stroke-width: 0.65"/>
    <path d="M 1121.293709 416.268997 
L 1061.721189 449.051555 
" clip-path="url(#p26d755cbce)" style="fill: none; stroke: #64748b; stroke-width: 0.65"/>
    <path d="M 1242.932023 319.219329 
L 1061.721189 449.051555 
" clip-path="url(#p26d755cbce)" style="fill: none; stroke: #64748b; stroke-width: 0.65"/>
    <path d="M 1081.250836 569.778962 
L 1061.721189 449.051555 
" clip-path="url(#p26d755cbce)" style="fill: none; stroke: #64748b; stroke-width: 0.65"/>
    <path d="M 1007.255065 376.968828 
L 1061.721189 449.051555 
" clip-path="url(#p26d755cbce)" style="fill: none; stroke: #64748b; stroke-width: 0.65"/>
    <path d="M 1099.413813 525.169018 
L 1061.721189 449.051555 
" clip-path="url(#p26d755cbce)" style="fill: none; stroke: #64748b; stroke-width: 0.65"/>
    <path d="M 919.335434 448.621122 
L 1061.721189 449.051555 
" clip-path="url(#p26d755cbce)" style="fill: none; stroke: #64748b; stroke-width: 0.65"/>
    <path d="M 1150.3087 523.043798 
L 1061.721189 449.051555 
" clip-path="url(#p26d755cbce)" style="fill: none; stroke: #64748b; stroke-width: 0.65"/>
    <path d="M 1046.16853 342.330084 
L 1061.721189 449.051555 
" clip-path="url(#p26d755cbce)" style="fill: none; stroke: #64748b; stroke-width: 0.65"/>
    <path d="M 948.708017 557.243891 
L 1061.721189 449.051555 
" clip-path="url(#p26d755cbce)" style="fill: none; stroke: #64748b; stroke-width: 0.65"/>
    <path d="M 1089.112216 344.271614 
L 1061.721189 449.051555 
" clip-path="url(#p26d755cbce)" style="fill: none; stroke: #64748b; stroke-width: 0.65"/>
    <path d="M 1050.743282 551.29729 
L 973.823511 478.596114 
" clip-path="url(#p26d755cbce)" style="fill: none; stroke: #64748b; stroke-width: 0.65"/>
    <path d="M 972.175087 392.915861 
L 973.823511 478.596114 
" clip-path="url(#p26d755cbce)" style="fill: none; stroke: #64748b; stroke-width: 0.65"/>
    <path d="M 953.756889 424.927032 
L 973.823511 478.596114 
" clip-path="url(#p26d755cbce)" style="fill: none; stroke: #64748b; stroke-width: 0.65"/>
    <path d="M 971.664118 358.462743 
L 973.823511 478.596114 
" clip-path="url(#p26d755cbce)" style="fill: none; stroke: #64748b; stroke-width: 0.65"/>
    <path d="M 1022.649093 567.572257 
L 973.823511 478.596114 
" clip-path="url(#p26d755cbce)" style="fill: none; stroke: #64748b; stroke-width: 0.65"/>
    <path d="M 933.750489 479.916661 
L 973.823511 478.596114 
" clip-path="url(#p26d755cbce)" style="fill: none; stroke: #64748b; stroke-width: 0.65"/>
    <path d="M 1105.327603 466.647995 
L 973.823511 478.596114 
" clip-path="url(#p26d755cbce)" style="fill: none; stroke: #64748b; stroke-width: 0.65"/>
    <path d="M 986.541535 554.358699 
L 973.823511 478.596114 
" clip-path="url(#p26d755cbce)" style="fill: none; stroke: #64748b; stroke-width: 0.65"/>
    <path d="M 865.257772 485.244451 
L 973.823511 478.596114 
" clip-path="url(#p26d755cbce)" style="fill: none; stroke: #64748b; stroke-width: 0.65"/>
    <path d="M 948.046648 338.959428 
L 973.823511 478.596114 
" clip-path="url(#p26d755cbce)" style="fill: none; stroke: #64748b; stroke-width: 0.65"/>
    <path d="M 828.867977 416.659144 
L 973.823511 478.596114 
" clip-path="url(#p26d755cbce)" style="fill: none; stroke: #64748b; stroke-width: 0.65"/>
    <path d="M 978.42539 618.580177 
L 973.823511 478.596114 
" clip-path="url(#p26d755cbce)" style="fill: none; stroke: #64748b; stroke-width: 0.65"/>
    <path d="M 1121.293709 416.268997 
L 973.823511 478.596114 
" clip-path="url(#p26d755cbce)" style="fill: none; stroke: #64748b; stroke-width: 0.65"/>
    <path d="M 889.096371 505.533984 
L 973.823511 478.596114 
" clip-path="url(#p26d755cbce)" style="fill: none; stroke: #64748b; stroke-width: 0.65"/>
    <path d="M 1081.250836 569.778962 
L 973.823511 478.596114 
" clip-path="url(#p26d755cbce)" style="fill: none; stroke: #64748b; stroke-width: 0.65"/>
    <path d="M 919.04851 357.847363 
L 973.823511 478.596114 
" clip-path="url(#p26d755cbce)" style="fill: none; stroke: #64748b; stroke-width: 0.65"/>
    <path d="M 1099.413813 525.169018 
L 973.823511 478.596114 
" clip-path="url(#p26d755cbce)" style="fill: none; stroke: #64748b; stroke-width: 0.65"/>
    <path d="M 942.155192 596.690052 
L 973.823511 478.596114 
" clip-path="url(#p26d755cbce)" style="fill: none; stroke: #64748b; stroke-width: 0.65"/>
    <path d="M 1046.16853 342.330084 
L 973.823511 478.596114 
" clip-path="url(#p26d755cbce)" style="fill: none; stroke: #64748b; stroke-width: 0.65"/>
    <path d="M 948.708017 557.243891 
L 973.823511 478.596114 
" clip-path="url(#p26d755cbce)" style="fill: none; stroke: #64748b; stroke-width: 0.65"/>
    <path d="M 868.313442 444.661554 
L 973.823511 478.596114 
" clip-path="url(#p26d755cbce)" style="fill: none; stroke: #64748b; stroke-width: 0.65"/>
   </g>
   <g id="PathCollection_2">
    <defs>
     <path id="m7e11591f4b" d="M -6.5 6.5 
L 6.5 6.5 
L 6.5 -6.5 
L -6.5 -6.5 
z
" style="stroke: #334155; stroke-width: 0.8"/>
    </defs>
    <g clip-path="url(#p26d755cbce)">
     <use xlink:href="#m7e11591f4b" x="1061.721189" y="449.051555" style="fill: #f59e0b; stroke: #334155; stroke-width: 0.8"/>
     <use xlink:href="#m7e11591f4b" x="1003.593692" y="452.545475" style="fill: #f59e0b; stroke: #334155; stroke-width: 0.8"/>
     <use xlink:href="#m7e11591f4b" x="1011.420838" y="468.204132" style="fill: #f59e0b; stroke: #334155; stroke-width: 0.8"/>
     <use xlink:href="#m7e11591f4b" x="1059.360737" y="391.966477" style="fill: #f59e0b; stroke: #334155; stroke-width: 0.8"/>
     <use xlink:href="#m7e11591f4b" x="1013.327077" y="519.433007" style="fill: #f59e0b; stroke: #334155; stroke-width: 0.8"/>
     <use xlink:href="#m7e11591f4b" x="1048.042861" y="491.051184" style="fill: #f59e0b; stroke: #334155; stroke-width: 0.8"/>
     <use xlink:href="#m7e11591f4b" x="902.146835" y="407.387011" style="fill: #f59e0b; stroke: #334155; stroke-width: 0.8"/>
     <use xlink:href="#m7e11591f4b" x="973.823511" y="478.596114" style="fill: #f59e0b; stroke: #334155; stroke-width: 0.8"/>
     <use xlink:href="#m7e11591f4b" x="963.418664" y="227.060339" style="fill: #f59e0b; stroke: #334155; stroke-width: 0.8"/>
     <use xlink:href="#m7e11591f4b" x="874.659928" y="620.699661" style="fill: #f59e0b; stroke: #334155; stroke-width: 0.8"/>
    </g>
   </g>
   <g id="PathCollection_3">
    <defs>
     <path id="md867d47734" d="M 0 5 
C 1.326016 5 2.597899 4.473168 3.535534 3.535534 
C 4.473168 2.597899 5 1.326016 5 0 
C 5 -1.326016 4.473168 -2.597899 3.535534 -3.535534 
C 2.597899 -4.473168 1.326016 -5 0 -5 
C -1.326016 -5 -2.597899 -4.473168 -3.535534 -3.535534 
C -4.473168 -2.597899 -5 -1.326016 -5 0 
C -5 1.326016 -4.473168 2.597899 -3.535534 3.535534 
C -2.597899 4.473168 -1.326016 5 0 5 
z
" style="stroke: #334155; stroke-width: 0.8"/>
    </defs>
    <g clip-path="url(#p26d755cbce)">
     <use xlink:href="#md867d47734" x="1138.184959" y="478.27041" style="fill: #38bdf8; stroke: #334155; stroke-width: 0.8"/>
     <use xlink:href="#md867d47734" x="868.313442" y="444.661554" style="fill: #38bdf8; stroke: #334155; stroke-width: 0.8"/>
     <use xlink:href="#md867d47734" x="889.096371" y="505.533984" style="fill: #38bdf8; stroke: #334155; stroke-width: 0.8"/>
     <use xlink:href="#md867d47734" x="828.867977" y="416.659144" style="fill: #38bdf8; stroke: #334155; stroke-width: 0.8"/>
     <use xlink:href="#md867d47734" x="948.708017" y="557.243891" style="fill: #38bdf8; stroke: #334155; stroke-width: 0.8"/>
     <use xlink:href="#md867d47734" x="1050.743282" y="551.29729" style="fill: #38bdf8; stroke: #334155; stroke-width: 0.8"/>
     <use xlink:href="#md867d47734" x="1105.327603" y="466.647995" style="fill: #38bdf8; stroke: #334155; stroke-width: 0.8"/>
     <use xlink:href="#md867d47734" x="986.541535" y="554.358699" style="fill: #38bdf8; stroke: #334155; stroke-width: 0.8"/>
     <use xlink:href="#md867d47734" x="1022.649093" y="567.572257" style="fill: #38bdf8; stroke: #334155; stroke-width: 0.8"/>
     <use xlink:href="#md867d47734" x="1026.912204" y="620.686459" style="fill: #38bdf8; stroke: #334155; stroke-width: 0.8"/>
     <use xlink:href="#md867d47734" x="1046.16853" y="342.330084" style="fill: #38bdf8; stroke: #334155; stroke-width: 0.8"/>
     <use xlink:href="#md867d47734" x="1081.250836" y="569.778962" style="fill: #38bdf8; stroke: #334155; stroke-width: 0.8"/>
     <use xlink:href="#md867d47734" x="953.756889" y="424.927032" style="fill: #38bdf8; stroke: #334155; stroke-width: 0.8"/>
     <use xlink:href="#md867d47734" x="1097.328347" y="381.719813" style="fill: #38bdf8; stroke: #334155; stroke-width: 0.8"/>
     <use xlink:href="#md867d47734" x="933.750489" y="479.916661" style="fill: #38bdf8; stroke: #334155; stroke-width: 0.8"/>
     <use xlink:href="#md867d47734" x="1089.112216" y="344.271614" style="fill: #38bdf8; stroke: #334155; stroke-width: 0.8"/>
     <use xlink:href="#md867d47734" x="972.175087" y="392.915861" style="fill: #38bdf8; stroke: #334155; stroke-width: 0.8"/>
     <use xlink:href="#md867d47734" x="1121.293709" y="416.268997" style="fill: #38bdf8; stroke: #334155; stroke-width: 0.8"/>
     <use xlink:href="#md867d47734" x="890.312593" y="368.326634" style="fill: #38bdf8; stroke: #334155; stroke-width: 0.8"/>
     <use xlink:href="#md867d47734" x="1099.413813" y="525.169018" style="fill: #38bdf8; stroke: #334155; stroke-width: 0.8"/>
     <use xlink:href="#md867d47734" x="1168.973403" y="444.033476" style="fill: #38bdf8; stroke: #334155; stroke-width: 0.8"/>
     <use xlink:href="#md867d47734" x="919.335434" y="448.621122" style="fill: #38bdf8; stroke: #334155; stroke-width: 0.8"/>
     <use xlink:href="#md867d47734" x="942.155192" y="596.690052" style="fill: #38bdf8; stroke: #334155; stroke-width: 0.8"/>
     <use xlink:href="#md867d47734" x="948.046648" y="338.959428" style="fill: #38bdf8; stroke: #334155; stroke-width: 0.8"/>
     <use xlink:href="#md867d47734" x="922.735738" y="515.905179" style="fill: #38bdf8; stroke: #334155; stroke-width: 0.8"/>
     <use xlink:href="#md867d47734" x="1150.3087" y="523.043798" style="fill: #38bdf8; stroke: #334155; stroke-width: 0.8"/>
     <use xlink:href="#md867d47734" x="978.42539" y="618.580177" style="fill: #38bdf8; stroke: #334155; stroke-width: 0.8"/>
     <use xlink:href="#md867d47734" x="1007.255065" y="376.968828" style="fill: #38bdf8; stroke: #334155; stroke-width: 0.8"/>
     <use xlink:href="#md867d47734" x="865.257772" y="485.244451" style="fill: #38bdf8; stroke: #334155; stroke-width: 0.8"/>
     <use xlink:href="#md867d47734" x="1129.342412" y="568.149415" style="fill: #38bdf8; stroke: #334155; stroke-width: 0.8"/>
     <use xlink:href="#md867d47734" x="971.664118" y="358.462743" style="fill: #38bdf8; stroke: #334155; stroke-width: 0.8"/>
     <use xlink:href="#md867d47734" x="994.00212" y="329.424813" style="fill: #38bdf8; stroke: #334155; stroke-width: 0.8"/>
     <use xlink:href="#md867d47734" x="919.04851" y="357.847363" style="fill: #38bdf8; stroke: #334155; stroke-width: 0.8"/>
     <use xlink:href="#md867d47734" x="1242.932023" y="319.219329" style="fill: #38bdf8; stroke: #334155; stroke-width: 0.8"/>
    </g>
   </g>
   <g id="text_18">
    <text style="font-weight: 700; font-size: 15px; font-family: 'DejaVu Sans'; text-anchor: start; fill: #111827" x="696.6" y="108.72" transform="rotate(-0 696.6 108.72)">XGI bipartite incidence view</text>
   </g>
   <g id="text_19">
    <g clip-path="url(#p26d755cbce)">
     <text style="font-size: 7.6px; font-family: 'DejaVu Sans', 'Bitstream Vera Sans', 'Computer Modern Sans Serif', 'Lucida Grande', 'Verdana', 'Geneva', 'Lucid', 'Arial', 'Helvetica', 'Avant Garde', sans-serif; text-anchor: middle; fill: #111827" x="1011.420838" y="470.301257" transform="rotate(-0 1011.420838 470.301257)">ODYSSEUS</text>
    </g>
   </g>
   <g id="text_20">
    <g clip-path="url(#p26d755cbce)">
     <text style="font-size: 7.6px; font-family: 'DejaVu Sans', 'Bitstream Vera Sans', 'Computer Modern Sans Serif', 'Lucida Grande', 'Verdana', 'Geneva', 'Lucid', 'Arial', 'Helvetica', 'Avant Garde', sans-serif; text-anchor: middle; fill: #111827" x="902.146835" y="409.484136" transform="rotate(-0 902.146835 409.484136)">SEA</text>
    </g>
   </g>
   <g id="text_21">
    <g clip-path="url(#p26d755cbce)">
     <text style="font-size: 7.6px; font-family: 'DejaVu Sans', 'Bitstream Vera Sans', 'Computer Modern Sans Serif', 'Lucida Grande', 'Verdana', 'Geneva', 'Lucid', 'Arial', 'Helvetica', 'Avant Garde', sans-serif; text-anchor: middle; fill: #111827" x="1061.721189" y="451.14868" transform="rotate(-0 1061.721189 451.14868)">TELEMACHUS</text>
    </g>
   </g>
   <g id="text_22">
    <g clip-path="url(#p26d755cbce)">
     <text style="font-size: 7.6px; font-family: 'DejaVu Sans', 'Bitstream Vera Sans', 'Computer Modern Sans Serif', 'Lucida Grande', 'Verdana', 'Geneva', 'Lucid', 'Arial', 'Helvetica', 'Avant Garde', sans-serif; text-anchor: middle; fill: #111827" x="973.823511" y="480.693239" transform="rotate(-0 973.823511 480.693239)">ZEUS</text>
    </g>
   </g>
   <g id="text_23">
    <g clip-path="url(#p26d755cbce)">
     <text style="font-size: 7.6px; font-family: 'DejaVu Sans', 'Bitstream Vera Sans', 'Computer Modern Sans Serif', 'Lucida Grande', 'Verdana', 'Geneva', 'Lucid', 'Arial', 'Helvetica', 'Avant Garde', sans-serif; text-anchor: middle; fill: #111827" x="1013.327077" y="521.530132" transform="rotate(-0 1013.327077 521.530132)">JOURNEY</text>
    </g>
   </g>
   <g id="text_24">
    <g clip-path="url(#p26d755cbce)">
     <text style="font-size: 7.6px; font-family: 'DejaVu Sans', 'Bitstream Vera Sans', 'Computer Modern Sans Serif', 'Lucida Grande', 'Verdana', 'Geneva', 'Lucid', 'Arial', 'Helvetica', 'Avant Garde', sans-serif; text-anchor: middle; fill: #111827" x="1003.593692" y="454.6426" transform="rotate(-0 1003.593692 454.6426)">ATHENA</text>
    </g>
   </g>
   <g id="text_25">
    <g clip-path="url(#p26d755cbce)">
     <text style="font-size: 7.6px; font-family: 'DejaVu Sans', 'Bitstream Vera Sans', 'Computer Modern Sans Serif', 'Lucida Grande', 'Verdana', 'Geneva', 'Lucid', 'Arial', 'Helvetica', 'Avant Garde', sans-serif; text-anchor: middle; fill: #111827" x="1048.042861" y="492.975528" transform="rotate(-0 1048.042861 492.975528)">GENERIC_SON</text>
    </g>
   </g>
   <g id="text_26">
    <g clip-path="url(#p26d755cbce)">
     <text style="font-size: 7.6px; font-family: 'DejaVu Sans', 'Bitstream Vera Sans', 'Computer Modern Sans Serif', 'Lucida Grande', 'Verdana', 'Geneva', 'Lucid', 'Arial', 'Helvetica', 'Avant Garde', sans-serif; text-anchor: middle; fill: #111827" x="1059.360737" y="394.063602" transform="rotate(-0 1059.360737 394.063602)">PALACE</text>
    </g>
   </g>
   <g id="text_27">
    <g clip-path="url(#p26d755cbce)">
     <text style="font-size: 7.6px; font-family: 'DejaVu Sans', 'Bitstream Vera Sans', 'Computer Modern Sans Serif', 'Lucida Grande', 'Verdana', 'Geneva', 'Lucid', 'Arial', 'Helvetica', 'Avant Garde', sans-serif; text-anchor: middle; fill: #111827" x="963.418664" y="229.157464" transform="rotate(-0 963.418664 229.157464)">MIND</text>
    </g>
   </g>
   <g id="text_28">
    <g clip-path="url(#p26d755cbce)">
     <text style="font-size: 7.6px; font-family: 'DejaVu Sans', 'Bitstream Vera Sans', 'Computer Modern Sans Serif', 'Lucida Grande', 'Verdana', 'Geneva', 'Lucid', 'Arial', 'Helvetica', 'Avant Garde', sans-serif; text-anchor: middle; fill: #111827" x="874.659928" y="622.796786" transform="rotate(-0 874.659928 622.796786)">HOME</text>
    </g>
   </g>
   <g id="text_29">
    <g clip-path="url(#p26d755cbce)">
     <text style="font-size: 7.6px; font-family: 'DejaVu Sans', 'Bitstream Vera Sans', 'Computer Modern Sans Serif', 'Lucida Grande', 'Verdana', 'Geneva', 'Lucid', 'Arial', 'Helvetica', 'Avant Garde', sans-serif; text-anchor: middle; fill: #111827" x="1050.743282" y="553.394415" transform="rotate(-0 1050.743282 553.394415)">fair</text>
    </g>
   </g>
   <g id="text_30">
    <g clip-path="url(#p26d755cbce)">
     <text style="font-size: 7.6px; font-family: 'DejaVu Sans', 'Bitstream Vera Sans', 'Computer Modern Sans Serif', 'Lucida Grande', 'Verdana', 'Geneva', 'Lucid', 'Arial', 'Helvetica', 'Avant Garde', sans-serif; text-anchor: middle; fill: #111827" x="972.175087" y="395.012986" transform="rotate(-0 972.175087 395.012986)">sacred</text>
    </g>
   </g>
   <g id="text_31">
    <g clip-path="url(#p26d755cbce)">
     <text style="font-size: 7.6px; font-family: 'DejaVu Sans', 'Bitstream Vera Sans', 'Computer Modern Sans Serif', 'Lucida Grande', 'Verdana', 'Geneva', 'Lucid', 'Arial', 'Helvetica', 'Avant Garde', sans-serif; text-anchor: middle; fill: #111827" x="953.756889" y="427.024157" transform="rotate(-0 953.756889 427.024157)">long</text>
    </g>
   </g>
   <g id="text_32">
    <g clip-path="url(#p26d755cbce)">
     <text style="font-size: 7.6px; font-family: 'DejaVu Sans', 'Bitstream Vera Sans', 'Computer Modern Sans Serif', 'Lucida Grande', 'Verdana', 'Geneva', 'Lucid', 'Arial', 'Helvetica', 'Avant Garde', sans-serif; text-anchor: middle; fill: #111827" x="971.664118" y="360.559868" transform="rotate(-0 971.664118 360.559868)">high</text>
    </g>
   </g>
   <g id="text_33">
    <g clip-path="url(#p26d755cbce)">
     <text style="font-size: 7.6px; font-family: 'DejaVu Sans', 'Bitstream Vera Sans', 'Computer Modern Sans Serif', 'Lucida Grande', 'Verdana', 'Geneva', 'Lucid', 'Arial', 'Helvetica', 'Avant Garde', sans-serif; text-anchor: middle; fill: #111827" x="1138.184959" y="480.367535" transform="rotate(-0 1138.184959 480.367535)">brave</text>
    </g>
   </g>
   <g id="text_34">
    <g clip-path="url(#p26d755cbce)">
     <text style="font-size: 7.6px; font-family: 'DejaVu Sans', 'Bitstream Vera Sans', 'Computer Modern Sans Serif', 'Lucida Grande', 'Verdana', 'Geneva', 'Lucid', 'Arial', 'Helvetica', 'Avant Garde', sans-serif; text-anchor: middle; fill: #111827" x="1022.649093" y="569.669382" transform="rotate(-0 1022.649093 569.669382)">good</text>
    </g>
   </g>
   <g id="text_35">
    <g clip-path="url(#p26d755cbce)">
     <text style="font-size: 7.6px; font-family: 'DejaVu Sans', 'Bitstream Vera Sans', 'Computer Modern Sans Serif', 'Lucida Grande', 'Verdana', 'Geneva', 'Lucid', 'Arial', 'Helvetica', 'Avant Garde', sans-serif; text-anchor: middle; fill: #111827" x="948.708017" y="559.341016" transform="rotate(-0 948.708017 559.341016)">divine</text>
    </g>
   </g>
   <g id="text_36">
    <g clip-path="url(#p26d755cbce)">
     <text style="font-size: 7.6px; font-family: 'DejaVu Sans', 'Bitstream Vera Sans', 'Computer Modern Sans Serif', 'Lucida Grande', 'Verdana', 'Geneva', 'Lucid', 'Arial', 'Helvetica', 'Avant Garde', sans-serif; text-anchor: middle; fill: #111827" x="933.750489" y="482.013786" transform="rotate(-0 933.750489 482.013786)">old</text>
    </g>
   </g>
   <g id="text_37">
    <g clip-path="url(#p26d755cbce)">
     <text style="font-size: 7.6px; font-family: 'DejaVu Sans', 'Bitstream Vera Sans', 'Computer Modern Sans Serif', 'Lucida Grande', 'Verdana', 'Geneva', 'Lucid', 'Arial', 'Helvetica', 'Avant Garde', sans-serif; text-anchor: middle; fill: #111827" x="1099.413813" y="527.266143" transform="rotate(-0 1099.413813 527.266143)">wise</text>
    </g>
   </g>
   <g id="text_38">
    <g clip-path="url(#p26d755cbce)">
     <text style="font-size: 7.6px; font-family: 'DejaVu Sans', 'Bitstream Vera Sans', 'Computer Modern Sans Serif', 'Lucida Grande', 'Verdana', 'Geneva', 'Lucid', 'Arial', 'Helvetica', 'Avant Garde', sans-serif; text-anchor: middle; fill: #111827" x="1089.112216" y="346.368739" transform="rotate(-0 1089.112216 346.368739)">royal</text>
    </g>
   </g>
   <g id="text_39">
    <g clip-path="url(#p26d755cbce)">
     <text style="font-size: 7.6px; font-family: 'DejaVu Sans', 'Bitstream Vera Sans', 'Computer Modern Sans Serif', 'Lucida Grande', 'Verdana', 'Geneva', 'Lucid', 'Arial', 'Helvetica', 'Avant Garde', sans-serif; text-anchor: middle; fill: #111827" x="1129.342412" y="570.24654" transform="rotate(-0 1129.342412 570.24654)">prudent</text>
    </g>
   </g>
   <g id="text_40">
    <g clip-path="url(#p26d755cbce)">
     <text style="font-size: 7.6px; font-family: 'DejaVu Sans', 'Bitstream Vera Sans', 'Computer Modern Sans Serif', 'Lucida Grande', 'Verdana', 'Geneva', 'Lucid', 'Arial', 'Helvetica', 'Avant Garde', sans-serif; text-anchor: middle; fill: #111827" x="1105.327603" y="468.74512" transform="rotate(-0 1105.327603 468.74512)">godlike</text>
    </g>
   </g>
   <g id="text_41">
    <g clip-path="url(#p26d755cbce)">
     <text style="font-size: 7.6px; font-family: 'DejaVu Sans', 'Bitstream Vera Sans', 'Computer Modern Sans Serif', 'Lucida Grande', 'Verdana', 'Geneva', 'Lucid', 'Arial', 'Helvetica', 'Avant Garde', sans-serif; text-anchor: middle; fill: #111827" x="919.335434" y="450.718247" transform="rotate(-0 919.335434 450.718247)">glad</text>
    </g>
   </g>
   <g id="text_42">
    <g clip-path="url(#p26d755cbce)">
     <text style="font-size: 7.6px; font-family: 'DejaVu Sans', 'Bitstream Vera Sans', 'Computer Modern Sans Serif', 'Lucida Grande', 'Verdana', 'Geneva', 'Lucid', 'Arial', 'Helvetica', 'Avant Garde', sans-serif; text-anchor: middle; fill: #111827" x="890.312593" y="370.423759" transform="rotate(-0 890.312593 370.423759)">wide</text>
    </g>
   </g>
   <g id="text_43">
    <g clip-path="url(#p26d755cbce)">
     <text style="font-size: 7.6px; font-family: 'DejaVu Sans', 'Bitstream Vera Sans', 'Computer Modern Sans Serif', 'Lucida Grande', 'Verdana', 'Geneva', 'Lucid', 'Arial', 'Helvetica', 'Avant Garde', sans-serif; text-anchor: middle; fill: #111827" x="1097.328347" y="383.816938" transform="rotate(-0 1097.328347 383.816938)">noble</text>
    </g>
   </g>
   <g id="text_44">
    <g clip-path="url(#p26d755cbce)">
     <text style="font-size: 7.6px; font-family: 'DejaVu Sans', 'Bitstream Vera Sans', 'Computer Modern Sans Serif', 'Lucida Grande', 'Verdana', 'Geneva', 'Lucid', 'Arial', 'Helvetica', 'Avant Garde', sans-serif; text-anchor: middle; fill: #111827" x="828.867977" y="418.756269" transform="rotate(-0 828.867977 418.756269)">deep</text>
    </g>
   </g>
  </g>
  <g id="text_45">
   <text style="font-weight: 700; font-size: 22px; font-family: 'DejaVu Sans'; text-anchor: start; fill: #111827" x="18" y="23.916562" transform="rotate(-0 18 23.916562)">William Cowper (1791) — Native target-as-hyperedge visualization</text>
  </g>
  <g id="text_46">
   <text style="font-size: 11px; font-family: 'DejaVu Sans'; text-anchor: start; fill: #475569" x="18" y="42.84" transform="rotate(-0 18 42.84)">Readable weighted core: 34 of 135 attribute nodes; 10 of 86 target hyperedges; 181 of 952 incidences.</text>
  </g>
  <g id="text_47">
   <text style="font-size: 9px; font-family: 'DejaVu Sans'; text-anchor: start; fill: #475569" x="18" y="755.64" transform="rotate(-0 18 755.64)">Attribute circles and target hyperedges use the colors specified in config/visualizations.json.</text>
  </g>
 </g>
 <defs>
  <clipPath id="pc554e67f7a">
   <rect x="7.2" y="122.72" width="678.6" height="602.32"/>
  </clipPath>
  <clipPath id="p26d755cbce">
   <rect x="696.6" y="122.72" width="678.6" height="602.32"/>
  </clipPath>
 </defs>
</svg>
