<?xml version="1.0" encoding="utf-8" standalone="no"?>
<!DOCTYPE svg PUBLIC "-//W3C//DTD SVG 1.1//EN"
  "http://www.w3.org/Graphics/SVG/1.1/DTD/svg11.dtd">
<svg xmlns:xlink="http://www.w3.org/1999/xlink" width="1382.4pt" height="764.711719pt" viewBox="0 0 1382.4 764.711719" xmlns="http://www.w3.org/2000/svg" version="1.1">
 <metadata>
  <rdf:RDF xmlns:dc="http://purl.org/dc/elements/1.1/" xmlns:cc="http://creativecommons.org/ns#" xmlns:rdf="http://www.w3.org/1999/02/22-rdf-syntax-ns#">
   <cc:Work>
    <dc:type rdf:resource="http://purl.org/dc/dcmitype/StillImage"/>
    <dc:format>image/svg+xml</dc:format>
    <dc:creator>
     <cc:Agent>
      <dc:title>Matplotlib v3.10.3, https://matplotlib.org/</dc:title>
     </cc:Agent>
    </dc:creator>
   </cc:Work>
  </rdf:RDF>
 </metadata>
 <defs>
  <style type="text/css">*{stroke-linejoin: round; stroke-linecap: butt}</style>
 </defs>
 <g id="figure_1">
  <g id="patch_1">
   <path d="M 0 764.711719 
L 1382.4 764.711719 
L 1382.4 0 
L 0 0 
z
" style="fill: #0b1220"/>
  </g>
  <g id="axes_1">
   <g id="text_1">
    <text style="font-weight: 700; font-size: 15px; font-family: 'DejaVu Sans'; text-anchor: start; fill: #e5e7eb" x="7.2" y="108.72" transform="rotate(-0 7.2 108.72)">XGI native hyperedge-hull view</text>
   </g>
   <g id="PatchCollection_1">
    <path d="M 127.697718 470.806809 
L 153.960559 625.075128 
L 154.124768 625.809759 
L 154.334781 626.532628 
L 154.589769 627.240885 
L 154.888726 627.931733 
L 155.230471 628.602446 
L 155.613657 629.250377 
L 156.03677 629.87297 
L 156.498141 630.467766 
L 156.99595 631.032419 
L 157.528231 631.5647 
L 158.092884 632.062508 
L 158.68768 632.52388 
L 159.310273 632.946993 
L 159.958204 633.330179 
L 160.628917 633.671924 
L 161.319765 633.970881 
L 162.028022 634.225869 
L 162.750891 634.435882 
L 163.485521 634.600091 
L 164.229013 634.717848 
L 164.978431 634.788689 
L 295.56354 645.108383 
L 296.315928 645.132028 
L 297.068315 645.108383 
L 297.817734 645.037542 
L 298.561225 644.919785 
L 299.295855 644.755575 
L 300.018725 644.545562 
L 300.726981 644.290574 
L 406.896784 601.060049 
L 407.587632 600.761092 
L 408.258345 600.419347 
L 408.906277 600.036161 
L 409.528869 599.613048 
L 410.123665 599.151676 
L 410.688318 598.653868 
L 411.220599 598.121587 
L 411.718408 597.556934 
L 412.179779 596.962138 
L 412.602892 596.339545 
L 412.986078 595.691614 
L 413.327823 595.020901 
L 413.62678 594.330053 
L 461.752122 462.477767 
L 462.00711 461.769511 
L 462.217123 461.046641 
L 462.381332 460.312011 
L 462.49909 459.56852 
L 462.569931 458.819101 
L 462.593575 458.066714 
L 462.569931 457.314326 
L 462.49909 456.564908 
L 462.381332 455.821417 
L 462.217123 455.086787 
L 462.00711 454.363917 
L 461.752122 453.65566 
L 461.453165 452.964812 
L 461.11142 452.294099 
L 460.728234 451.646168 
L 460.305121 451.023575 
L 459.84375 450.428779 
L 459.345941 449.864126 
L 458.81366 449.331845 
L 458.249007 448.834037 
L 339.417089 346.614517 
L 338.822293 346.153145 
L 338.1997 345.730032 
L 337.551769 345.346846 
L 336.881056 345.005101 
L 336.190208 344.706144 
L 335.481951 344.451156 
L 334.759081 344.241143 
L 334.024451 344.076934 
L 333.28096 343.959176 
L 253.692824 331.826755 
L 252.943406 331.755914 
L 252.191018 331.73227 
L 251.438631 331.755914 
L 250.689212 331.826755 
L 249.945721 331.944513 
L 249.211091 332.108722 
L 248.488221 332.318735 
L 247.779965 332.573723 
L 247.089117 332.87268 
L 246.418404 333.214425 
L 245.770472 333.597611 
L 245.14788 334.020724 
L 244.553084 334.482095 
L 170.558539 393.861708 
L 169.993886 394.359516 
L 169.461605 394.891797 
L 168.963797 395.45645 
L 168.502425 396.051246 
L 168.079312 396.673839 
L 129.350816 462.140966 
L 128.96763 462.788897 
L 128.625885 463.45961 
L 128.326928 464.150458 
L 128.07194 464.858715 
L 127.861927 465.581585 
L 127.697718 466.316215 
L 127.57996 467.059706 
L 127.509119 467.809124 
L 127.485475 468.561512 
L 127.509119 469.313899 
L 127.57996 470.063318 
z
" clip-path="url(#pc554e67f7a)" style="fill: #f59e0b; fill-opacity: 0.13; stroke: #fbbf24; stroke-opacity: 0.13; stroke-width: 0.8"/>
    <path d="M 128.326928 472.972565 
L 149.501018 526.281083 
L 149.799975 526.971931 
L 150.14172 527.642644 
L 150.524906 528.290575 
L 150.948019 528.913168 
L 151.409391 529.507964 
L 151.907199 530.072617 
L 152.43948 530.604898 
L 225.601647 598.147467 
L 226.1663 598.645276 
L 226.761096 599.106647 
L 227.383689 599.52976 
L 228.03162 599.912946 
L 228.702333 600.254691 
L 229.393181 600.553648 
L 230.101438 600.808636 
L 230.824307 601.018649 
L 231.558938 601.182858 
L 232.302429 601.300616 
L 233.051847 601.371457 
L 233.804235 601.395101 
L 234.556622 601.371457 
L 235.30604 601.300616 
L 236.049532 601.182858 
L 236.784162 601.018649 
L 237.507032 600.808636 
L 238.215288 600.553648 
L 401.480366 536.41436 
L 402.171214 536.115403 
L 402.841928 535.773658 
L 403.489859 535.390472 
L 404.112451 534.967359 
L 404.707247 534.505988 
L 405.2719 534.008179 
L 405.804181 533.475898 
L 406.30199 532.911245 
L 406.763361 532.316449 
L 407.186474 531.693857 
L 407.56966 531.045925 
L 407.911405 530.375212 
L 408.210362 529.684364 
L 408.46535 528.976107 
L 455.714678 376.945776 
L 455.924691 376.222906 
L 456.088901 375.488276 
L 456.206658 374.744785 
L 456.277499 373.995367 
L 456.301144 373.242979 
L 456.277499 372.490592 
L 456.206658 371.741173 
L 456.088901 370.997682 
L 455.924691 370.263052 
L 455.714678 369.540182 
L 455.45969 368.831926 
L 455.160734 368.141078 
L 454.818988 367.470364 
L 454.435803 366.822433 
L 454.012689 366.199841 
L 453.551318 365.605044 
L 453.053509 365.040392 
L 452.521228 364.508111 
L 451.956576 364.010302 
L 451.361779 363.548931 
L 450.739187 363.125817 
L 450.091256 362.742632 
L 449.420542 362.400886 
L 448.729694 362.10193 
L 448.021438 361.846942 
L 447.298568 361.636929 
L 446.563938 361.472719 
L 445.820447 361.354962 
L 333.28096 343.959176 
L 253.692824 331.826755 
L 252.943406 331.755914 
L 252.191018 331.73227 
L 251.438631 331.755914 
L 250.689212 331.826755 
L 249.945721 331.944513 
L 249.211091 332.108722 
L 248.488221 332.318735 
L 247.779965 332.573723 
L 247.089117 332.87268 
L 246.418404 333.214425 
L 245.770472 333.597611 
L 245.14788 334.020724 
L 244.553084 334.482095 
L 170.558539 393.861708 
L 169.993886 394.359516 
L 169.461605 394.891797 
L 168.963797 395.45645 
L 168.502425 396.051246 
L 168.079312 396.673839 
L 129.350816 462.140966 
L 128.96763 462.788897 
L 128.625885 463.45961 
L 128.326928 464.150458 
L 128.07194 464.858715 
L 127.861927 465.581585 
L 127.697718 466.316215 
L 127.57996 467.059706 
L 127.509119 467.809124 
L 127.485475 468.561512 
L 127.509119 469.313899 
L 127.57996 470.063318 
L 127.697718 470.806809 
L 127.861927 471.541439 
L 128.07194 472.264309 
z
" clip-path="url(#pc554e67f7a)" style="fill: #f59e0b; fill-opacity: 0.13; stroke: #fbbf24; stroke-opacity: 0.13; stroke-width: 0.8"/>
    <path d="M 462.217123 455.086787 
L 416.169189 251.052046 
L 415.959176 250.329176 
L 415.704188 249.62092 
L 415.405231 248.930072 
L 415.063486 248.259359 
L 414.6803 247.611427 
L 414.257187 246.988835 
L 413.795815 246.394039 
L 413.298007 245.829386 
L 412.765726 245.297105 
L 412.201073 244.799296 
L 411.606277 244.337925 
L 410.983684 243.914812 
L 410.335753 243.531626 
L 409.66504 243.189881 
L 408.974192 242.890924 
L 408.265935 242.635936 
L 407.543066 242.425923 
L 406.808435 242.261714 
L 406.064944 242.143956 
L 405.315526 242.073115 
L 404.563138 242.049471 
L 403.810751 242.073115 
L 322.98954 247.065132 
L 322.240122 247.135973 
L 321.49663 247.25373 
L 320.762 247.417939 
L 320.039131 247.627952 
L 319.330874 247.88294 
L 318.640026 248.181897 
L 317.969313 248.523643 
L 317.321382 248.906828 
L 316.698789 249.329941 
L 316.103993 249.791313 
L 315.53934 250.289121 
L 315.007059 250.821402 
L 314.50925 251.386055 
L 187.262159 411.39053 
L 186.800788 411.985326 
L 186.377674 412.607919 
L 185.994489 413.25585 
L 185.652743 413.926563 
L 185.353787 414.617411 
L 185.098799 415.325668 
L 149.24603 518.167232 
L 149.036017 518.890102 
L 148.871808 519.624732 
L 148.75405 520.368223 
L 148.68321 521.117642 
L 148.659565 521.870029 
L 148.68321 522.622417 
L 148.75405 523.371835 
L 148.871808 524.115326 
L 149.036017 524.849957 
L 149.24603 525.572826 
L 149.501018 526.281083 
L 149.799975 526.971931 
L 150.14172 527.642644 
L 150.524906 528.290575 
L 150.948019 528.913168 
L 151.409391 529.507964 
L 151.907199 530.072617 
L 152.43948 530.604898 
L 225.601647 598.147467 
L 226.1663 598.645276 
L 226.761096 599.106647 
L 227.383689 599.52976 
L 228.03162 599.912946 
L 228.702333 600.254691 
L 229.393181 600.553648 
L 230.101438 600.808636 
L 230.824307 601.018649 
L 231.558938 601.182858 
L 232.302429 601.300616 
L 344.444471 613.236243 
L 345.19389 613.307084 
L 345.946277 613.330729 
L 346.698665 613.307084 
L 347.448083 613.236243 
L 348.191574 613.118485 
L 348.926205 612.954276 
L 349.649074 612.744263 
L 350.357331 612.489275 
L 351.048179 612.190318 
L 351.718892 611.848573 
L 352.366823 611.465387 
L 352.989416 611.042274 
L 353.584212 610.580903 
L 354.148865 610.083094 
L 354.681146 609.550813 
L 355.178954 608.98616 
L 355.640326 608.391364 
L 460.305121 465.109852 
L 460.728234 464.48726 
L 461.11142 463.839329 
L 461.453165 463.168615 
L 461.752122 462.477767 
L 462.00711 461.769511 
L 462.217123 461.046641 
L 462.381332 460.312011 
L 462.49909 459.56852 
L 462.569931 458.819101 
L 462.593575 458.066714 
L 462.569931 457.314326 
L 462.49909 456.564908 
L 462.381332 455.821417 
z
" clip-path="url(#pc554e67f7a)" style="fill: #f59e0b; fill-opacity: 0.13; stroke: #fbbf24; stroke-opacity: 0.13; stroke-width: 0.8"/>
    <path d="M 230.072706 359.499909 
L 327.390694 527.000202 
L 327.77388 527.648133 
L 328.196993 528.270725 
L 328.658364 528.865522 
L 329.156173 529.430174 
L 329.688454 529.962455 
L 330.253107 530.460264 
L 330.847903 530.921635 
L 331.470495 531.344749 
L 332.118427 531.727934 
L 332.78914 532.06968 
L 333.479988 532.368636 
L 334.188244 532.623624 
L 334.911114 532.833637 
L 335.645744 532.997847 
L 336.389236 533.115604 
L 337.138654 533.186445 
L 396.316925 537.232169 
L 397.069313 537.255813 
L 397.8217 537.232169 
L 398.571119 537.161328 
L 399.31461 537.04357 
L 400.04924 536.879361 
L 400.77211 536.669348 
L 401.480366 536.41436 
L 402.171214 536.115403 
L 402.841928 535.773658 
L 403.489859 535.390472 
L 404.112451 534.967359 
L 404.707247 534.505988 
L 405.2719 534.008179 
L 405.804181 533.475898 
L 562.266891 359.719874 
L 562.7647 359.155221 
L 563.226071 358.560425 
L 563.649184 357.937832 
L 564.03237 357.289901 
L 564.374115 356.619188 
L 564.673072 355.92834 
L 564.92806 355.220083 
L 565.138073 354.497213 
L 565.302282 353.762583 
L 565.42004 353.019092 
L 565.490881 352.269674 
L 565.514525 351.517286 
L 565.490881 350.764899 
L 565.42004 350.01548 
L 565.302282 349.271989 
L 536.507697 212.365178 
L 536.343487 211.630548 
L 536.133474 210.907678 
L 535.878486 210.199422 
L 535.57953 209.508573 
L 535.237784 208.83786 
L 534.854599 208.189929 
L 534.431485 207.567337 
L 533.970114 206.97254 
L 533.472306 206.407887 
L 532.940025 205.875606 
L 532.375372 205.377798 
L 531.780575 204.916427 
L 531.157983 204.493313 
L 530.510052 204.110128 
L 529.839338 203.768382 
L 529.14849 203.469426 
L 528.440234 203.214438 
L 527.717364 203.004425 
L 526.982734 202.840215 
L 526.239243 202.722458 
L 525.489825 202.651617 
L 524.737437 202.627972 
L 523.985049 202.651617 
L 523.235631 202.722458 
L 522.49214 202.840215 
L 321.49663 247.25373 
L 320.762 247.417939 
L 320.039131 247.627952 
L 319.330874 247.88294 
L 318.640026 248.181897 
L 317.969313 248.523643 
L 317.321382 248.906828 
L 316.698789 249.329941 
L 316.103993 249.791313 
L 315.53934 250.289121 
L 315.007059 250.821402 
L 314.50925 251.386055 
L 231.340376 346.08936 
L 230.879005 346.684156 
L 230.455892 347.306748 
L 230.072706 347.95468 
L 229.730961 348.625393 
L 229.432004 349.316241 
L 229.177016 350.024497 
L 228.967003 350.747367 
L 228.802794 351.481997 
L 228.685036 352.225488 
L 228.614195 352.974907 
L 228.590551 353.727294 
L 228.614195 354.479682 
L 228.685036 355.2291 
L 228.802794 355.972591 
L 228.967003 356.707222 
L 229.177016 357.430091 
L 229.432004 358.138348 
L 229.730961 358.829196 
z
" clip-path="url(#pc554e67f7a)" style="fill: #f59e0b; fill-opacity: 0.13; stroke: #fbbf24; stroke-opacity: 0.13; stroke-width: 0.8"/>
    <path d="M 209.99087 547.054073 
L 287.083251 640.78746 
L 287.581059 641.352113 
L 288.11334 641.884394 
L 288.677993 642.382202 
L 289.272789 642.843573 
L 289.895382 643.266687 
L 290.543313 643.649872 
L 291.214026 643.991618 
L 291.904874 644.290574 
L 292.613131 644.545562 
L 293.336001 644.755575 
L 294.070631 644.919785 
L 294.814122 645.037542 
L 295.56354 645.108383 
L 296.315928 645.132028 
L 297.068315 645.108383 
L 297.817734 645.037542 
L 298.561225 644.919785 
L 299.295855 644.755575 
L 300.018725 644.545562 
L 300.726981 644.290574 
L 406.896784 601.060049 
L 407.587632 600.761092 
L 408.258345 600.419347 
L 408.906277 600.036161 
L 409.528869 599.613048 
L 410.123665 599.151676 
L 410.688318 598.653868 
L 411.220599 598.121587 
L 411.718408 597.556934 
L 412.179779 596.962138 
L 412.602892 596.339545 
L 412.986078 595.691614 
L 413.327823 595.020901 
L 413.62678 594.330053 
L 413.881768 593.621796 
L 414.091781 592.898927 
L 414.25599 592.164296 
L 456.088901 375.488276 
L 456.206658 374.744785 
L 456.277499 373.995367 
L 456.301144 373.242979 
L 456.277499 372.490592 
L 456.206658 371.741173 
L 456.088901 370.997682 
L 455.924691 370.263052 
L 455.714678 369.540182 
L 455.45969 368.831926 
L 455.160734 368.141078 
L 454.818988 367.470364 
L 454.435803 366.822433 
L 454.012689 366.199841 
L 453.551318 365.605044 
L 453.053509 365.040392 
L 452.521228 364.508111 
L 451.956576 364.010302 
L 451.361779 363.548931 
L 450.739187 363.125817 
L 450.091256 362.742632 
L 449.420542 362.400886 
L 448.729694 362.10193 
L 448.021438 361.846942 
L 447.298568 361.636929 
L 446.563938 361.472719 
L 445.820447 361.354962 
L 333.28096 343.959176 
L 332.531542 343.888336 
L 331.779154 343.864691 
L 331.026767 343.888336 
L 330.277348 343.959176 
L 329.533857 344.076934 
L 328.799227 344.241143 
L 328.076357 344.451156 
L 327.368101 344.706144 
L 326.677253 345.005101 
L 326.006539 345.346846 
L 325.358608 345.730032 
L 324.736016 346.153145 
L 324.141219 346.614517 
L 323.576566 347.112325 
L 272.316894 397.625958 
L 271.784613 398.158239 
L 271.286805 398.722892 
L 216.988887 460.391401 
L 216.527516 460.986197 
L 216.104403 461.60879 
L 215.721217 462.256721 
L 215.379472 462.927434 
L 215.080515 463.618282 
L 214.825527 464.326539 
L 214.615514 465.049408 
L 214.451305 465.784039 
L 214.333547 466.52753 
L 207.33553 537.914332 
L 207.264689 538.66375 
L 207.241044 539.416138 
L 207.264689 540.168526 
L 207.33553 540.917944 
L 207.453287 541.661435 
L 207.617497 542.396065 
L 207.82751 543.118935 
L 208.082498 543.827191 
L 208.381454 544.518039 
L 208.7232 545.188753 
L 209.106385 545.836684 
L 209.529499 546.459276 
z
" clip-path="url(#pc554e67f7a)" style="fill: #f59e0b; fill-opacity: 0.13; stroke: #fbbf24; stroke-opacity: 0.13; stroke-width: 0.8"/>
    <path d="M 557.943076 340.376237 
L 328.152981 247.88294 
L 327.444725 247.627952 
L 326.721855 247.417939 
L 325.987225 247.25373 
L 325.243733 247.135973 
L 324.494315 247.065132 
L 323.741928 247.041487 
L 322.98954 247.065132 
L 322.240122 247.135973 
L 321.49663 247.25373 
L 320.762 247.417939 
L 320.039131 247.627952 
L 319.330874 247.88294 
L 318.640026 248.181897 
L 317.969313 248.523643 
L 317.321382 248.906828 
L 316.698789 249.329941 
L 316.103993 249.791313 
L 315.53934 250.289121 
L 315.007059 250.821402 
L 314.50925 251.386055 
L 187.262159 411.39053 
L 186.800788 411.985326 
L 186.377674 412.607919 
L 185.994489 413.25585 
L 185.652743 413.926563 
L 185.353787 414.617411 
L 185.098799 415.325668 
L 184.888786 416.048537 
L 184.724576 416.783167 
L 184.606819 417.526659 
L 184.535978 418.276077 
L 184.512333 419.028465 
L 184.535978 419.780852 
L 184.606819 420.53027 
L 184.724576 421.273762 
L 184.888786 422.008392 
L 185.098799 422.731262 
L 185.353787 423.439518 
L 185.652743 424.130366 
L 185.994489 424.801079 
L 186.377674 425.449011 
L 216.104403 474.449882 
L 216.527516 475.072474 
L 275.531717 557.661515 
L 275.993088 558.256312 
L 276.490897 558.820965 
L 277.023178 559.353246 
L 277.58783 559.851054 
L 338.308343 610.580903 
L 338.903139 611.042274 
L 339.525731 611.465387 
L 340.173663 611.848573 
L 340.844376 612.190318 
L 341.535224 612.489275 
L 342.24348 612.744263 
L 342.96635 612.954276 
L 343.70098 613.118485 
L 344.444471 613.236243 
L 345.19389 613.307084 
L 345.946277 613.330729 
L 346.698665 613.307084 
L 347.448083 613.236243 
L 348.191574 613.118485 
L 404.731028 601.689259 
L 405.465658 601.52505 
L 406.188528 601.315037 
L 406.896784 601.060049 
L 407.587632 600.761092 
L 408.258345 600.419347 
L 408.906277 600.036161 
L 409.528869 599.613048 
L 410.123665 599.151676 
L 410.688318 598.653868 
L 411.220599 598.121587 
L 411.718408 597.556934 
L 412.179779 596.962138 
L 412.602892 596.339545 
L 563.649184 357.937832 
L 564.03237 357.289901 
L 564.374115 356.619188 
L 564.673072 355.92834 
L 564.92806 355.220083 
L 565.138073 354.497213 
L 565.302282 353.762583 
L 565.42004 353.019092 
L 565.490881 352.269674 
L 565.514525 351.517286 
L 565.490881 350.764899 
L 565.42004 350.01548 
L 565.302282 349.271989 
L 565.138073 348.537359 
L 564.92806 347.814489 
L 564.673072 347.106233 
L 564.374115 346.415385 
L 564.03237 345.744671 
L 563.649184 345.09674 
L 563.226071 344.474148 
L 562.7647 343.879351 
L 562.266891 343.314699 
L 561.73461 342.782418 
L 561.169957 342.284609 
L 560.575161 341.823238 
L 559.952569 341.400124 
L 559.304637 341.016939 
L 558.633924 340.675193 
z
" clip-path="url(#pc554e67f7a)" style="fill: #f59e0b; fill-opacity: 0.13; stroke: #fbbf24; stroke-opacity: 0.13; stroke-width: 0.8"/>
    <path d="M 133.047431 478.678674 
L 133.695363 479.061859 
L 279.45315 561.118724 
L 280.123864 561.46047 
L 280.814712 561.759426 
L 281.522968 562.014414 
L 282.245838 562.224427 
L 282.980468 562.388637 
L 283.723959 562.506394 
L 284.473378 562.577235 
L 285.225765 562.60088 
L 285.978153 562.577235 
L 286.727571 562.506394 
L 287.471062 562.388637 
L 288.205693 562.224427 
L 288.928562 562.014414 
L 289.636819 561.759426 
L 290.327667 561.46047 
L 290.99838 561.118724 
L 343.663656 531.727934 
L 344.311588 531.344749 
L 344.93418 530.921635 
L 345.528976 530.460264 
L 409.804159 480.516067 
L 410.368812 480.018259 
L 410.901093 479.485978 
L 411.398902 478.921325 
L 411.860273 478.326528 
L 412.283386 477.703936 
L 412.666572 477.056005 
L 413.008317 476.385292 
L 413.307274 475.694444 
L 413.562262 474.986187 
L 413.772275 474.263317 
L 413.936484 473.528687 
L 414.054242 472.785196 
L 414.125083 472.035778 
L 414.148727 471.28339 
L 414.125083 470.531002 
L 414.054242 469.781584 
L 413.936484 469.038093 
L 413.772275 468.303463 
L 413.562262 467.580593 
L 413.307274 466.872337 
L 413.008317 466.181488 
L 412.666572 465.510775 
L 382.413648 409.358402 
L 382.030463 408.710471 
L 341.896316 349.426648 
L 341.473203 348.804055 
L 341.011831 348.209259 
L 340.514023 347.644606 
L 339.981742 347.112325 
L 339.417089 346.614517 
L 338.822293 346.153145 
L 338.1997 345.730032 
L 337.551769 345.346846 
L 336.881056 345.005101 
L 336.190208 344.706144 
L 335.481951 344.451156 
L 334.759081 344.241143 
L 334.024451 344.076934 
L 333.28096 343.959176 
L 253.692824 331.826755 
L 252.943406 331.755914 
L 252.191018 331.73227 
L 251.438631 331.755914 
L 250.689212 331.826755 
L 249.945721 331.944513 
L 249.211091 332.108722 
L 248.488221 332.318735 
L 247.779965 332.573723 
L 247.089117 332.87268 
L 246.418404 333.214425 
L 245.770472 333.597611 
L 245.14788 334.020724 
L 244.553084 334.482095 
L 170.558539 393.861708 
L 169.993886 394.359516 
L 169.461605 394.891797 
L 168.963797 395.45645 
L 168.502425 396.051246 
L 168.079312 396.673839 
L 129.350816 462.140966 
L 128.96763 462.788897 
L 128.625885 463.45961 
L 128.326928 464.150458 
L 128.07194 464.858715 
L 127.861927 465.581585 
L 127.697718 466.316215 
L 127.57996 467.059706 
L 127.509119 467.809124 
L 127.485475 468.561512 
L 127.509119 469.313899 
L 127.57996 470.063318 
L 127.697718 470.806809 
L 127.861927 471.541439 
L 128.07194 472.264309 
L 128.326928 472.972565 
L 128.625885 473.663413 
L 128.96763 474.334127 
L 129.350816 474.982058 
L 129.773929 475.60465 
L 130.2353 476.199447 
L 130.733109 476.764099 
L 131.26539 477.29638 
L 131.830043 477.794189 
L 132.424839 478.25556 
z
" clip-path="url(#pc554e67f7a)" style="fill: #f59e0b; fill-opacity: 0.13; stroke: #fbbf24; stroke-opacity: 0.13; stroke-width: 0.8"/>
    <path d="M 408.46535 528.976107 
L 455.714678 376.945776 
L 455.924691 376.222906 
L 456.088901 375.488276 
L 456.206658 374.744785 
L 456.277499 373.995367 
L 456.301144 373.242979 
L 456.277499 372.490592 
L 456.206658 371.741173 
L 456.088901 370.997682 
L 455.924691 370.263052 
L 455.714678 369.540182 
L 455.45969 368.831926 
L 455.160734 368.141078 
L 454.818988 367.470364 
L 454.435803 366.822433 
L 454.012689 366.199841 
L 453.551318 365.605044 
L 453.053509 365.040392 
L 452.521228 364.508111 
L 451.956576 364.010302 
L 451.361779 363.548931 
L 450.739187 363.125817 
L 450.091256 362.742632 
L 449.420542 362.400886 
L 448.729694 362.10193 
L 448.021438 361.846942 
L 447.298568 361.636929 
L 446.563938 361.472719 
L 445.820447 361.354962 
L 445.071028 361.284121 
L 444.318641 361.260476 
L 323.46346 358.142067 
L 322.711073 358.165712 
L 321.961654 358.236553 
L 321.218163 358.35431 
L 320.483533 358.518519 
L 175.216546 391.488334 
L 174.493677 391.698347 
L 173.78542 391.953335 
L 173.094572 392.252292 
L 172.423859 392.594037 
L 171.775928 392.977223 
L 171.153335 393.400336 
L 170.558539 393.861708 
L 169.993886 394.359516 
L 169.461605 394.891797 
L 168.963797 395.45645 
L 168.502425 396.051246 
L 168.079312 396.673839 
L 167.696126 397.32177 
L 167.354381 397.992483 
L 167.055424 398.683331 
L 166.800436 399.391588 
L 166.590423 400.114457 
L 166.426214 400.849088 
L 166.308457 401.592579 
L 166.237616 402.341997 
L 166.213971 403.094385 
L 166.237616 403.846772 
L 166.308457 404.596191 
L 166.426214 405.339682 
L 166.590423 406.074312 
L 166.800436 406.797182 
L 207.82751 543.118935 
L 208.082498 543.827191 
L 208.381454 544.518039 
L 208.7232 545.188753 
L 209.106385 545.836684 
L 209.529499 546.459276 
L 209.99087 547.054073 
L 287.083251 640.78746 
L 287.581059 641.352113 
L 288.11334 641.884394 
L 288.677993 642.382202 
L 289.272789 642.843573 
L 289.895382 643.266687 
L 290.543313 643.649872 
L 291.214026 643.991618 
L 291.904874 644.290574 
L 292.613131 644.545562 
L 293.336001 644.755575 
L 294.070631 644.919785 
L 294.814122 645.037542 
L 295.56354 645.108383 
L 296.315928 645.132028 
L 297.068315 645.108383 
L 297.817734 645.037542 
L 298.561225 644.919785 
L 299.295855 644.755575 
L 300.018725 644.545562 
L 300.726981 644.290574 
L 301.417829 643.991618 
L 302.088543 643.649872 
L 302.736474 643.266687 
L 303.359066 642.843573 
L 303.953863 642.382202 
L 304.518515 641.884394 
L 305.050796 641.352113 
L 405.804181 533.475898 
L 406.30199 532.911245 
L 406.763361 532.316449 
L 407.186474 531.693857 
L 407.56966 531.045925 
L 407.911405 530.375212 
L 408.210362 529.684364 
z
" clip-path="url(#pc554e67f7a)" style="fill: #f59e0b; fill-opacity: 0.13; stroke: #fbbf24; stroke-opacity: 0.13; stroke-width: 0.8"/>
    <path d="M 168.502425 410.137523 
L 216.527516 475.072474 
L 216.988887 475.66727 
L 217.486696 476.231923 
L 218.018977 476.764204 
L 270.202589 524.842759 
L 270.767242 525.340567 
L 271.362038 525.801939 
L 271.984631 526.225052 
L 272.632562 526.608238 
L 273.303275 526.949983 
L 273.994123 527.24894 
L 274.70238 527.503928 
L 275.425249 527.713941 
L 276.15988 527.87815 
L 276.903371 527.995907 
L 277.652789 528.066748 
L 278.405177 528.090393 
L 279.157564 528.066748 
L 279.906983 527.995907 
L 280.650474 527.87815 
L 281.385104 527.713941 
L 282.107974 527.503928 
L 282.81623 527.24894 
L 283.507078 526.949983 
L 284.177792 526.608238 
L 284.825723 526.225052 
L 285.448315 525.801939 
L 286.043112 525.340567 
L 286.607764 524.842759 
L 287.140045 524.310478 
L 287.637854 523.745825 
L 372.902083 424.159683 
L 373.363454 423.564887 
L 373.786567 422.942295 
L 374.169753 422.294363 
L 374.511498 421.62365 
L 374.810455 420.932802 
L 375.065443 420.224545 
L 375.275456 419.501676 
L 416.169189 257.011901 
L 416.333398 256.277271 
L 416.451155 255.533779 
L 416.521996 254.784361 
L 416.545641 254.031973 
L 416.521996 253.279586 
L 416.451155 252.530168 
L 416.333398 251.786676 
L 416.169189 251.052046 
L 415.959176 250.329176 
L 415.704188 249.62092 
L 415.405231 248.930072 
L 415.063486 248.259359 
L 414.6803 247.611427 
L 414.257187 246.988835 
L 413.795815 246.394039 
L 413.298007 245.829386 
L 412.765726 245.297105 
L 412.201073 244.799296 
L 411.606277 244.337925 
L 410.983684 243.914812 
L 410.335753 243.531626 
L 409.66504 243.189881 
L 408.974192 242.890924 
L 408.265935 242.635936 
L 407.543066 242.425923 
L 406.808435 242.261714 
L 406.064944 242.143956 
L 405.315526 242.073115 
L 404.563138 242.049471 
L 403.810751 242.073115 
L 322.98954 247.065132 
L 322.240122 247.135973 
L 321.49663 247.25373 
L 320.762 247.417939 
L 320.039131 247.627952 
L 319.330874 247.88294 
L 318.640026 248.181897 
L 317.969313 248.523643 
L 317.321382 248.906828 
L 316.698789 249.329941 
L 316.103993 249.791313 
L 315.53934 250.289121 
L 169.993886 394.359516 
L 169.461605 394.891797 
L 168.963797 395.45645 
L 168.502425 396.051246 
L 168.079312 396.673839 
L 167.696126 397.32177 
L 167.354381 397.992483 
L 167.055424 398.683331 
L 166.800436 399.391588 
L 166.590423 400.114457 
L 166.426214 400.849088 
L 166.308457 401.592579 
L 166.237616 402.341997 
L 166.213971 403.094385 
L 166.237616 403.846772 
L 166.308457 404.596191 
L 166.426214 405.339682 
L 166.590423 406.074312 
L 166.800436 406.797182 
L 167.055424 407.505438 
L 167.354381 408.196286 
L 167.696126 408.866999 
L 168.079312 409.514931 
z
" clip-path="url(#pc554e67f7a)" style="fill: #f59e0b; fill-opacity: 0.13; stroke: #fbbf24; stroke-opacity: 0.13; stroke-width: 0.8"/>
    <path d="M 372.902083 408.883814 
L 332.696137 362.486635 
L 332.198329 361.921982 
L 331.666048 361.389701 
L 331.101395 360.891893 
L 330.506599 360.430522 
L 329.884006 360.007408 
L 329.236075 359.624223 
L 328.565362 359.282477 
L 327.874514 358.983521 
L 256.602072 332.573723 
L 255.893815 332.318735 
L 255.170946 332.108722 
L 254.436315 331.944513 
L 253.692824 331.826755 
L 252.943406 331.755914 
L 252.191018 331.73227 
L 251.438631 331.755914 
L 250.689212 331.826755 
L 249.945721 331.944513 
L 249.211091 332.108722 
L 248.488221 332.318735 
L 247.779965 332.573723 
L 247.089117 332.87268 
L 246.418404 333.214425 
L 245.770472 333.597611 
L 245.14788 334.020724 
L 244.553084 334.482095 
L 170.558539 393.861708 
L 169.993886 394.359516 
L 169.461605 394.891797 
L 168.963797 395.45645 
L 168.502425 396.051246 
L 168.079312 396.673839 
L 129.350816 462.140966 
L 128.96763 462.788897 
L 128.625885 463.45961 
L 128.326928 464.150458 
L 128.07194 464.858715 
L 127.861927 465.581585 
L 127.697718 466.316215 
L 127.57996 467.059706 
L 127.509119 467.809124 
L 127.485475 468.561512 
L 127.509119 469.313899 
L 127.57996 470.063318 
L 127.697718 470.806809 
L 127.861927 471.541439 
L 128.07194 472.264309 
L 128.326928 472.972565 
L 128.625885 473.663413 
L 128.96763 474.334127 
L 129.350816 474.982058 
L 129.773929 475.60465 
L 130.2353 476.199447 
L 130.733109 476.764099 
L 131.26539 477.29638 
L 131.830043 477.794189 
L 132.424839 478.25556 
L 133.047431 478.678674 
L 133.695363 479.061859 
L 134.366076 479.403604 
L 135.056924 479.702561 
L 135.76518 479.957549 
L 136.48805 480.167562 
L 334.911114 532.833637 
L 335.645744 532.997847 
L 336.389236 533.115604 
L 337.138654 533.186445 
L 337.891041 533.21009 
L 338.643429 533.186445 
L 339.392847 533.115604 
L 340.136339 532.997847 
L 340.870969 532.833637 
L 341.593838 532.623624 
L 342.302095 532.368636 
L 342.992943 532.06968 
L 343.663656 531.727934 
L 344.311588 531.344749 
L 344.93418 530.921635 
L 345.528976 530.460264 
L 346.093629 529.962455 
L 346.62591 529.430174 
L 347.123719 528.865522 
L 347.58509 528.270725 
L 348.008203 527.648133 
L 348.391389 527.000202 
L 348.733134 526.329488 
L 349.032091 525.63864 
L 349.287079 524.930384 
L 349.497092 524.207514 
L 375.275456 419.501676 
L 375.439665 418.767046 
L 375.557423 418.023554 
L 375.628264 417.274136 
L 375.651908 416.521748 
L 375.628264 415.769361 
L 375.557423 415.019943 
L 375.439665 414.276451 
L 375.275456 413.541821 
L 375.065443 412.818951 
L 374.810455 412.110695 
L 374.511498 411.419847 
L 374.169753 410.749134 
L 373.786567 410.101202 
L 373.363454 409.47861 
z
" clip-path="url(#pc554e67f7a)" style="fill: #f59e0b; fill-opacity: 0.13; stroke: #fbbf24; stroke-opacity: 0.13; stroke-width: 0.8"/>
   </g>
   <g id="LineCollection_1"/>
   <g id="PathCollection_1">
    <defs>
     <path id="mb460ae4eaa" d="M 0 6 
C 1.591219 6 3.117479 5.367802 4.242641 4.242641 
C 5.367802 3.117479 6 1.591219 6 0 
C 6 -1.591219 5.367802 -3.117479 4.242641 -4.242641 
C 3.117479 -5.367802 1.591219 -6 0 -6 
C -1.591219 -6 -3.117479 -5.367802 -4.242641 -4.242641 
C -5.367802 -3.117479 -6 -1.591219 -6 0 
C -6 1.591219 -5.367802 3.117479 -4.242641 4.242641 
C -3.117479 5.367802 -1.591219 6 0 6 
z
" style="stroke: #f8fafc; stroke-width: 0.8"/>
    </defs>
    <g clip-path="url(#pc554e67f7a)">
     <use xlink:href="#mb460ae4eaa" x="402.485731" y="589.918999" style="fill: #38bdf8; stroke: #f8fafc; stroke-width: 0.8"/>
     <use xlink:href="#mb460ae4eaa" x="382.085677" y="482.986234" style="fill: #38bdf8; stroke: #f8fafc; stroke-width: 0.8"/>
     <use xlink:href="#mb460ae4eaa" x="296.315928" y="633.149525" style="fill: #38bdf8; stroke: #f8fafc; stroke-width: 0.8"/>
     <use xlink:href="#mb460ae4eaa" x="284.39468" y="407.747145" style="fill: #38bdf8; stroke: #f8fafc; stroke-width: 0.8"/>
     <use xlink:href="#mb460ae4eaa" x="226.221564" y="468.029336" style="fill: #38bdf8; stroke: #f8fafc; stroke-width: 0.8"/>
     <use xlink:href="#mb460ae4eaa" x="280.519482" y="406.360827" style="fill: #38bdf8; stroke: #f8fafc; stroke-width: 0.8"/>
     <use xlink:href="#mb460ae4eaa" x="320.356593" y="459.278801" style="fill: #38bdf8; stroke: #f8fafc; stroke-width: 0.8"/>
     <use xlink:href="#mb460ae4eaa" x="278.405177" y="516.10789" style="fill: #38bdf8; stroke: #f8fafc; stroke-width: 0.8"/>
     <use xlink:href="#mb460ae4eaa" x="397.069313" y="525.27331" style="fill: #38bdf8; stroke: #f8fafc; stroke-width: 0.8"/>
     <use xlink:href="#mb460ae4eaa" x="316.561649" y="456.824362" style="fill: #38bdf8; stroke: #f8fafc; stroke-width: 0.8"/>
     <use xlink:href="#mb460ae4eaa" x="371.913301" y="415.131017" style="fill: #38bdf8; stroke: #f8fafc; stroke-width: 0.8"/>
     <use xlink:href="#mb460ae4eaa" x="363.669406" y="416.521748" style="fill: #38bdf8; stroke: #f8fafc; stroke-width: 0.8"/>
     <use xlink:href="#mb460ae4eaa" x="331.779154" y="355.847194" style="fill: #38bdf8; stroke: #f8fafc; stroke-width: 0.8"/>
     <use xlink:href="#mb460ae4eaa" x="219.223547" y="539.416138" style="fill: #38bdf8; stroke: #f8fafc; stroke-width: 0.8"/>
     <use xlink:href="#mb460ae4eaa" x="337.891041" y="521.227587" style="fill: #38bdf8; stroke: #f8fafc; stroke-width: 0.8"/>
     <use xlink:href="#mb460ae4eaa" x="402.166225" y="471.28339" style="fill: #38bdf8; stroke: #f8fafc; stroke-width: 0.8"/>
     <use xlink:href="#mb460ae4eaa" x="237.688173" y="466.54213" style="fill: #38bdf8; stroke: #f8fafc; stroke-width: 0.8"/>
     <use xlink:href="#mb460ae4eaa" x="444.318641" y="373.242979" style="fill: #38bdf8; stroke: #f8fafc; stroke-width: 0.8"/>
     <use xlink:href="#mb460ae4eaa" x="160.642068" y="521.870029" style="fill: #38bdf8; stroke: #f8fafc; stroke-width: 0.8"/>
     <use xlink:href="#mb460ae4eaa" x="404.563138" y="254.031973" style="fill: #38bdf8; stroke: #f8fafc; stroke-width: 0.8"/>
     <use xlink:href="#mb460ae4eaa" x="323.741928" y="259.02399" style="fill: #38bdf8; stroke: #f8fafc; stroke-width: 0.8"/>
     <use xlink:href="#mb460ae4eaa" x="323.46346" y="370.12457" style="fill: #38bdf8; stroke: #f8fafc; stroke-width: 0.8"/>
     <use xlink:href="#mb460ae4eaa" x="450.611073" y="458.066714" style="fill: #38bdf8; stroke: #f8fafc; stroke-width: 0.8"/>
     <use xlink:href="#mb460ae4eaa" x="196.494836" y="419.028465" style="fill: #38bdf8; stroke: #f8fafc; stroke-width: 0.8"/>
     <use xlink:href="#mb460ae4eaa" x="285.225765" y="550.618377" style="fill: #38bdf8; stroke: #f8fafc; stroke-width: 0.8"/>
     <use xlink:href="#mb460ae4eaa" x="345.946277" y="601.348226" style="fill: #38bdf8; stroke: #f8fafc; stroke-width: 0.8"/>
     <use xlink:href="#mb460ae4eaa" x="233.804235" y="589.412599" style="fill: #38bdf8; stroke: #f8fafc; stroke-width: 0.8"/>
     <use xlink:href="#mb460ae4eaa" x="553.532023" y="351.517286" style="fill: #38bdf8; stroke: #f8fafc; stroke-width: 0.8"/>
     <use xlink:href="#mb460ae4eaa" x="178.196474" y="403.094385" style="fill: #38bdf8; stroke: #f8fafc; stroke-width: 0.8"/>
     <use xlink:href="#mb460ae4eaa" x="252.191018" y="343.714772" style="fill: #38bdf8; stroke: #f8fafc; stroke-width: 0.8"/>
     <use xlink:href="#mb460ae4eaa" x="139.467977" y="468.561512" style="fill: #38bdf8; stroke: #f8fafc; stroke-width: 0.8"/>
     <use xlink:href="#mb460ae4eaa" x="240.573054" y="353.727294" style="fill: #38bdf8; stroke: #f8fafc; stroke-width: 0.8"/>
     <use xlink:href="#mb460ae4eaa" x="165.730819" y="622.829831" style="fill: #38bdf8; stroke: #f8fafc; stroke-width: 0.8"/>
     <use xlink:href="#mb460ae4eaa" x="524.737437" y="214.610475" style="fill: #38bdf8; stroke: #f8fafc; stroke-width: 0.8"/>
    </g>
   </g>
   <g id="text_2">
    <g clip-path="url(#pc554e67f7a)">
     <text style="font-size: 8.2px; font-family: 'Noto Sans', 'Noto Sans CJK SC', 'Noto Sans CJK JP', 'Amiri', 'Scheherazade', 'Abyssinica SIL', 'Padauk', 'Lohit Devanagari', 'Lohit Tamil', 'Lohit Gujarati', 'Loma', 'Garuda', 'DejaVu Sans', 'Arial', 'Helvetica', sans-serif; text-anchor: middle; fill: #e5e7eb" x="284.39468" y="409.879145" transform="rotate(-0 284.39468 409.879145)">evil</text>
    </g>
   </g>
   <g id="text_3">
    <g clip-path="url(#pc554e67f7a)">
     <text style="font-size: 8.2px; font-family: 'Noto Sans', 'Noto Sans CJK SC', 'Noto Sans CJK JP', 'Amiri', 'Scheherazade', 'Abyssinica SIL', 'Padauk', 'Lohit Devanagari', 'Lohit Tamil', 'Lohit Gujarati', 'Loma', 'Garuda', 'DejaVu Sans', 'Arial', 'Helvetica', sans-serif; text-anchor: middle; fill: #e5e7eb" x="323.46346" y="372.25657" transform="rotate(-0 323.46346 372.25657)">fair</text>
    </g>
   </g>
   <g id="text_4">
    <g clip-path="url(#pc554e67f7a)">
     <text style="font-size: 8.2px; font-family: 'Noto Sans', 'Noto Sans CJK SC', 'Noto Sans CJK JP', 'Amiri', 'Scheherazade', 'Abyssinica SIL', 'Padauk', 'Lohit Devanagari', 'Lohit Tamil', 'Lohit Gujarati', 'Loma', 'Garuda', 'DejaVu Sans', 'Arial', 'Helvetica', sans-serif; text-anchor: middle; fill: #e5e7eb" x="165.730819" y="624.961831" transform="rotate(-0 165.730819 624.961831)">enduring</text>
    </g>
   </g>
   <g id="text_5">
    <g clip-path="url(#pc554e67f7a)">
     <text style="font-size: 8.2px; font-family: 'Noto Sans', 'Noto Sans CJK SC', 'Noto Sans CJK JP', 'Amiri', 'Scheherazade', 'Abyssinica SIL', 'Padauk', 'Lohit Devanagari', 'Lohit Tamil', 'Lohit Gujarati', 'Loma', 'Garuda', 'DejaVu Sans', 'Arial', 'Helvetica', sans-serif; text-anchor: middle; fill: #e5e7eb" x="316.561649" y="458.956362" transform="rotate(-0 316.561649 458.956362)">long</text>
    </g>
   </g>
   <g id="text_6">
    <g clip-path="url(#pc554e67f7a)">
     <text style="font-size: 8.2px; font-family: 'Noto Sans', 'Noto Sans CJK SC', 'Noto Sans CJK JP', 'Amiri', 'Scheherazade', 'Abyssinica SIL', 'Padauk', 'Lohit Devanagari', 'Lohit Tamil', 'Lohit Gujarati', 'Loma', 'Garuda', 'DejaVu Sans', 'Arial', 'Helvetica', sans-serif; text-anchor: middle; fill: #e5e7eb" x="278.405177" y="518.23989" transform="rotate(-0 278.405177 518.23989)">high</text>
    </g>
   </g>
   <g id="text_7">
    <g clip-path="url(#pc554e67f7a)">
     <text style="font-size: 8.2px; font-family: 'Noto Sans', 'Noto Sans CJK SC', 'Noto Sans CJK JP', 'Amiri', 'Scheherazade', 'Abyssinica SIL', 'Padauk', 'Lohit Devanagari', 'Lohit Tamil', 'Lohit Gujarati', 'Loma', 'Garuda', 'DejaVu Sans', 'Arial', 'Helvetica', sans-serif; text-anchor: middle; fill: #e5e7eb" x="444.318641" y="375.374979" transform="rotate(-0 444.318641 375.374979)">young</text>
    </g>
   </g>
   <g id="text_8">
    <g clip-path="url(#pc554e67f7a)">
     <text style="font-size: 8.2px; font-family: 'Noto Sans', 'Noto Sans CJK SC', 'Noto Sans CJK JP', 'Amiri', 'Scheherazade', 'Abyssinica SIL', 'Padauk', 'Lohit Devanagari', 'Lohit Tamil', 'Lohit Gujarati', 'Loma', 'Garuda', 'DejaVu Sans', 'Arial', 'Helvetica', sans-serif; text-anchor: middle; fill: #e5e7eb" x="280.519482" y="408.492827" transform="rotate(-0 280.519482 408.492827)">good</text>
    </g>
   </g>
   <g id="text_9">
    <g clip-path="url(#pc554e67f7a)">
     <text style="font-size: 8.2px; font-family: 'Noto Sans', 'Noto Sans CJK SC', 'Noto Sans CJK JP', 'Amiri', 'Scheherazade', 'Abyssinica SIL', 'Padauk', 'Lohit Devanagari', 'Lohit Tamil', 'Lohit Gujarati', 'Loma', 'Garuda', 'DejaVu Sans', 'Arial', 'Helvetica', sans-serif; text-anchor: middle; fill: #e5e7eb" x="296.315928" y="635.281525" transform="rotate(-0 296.315928 635.281525)">divine</text>
    </g>
   </g>
   <g id="text_10">
    <g clip-path="url(#pc554e67f7a)">
     <text style="font-size: 8.2px; font-family: 'Noto Sans', 'Noto Sans CJK SC', 'Noto Sans CJK JP', 'Amiri', 'Scheherazade', 'Abyssinica SIL', 'Padauk', 'Lohit Devanagari', 'Lohit Tamil', 'Lohit Gujarati', 'Loma', 'Garuda', 'DejaVu Sans', 'Arial', 'Helvetica', sans-serif; text-anchor: middle; fill: #e5e7eb" x="363.669406" y="418.653748" transform="rotate(-0 363.669406 418.653748)">old</text>
    </g>
   </g>
   <g id="text_11">
    <g clip-path="url(#pc554e67f7a)">
     <text style="font-size: 8.2px; font-family: 'Noto Sans', 'Noto Sans CJK SC', 'Noto Sans CJK JP', 'Amiri', 'Scheherazade', 'Abyssinica SIL', 'Padauk', 'Lohit Devanagari', 'Lohit Tamil', 'Lohit Gujarati', 'Loma', 'Garuda', 'DejaVu Sans', 'Arial', 'Helvetica', sans-serif; text-anchor: middle; fill: #e5e7eb" x="320.356593" y="461.410801" transform="rotate(-0 320.356593 461.410801)">great</text>
    </g>
   </g>
   <g id="text_12">
    <g clip-path="url(#pc554e67f7a)">
     <text style="font-size: 8.2px; font-family: 'Noto Sans', 'Noto Sans CJK SC', 'Noto Sans CJK JP', 'Amiri', 'Scheherazade', 'Abyssinica SIL', 'Padauk', 'Lohit Devanagari', 'Lohit Tamil', 'Lohit Gujarati', 'Loma', 'Garuda', 'DejaVu Sans', 'Arial', 'Helvetica', sans-serif; text-anchor: middle; fill: #e5e7eb" x="226.221564" y="470.161336" transform="rotate(-0 226.221564 470.161336)">godlike</text>
    </g>
   </g>
   <g id="text_13">
    <g clip-path="url(#pc554e67f7a)">
     <text style="font-size: 8.2px; font-family: 'Noto Sans', 'Noto Sans CJK SC', 'Noto Sans CJK JP', 'Amiri', 'Scheherazade', 'Abyssinica SIL', 'Padauk', 'Lohit Devanagari', 'Lohit Tamil', 'Lohit Gujarati', 'Loma', 'Garuda', 'DejaVu Sans', 'Arial', 'Helvetica', sans-serif; text-anchor: middle; fill: #e5e7eb" x="196.494836" y="421.160465" transform="rotate(-0 196.494836 421.160465)">glad</text>
    </g>
   </g>
   <g id="text_14">
    <g clip-path="url(#pc554e67f7a)">
     <text style="font-size: 8.2px; font-family: 'Noto Sans', 'Noto Sans CJK SC', 'Noto Sans CJK JP', 'Amiri', 'Scheherazade', 'Abyssinica SIL', 'Padauk', 'Lohit Devanagari', 'Lohit Tamil', 'Lohit Gujarati', 'Loma', 'Garuda', 'DejaVu Sans', 'Arial', 'Helvetica', sans-serif; text-anchor: middle; fill: #e5e7eb" x="404.563138" y="256.163973" transform="rotate(-0 404.563138 256.163973)">black</text>
    </g>
   </g>
   <g id="text_15">
    <g clip-path="url(#pc554e67f7a)">
     <text style="font-size: 8.2px; font-family: 'Noto Sans', 'Noto Sans CJK SC', 'Noto Sans CJK JP', 'Amiri', 'Scheherazade', 'Abyssinica SIL', 'Padauk', 'Lohit Devanagari', 'Lohit Tamil', 'Lohit Gujarati', 'Loma', 'Garuda', 'DejaVu Sans', 'Arial', 'Helvetica', sans-serif; text-anchor: middle; fill: #e5e7eb" x="237.688173" y="468.67413" transform="rotate(-0 237.688173 468.67413)">wise</text>
    </g>
   </g>
   <g id="text_16">
    <g clip-path="url(#pc554e67f7a)">
     <text style="font-size: 8.2px; font-family: 'Noto Sans', 'Noto Sans CJK SC', 'Noto Sans CJK JP', 'Amiri', 'Scheherazade', 'Abyssinica SIL', 'Padauk', 'Lohit Devanagari', 'Lohit Tamil', 'Lohit Gujarati', 'Loma', 'Garuda', 'DejaVu Sans', 'Arial', 'Helvetica', sans-serif; text-anchor: middle; fill: #e5e7eb" x="371.913301" y="417.263017" transform="rotate(-0 371.913301 417.263017)">mighty</text>
    </g>
   </g>
   <g id="text_17">
    <g clip-path="url(#pc554e67f7a)">
     <text style="font-size: 8.2px; font-family: 'Noto Sans', 'Noto Sans CJK SC', 'Noto Sans CJK JP', 'Amiri', 'Scheherazade', 'Abyssinica SIL', 'Padauk', 'Lohit Devanagari', 'Lohit Tamil', 'Lohit Gujarati', 'Loma', 'Garuda', 'DejaVu Sans', 'Arial', 'Helvetica', sans-serif; text-anchor: middle; fill: #e5e7eb" x="323.741928" y="261.15599" transform="rotate(-0 323.741928 261.15599)">deep</text>
    </g>
   </g>
  </g>
  <g id="axes_2">
   <g id="LineCollection_2">
    <path d="M 933.225078 524.547956 
L 1042.058774 493.749107 
" clip-path="url(#p26d755cbce)" style="fill: none; stroke: #94a3b8; stroke-width: 0.65"/>
    <path d="M 993.252459 445.252633 
L 1042.058774 493.749107 
" clip-path="url(#p26d755cbce)" style="fill: none; stroke: #94a3b8; stroke-width: 0.65"/>
    <path d="M 1093.97532 470.94819 
L 1042.058774 493.749107 
" clip-path="url(#p26d755cbce)" style="fill: none; stroke: #94a3b8; stroke-width: 0.65"/>
    <path d="M 959.275977 390.462569 
L 1042.058774 493.749107 
" clip-path="url(#p26d755cbce)" style="fill: none; stroke: #94a3b8; stroke-width: 0.65"/>
    <path d="M 1116.627621 615.240369 
L 1042.058774 493.749107 
" clip-path="url(#p26d755cbce)" style="fill: none; stroke: #94a3b8; stroke-width: 0.65"/>
    <path d="M 1049.314146 421.667313 
L 1042.058774 493.749107 
" clip-path="url(#p26d755cbce)" style="fill: none; stroke: #94a3b8; stroke-width: 0.65"/>
    <path d="M 1172.112586 528.425335 
L 1042.058774 493.749107 
" clip-path="url(#p26d755cbce)" style="fill: none; stroke: #94a3b8; stroke-width: 0.65"/>
    <path d="M 909.172839 501.166865 
L 1042.058774 493.749107 
" clip-path="url(#p26d755cbce)" style="fill: none; stroke: #94a3b8; stroke-width: 0.65"/>
    <path d="M 1122.861697 452.827431 
L 1042.058774 493.749107 
" clip-path="url(#p26d755cbce)" style="fill: none; stroke: #94a3b8; stroke-width: 0.65"/>
    <path d="M 999.169351 392.429964 
L 1042.058774 493.749107 
" clip-path="url(#p26d755cbce)" style="fill: none; stroke: #94a3b8; stroke-width: 0.65"/>
    <path d="M 942.378251 447.740411 
L 1042.058774 493.749107 
" clip-path="url(#p26d755cbce)" style="fill: none; stroke: #94a3b8; stroke-width: 0.65"/>
    <path d="M 1032.971765 447.198379 
L 1042.058774 493.749107 
" clip-path="url(#p26d755cbce)" style="fill: none; stroke: #94a3b8; stroke-width: 0.65"/>
    <path d="M 1110.163234 498.262328 
L 1042.058774 493.749107 
" clip-path="url(#p26d755cbce)" style="fill: none; stroke: #94a3b8; stroke-width: 0.65"/>
    <path d="M 1140.396814 416.574197 
L 1042.058774 493.749107 
" clip-path="url(#p26d755cbce)" style="fill: none; stroke: #94a3b8; stroke-width: 0.65"/>
    <path d="M 918.766812 465.113604 
L 1042.058774 493.749107 
" clip-path="url(#p26d755cbce)" style="fill: none; stroke: #94a3b8; stroke-width: 0.65"/>
    <path d="M 1011.389466 623.417859 
L 1042.058774 493.749107 
" clip-path="url(#p26d755cbce)" style="fill: none; stroke: #94a3b8; stroke-width: 0.65"/>
    <path d="M 967.852446 428.196979 
L 1042.058774 493.749107 
" clip-path="url(#p26d755cbce)" style="fill: none; stroke: #94a3b8; stroke-width: 0.65"/>
    <path d="M 961.30722 550.039949 
L 1042.058774 493.749107 
" clip-path="url(#p26d755cbce)" style="fill: none; stroke: #94a3b8; stroke-width: 0.65"/>
    <path d="M 1013.207709 418.87619 
L 1004.653955 482.175372 
" clip-path="url(#p26d755cbce)" style="fill: none; stroke: #94a3b8; stroke-width: 0.65"/>
    <path d="M 911.758584 604.50076 
L 1004.653955 482.175372 
" clip-path="url(#p26d755cbce)" style="fill: none; stroke: #94a3b8; stroke-width: 0.65"/>
    <path d="M 993.252459 445.252633 
L 1004.653955 482.175372 
" clip-path="url(#p26d755cbce)" style="fill: none; stroke: #94a3b8; stroke-width: 0.65"/>
    <path d="M 933.225078 524.547956 
L 1004.653955 482.175372 
" clip-path="url(#p26d755cbce)" style="fill: none; stroke: #94a3b8; stroke-width: 0.65"/>
    <path d="M 1093.97532 470.94819 
L 1004.653955 482.175372 
" clip-path="url(#p26d755cbce)" style="fill: none; stroke: #94a3b8; stroke-width: 0.65"/>
    <path d="M 1049.314146 421.667313 
L 1004.653955 482.175372 
" clip-path="url(#p26d755cbce)" style="fill: none; stroke: #94a3b8; stroke-width: 0.65"/>
    <path d="M 909.172839 501.166865 
L 1004.653955 482.175372 
" clip-path="url(#p26d755cbce)" style="fill: none; stroke: #94a3b8; stroke-width: 0.65"/>
    <path d="M 1038.579182 590.099799 
L 1004.653955 482.175372 
" clip-path="url(#p26d755cbce)" style="fill: none; stroke: #94a3b8; stroke-width: 0.65"/>
    <path d="M 1111.562708 377.815082 
L 1004.653955 482.175372 
" clip-path="url(#p26d755cbce)" style="fill: none; stroke: #94a3b8; stroke-width: 0.65"/>
    <path d="M 1140.609786 564.192719 
L 1004.653955 482.175372 
" clip-path="url(#p26d755cbce)" style="fill: none; stroke: #94a3b8; stroke-width: 0.65"/>
    <path d="M 999.169351 392.429964 
L 1004.653955 482.175372 
" clip-path="url(#p26d755cbce)" style="fill: none; stroke: #94a3b8; stroke-width: 0.65"/>
    <path d="M 942.378251 447.740411 
L 1004.653955 482.175372 
" clip-path="url(#p26d755cbce)" style="fill: none; stroke: #94a3b8; stroke-width: 0.65"/>
    <path d="M 999.685108 299.635958 
L 1004.653955 482.175372 
" clip-path="url(#p26d755cbce)" style="fill: none; stroke: #94a3b8; stroke-width: 0.65"/>
    <path d="M 1032.971765 447.198379 
L 1004.653955 482.175372 
" clip-path="url(#p26d755cbce)" style="fill: none; stroke: #94a3b8; stroke-width: 0.65"/>
    <path d="M 1049.150625 638.413586 
L 1004.653955 482.175372 
" clip-path="url(#p26d755cbce)" style="fill: none; stroke: #94a3b8; stroke-width: 0.65"/>
    <path d="M 1011.389466 623.417859 
L 1004.653955 482.175372 
" clip-path="url(#p26d755cbce)" style="fill: none; stroke: #94a3b8; stroke-width: 0.65"/>
    <path d="M 967.852446 428.196979 
L 1004.653955 482.175372 
" clip-path="url(#p26d755cbce)" style="fill: none; stroke: #94a3b8; stroke-width: 0.65"/>
    <path d="M 988.775195 598.448553 
L 1004.653955 482.175372 
" clip-path="url(#p26d755cbce)" style="fill: none; stroke: #94a3b8; stroke-width: 0.65"/>
    <path d="M 928.507851 290.689126 
L 1004.653955 482.175372 
" clip-path="url(#p26d755cbce)" style="fill: none; stroke: #94a3b8; stroke-width: 0.65"/>
    <path d="M 961.30722 550.039949 
L 1004.653955 482.175372 
" clip-path="url(#p26d755cbce)" style="fill: none; stroke: #94a3b8; stroke-width: 0.65"/>
    <path d="M 1013.207709 418.87619 
L 1063.565538 456.393557 
" clip-path="url(#p26d755cbce)" style="fill: none; stroke: #94a3b8; stroke-width: 0.65"/>
    <path d="M 933.225078 524.547956 
L 1063.565538 456.393557 
" clip-path="url(#p26d755cbce)" style="fill: none; stroke: #94a3b8; stroke-width: 0.65"/>
    <path d="M 993.252459 445.252633 
L 1063.565538 456.393557 
" clip-path="url(#p26d755cbce)" style="fill: none; stroke: #94a3b8; stroke-width: 0.65"/>
    <path d="M 1093.97532 470.94819 
L 1063.565538 456.393557 
" clip-path="url(#p26d755cbce)" style="fill: none; stroke: #94a3b8; stroke-width: 0.65"/>
    <path d="M 1049.314146 421.667313 
L 1063.565538 456.393557 
" clip-path="url(#p26d755cbce)" style="fill: none; stroke: #94a3b8; stroke-width: 0.65"/>
    <path d="M 1172.112586 528.425335 
L 1063.565538 456.393557 
" clip-path="url(#p26d755cbce)" style="fill: none; stroke: #94a3b8; stroke-width: 0.65"/>
    <path d="M 909.172839 501.166865 
L 1063.565538 456.393557 
" clip-path="url(#p26d755cbce)" style="fill: none; stroke: #94a3b8; stroke-width: 0.65"/>
    <path d="M 1038.579182 590.099799 
L 1063.565538 456.393557 
" clip-path="url(#p26d755cbce)" style="fill: none; stroke: #94a3b8; stroke-width: 0.65"/>
    <path d="M 1122.861697 452.827431 
L 1063.565538 456.393557 
" clip-path="url(#p26d755cbce)" style="fill: none; stroke: #94a3b8; stroke-width: 0.65"/>
    <path d="M 1140.609786 564.192719 
L 1063.565538 456.393557 
" clip-path="url(#p26d755cbce)" style="fill: none; stroke: #94a3b8; stroke-width: 0.65"/>
    <path d="M 999.169351 392.429964 
L 1063.565538 456.393557 
" clip-path="url(#p26d755cbce)" style="fill: none; stroke: #94a3b8; stroke-width: 0.65"/>
    <path d="M 999.685108 299.635958 
L 1063.565538 456.393557 
" clip-path="url(#p26d755cbce)" style="fill: none; stroke: #94a3b8; stroke-width: 0.65"/>
    <path d="M 1032.971765 447.198379 
L 1063.565538 456.393557 
" clip-path="url(#p26d755cbce)" style="fill: none; stroke: #94a3b8; stroke-width: 0.65"/>
    <path d="M 1140.396814 416.574197 
L 1063.565538 456.393557 
" clip-path="url(#p26d755cbce)" style="fill: none; stroke: #94a3b8; stroke-width: 0.65"/>
    <path d="M 967.852446 428.196979 
L 1063.565538 456.393557 
" clip-path="url(#p26d755cbce)" style="fill: none; stroke: #94a3b8; stroke-width: 0.65"/>
    <path d="M 988.775195 598.448553 
L 1063.565538 456.393557 
" clip-path="url(#p26d755cbce)" style="fill: none; stroke: #94a3b8; stroke-width: 0.65"/>
    <path d="M 961.30722 550.039949 
L 1063.565538 456.393557 
" clip-path="url(#p26d755cbce)" style="fill: none; stroke: #94a3b8; stroke-width: 0.65"/>
    <path d="M 1138.284242 267.615325 
L 1063.565538 456.393557 
" clip-path="url(#p26d755cbce)" style="fill: none; stroke: #94a3b8; stroke-width: 0.65"/>
    <path d="M 1013.207709 418.87619 
L 1022.806268 514.840809 
" clip-path="url(#p26d755cbce)" style="fill: none; stroke: #94a3b8; stroke-width: 0.65"/>
    <path d="M 911.758584 604.50076 
L 1022.806268 514.840809 
" clip-path="url(#p26d755cbce)" style="fill: none; stroke: #94a3b8; stroke-width: 0.65"/>
    <path d="M 899.687414 426.150955 
L 1022.806268 514.840809 
" clip-path="url(#p26d755cbce)" style="fill: none; stroke: #94a3b8; stroke-width: 0.65"/>
    <path d="M 993.252459 445.252633 
L 1022.806268 514.840809 
" clip-path="url(#p26d755cbce)" style="fill: none; stroke: #94a3b8; stroke-width: 0.65"/>
    <path d="M 933.225078 524.547956 
L 1022.806268 514.840809 
" clip-path="url(#p26d755cbce)" style="fill: none; stroke: #94a3b8; stroke-width: 0.65"/>
    <path d="M 1093.97532 470.94819 
L 1022.806268 514.840809 
" clip-path="url(#p26d755cbce)" style="fill: none; stroke: #94a3b8; stroke-width: 0.65"/>
    <path d="M 959.275977 390.462569 
L 1022.806268 514.840809 
" clip-path="url(#p26d755cbce)" style="fill: none; stroke: #94a3b8; stroke-width: 0.65"/>
    <path d="M 1049.314146 421.667313 
L 1022.806268 514.840809 
" clip-path="url(#p26d755cbce)" style="fill: none; stroke: #94a3b8; stroke-width: 0.65"/>
    <path d="M 1172.112586 528.425335 
L 1022.806268 514.840809 
" clip-path="url(#p26d755cbce)" style="fill: none; stroke: #94a3b8; stroke-width: 0.65"/>
    <path d="M 909.172839 501.166865 
L 1022.806268 514.840809 
" clip-path="url(#p26d755cbce)" style="fill: none; stroke: #94a3b8; stroke-width: 0.65"/>
    <path d="M 1038.579182 590.099799 
L 1022.806268 514.840809 
" clip-path="url(#p26d755cbce)" style="fill: none; stroke: #94a3b8; stroke-width: 0.65"/>
    <path d="M 1122.861697 452.827431 
L 1022.806268 514.840809 
" clip-path="url(#p26d755cbce)" style="fill: none; stroke: #94a3b8; stroke-width: 0.65"/>
    <path d="M 1111.562708 377.815082 
L 1022.806268 514.840809 
" clip-path="url(#p26d755cbce)" style="fill: none; stroke: #94a3b8; stroke-width: 0.65"/>
    <path d="M 956.583866 632.938456 
L 1022.806268 514.840809 
" clip-path="url(#p26d755cbce)" style="fill: none; stroke: #94a3b8; stroke-width: 0.65"/>
    <path d="M 1140.609786 564.192719 
L 1022.806268 514.840809 
" clip-path="url(#p26d755cbce)" style="fill: none; stroke: #94a3b8; stroke-width: 0.65"/>
    <path d="M 999.169351 392.429964 
L 1022.806268 514.840809 
" clip-path="url(#p26d755cbce)" style="fill: none; stroke: #94a3b8; stroke-width: 0.65"/>
    <path d="M 942.378251 447.740411 
L 1022.806268 514.840809 
" clip-path="url(#p26d755cbce)" style="fill: none; stroke: #94a3b8; stroke-width: 0.65"/>
    <path d="M 1032.971765 447.198379 
L 1022.806268 514.840809 
" clip-path="url(#p26d755cbce)" style="fill: none; stroke: #94a3b8; stroke-width: 0.65"/>
    <path d="M 1119.956803 672.772562 
L 1022.806268 514.840809 
" clip-path="url(#p26d755cbce)" style="fill: none; stroke: #94a3b8; stroke-width: 0.65"/>
    <path d="M 1110.163234 498.262328 
L 1022.806268 514.840809 
" clip-path="url(#p26d755cbce)" style="fill: none; stroke: #94a3b8; stroke-width: 0.65"/>
    <path d="M 902.706989 552.466452 
L 1022.806268 514.840809 
" clip-path="url(#p26d755cbce)" style="fill: none; stroke: #94a3b8; stroke-width: 0.65"/>
    <path d="M 1049.150625 638.413586 
L 1022.806268 514.840809 
" clip-path="url(#p26d755cbce)" style="fill: none; stroke: #94a3b8; stroke-width: 0.65"/>
    <path d="M 1073.131014 409.087538 
L 1022.806268 514.840809 
" clip-path="url(#p26d755cbce)" style="fill: none; stroke: #94a3b8; stroke-width: 0.65"/>
    <path d="M 918.766812 465.113604 
L 1022.806268 514.840809 
" clip-path="url(#p26d755cbce)" style="fill: none; stroke: #94a3b8; stroke-width: 0.65"/>
    <path d="M 961.30722 550.039949 
L 1022.806268 514.840809 
" clip-path="url(#p26d755cbce)" style="fill: none; stroke: #94a3b8; stroke-width: 0.65"/>
    <path d="M 1011.389466 623.417859 
L 1022.806268 514.840809 
" clip-path="url(#p26d755cbce)" style="fill: none; stroke: #94a3b8; stroke-width: 0.65"/>
    <path d="M 967.852446 428.196979 
L 1022.806268 514.840809 
" clip-path="url(#p26d755cbce)" style="fill: none; stroke: #94a3b8; stroke-width: 0.65"/>
    <path d="M 988.775195 598.448553 
L 1022.806268 514.840809 
" clip-path="url(#p26d755cbce)" style="fill: none; stroke: #94a3b8; stroke-width: 0.65"/>
    <path d="M 1116.627621 615.240369 
L 1022.806268 514.840809 
" clip-path="url(#p26d755cbce)" style="fill: none; stroke: #94a3b8; stroke-width: 0.65"/>
    <path d="M 1013.207709 418.87619 
L 1019.70138 537.535196 
" clip-path="url(#p26d755cbce)" style="fill: none; stroke: #94a3b8; stroke-width: 0.65"/>
    <path d="M 933.225078 524.547956 
L 1019.70138 537.535196 
" clip-path="url(#p26d755cbce)" style="fill: none; stroke: #94a3b8; stroke-width: 0.65"/>
    <path d="M 993.252459 445.252633 
L 1019.70138 537.535196 
" clip-path="url(#p26d755cbce)" style="fill: none; stroke: #94a3b8; stroke-width: 0.65"/>
    <path d="M 1116.627621 615.240369 
L 1019.70138 537.535196 
" clip-path="url(#p26d755cbce)" style="fill: none; stroke: #94a3b8; stroke-width: 0.65"/>
    <path d="M 1049.314146 421.667313 
L 1019.70138 537.535196 
" clip-path="url(#p26d755cbce)" style="fill: none; stroke: #94a3b8; stroke-width: 0.65"/>
    <path d="M 1038.579182 590.099799 
L 1019.70138 537.535196 
" clip-path="url(#p26d755cbce)" style="fill: none; stroke: #94a3b8; stroke-width: 0.65"/>
    <path d="M 1122.861697 452.827431 
L 1019.70138 537.535196 
" clip-path="url(#p26d755cbce)" style="fill: none; stroke: #94a3b8; stroke-width: 0.65"/>
    <path d="M 942.378251 447.740411 
L 1019.70138 537.535196 
" clip-path="url(#p26d755cbce)" style="fill: none; stroke: #94a3b8; stroke-width: 0.65"/>
    <path d="M 1032.971765 447.198379 
L 1019.70138 537.535196 
" clip-path="url(#p26d755cbce)" style="fill: none; stroke: #94a3b8; stroke-width: 0.65"/>
    <path d="M 902.706989 552.466452 
L 1019.70138 537.535196 
" clip-path="url(#p26d755cbce)" style="fill: none; stroke: #94a3b8; stroke-width: 0.65"/>
    <path d="M 1140.396814 416.574197 
L 1019.70138 537.535196 
" clip-path="url(#p26d755cbce)" style="fill: none; stroke: #94a3b8; stroke-width: 0.65"/>
    <path d="M 918.766812 465.113604 
L 1019.70138 537.535196 
" clip-path="url(#p26d755cbce)" style="fill: none; stroke: #94a3b8; stroke-width: 0.65"/>
    <path d="M 1011.389466 623.417859 
L 1019.70138 537.535196 
" clip-path="url(#p26d755cbce)" style="fill: none; stroke: #94a3b8; stroke-width: 0.65"/>
    <path d="M 967.852446 428.196979 
L 1019.70138 537.535196 
" clip-path="url(#p26d755cbce)" style="fill: none; stroke: #94a3b8; stroke-width: 0.65"/>
    <path d="M 988.775195 598.448553 
L 1019.70138 537.535196 
" clip-path="url(#p26d755cbce)" style="fill: none; stroke: #94a3b8; stroke-width: 0.65"/>
    <path d="M 961.30722 550.039949 
L 1019.70138 537.535196 
" clip-path="url(#p26d755cbce)" style="fill: none; stroke: #94a3b8; stroke-width: 0.65"/>
    <path d="M 1032.971765 447.198379 
L 1062.254388 550.071481 
" clip-path="url(#p26d755cbce)" style="fill: none; stroke: #94a3b8; stroke-width: 0.65"/>
    <path d="M 1013.207709 418.87619 
L 1062.254388 550.071481 
" clip-path="url(#p26d755cbce)" style="fill: none; stroke: #94a3b8; stroke-width: 0.65"/>
    <path d="M 1110.163234 498.262328 
L 1062.254388 550.071481 
" clip-path="url(#p26d755cbce)" style="fill: none; stroke: #94a3b8; stroke-width: 0.65"/>
    <path d="M 902.706989 552.466452 
L 1062.254388 550.071481 
" clip-path="url(#p26d755cbce)" style="fill: none; stroke: #94a3b8; stroke-width: 0.65"/>
    <path d="M 993.252459 445.252633 
L 1062.254388 550.071481 
" clip-path="url(#p26d755cbce)" style="fill: none; stroke: #94a3b8; stroke-width: 0.65"/>
    <path d="M 1093.97532 470.94819 
L 1062.254388 550.071481 
" clip-path="url(#p26d755cbce)" style="fill: none; stroke: #94a3b8; stroke-width: 0.65"/>
    <path d="M 1073.131014 409.087538 
L 1062.254388 550.071481 
" clip-path="url(#p26d755cbce)" style="fill: none; stroke: #94a3b8; stroke-width: 0.65"/>
    <path d="M 1049.314146 421.667313 
L 1062.254388 550.071481 
" clip-path="url(#p26d755cbce)" style="fill: none; stroke: #94a3b8; stroke-width: 0.65"/>
    <path d="M 961.30722 550.039949 
L 1062.254388 550.071481 
" clip-path="url(#p26d755cbce)" style="fill: none; stroke: #94a3b8; stroke-width: 0.65"/>
    <path d="M 988.775195 598.448553 
L 1062.254388 550.071481 
" clip-path="url(#p26d755cbce)" style="fill: none; stroke: #94a3b8; stroke-width: 0.65"/>
    <path d="M 956.583866 632.938456 
L 1062.254388 550.071481 
" clip-path="url(#p26d755cbce)" style="fill: none; stroke: #94a3b8; stroke-width: 0.65"/>
    <path d="M 1013.207709 418.87619 
L 1033.911736 364.148926 
" clip-path="url(#p26d755cbce)" style="fill: none; stroke: #94a3b8; stroke-width: 0.65"/>
    <path d="M 1057.464335 174.987438 
L 1033.911736 364.148926 
" clip-path="url(#p26d755cbce)" style="fill: none; stroke: #94a3b8; stroke-width: 0.65"/>
    <path d="M 899.687414 426.150955 
L 1033.911736 364.148926 
" clip-path="url(#p26d755cbce)" style="fill: none; stroke: #94a3b8; stroke-width: 0.65"/>
    <path d="M 993.252459 445.252633 
L 1033.911736 364.148926 
" clip-path="url(#p26d755cbce)" style="fill: none; stroke: #94a3b8; stroke-width: 0.65"/>
    <path d="M 1093.97532 470.94819 
L 1033.911736 364.148926 
" clip-path="url(#p26d755cbce)" style="fill: none; stroke: #94a3b8; stroke-width: 0.65"/>
    <path d="M 959.275977 390.462569 
L 1033.911736 364.148926 
" clip-path="url(#p26d755cbce)" style="fill: none; stroke: #94a3b8; stroke-width: 0.65"/>
    <path d="M 1049.314146 421.667313 
L 1033.911736 364.148926 
" clip-path="url(#p26d755cbce)" style="fill: none; stroke: #94a3b8; stroke-width: 0.65"/>
    <path d="M 1122.861697 452.827431 
L 1033.911736 364.148926 
" clip-path="url(#p26d755cbce)" style="fill: none; stroke: #94a3b8; stroke-width: 0.65"/>
    <path d="M 1111.562708 377.815082 
L 1033.911736 364.148926 
" clip-path="url(#p26d755cbce)" style="fill: none; stroke: #94a3b8; stroke-width: 0.65"/>
    <path d="M 999.169351 392.429964 
L 1033.911736 364.148926 
" clip-path="url(#p26d755cbce)" style="fill: none; stroke: #94a3b8; stroke-width: 0.65"/>
    <path d="M 942.378251 447.740411 
L 1033.911736 364.148926 
" clip-path="url(#p26d755cbce)" style="fill: none; stroke: #94a3b8; stroke-width: 0.65"/>
    <path d="M 999.685108 299.635958 
L 1033.911736 364.148926 
" clip-path="url(#p26d755cbce)" style="fill: none; stroke: #94a3b8; stroke-width: 0.65"/>
    <path d="M 1032.971765 447.198379 
L 1033.911736 364.148926 
" clip-path="url(#p26d755cbce)" style="fill: none; stroke: #94a3b8; stroke-width: 0.65"/>
    <path d="M 1110.163234 498.262328 
L 1033.911736 364.148926 
" clip-path="url(#p26d755cbce)" style="fill: none; stroke: #94a3b8; stroke-width: 0.65"/>
    <path d="M 1140.396814 416.574197 
L 1033.911736 364.148926 
" clip-path="url(#p26d755cbce)" style="fill: none; stroke: #94a3b8; stroke-width: 0.65"/>
    <path d="M 1073.131014 409.087538 
L 1033.911736 364.148926 
" clip-path="url(#p26d755cbce)" style="fill: none; stroke: #94a3b8; stroke-width: 0.65"/>
    <path d="M 918.766812 465.113604 
L 1033.911736 364.148926 
" clip-path="url(#p26d755cbce)" style="fill: none; stroke: #94a3b8; stroke-width: 0.65"/>
    <path d="M 967.852446 428.196979 
L 1033.911736 364.148926 
" clip-path="url(#p26d755cbce)" style="fill: none; stroke: #94a3b8; stroke-width: 0.65"/>
    <path d="M 928.507851 290.689126 
L 1033.911736 364.148926 
" clip-path="url(#p26d755cbce)" style="fill: none; stroke: #94a3b8; stroke-width: 0.65"/>
    <path d="M 1138.284242 267.615325 
L 1033.911736 364.148926 
" clip-path="url(#p26d755cbce)" style="fill: none; stroke: #94a3b8; stroke-width: 0.65"/>
    <path d="M 1032.971765 447.198379 
L 919.8897 395.203158 
" clip-path="url(#p26d755cbce)" style="fill: none; stroke: #94a3b8; stroke-width: 0.65"/>
    <path d="M 1013.207709 418.87619 
L 919.8897 395.203158 
" clip-path="url(#p26d755cbce)" style="fill: none; stroke: #94a3b8; stroke-width: 0.65"/>
    <path d="M 899.687414 426.150955 
L 919.8897 395.203158 
" clip-path="url(#p26d755cbce)" style="fill: none; stroke: #94a3b8; stroke-width: 0.65"/>
    <path d="M 902.706989 552.466452 
L 919.8897 395.203158 
" clip-path="url(#p26d755cbce)" style="fill: none; stroke: #94a3b8; stroke-width: 0.65"/>
    <path d="M 933.225078 524.547956 
L 919.8897 395.203158 
" clip-path="url(#p26d755cbce)" style="fill: none; stroke: #94a3b8; stroke-width: 0.65"/>
    <path d="M 993.252459 445.252633 
L 919.8897 395.203158 
" clip-path="url(#p26d755cbce)" style="fill: none; stroke: #94a3b8; stroke-width: 0.65"/>
    <path d="M 1073.131014 409.087538 
L 919.8897 395.203158 
" clip-path="url(#p26d755cbce)" style="fill: none; stroke: #94a3b8; stroke-width: 0.65"/>
    <path d="M 959.275977 390.462569 
L 919.8897 395.203158 
" clip-path="url(#p26d755cbce)" style="fill: none; stroke: #94a3b8; stroke-width: 0.65"/>
    <path d="M 1049.314146 421.667313 
L 919.8897 395.203158 
" clip-path="url(#p26d755cbce)" style="fill: none; stroke: #94a3b8; stroke-width: 0.65"/>
    <path d="M 909.172839 501.166865 
L 919.8897 395.203158 
" clip-path="url(#p26d755cbce)" style="fill: none; stroke: #94a3b8; stroke-width: 0.65"/>
    <path d="M 967.852446 428.196979 
L 919.8897 395.203158 
" clip-path="url(#p26d755cbce)" style="fill: none; stroke: #94a3b8; stroke-width: 0.65"/>
    <path d="M 928.507851 290.689126 
L 919.8897 395.203158 
" clip-path="url(#p26d755cbce)" style="fill: none; stroke: #94a3b8; stroke-width: 0.65"/>
    <path d="M 961.30722 550.039949 
L 919.8897 395.203158 
" clip-path="url(#p26d755cbce)" style="fill: none; stroke: #94a3b8; stroke-width: 0.65"/>
    <path d="M 999.685108 299.635958 
L 919.8897 395.203158 
" clip-path="url(#p26d755cbce)" style="fill: none; stroke: #94a3b8; stroke-width: 0.65"/>
    <path d="M 1013.207709 418.87619 
L 977.458081 487.392925 
" clip-path="url(#p26d755cbce)" style="fill: none; stroke: #94a3b8; stroke-width: 0.65"/>
    <path d="M 899.687414 426.150955 
L 977.458081 487.392925 
" clip-path="url(#p26d755cbce)" style="fill: none; stroke: #94a3b8; stroke-width: 0.65"/>
    <path d="M 933.225078 524.547956 
L 977.458081 487.392925 
" clip-path="url(#p26d755cbce)" style="fill: none; stroke: #94a3b8; stroke-width: 0.65"/>
    <path d="M 993.252459 445.252633 
L 977.458081 487.392925 
" clip-path="url(#p26d755cbce)" style="fill: none; stroke: #94a3b8; stroke-width: 0.65"/>
    <path d="M 1093.97532 470.94819 
L 977.458081 487.392925 
" clip-path="url(#p26d755cbce)" style="fill: none; stroke: #94a3b8; stroke-width: 0.65"/>
    <path d="M 959.275977 390.462569 
L 977.458081 487.392925 
" clip-path="url(#p26d755cbce)" style="fill: none; stroke: #94a3b8; stroke-width: 0.65"/>
    <path d="M 909.172839 501.166865 
L 977.458081 487.392925 
" clip-path="url(#p26d755cbce)" style="fill: none; stroke: #94a3b8; stroke-width: 0.65"/>
    <path d="M 1038.579182 590.099799 
L 977.458081 487.392925 
" clip-path="url(#p26d755cbce)" style="fill: none; stroke: #94a3b8; stroke-width: 0.65"/>
    <path d="M 1122.861697 452.827431 
L 977.458081 487.392925 
" clip-path="url(#p26d755cbce)" style="fill: none; stroke: #94a3b8; stroke-width: 0.65"/>
    <path d="M 956.583866 632.938456 
L 977.458081 487.392925 
" clip-path="url(#p26d755cbce)" style="fill: none; stroke: #94a3b8; stroke-width: 0.65"/>
    <path d="M 999.169351 392.429964 
L 977.458081 487.392925 
" clip-path="url(#p26d755cbce)" style="fill: none; stroke: #94a3b8; stroke-width: 0.65"/>
    <path d="M 1032.971765 447.198379 
L 977.458081 487.392925 
" clip-path="url(#p26d755cbce)" style="fill: none; stroke: #94a3b8; stroke-width: 0.65"/>
    <path d="M 1110.163234 498.262328 
L 977.458081 487.392925 
" clip-path="url(#p26d755cbce)" style="fill: none; stroke: #94a3b8; stroke-width: 0.65"/>
    <path d="M 902.706989 552.466452 
L 977.458081 487.392925 
" clip-path="url(#p26d755cbce)" style="fill: none; stroke: #94a3b8; stroke-width: 0.65"/>
    <path d="M 1073.131014 409.087538 
L 977.458081 487.392925 
" clip-path="url(#p26d755cbce)" style="fill: none; stroke: #94a3b8; stroke-width: 0.65"/>
    <path d="M 967.852446 428.196979 
L 977.458081 487.392925 
" clip-path="url(#p26d755cbce)" style="fill: none; stroke: #94a3b8; stroke-width: 0.65"/>
    <path d="M 961.30722 550.039949 
L 977.458081 487.392925 
" clip-path="url(#p26d755cbce)" style="fill: none; stroke: #94a3b8; stroke-width: 0.65"/>
    <path d="M 1013.207709 418.87619 
L 990.965511 510.514591 
" clip-path="url(#p26d755cbce)" style="fill: none; stroke: #94a3b8; stroke-width: 0.65"/>
    <path d="M 911.758584 604.50076 
L 990.965511 510.514591 
" clip-path="url(#p26d755cbce)" style="fill: none; stroke: #94a3b8; stroke-width: 0.65"/>
    <path d="M 899.687414 426.150955 
L 990.965511 510.514591 
" clip-path="url(#p26d755cbce)" style="fill: none; stroke: #94a3b8; stroke-width: 0.65"/>
    <path d="M 993.252459 445.252633 
L 990.965511 510.514591 
" clip-path="url(#p26d755cbce)" style="fill: none; stroke: #94a3b8; stroke-width: 0.65"/>
    <path d="M 933.225078 524.547956 
L 990.965511 510.514591 
" clip-path="url(#p26d755cbce)" style="fill: none; stroke: #94a3b8; stroke-width: 0.65"/>
    <path d="M 1093.97532 470.94819 
L 990.965511 510.514591 
" clip-path="url(#p26d755cbce)" style="fill: none; stroke: #94a3b8; stroke-width: 0.65"/>
    <path d="M 959.275977 390.462569 
L 990.965511 510.514591 
" clip-path="url(#p26d755cbce)" style="fill: none; stroke: #94a3b8; stroke-width: 0.65"/>
    <path d="M 1049.314146 421.667313 
L 990.965511 510.514591 
" clip-path="url(#p26d755cbce)" style="fill: none; stroke: #94a3b8; stroke-width: 0.65"/>
    <path d="M 909.172839 501.166865 
L 990.965511 510.514591 
" clip-path="url(#p26d755cbce)" style="fill: none; stroke: #94a3b8; stroke-width: 0.65"/>
    <path d="M 1038.579182 590.099799 
L 990.965511 510.514591 
" clip-path="url(#p26d755cbce)" style="fill: none; stroke: #94a3b8; stroke-width: 0.65"/>
    <path d="M 956.583866 632.938456 
L 990.965511 510.514591 
" clip-path="url(#p26d755cbce)" style="fill: none; stroke: #94a3b8; stroke-width: 0.65"/>
    <path d="M 999.169351 392.429964 
L 990.965511 510.514591 
" clip-path="url(#p26d755cbce)" style="fill: none; stroke: #94a3b8; stroke-width: 0.65"/>
    <path d="M 942.378251 447.740411 
L 990.965511 510.514591 
" clip-path="url(#p26d755cbce)" style="fill: none; stroke: #94a3b8; stroke-width: 0.65"/>
    <path d="M 1032.971765 447.198379 
L 990.965511 510.514591 
" clip-path="url(#p26d755cbce)" style="fill: none; stroke: #94a3b8; stroke-width: 0.65"/>
    <path d="M 1110.163234 498.262328 
L 990.965511 510.514591 
" clip-path="url(#p26d755cbce)" style="fill: none; stroke: #94a3b8; stroke-width: 0.65"/>
    <path d="M 902.706989 552.466452 
L 990.965511 510.514591 
" clip-path="url(#p26d755cbce)" style="fill: none; stroke: #94a3b8; stroke-width: 0.65"/>
    <path d="M 1049.150625 638.413586 
L 990.965511 510.514591 
" clip-path="url(#p26d755cbce)" style="fill: none; stroke: #94a3b8; stroke-width: 0.65"/>
    <path d="M 1140.396814 416.574197 
L 990.965511 510.514591 
" clip-path="url(#p26d755cbce)" style="fill: none; stroke: #94a3b8; stroke-width: 0.65"/>
    <path d="M 1073.131014 409.087538 
L 990.965511 510.514591 
" clip-path="url(#p26d755cbce)" style="fill: none; stroke: #94a3b8; stroke-width: 0.65"/>
    <path d="M 918.766812 465.113604 
L 990.965511 510.514591 
" clip-path="url(#p26d755cbce)" style="fill: none; stroke: #94a3b8; stroke-width: 0.65"/>
    <path d="M 1011.389466 623.417859 
L 990.965511 510.514591 
" clip-path="url(#p26d755cbce)" style="fill: none; stroke: #94a3b8; stroke-width: 0.65"/>
    <path d="M 967.852446 428.196979 
L 990.965511 510.514591 
" clip-path="url(#p26d755cbce)" style="fill: none; stroke: #94a3b8; stroke-width: 0.65"/>
    <path d="M 988.775195 598.448553 
L 990.965511 510.514591 
" clip-path="url(#p26d755cbce)" style="fill: none; stroke: #94a3b8; stroke-width: 0.65"/>
    <path d="M 961.30722 550.039949 
L 990.965511 510.514591 
" clip-path="url(#p26d755cbce)" style="fill: none; stroke: #94a3b8; stroke-width: 0.65"/>
   </g>
   <g id="PathCollection_2">
    <defs>
     <path id="mf8dd1875f9" d="M -6.5 6.5 
L 6.5 6.5 
L 6.5 -6.5 
L -6.5 -6.5 
z
" style="stroke: #f8fafc; stroke-width: 0.8"/>
    </defs>
    <g clip-path="url(#p26d755cbce)">
     <use xlink:href="#mf8dd1875f9" x="1063.565538" y="456.393557" style="fill: #f59e0b; stroke: #f8fafc; stroke-width: 0.8"/>
     <use xlink:href="#mf8dd1875f9" x="1022.806268" y="514.840809" style="fill: #f59e0b; stroke: #f8fafc; stroke-width: 0.8"/>
     <use xlink:href="#mf8dd1875f9" x="1042.058774" y="493.749107" style="fill: #f59e0b; stroke: #f8fafc; stroke-width: 0.8"/>
     <use xlink:href="#mf8dd1875f9" x="1033.911736" y="364.148926" style="fill: #f59e0b; stroke: #f8fafc; stroke-width: 0.8"/>
     <use xlink:href="#mf8dd1875f9" x="1004.653955" y="482.175372" style="fill: #f59e0b; stroke: #f8fafc; stroke-width: 0.8"/>
     <use xlink:href="#mf8dd1875f9" x="1019.70138" y="537.535196" style="fill: #f59e0b; stroke: #f8fafc; stroke-width: 0.8"/>
     <use xlink:href="#mf8dd1875f9" x="990.965511" y="510.514591" style="fill: #f59e0b; stroke: #f8fafc; stroke-width: 0.8"/>
     <use xlink:href="#mf8dd1875f9" x="977.458081" y="487.392925" style="fill: #f59e0b; stroke: #f8fafc; stroke-width: 0.8"/>
     <use xlink:href="#mf8dd1875f9" x="919.8897" y="395.203158" style="fill: #f59e0b; stroke: #f8fafc; stroke-width: 0.8"/>
     <use xlink:href="#mf8dd1875f9" x="1062.254388" y="550.071481" style="fill: #f59e0b; stroke: #f8fafc; stroke-width: 0.8"/>
    </g>
   </g>
   <g id="PathCollection_3">
    <defs>
     <path id="m6609c2da2e" d="M 0 5 
C 1.326016 5 2.597899 4.473168 3.535534 3.535534 
C 4.473168 2.597899 5 1.326016 5 0 
C 5 -1.326016 4.473168 -2.597899 3.535534 -3.535534 
C 2.597899 -4.473168 1.326016 -5 0 -5 
C -1.326016 -5 -2.597899 -4.473168 -3.535534 -3.535534 
C -4.473168 -2.597899 -5 -1.326016 -5 0 
C -5 1.326016 -4.473168 2.597899 -3.535534 3.535534 
C -2.597899 4.473168 -1.326016 5 0 5 
z
" style="stroke: #f8fafc; stroke-width: 0.8"/>
    </defs>
    <g clip-path="url(#p26d755cbce)">
     <use xlink:href="#m6609c2da2e" x="1172.112586" y="528.425335" style="fill: #38bdf8; stroke: #f8fafc; stroke-width: 0.8"/>
     <use xlink:href="#m6609c2da2e" x="942.378251" y="447.740411" style="fill: #38bdf8; stroke: #f8fafc; stroke-width: 0.8"/>
     <use xlink:href="#m6609c2da2e" x="1116.627621" y="615.240369" style="fill: #38bdf8; stroke: #f8fafc; stroke-width: 0.8"/>
     <use xlink:href="#m6609c2da2e" x="1032.971765" y="447.198379" style="fill: #38bdf8; stroke: #f8fafc; stroke-width: 0.8"/>
     <use xlink:href="#m6609c2da2e" x="909.172839" y="501.166865" style="fill: #38bdf8; stroke: #f8fafc; stroke-width: 0.8"/>
     <use xlink:href="#m6609c2da2e" x="1093.97532" y="470.94819" style="fill: #38bdf8; stroke: #f8fafc; stroke-width: 0.8"/>
     <use xlink:href="#m6609c2da2e" x="967.852446" y="428.196979" style="fill: #38bdf8; stroke: #f8fafc; stroke-width: 0.8"/>
     <use xlink:href="#m6609c2da2e" x="933.225078" y="524.547956" style="fill: #38bdf8; stroke: #f8fafc; stroke-width: 0.8"/>
     <use xlink:href="#m6609c2da2e" x="918.766812" y="465.113604" style="fill: #38bdf8; stroke: #f8fafc; stroke-width: 0.8"/>
     <use xlink:href="#m6609c2da2e" x="993.252459" y="445.252633" style="fill: #38bdf8; stroke: #f8fafc; stroke-width: 0.8"/>
     <use xlink:href="#m6609c2da2e" x="999.169351" y="392.429964" style="fill: #38bdf8; stroke: #f8fafc; stroke-width: 0.8"/>
     <use xlink:href="#m6609c2da2e" x="1049.314146" y="421.667313" style="fill: #38bdf8; stroke: #f8fafc; stroke-width: 0.8"/>
     <use xlink:href="#m6609c2da2e" x="959.275977" y="390.462569" style="fill: #38bdf8; stroke: #f8fafc; stroke-width: 0.8"/>
     <use xlink:href="#m6609c2da2e" x="1011.389466" y="623.417859" style="fill: #38bdf8; stroke: #f8fafc; stroke-width: 0.8"/>
     <use xlink:href="#m6609c2da2e" x="1110.163234" y="498.262328" style="fill: #38bdf8; stroke: #f8fafc; stroke-width: 0.8"/>
     <use xlink:href="#m6609c2da2e" x="1122.861697" y="452.827431" style="fill: #38bdf8; stroke: #f8fafc; stroke-width: 0.8"/>
     <use xlink:href="#m6609c2da2e" x="961.30722" y="550.039949" style="fill: #38bdf8; stroke: #f8fafc; stroke-width: 0.8"/>
     <use xlink:href="#m6609c2da2e" x="1140.396814" y="416.574197" style="fill: #38bdf8; stroke: #f8fafc; stroke-width: 0.8"/>
     <use xlink:href="#m6609c2da2e" x="1049.150625" y="638.413586" style="fill: #38bdf8; stroke: #f8fafc; stroke-width: 0.8"/>
     <use xlink:href="#m6609c2da2e" x="928.507851" y="290.689126" style="fill: #38bdf8; stroke: #f8fafc; stroke-width: 0.8"/>
     <use xlink:href="#m6609c2da2e" x="999.685108" y="299.635958" style="fill: #38bdf8; stroke: #f8fafc; stroke-width: 0.8"/>
     <use xlink:href="#m6609c2da2e" x="1013.207709" y="418.87619" style="fill: #38bdf8; stroke: #f8fafc; stroke-width: 0.8"/>
     <use xlink:href="#m6609c2da2e" x="1111.562708" y="377.815082" style="fill: #38bdf8; stroke: #f8fafc; stroke-width: 0.8"/>
     <use xlink:href="#m6609c2da2e" x="988.775195" y="598.448553" style="fill: #38bdf8; stroke: #f8fafc; stroke-width: 0.8"/>
     <use xlink:href="#m6609c2da2e" x="1038.579182" y="590.099799" style="fill: #38bdf8; stroke: #f8fafc; stroke-width: 0.8"/>
     <use xlink:href="#m6609c2da2e" x="1140.609786" y="564.192719" style="fill: #38bdf8; stroke: #f8fafc; stroke-width: 0.8"/>
     <use xlink:href="#m6609c2da2e" x="911.758584" y="604.50076" style="fill: #38bdf8; stroke: #f8fafc; stroke-width: 0.8"/>
     <use xlink:href="#m6609c2da2e" x="1138.284242" y="267.615325" style="fill: #38bdf8; stroke: #f8fafc; stroke-width: 0.8"/>
     <use xlink:href="#m6609c2da2e" x="902.706989" y="552.466452" style="fill: #38bdf8; stroke: #f8fafc; stroke-width: 0.8"/>
     <use xlink:href="#m6609c2da2e" x="1073.131014" y="409.087538" style="fill: #38bdf8; stroke: #f8fafc; stroke-width: 0.8"/>
     <use xlink:href="#m6609c2da2e" x="956.583866" y="632.938456" style="fill: #38bdf8; stroke: #f8fafc; stroke-width: 0.8"/>
     <use xlink:href="#m6609c2da2e" x="899.687414" y="426.150955" style="fill: #38bdf8; stroke: #f8fafc; stroke-width: 0.8"/>
     <use xlink:href="#m6609c2da2e" x="1119.956803" y="672.772562" style="fill: #38bdf8; stroke: #f8fafc; stroke-width: 0.8"/>
     <use xlink:href="#m6609c2da2e" x="1057.464335" y="174.987438" style="fill: #38bdf8; stroke: #f8fafc; stroke-width: 0.8"/>
    </g>
   </g>
   <g id="text_18">
    <text style="font-weight: 700; font-size: 15px; font-family: 'DejaVu Sans'; text-anchor: start; fill: #e5e7eb" x="696.6" y="108.72" transform="rotate(-0 696.6 108.72)">XGI bipartite incidence view</text>
   </g>
   <g id="text_19">
    <g clip-path="url(#p26d755cbce)">
     <text style="font-size: 7.6px; font-family: 'Noto Sans', 'Noto Sans CJK SC', 'Noto Sans CJK JP', 'Amiri', 'Scheherazade', 'Abyssinica SIL', 'Padauk', 'Lohit Devanagari', 'Lohit Tamil', 'Lohit Gujarati', 'Loma', 'Garuda', 'DejaVu Sans', 'Arial', 'Helvetica', sans-serif; text-anchor: middle; fill: #e5e7eb" x="1022.806268" y="516.816809" transform="rotate(-0 1022.806268 516.816809)">ODYSSEUS</text>
    </g>
   </g>
   <g id="text_20">
    <g clip-path="url(#p26d755cbce)">
     <text style="font-size: 7.6px; font-family: 'Noto Sans', 'Noto Sans CJK SC', 'Noto Sans CJK JP', 'Amiri', 'Scheherazade', 'Abyssinica SIL', 'Padauk', 'Lohit Devanagari', 'Lohit Tamil', 'Lohit Gujarati', 'Loma', 'Garuda', 'DejaVu Sans', 'Arial', 'Helvetica', sans-serif; text-anchor: middle; fill: #e5e7eb" x="1033.911736" y="366.124926" transform="rotate(-0 1033.911736 366.124926)">SEA</text>
    </g>
   </g>
   <g id="text_21">
    <g clip-path="url(#p26d755cbce)">
     <text style="font-size: 7.6px; font-family: 'Noto Sans', 'Noto Sans CJK SC', 'Noto Sans CJK JP', 'Amiri', 'Scheherazade', 'Abyssinica SIL', 'Padauk', 'Lohit Devanagari', 'Lohit Tamil', 'Lohit Gujarati', 'Loma', 'Garuda', 'DejaVu Sans', 'Arial', 'Helvetica', sans-serif; text-anchor: middle; fill: #e5e7eb" x="990.965511" y="512.490591" transform="rotate(-0 990.965511 512.490591)">ZEUS</text>
    </g>
   </g>
   <g id="text_22">
    <g clip-path="url(#p26d755cbce)">
     <text style="font-size: 7.6px; font-family: 'Noto Sans', 'Noto Sans CJK SC', 'Noto Sans CJK JP', 'Amiri', 'Scheherazade', 'Abyssinica SIL', 'Padauk', 'Lohit Devanagari', 'Lohit Tamil', 'Lohit Gujarati', 'Loma', 'Garuda', 'DejaVu Sans', 'Arial', 'Helvetica', sans-serif; text-anchor: middle; fill: #e5e7eb" x="1004.653955" y="484.151372" transform="rotate(-0 1004.653955 484.151372)">MIND</text>
    </g>
   </g>
   <g id="text_23">
    <g clip-path="url(#p26d755cbce)">
     <text style="font-size: 7.6px; font-family: 'Noto Sans', 'Noto Sans CJK SC', 'Noto Sans CJK JP', 'Amiri', 'Scheherazade', 'Abyssinica SIL', 'Padauk', 'Lohit Devanagari', 'Lohit Tamil', 'Lohit Gujarati', 'Loma', 'Garuda', 'DejaVu Sans', 'Arial', 'Helvetica', sans-serif; text-anchor: middle; fill: #e5e7eb" x="1042.058774" y="495.725107" transform="rotate(-0 1042.058774 495.725107)">GENERIC_MAN</text>
    </g>
   </g>
   <g id="text_24">
    <g clip-path="url(#p26d755cbce)">
     <text style="font-size: 7.6px; font-family: 'Noto Sans', 'Noto Sans CJK SC', 'Noto Sans CJK JP', 'Amiri', 'Scheherazade', 'Abyssinica SIL', 'Padauk', 'Lohit Devanagari', 'Lohit Tamil', 'Lohit Gujarati', 'Loma', 'Garuda', 'DejaVu Sans', 'Arial', 'Helvetica', sans-serif; text-anchor: middle; fill: #e5e7eb" x="977.458081" y="489.368925" transform="rotate(-0 977.458081 489.368925)">TELEMACHUS</text>
    </g>
   </g>
   <g id="text_25">
    <g clip-path="url(#p26d755cbce)">
     <text style="font-size: 7.6px; font-family: 'Noto Sans', 'Noto Sans CJK SC', 'Noto Sans CJK JP', 'Amiri', 'Scheherazade', 'Abyssinica SIL', 'Padauk', 'Lohit Devanagari', 'Lohit Tamil', 'Lohit Gujarati', 'Loma', 'Garuda', 'DejaVu Sans', 'Arial', 'Helvetica', sans-serif; text-anchor: middle; fill: #e5e7eb" x="1063.565538" y="458.369557" transform="rotate(-0 1063.565538 458.369557)">MORTALS</text>
    </g>
   </g>
   <g id="text_26">
    <g clip-path="url(#p26d755cbce)">
     <text style="font-size: 7.6px; font-family: 'Noto Sans', 'Noto Sans CJK SC', 'Noto Sans CJK JP', 'Amiri', 'Scheherazade', 'Abyssinica SIL', 'Padauk', 'Lohit Devanagari', 'Lohit Tamil', 'Lohit Gujarati', 'Loma', 'Garuda', 'DejaVu Sans', 'Arial', 'Helvetica', sans-serif; text-anchor: middle; fill: #e5e7eb" x="919.8897" y="397.179158" transform="rotate(-0 919.8897 397.179158)">SHIP</text>
    </g>
   </g>
   <g id="text_27">
    <g clip-path="url(#p26d755cbce)">
     <text style="font-size: 7.6px; font-family: 'Noto Sans', 'Noto Sans CJK SC', 'Noto Sans CJK JP', 'Amiri', 'Scheherazade', 'Abyssinica SIL', 'Padauk', 'Lohit Devanagari', 'Lohit Tamil', 'Lohit Gujarati', 'Loma', 'Garuda', 'DejaVu Sans', 'Arial', 'Helvetica', sans-serif; text-anchor: middle; fill: #e5e7eb" x="1019.70138" y="539.511196" transform="rotate(-0 1019.70138 539.511196)">PALACE</text>
    </g>
   </g>
   <g id="text_28">
    <g clip-path="url(#p26d755cbce)">
     <text style="font-size: 7.6px; font-family: 'Noto Sans', 'Noto Sans CJK SC', 'Noto Sans CJK JP', 'Amiri', 'Scheherazade', 'Abyssinica SIL', 'Padauk', 'Lohit Devanagari', 'Lohit Tamil', 'Lohit Gujarati', 'Loma', 'Garuda', 'DejaVu Sans', 'Arial', 'Helvetica', sans-serif; text-anchor: middle; fill: #e5e7eb" x="1062.254388" y="552.047481" transform="rotate(-0 1062.254388 552.047481)">PENELOPE</text>
    </g>
   </g>
   <g id="text_29">
    <g clip-path="url(#p26d755cbce)">
     <text style="font-size: 7.6px; font-family: 'Noto Sans', 'Noto Sans CJK SC', 'Noto Sans CJK JP', 'Amiri', 'Scheherazade', 'Abyssinica SIL', 'Padauk', 'Lohit Devanagari', 'Lohit Tamil', 'Lohit Gujarati', 'Loma', 'Garuda', 'DejaVu Sans', 'Arial', 'Helvetica', sans-serif; text-anchor: middle; fill: #e5e7eb" x="1032.971765" y="449.174379" transform="rotate(-0 1032.971765 449.174379)">evil</text>
    </g>
   </g>
   <g id="text_30">
    <g clip-path="url(#p26d755cbce)">
     <text style="font-size: 7.6px; font-family: 'Noto Sans', 'Noto Sans CJK SC', 'Noto Sans CJK JP', 'Amiri', 'Scheherazade', 'Abyssinica SIL', 'Padauk', 'Lohit Devanagari', 'Lohit Tamil', 'Lohit Gujarati', 'Loma', 'Garuda', 'DejaVu Sans', 'Arial', 'Helvetica', sans-serif; text-anchor: middle; fill: #e5e7eb" x="1013.207709" y="420.85219" transform="rotate(-0 1013.207709 420.85219)">fair</text>
    </g>
   </g>
   <g id="text_31">
    <g clip-path="url(#p26d755cbce)">
     <text style="font-size: 7.6px; font-family: 'Noto Sans', 'Noto Sans CJK SC', 'Noto Sans CJK JP', 'Amiri', 'Scheherazade', 'Abyssinica SIL', 'Padauk', 'Lohit Devanagari', 'Lohit Tamil', 'Lohit Gujarati', 'Loma', 'Garuda', 'DejaVu Sans', 'Arial', 'Helvetica', sans-serif; text-anchor: middle; fill: #e5e7eb" x="1119.956803" y="674.748562" transform="rotate(-0 1119.956803 674.748562)">enduring</text>
    </g>
   </g>
   <g id="text_32">
    <g clip-path="url(#p26d755cbce)">
     <text style="font-size: 7.6px; font-family: 'Noto Sans', 'Noto Sans CJK SC', 'Noto Sans CJK JP', 'Amiri', 'Scheherazade', 'Abyssinica SIL', 'Padauk', 'Lohit Devanagari', 'Lohit Tamil', 'Lohit Gujarati', 'Loma', 'Garuda', 'DejaVu Sans', 'Arial', 'Helvetica', sans-serif; text-anchor: middle; fill: #e5e7eb" x="993.252459" y="447.228633" transform="rotate(-0 993.252459 447.228633)">long</text>
    </g>
   </g>
   <g id="text_33">
    <g clip-path="url(#p26d755cbce)">
     <text style="font-size: 7.6px; font-family: 'Noto Sans', 'Noto Sans CJK SC', 'Noto Sans CJK JP', 'Amiri', 'Scheherazade', 'Abyssinica SIL', 'Padauk', 'Lohit Devanagari', 'Lohit Tamil', 'Lohit Gujarati', 'Loma', 'Garuda', 'DejaVu Sans', 'Arial', 'Helvetica', sans-serif; text-anchor: middle; fill: #e5e7eb" x="933.225078" y="526.523956" transform="rotate(-0 933.225078 526.523956)">high</text>
    </g>
   </g>
   <g id="text_34">
    <g clip-path="url(#p26d755cbce)">
     <text style="font-size: 7.6px; font-family: 'Noto Sans', 'Noto Sans CJK SC', 'Noto Sans CJK JP', 'Amiri', 'Scheherazade', 'Abyssinica SIL', 'Padauk', 'Lohit Devanagari', 'Lohit Tamil', 'Lohit Gujarati', 'Loma', 'Garuda', 'DejaVu Sans', 'Arial', 'Helvetica', sans-serif; text-anchor: middle; fill: #e5e7eb" x="1140.396814" y="418.550197" transform="rotate(-0 1140.396814 418.550197)">young</text>
    </g>
   </g>
   <g id="text_35">
    <g clip-path="url(#p26d755cbce)">
     <text style="font-size: 7.6px; font-family: 'Noto Sans', 'Noto Sans CJK SC', 'Noto Sans CJK JP', 'Amiri', 'Scheherazade', 'Abyssinica SIL', 'Padauk', 'Lohit Devanagari', 'Lohit Tamil', 'Lohit Gujarati', 'Loma', 'Garuda', 'DejaVu Sans', 'Arial', 'Helvetica', sans-serif; text-anchor: middle; fill: #e5e7eb" x="1093.97532" y="472.92419" transform="rotate(-0 1093.97532 472.92419)">good</text>
    </g>
   </g>
   <g id="text_36">
    <g clip-path="url(#p26d755cbce)">
     <text style="font-size: 7.6px; font-family: 'Noto Sans', 'Noto Sans CJK SC', 'Noto Sans CJK JP', 'Amiri', 'Scheherazade', 'Abyssinica SIL', 'Padauk', 'Lohit Devanagari', 'Lohit Tamil', 'Lohit Gujarati', 'Loma', 'Garuda', 'DejaVu Sans', 'Arial', 'Helvetica', sans-serif; text-anchor: middle; fill: #e5e7eb" x="1116.627621" y="617.216369" transform="rotate(-0 1116.627621 617.216369)">divine</text>
    </g>
   </g>
   <g id="text_37">
    <g clip-path="url(#p26d755cbce)">
     <text style="font-size: 7.6px; font-family: 'Noto Sans', 'Noto Sans CJK SC', 'Noto Sans CJK JP', 'Amiri', 'Scheherazade', 'Abyssinica SIL', 'Padauk', 'Lohit Devanagari', 'Lohit Tamil', 'Lohit Gujarati', 'Loma', 'Garuda', 'DejaVu Sans', 'Arial', 'Helvetica', sans-serif; text-anchor: middle; fill: #e5e7eb" x="1049.314146" y="423.643313" transform="rotate(-0 1049.314146 423.643313)">old</text>
    </g>
   </g>
   <g id="text_38">
    <g clip-path="url(#p26d755cbce)">
     <text style="font-size: 7.6px; font-family: 'Noto Sans', 'Noto Sans CJK SC', 'Noto Sans CJK JP', 'Amiri', 'Scheherazade', 'Abyssinica SIL', 'Padauk', 'Lohit Devanagari', 'Lohit Tamil', 'Lohit Gujarati', 'Loma', 'Garuda', 'DejaVu Sans', 'Arial', 'Helvetica', sans-serif; text-anchor: middle; fill: #e5e7eb" x="967.852446" y="430.172979" transform="rotate(-0 967.852446 430.172979)">great</text>
    </g>
   </g>
   <g id="text_39">
    <g clip-path="url(#p26d755cbce)">
     <text style="font-size: 7.6px; font-family: 'Noto Sans', 'Noto Sans CJK SC', 'Noto Sans CJK JP', 'Amiri', 'Scheherazade', 'Abyssinica SIL', 'Padauk', 'Lohit Devanagari', 'Lohit Tamil', 'Lohit Gujarati', 'Loma', 'Garuda', 'DejaVu Sans', 'Arial', 'Helvetica', sans-serif; text-anchor: middle; fill: #e5e7eb" x="909.172839" y="503.142865" transform="rotate(-0 909.172839 503.142865)">godlike</text>
    </g>
   </g>
   <g id="text_40">
    <g clip-path="url(#p26d755cbce)">
     <text style="font-size: 7.6px; font-family: 'Noto Sans', 'Noto Sans CJK SC', 'Noto Sans CJK JP', 'Amiri', 'Scheherazade', 'Abyssinica SIL', 'Padauk', 'Lohit Devanagari', 'Lohit Tamil', 'Lohit Gujarati', 'Loma', 'Garuda', 'DejaVu Sans', 'Arial', 'Helvetica', sans-serif; text-anchor: middle; fill: #e5e7eb" x="988.775195" y="600.424553" transform="rotate(-0 988.775195 600.424553)">glad</text>
    </g>
   </g>
   <g id="text_41">
    <g clip-path="url(#p26d755cbce)">
     <text style="font-size: 7.6px; font-family: 'Noto Sans', 'Noto Sans CJK SC', 'Noto Sans CJK JP', 'Amiri', 'Scheherazade', 'Abyssinica SIL', 'Padauk', 'Lohit Devanagari', 'Lohit Tamil', 'Lohit Gujarati', 'Loma', 'Garuda', 'DejaVu Sans', 'Arial', 'Helvetica', sans-serif; text-anchor: middle; fill: #e5e7eb" x="928.507851" y="292.665126" transform="rotate(-0 928.507851 292.665126)">black</text>
    </g>
   </g>
   <g id="text_42">
    <g clip-path="url(#p26d755cbce)">
     <text style="font-size: 7.6px; font-family: 'Noto Sans', 'Noto Sans CJK SC', 'Noto Sans CJK JP', 'Amiri', 'Scheherazade', 'Abyssinica SIL', 'Padauk', 'Lohit Devanagari', 'Lohit Tamil', 'Lohit Gujarati', 'Loma', 'Garuda', 'DejaVu Sans', 'Arial', 'Helvetica', sans-serif; text-anchor: middle; fill: #e5e7eb" x="961.30722" y="552.015949" transform="rotate(-0 961.30722 552.015949)">wise</text>
    </g>
   </g>
   <g id="text_43">
    <g clip-path="url(#p26d755cbce)">
     <text style="font-size: 7.6px; font-family: 'Noto Sans', 'Noto Sans CJK SC', 'Noto Sans CJK JP', 'Amiri', 'Scheherazade', 'Abyssinica SIL', 'Padauk', 'Lohit Devanagari', 'Lohit Tamil', 'Lohit Gujarati', 'Loma', 'Garuda', 'DejaVu Sans', 'Arial', 'Helvetica', sans-serif; text-anchor: middle; fill: #e5e7eb" x="999.169351" y="394.405964" transform="rotate(-0 999.169351 394.405964)">mighty</text>
    </g>
   </g>
   <g id="text_44">
    <g clip-path="url(#p26d755cbce)">
     <text style="font-size: 7.6px; font-family: 'Noto Sans', 'Noto Sans CJK SC', 'Noto Sans CJK JP', 'Amiri', 'Scheherazade', 'Abyssinica SIL', 'Padauk', 'Lohit Devanagari', 'Lohit Tamil', 'Lohit Gujarati', 'Loma', 'Garuda', 'DejaVu Sans', 'Arial', 'Helvetica', sans-serif; text-anchor: middle; fill: #e5e7eb" x="999.685108" y="301.611958" transform="rotate(-0 999.685108 301.611958)">deep</text>
    </g>
   </g>
  </g>
  <g id="text_45">
   <text style="font-weight: 700; font-size: 22px; font-family: 'DejaVu Sans'; text-anchor: start; fill: #e5e7eb" x="18" y="23.916562" transform="rotate(-0 18 23.916562)">A. T. Murray (1919) — Native target-as-hyperedge visualization</text>
  </g>
  <g id="text_46">
   <text style="font-size: 11px; font-family: 'DejaVu Sans'; text-anchor: start; fill: #94a3b8" x="18" y="42.84" transform="rotate(-0 18 42.84)">Readable weighted core: 34 of 124 attribute nodes; 10 of 94 target hyperedges; 187 of 992 incidences.</text>
  </g>
  <g id="text_47">
   <text style="font-size: 9px; font-family: 'DejaVu Sans'; text-anchor: start; fill: #94a3b8" x="18" y="755.64" transform="rotate(-0 18 755.64)">Blue circles are attributes; amber hulls or squares are target hyperedges. Selection is ranked by summed incidence weight.</text>
  </g>
 </g>
 <defs>
  <clipPath id="pc554e67f7a">
   <rect x="7.2" y="122.72" width="678.6" height="602.32"/>
  </clipPath>
  <clipPath id="p26d755cbce">
   <rect x="696.6" y="122.72" width="678.6" height="602.32"/>
  </clipPath>
 </defs>
</svg>
