<?xml version="1.0" encoding="utf-8" standalone="no"?>
<!DOCTYPE svg PUBLIC "-//W3C//DTD SVG 1.1//EN"
  "http://www.w3.org/Graphics/SVG/1.1/DTD/svg11.dtd">
<svg xmlns:xlink="http://www.w3.org/1999/xlink" width="1382.4pt" height="764.711719pt" viewBox="0 0 1382.4 764.711719" xmlns="http://www.w3.org/2000/svg" version="1.1">
 <metadata>
  <rdf:RDF xmlns:dc="http://purl.org/dc/elements/1.1/" xmlns:cc="http://creativecommons.org/ns#" xmlns:rdf="http://www.w3.org/1999/02/22-rdf-syntax-ns#">
   <cc:Work>
    <dc:type rdf:resource="http://purl.org/dc/dcmitype/StillImage"/>
    <dc:format>image/svg+xml</dc:format>
    <dc:creator>
     <cc:Agent>
      <dc:title>Matplotlib v3.10.3, https://matplotlib.org/</dc:title>
     </cc:Agent>
    </dc:creator>
   </cc:Work>
  </rdf:RDF>
 </metadata>
 <defs>
  <style type="text/css">*{stroke-linejoin: round; stroke-linecap: butt}</style>
 </defs>
 <g id="figure_1">
  <g id="patch_1">
   <path d="M 0 764.711719
L 1382.4 764.711719
L 1382.4 0
L 0 0
z
" style="fill: #ffffff"/>
  </g>
  <g id="axes_1">
   <g id="text_1">
    <text style="font-weight: 700; font-size: 15px; font-family: 'DejaVu Sans'; text-anchor: start; fill: #111827" x="7.2" y="108.72" transform="rotate(-0 7.2 108.72)">XGI native hyperedge-hull view</text>
   </g>
   <g id="PatchCollection_1">
    <path d="M 403.989353 159.627005
L 274.619869 190.231922
L 273.663162 190.509871
L 272.725795 190.847344
L 271.811468 191.243008
L 270.923789 191.695303
L 270.066262 192.202444
L 269.24227 192.762428
L 268.455066 193.373046
L 267.707756 194.031888
L 267.00329 194.736354
L 266.344448 195.483663
L 265.73383 196.270867
L 214.56301 263.650594
L 214.003026 264.474586
L 213.495885 265.332113
L 213.04359 266.219792
L 212.647926 267.134119
L 212.310453 268.071486
L 212.032504 269.028193
L 211.815175 270.000465
L 211.659325 270.984465
L 211.565568 271.976308
L 211.534275 272.972082
L 211.565568 273.967856
L 211.659325 274.959699
L 211.815175 275.943699
L 212.032504 276.915971
L 212.310453 277.872678
L 256.294535 423.109871
L 256.632007 424.047238
L 257.027672 424.961565
L 257.479967 425.849244
L 257.987107 426.706771
L 258.547091 427.530763
L 259.157709 428.317967
L 259.816551 429.065277
L 260.521017 429.769743
L 261.268327 430.428585
L 262.055531 431.039203
L 262.879523 431.599187
L 263.73705 432.106327
L 264.624729 432.558622
L 265.539056 432.954287
L 266.476423 433.291759
L 267.43313 433.569709
L 412.335752 475.566127
L 413.308024 475.783455
L 414.292023 475.939306
L 415.283867 476.033062
L 416.279641 476.064356
L 417.275414 476.033062
L 418.267258 475.939306
L 419.251258 475.783455
L 420.22353 475.566127
L 421.180237 475.288178
L 422.117604 474.950705
L 423.031931 474.55504
L 423.919609 474.102745
L 485.923462 438.346852
L 486.780989 437.839711
L 487.604981 437.279727
L 488.392185 436.669109
L 489.139495 436.010267
L 489.84396 435.305801
L 551.381666 369.963191
L 552.040508 369.215881
L 552.651126 368.428677
L 553.21111 367.604686
L 553.71825 366.747158
L 554.170545 365.859479
L 554.56621 364.945152
L 554.903683 364.007786
L 555.181632 363.051078
L 555.39896 362.078806
L 555.554811 361.094807
L 555.648567 360.102963
L 555.679861 359.107189
L 555.648567 358.111416
L 555.554811 357.119572
L 555.39896 356.135572
L 530.888413 230.327095
L 530.671085 229.354823
L 530.393136 228.398116
L 530.055663 227.460749
L 529.659998 226.546422
L 529.207703 225.658743
L 528.700563 224.801216
L 528.140579 223.977224
L 527.529961 223.19002
L 483.016162 169.550499
L 482.35732 168.803189
L 481.652854 168.098723
L 480.905544 167.439881
L 480.11834 166.829263
L 479.294349 166.269279
L 478.436821 165.762139
L 477.549143 165.309844
L 476.634816 164.914179
L 475.697449 164.576707
L 474.740741 164.298757
L 473.76847 164.081429
L 472.78447 163.925579
L 471.792626 163.831822
L 408.929015 159.160069
L 407.933242 159.128776
L 406.937468 159.160069
L 405.945624 159.253826
L 404.961625 159.409676
z
" clip-path="url(#pc554e67f7a)" style="fill: #f59e0b; fill-opacity: 0.13; stroke: #d97706; stroke-opacity: 0.13; stroke-width: 0.8"/>
    <path d="M 260.521017 429.769743
L 389.642282 551.809013
L 390.389592 552.467855
L 391.176796 553.078473
L 392.000787 553.638457
L 392.858315 554.145598
L 393.745994 554.597893
L 394.660321 554.993557
L 395.597688 555.33103
L 396.554395 555.608979
L 397.526667 555.826308
L 398.510666 555.982158
L 399.50251 556.075915
L 400.498284 556.107208
L 401.494057 556.075915
L 402.485901 555.982158
L 403.469901 555.826308
L 404.442173 555.608979
L 405.39888 555.33103
L 406.336247 554.993557
L 407.250574 554.597893
L 408.138253 554.145598
L 408.99578 553.638457
L 409.819772 553.078473
L 410.606976 552.467855
L 411.354285 551.809013
L 412.058751 551.104547
L 412.717593 550.357238
L 413.328211 549.570034
L 552.651126 368.428677
L 553.21111 367.604686
L 553.71825 366.747158
L 554.170545 365.859479
L 554.56621 364.945152
L 554.903683 364.007786
L 555.181632 363.051078
L 555.39896 362.078806
L 555.554811 361.094807
L 555.648567 360.102963
L 555.679861 359.107189
L 555.648567 358.111416
L 555.554811 357.119572
L 555.39896 356.135572
L 530.888413 230.327095
L 530.671085 229.354823
L 530.393136 228.398116
L 530.055663 227.460749
L 529.659998 226.546422
L 529.207703 225.658743
L 528.700563 224.801216
L 528.140579 223.977224
L 527.529961 223.19002
L 526.871119 222.442711
L 526.166653 221.738245
L 525.419343 221.079403
L 524.632139 220.468785
L 523.808148 219.908801
L 522.95062 219.40166
L 522.062942 218.949365
L 521.148615 218.553701
L 520.211248 218.216228
L 519.25454 217.938279
L 518.282268 217.72095
L 517.298269 217.5651
L 355.998773 192.594579
L 355.006929 192.500822
L 354.011156 192.469528
L 353.015382 192.500822
L 352.023538 192.594579
L 351.039539 192.750429
L 350.067267 192.967757
L 349.11056 193.245706
L 348.173193 193.583179
L 347.258866 193.978844
L 346.371187 194.431139
L 345.51366 194.938279
L 344.689668 195.498263
L 343.902464 196.108881
L 343.155154 196.767723
L 288.505552 246.137141
L 287.801086 246.841607
L 287.142244 247.588916
L 286.531626 248.37612
L 285.971642 249.200112
L 285.464502 250.057639
L 285.012207 250.945318
L 284.616542 251.859645
L 284.27907 252.797012
L 284.00112 253.753719
L 262.200781 344.935914
L 261.983452 345.908185
L 261.827602 346.892185
L 261.733845 347.884029
L 255.54965 417.213502
L 255.518356 418.209275
L 255.54965 419.205049
L 255.643407 420.196893
L 255.799257 421.180892
L 256.016585 422.153164
L 256.294535 423.109871
L 256.632007 424.047238
L 257.027672 424.961565
L 257.479967 425.849244
L 257.987107 426.706771
L 258.547091 427.530763
L 259.157709 428.317967
L 259.816551 429.065277
z
" clip-path="url(#pc554e67f7a)" style="fill: #f59e0b; fill-opacity: 0.13; stroke: #d97706; stroke-opacity: 0.13; stroke-width: 0.8"/>
    <path d="M 140.959492 500.721695
L 298.015454 682.881254
L 298.674296 683.628563
L 299.378762 684.333029
L 300.126071 684.991871
L 300.913275 685.602489
L 301.737267 686.162474
L 302.594794 686.669614
L 303.482473 687.121909
L 304.3968 687.517573
L 305.334167 687.855046
L 306.290874 688.132995
L 307.263146 688.350324
L 308.247146 688.506174
L 309.23899 688.599931
L 310.234763 688.631224
L 311.230537 688.599931
L 312.222381 688.506174
L 313.20638 688.350324
L 314.178652 688.132995
L 315.13536 687.855046
L 316.072726 687.517573
L 316.987053 687.121909
L 317.874732 686.669614
L 318.73226 686.162474
L 319.556251 685.602489
L 320.343455 684.991871
L 321.090765 684.333029
L 321.795231 683.628563
L 322.454073 682.881254
L 323.064691 682.09405
L 413.328211 549.570034
L 413.888195 548.746042
L 491.673405 432.947296
L 492.180545 432.089769
L 492.63284 431.20209
L 493.028504 430.287763
L 493.365977 429.350396
L 493.643926 428.393689
L 493.861255 427.421417
L 494.017105 426.437417
L 494.110862 425.445574
L 494.142155 424.4498
L 494.110862 423.454026
L 494.017105 422.462182
L 493.861255 421.478183
L 493.643926 420.505911
L 493.365977 419.549204
L 493.028504 418.611837
L 485.765174 400.046792
L 485.369509 399.132465
L 484.917214 398.244786
L 484.410074 397.387258
L 483.85009 396.563267
L 483.239472 395.776063
L 431.290042 336.4984
L 430.6312 335.75109
L 429.926734 335.046624
L 429.179424 334.387782
L 428.39222 333.777164
L 427.568228 333.21718
L 426.710701 332.71004
L 425.823022 332.257745
L 363.349052 301.404987
L 362.434725 301.009323
L 361.497358 300.67185
L 327.564343 288.591566
L 326.607635 288.313617
L 325.635364 288.096288
L 324.651364 287.940438
L 323.65952 287.846681
L 322.663747 287.815388
L 321.667973 287.846681
L 320.676129 287.940438
L 319.692129 288.096288
L 318.719858 288.313617
L 317.76315 288.591566
L 316.825783 288.929039
L 315.911456 289.324703
L 315.023778 289.776998
L 314.16625 290.284139
L 313.342259 290.844123
L 312.555055 291.454741
L 311.807745 292.113583
L 311.103279 292.818049
L 266.000747 338.023801
L 265.341905 338.771111
L 140.959492 480.504312
L 140.348874 481.291515
L 139.78889 482.115507
L 139.28175 482.973034
L 138.829455 483.860713
L 138.43379 484.77504
L 138.096317 485.712407
L 137.818368 486.669114
L 137.60104 487.641386
L 137.445189 488.625386
L 137.351433 489.61723
L 137.320139 490.613003
L 137.351433 491.608777
L 137.445189 492.600621
L 137.60104 493.58462
L 137.818368 494.556892
L 138.096317 495.5136
L 138.43379 496.450966
L 138.829455 497.365293
L 139.28175 498.252972
L 139.78889 499.1105
L 140.348874 499.934491
z
" clip-path="url(#pc554e67f7a)" style="fill: #f59e0b; fill-opacity: 0.13; stroke: #d97706; stroke-opacity: 0.13; stroke-width: 0.8"/>
    <path d="M 212.310453 268.071486
L 138.096317 485.712407
L 137.818368 486.669114
L 137.60104 487.641386
L 137.445189 488.625386
L 137.351433 489.61723
L 137.320139 490.613003
L 137.351433 491.608777
L 137.445189 492.600621
L 137.60104 493.58462
L 137.818368 494.556892
L 138.096317 495.5136
L 138.43379 496.450966
L 138.829455 497.365293
L 139.28175 498.252972
L 139.78889 499.1105
L 140.348874 499.934491
L 140.959492 500.721695
L 141.618334 501.469005
L 142.3228 502.173471
L 143.07011 502.832313
L 143.857314 503.442931
L 144.681305 504.002915
L 145.538833 504.510055
L 146.426511 504.96235
L 147.340839 505.358015
L 148.278205 505.695488
L 149.234913 505.973437
L 259.485033 534.31727
L 260.457305 534.534598
L 261.441304 534.690448
L 262.433148 534.784205
L 263.428922 534.815499
L 264.424696 534.784205
L 265.416539 534.690448
L 266.400539 534.534598
L 267.372811 534.31727
L 268.329518 534.03932
L 269.266885 533.701848
L 270.181212 533.306183
L 271.068891 532.853888
L 271.926418 532.346748
L 272.75041 531.786764
L 273.537614 531.176146
L 412.522 416.617703
L 413.26931 415.95886
L 413.973776 415.254395
L 414.632618 414.507085
L 415.243236 413.719881
L 415.80322 412.895889
L 416.31036 412.038362
L 416.762655 411.150683
L 417.15832 410.236356
L 417.495793 409.298989
L 417.773742 408.342282
L 434.431166 350.550981
L 434.648494 349.578709
L 434.804344 348.594709
L 446.802195 269.584943
L 446.895952 268.5931
L 446.927245 267.597326
L 446.895952 266.601552
L 446.802195 265.609708
L 446.646345 264.625709
L 446.429016 263.653437
L 446.151067 262.69673
L 445.813594 261.759363
L 445.41793 260.845036
L 444.965635 259.957357
L 444.458495 259.09983
L 443.89851 258.275838
L 443.287892 257.488634
L 442.62905 256.741324
L 441.924584 256.036859
L 441.177275 255.378016
L 440.390071 254.767398
L 363.332644 195.498263
L 362.508652 194.938279
L 361.651125 194.431139
L 360.763446 193.978844
L 359.849119 193.583179
L 358.911752 193.245706
L 357.955045 192.967757
L 356.982773 192.750429
L 355.998773 192.594579
L 355.006929 192.500822
L 279.559531 189.764986
L 278.563758 189.733693
L 277.567984 189.764986
L 276.57614 189.858743
L 275.592141 190.014593
L 274.619869 190.231922
L 273.663162 190.509871
L 272.725795 190.847344
L 271.811468 191.243008
L 270.923789 191.695303
L 270.066262 192.202444
L 269.24227 192.762428
L 268.455066 193.373046
L 267.707756 194.031888
L 267.00329 194.736354
L 266.344448 195.483663
L 265.73383 196.270867
L 214.56301 263.650594
L 214.003026 264.474586
L 213.495885 265.332113
L 213.04359 266.219792
L 212.647926 267.134119
z
" clip-path="url(#pc554e67f7a)" style="fill: #f59e0b; fill-opacity: 0.13; stroke: #d97706; stroke-opacity: 0.13; stroke-width: 0.8"/>
    <path d="M 247.601553 517.961063
L 247.570259 518.956836
L 247.601553 519.95261
L 247.69531 520.944454
L 247.85116 521.928453
L 248.068488 522.900725
L 248.346438 523.857432
L 248.68391 524.794799
L 249.079575 525.709126
L 249.53187 526.596805
L 250.03901 527.454332
L 250.598994 528.278324
L 251.209612 529.065528
L 251.868455 529.812838
L 252.57292 530.517304
L 253.32023 531.176146
L 254.107434 531.786764
L 254.931426 532.346748
L 255.788953 532.853888
L 256.676632 533.306183
L 257.590959 533.701848
L 258.528326 534.03932
L 259.485033 534.31727
L 260.457305 534.534598
L 261.441304 534.690448
L 398.510666 555.982158
L 399.50251 556.075915
L 400.498284 556.107208
L 401.494057 556.075915
L 402.485901 555.982158
L 403.469901 555.826308
L 404.442173 555.608979
L 405.39888 555.33103
L 406.336247 554.993557
L 407.250574 554.597893
L 408.138253 554.145598
L 408.99578 553.638457
L 409.819772 553.078473
L 410.606976 552.467855
L 411.354285 551.809013
L 412.058751 551.104547
L 412.717593 550.357238
L 413.328211 549.570034
L 552.651126 368.428677
L 553.21111 367.604686
L 553.71825 366.747158
L 554.170545 365.859479
L 554.56621 364.945152
L 554.903683 364.007786
L 555.181632 363.051078
L 555.39896 362.078806
L 555.554811 361.094807
L 555.648567 360.102963
L 555.679861 359.107189
L 555.648567 358.111416
L 555.554811 357.119572
L 555.39896 356.135572
L 555.181632 355.1633
L 554.903683 354.206593
L 554.56621 353.269226
L 485.541864 173.821228
L 485.146199 172.906901
L 484.693904 172.019222
L 484.186764 171.161695
L 483.62678 170.337703
L 483.016162 169.550499
L 482.35732 168.803189
L 481.652854 168.098723
L 480.905544 167.439881
L 480.11834 166.829263
L 479.294349 166.269279
L 478.436821 165.762139
L 477.549143 165.309844
L 476.634816 164.914179
L 475.697449 164.576707
L 474.740741 164.298757
L 473.76847 164.081429
L 472.78447 163.925579
L 471.792626 163.831822
L 470.796852 163.800528
L 469.801079 163.831822
L 468.809235 163.925579
L 276.57614 189.858743
L 275.592141 190.014593
L 274.619869 190.231922
L 273.663162 190.509871
L 272.725795 190.847344
L 271.811468 191.243008
L 270.923789 191.695303
L 270.066262 192.202444
L 269.24227 192.762428
L 268.455066 193.373046
L 267.707756 194.031888
L 267.00329 194.736354
L 266.344448 195.483663
L 265.73383 196.270867
L 265.173846 197.094859
L 264.666706 197.952386
L 264.214411 198.840065
L 263.818746 199.754392
L 263.481274 200.691759
L 263.203324 201.648466
L 262.985996 202.620738
L 262.830146 203.604738
L 262.736389 204.596582
z
" clip-path="url(#pc554e67f7a)" style="fill: #f59e0b; fill-opacity: 0.13; stroke: #d97706; stroke-opacity: 0.13; stroke-width: 0.8"/>
    <path d="M 330.831997 446.852186
L 411.379044 475.288178
L 412.335752 475.566127
L 413.308024 475.783455
L 414.292023 475.939306
L 415.283867 476.033062
L 416.279641 476.064356
L 417.275414 476.033062
L 418.267258 475.939306
L 419.251258 475.783455
L 420.22353 475.566127
L 421.180237 475.288178
L 422.117604 474.950705
L 423.031931 474.55504
L 423.919609 474.102745
L 485.923462 438.346852
L 486.780989 437.839711
L 487.604981 437.279727
L 488.392185 436.669109
L 489.139495 436.010267
L 489.84396 435.305801
L 490.502802 434.558492
L 491.11342 433.771288
L 491.673405 432.947296
L 492.180545 432.089769
L 492.63284 431.20209
L 493.028504 430.287763
L 493.365977 429.350396
L 493.643926 428.393689
L 527.458463 301.763689
L 527.675792 300.791417
L 527.831642 299.807418
L 527.925399 298.815574
L 527.956692 297.8198
L 527.925399 296.824027
L 527.831642 295.832183
L 527.675792 294.848183
L 527.458463 293.875911
L 527.180514 292.919204
L 526.843041 291.981837
L 526.447376 291.06751
L 525.995081 290.179832
L 525.487941 289.322304
L 524.927957 288.498313
L 524.317339 287.711109
L 523.658497 286.963799
L 522.954031 286.259333
L 522.206721 285.600491
L 521.419517 284.989873
L 520.595526 284.429889
L 519.737998 283.922749
L 518.85032 283.470454
L 517.935993 283.074789
L 374.022848 228.992652
L 373.085482 228.65518
L 372.128774 228.37723
L 371.156502 228.159902
L 370.172503 228.004052
L 369.180659 227.910295
L 368.184885 227.879001
L 367.189112 227.910295
L 366.197268 228.004052
L 365.213268 228.159902
L 364.240996 228.37723
L 363.284289 228.65518
L 362.346922 228.992652
L 361.432595 229.388317
L 360.544917 229.840612
L 359.687389 230.347752
L 358.863398 230.907736
L 358.076194 231.518354
L 357.328884 232.177196
L 356.624418 232.881662
L 355.965576 233.628972
L 265.341905 338.771111
L 264.731287 339.558315
L 264.171303 340.382306
L 263.664162 341.239834
L 263.211867 342.127512
L 262.816203 343.041839
L 262.47873 343.979206
L 262.200781 344.935914
L 261.983452 345.908185
L 261.827602 346.892185
L 261.733845 347.884029
L 261.702552 348.879802
L 261.733845 349.875576
L 261.827602 350.86742
L 261.983452 351.85142
L 262.200781 352.823691
L 262.47873 353.780399
L 262.816203 354.717766
L 263.211867 355.632093
L 263.664162 356.519771
L 264.171303 357.377299
L 264.731287 358.20129
L 322.902666 441.09119
L 323.513284 441.878394
L 324.172126 442.625704
L 324.876592 443.33017
L 325.623901 443.989012
L 326.411105 444.59963
L 327.235097 445.159614
L 328.092624 445.666754
L 328.980303 446.119049
L 329.89463 446.514714
z
" clip-path="url(#pc554e67f7a)" style="fill: #f59e0b; fill-opacity: 0.13; stroke: #d97706; stroke-opacity: 0.13; stroke-width: 0.8"/>
    <path d="M 400.293273 161.090386
L 219.752968 259.07503
L 218.895441 259.58217
L 218.071449 260.142155
L 217.284245 260.752773
L 216.536936 261.411615
L 215.83247 262.116081
L 215.173628 262.86339
L 214.56301 263.650594
L 214.003026 264.474586
L 213.495885 265.332113
L 213.04359 266.219792
L 212.647926 267.134119
L 212.310453 268.071486
L 212.032504 269.028193
L 211.815175 270.000465
L 211.659325 270.984465
L 211.565568 271.976308
L 211.534275 272.972082
L 211.565568 273.967856
L 211.659325 274.959699
L 211.815175 275.943699
L 212.032504 276.915971
L 212.310453 277.872678
L 212.647926 278.810045
L 213.04359 279.724372
L 213.495885 280.612051
L 214.003026 281.469578
L 264.171303 357.377299
L 264.731287 358.20129
L 322.902666 441.09119
L 323.513284 441.878394
L 324.172126 442.625704
L 324.876592 443.33017
L 325.623901 443.989012
L 326.411105 444.59963
L 327.235097 445.159614
L 328.092624 445.666754
L 328.980303 446.119049
L 329.89463 446.514714
L 330.831997 446.852186
L 411.379044 475.288178
L 412.335752 475.566127
L 413.308024 475.783455
L 414.292023 475.939306
L 415.283867 476.033062
L 416.279641 476.064356
L 417.275414 476.033062
L 418.267258 475.939306
L 419.251258 475.783455
L 420.22353 475.566127
L 421.180237 475.288178
L 422.117604 474.950705
L 423.031931 474.55504
L 423.919609 474.102745
L 424.777137 473.595605
L 425.601128 473.035621
L 426.388332 472.425003
L 427.135642 471.766161
L 481.876164 417.445222
L 482.58063 416.740756
L 483.239472 415.993447
L 483.85009 415.206243
L 484.410074 414.382251
L 484.917214 413.524724
L 485.369509 412.637045
L 485.765174 411.722718
L 486.102647 410.785351
L 486.380596 409.828644
L 486.597924 408.856372
L 486.753775 407.872372
L 486.847531 406.880528
L 486.878825 405.884755
L 486.847531 404.888981
L 486.753775 403.897137
L 486.597924 402.913138
L 486.380596 401.940866
L 423.293675 171.043549
L 423.015726 170.086842
L 422.678253 169.149475
L 422.282588 168.235148
L 421.830293 167.347469
L 421.323153 166.489942
L 420.763169 165.66595
L 420.152551 164.878746
L 419.493709 164.131437
L 418.789243 163.426971
L 418.041933 162.768129
L 417.25473 162.157511
L 416.430738 161.597526
L 415.57321 161.090386
L 414.685532 160.638091
L 413.771205 160.242427
L 412.833838 159.904954
L 411.877131 159.627005
L 410.904859 159.409676
L 409.920859 159.253826
L 408.929015 159.160069
L 407.933242 159.128776
L 406.937468 159.160069
L 405.945624 159.253826
L 404.961625 159.409676
L 403.989353 159.627005
L 403.032645 159.904954
L 402.095279 160.242427
L 401.180952 160.638091
z
" clip-path="url(#pc554e67f7a)" style="fill: #f59e0b; fill-opacity: 0.13; stroke: #d97706; stroke-opacity: 0.13; stroke-width: 0.8"/>
    <path d="M 395.103314 165.66595
L 264.731287 339.558315
L 264.171303 340.382306
L 263.664162 341.239834
L 263.211867 342.127512
L 262.816203 343.041839
L 262.47873 343.979206
L 262.200781 344.935914
L 261.983452 345.908185
L 261.827602 346.892185
L 261.733845 347.884029
L 261.702552 348.879802
L 261.733845 349.875576
L 261.827602 350.86742
L 261.983452 351.85142
L 262.200781 352.823691
L 262.47873 353.780399
L 262.816203 354.717766
L 263.211867 355.632093
L 263.664162 356.519771
L 264.171303 357.377299
L 264.731287 358.20129
L 265.341905 358.988494
L 266.000747 359.735804
L 328.250965 426.574325
L 328.955431 427.278791
L 329.70274 427.937633
L 330.489944 428.548251
L 331.313936 429.108235
L 332.171463 429.615375
L 391.637661 462.924078
L 392.52534 463.376373
L 393.439667 463.772037
L 394.377033 464.10951
L 395.333741 464.387459
L 396.306013 464.604788
L 397.290012 464.760638
L 398.281856 464.854395
L 399.27763 464.885688
L 400.273403 464.854395
L 401.265247 464.760638
L 402.249247 464.604788
L 403.221519 464.387459
L 404.178226 464.10951
L 405.115593 463.772037
L 406.02992 463.376373
L 406.917599 462.924078
L 407.775126 462.416937
L 408.599118 461.856953
L 409.386322 461.246335
L 410.133631 460.587493
L 410.838097 459.883027
L 411.496939 459.135718
L 412.107557 458.348514
L 524.927957 307.141288
L 525.487941 306.317297
L 525.995081 305.459769
L 526.447376 304.572091
L 526.843041 303.657763
L 527.180514 302.720397
L 527.458463 301.763689
L 527.675792 300.791417
L 527.831642 299.807418
L 527.925399 298.815574
L 527.956692 297.8198
L 527.925399 296.824027
L 527.831642 295.832183
L 527.675792 294.848183
L 527.458463 293.875911
L 527.180514 292.919204
L 526.843041 291.981837
L 526.447376 291.06751
L 525.995081 290.179832
L 525.487941 289.322304
L 524.927957 288.498313
L 524.317339 287.711109
L 420.152551 164.878746
L 419.493709 164.131437
L 418.789243 163.426971
L 418.041933 162.768129
L 417.25473 162.157511
L 416.430738 161.597526
L 415.57321 161.090386
L 414.685532 160.638091
L 413.771205 160.242427
L 412.833838 159.904954
L 411.877131 159.627005
L 410.904859 159.409676
L 409.920859 159.253826
L 408.929015 159.160069
L 407.933242 159.128776
L 406.937468 159.160069
L 405.945624 159.253826
L 404.961625 159.409676
L 403.989353 159.627005
L 403.032645 159.904954
L 402.095279 160.242427
L 401.180952 160.638091
L 400.293273 161.090386
L 399.435745 161.597526
L 398.611754 162.157511
L 397.82455 162.768129
L 397.07724 163.426971
L 396.372774 164.131437
L 395.713932 164.878746
z
" clip-path="url(#pc554e67f7a)" style="fill: #f59e0b; fill-opacity: 0.13; stroke: #d97706; stroke-opacity: 0.13; stroke-width: 0.8"/>
    <path d="M 247.601553 517.961063
L 247.570259 518.956836
L 247.601553 519.95261
L 247.69531 520.944454
L 247.85116 521.928453
L 248.068488 522.900725
L 248.346438 523.857432
L 248.68391 524.794799
L 249.079575 525.709126
L 249.53187 526.596805
L 250.03901 527.454332
L 250.598994 528.278324
L 251.209612 529.065528
L 251.868455 529.812838
L 252.57292 530.517304
L 253.32023 531.176146
L 254.107434 531.786764
L 254.931426 532.346748
L 255.788953 532.853888
L 256.676632 533.306183
L 257.590959 533.701848
L 258.528326 534.03932
L 259.485033 534.31727
L 260.457305 534.534598
L 261.441304 534.690448
L 398.510666 555.982158
L 399.50251 556.075915
L 400.498284 556.107208
L 401.494057 556.075915
L 402.485901 555.982158
L 403.469901 555.826308
L 404.442173 555.608979
L 405.39888 555.33103
L 406.336247 554.993557
L 407.250574 554.597893
L 408.138253 554.145598
L 408.99578 553.638457
L 409.819772 553.078473
L 410.606976 552.467855
L 411.354285 551.809013
L 412.058751 551.104547
L 412.717593 550.357238
L 413.328211 549.570034
L 413.888195 548.746042
L 491.673405 432.947296
L 492.180545 432.089769
L 492.63284 431.20209
L 493.028504 430.287763
L 493.365977 429.350396
L 493.643926 428.393689
L 493.861255 427.421417
L 520.521883 307.797641
L 520.677733 306.813641
L 520.77149 305.821798
L 520.802784 304.826024
L 520.77149 303.83025
L 520.677733 302.838406
L 520.521883 301.854407
L 520.304555 300.882135
L 520.026606 299.925428
L 519.689133 298.988061
L 519.293468 298.073734
L 518.841173 297.186055
L 518.334033 296.328528
L 517.774049 295.504536
L 517.163431 294.717332
L 516.504589 293.970022
L 515.800123 293.265557
L 515.052813 292.606714
L 514.265609 291.996096
L 513.441618 291.436112
L 512.58409 290.928972
L 511.696411 290.476677
L 510.782084 290.081012
L 509.844717 289.74354
L 430.638613 261.910486
L 429.681906 261.632537
L 428.709634 261.415209
L 427.725634 261.259358
L 301.349171 241.963996
L 300.357328 241.870239
L 299.361554 241.838946
L 298.36578 241.870239
L 297.373936 241.963996
L 296.389937 242.119846
L 295.417665 242.337175
L 294.460958 242.615124
L 293.523591 242.952597
L 292.609264 243.348262
L 291.721585 243.800556
L 290.864058 244.307697
L 290.040066 244.867681
L 289.252862 245.478299
L 288.505552 246.137141
L 287.801086 246.841607
L 287.142244 247.588916
L 286.531626 248.37612
L 285.971642 249.200112
L 285.464502 250.057639
L 285.012207 250.945318
L 284.616542 251.859645
L 284.27907 252.797012
L 284.00112 253.753719
L 283.783792 254.725991
L 283.627942 255.709991
L 247.69531 516.969219
z
" clip-path="url(#pc554e67f7a)" style="fill: #f59e0b; fill-opacity: 0.13; stroke: #d97706; stroke-opacity: 0.13; stroke-width: 0.8"/>
    <path d="M 398.611754 162.157511
L 290.040066 244.867681
L 289.252862 245.478299
L 288.505552 246.137141
L 287.801086 246.841607
L 287.142244 247.588916
L 286.531626 248.37612
L 285.971642 249.200112
L 285.464502 250.057639
L 285.012207 250.945318
L 284.616542 251.859645
L 284.27907 252.797012
L 284.00112 253.753719
L 283.783792 254.725991
L 283.627942 255.709991
L 283.534185 256.701835
L 283.502891 257.697608
L 283.534185 258.693382
L 283.627942 259.685226
L 283.783792 260.669225
L 320.154831 434.741319
L 320.37216 435.713591
L 320.650109 436.670298
L 320.987582 437.607665
L 321.383246 438.521992
L 321.835541 439.409671
L 322.342682 440.267198
L 322.902666 441.09119
L 323.513284 441.878394
L 324.172126 442.625704
L 324.876592 443.33017
L 325.623901 443.989012
L 326.411105 444.59963
L 327.235097 445.159614
L 328.092624 445.666754
L 328.980303 446.119049
L 329.89463 446.514714
L 330.831997 446.852186
L 411.379044 475.288178
L 412.335752 475.566127
L 413.308024 475.783455
L 414.292023 475.939306
L 415.283867 476.033062
L 416.279641 476.064356
L 417.275414 476.033062
L 418.267258 475.939306
L 419.251258 475.783455
L 420.22353 475.566127
L 421.180237 475.288178
L 422.117604 474.950705
L 423.031931 474.55504
L 423.919609 474.102745
L 485.923462 438.346852
L 486.780989 437.839711
L 487.604981 437.279727
L 488.392185 436.669109
L 489.139495 436.010267
L 489.84396 435.305801
L 490.502802 434.558492
L 491.11342 433.771288
L 491.673405 432.947296
L 492.180545 432.089769
L 492.63284 431.20209
L 493.028504 430.287763
L 493.365977 429.350396
L 493.643926 428.393689
L 527.458463 301.763689
L 527.675792 300.791417
L 527.831642 299.807418
L 527.925399 298.815574
L 527.956692 297.8198
L 527.925399 296.824027
L 527.831642 295.832183
L 527.675792 294.848183
L 527.458463 293.875911
L 527.180514 292.919204
L 526.843041 291.981837
L 526.447376 291.06751
L 525.995081 290.179832
L 525.487941 289.322304
L 524.927957 288.498313
L 524.317339 287.711109
L 420.152551 164.878746
L 419.493709 164.131437
L 418.789243 163.426971
L 418.041933 162.768129
L 417.25473 162.157511
L 416.430738 161.597526
L 415.57321 161.090386
L 414.685532 160.638091
L 413.771205 160.242427
L 412.833838 159.904954
L 411.877131 159.627005
L 410.904859 159.409676
L 409.920859 159.253826
L 408.929015 159.160069
L 407.933242 159.128776
L 406.937468 159.160069
L 405.945624 159.253826
L 404.961625 159.409676
L 403.989353 159.627005
L 403.032645 159.904954
L 402.095279 160.242427
L 401.180952 160.638091
L 400.293273 161.090386
L 399.435745 161.597526
z
" clip-path="url(#pc554e67f7a)" style="fill: #f59e0b; fill-opacity: 0.13; stroke: #d97706; stroke-opacity: 0.13; stroke-width: 0.8"/>
   </g>
   <g id="LineCollection_1"/>
   <g id="PathCollection_1">
    <defs>
     <path id="m82c9e98f7c" d="M 0 6
C 1.591219 6 3.117479 5.367802 4.242641 4.242641
C 5.367802 3.117479 6 1.591219 6 0
C 6 -1.591219 5.367802 -3.117479 4.242641 -4.242641
C 3.117479 -5.367802 1.591219 -6 0 -6
C -1.591219 -6 -3.117479 -5.367802 -4.242641 -4.242641
C -5.367802 -3.117479 -6 -1.591219 -6 0
C -6 1.591219 -5.367802 3.117479 -4.242641 4.242641
C -3.117479 5.367802 -1.591219 6 0 6
z
" style="stroke: #334155; stroke-width: 0.8"/>
    </defs>
    <g clip-path="url(#pc554e67f7a)">
     <use xlink:href="#m82c9e98f7c" x="227.392937" y="272.972082" style="fill: #38bdf8; stroke: #334155; stroke-width: 0.8"/>
     <use xlink:href="#m82c9e98f7c" x="354.011156" y="208.328191" style="fill: #38bdf8; stroke: #334155; stroke-width: 0.8"/>
     <use xlink:href="#m82c9e98f7c" x="399.27763" y="449.027026" style="fill: #38bdf8; stroke: #334155; stroke-width: 0.8"/>
     <use xlink:href="#m82c9e98f7c" x="407.933242" y="174.987438" style="fill: #38bdf8; stroke: #334155; stroke-width: 0.8"/>
     <use xlink:href="#m82c9e98f7c" x="417.520923" y="347.426005" style="fill: #38bdf8; stroke: #334155; stroke-width: 0.8"/>
     <use xlink:href="#m82c9e98f7c" x="425.738017" y="276.992971" style="fill: #38bdf8; stroke: #334155; stroke-width: 0.8"/>
     <use xlink:href="#m82c9e98f7c" x="335.732593" y="431.769702" style="fill: #38bdf8; stroke: #334155; stroke-width: 0.8"/>
     <use xlink:href="#m82c9e98f7c" x="343.9464" y="371.352503" style="fill: #38bdf8; stroke: #334155; stroke-width: 0.8"/>
     <use xlink:href="#m82c9e98f7c" x="402.413308" y="404.398393" style="fill: #38bdf8; stroke: #334155; stroke-width: 0.8"/>
     <use xlink:href="#m82c9e98f7c" x="356.596762" y="315.754334" style="fill: #38bdf8; stroke: #334155; stroke-width: 0.8"/>
     <use xlink:href="#m82c9e98f7c" x="281.89467" y="351.364991" style="fill: #38bdf8; stroke: #334155; stroke-width: 0.8"/>
     <use xlink:href="#m82c9e98f7c" x="419.070732" y="346.607092" style="fill: #38bdf8; stroke: #334155; stroke-width: 0.8"/>
     <use xlink:href="#m82c9e98f7c" x="471.020162" y="405.884755" style="fill: #38bdf8; stroke: #334155; stroke-width: 0.8"/>
     <use xlink:href="#m82c9e98f7c" x="416.279641" y="460.205693" style="fill: #38bdf8; stroke: #334155; stroke-width: 0.8"/>
     <use xlink:href="#m82c9e98f7c" x="277.561214" y="348.879802" style="fill: #38bdf8; stroke: #334155; stroke-width: 0.8"/>
     <use xlink:href="#m82c9e98f7c" x="343.498346" y="372.237813" style="fill: #38bdf8; stroke: #334155; stroke-width: 0.8"/>
     <use xlink:href="#m82c9e98f7c" x="322.663747" y="303.67405" style="fill: #38bdf8; stroke: #334155; stroke-width: 0.8"/>
     <use xlink:href="#m82c9e98f7c" x="539.821198" y="359.107189" style="fill: #38bdf8; stroke: #334155; stroke-width: 0.8"/>
     <use xlink:href="#m82c9e98f7c" x="400.498284" y="540.248546" style="fill: #38bdf8; stroke: #334155; stroke-width: 0.8"/>
     <use xlink:href="#m82c9e98f7c" x="263.428922" y="518.956836" style="fill: #38bdf8; stroke: #334155; stroke-width: 0.8"/>
     <use xlink:href="#m82c9e98f7c" x="339.811432" y="415.718324" style="fill: #38bdf8; stroke: #334155; stroke-width: 0.8"/>
     <use xlink:href="#m82c9e98f7c" x="271.377019" y="418.209275" style="fill: #38bdf8; stroke: #334155; stroke-width: 0.8"/>
     <use xlink:href="#m82c9e98f7c" x="431.068583" y="267.597326" style="fill: #38bdf8; stroke: #334155; stroke-width: 0.8"/>
     <use xlink:href="#m82c9e98f7c" x="368.184885" y="243.737664" style="fill: #38bdf8; stroke: #334155; stroke-width: 0.8"/>
     <use xlink:href="#m82c9e98f7c" x="278.563758" y="205.592355" style="fill: #38bdf8; stroke: #334155; stroke-width: 0.8"/>
     <use xlink:href="#m82c9e98f7c" x="470.796852" y="179.659191" style="fill: #38bdf8; stroke: #334155; stroke-width: 0.8"/>
     <use xlink:href="#m82c9e98f7c" x="299.361554" y="257.697608" style="fill: #38bdf8; stroke: #334155; stroke-width: 0.8"/>
     <use xlink:href="#m82c9e98f7c" x="153.178802" y="490.613003" style="fill: #38bdf8; stroke: #334155; stroke-width: 0.8"/>
     <use xlink:href="#m82c9e98f7c" x="504.944121" y="304.826024" style="fill: #38bdf8; stroke: #334155; stroke-width: 0.8"/>
     <use xlink:href="#m82c9e98f7c" x="478.283493" y="424.4498" style="fill: #38bdf8; stroke: #334155; stroke-width: 0.8"/>
     <use xlink:href="#m82c9e98f7c" x="512.09803" y="297.8198" style="fill: #38bdf8; stroke: #334155; stroke-width: 0.8"/>
     <use xlink:href="#m82c9e98f7c" x="473.342555" y="418.209568" style="fill: #38bdf8; stroke: #334155; stroke-width: 0.8"/>
     <use xlink:href="#m82c9e98f7c" x="515.310651" y="233.298712" style="fill: #38bdf8; stroke: #334155; stroke-width: 0.8"/>
     <use xlink:href="#m82c9e98f7c" x="310.234763" y="672.772562" style="fill: #38bdf8; stroke: #334155; stroke-width: 0.8"/>
    </g>
   </g>
   <g id="text_2">
    <g clip-path="url(#pc554e67f7a)">
     <text style="font-size: 8.2px; font-family: 'DejaVu Sans', 'Bitstream Vera Sans', 'Computer Modern Sans Serif', 'Lucida Grande', 'Verdana', 'Geneva', 'Lucid', 'Arial', 'Helvetica', 'Avant Garde', sans-serif; text-anchor: middle; fill: #111827" x="417.520923" y="349.688692" transform="rotate(-0 417.520923 349.688692)">evil</text>
    </g>
   </g>
   <g id="text_3">
    <g clip-path="url(#pc554e67f7a)">
     <text style="font-size: 8.2px; font-family: 'DejaVu Sans', 'Bitstream Vera Sans', 'Computer Modern Sans Serif', 'Lucida Grande', 'Verdana', 'Geneva', 'Lucid', 'Arial', 'Helvetica', 'Avant Garde', sans-serif; text-anchor: middle; fill: #111827" x="339.811432" y="417.981011" transform="rotate(-0 339.811432 417.981011)">fair</text>
    </g>
   </g>
   <g id="text_4">
    <g clip-path="url(#pc554e67f7a)">
     <text style="font-size: 8.2px; font-family: 'DejaVu Sans', 'Bitstream Vera Sans', 'Computer Modern Sans Serif', 'Lucida Grande', 'Verdana', 'Geneva', 'Lucid', 'Arial', 'Helvetica', 'Avant Garde', sans-serif; text-anchor: middle; fill: #111827" x="515.310651" y="235.5614" transform="rotate(-0 515.310651 235.5614)">enduring</text>
    </g>
   </g>
   <g id="text_5">
    <g clip-path="url(#pc554e67f7a)">
     <text style="font-size: 8.2px; font-family: 'DejaVu Sans', 'Bitstream Vera Sans', 'Computer Modern Sans Serif', 'Lucida Grande', 'Verdana', 'Geneva', 'Lucid', 'Arial', 'Helvetica', 'Avant Garde', sans-serif; text-anchor: middle; fill: #111827" x="356.596762" y="318.017022" transform="rotate(-0 356.596762 318.017022)">long</text>
    </g>
   </g>
   <g id="text_6">
    <g clip-path="url(#pc554e67f7a)">
     <text style="font-size: 8.2px; font-family: 'DejaVu Sans', 'Bitstream Vera Sans', 'Computer Modern Sans Serif', 'Lucida Grande', 'Verdana', 'Geneva', 'Lucid', 'Arial', 'Helvetica', 'Avant Garde', sans-serif; text-anchor: middle; fill: #111827" x="402.413308" y="406.661081" transform="rotate(-0 402.413308 406.661081)">high</text>
    </g>
   </g>
   <g id="text_7">
    <g clip-path="url(#pc554e67f7a)">
     <text style="font-size: 8.2px; font-family: 'DejaVu Sans', 'Bitstream Vera Sans', 'Computer Modern Sans Serif', 'Lucida Grande', 'Verdana', 'Geneva', 'Lucid', 'Arial', 'Helvetica', 'Avant Garde', sans-serif; text-anchor: middle; fill: #111827" x="322.663747" y="305.936738" transform="rotate(-0 322.663747 305.936738)">young</text>
    </g>
   </g>
   <g id="text_8">
    <g clip-path="url(#pc554e67f7a)">
     <text style="font-size: 8.2px; font-family: 'DejaVu Sans', 'Bitstream Vera Sans', 'Computer Modern Sans Serif', 'Lucida Grande', 'Verdana', 'Geneva', 'Lucid', 'Arial', 'Helvetica', 'Avant Garde', sans-serif; text-anchor: middle; fill: #111827" x="335.732593" y="434.03239" transform="rotate(-0 335.732593 434.03239)">good</text>
    </g>
   </g>
   <g id="text_9">
    <g clip-path="url(#pc554e67f7a)">
     <text style="font-size: 8.2px; font-family: 'DejaVu Sans', 'Bitstream Vera Sans', 'Computer Modern Sans Serif', 'Lucida Grande', 'Verdana', 'Geneva', 'Lucid', 'Arial', 'Helvetica', 'Avant Garde', sans-serif; text-anchor: middle; fill: #111827" x="407.933242" y="177.250126" transform="rotate(-0 407.933242 177.250126)">divine</text>
    </g>
   </g>
   <g id="text_10">
    <g clip-path="url(#pc554e67f7a)">
     <text style="font-size: 8.2px; font-family: 'DejaVu Sans', 'Bitstream Vera Sans', 'Computer Modern Sans Serif', 'Lucida Grande', 'Verdana', 'Geneva', 'Lucid', 'Arial', 'Helvetica', 'Avant Garde', sans-serif; text-anchor: middle; fill: #111827" x="419.070732" y="348.869779" transform="rotate(-0 419.070732 348.869779)">old</text>
    </g>
   </g>
   <g id="text_11">
    <g clip-path="url(#pc554e67f7a)">
     <text style="font-size: 8.2px; font-family: 'DejaVu Sans', 'Bitstream Vera Sans', 'Computer Modern Sans Serif', 'Lucida Grande', 'Verdana', 'Geneva', 'Lucid', 'Arial', 'Helvetica', 'Avant Garde', sans-serif; text-anchor: middle; fill: #111827" x="343.9464" y="373.615191" transform="rotate(-0 343.9464 373.615191)">great</text>
    </g>
   </g>
   <g id="text_12">
    <g clip-path="url(#pc554e67f7a)">
     <text style="font-size: 8.2px; font-family: 'DejaVu Sans', 'Bitstream Vera Sans', 'Computer Modern Sans Serif', 'Lucida Grande', 'Verdana', 'Geneva', 'Lucid', 'Arial', 'Helvetica', 'Avant Garde', sans-serif; text-anchor: middle; fill: #111827" x="425.738017" y="279.255658" transform="rotate(-0 425.738017 279.255658)">godlike</text>
    </g>
   </g>
   <g id="text_13">
    <g clip-path="url(#pc554e67f7a)">
     <text style="font-size: 8.2px; font-family: 'DejaVu Sans', 'Bitstream Vera Sans', 'Computer Modern Sans Serif', 'Lucida Grande', 'Verdana', 'Geneva', 'Lucid', 'Arial', 'Helvetica', 'Avant Garde', sans-serif; text-anchor: middle; fill: #111827" x="431.068583" y="269.860013" transform="rotate(-0 431.068583 269.860013)">glad</text>
    </g>
   </g>
   <g id="text_14">
    <g clip-path="url(#pc554e67f7a)">
     <text style="font-size: 8.2px; font-family: 'DejaVu Sans', 'Bitstream Vera Sans', 'Computer Modern Sans Serif', 'Lucida Grande', 'Verdana', 'Geneva', 'Lucid', 'Arial', 'Helvetica', 'Avant Garde', sans-serif; text-anchor: middle; fill: #111827" x="400.498284" y="542.511233" transform="rotate(-0 400.498284 542.511233)">black</text>
    </g>
   </g>
   <g id="text_15">
    <g clip-path="url(#pc554e67f7a)">
     <text style="font-size: 8.2px; font-family: 'DejaVu Sans', 'Bitstream Vera Sans', 'Computer Modern Sans Serif', 'Lucida Grande', 'Verdana', 'Geneva', 'Lucid', 'Arial', 'Helvetica', 'Avant Garde', sans-serif; text-anchor: middle; fill: #111827" x="343.498346" y="374.500501" transform="rotate(-0 343.498346 374.500501)">wise</text>
    </g>
   </g>
   <g id="text_16">
    <g clip-path="url(#pc554e67f7a)">
     <text style="font-size: 8.2px; font-family: 'DejaVu Sans', 'Bitstream Vera Sans', 'Computer Modern Sans Serif', 'Lucida Grande', 'Verdana', 'Geneva', 'Lucid', 'Arial', 'Helvetica', 'Avant Garde', sans-serif; text-anchor: middle; fill: #111827" x="281.89467" y="353.627678" transform="rotate(-0 281.89467 353.627678)">mighty</text>
    </g>
   </g>
   <g id="text_17">
    <g clip-path="url(#pc554e67f7a)">
     <text style="font-size: 8.2px; font-family: 'DejaVu Sans', 'Bitstream Vera Sans', 'Computer Modern Sans Serif', 'Lucida Grande', 'Verdana', 'Geneva', 'Lucid', 'Arial', 'Helvetica', 'Avant Garde', sans-serif; text-anchor: middle; fill: #111827" x="263.428922" y="521.219524" transform="rotate(-0 263.428922 521.219524)">deep</text>
    </g>
   </g>
  </g>
  <g id="axes_2">
   <g id="LineCollection_2">
    <path d="M 954.91755 506.033253
L 1072.169328 505.308281
" clip-path="url(#p26d755cbce)" style="fill: none; stroke: #64748b; stroke-width: 0.65"/>
    <path d="M 953.432804 428.841137
L 1072.169328 505.308281
" clip-path="url(#p26d755cbce)" style="fill: none; stroke: #64748b; stroke-width: 0.65"/>
    <path d="M 1133.965654 565.016629
L 1072.169328 505.308281
" clip-path="url(#p26d755cbce)" style="fill: none; stroke: #64748b; stroke-width: 0.65"/>
    <path d="M 936.090681 397.258609
L 1072.169328 505.308281
" clip-path="url(#p26d755cbce)" style="fill: none; stroke: #64748b; stroke-width: 0.65"/>
    <path d="M 1043.044041 345.595262
L 1072.169328 505.308281
" clip-path="url(#p26d755cbce)" style="fill: none; stroke: #64748b; stroke-width: 0.65"/>
    <path d="M 996.629417 656.178117
L 1072.169328 505.308281
" clip-path="url(#p26d755cbce)" style="fill: none; stroke: #64748b; stroke-width: 0.65"/>
    <path d="M 982.880537 393.149003
L 1072.169328 505.308281
" clip-path="url(#p26d755cbce)" style="fill: none; stroke: #64748b; stroke-width: 0.65"/>
    <path d="M 1119.652728 620.545637
L 1072.169328 505.308281
" clip-path="url(#p26d755cbce)" style="fill: none; stroke: #64748b; stroke-width: 0.65"/>
    <path d="M 1089.7257 378.159835
L 1072.169328 505.308281
" clip-path="url(#p26d755cbce)" style="fill: none; stroke: #64748b; stroke-width: 0.65"/>
    <path d="M 1085.029664 542.975331
L 1072.169328 505.308281
" clip-path="url(#p26d755cbce)" style="fill: none; stroke: #64748b; stroke-width: 0.65"/>
    <path d="M 1115.25394 416.634481
L 1072.169328 505.308281
" clip-path="url(#p26d755cbce)" style="fill: none; stroke: #64748b; stroke-width: 0.65"/>
    <path d="M 1129.833682 463.800253
L 1072.169328 505.308281
" clip-path="url(#p26d755cbce)" style="fill: none; stroke: #64748b; stroke-width: 0.65"/>
    <path d="M 1001.537534 514.830906
L 1072.169328 505.308281
" clip-path="url(#p26d755cbce)" style="fill: none; stroke: #64748b; stroke-width: 0.65"/>
    <path d="M 971.133528 561.072077
L 1072.169328 505.308281
" clip-path="url(#p26d755cbce)" style="fill: none; stroke: #64748b; stroke-width: 0.65"/>
    <path d="M 1135.732879 505.775166
L 1072.169328 505.308281
" clip-path="url(#p26d755cbce)" style="fill: none; stroke: #64748b; stroke-width: 0.65"/>
    <path d="M 1036.696577 445.421932
L 1072.169328 505.308281
" clip-path="url(#p26d755cbce)" style="fill: none; stroke: #64748b; stroke-width: 0.65"/>
    <path d="M 1035.3561 497.644816
L 1072.169328 505.308281
" clip-path="url(#p26d755cbce)" style="fill: none; stroke: #64748b; stroke-width: 0.65"/>
    <path d="M 910.723271 448.878213
L 1017.278455 399.099963
" clip-path="url(#p26d755cbce)" style="fill: none; stroke: #64748b; stroke-width: 0.65"/>
    <path d="M 1048.553153 272.610931
L 1017.278455 399.099963
" clip-path="url(#p26d755cbce)" style="fill: none; stroke: #64748b; stroke-width: 0.65"/>
    <path d="M 953.432804 428.841137
L 1017.278455 399.099963
" clip-path="url(#p26d755cbce)" style="fill: none; stroke: #64748b; stroke-width: 0.65"/>
    <path d="M 954.91755 506.033253
L 1017.278455 399.099963
" clip-path="url(#p26d755cbce)" style="fill: none; stroke: #64748b; stroke-width: 0.65"/>
    <path d="M 936.090681 397.258609
L 1017.278455 399.099963
" clip-path="url(#p26d755cbce)" style="fill: none; stroke: #64748b; stroke-width: 0.65"/>
    <path d="M 982.880537 393.149003
L 1017.278455 399.099963
" clip-path="url(#p26d755cbce)" style="fill: none; stroke: #64748b; stroke-width: 0.65"/>
    <path d="M 1089.7257 378.159835
L 1017.278455 399.099963
" clip-path="url(#p26d755cbce)" style="fill: none; stroke: #64748b; stroke-width: 0.65"/>
    <path d="M 1006.343361 596.52528
L 1017.278455 399.099963
" clip-path="url(#p26d755cbce)" style="fill: none; stroke: #64748b; stroke-width: 0.65"/>
    <path d="M 999.151611 306.862734
L 1017.278455 399.099963
" clip-path="url(#p26d755cbce)" style="fill: none; stroke: #64748b; stroke-width: 0.65"/>
    <path d="M 1185.294891 428.111754
L 1017.278455 399.099963
" clip-path="url(#p26d755cbce)" style="fill: none; stroke: #64748b; stroke-width: 0.65"/>
    <path d="M 1115.25394 416.634481
L 1017.278455 399.099963
" clip-path="url(#p26d755cbce)" style="fill: none; stroke: #64748b; stroke-width: 0.65"/>
    <path d="M 1129.833682 463.800253
L 1017.278455 399.099963
" clip-path="url(#p26d755cbce)" style="fill: none; stroke: #64748b; stroke-width: 0.65"/>
    <path d="M 1107.219567 258.130676
L 1017.278455 399.099963
" clip-path="url(#p26d755cbce)" style="fill: none; stroke: #64748b; stroke-width: 0.65"/>
    <path d="M 1001.537534 514.830906
L 1017.278455 399.099963
" clip-path="url(#p26d755cbce)" style="fill: none; stroke: #64748b; stroke-width: 0.65"/>
    <path d="M 828.867977 422.961986
L 1017.278455 399.099963
" clip-path="url(#p26d755cbce)" style="fill: none; stroke: #64748b; stroke-width: 0.65"/>
    <path d="M 1036.696577 445.421932
L 1017.278455 399.099963
" clip-path="url(#p26d755cbce)" style="fill: none; stroke: #64748b; stroke-width: 0.65"/>
    <path d="M 924.372808 556.449821
L 1017.278455 399.099963
" clip-path="url(#p26d755cbce)" style="fill: none; stroke: #64748b; stroke-width: 0.65"/>
    <path d="M 964.98322 248.07943
L 1017.278455 399.099963
" clip-path="url(#p26d755cbce)" style="fill: none; stroke: #64748b; stroke-width: 0.65"/>
    <path d="M 1035.3561 497.644816
L 1017.278455 399.099963
" clip-path="url(#p26d755cbce)" style="fill: none; stroke: #64748b; stroke-width: 0.65"/>
    <path d="M 910.723271 448.878213
L 1074.158894 452.013853
" clip-path="url(#p26d755cbce)" style="fill: none; stroke: #64748b; stroke-width: 0.65"/>
    <path d="M 953.432804 428.841137
L 1074.158894 452.013853
" clip-path="url(#p26d755cbce)" style="fill: none; stroke: #64748b; stroke-width: 0.65"/>
    <path d="M 954.91755 506.033253
L 1074.158894 452.013853
" clip-path="url(#p26d755cbce)" style="fill: none; stroke: #64748b; stroke-width: 0.65"/>
    <path d="M 1133.965654 565.016629
L 1074.158894 452.013853
" clip-path="url(#p26d755cbce)" style="fill: none; stroke: #64748b; stroke-width: 0.65"/>
    <path d="M 936.090681 397.258609
L 1074.158894 452.013853
" clip-path="url(#p26d755cbce)" style="fill: none; stroke: #64748b; stroke-width: 0.65"/>
    <path d="M 982.880537 393.149003
L 1074.158894 452.013853
" clip-path="url(#p26d755cbce)" style="fill: none; stroke: #64748b; stroke-width: 0.65"/>
    <path d="M 1119.652728 620.545637
L 1074.158894 452.013853
" clip-path="url(#p26d755cbce)" style="fill: none; stroke: #64748b; stroke-width: 0.65"/>
    <path d="M 1089.7257 378.159835
L 1074.158894 452.013853
" clip-path="url(#p26d755cbce)" style="fill: none; stroke: #64748b; stroke-width: 0.65"/>
    <path d="M 1006.343361 596.52528
L 1074.158894 452.013853
" clip-path="url(#p26d755cbce)" style="fill: none; stroke: #64748b; stroke-width: 0.65"/>
    <path d="M 1085.029664 542.975331
L 1074.158894 452.013853
" clip-path="url(#p26d755cbce)" style="fill: none; stroke: #64748b; stroke-width: 0.65"/>
    <path d="M 1185.294891 428.111754
L 1074.158894 452.013853
" clip-path="url(#p26d755cbce)" style="fill: none; stroke: #64748b; stroke-width: 0.65"/>
    <path d="M 1115.25394 416.634481
L 1074.158894 452.013853
" clip-path="url(#p26d755cbce)" style="fill: none; stroke: #64748b; stroke-width: 0.65"/>
    <path d="M 1107.219567 258.130676
L 1074.158894 452.013853
" clip-path="url(#p26d755cbce)" style="fill: none; stroke: #64748b; stroke-width: 0.65"/>
    <path d="M 1001.537534 514.830906
L 1074.158894 452.013853
" clip-path="url(#p26d755cbce)" style="fill: none; stroke: #64748b; stroke-width: 0.65"/>
    <path d="M 1135.732879 505.775166
L 1074.158894 452.013853
" clip-path="url(#p26d755cbce)" style="fill: none; stroke: #64748b; stroke-width: 0.65"/>
    <path d="M 867.585523 372.176346
L 1074.158894 452.013853
" clip-path="url(#p26d755cbce)" style="fill: none; stroke: #64748b; stroke-width: 0.65"/>
    <path d="M 1036.696577 445.421932
L 1074.158894 452.013853
" clip-path="url(#p26d755cbce)" style="fill: none; stroke: #64748b; stroke-width: 0.65"/>
    <path d="M 924.372808 556.449821
L 1074.158894 452.013853
" clip-path="url(#p26d755cbce)" style="fill: none; stroke: #64748b; stroke-width: 0.65"/>
    <path d="M 1035.3561 497.644816
L 1074.158894 452.013853
" clip-path="url(#p26d755cbce)" style="fill: none; stroke: #64748b; stroke-width: 0.65"/>
    <path d="M 1242.932023 323.888494
L 1074.158894 452.013853
" clip-path="url(#p26d755cbce)" style="fill: none; stroke: #64748b; stroke-width: 0.65"/>
    <path d="M 910.723271 448.878213
L 999.004849 470.100663
" clip-path="url(#p26d755cbce)" style="fill: none; stroke: #64748b; stroke-width: 0.65"/>
    <path d="M 1048.553153 272.610931
L 999.004849 470.100663
" clip-path="url(#p26d755cbce)" style="fill: none; stroke: #64748b; stroke-width: 0.65"/>
    <path d="M 932.1332 319.508393
L 999.004849 470.100663
" clip-path="url(#p26d755cbce)" style="fill: none; stroke: #64748b; stroke-width: 0.65"/>
    <path d="M 953.432804 428.841137
L 999.004849 470.100663
" clip-path="url(#p26d755cbce)" style="fill: none; stroke: #64748b; stroke-width: 0.65"/>
    <path d="M 954.91755 506.033253
L 999.004849 470.100663
" clip-path="url(#p26d755cbce)" style="fill: none; stroke: #64748b; stroke-width: 0.65"/>
    <path d="M 1133.965654 565.016629
L 999.004849 470.100663
" clip-path="url(#p26d755cbce)" style="fill: none; stroke: #64748b; stroke-width: 0.65"/>
    <path d="M 936.090681 397.258609
L 999.004849 470.100663
" clip-path="url(#p26d755cbce)" style="fill: none; stroke: #64748b; stroke-width: 0.65"/>
    <path d="M 1043.044041 345.595262
L 999.004849 470.100663
" clip-path="url(#p26d755cbce)" style="fill: none; stroke: #64748b; stroke-width: 0.65"/>
    <path d="M 982.880537 393.149003
L 999.004849 470.100663
" clip-path="url(#p26d755cbce)" style="fill: none; stroke: #64748b; stroke-width: 0.65"/>
    <path d="M 1119.652728 620.545637
L 999.004849 470.100663
" clip-path="url(#p26d755cbce)" style="fill: none; stroke: #64748b; stroke-width: 0.65"/>
    <path d="M 1089.7257 378.159835
L 999.004849 470.100663
" clip-path="url(#p26d755cbce)" style="fill: none; stroke: #64748b; stroke-width: 0.65"/>
    <path d="M 1006.343361 596.52528
L 999.004849 470.100663
" clip-path="url(#p26d755cbce)" style="fill: none; stroke: #64748b; stroke-width: 0.65"/>
    <path d="M 1085.029664 542.975331
L 999.004849 470.100663
" clip-path="url(#p26d755cbce)" style="fill: none; stroke: #64748b; stroke-width: 0.65"/>
    <path d="M 999.151611 306.862734
L 999.004849 470.100663
" clip-path="url(#p26d755cbce)" style="fill: none; stroke: #64748b; stroke-width: 0.65"/>
    <path d="M 905.806372 608.399959
L 999.004849 470.100663
" clip-path="url(#p26d755cbce)" style="fill: none; stroke: #64748b; stroke-width: 0.65"/>
    <path d="M 1185.294891 428.111754
L 999.004849 470.100663
" clip-path="url(#p26d755cbce)" style="fill: none; stroke: #64748b; stroke-width: 0.65"/>
    <path d="M 1115.25394 416.634481
L 999.004849 470.100663
" clip-path="url(#p26d755cbce)" style="fill: none; stroke: #64748b; stroke-width: 0.65"/>
    <path d="M 1129.833682 463.800253
L 999.004849 470.100663
" clip-path="url(#p26d755cbce)" style="fill: none; stroke: #64748b; stroke-width: 0.65"/>
    <path d="M 1001.537534 514.830906
L 999.004849 470.100663
" clip-path="url(#p26d755cbce)" style="fill: none; stroke: #64748b; stroke-width: 0.65"/>
    <path d="M 838.497492 574.78464
L 999.004849 470.100663
" clip-path="url(#p26d755cbce)" style="fill: none; stroke: #64748b; stroke-width: 0.65"/>
    <path d="M 971.133528 561.072077
L 999.004849 470.100663
" clip-path="url(#p26d755cbce)" style="fill: none; stroke: #64748b; stroke-width: 0.65"/>
    <path d="M 844.691557 491.759873
L 999.004849 470.100663
" clip-path="url(#p26d755cbce)" style="fill: none; stroke: #64748b; stroke-width: 0.65"/>
    <path d="M 828.867977 422.961986
L 999.004849 470.100663
" clip-path="url(#p26d755cbce)" style="fill: none; stroke: #64748b; stroke-width: 0.65"/>
    <path d="M 1135.732879 505.775166
L 999.004849 470.100663
" clip-path="url(#p26d755cbce)" style="fill: none; stroke: #64748b; stroke-width: 0.65"/>
    <path d="M 878.118398 407.272801
L 999.004849 470.100663
" clip-path="url(#p26d755cbce)" style="fill: none; stroke: #64748b; stroke-width: 0.65"/>
    <path d="M 867.585523 372.176346
L 999.004849 470.100663
" clip-path="url(#p26d755cbce)" style="fill: none; stroke: #64748b; stroke-width: 0.65"/>
    <path d="M 1035.3561 497.644816
L 999.004849 470.100663
" clip-path="url(#p26d755cbce)" style="fill: none; stroke: #64748b; stroke-width: 0.65"/>
    <path d="M 1036.696577 445.421932
L 999.004849 470.100663
" clip-path="url(#p26d755cbce)" style="fill: none; stroke: #64748b; stroke-width: 0.65"/>
    <path d="M 924.372808 556.449821
L 999.004849 470.100663
" clip-path="url(#p26d755cbce)" style="fill: none; stroke: #64748b; stroke-width: 0.65"/>
    <path d="M 996.629417 656.178117
L 999.004849 470.100663
" clip-path="url(#p26d755cbce)" style="fill: none; stroke: #64748b; stroke-width: 0.65"/>
    <path d="M 1001.537534 514.830906
L 1013.593622 568.832895
" clip-path="url(#p26d755cbce)" style="fill: none; stroke: #64748b; stroke-width: 0.65"/>
    <path d="M 910.723271 448.878213
L 1013.593622 568.832895
" clip-path="url(#p26d755cbce)" style="fill: none; stroke: #64748b; stroke-width: 0.65"/>
    <path d="M 844.691557 491.759873
L 1013.593622 568.832895
" clip-path="url(#p26d755cbce)" style="fill: none; stroke: #64748b; stroke-width: 0.65"/>
    <path d="M 954.91755 506.033253
L 1013.593622 568.832895
" clip-path="url(#p26d755cbce)" style="fill: none; stroke: #64748b; stroke-width: 0.65"/>
    <path d="M 953.432804 428.841137
L 1013.593622 568.832895
" clip-path="url(#p26d755cbce)" style="fill: none; stroke: #64748b; stroke-width: 0.65"/>
    <path d="M 1135.732879 505.775166
L 1013.593622 568.832895
" clip-path="url(#p26d755cbce)" style="fill: none; stroke: #64748b; stroke-width: 0.65"/>
    <path d="M 982.880537 393.149003
L 1013.593622 568.832895
" clip-path="url(#p26d755cbce)" style="fill: none; stroke: #64748b; stroke-width: 0.65"/>
    <path d="M 1035.3561 497.644816
L 1013.593622 568.832895
" clip-path="url(#p26d755cbce)" style="fill: none; stroke: #64748b; stroke-width: 0.65"/>
    <path d="M 1036.696577 445.421932
L 1013.593622 568.832895
" clip-path="url(#p26d755cbce)" style="fill: none; stroke: #64748b; stroke-width: 0.65"/>
    <path d="M 905.806372 608.399959
L 1013.593622 568.832895
" clip-path="url(#p26d755cbce)" style="fill: none; stroke: #64748b; stroke-width: 0.65"/>
    <path d="M 924.372808 556.449821
L 1013.593622 568.832895
" clip-path="url(#p26d755cbce)" style="fill: none; stroke: #64748b; stroke-width: 0.65"/>
    <path d="M 1006.343361 596.52528
L 1013.593622 568.832895
" clip-path="url(#p26d755cbce)" style="fill: none; stroke: #64748b; stroke-width: 0.65"/>
    <path d="M 1085.029664 542.975331
L 1013.593622 568.832895
" clip-path="url(#p26d755cbce)" style="fill: none; stroke: #64748b; stroke-width: 0.65"/>
    <path d="M 996.629417 656.178117
L 1013.593622 568.832895
" clip-path="url(#p26d755cbce)" style="fill: none; stroke: #64748b; stroke-width: 0.65"/>
    <path d="M 1129.833682 463.800253
L 1013.593622 568.832895
" clip-path="url(#p26d755cbce)" style="fill: none; stroke: #64748b; stroke-width: 0.65"/>
    <path d="M 1001.537534 514.830906
L 878.112292 523.237676
" clip-path="url(#p26d755cbce)" style="fill: none; stroke: #64748b; stroke-width: 0.65"/>
    <path d="M 910.723271 448.878213
L 878.112292 523.237676
" clip-path="url(#p26d755cbce)" style="fill: none; stroke: #64748b; stroke-width: 0.65"/>
    <path d="M 971.133528 561.072077
L 878.112292 523.237676
" clip-path="url(#p26d755cbce)" style="fill: none; stroke: #64748b; stroke-width: 0.65"/>
    <path d="M 844.691557 491.759873
L 878.112292 523.237676
" clip-path="url(#p26d755cbce)" style="fill: none; stroke: #64748b; stroke-width: 0.65"/>
    <path d="M 954.91755 506.033253
L 878.112292 523.237676
" clip-path="url(#p26d755cbce)" style="fill: none; stroke: #64748b; stroke-width: 0.65"/>
    <path d="M 953.432804 428.841137
L 878.112292 523.237676
" clip-path="url(#p26d755cbce)" style="fill: none; stroke: #64748b; stroke-width: 0.65"/>
    <path d="M 936.090681 397.258609
L 878.112292 523.237676
" clip-path="url(#p26d755cbce)" style="fill: none; stroke: #64748b; stroke-width: 0.65"/>
    <path d="M 878.118398 407.272801
L 878.112292 523.237676
" clip-path="url(#p26d755cbce)" style="fill: none; stroke: #64748b; stroke-width: 0.65"/>
    <path d="M 867.585523 372.176346
L 878.112292 523.237676
" clip-path="url(#p26d755cbce)" style="fill: none; stroke: #64748b; stroke-width: 0.65"/>
    <path d="M 982.880537 393.149003
L 878.112292 523.237676
" clip-path="url(#p26d755cbce)" style="fill: none; stroke: #64748b; stroke-width: 0.65"/>
    <path d="M 1035.3561 497.644816
L 878.112292 523.237676
" clip-path="url(#p26d755cbce)" style="fill: none; stroke: #64748b; stroke-width: 0.65"/>
    <path d="M 1036.696577 445.421932
L 878.112292 523.237676
" clip-path="url(#p26d755cbce)" style="fill: none; stroke: #64748b; stroke-width: 0.65"/>
    <path d="M 905.806372 608.399959
L 878.112292 523.237676
" clip-path="url(#p26d755cbce)" style="fill: none; stroke: #64748b; stroke-width: 0.65"/>
    <path d="M 924.372808 556.449821
L 878.112292 523.237676
" clip-path="url(#p26d755cbce)" style="fill: none; stroke: #64748b; stroke-width: 0.65"/>
    <path d="M 996.629417 656.178117
L 878.112292 523.237676
" clip-path="url(#p26d755cbce)" style="fill: none; stroke: #64748b; stroke-width: 0.65"/>
    <path d="M 910.723271 448.878213
L 1049.648894 386.05877
" clip-path="url(#p26d755cbce)" style="fill: none; stroke: #64748b; stroke-width: 0.65"/>
    <path d="M 1195.160594 191.581883
L 1049.648894 386.05877
" clip-path="url(#p26d755cbce)" style="fill: none; stroke: #64748b; stroke-width: 0.65"/>
    <path d="M 932.1332 319.508393
L 1049.648894 386.05877
" clip-path="url(#p26d755cbce)" style="fill: none; stroke: #64748b; stroke-width: 0.65"/>
    <path d="M 953.432804 428.841137
L 1049.648894 386.05877
" clip-path="url(#p26d755cbce)" style="fill: none; stroke: #64748b; stroke-width: 0.65"/>
    <path d="M 954.91755 506.033253
L 1049.648894 386.05877
" clip-path="url(#p26d755cbce)" style="fill: none; stroke: #64748b; stroke-width: 0.65"/>
    <path d="M 936.090681 397.258609
L 1049.648894 386.05877
" clip-path="url(#p26d755cbce)" style="fill: none; stroke: #64748b; stroke-width: 0.65"/>
    <path d="M 1043.044041 345.595262
L 1049.648894 386.05877
" clip-path="url(#p26d755cbce)" style="fill: none; stroke: #64748b; stroke-width: 0.65"/>
    <path d="M 982.880537 393.149003
L 1049.648894 386.05877
" clip-path="url(#p26d755cbce)" style="fill: none; stroke: #64748b; stroke-width: 0.65"/>
    <path d="M 1085.029664 542.975331
L 1049.648894 386.05877
" clip-path="url(#p26d755cbce)" style="fill: none; stroke: #64748b; stroke-width: 0.65"/>
    <path d="M 999.151611 306.862734
L 1049.648894 386.05877
" clip-path="url(#p26d755cbce)" style="fill: none; stroke: #64748b; stroke-width: 0.65"/>
    <path d="M 1115.25394 416.634481
L 1049.648894 386.05877
" clip-path="url(#p26d755cbce)" style="fill: none; stroke: #64748b; stroke-width: 0.65"/>
    <path d="M 1129.833682 463.800253
L 1049.648894 386.05877
" clip-path="url(#p26d755cbce)" style="fill: none; stroke: #64748b; stroke-width: 0.65"/>
    <path d="M 1107.219567 258.130676
L 1049.648894 386.05877
" clip-path="url(#p26d755cbce)" style="fill: none; stroke: #64748b; stroke-width: 0.65"/>
    <path d="M 1001.537534 514.830906
L 1049.648894 386.05877
" clip-path="url(#p26d755cbce)" style="fill: none; stroke: #64748b; stroke-width: 0.65"/>
    <path d="M 971.133528 561.072077
L 1049.648894 386.05877
" clip-path="url(#p26d755cbce)" style="fill: none; stroke: #64748b; stroke-width: 0.65"/>
    <path d="M 1135.732879 505.775166
L 1049.648894 386.05877
" clip-path="url(#p26d755cbce)" style="fill: none; stroke: #64748b; stroke-width: 0.65"/>
    <path d="M 878.118398 407.272801
L 1049.648894 386.05877
" clip-path="url(#p26d755cbce)" style="fill: none; stroke: #64748b; stroke-width: 0.65"/>
    <path d="M 1036.696577 445.421932
L 1049.648894 386.05877
" clip-path="url(#p26d755cbce)" style="fill: none; stroke: #64748b; stroke-width: 0.65"/>
    <path d="M 964.98322 248.07943
L 1049.648894 386.05877
" clip-path="url(#p26d755cbce)" style="fill: none; stroke: #64748b; stroke-width: 0.65"/>
    <path d="M 1035.3561 497.644816
L 1049.648894 386.05877
" clip-path="url(#p26d755cbce)" style="fill: none; stroke: #64748b; stroke-width: 0.65"/>
    <path d="M 1242.932023 323.888494
L 1049.648894 386.05877
" clip-path="url(#p26d755cbce)" style="fill: none; stroke: #64748b; stroke-width: 0.65"/>
    <path d="M 1001.537534 514.830906
L 944.47115 350.010362
" clip-path="url(#p26d755cbce)" style="fill: none; stroke: #64748b; stroke-width: 0.65"/>
    <path d="M 910.723271 448.878213
L 944.47115 350.010362
" clip-path="url(#p26d755cbce)" style="fill: none; stroke: #64748b; stroke-width: 0.65"/>
    <path d="M 932.1332 319.508393
L 944.47115 350.010362
" clip-path="url(#p26d755cbce)" style="fill: none; stroke: #64748b; stroke-width: 0.65"/>
    <path d="M 844.691557 491.759873
L 944.47115 350.010362
" clip-path="url(#p26d755cbce)" style="fill: none; stroke: #64748b; stroke-width: 0.65"/>
    <path d="M 954.91755 506.033253
L 944.47115 350.010362
" clip-path="url(#p26d755cbce)" style="fill: none; stroke: #64748b; stroke-width: 0.65"/>
    <path d="M 953.432804 428.841137
L 944.47115 350.010362
" clip-path="url(#p26d755cbce)" style="fill: none; stroke: #64748b; stroke-width: 0.65"/>
    <path d="M 878.118398 407.272801
L 944.47115 350.010362
" clip-path="url(#p26d755cbce)" style="fill: none; stroke: #64748b; stroke-width: 0.65"/>
    <path d="M 867.585523 372.176346
L 944.47115 350.010362
" clip-path="url(#p26d755cbce)" style="fill: none; stroke: #64748b; stroke-width: 0.65"/>
    <path d="M 1043.044041 345.595262
L 944.47115 350.010362
" clip-path="url(#p26d755cbce)" style="fill: none; stroke: #64748b; stroke-width: 0.65"/>
    <path d="M 982.880537 393.149003
L 944.47115 350.010362
" clip-path="url(#p26d755cbce)" style="fill: none; stroke: #64748b; stroke-width: 0.65"/>
    <path d="M 1089.7257 378.159835
L 944.47115 350.010362
" clip-path="url(#p26d755cbce)" style="fill: none; stroke: #64748b; stroke-width: 0.65"/>
    <path d="M 1036.696577 445.421932
L 944.47115 350.010362
" clip-path="url(#p26d755cbce)" style="fill: none; stroke: #64748b; stroke-width: 0.65"/>
    <path d="M 964.98322 248.07943
L 944.47115 350.010362
" clip-path="url(#p26d755cbce)" style="fill: none; stroke: #64748b; stroke-width: 0.65"/>
    <path d="M 1035.3561 497.644816
L 944.47115 350.010362
" clip-path="url(#p26d755cbce)" style="fill: none; stroke: #64748b; stroke-width: 0.65"/>
    <path d="M 1107.219567 258.130676
L 944.47115 350.010362
" clip-path="url(#p26d755cbce)" style="fill: none; stroke: #64748b; stroke-width: 0.65"/>
    <path d="M 910.723271 448.878213
L 951.279198 476.145238
" clip-path="url(#p26d755cbce)" style="fill: none; stroke: #64748b; stroke-width: 0.65"/>
    <path d="M 932.1332 319.508393
L 951.279198 476.145238
" clip-path="url(#p26d755cbce)" style="fill: none; stroke: #64748b; stroke-width: 0.65"/>
    <path d="M 954.91755 506.033253
L 951.279198 476.145238
" clip-path="url(#p26d755cbce)" style="fill: none; stroke: #64748b; stroke-width: 0.65"/>
    <path d="M 953.432804 428.841137
L 951.279198 476.145238
" clip-path="url(#p26d755cbce)" style="fill: none; stroke: #64748b; stroke-width: 0.65"/>
    <path d="M 936.090681 397.258609
L 951.279198 476.145238
" clip-path="url(#p26d755cbce)" style="fill: none; stroke: #64748b; stroke-width: 0.65"/>
    <path d="M 1043.044041 345.595262
L 951.279198 476.145238
" clip-path="url(#p26d755cbce)" style="fill: none; stroke: #64748b; stroke-width: 0.65"/>
    <path d="M 1089.7257 378.159835
L 951.279198 476.145238
" clip-path="url(#p26d755cbce)" style="fill: none; stroke: #64748b; stroke-width: 0.65"/>
    <path d="M 1006.343361 596.52528
L 951.279198 476.145238
" clip-path="url(#p26d755cbce)" style="fill: none; stroke: #64748b; stroke-width: 0.65"/>
    <path d="M 1085.029664 542.975331
L 951.279198 476.145238
" clip-path="url(#p26d755cbce)" style="fill: none; stroke: #64748b; stroke-width: 0.65"/>
    <path d="M 905.806372 608.399959
L 951.279198 476.145238
" clip-path="url(#p26d755cbce)" style="fill: none; stroke: #64748b; stroke-width: 0.65"/>
    <path d="M 1115.25394 416.634481
L 951.279198 476.145238
" clip-path="url(#p26d755cbce)" style="fill: none; stroke: #64748b; stroke-width: 0.65"/>
    <path d="M 1001.537534 514.830906
L 951.279198 476.145238
" clip-path="url(#p26d755cbce)" style="fill: none; stroke: #64748b; stroke-width: 0.65"/>
    <path d="M 971.133528 561.072077
L 951.279198 476.145238
" clip-path="url(#p26d755cbce)" style="fill: none; stroke: #64748b; stroke-width: 0.65"/>
    <path d="M 844.691557 491.759873
L 951.279198 476.145238
" clip-path="url(#p26d755cbce)" style="fill: none; stroke: #64748b; stroke-width: 0.65"/>
    <path d="M 878.118398 407.272801
L 951.279198 476.145238
" clip-path="url(#p26d755cbce)" style="fill: none; stroke: #64748b; stroke-width: 0.65"/>
    <path d="M 1036.696577 445.421932
L 951.279198 476.145238
" clip-path="url(#p26d755cbce)" style="fill: none; stroke: #64748b; stroke-width: 0.65"/>
    <path d="M 924.372808 556.449821
L 951.279198 476.145238
" clip-path="url(#p26d755cbce)" style="fill: none; stroke: #64748b; stroke-width: 0.65"/>
    <path d="M 1035.3561 497.644816
L 951.279198 476.145238
" clip-path="url(#p26d755cbce)" style="fill: none; stroke: #64748b; stroke-width: 0.65"/>
    <path d="M 910.723271 448.878213
L 979.602314 453.376858
" clip-path="url(#p26d755cbce)" style="fill: none; stroke: #64748b; stroke-width: 0.65"/>
    <path d="M 932.1332 319.508393
L 979.602314 453.376858
" clip-path="url(#p26d755cbce)" style="fill: none; stroke: #64748b; stroke-width: 0.65"/>
    <path d="M 953.432804 428.841137
L 979.602314 453.376858
" clip-path="url(#p26d755cbce)" style="fill: none; stroke: #64748b; stroke-width: 0.65"/>
    <path d="M 954.91755 506.033253
L 979.602314 453.376858
" clip-path="url(#p26d755cbce)" style="fill: none; stroke: #64748b; stroke-width: 0.65"/>
    <path d="M 1133.965654 565.016629
L 979.602314 453.376858
" clip-path="url(#p26d755cbce)" style="fill: none; stroke: #64748b; stroke-width: 0.65"/>
    <path d="M 936.090681 397.258609
L 979.602314 453.376858
" clip-path="url(#p26d755cbce)" style="fill: none; stroke: #64748b; stroke-width: 0.65"/>
    <path d="M 1043.044041 345.595262
L 979.602314 453.376858
" clip-path="url(#p26d755cbce)" style="fill: none; stroke: #64748b; stroke-width: 0.65"/>
    <path d="M 982.880537 393.149003
L 979.602314 453.376858
" clip-path="url(#p26d755cbce)" style="fill: none; stroke: #64748b; stroke-width: 0.65"/>
    <path d="M 1089.7257 378.159835
L 979.602314 453.376858
" clip-path="url(#p26d755cbce)" style="fill: none; stroke: #64748b; stroke-width: 0.65"/>
    <path d="M 1006.343361 596.52528
L 979.602314 453.376858
" clip-path="url(#p26d755cbce)" style="fill: none; stroke: #64748b; stroke-width: 0.65"/>
    <path d="M 1085.029664 542.975331
L 979.602314 453.376858
" clip-path="url(#p26d755cbce)" style="fill: none; stroke: #64748b; stroke-width: 0.65"/>
    <path d="M 999.151611 306.862734
L 979.602314 453.376858
" clip-path="url(#p26d755cbce)" style="fill: none; stroke: #64748b; stroke-width: 0.65"/>
    <path d="M 905.806372 608.399959
L 979.602314 453.376858
" clip-path="url(#p26d755cbce)" style="fill: none; stroke: #64748b; stroke-width: 0.65"/>
    <path d="M 1115.25394 416.634481
L 979.602314 453.376858
" clip-path="url(#p26d755cbce)" style="fill: none; stroke: #64748b; stroke-width: 0.65"/>
    <path d="M 1129.833682 463.800253
L 979.602314 453.376858
" clip-path="url(#p26d755cbce)" style="fill: none; stroke: #64748b; stroke-width: 0.65"/>
    <path d="M 1001.537534 514.830906
L 979.602314 453.376858
" clip-path="url(#p26d755cbce)" style="fill: none; stroke: #64748b; stroke-width: 0.65"/>
    <path d="M 838.497492 574.78464
L 979.602314 453.376858
" clip-path="url(#p26d755cbce)" style="fill: none; stroke: #64748b; stroke-width: 0.65"/>
    <path d="M 971.133528 561.072077
L 979.602314 453.376858
" clip-path="url(#p26d755cbce)" style="fill: none; stroke: #64748b; stroke-width: 0.65"/>
    <path d="M 844.691557 491.759873
L 979.602314 453.376858
" clip-path="url(#p26d755cbce)" style="fill: none; stroke: #64748b; stroke-width: 0.65"/>
    <path d="M 828.867977 422.961986
L 979.602314 453.376858
" clip-path="url(#p26d755cbce)" style="fill: none; stroke: #64748b; stroke-width: 0.65"/>
    <path d="M 1135.732879 505.775166
L 979.602314 453.376858
" clip-path="url(#p26d755cbce)" style="fill: none; stroke: #64748b; stroke-width: 0.65"/>
    <path d="M 878.118398 407.272801
L 979.602314 453.376858
" clip-path="url(#p26d755cbce)" style="fill: none; stroke: #64748b; stroke-width: 0.65"/>
    <path d="M 867.585523 372.176346
L 979.602314 453.376858
" clip-path="url(#p26d755cbce)" style="fill: none; stroke: #64748b; stroke-width: 0.65"/>
    <path d="M 1036.696577 445.421932
L 979.602314 453.376858
" clip-path="url(#p26d755cbce)" style="fill: none; stroke: #64748b; stroke-width: 0.65"/>
    <path d="M 924.372808 556.449821
L 979.602314 453.376858
" clip-path="url(#p26d755cbce)" style="fill: none; stroke: #64748b; stroke-width: 0.65"/>
    <path d="M 964.98322 248.07943
L 979.602314 453.376858
" clip-path="url(#p26d755cbce)" style="fill: none; stroke: #64748b; stroke-width: 0.65"/>
    <path d="M 1035.3561 497.644816
L 979.602314 453.376858
" clip-path="url(#p26d755cbce)" style="fill: none; stroke: #64748b; stroke-width: 0.65"/>
   </g>
   <g id="PathCollection_2">
    <defs>
     <path id="m7e11591f4b" d="M -6.5 6.5
L 6.5 6.5
L 6.5 -6.5
L -6.5 -6.5
z
" style="stroke: #334155; stroke-width: 0.8"/>
    </defs>
    <g clip-path="url(#p26d755cbce)">
     <use xlink:href="#m7e11591f4b" x="1074.158894" y="452.013853" style="fill: #f59e0b; stroke: #334155; stroke-width: 0.8"/>
     <use xlink:href="#m7e11591f4b" x="999.004849" y="470.100663" style="fill: #f59e0b; stroke: #334155; stroke-width: 0.8"/>
     <use xlink:href="#m7e11591f4b" x="1072.169328" y="505.308281" style="fill: #f59e0b; stroke: #334155; stroke-width: 0.8"/>
     <use xlink:href="#m7e11591f4b" x="979.602314" y="453.376858" style="fill: #f59e0b; stroke: #334155; stroke-width: 0.8"/>
     <use xlink:href="#m7e11591f4b" x="1049.648894" y="386.05877" style="fill: #f59e0b; stroke: #334155; stroke-width: 0.8"/>
     <use xlink:href="#m7e11591f4b" x="1017.278455" y="399.099963" style="fill: #f59e0b; stroke: #334155; stroke-width: 0.8"/>
     <use xlink:href="#m7e11591f4b" x="1013.593622" y="568.832895" style="fill: #f59e0b; stroke: #334155; stroke-width: 0.8"/>
     <use xlink:href="#m7e11591f4b" x="878.112292" y="523.237676" style="fill: #f59e0b; stroke: #334155; stroke-width: 0.8"/>
     <use xlink:href="#m7e11591f4b" x="951.279198" y="476.145238" style="fill: #f59e0b; stroke: #334155; stroke-width: 0.8"/>
     <use xlink:href="#m7e11591f4b" x="944.47115" y="350.010362" style="fill: #f59e0b; stroke: #334155; stroke-width: 0.8"/>
    </g>
   </g>
   <g id="PathCollection_3">
    <defs>
     <path id="md867d47734" d="M 0 5
C 1.326016 5 2.597899 4.473168 3.535534 3.535534
C 4.473168 2.597899 5 1.326016 5 0
C 5 -1.326016 4.473168 -2.597899 3.535534 -3.535534
C 2.597899 -4.473168 1.326016 -5 0 -5
C -1.326016 -5 -2.597899 -4.473168 -3.535534 -3.535534
C -4.473168 -2.597899 -5 -1.326016 -5 0
C -5 1.326016 -4.473168 2.597899 -3.535534 3.535534
C -2.597899 4.473168 -1.326016 5 0 5
z
" style="stroke: #334155; stroke-width: 0.8"/>
    </defs>
    <g clip-path="url(#p26d755cbce)">
     <use xlink:href="#md867d47734" x="1119.652728" y="620.545637" style="fill: #38bdf8; stroke: #334155; stroke-width: 0.8"/>
     <use xlink:href="#md867d47734" x="1133.965654" y="565.016629" style="fill: #38bdf8; stroke: #334155; stroke-width: 0.8"/>
     <use xlink:href="#md867d47734" x="1129.833682" y="463.800253" style="fill: #38bdf8; stroke: #334155; stroke-width: 0.8"/>
     <use xlink:href="#md867d47734" x="996.629417" y="656.178117" style="fill: #38bdf8; stroke: #334155; stroke-width: 0.8"/>
     <use xlink:href="#md867d47734" x="1001.537534" y="514.830906" style="fill: #38bdf8; stroke: #334155; stroke-width: 0.8"/>
     <use xlink:href="#md867d47734" x="1089.7257" y="378.159835" style="fill: #38bdf8; stroke: #334155; stroke-width: 0.8"/>
     <use xlink:href="#md867d47734" x="936.090681" y="397.258609" style="fill: #38bdf8; stroke: #334155; stroke-width: 0.8"/>
     <use xlink:href="#md867d47734" x="1036.696577" y="445.421932" style="fill: #38bdf8; stroke: #334155; stroke-width: 0.8"/>
     <use xlink:href="#md867d47734" x="954.91755" y="506.033253" style="fill: #38bdf8; stroke: #334155; stroke-width: 0.8"/>
     <use xlink:href="#md867d47734" x="953.432804" y="428.841137" style="fill: #38bdf8; stroke: #334155; stroke-width: 0.8"/>
     <use xlink:href="#md867d47734" x="1115.25394" y="416.634481" style="fill: #38bdf8; stroke: #334155; stroke-width: 0.8"/>
     <use xlink:href="#md867d47734" x="982.880537" y="393.149003" style="fill: #38bdf8; stroke: #334155; stroke-width: 0.8"/>
     <use xlink:href="#md867d47734" x="1043.044041" y="345.595262" style="fill: #38bdf8; stroke: #334155; stroke-width: 0.8"/>
     <use xlink:href="#md867d47734" x="971.133528" y="561.072077" style="fill: #38bdf8; stroke: #334155; stroke-width: 0.8"/>
     <use xlink:href="#md867d47734" x="1085.029664" y="542.975331" style="fill: #38bdf8; stroke: #334155; stroke-width: 0.8"/>
     <use xlink:href="#md867d47734" x="1035.3561" y="497.644816" style="fill: #38bdf8; stroke: #334155; stroke-width: 0.8"/>
     <use xlink:href="#md867d47734" x="1135.732879" y="505.775166" style="fill: #38bdf8; stroke: #334155; stroke-width: 0.8"/>
     <use xlink:href="#md867d47734" x="828.867977" y="422.961986" style="fill: #38bdf8; stroke: #334155; stroke-width: 0.8"/>
     <use xlink:href="#md867d47734" x="964.98322" y="248.07943" style="fill: #38bdf8; stroke: #334155; stroke-width: 0.8"/>
     <use xlink:href="#md867d47734" x="1107.219567" y="258.130676" style="fill: #38bdf8; stroke: #334155; stroke-width: 0.8"/>
     <use xlink:href="#md867d47734" x="910.723271" y="448.878213" style="fill: #38bdf8; stroke: #334155; stroke-width: 0.8"/>
     <use xlink:href="#md867d47734" x="999.151611" y="306.862734" style="fill: #38bdf8; stroke: #334155; stroke-width: 0.8"/>
     <use xlink:href="#md867d47734" x="924.372808" y="556.449821" style="fill: #38bdf8; stroke: #334155; stroke-width: 0.8"/>
     <use xlink:href="#md867d47734" x="1006.343361" y="596.52528" style="fill: #38bdf8; stroke: #334155; stroke-width: 0.8"/>
     <use xlink:href="#md867d47734" x="1185.294891" y="428.111754" style="fill: #38bdf8; stroke: #334155; stroke-width: 0.8"/>
     <use xlink:href="#md867d47734" x="1048.553153" y="272.610931" style="fill: #38bdf8; stroke: #334155; stroke-width: 0.8"/>
     <use xlink:href="#md867d47734" x="867.585523" y="372.176346" style="fill: #38bdf8; stroke: #334155; stroke-width: 0.8"/>
     <use xlink:href="#md867d47734" x="1242.932023" y="323.888494" style="fill: #38bdf8; stroke: #334155; stroke-width: 0.8"/>
     <use xlink:href="#md867d47734" x="844.691557" y="491.759873" style="fill: #38bdf8; stroke: #334155; stroke-width: 0.8"/>
     <use xlink:href="#md867d47734" x="878.118398" y="407.272801" style="fill: #38bdf8; stroke: #334155; stroke-width: 0.8"/>
     <use xlink:href="#md867d47734" x="905.806372" y="608.399959" style="fill: #38bdf8; stroke: #334155; stroke-width: 0.8"/>
     <use xlink:href="#md867d47734" x="932.1332" y="319.508393" style="fill: #38bdf8; stroke: #334155; stroke-width: 0.8"/>
     <use xlink:href="#md867d47734" x="838.497492" y="574.78464" style="fill: #38bdf8; stroke: #334155; stroke-width: 0.8"/>
     <use xlink:href="#md867d47734" x="1195.160594" y="191.581883" style="fill: #38bdf8; stroke: #334155; stroke-width: 0.8"/>
    </g>
   </g>
   <g id="text_18">
    <text style="font-weight: 700; font-size: 15px; font-family: 'DejaVu Sans'; text-anchor: start; fill: #111827" x="696.6" y="108.72" transform="rotate(-0 696.6 108.72)">XGI bipartite incidence view</text>
   </g>
   <g id="text_19">
    <g clip-path="url(#p26d755cbce)">
     <text style="font-size: 7.6px; font-family: 'DejaVu Sans', 'Bitstream Vera Sans', 'Computer Modern Sans Serif', 'Lucida Grande', 'Verdana', 'Geneva', 'Lucid', 'Arial', 'Helvetica', 'Avant Garde', sans-serif; text-anchor: middle; fill: #111827" x="999.004849" y="472.197788" transform="rotate(-0 999.004849 472.197788)">ODYSSEUS</text>
    </g>
   </g>
   <g id="text_20">
    <g clip-path="url(#p26d755cbce)">
     <text style="font-size: 7.6px; font-family: 'DejaVu Sans', 'Bitstream Vera Sans', 'Computer Modern Sans Serif', 'Lucida Grande', 'Verdana', 'Geneva', 'Lucid', 'Arial', 'Helvetica', 'Avant Garde', sans-serif; text-anchor: middle; fill: #111827" x="1049.648894" y="388.155895" transform="rotate(-0 1049.648894 388.155895)">SEA</text>
    </g>
   </g>
   <g id="text_21">
    <g clip-path="url(#p26d755cbce)">
     <text style="font-size: 7.6px; font-family: 'DejaVu Sans', 'Bitstream Vera Sans', 'Computer Modern Sans Serif', 'Lucida Grande', 'Verdana', 'Geneva', 'Lucid', 'Arial', 'Helvetica', 'Avant Garde', sans-serif; text-anchor: middle; fill: #111827" x="979.602314" y="455.473983" transform="rotate(-0 979.602314 455.473983)">ZEUS</text>
    </g>
   </g>
   <g id="text_22">
    <g clip-path="url(#p26d755cbce)">
     <text style="font-size: 7.6px; font-family: 'DejaVu Sans', 'Bitstream Vera Sans', 'Computer Modern Sans Serif', 'Lucida Grande', 'Verdana', 'Geneva', 'Lucid', 'Arial', 'Helvetica', 'Avant Garde', sans-serif; text-anchor: middle; fill: #111827" x="1017.278455" y="401.197088" transform="rotate(-0 1017.278455 401.197088)">MIND</text>
    </g>
   </g>
   <g id="text_23">
    <g clip-path="url(#p26d755cbce)">
     <text style="font-size: 7.6px; font-family: 'DejaVu Sans', 'Bitstream Vera Sans', 'Computer Modern Sans Serif', 'Lucida Grande', 'Verdana', 'Geneva', 'Lucid', 'Arial', 'Helvetica', 'Avant Garde', sans-serif; text-anchor: middle; fill: #111827" x="1072.169328" y="507.232625" transform="rotate(-0 1072.169328 507.232625)">GENERIC_MAN</text>
    </g>
   </g>
   <g id="text_24">
    <g clip-path="url(#p26d755cbce)">
     <text style="font-size: 7.6px; font-family: 'DejaVu Sans', 'Bitstream Vera Sans', 'Computer Modern Sans Serif', 'Lucida Grande', 'Verdana', 'Geneva', 'Lucid', 'Arial', 'Helvetica', 'Avant Garde', sans-serif; text-anchor: middle; fill: #111827" x="951.279198" y="478.242363" transform="rotate(-0 951.279198 478.242363)">TELEMACHUS</text>
    </g>
   </g>
   <g id="text_25">
    <g clip-path="url(#p26d755cbce)">
     <text style="font-size: 7.6px; font-family: 'DejaVu Sans', 'Bitstream Vera Sans', 'Computer Modern Sans Serif', 'Lucida Grande', 'Verdana', 'Geneva', 'Lucid', 'Arial', 'Helvetica', 'Avant Garde', sans-serif; text-anchor: middle; fill: #111827" x="1074.158894" y="454.110978" transform="rotate(-0 1074.158894 454.110978)">MORTALS</text>
    </g>
   </g>
   <g id="text_26">
    <g clip-path="url(#p26d755cbce)">
     <text style="font-size: 7.6px; font-family: 'DejaVu Sans', 'Bitstream Vera Sans', 'Computer Modern Sans Serif', 'Lucida Grande', 'Verdana', 'Geneva', 'Lucid', 'Arial', 'Helvetica', 'Avant Garde', sans-serif; text-anchor: middle; fill: #111827" x="944.47115" y="352.107487" transform="rotate(-0 944.47115 352.107487)">SHIP</text>
    </g>
   </g>
   <g id="text_27">
    <g clip-path="url(#p26d755cbce)">
     <text style="font-size: 7.6px; font-family: 'DejaVu Sans', 'Bitstream Vera Sans', 'Computer Modern Sans Serif', 'Lucida Grande', 'Verdana', 'Geneva', 'Lucid', 'Arial', 'Helvetica', 'Avant Garde', sans-serif; text-anchor: middle; fill: #111827" x="1013.593622" y="570.93002" transform="rotate(-0 1013.593622 570.93002)">PALACE</text>
    </g>
   </g>
   <g id="text_28">
    <g clip-path="url(#p26d755cbce)">
     <text style="font-size: 7.6px; font-family: 'DejaVu Sans', 'Bitstream Vera Sans', 'Computer Modern Sans Serif', 'Lucida Grande', 'Verdana', 'Geneva', 'Lucid', 'Arial', 'Helvetica', 'Avant Garde', sans-serif; text-anchor: middle; fill: #111827" x="878.112292" y="525.334801" transform="rotate(-0 878.112292 525.334801)">PENELOPE</text>
    </g>
   </g>
   <g id="text_29">
    <g clip-path="url(#p26d755cbce)">
     <text style="font-size: 7.6px; font-family: 'DejaVu Sans', 'Bitstream Vera Sans', 'Computer Modern Sans Serif', 'Lucida Grande', 'Verdana', 'Geneva', 'Lucid', 'Arial', 'Helvetica', 'Avant Garde', sans-serif; text-anchor: middle; fill: #111827" x="1001.537534" y="516.928031" transform="rotate(-0 1001.537534 516.928031)">evil</text>
    </g>
   </g>
   <g id="text_30">
    <g clip-path="url(#p26d755cbce)">
     <text style="font-size: 7.6px; font-family: 'DejaVu Sans', 'Bitstream Vera Sans', 'Computer Modern Sans Serif', 'Lucida Grande', 'Verdana', 'Geneva', 'Lucid', 'Arial', 'Helvetica', 'Avant Garde', sans-serif; text-anchor: middle; fill: #111827" x="910.723271" y="450.975338" transform="rotate(-0 910.723271 450.975338)">fair</text>
    </g>
   </g>
   <g id="text_31">
    <g clip-path="url(#p26d755cbce)">
     <text style="font-size: 7.6px; font-family: 'DejaVu Sans', 'Bitstream Vera Sans', 'Computer Modern Sans Serif', 'Lucida Grande', 'Verdana', 'Geneva', 'Lucid', 'Arial', 'Helvetica', 'Avant Garde', sans-serif; text-anchor: middle; fill: #111827" x="838.497492" y="576.881765" transform="rotate(-0 838.497492 576.881765)">enduring</text>
    </g>
   </g>
   <g id="text_32">
    <g clip-path="url(#p26d755cbce)">
     <text style="font-size: 7.6px; font-family: 'DejaVu Sans', 'Bitstream Vera Sans', 'Computer Modern Sans Serif', 'Lucida Grande', 'Verdana', 'Geneva', 'Lucid', 'Arial', 'Helvetica', 'Avant Garde', sans-serif; text-anchor: middle; fill: #111827" x="953.432804" y="430.938262" transform="rotate(-0 953.432804 430.938262)">long</text>
    </g>
   </g>
   <g id="text_33">
    <g clip-path="url(#p26d755cbce)">
     <text style="font-size: 7.6px; font-family: 'DejaVu Sans', 'Bitstream Vera Sans', 'Computer Modern Sans Serif', 'Lucida Grande', 'Verdana', 'Geneva', 'Lucid', 'Arial', 'Helvetica', 'Avant Garde', sans-serif; text-anchor: middle; fill: #111827" x="954.91755" y="508.130378" transform="rotate(-0 954.91755 508.130378)">high</text>
    </g>
   </g>
   <g id="text_34">
    <g clip-path="url(#p26d755cbce)">
     <text style="font-size: 7.6px; font-family: 'DejaVu Sans', 'Bitstream Vera Sans', 'Computer Modern Sans Serif', 'Lucida Grande', 'Verdana', 'Geneva', 'Lucid', 'Arial', 'Helvetica', 'Avant Garde', sans-serif; text-anchor: middle; fill: #111827" x="1135.732879" y="507.872291" transform="rotate(-0 1135.732879 507.872291)">young</text>
    </g>
   </g>
   <g id="text_35">
    <g clip-path="url(#p26d755cbce)">
     <text style="font-size: 7.6px; font-family: 'DejaVu Sans', 'Bitstream Vera Sans', 'Computer Modern Sans Serif', 'Lucida Grande', 'Verdana', 'Geneva', 'Lucid', 'Arial', 'Helvetica', 'Avant Garde', sans-serif; text-anchor: middle; fill: #111827" x="936.090681" y="399.355734" transform="rotate(-0 936.090681 399.355734)">good</text>
    </g>
   </g>
   <g id="text_36">
    <g clip-path="url(#p26d755cbce)">
     <text style="font-size: 7.6px; font-family: 'DejaVu Sans', 'Bitstream Vera Sans', 'Computer Modern Sans Serif', 'Lucida Grande', 'Verdana', 'Geneva', 'Lucid', 'Arial', 'Helvetica', 'Avant Garde', sans-serif; text-anchor: middle; fill: #111827" x="996.629417" y="658.275242" transform="rotate(-0 996.629417 658.275242)">divine</text>
    </g>
   </g>
   <g id="text_37">
    <g clip-path="url(#p26d755cbce)">
     <text style="font-size: 7.6px; font-family: 'DejaVu Sans', 'Bitstream Vera Sans', 'Computer Modern Sans Serif', 'Lucida Grande', 'Verdana', 'Geneva', 'Lucid', 'Arial', 'Helvetica', 'Avant Garde', sans-serif; text-anchor: middle; fill: #111827" x="982.880537" y="395.246128" transform="rotate(-0 982.880537 395.246128)">old</text>
    </g>
   </g>
   <g id="text_38">
    <g clip-path="url(#p26d755cbce)">
     <text style="font-size: 7.6px; font-family: 'DejaVu Sans', 'Bitstream Vera Sans', 'Computer Modern Sans Serif', 'Lucida Grande', 'Verdana', 'Geneva', 'Lucid', 'Arial', 'Helvetica', 'Avant Garde', sans-serif; text-anchor: middle; fill: #111827" x="1036.696577" y="447.519057" transform="rotate(-0 1036.696577 447.519057)">great</text>
    </g>
   </g>
   <g id="text_39">
    <g clip-path="url(#p26d755cbce)">
     <text style="font-size: 7.6px; font-family: 'DejaVu Sans', 'Bitstream Vera Sans', 'Computer Modern Sans Serif', 'Lucida Grande', 'Verdana', 'Geneva', 'Lucid', 'Arial', 'Helvetica', 'Avant Garde', sans-serif; text-anchor: middle; fill: #111827" x="1089.7257" y="380.25696" transform="rotate(-0 1089.7257 380.25696)">godlike</text>
    </g>
   </g>
   <g id="text_40">
    <g clip-path="url(#p26d755cbce)">
     <text style="font-size: 7.6px; font-family: 'DejaVu Sans', 'Bitstream Vera Sans', 'Computer Modern Sans Serif', 'Lucida Grande', 'Verdana', 'Geneva', 'Lucid', 'Arial', 'Helvetica', 'Avant Garde', sans-serif; text-anchor: middle; fill: #111827" x="924.372808" y="558.546946" transform="rotate(-0 924.372808 558.546946)">glad</text>
    </g>
   </g>
   <g id="text_41">
    <g clip-path="url(#p26d755cbce)">
     <text style="font-size: 7.6px; font-family: 'DejaVu Sans', 'Bitstream Vera Sans', 'Computer Modern Sans Serif', 'Lucida Grande', 'Verdana', 'Geneva', 'Lucid', 'Arial', 'Helvetica', 'Avant Garde', sans-serif; text-anchor: middle; fill: #111827" x="964.98322" y="250.176555" transform="rotate(-0 964.98322 250.176555)">black</text>
    </g>
   </g>
   <g id="text_42">
    <g clip-path="url(#p26d755cbce)">
     <text style="font-size: 7.6px; font-family: 'DejaVu Sans', 'Bitstream Vera Sans', 'Computer Modern Sans Serif', 'Lucida Grande', 'Verdana', 'Geneva', 'Lucid', 'Arial', 'Helvetica', 'Avant Garde', sans-serif; text-anchor: middle; fill: #111827" x="1035.3561" y="499.741941" transform="rotate(-0 1035.3561 499.741941)">wise</text>
    </g>
   </g>
   <g id="text_43">
    <g clip-path="url(#p26d755cbce)">
     <text style="font-size: 7.6px; font-family: 'DejaVu Sans', 'Bitstream Vera Sans', 'Computer Modern Sans Serif', 'Lucida Grande', 'Verdana', 'Geneva', 'Lucid', 'Arial', 'Helvetica', 'Avant Garde', sans-serif; text-anchor: middle; fill: #111827" x="1115.25394" y="418.731606" transform="rotate(-0 1115.25394 418.731606)">mighty</text>
    </g>
   </g>
   <g id="text_44">
    <g clip-path="url(#p26d755cbce)">
     <text style="font-size: 7.6px; font-family: 'DejaVu Sans', 'Bitstream Vera Sans', 'Computer Modern Sans Serif', 'Lucida Grande', 'Verdana', 'Geneva', 'Lucid', 'Arial', 'Helvetica', 'Avant Garde', sans-serif; text-anchor: middle; fill: #111827" x="1107.219567" y="260.227801" transform="rotate(-0 1107.219567 260.227801)">deep</text>
    </g>
   </g>
  </g>
  <g id="text_45">
   <text style="font-weight: 700; font-size: 22px; font-family: 'DejaVu Sans'; text-anchor: start; fill: #111827" x="18" y="23.916562" transform="rotate(-0 18 23.916562)">A. T. Murray (1919) — Native target-as-hyperedge visualization</text>
  </g>
  <g id="text_46">
   <text style="font-size: 11px; font-family: 'DejaVu Sans'; text-anchor: start; fill: #475569" x="18" y="42.84" transform="rotate(-0 18 42.84)">Readable weighted core: 34 of 129 attribute nodes; 10 of 94 target hyperedges; 197 of 1054 incidences.</text>
  </g>
  <g id="text_47">
   <text style="font-size: 9px; font-family: 'DejaVu Sans'; text-anchor: start; fill: #475569" x="18" y="755.64" transform="rotate(-0 18 755.64)">Attribute circles and target hyperedges use the colors specified in config/visualizations.json.</text>
  </g>
 </g>
 <defs>
  <clipPath id="pc554e67f7a">
   <rect x="7.2" y="122.72" width="678.6" height="602.32"/>
  </clipPath>
  <clipPath id="p26d755cbce">
   <rect x="696.6" y="122.72" width="678.6" height="602.32"/>
  </clipPath>
 </defs>
</svg>
