<?xml version="1.0" encoding="utf-8" standalone="no"?>
<!DOCTYPE svg PUBLIC "-//W3C//DTD SVG 1.1//EN"
  "http://www.w3.org/Graphics/SVG/1.1/DTD/svg11.dtd">
<svg xmlns:xlink="http://www.w3.org/1999/xlink" width="1382.4pt" height="764.711719pt" viewBox="0 0 1382.4 764.711719" xmlns="http://www.w3.org/2000/svg" version="1.1">
 <metadata>
  <rdf:RDF xmlns:dc="http://purl.org/dc/elements/1.1/" xmlns:cc="http://creativecommons.org/ns#" xmlns:rdf="http://www.w3.org/1999/02/22-rdf-syntax-ns#">
   <cc:Work>
    <dc:type rdf:resource="http://purl.org/dc/dcmitype/StillImage"/>
    <dc:format>image/svg+xml</dc:format>
    <dc:creator>
     <cc:Agent>
      <dc:title>Matplotlib v3.10.3, https://matplotlib.org/</dc:title>
     </cc:Agent>
    </dc:creator>
   </cc:Work>
  </rdf:RDF>
 </metadata>
 <defs>
  <style type="text/css">*{stroke-linejoin: round; stroke-linecap: butt}</style>
 </defs>
 <g id="figure_1">
  <g id="patch_1">
   <path d="M 0 764.711719 
L 1382.4 764.711719 
L 1382.4 0 
L 0 0 
z
" style="fill: #ffffff"/>
  </g>
  <g id="axes_1">
   <g id="text_1">
    <text style="font-weight: 700; font-size: 15px; font-family: 'DejaVu Sans'; text-anchor: start; fill: #111827" x="7.2" y="108.72" transform="rotate(-0 7.2 108.72)">XGI native hyperedge-hull view</text>
   </g>
   <g id="PatchCollection_1">
    <path d="M 52.702177 435.834609 
L 131.797235 620.919318 
L 132.156395 621.749287 
L 132.56696 622.555066 
L 133.02731 623.333476 
L 133.535629 624.081444 
L 134.08991 624.796019 
L 134.687965 625.47438 
L 135.327435 626.11385 
L 136.005796 626.711905 
L 136.720371 627.266186 
L 137.468339 627.774505 
L 138.246749 628.234855 
L 139.052528 628.64542 
L 245.487463 680.821058 
L 246.317432 681.180218 
L 247.168315 681.486554 
L 248.036754 681.738859 
L 248.919321 681.936137 
L 249.812535 682.077608 
L 250.712868 682.162714 
L 251.61677 682.19112 
L 252.520671 682.162714 
L 385.376594 671.099731 
L 386.276927 671.014624 
L 387.170141 670.873153 
L 388.052708 670.675876 
L 388.921148 670.423571 
L 389.772031 670.117234 
L 390.602 669.758074 
L 391.407779 669.347509 
L 392.186189 668.887159 
L 392.934157 668.37884 
L 393.648731 667.824559 
L 394.327092 667.226504 
L 394.966562 666.587034 
L 395.564618 665.908673 
L 396.118899 665.194098 
L 473.187338 553.960877 
L 473.695657 553.212909 
L 474.156007 552.434499 
L 474.566572 551.62872 
L 474.925732 550.798751 
L 475.232069 549.947868 
L 475.484374 549.079429 
L 511.346845 418.267868 
L 511.544122 417.3853 
L 511.685593 416.492087 
L 511.7707 415.591753 
L 511.799106 414.687852 
L 511.7707 413.783951 
L 511.685593 412.883617 
L 511.544122 411.990404 
L 511.346845 411.107836 
L 511.09454 410.239397 
L 510.788203 409.388514 
L 510.429043 408.558545 
L 510.018478 407.752766 
L 401.94562 215.863767 
L 401.48527 215.085357 
L 400.976951 214.337389 
L 400.42267 213.622814 
L 399.824615 212.944453 
L 399.185145 212.304983 
L 398.506784 211.706928 
L 397.792209 211.152647 
L 397.044241 210.644328 
L 396.265831 210.183978 
L 320.398991 167.349507 
L 319.593212 166.938942 
L 318.763243 166.579782 
L 317.91236 166.273446 
L 317.043921 166.021141 
L 316.161353 165.823863 
L 315.26814 165.682392 
L 314.367806 165.597286 
L 313.463905 165.56888 
L 312.560004 165.597286 
L 311.65967 165.682392 
L 310.766457 165.823863 
L 309.883889 166.021141 
L 309.01545 166.273446 
L 186.300738 209.916738 
L 185.449855 210.223075 
L 184.619886 210.582234 
L 183.814107 210.992799 
L 183.035697 211.45315 
L 182.287729 211.961468 
L 181.573154 212.515749 
L 180.894793 213.113805 
L 180.255323 213.753275 
L 179.657267 214.431636 
L 179.102986 215.14621 
L 178.594668 215.894179 
L 53.932252 422.821775 
L 53.471902 423.600185 
L 53.061336 424.405964 
L 52.702177 425.235933 
L 52.39584 426.086816 
L 52.143535 426.955255 
L 51.946258 427.837823 
L 51.804787 428.731036 
L 51.71968 429.63137 
L 51.691274 430.535271 
L 51.71968 431.439173 
L 51.804787 432.339506 
L 51.946258 433.23272 
L 52.143535 434.115287 
L 52.39584 434.983726 
z
" clip-path="url(#pc554e67f7a)" style="fill: #f59e0b; fill-opacity: 0.13; stroke: #d97706; stroke-opacity: 0.13; stroke-width: 0.8"/>
    <path d="M 639.067748 388.485611 
L 525.514366 208.916971 
L 525.006048 208.169003 
L 524.451767 207.454428 
L 523.853711 206.776067 
L 523.214241 206.136597 
L 522.53588 205.538542 
L 521.821306 204.984261 
L 521.073337 204.475942 
L 520.294928 204.015592 
L 519.489148 203.605027 
L 518.659179 203.245867 
L 517.808296 202.93953 
L 516.939857 202.687226 
L 516.057289 202.489948 
L 515.164076 202.348477 
L 514.263742 202.263371 
L 513.359841 202.234964 
L 512.45594 202.263371 
L 511.555606 202.348477 
L 510.662393 202.489948 
L 509.779825 202.687226 
L 508.911386 202.93953 
L 281.017836 271.094383 
L 280.166953 271.40072 
L 279.336984 271.759879 
L 278.531205 272.170444 
L 124.235458 357.021671 
L 123.457048 357.482021 
L 122.70908 357.99034 
L 121.994505 358.54462 
L 121.316144 359.142676 
L 120.676674 359.782146 
L 120.078619 360.460507 
L 119.524338 361.175082 
L 119.016019 361.92305 
L 118.555669 362.70146 
L 118.145104 363.507239 
L 117.785944 364.337208 
L 117.479607 365.188091 
L 117.227302 366.05653 
L 117.030025 366.939098 
L 116.888554 367.832311 
L 97.016148 527.2304 
L 96.931041 528.130734 
L 96.902635 529.034635 
L 96.931041 529.938536 
L 97.016148 530.83887 
L 97.157619 531.732083 
L 97.354896 532.614651 
L 97.607201 533.48309 
L 97.913538 534.333973 
L 131.797235 620.919318 
L 132.156395 621.749287 
L 132.56696 622.555066 
L 133.02731 623.333476 
L 133.535629 624.081444 
L 134.08991 624.796019 
L 134.687965 625.47438 
L 135.327435 626.11385 
L 136.005796 626.711905 
L 136.720371 627.266186 
L 137.468339 627.774505 
L 138.246749 628.234855 
L 139.052528 628.64542 
L 245.487463 680.821058 
L 246.317432 681.180218 
L 247.168315 681.486554 
L 248.036754 681.738859 
L 248.919321 681.936137 
L 249.812535 682.077608 
L 250.712868 682.162714 
L 251.61677 682.19112 
L 252.520671 682.162714 
L 385.376594 671.099731 
L 386.276927 671.014624 
L 387.170141 670.873153 
L 388.052708 670.675876 
L 388.921148 670.423571 
L 389.772031 670.117234 
L 390.602 669.758074 
L 391.407779 669.347509 
L 623.25642 536.852737 
L 624.034829 536.392387 
L 624.782797 535.884068 
L 625.497372 535.329787 
L 626.175733 534.731731 
L 626.815203 534.092261 
L 627.413259 533.4139 
L 627.96754 532.699326 
L 628.475858 531.951358 
L 628.936209 531.172948 
L 629.346774 530.367169 
L 629.705933 529.5372 
L 630.01227 528.686317 
L 630.264575 527.817878 
L 630.461852 526.93531 
L 630.603323 526.042096 
L 630.68843 525.141763 
L 641.28032 397.103008 
L 641.308726 396.199107 
L 641.28032 395.295206 
L 641.195213 394.394872 
L 641.053742 393.501659 
L 640.856465 392.619091 
L 640.60416 391.750652 
L 640.297823 390.899769 
L 639.938664 390.0698 
L 639.528098 389.264021 
z
" clip-path="url(#pc554e67f7a)" style="fill: #f59e0b; fill-opacity: 0.13; stroke: #d97706; stroke-opacity: 0.13; stroke-width: 0.8"/>
    <path d="M 176.608674 220.910226 
L 154.613281 343.156689 
L 154.47181 344.049902 
L 154.386703 344.950236 
L 154.358297 345.854137 
L 154.386703 346.758038 
L 154.47181 347.658372 
L 154.613281 348.551585 
L 154.810558 349.434153 
L 193.199736 484.248542 
L 193.452041 485.116981 
L 193.758378 485.967864 
L 194.117537 486.797833 
L 194.528102 487.603613 
L 194.988453 488.382023 
L 195.496771 489.129991 
L 196.051052 489.844565 
L 196.649108 490.522926 
L 197.288578 491.162396 
L 197.966939 491.760452 
L 198.681513 492.314733 
L 199.429481 492.823051 
L 200.207891 493.283402 
L 310.678356 552.555404 
L 311.484135 552.965969 
L 312.314104 553.325129 
L 313.164987 553.631465 
L 314.033426 553.88377 
L 314.915994 554.081047 
L 315.809207 554.222519 
L 316.709541 554.307625 
L 460.637231 559.866509 
L 461.541132 559.894915 
L 462.445033 559.866509 
L 463.345367 559.781403 
L 618.125568 538.519852 
L 619.018781 538.37838 
L 619.901349 538.181103 
L 620.769788 537.928798 
L 621.620671 537.622462 
L 622.45064 537.263302 
L 623.25642 536.852737 
L 624.034829 536.392387 
L 624.782797 535.884068 
L 625.497372 535.329787 
L 626.175733 534.731731 
L 626.815203 534.092261 
L 627.413259 533.4139 
L 627.96754 532.699326 
L 628.475858 531.951358 
L 628.936209 531.172948 
L 629.346774 530.367169 
L 629.705933 529.5372 
L 630.01227 528.686317 
L 630.264575 527.817878 
L 630.461852 526.93531 
L 630.603323 526.042096 
L 630.68843 525.141763 
L 641.28032 397.103008 
L 641.308726 396.199107 
L 641.28032 395.295206 
L 641.195213 394.394872 
L 641.053742 393.501659 
L 640.856465 392.619091 
L 640.60416 391.750652 
L 640.297823 390.899769 
L 639.938664 390.0698 
L 639.528098 389.264021 
L 639.067748 388.485611 
L 525.514366 208.916971 
L 525.006048 208.169003 
L 524.451767 207.454428 
L 523.853711 206.776067 
L 523.214241 206.136597 
L 522.53588 205.538542 
L 521.821306 204.984261 
L 521.073337 204.475942 
L 520.294928 204.015592 
L 519.489148 203.605027 
L 518.659179 203.245867 
L 517.808296 202.93953 
L 516.939857 202.687226 
L 516.057289 202.489948 
L 316.161353 165.823863 
L 315.26814 165.682392 
L 314.367806 165.597286 
L 313.463905 165.56888 
L 312.560004 165.597286 
L 311.65967 165.682392 
L 310.766457 165.823863 
L 309.883889 166.021141 
L 309.01545 166.273446 
L 186.300738 209.916738 
L 185.449855 210.223075 
L 184.619886 210.582234 
L 183.814107 210.992799 
L 183.035697 211.45315 
L 182.287729 211.961468 
L 181.573154 212.515749 
L 180.894793 213.113805 
L 180.255323 213.753275 
L 179.657267 214.431636 
L 179.102986 215.14621 
L 178.594668 215.894179 
L 178.134318 216.672588 
L 177.723752 217.478368 
L 177.364593 218.308337 
L 177.058256 219.15922 
L 176.805951 220.027659 
z
" clip-path="url(#pc554e67f7a)" style="fill: #f59e0b; fill-opacity: 0.13; stroke: #d97706; stroke-opacity: 0.13; stroke-width: 0.8"/>
    <path d="M 116.775041 369.636546 
L 116.803448 370.540447 
L 130.814739 616.523881 
L 130.899845 617.424215 
L 131.041316 618.317428 
L 131.238594 619.199996 
L 131.490898 620.068435 
L 131.797235 620.919318 
L 132.156395 621.749287 
L 132.56696 622.555066 
L 133.02731 623.333476 
L 133.535629 624.081444 
L 134.08991 624.796019 
L 134.687965 625.47438 
L 135.327435 626.11385 
L 136.005796 626.711905 
L 136.720371 627.266186 
L 137.468339 627.774505 
L 138.246749 628.234855 
L 139.052528 628.64542 
L 139.882497 629.00458 
L 140.73338 629.310917 
L 141.601819 629.563221 
L 257.028412 659.599787 
L 257.91098 659.797064 
L 258.804193 659.938535 
L 259.704527 660.023642 
L 383.568791 671.099731 
L 384.472693 671.128137 
L 385.376594 671.099731 
L 386.276927 671.014624 
L 387.170141 670.873153 
L 388.052708 670.675876 
L 388.921148 670.423571 
L 389.772031 670.117234 
L 390.602 669.758074 
L 391.407779 669.347509 
L 623.25642 536.852737 
L 624.034829 536.392387 
L 624.782797 535.884068 
L 625.497372 535.329787 
L 626.175733 534.731731 
L 626.815203 534.092261 
L 627.413259 533.4139 
L 627.96754 532.699326 
L 628.475858 531.951358 
L 628.936209 531.172948 
L 629.346774 530.367169 
L 629.705933 529.5372 
L 630.01227 528.686317 
L 630.264575 527.817878 
L 630.461852 526.93531 
L 630.603323 526.042096 
L 630.68843 525.141763 
L 630.716836 524.237862 
L 630.68843 523.33396 
L 630.603323 522.433627 
L 630.461852 521.540413 
L 630.264575 520.657846 
L 630.01227 519.789407 
L 629.705933 518.938523 
L 551.619347 305.14254 
L 551.260187 304.312571 
L 550.849622 303.506791 
L 550.389272 302.728382 
L 549.880953 301.980414 
L 549.326673 301.265839 
L 548.728617 300.587478 
L 548.089147 299.948008 
L 547.410786 299.349952 
L 546.696211 298.795671 
L 545.948243 298.287353 
L 545.169833 297.827003 
L 396.265831 210.183978 
L 395.460052 209.773413 
L 394.630083 209.414253 
L 393.7792 209.107917 
L 392.910761 208.855612 
L 392.028193 208.658334 
L 391.13498 208.516863 
L 390.234646 208.431757 
L 389.330745 208.40335 
L 388.426844 208.431757 
L 387.52651 208.516863 
L 386.633297 208.658334 
L 385.750729 208.855612 
L 384.88229 209.107917 
L 384.031407 209.414253 
L 383.201438 209.773413 
L 382.395658 210.183978 
L 161.818714 333.239261 
L 161.040304 333.699612 
L 123.457048 357.482021 
L 122.70908 357.99034 
L 121.994505 358.54462 
L 121.316144 359.142676 
L 120.676674 359.782146 
L 120.078619 360.460507 
L 119.524338 361.175082 
L 119.016019 361.92305 
L 118.555669 362.70146 
L 118.145104 363.507239 
L 117.785944 364.337208 
L 117.479607 365.188091 
L 117.227302 366.05653 
L 117.030025 366.939098 
L 116.888554 367.832311 
L 116.803448 368.732645 
z
" clip-path="url(#pc554e67f7a)" style="fill: #f59e0b; fill-opacity: 0.13; stroke: #d97706; stroke-opacity: 0.13; stroke-width: 0.8"/>
    <path d="M 53.061336 436.664578 
L 98.272698 535.163942 
L 98.683263 535.969721 
L 99.143613 536.748131 
L 99.651932 537.496099 
L 100.206212 538.210674 
L 100.804268 538.889035 
L 101.443738 539.528505 
L 241.76237 678.289488 
L 242.440731 678.887543 
L 243.155305 679.441824 
L 243.903273 679.950143 
L 244.681683 680.410493 
L 245.487463 680.821058 
L 246.317432 681.180218 
L 247.168315 681.486554 
L 248.036754 681.738859 
L 248.919321 681.936137 
L 249.812535 682.077608 
L 250.712868 682.162714 
L 251.61677 682.19112 
L 252.520671 682.162714 
L 253.421004 682.077608 
L 374.025805 663.34457 
L 374.919018 663.203099 
L 375.801586 663.005822 
L 376.670025 662.753517 
L 377.520908 662.44718 
L 378.350877 662.088021 
L 379.156656 661.677455 
L 379.935066 661.217105 
L 380.683034 660.708787 
L 381.397609 660.154506 
L 382.07597 659.55645 
L 636.767623 406.692977 
L 637.407093 406.053507 
L 638.005149 405.375146 
L 638.55943 404.660571 
L 639.067748 403.912603 
L 639.528098 403.134193 
L 639.938664 402.328414 
L 640.297823 401.498445 
L 640.60416 400.647562 
L 640.856465 399.779123 
L 641.053742 398.896555 
L 641.195213 398.003342 
L 641.28032 397.103008 
L 641.308726 396.199107 
L 641.28032 395.295206 
L 641.195213 394.394872 
L 641.053742 393.501659 
L 640.856465 392.619091 
L 640.60416 391.750652 
L 640.297823 390.899769 
L 639.938664 390.0698 
L 639.528098 389.264021 
L 639.067748 388.485611 
L 638.55943 387.737643 
L 638.005149 387.023068 
L 637.407093 386.344707 
L 636.767623 385.705237 
L 548.089147 299.948008 
L 547.410786 299.349952 
L 546.696211 298.795671 
L 545.948243 298.287353 
L 545.169833 297.827003 
L 544.364054 297.416437 
L 543.534085 297.057278 
L 542.683202 296.750941 
L 541.814763 296.498636 
L 540.932195 296.301359 
L 540.038982 296.159888 
L 539.138648 296.074781 
L 538.234747 296.046375 
L 267.906325 298.323538 
L 267.002424 298.351944 
L 266.10209 298.437051 
L 265.208877 298.578522 
L 264.326309 298.775799 
L 263.45787 299.028104 
L 164.305345 332.1632 
L 163.454462 332.469537 
L 162.624493 332.828696 
L 161.818714 333.239261 
L 161.040304 333.699612 
L 160.292336 334.20793 
L 159.577761 334.762211 
L 56.910738 419.443346 
L 56.232377 420.041401 
L 55.592907 420.680872 
L 54.994851 421.359233 
L 54.44057 422.073807 
L 53.932252 422.821775 
L 53.471902 423.600185 
L 53.061336 424.405964 
L 52.702177 425.235933 
L 52.39584 426.086816 
L 52.143535 426.955255 
L 51.946258 427.837823 
L 51.804787 428.731036 
L 51.71968 429.63137 
L 51.691274 430.535271 
L 51.71968 431.439173 
L 51.804787 432.339506 
L 51.946258 433.23272 
L 52.143535 434.115287 
L 52.39584 434.983726 
L 52.702177 435.834609 
z
" clip-path="url(#pc554e67f7a)" style="fill: #f59e0b; fill-opacity: 0.13; stroke: #d97706; stroke-opacity: 0.13; stroke-width: 0.8"/>
    <path d="M 508.911386 202.93953 
L 281.017836 271.094383 
L 280.166953 271.40072 
L 279.336984 271.759879 
L 278.531205 272.170444 
L 277.752795 272.630795 
L 277.004827 273.139113 
L 276.290252 273.693394 
L 275.611891 274.29145 
L 274.972421 274.93092 
L 274.374365 275.609281 
L 273.820084 276.323855 
L 273.311766 277.071824 
L 255.7518 305.005544 
L 255.29145 305.783954 
L 254.880885 306.589734 
L 254.521725 307.419703 
L 193.758378 475.369188 
L 193.452041 476.220071 
L 193.199736 477.08851 
L 193.002459 477.971078 
L 192.860988 478.864292 
L 192.775881 479.764625 
L 192.747475 480.668526 
L 191.193193 533.60483 
L 191.221599 534.508731 
L 191.306706 535.409065 
L 191.448177 536.302278 
L 191.645454 537.184846 
L 191.897759 538.053285 
L 237.925833 672.244073 
L 238.23217 673.094956 
L 238.591329 673.924925 
L 239.001894 674.730704 
L 239.462245 675.509114 
L 239.970563 676.257082 
L 240.524844 676.971657 
L 241.1229 677.650017 
L 241.76237 678.289488 
L 242.440731 678.887543 
L 243.155305 679.441824 
L 243.903273 679.950143 
L 244.681683 680.410493 
L 245.487463 680.821058 
L 246.317432 681.180218 
L 247.168315 681.486554 
L 248.036754 681.738859 
L 248.919321 681.936137 
L 249.812535 682.077608 
L 250.712868 682.162714 
L 251.61677 682.19112 
L 252.520671 682.162714 
L 385.376594 671.099731 
L 386.276927 671.014624 
L 387.170141 670.873153 
L 388.052708 670.675876 
L 388.921148 670.423571 
L 389.772031 670.117234 
L 390.602 669.758074 
L 391.407779 669.347509 
L 623.25642 536.852737 
L 624.034829 536.392387 
L 624.782797 535.884068 
L 625.497372 535.329787 
L 626.175733 534.731731 
L 626.815203 534.092261 
L 627.413259 533.4139 
L 627.96754 532.699326 
L 628.475858 531.951358 
L 628.936209 531.172948 
L 629.346774 530.367169 
L 629.705933 529.5372 
L 630.01227 528.686317 
L 630.264575 527.817878 
L 630.461852 526.93531 
L 630.603323 526.042096 
L 630.68843 525.141763 
L 630.716836 524.237862 
L 630.68843 523.33396 
L 630.603323 522.433627 
L 630.461852 521.540413 
L 630.264575 520.657846 
L 630.01227 519.789407 
L 527.050778 212.182012 
L 526.744441 211.331129 
L 526.385282 210.50116 
L 525.974717 209.695381 
L 525.514366 208.916971 
L 525.006048 208.169003 
L 524.451767 207.454428 
L 523.853711 206.776067 
L 523.214241 206.136597 
L 522.53588 205.538542 
L 521.821306 204.984261 
L 521.073337 204.475942 
L 520.294928 204.015592 
L 519.489148 203.605027 
L 518.659179 203.245867 
L 517.808296 202.93953 
L 516.939857 202.687226 
L 516.057289 202.489948 
L 515.164076 202.348477 
L 514.263742 202.263371 
L 513.359841 202.234964 
L 512.45594 202.263371 
L 511.555606 202.348477 
L 510.662393 202.489948 
L 509.779825 202.687226 
z
" clip-path="url(#pc554e67f7a)" style="fill: #f59e0b; fill-opacity: 0.13; stroke: #d97706; stroke-opacity: 0.13; stroke-width: 0.8"/>
    <path d="M 397.498133 662.861941 
L 510.429043 420.817159 
L 510.788203 419.98719 
L 551.619347 315.741216 
L 551.925684 314.890333 
L 552.177989 314.021894 
L 552.375266 313.139326 
L 552.516737 312.246113 
L 552.601844 311.345779 
L 552.63025 310.441878 
L 552.601844 309.537977 
L 552.516737 308.637643 
L 552.375266 307.74443 
L 552.177989 306.861862 
L 527.303083 213.050451 
L 527.050778 212.182012 
L 526.744441 211.331129 
L 526.385282 210.50116 
L 525.974717 209.695381 
L 525.514366 208.916971 
L 525.006048 208.169003 
L 524.451767 207.454428 
L 523.853711 206.776067 
L 523.214241 206.136597 
L 522.53588 205.538542 
L 521.821306 204.984261 
L 521.073337 204.475942 
L 520.294928 204.015592 
L 519.489148 203.605027 
L 518.659179 203.245867 
L 517.808296 202.93953 
L 516.939857 202.687226 
L 516.057289 202.489948 
L 515.164076 202.348477 
L 514.263742 202.263371 
L 513.359841 202.234964 
L 190.749193 209.212172 
L 189.845292 209.240578 
L 188.944958 209.325685 
L 188.051745 209.467156 
L 187.169177 209.664433 
L 186.300738 209.916738 
L 185.449855 210.223075 
L 184.619886 210.582234 
L 183.814107 210.992799 
L 183.035697 211.45315 
L 182.287729 211.961468 
L 181.573154 212.515749 
L 180.894793 213.113805 
L 180.255323 213.753275 
L 179.657267 214.431636 
L 179.102986 215.14621 
L 178.594668 215.894179 
L 53.932252 422.821775 
L 53.471902 423.600185 
L 53.061336 424.405964 
L 52.702177 425.235933 
L 52.39584 426.086816 
L 52.143535 426.955255 
L 51.946258 427.837823 
L 51.804787 428.731036 
L 51.71968 429.63137 
L 51.691274 430.535271 
L 51.71968 431.439173 
L 51.804787 432.339506 
L 51.946258 433.23272 
L 52.143535 434.115287 
L 52.39584 434.983726 
L 52.702177 435.834609 
L 131.797235 620.919318 
L 132.156395 621.749287 
L 132.56696 622.555066 
L 133.02731 623.333476 
L 133.535629 624.081444 
L 134.08991 624.796019 
L 134.687965 625.47438 
L 135.327435 626.11385 
L 136.005796 626.711905 
L 136.720371 627.266186 
L 137.468339 627.774505 
L 138.246749 628.234855 
L 139.052528 628.64542 
L 139.882497 629.00458 
L 140.73338 629.310917 
L 141.601819 629.563221 
L 142.484387 629.760499 
L 381.775244 670.873153 
L 382.668458 671.014624 
L 383.568791 671.099731 
L 384.472693 671.128137 
L 385.376594 671.099731 
L 386.276927 671.014624 
L 387.170141 670.873153 
L 388.052708 670.675876 
L 388.921148 670.423571 
L 389.772031 670.117234 
L 390.602 669.758074 
L 391.407779 669.347509 
L 392.186189 668.887159 
L 392.934157 668.37884 
L 393.648731 667.824559 
L 394.327092 667.226504 
L 394.966562 666.587034 
L 395.564618 665.908673 
L 396.118899 665.194098 
L 396.627218 664.44613 
L 397.087568 663.66772 
z
" clip-path="url(#pc554e67f7a)" style="fill: #f59e0b; fill-opacity: 0.13; stroke: #d97706; stroke-opacity: 0.13; stroke-width: 0.8"/>
    <path d="M 397.498133 662.861941 
L 510.429043 420.817159 
L 510.788203 419.98719 
L 551.619347 315.741216 
L 551.925684 314.890333 
L 552.177989 314.021894 
L 552.375266 313.139326 
L 552.516737 312.246113 
L 552.601844 311.345779 
L 552.63025 310.441878 
L 552.601844 309.537977 
L 552.516737 308.637643 
L 552.375266 307.74443 
L 552.177989 306.861862 
L 527.303083 213.050451 
L 527.050778 212.182012 
L 526.744441 211.331129 
L 526.385282 210.50116 
L 525.974717 209.695381 
L 525.514366 208.916971 
L 525.006048 208.169003 
L 524.451767 207.454428 
L 523.853711 206.776067 
L 523.214241 206.136597 
L 522.53588 205.538542 
L 521.821306 204.984261 
L 521.073337 204.475942 
L 520.294928 204.015592 
L 519.489148 203.605027 
L 518.659179 203.245867 
L 517.808296 202.93953 
L 516.939857 202.687226 
L 516.057289 202.489948 
L 316.161353 165.823863 
L 315.26814 165.682392 
L 314.367806 165.597286 
L 313.463905 165.56888 
L 312.560004 165.597286 
L 311.65967 165.682392 
L 310.766457 165.823863 
L 309.883889 166.021141 
L 309.01545 166.273446 
L 186.300738 209.916738 
L 185.449855 210.223075 
L 184.619886 210.582234 
L 183.814107 210.992799 
L 183.035697 211.45315 
L 182.287729 211.961468 
L 181.573154 212.515749 
L 180.894793 213.113805 
L 180.255323 213.753275 
L 179.657267 214.431636 
L 179.102986 215.14621 
L 178.594668 215.894179 
L 53.932252 422.821775 
L 53.471902 423.600185 
L 53.061336 424.405964 
L 52.702177 425.235933 
L 52.39584 426.086816 
L 52.143535 426.955255 
L 51.946258 427.837823 
L 51.804787 428.731036 
L 51.71968 429.63137 
L 51.691274 430.535271 
L 51.71968 431.439173 
L 51.804787 432.339506 
L 51.946258 433.23272 
L 52.143535 434.115287 
L 52.39584 434.983726 
L 52.702177 435.834609 
L 53.061336 436.664578 
L 53.471902 437.470358 
L 53.932252 438.248768 
L 54.44057 438.996736 
L 54.994851 439.71131 
L 55.592907 440.389671 
L 56.232377 441.029141 
L 56.910738 441.627197 
L 57.625313 442.181478 
L 197.127232 545.251036 
L 376.011228 668.37884 
L 376.759196 668.887159 
L 377.537606 669.347509 
L 378.343386 669.758074 
L 379.173354 670.117234 
L 380.024237 670.423571 
L 380.892677 670.675876 
L 381.775244 670.873153 
L 382.668458 671.014624 
L 383.568791 671.099731 
L 384.472693 671.128137 
L 385.376594 671.099731 
L 386.276927 671.014624 
L 387.170141 670.873153 
L 388.052708 670.675876 
L 388.921148 670.423571 
L 389.772031 670.117234 
L 390.602 669.758074 
L 391.407779 669.347509 
L 392.186189 668.887159 
L 392.934157 668.37884 
L 393.648731 667.824559 
L 394.327092 667.226504 
L 394.966562 666.587034 
L 395.564618 665.908673 
L 396.118899 665.194098 
L 396.627218 664.44613 
L 397.087568 663.66772 
z
" clip-path="url(#pc554e67f7a)" style="fill: #f59e0b; fill-opacity: 0.13; stroke: #d97706; stroke-opacity: 0.13; stroke-width: 0.8"/>
    <path d="M 141.601819 629.563221 
L 257.028412 659.599787 
L 257.91098 659.797064 
L 258.804193 659.938535 
L 259.704527 660.023642 
L 260.608428 660.052048 
L 261.512329 660.023642 
L 262.412663 659.938535 
L 263.305876 659.797064 
L 264.188444 659.599787 
L 265.056883 659.347482 
L 265.907766 659.041145 
L 266.737735 658.681985 
L 467.670439 558.524853 
L 468.476218 558.114288 
L 469.254628 557.653938 
L 470.002596 557.145619 
L 470.717171 556.591338 
L 471.395532 555.993282 
L 472.035002 555.353812 
L 472.633058 554.675451 
L 473.187338 553.960877 
L 473.695657 553.212909 
L 474.156007 552.434499 
L 474.566572 551.62872 
L 474.925732 550.798751 
L 475.232069 549.947868 
L 475.484374 549.079429 
L 475.681651 548.196861 
L 475.823122 547.303647 
L 475.908229 546.403314 
L 475.936635 545.499413 
L 475.908229 544.595511 
L 475.823122 543.695178 
L 475.681651 542.801964 
L 426.289564 321.730789 
L 426.092287 320.848221 
L 425.839982 319.979782 
L 425.533646 319.128899 
L 425.174486 318.29893 
L 424.763921 317.493151 
L 424.303571 316.714741 
L 423.795252 315.966773 
L 423.240971 315.252198 
L 422.642915 314.573837 
L 422.003445 313.934367 
L 421.325084 313.336311 
L 420.61051 312.78203 
L 419.862542 312.273712 
L 419.084132 311.813362 
L 418.278353 311.402797 
L 417.448384 311.043637 
L 416.597501 310.7373 
L 415.729062 310.484995 
L 414.846494 310.287718 
L 413.95328 310.146247 
L 413.052947 310.06114 
L 268.810226 298.351944 
L 267.906325 298.323538 
L 267.002424 298.351944 
L 266.10209 298.437051 
L 265.208877 298.578522 
L 264.326309 298.775799 
L 263.45787 299.028104 
L 164.305345 332.1632 
L 163.454462 332.469537 
L 162.624493 332.828696 
L 161.818714 333.239261 
L 161.040304 333.699612 
L 123.457048 357.482021 
L 122.70908 357.99034 
L 121.994505 358.54462 
L 121.316144 359.142676 
L 56.232377 420.041401 
L 55.592907 420.680872 
L 54.994851 421.359233 
L 54.44057 422.073807 
L 53.932252 422.821775 
L 53.471902 423.600185 
L 53.061336 424.405964 
L 52.702177 425.235933 
L 52.39584 426.086816 
L 52.143535 426.955255 
L 51.946258 427.837823 
L 51.804787 428.731036 
L 51.71968 429.63137 
L 51.691274 430.535271 
L 51.71968 431.439173 
L 51.804787 432.339506 
L 51.946258 433.23272 
L 52.143535 434.115287 
L 52.39584 434.983726 
L 52.702177 435.834609 
L 131.797235 620.919318 
L 132.156395 621.749287 
L 132.56696 622.555066 
L 133.02731 623.333476 
L 133.535629 624.081444 
L 134.08991 624.796019 
L 134.687965 625.47438 
L 135.327435 626.11385 
L 136.005796 626.711905 
L 136.720371 627.266186 
L 137.468339 627.774505 
L 138.246749 628.234855 
L 139.052528 628.64542 
L 139.882497 629.00458 
L 140.73338 629.310917 
z
" clip-path="url(#pc554e67f7a)" style="fill: #f59e0b; fill-opacity: 0.13; stroke: #d97706; stroke-opacity: 0.13; stroke-width: 0.8"/>
    <path d="M 117.785944 374.935884 
L 238.23217 673.094956 
L 238.591329 673.924925 
L 239.001894 674.730704 
L 239.462245 675.509114 
L 239.970563 676.257082 
L 240.524844 676.971657 
L 241.1229 677.650017 
L 241.76237 678.289488 
L 242.440731 678.887543 
L 243.155305 679.441824 
L 243.903273 679.950143 
L 244.681683 680.410493 
L 245.487463 680.821058 
L 246.317432 681.180218 
L 247.168315 681.486554 
L 248.036754 681.738859 
L 248.919321 681.936137 
L 249.812535 682.077608 
L 250.712868 682.162714 
L 251.61677 682.19112 
L 252.520671 682.162714 
L 253.421004 682.077608 
L 254.314218 681.936137 
L 255.196786 681.738859 
L 256.065225 681.486554 
L 256.916108 681.180218 
L 257.746077 680.821058 
L 258.551856 680.410493 
L 468.476218 558.114288 
L 469.254628 557.653938 
L 470.002596 557.145619 
L 470.717171 556.591338 
L 471.395532 555.993282 
L 472.035002 555.353812 
L 472.633058 554.675451 
L 473.187338 553.960877 
L 473.695657 553.212909 
L 474.156007 552.434499 
L 474.566572 551.62872 
L 474.925732 550.798751 
L 475.232069 549.947868 
L 475.484374 549.079429 
L 505.604179 415.071856 
L 505.801456 414.189289 
L 505.942927 413.296075 
L 506.028034 412.395742 
L 506.05644 411.49184 
L 506.028034 410.587939 
L 505.942927 409.687606 
L 505.801456 408.794392 
L 505.604179 407.911825 
L 505.351874 407.043385 
L 505.045537 406.192502 
L 504.686378 405.362533 
L 504.275812 404.556754 
L 503.815462 403.778344 
L 503.307144 403.030376 
L 325.110111 171.502918 
L 324.55583 170.788343 
L 323.957775 170.109983 
L 323.318305 169.470512 
L 322.639944 168.872457 
L 321.925369 168.318176 
L 321.177401 167.809857 
L 320.398991 167.349507 
L 319.593212 166.938942 
L 318.763243 166.579782 
L 317.91236 166.273446 
L 317.043921 166.021141 
L 316.161353 165.823863 
L 315.26814 165.682392 
L 314.367806 165.597286 
L 313.463905 165.56888 
L 312.560004 165.597286 
L 311.65967 165.682392 
L 310.766457 165.823863 
L 309.883889 166.021141 
L 309.01545 166.273446 
L 308.164567 166.579782 
L 307.334598 166.938942 
L 306.528818 167.349507 
L 305.750409 167.809857 
L 305.00244 168.318176 
L 304.287866 168.872457 
L 303.609505 169.470512 
L 302.970035 170.109983 
L 120.676674 359.782146 
L 120.078619 360.460507 
L 119.524338 361.175082 
L 119.016019 361.92305 
L 118.555669 362.70146 
L 118.145104 363.507239 
L 117.785944 364.337208 
L 117.479607 365.188091 
L 117.227302 366.05653 
L 117.030025 366.939098 
L 116.888554 367.832311 
L 116.803448 368.732645 
L 116.775041 369.636546 
L 116.803448 370.540447 
L 116.888554 371.440781 
L 117.030025 372.333994 
L 117.227302 373.216562 
L 117.479607 374.085001 
z
" clip-path="url(#pc554e67f7a)" style="fill: #f59e0b; fill-opacity: 0.13; stroke: #d97706; stroke-opacity: 0.13; stroke-width: 0.8"/>
   </g>
   <g id="LineCollection_1"/>
   <g id="PathCollection_1">
    <defs>
     <path id="m82c9e98f7c" d="M 0 6 
C 1.591219 6 3.117479 5.367802 4.242641 4.242641 
C 5.367802 3.117479 6 1.591219 6 0 
C 6 -1.591219 5.367802 -3.117479 4.242641 -4.242641 
C 3.117479 -5.367802 1.591219 -6 0 -6 
C -1.591219 -6 -3.117479 -5.367802 -4.242641 -4.242641 
C -5.367802 -3.117479 -6 -1.591219 -6 0 
C -6 1.591219 -5.367802 3.117479 -4.242641 4.242641 
C -3.117479 5.367802 -1.591219 6 0 6 
z
" style="stroke: #334155; stroke-width: 0.8"/>
    </defs>
    <g clip-path="url(#pc554e67f7a)">
     <use xlink:href="#m82c9e98f7c" x="251.61677" y="667.795618" style="fill: #38bdf8; stroke: #334155; stroke-width: 0.8"/>
     <use xlink:href="#m82c9e98f7c" x="513.359841" y="216.630467" style="fill: #38bdf8; stroke: #334155; stroke-width: 0.8"/>
     <use xlink:href="#m82c9e98f7c" x="449.527305" y="540.431129" style="fill: #38bdf8; stroke: #334155; stroke-width: 0.8"/>
     <use xlink:href="#m82c9e98f7c" x="275.024286" y="410.659383" style="fill: #38bdf8; stroke: #334155; stroke-width: 0.8"/>
     <use xlink:href="#m82c9e98f7c" x="368.376351" y="342.804565" style="fill: #38bdf8; stroke: #334155; stroke-width: 0.8"/>
     <use xlink:href="#m82c9e98f7c" x="267.906325" y="312.719041" style="fill: #38bdf8; stroke: #334155; stroke-width: 0.8"/>
     <use xlink:href="#m82c9e98f7c" x="491.660937" y="411.49184" style="fill: #38bdf8; stroke: #334155; stroke-width: 0.8"/>
     <use xlink:href="#m82c9e98f7c" x="207.142978" y="480.668526" style="fill: #38bdf8; stroke: #334155; stroke-width: 0.8"/>
     <use xlink:href="#m82c9e98f7c" x="449.616998" y="540.475075" style="fill: #38bdf8; stroke: #334155; stroke-width: 0.8"/>
     <use xlink:href="#m82c9e98f7c" x="388.66847" y="447.611126" style="fill: #38bdf8; stroke: #334155; stroke-width: 0.8"/>
     <use xlink:href="#m82c9e98f7c" x="403.105743" y="457.085377" style="fill: #38bdf8; stroke: #334155; stroke-width: 0.8"/>
     <use xlink:href="#m82c9e98f7c" x="270.997702" y="412.191664" style="fill: #38bdf8; stroke: #334155; stroke-width: 0.8"/>
     <use xlink:href="#m82c9e98f7c" x="317.613442" y="539.940529" style="fill: #38bdf8; stroke: #334155; stroke-width: 0.8"/>
     <use xlink:href="#m82c9e98f7c" x="412.149046" y="324.428237" style="fill: #38bdf8; stroke: #334155; stroke-width: 0.8"/>
     <use xlink:href="#m82c9e98f7c" x="205.588696" y="533.60483" style="fill: #38bdf8; stroke: #334155; stroke-width: 0.8"/>
     <use xlink:href="#m82c9e98f7c" x="285.466291" y="284.78532" style="fill: #38bdf8; stroke: #334155; stroke-width: 0.8"/>
     <use xlink:href="#m82c9e98f7c" x="384.472693" y="656.732634" style="fill: #38bdf8; stroke: #334155; stroke-width: 0.8"/>
     <use xlink:href="#m82c9e98f7c" x="616.321333" y="524.237862" style="fill: #38bdf8; stroke: #334155; stroke-width: 0.8"/>
     <use xlink:href="#m82c9e98f7c" x="497.403603" y="414.687852" style="fill: #38bdf8; stroke: #334155; stroke-width: 0.8"/>
     <use xlink:href="#m82c9e98f7c" x="314.457518" y="514.538621" style="fill: #38bdf8; stroke: #334155; stroke-width: 0.8"/>
     <use xlink:href="#m82c9e98f7c" x="260.608428" y="645.656545" style="fill: #38bdf8; stroke: #334155; stroke-width: 0.8"/>
     <use xlink:href="#m82c9e98f7c" x="372.22157" y="649.06258" style="fill: #38bdf8; stroke: #334155; stroke-width: 0.8"/>
     <use xlink:href="#m82c9e98f7c" x="313.463905" y="179.964382" style="fill: #38bdf8; stroke: #334155; stroke-width: 0.8"/>
     <use xlink:href="#m82c9e98f7c" x="538.234747" y="310.441878" style="fill: #38bdf8; stroke: #334155; stroke-width: 0.8"/>
     <use xlink:href="#m82c9e98f7c" x="131.170544" y="369.636546" style="fill: #38bdf8; stroke: #334155; stroke-width: 0.8"/>
     <use xlink:href="#m82c9e98f7c" x="389.330745" y="222.798853" style="fill: #38bdf8; stroke: #334155; stroke-width: 0.8"/>
     <use xlink:href="#m82c9e98f7c" x="168.7538" y="345.854137" style="fill: #38bdf8; stroke: #334155; stroke-width: 0.8"/>
     <use xlink:href="#m82c9e98f7c" x="66.086777" y="430.535271" style="fill: #38bdf8; stroke: #334155; stroke-width: 0.8"/>
     <use xlink:href="#m82c9e98f7c" x="190.749193" y="223.607675" style="fill: #38bdf8; stroke: #334155; stroke-width: 0.8"/>
     <use xlink:href="#m82c9e98f7c" x="380.077295" y="326.293691" style="fill: #38bdf8; stroke: #334155; stroke-width: 0.8"/>
     <use xlink:href="#m82c9e98f7c" x="461.541132" y="545.499413" style="fill: #38bdf8; stroke: #334155; stroke-width: 0.8"/>
     <use xlink:href="#m82c9e98f7c" x="145.181835" y="615.61998" style="fill: #38bdf8; stroke: #334155; stroke-width: 0.8"/>
     <use xlink:href="#m82c9e98f7c" x="626.913223" y="396.199107" style="fill: #38bdf8; stroke: #334155; stroke-width: 0.8"/>
     <use xlink:href="#m82c9e98f7c" x="111.298138" y="529.034635" style="fill: #38bdf8; stroke: #334155; stroke-width: 0.8"/>
    </g>
   </g>
   <g id="text_2">
    <g clip-path="url(#pc554e67f7a)">
     <text style="font-size: 8.2px; font-family: 'DejaVu Sans', 'Bitstream Vera Sans', 'Computer Modern Sans Serif', 'Lucida Grande', 'Verdana', 'Geneva', 'Lucid', 'Arial', 'Helvetica', 'Avant Garde', sans-serif; text-anchor: middle; fill: #111827" x="275.024286" y="412.922071" transform="rotate(-0 275.024286 412.922071)">fair</text>
    </g>
   </g>
   <g id="text_3">
    <g clip-path="url(#pc554e67f7a)">
     <text style="font-size: 8.2px; font-family: 'DejaVu Sans', 'Bitstream Vera Sans', 'Computer Modern Sans Serif', 'Lucida Grande', 'Verdana', 'Geneva', 'Lucid', 'Arial', 'Helvetica', 'Avant Garde', sans-serif; text-anchor: middle; fill: #111827" x="384.472693" y="658.995321" transform="rotate(-0 384.472693 658.995321)">sacred</text>
    </g>
   </g>
   <g id="text_4">
    <g clip-path="url(#pc554e67f7a)">
     <text style="font-size: 8.2px; font-family: 'DejaVu Sans', 'Bitstream Vera Sans', 'Computer Modern Sans Serif', 'Lucida Grande', 'Verdana', 'Geneva', 'Lucid', 'Arial', 'Helvetica', 'Avant Garde', sans-serif; text-anchor: middle; fill: #111827" x="270.997702" y="414.454352" transform="rotate(-0 270.997702 414.454352)">long</text>
    </g>
   </g>
   <g id="text_5">
    <g clip-path="url(#pc554e67f7a)">
     <text style="font-size: 8.2px; font-family: 'DejaVu Sans', 'Bitstream Vera Sans', 'Computer Modern Sans Serif', 'Lucida Grande', 'Verdana', 'Geneva', 'Lucid', 'Arial', 'Helvetica', 'Avant Garde', sans-serif; text-anchor: middle; fill: #111827" x="388.66847" y="449.873814" transform="rotate(-0 388.66847 449.873814)">high</text>
    </g>
   </g>
   <g id="text_6">
    <g clip-path="url(#pc554e67f7a)">
     <text style="font-size: 8.2px; font-family: 'DejaVu Sans', 'Bitstream Vera Sans', 'Computer Modern Sans Serif', 'Lucida Grande', 'Verdana', 'Geneva', 'Lucid', 'Arial', 'Helvetica', 'Avant Garde', sans-serif; text-anchor: middle; fill: #111827" x="372.22157" y="651.325268" transform="rotate(-0 372.22157 651.325268)">young</text>
    </g>
   </g>
   <g id="text_7">
    <g clip-path="url(#pc554e67f7a)">
     <text style="font-size: 8.2px; font-family: 'DejaVu Sans', 'Bitstream Vera Sans', 'Computer Modern Sans Serif', 'Lucida Grande', 'Verdana', 'Geneva', 'Lucid', 'Arial', 'Helvetica', 'Avant Garde', sans-serif; text-anchor: middle; fill: #111827" x="513.359841" y="218.893155" transform="rotate(-0 513.359841 218.893155)">bright</text>
    </g>
   </g>
   <g id="text_8">
    <g clip-path="url(#pc554e67f7a)">
     <text style="font-size: 8.2px; font-family: 'DejaVu Sans', 'Bitstream Vera Sans', 'Computer Modern Sans Serif', 'Lucida Grande', 'Verdana', 'Geneva', 'Lucid', 'Arial', 'Helvetica', 'Avant Garde', sans-serif; text-anchor: middle; fill: #111827" x="412.149046" y="326.690924" transform="rotate(-0 412.149046 326.690924)">old</text>
    </g>
   </g>
   <g id="text_9">
    <g clip-path="url(#pc554e67f7a)">
     <text style="font-size: 8.2px; font-family: 'DejaVu Sans', 'Bitstream Vera Sans', 'Computer Modern Sans Serif', 'Lucida Grande', 'Verdana', 'Geneva', 'Lucid', 'Arial', 'Helvetica', 'Avant Garde', sans-serif; text-anchor: middle; fill: #111827" x="205.588696" y="535.867517" transform="rotate(-0 205.588696 535.867517)">royal</text>
    </g>
   </g>
   <g id="text_10">
    <g clip-path="url(#pc554e67f7a)">
     <text style="font-size: 8.2px; font-family: 'DejaVu Sans', 'Bitstream Vera Sans', 'Computer Modern Sans Serif', 'Lucida Grande', 'Verdana', 'Geneva', 'Lucid', 'Arial', 'Helvetica', 'Avant Garde', sans-serif; text-anchor: middle; fill: #111827" x="260.608428" y="647.919232" transform="rotate(-0 260.608428 647.919232)">wise</text>
    </g>
   </g>
   <g id="text_11">
    <g clip-path="url(#pc554e67f7a)">
     <text style="font-size: 8.2px; font-family: 'DejaVu Sans', 'Bitstream Vera Sans', 'Computer Modern Sans Serif', 'Lucida Grande', 'Verdana', 'Geneva', 'Lucid', 'Arial', 'Helvetica', 'Avant Garde', sans-serif; text-anchor: middle; fill: #111827" x="449.616998" y="542.737763" transform="rotate(-0 449.616998 542.737763)">great</text>
    </g>
   </g>
   <g id="text_12">
    <g clip-path="url(#pc554e67f7a)">
     <text style="font-size: 8.2px; font-family: 'DejaVu Sans', 'Bitstream Vera Sans', 'Computer Modern Sans Serif', 'Lucida Grande', 'Verdana', 'Geneva', 'Lucid', 'Arial', 'Helvetica', 'Avant Garde', sans-serif; text-anchor: middle; fill: #111827" x="368.376351" y="345.067253" transform="rotate(-0 368.376351 345.067253)">faithful</text>
    </g>
   </g>
   <g id="text_13">
    <g clip-path="url(#pc554e67f7a)">
     <text style="font-size: 8.2px; font-family: 'DejaVu Sans', 'Bitstream Vera Sans', 'Computer Modern Sans Serif', 'Lucida Grande', 'Verdana', 'Geneva', 'Lucid', 'Arial', 'Helvetica', 'Avant Garde', sans-serif; text-anchor: middle; fill: #111827" x="380.077295" y="328.556378" transform="rotate(-0 380.077295 328.556378)">sad</text>
    </g>
   </g>
   <g id="text_14">
    <g clip-path="url(#pc554e67f7a)">
     <text style="font-size: 8.2px; font-family: 'DejaVu Sans', 'Bitstream Vera Sans', 'Computer Modern Sans Serif', 'Lucida Grande', 'Verdana', 'Geneva', 'Lucid', 'Arial', 'Helvetica', 'Avant Garde', sans-serif; text-anchor: middle; fill: #111827" x="314.457518" y="516.801309" transform="rotate(-0 314.457518 516.801309)">wide</text>
    </g>
   </g>
   <g id="text_15">
    <g clip-path="url(#pc554e67f7a)">
     <text style="font-size: 8.2px; font-family: 'DejaVu Sans', 'Bitstream Vera Sans', 'Computer Modern Sans Serif', 'Lucida Grande', 'Verdana', 'Geneva', 'Lucid', 'Arial', 'Helvetica', 'Avant Garde', sans-serif; text-anchor: middle; fill: #111827" x="449.527305" y="542.693816" transform="rotate(-0 449.527305 542.693816)">divine</text>
    </g>
   </g>
   <g id="text_16">
    <g clip-path="url(#pc554e67f7a)">
     <text style="font-size: 8.2px; font-family: 'DejaVu Sans', 'Bitstream Vera Sans', 'Computer Modern Sans Serif', 'Lucida Grande', 'Verdana', 'Geneva', 'Lucid', 'Arial', 'Helvetica', 'Avant Garde', sans-serif; text-anchor: middle; fill: #111827" x="317.613442" y="542.203216" transform="rotate(-0 317.613442 542.203216)">mighty</text>
    </g>
   </g>
   <g id="text_17">
    <g clip-path="url(#pc554e67f7a)">
     <text style="font-size: 8.2px; font-family: 'DejaVu Sans', 'Bitstream Vera Sans', 'Computer Modern Sans Serif', 'Lucida Grande', 'Verdana', 'Geneva', 'Lucid', 'Arial', 'Helvetica', 'Avant Garde', sans-serif; text-anchor: middle; fill: #111827" x="538.234747" y="312.704565" transform="rotate(-0 538.234747 312.704565)">deep</text>
    </g>
   </g>
  </g>
  <g id="axes_2">
   <g id="LineCollection_2">
    <path d="M 1088.685286 330.338253 
L 1063.024167 458.898052 
" clip-path="url(#p26d755cbce)" style="fill: none; stroke: #64748b; stroke-width: 0.65"/>
    <path d="M 1161.384625 577.917396 
L 1063.024167 458.898052 
" clip-path="url(#p26d755cbce)" style="fill: none; stroke: #64748b; stroke-width: 0.65"/>
    <path d="M 1024.348504 332.201717 
L 1063.024167 458.898052 
" clip-path="url(#p26d755cbce)" style="fill: none; stroke: #64748b; stroke-width: 0.65"/>
    <path d="M 973.437104 383.60381 
L 1063.024167 458.898052 
" clip-path="url(#p26d755cbce)" style="fill: none; stroke: #64748b; stroke-width: 0.65"/>
    <path d="M 1058.554452 539.746496 
L 1063.024167 458.898052 
" clip-path="url(#p26d755cbce)" style="fill: none; stroke: #64748b; stroke-width: 0.65"/>
    <path d="M 1179.164678 481.075556 
L 1063.024167 458.898052 
" clip-path="url(#p26d755cbce)" style="fill: none; stroke: #64748b; stroke-width: 0.65"/>
    <path d="M 1102.371714 260.965393 
L 1063.024167 458.898052 
" clip-path="url(#p26d755cbce)" style="fill: none; stroke: #64748b; stroke-width: 0.65"/>
    <path d="M 1100.593007 540.413314 
L 1063.024167 458.898052 
" clip-path="url(#p26d755cbce)" style="fill: none; stroke: #64748b; stroke-width: 0.65"/>
    <path d="M 1111.52849 503.84976 
L 1063.024167 458.898052 
" clip-path="url(#p26d755cbce)" style="fill: none; stroke: #64748b; stroke-width: 0.65"/>
    <path d="M 1023.543277 290.915129 
L 1063.024167 458.898052 
" clip-path="url(#p26d755cbce)" style="fill: none; stroke: #64748b; stroke-width: 0.65"/>
    <path d="M 1148.922548 347.20437 
L 1063.024167 458.898052 
" clip-path="url(#p26d755cbce)" style="fill: none; stroke: #64748b; stroke-width: 0.65"/>
    <path d="M 856.022474 524.705071 
L 1063.024167 458.898052 
" clip-path="url(#p26d755cbce)" style="fill: none; stroke: #64748b; stroke-width: 0.65"/>
    <path d="M 1183.807988 413.320297 
L 1063.024167 458.898052 
" clip-path="url(#p26d755cbce)" style="fill: none; stroke: #64748b; stroke-width: 0.65"/>
    <path d="M 1001.340837 542.966097 
L 1063.024167 458.898052 
" clip-path="url(#p26d755cbce)" style="fill: none; stroke: #64748b; stroke-width: 0.65"/>
    <path d="M 963.937978 285.152095 
L 1063.024167 458.898052 
" clip-path="url(#p26d755cbce)" style="fill: none; stroke: #64748b; stroke-width: 0.65"/>
    <path d="M 956.036225 339.24113 
L 1063.024167 458.898052 
" clip-path="url(#p26d755cbce)" style="fill: none; stroke: #64748b; stroke-width: 0.65"/>
    <path d="M 975.69691 573.094497 
L 1063.024167 458.898052 
" clip-path="url(#p26d755cbce)" style="fill: none; stroke: #64748b; stroke-width: 0.65"/>
    <path d="M 1242.932023 454.659421 
L 1063.024167 458.898052 
" clip-path="url(#p26d755cbce)" style="fill: none; stroke: #64748b; stroke-width: 0.65"/>
    <path d="M 984.508616 609.153572 
L 1063.024167 458.898052 
" clip-path="url(#p26d755cbce)" style="fill: none; stroke: #64748b; stroke-width: 0.65"/>
    <path d="M 923.447351 384.180199 
L 1063.024167 458.898052 
" clip-path="url(#p26d755cbce)" style="fill: none; stroke: #64748b; stroke-width: 0.65"/>
    <path d="M 934.046769 478.878784 
L 1063.024167 458.898052 
" clip-path="url(#p26d755cbce)" style="fill: none; stroke: #64748b; stroke-width: 0.65"/>
    <path d="M 919.312964 436.834475 
L 1063.024167 458.898052 
" clip-path="url(#p26d755cbce)" style="fill: none; stroke: #64748b; stroke-width: 0.65"/>
    <path d="M 1088.685286 330.338253 
L 1111.551844 399.415502 
" clip-path="url(#p26d755cbce)" style="fill: none; stroke: #64748b; stroke-width: 0.65"/>
    <path d="M 1161.384625 577.917396 
L 1111.551844 399.415502 
" clip-path="url(#p26d755cbce)" style="fill: none; stroke: #64748b; stroke-width: 0.65"/>
    <path d="M 973.437104 383.60381 
L 1111.551844 399.415502 
" clip-path="url(#p26d755cbce)" style="fill: none; stroke: #64748b; stroke-width: 0.65"/>
    <path d="M 1058.554452 539.746496 
L 1111.551844 399.415502 
" clip-path="url(#p26d755cbce)" style="fill: none; stroke: #64748b; stroke-width: 0.65"/>
    <path d="M 887.324666 469.589774 
L 1111.551844 399.415502 
" clip-path="url(#p26d755cbce)" style="fill: none; stroke: #64748b; stroke-width: 0.65"/>
    <path d="M 1179.164678 481.075556 
L 1111.551844 399.415502 
" clip-path="url(#p26d755cbce)" style="fill: none; stroke: #64748b; stroke-width: 0.65"/>
    <path d="M 1100.593007 540.413314 
L 1111.551844 399.415502 
" clip-path="url(#p26d755cbce)" style="fill: none; stroke: #64748b; stroke-width: 0.65"/>
    <path d="M 1183.483519 278.463706 
L 1111.551844 399.415502 
" clip-path="url(#p26d755cbce)" style="fill: none; stroke: #64748b; stroke-width: 0.65"/>
    <path d="M 1111.52849 503.84976 
L 1111.551844 399.415502 
" clip-path="url(#p26d755cbce)" style="fill: none; stroke: #64748b; stroke-width: 0.65"/>
    <path d="M 1023.543277 290.915129 
L 1111.551844 399.415502 
" clip-path="url(#p26d755cbce)" style="fill: none; stroke: #64748b; stroke-width: 0.65"/>
    <path d="M 1148.922548 347.20437 
L 1111.551844 399.415502 
" clip-path="url(#p26d755cbce)" style="fill: none; stroke: #64748b; stroke-width: 0.65"/>
    <path d="M 1102.164712 586.319618 
L 1111.551844 399.415502 
" clip-path="url(#p26d755cbce)" style="fill: none; stroke: #64748b; stroke-width: 0.65"/>
    <path d="M 956.036225 339.24113 
L 1111.551844 399.415502 
" clip-path="url(#p26d755cbce)" style="fill: none; stroke: #64748b; stroke-width: 0.65"/>
    <path d="M 1242.932023 454.659421 
L 1111.551844 399.415502 
" clip-path="url(#p26d755cbce)" style="fill: none; stroke: #64748b; stroke-width: 0.65"/>
    <path d="M 1201.616244 337.496783 
L 1111.551844 399.415502 
" clip-path="url(#p26d755cbce)" style="fill: none; stroke: #64748b; stroke-width: 0.65"/>
    <path d="M 1192.698723 546.601014 
L 1111.551844 399.415502 
" clip-path="url(#p26d755cbce)" style="fill: none; stroke: #64748b; stroke-width: 0.65"/>
    <path d="M 1069.146178 285.747794 
L 1111.551844 399.415502 
" clip-path="url(#p26d755cbce)" style="fill: none; stroke: #64748b; stroke-width: 0.65"/>
    <path d="M 1043.057536 216.48944 
L 1111.551844 399.415502 
" clip-path="url(#p26d755cbce)" style="fill: none; stroke: #64748b; stroke-width: 0.65"/>
    <path d="M 890.214879 411.483876 
L 1111.551844 399.415502 
" clip-path="url(#p26d755cbce)" style="fill: none; stroke: #64748b; stroke-width: 0.65"/>
    <path d="M 919.312964 436.834475 
L 1111.551844 399.415502 
" clip-path="url(#p26d755cbce)" style="fill: none; stroke: #64748b; stroke-width: 0.65"/>
    <path d="M 1088.685286 330.338253 
L 891.087678 231.167746 
" clip-path="url(#p26d755cbce)" style="fill: none; stroke: #64748b; stroke-width: 0.65"/>
    <path d="M 963.937978 285.152095 
L 891.087678 231.167746 
" clip-path="url(#p26d755cbce)" style="fill: none; stroke: #64748b; stroke-width: 0.65"/>
    <path d="M 973.437104 383.60381 
L 891.087678 231.167746 
" clip-path="url(#p26d755cbce)" style="fill: none; stroke: #64748b; stroke-width: 0.65"/>
    <path d="M 902.37151 349.218556 
L 891.087678 231.167746 
" clip-path="url(#p26d755cbce)" style="fill: none; stroke: #64748b; stroke-width: 0.65"/>
    <path d="M 887.324666 469.589774 
L 891.087678 231.167746 
" clip-path="url(#p26d755cbce)" style="fill: none; stroke: #64748b; stroke-width: 0.65"/>
    <path d="M 1102.371714 260.965393 
L 891.087678 231.167746 
" clip-path="url(#p26d755cbce)" style="fill: none; stroke: #64748b; stroke-width: 0.65"/>
    <path d="M 923.447351 384.180199 
L 891.087678 231.167746 
" clip-path="url(#p26d755cbce)" style="fill: none; stroke: #64748b; stroke-width: 0.65"/>
    <path d="M 1069.146178 285.747794 
L 891.087678 231.167746 
" clip-path="url(#p26d755cbce)" style="fill: none; stroke: #64748b; stroke-width: 0.65"/>
    <path d="M 1023.543277 290.915129 
L 891.087678 231.167746 
" clip-path="url(#p26d755cbce)" style="fill: none; stroke: #64748b; stroke-width: 0.65"/>
    <path d="M 1043.057536 216.48944 
L 891.087678 231.167746 
" clip-path="url(#p26d755cbce)" style="fill: none; stroke: #64748b; stroke-width: 0.65"/>
    <path d="M 934.046769 478.878784 
L 891.087678 231.167746 
" clip-path="url(#p26d755cbce)" style="fill: none; stroke: #64748b; stroke-width: 0.65"/>
    <path d="M 919.312964 436.834475 
L 891.087678 231.167746 
" clip-path="url(#p26d755cbce)" style="fill: none; stroke: #64748b; stroke-width: 0.65"/>
    <path d="M 956.036225 339.24113 
L 913.16041 558.19111 
" clip-path="url(#p26d755cbce)" style="fill: none; stroke: #64748b; stroke-width: 0.65"/>
    <path d="M 973.437104 383.60381 
L 913.16041 558.19111 
" clip-path="url(#p26d755cbce)" style="fill: none; stroke: #64748b; stroke-width: 0.65"/>
    <path d="M 902.37151 349.218556 
L 913.16041 558.19111 
" clip-path="url(#p26d755cbce)" style="fill: none; stroke: #64748b; stroke-width: 0.65"/>
    <path d="M 887.324666 469.589774 
L 913.16041 558.19111 
" clip-path="url(#p26d755cbce)" style="fill: none; stroke: #64748b; stroke-width: 0.65"/>
    <path d="M 1100.593007 540.413314 
L 913.16041 558.19111 
" clip-path="url(#p26d755cbce)" style="fill: none; stroke: #64748b; stroke-width: 0.65"/>
    <path d="M 984.508616 609.153572 
L 913.16041 558.19111 
" clip-path="url(#p26d755cbce)" style="fill: none; stroke: #64748b; stroke-width: 0.65"/>
    <path d="M 1049.244285 631.27056 
L 913.16041 558.19111 
" clip-path="url(#p26d755cbce)" style="fill: none; stroke: #64748b; stroke-width: 0.65"/>
    <path d="M 923.447351 384.180199 
L 913.16041 558.19111 
" clip-path="url(#p26d755cbce)" style="fill: none; stroke: #64748b; stroke-width: 0.65"/>
    <path d="M 1111.52849 503.84976 
L 913.16041 558.19111 
" clip-path="url(#p26d755cbce)" style="fill: none; stroke: #64748b; stroke-width: 0.65"/>
    <path d="M 1192.698723 546.601014 
L 913.16041 558.19111 
" clip-path="url(#p26d755cbce)" style="fill: none; stroke: #64748b; stroke-width: 0.65"/>
    <path d="M 934.046769 478.878784 
L 913.16041 558.19111 
" clip-path="url(#p26d755cbce)" style="fill: none; stroke: #64748b; stroke-width: 0.65"/>
    <path d="M 890.214879 411.483876 
L 913.16041 558.19111 
" clip-path="url(#p26d755cbce)" style="fill: none; stroke: #64748b; stroke-width: 0.65"/>
    <path d="M 1001.340837 542.966097 
L 913.16041 558.19111 
" clip-path="url(#p26d755cbce)" style="fill: none; stroke: #64748b; stroke-width: 0.65"/>
    <path d="M 919.312964 436.834475 
L 913.16041 558.19111 
" clip-path="url(#p26d755cbce)" style="fill: none; stroke: #64748b; stroke-width: 0.65"/>
    <path d="M 1088.685286 330.338253 
L 1035.835994 437.456681 
" clip-path="url(#p26d755cbce)" style="fill: none; stroke: #64748b; stroke-width: 0.65"/>
    <path d="M 1024.348504 332.201717 
L 1035.835994 437.456681 
" clip-path="url(#p26d755cbce)" style="fill: none; stroke: #64748b; stroke-width: 0.65"/>
    <path d="M 973.437104 383.60381 
L 1035.835994 437.456681 
" clip-path="url(#p26d755cbce)" style="fill: none; stroke: #64748b; stroke-width: 0.65"/>
    <path d="M 828.867977 399.990601 
L 1035.835994 437.456681 
" clip-path="url(#p26d755cbce)" style="fill: none; stroke: #64748b; stroke-width: 0.65"/>
    <path d="M 902.37151 349.218556 
L 1035.835994 437.456681 
" clip-path="url(#p26d755cbce)" style="fill: none; stroke: #64748b; stroke-width: 0.65"/>
    <path d="M 1058.554452 539.746496 
L 1035.835994 437.456681 
" clip-path="url(#p26d755cbce)" style="fill: none; stroke: #64748b; stroke-width: 0.65"/>
    <path d="M 1102.371714 260.965393 
L 1035.835994 437.456681 
" clip-path="url(#p26d755cbce)" style="fill: none; stroke: #64748b; stroke-width: 0.65"/>
    <path d="M 1100.593007 540.413314 
L 1035.835994 437.456681 
" clip-path="url(#p26d755cbce)" style="fill: none; stroke: #64748b; stroke-width: 0.65"/>
    <path d="M 1233.329453 393.844951 
L 1035.835994 437.456681 
" clip-path="url(#p26d755cbce)" style="fill: none; stroke: #64748b; stroke-width: 0.65"/>
    <path d="M 1111.52849 503.84976 
L 1035.835994 437.456681 
" clip-path="url(#p26d755cbce)" style="fill: none; stroke: #64748b; stroke-width: 0.65"/>
    <path d="M 1148.922548 347.20437 
L 1035.835994 437.456681 
" clip-path="url(#p26d755cbce)" style="fill: none; stroke: #64748b; stroke-width: 0.65"/>
    <path d="M 1183.807988 413.320297 
L 1035.835994 437.456681 
" clip-path="url(#p26d755cbce)" style="fill: none; stroke: #64748b; stroke-width: 0.65"/>
    <path d="M 1001.340837 542.966097 
L 1035.835994 437.456681 
" clip-path="url(#p26d755cbce)" style="fill: none; stroke: #64748b; stroke-width: 0.65"/>
    <path d="M 1102.164712 586.319618 
L 1035.835994 437.456681 
" clip-path="url(#p26d755cbce)" style="fill: none; stroke: #64748b; stroke-width: 0.65"/>
    <path d="M 956.036225 339.24113 
L 1035.835994 437.456681 
" clip-path="url(#p26d755cbce)" style="fill: none; stroke: #64748b; stroke-width: 0.65"/>
    <path d="M 975.69691 573.094497 
L 1035.835994 437.456681 
" clip-path="url(#p26d755cbce)" style="fill: none; stroke: #64748b; stroke-width: 0.65"/>
    <path d="M 984.508616 609.153572 
L 1035.835994 437.456681 
" clip-path="url(#p26d755cbce)" style="fill: none; stroke: #64748b; stroke-width: 0.65"/>
    <path d="M 1192.698723 546.601014 
L 1035.835994 437.456681 
" clip-path="url(#p26d755cbce)" style="fill: none; stroke: #64748b; stroke-width: 0.65"/>
    <path d="M 923.447351 384.180199 
L 1035.835994 437.456681 
" clip-path="url(#p26d755cbce)" style="fill: none; stroke: #64748b; stroke-width: 0.65"/>
    <path d="M 1069.146178 285.747794 
L 1035.835994 437.456681 
" clip-path="url(#p26d755cbce)" style="fill: none; stroke: #64748b; stroke-width: 0.65"/>
    <path d="M 934.046769 478.878784 
L 1035.835994 437.456681 
" clip-path="url(#p26d755cbce)" style="fill: none; stroke: #64748b; stroke-width: 0.65"/>
    <path d="M 890.214879 411.483876 
L 1035.835994 437.456681 
" clip-path="url(#p26d755cbce)" style="fill: none; stroke: #64748b; stroke-width: 0.65"/>
    <path d="M 919.312964 436.834475 
L 1035.835994 437.456681 
" clip-path="url(#p26d755cbce)" style="fill: none; stroke: #64748b; stroke-width: 0.65"/>
    <path d="M 1088.685286 330.338253 
L 1056.468002 419.307292 
" clip-path="url(#p26d755cbce)" style="fill: none; stroke: #64748b; stroke-width: 0.65"/>
    <path d="M 1161.384625 577.917396 
L 1056.468002 419.307292 
" clip-path="url(#p26d755cbce)" style="fill: none; stroke: #64748b; stroke-width: 0.65"/>
    <path d="M 1024.348504 332.201717 
L 1056.468002 419.307292 
" clip-path="url(#p26d755cbce)" style="fill: none; stroke: #64748b; stroke-width: 0.65"/>
    <path d="M 973.437104 383.60381 
L 1056.468002 419.307292 
" clip-path="url(#p26d755cbce)" style="fill: none; stroke: #64748b; stroke-width: 0.65"/>
    <path d="M 1058.554452 539.746496 
L 1056.468002 419.307292 
" clip-path="url(#p26d755cbce)" style="fill: none; stroke: #64748b; stroke-width: 0.65"/>
    <path d="M 902.37151 349.218556 
L 1056.468002 419.307292 
" clip-path="url(#p26d755cbce)" style="fill: none; stroke: #64748b; stroke-width: 0.65"/>
    <path d="M 887.324666 469.589774 
L 1056.468002 419.307292 
" clip-path="url(#p26d755cbce)" style="fill: none; stroke: #64748b; stroke-width: 0.65"/>
    <path d="M 1179.164678 481.075556 
L 1056.468002 419.307292 
" clip-path="url(#p26d755cbce)" style="fill: none; stroke: #64748b; stroke-width: 0.65"/>
    <path d="M 1102.371714 260.965393 
L 1056.468002 419.307292 
" clip-path="url(#p26d755cbce)" style="fill: none; stroke: #64748b; stroke-width: 0.65"/>
    <path d="M 1100.593007 540.413314 
L 1056.468002 419.307292 
" clip-path="url(#p26d755cbce)" style="fill: none; stroke: #64748b; stroke-width: 0.65"/>
    <path d="M 1049.244285 631.27056 
L 1056.468002 419.307292 
" clip-path="url(#p26d755cbce)" style="fill: none; stroke: #64748b; stroke-width: 0.65"/>
    <path d="M 1183.483519 278.463706 
L 1056.468002 419.307292 
" clip-path="url(#p26d755cbce)" style="fill: none; stroke: #64748b; stroke-width: 0.65"/>
    <path d="M 1233.329453 393.844951 
L 1056.468002 419.307292 
" clip-path="url(#p26d755cbce)" style="fill: none; stroke: #64748b; stroke-width: 0.65"/>
    <path d="M 1111.52849 503.84976 
L 1056.468002 419.307292 
" clip-path="url(#p26d755cbce)" style="fill: none; stroke: #64748b; stroke-width: 0.65"/>
    <path d="M 1023.543277 290.915129 
L 1056.468002 419.307292 
" clip-path="url(#p26d755cbce)" style="fill: none; stroke: #64748b; stroke-width: 0.65"/>
    <path d="M 1148.922548 347.20437 
L 1056.468002 419.307292 
" clip-path="url(#p26d755cbce)" style="fill: none; stroke: #64748b; stroke-width: 0.65"/>
    <path d="M 1183.807988 413.320297 
L 1056.468002 419.307292 
" clip-path="url(#p26d755cbce)" style="fill: none; stroke: #64748b; stroke-width: 0.65"/>
    <path d="M 1001.340837 542.966097 
L 1056.468002 419.307292 
" clip-path="url(#p26d755cbce)" style="fill: none; stroke: #64748b; stroke-width: 0.65"/>
    <path d="M 963.937978 285.152095 
L 1056.468002 419.307292 
" clip-path="url(#p26d755cbce)" style="fill: none; stroke: #64748b; stroke-width: 0.65"/>
    <path d="M 956.036225 339.24113 
L 1056.468002 419.307292 
" clip-path="url(#p26d755cbce)" style="fill: none; stroke: #64748b; stroke-width: 0.65"/>
    <path d="M 975.69691 573.094497 
L 1056.468002 419.307292 
" clip-path="url(#p26d755cbce)" style="fill: none; stroke: #64748b; stroke-width: 0.65"/>
    <path d="M 1201.616244 337.496783 
L 1056.468002 419.307292 
" clip-path="url(#p26d755cbce)" style="fill: none; stroke: #64748b; stroke-width: 0.65"/>
    <path d="M 984.508616 609.153572 
L 1056.468002 419.307292 
" clip-path="url(#p26d755cbce)" style="fill: none; stroke: #64748b; stroke-width: 0.65"/>
    <path d="M 1192.698723 546.601014 
L 1056.468002 419.307292 
" clip-path="url(#p26d755cbce)" style="fill: none; stroke: #64748b; stroke-width: 0.65"/>
    <path d="M 923.447351 384.180199 
L 1056.468002 419.307292 
" clip-path="url(#p26d755cbce)" style="fill: none; stroke: #64748b; stroke-width: 0.65"/>
    <path d="M 1069.146178 285.747794 
L 1056.468002 419.307292 
" clip-path="url(#p26d755cbce)" style="fill: none; stroke: #64748b; stroke-width: 0.65"/>
    <path d="M 1043.057536 216.48944 
L 1056.468002 419.307292 
" clip-path="url(#p26d755cbce)" style="fill: none; stroke: #64748b; stroke-width: 0.65"/>
    <path d="M 934.046769 478.878784 
L 1056.468002 419.307292 
" clip-path="url(#p26d755cbce)" style="fill: none; stroke: #64748b; stroke-width: 0.65"/>
    <path d="M 890.214879 411.483876 
L 1056.468002 419.307292 
" clip-path="url(#p26d755cbce)" style="fill: none; stroke: #64748b; stroke-width: 0.65"/>
    <path d="M 919.312964 436.834475 
L 1056.468002 419.307292 
" clip-path="url(#p26d755cbce)" style="fill: none; stroke: #64748b; stroke-width: 0.65"/>
    <path d="M 1088.685286 330.338253 
L 1040.457455 398.342481 
" clip-path="url(#p26d755cbce)" style="fill: none; stroke: #64748b; stroke-width: 0.65"/>
    <path d="M 1024.348504 332.201717 
L 1040.457455 398.342481 
" clip-path="url(#p26d755cbce)" style="fill: none; stroke: #64748b; stroke-width: 0.65"/>
    <path d="M 973.437104 383.60381 
L 1040.457455 398.342481 
" clip-path="url(#p26d755cbce)" style="fill: none; stroke: #64748b; stroke-width: 0.65"/>
    <path d="M 828.867977 399.990601 
L 1040.457455 398.342481 
" clip-path="url(#p26d755cbce)" style="fill: none; stroke: #64748b; stroke-width: 0.65"/>
    <path d="M 902.37151 349.218556 
L 1040.457455 398.342481 
" clip-path="url(#p26d755cbce)" style="fill: none; stroke: #64748b; stroke-width: 0.65"/>
    <path d="M 1058.554452 539.746496 
L 1040.457455 398.342481 
" clip-path="url(#p26d755cbce)" style="fill: none; stroke: #64748b; stroke-width: 0.65"/>
    <path d="M 1179.164678 481.075556 
L 1040.457455 398.342481 
" clip-path="url(#p26d755cbce)" style="fill: none; stroke: #64748b; stroke-width: 0.65"/>
    <path d="M 1100.593007 540.413314 
L 1040.457455 398.342481 
" clip-path="url(#p26d755cbce)" style="fill: none; stroke: #64748b; stroke-width: 0.65"/>
    <path d="M 1183.483519 278.463706 
L 1040.457455 398.342481 
" clip-path="url(#p26d755cbce)" style="fill: none; stroke: #64748b; stroke-width: 0.65"/>
    <path d="M 1111.52849 503.84976 
L 1040.457455 398.342481 
" clip-path="url(#p26d755cbce)" style="fill: none; stroke: #64748b; stroke-width: 0.65"/>
    <path d="M 1023.543277 290.915129 
L 1040.457455 398.342481 
" clip-path="url(#p26d755cbce)" style="fill: none; stroke: #64748b; stroke-width: 0.65"/>
    <path d="M 1148.922548 347.20437 
L 1040.457455 398.342481 
" clip-path="url(#p26d755cbce)" style="fill: none; stroke: #64748b; stroke-width: 0.65"/>
    <path d="M 856.022474 524.705071 
L 1040.457455 398.342481 
" clip-path="url(#p26d755cbce)" style="fill: none; stroke: #64748b; stroke-width: 0.65"/>
    <path d="M 1183.807988 413.320297 
L 1040.457455 398.342481 
" clip-path="url(#p26d755cbce)" style="fill: none; stroke: #64748b; stroke-width: 0.65"/>
    <path d="M 1001.340837 542.966097 
L 1040.457455 398.342481 
" clip-path="url(#p26d755cbce)" style="fill: none; stroke: #64748b; stroke-width: 0.65"/>
    <path d="M 1102.164712 586.319618 
L 1040.457455 398.342481 
" clip-path="url(#p26d755cbce)" style="fill: none; stroke: #64748b; stroke-width: 0.65"/>
    <path d="M 956.036225 339.24113 
L 1040.457455 398.342481 
" clip-path="url(#p26d755cbce)" style="fill: none; stroke: #64748b; stroke-width: 0.65"/>
    <path d="M 963.937978 285.152095 
L 1040.457455 398.342481 
" clip-path="url(#p26d755cbce)" style="fill: none; stroke: #64748b; stroke-width: 0.65"/>
    <path d="M 1242.932023 454.659421 
L 1040.457455 398.342481 
" clip-path="url(#p26d755cbce)" style="fill: none; stroke: #64748b; stroke-width: 0.65"/>
    <path d="M 1201.616244 337.496783 
L 1040.457455 398.342481 
" clip-path="url(#p26d755cbce)" style="fill: none; stroke: #64748b; stroke-width: 0.65"/>
    <path d="M 923.447351 384.180199 
L 1040.457455 398.342481 
" clip-path="url(#p26d755cbce)" style="fill: none; stroke: #64748b; stroke-width: 0.65"/>
    <path d="M 1069.146178 285.747794 
L 1040.457455 398.342481 
" clip-path="url(#p26d755cbce)" style="fill: none; stroke: #64748b; stroke-width: 0.65"/>
    <path d="M 1043.057536 216.48944 
L 1040.457455 398.342481 
" clip-path="url(#p26d755cbce)" style="fill: none; stroke: #64748b; stroke-width: 0.65"/>
    <path d="M 934.046769 478.878784 
L 1040.457455 398.342481 
" clip-path="url(#p26d755cbce)" style="fill: none; stroke: #64748b; stroke-width: 0.65"/>
    <path d="M 890.214879 411.483876 
L 1040.457455 398.342481 
" clip-path="url(#p26d755cbce)" style="fill: none; stroke: #64748b; stroke-width: 0.65"/>
    <path d="M 1088.685286 330.338253 
L 1138.908347 446.894099 
" clip-path="url(#p26d755cbce)" style="fill: none; stroke: #64748b; stroke-width: 0.65"/>
    <path d="M 1161.384625 577.917396 
L 1138.908347 446.894099 
" clip-path="url(#p26d755cbce)" style="fill: none; stroke: #64748b; stroke-width: 0.65"/>
    <path d="M 1024.348504 332.201717 
L 1138.908347 446.894099 
" clip-path="url(#p26d755cbce)" style="fill: none; stroke: #64748b; stroke-width: 0.65"/>
    <path d="M 973.437104 383.60381 
L 1138.908347 446.894099 
" clip-path="url(#p26d755cbce)" style="fill: none; stroke: #64748b; stroke-width: 0.65"/>
    <path d="M 1058.554452 539.746496 
L 1138.908347 446.894099 
" clip-path="url(#p26d755cbce)" style="fill: none; stroke: #64748b; stroke-width: 0.65"/>
    <path d="M 887.324666 469.589774 
L 1138.908347 446.894099 
" clip-path="url(#p26d755cbce)" style="fill: none; stroke: #64748b; stroke-width: 0.65"/>
    <path d="M 1179.164678 481.075556 
L 1138.908347 446.894099 
" clip-path="url(#p26d755cbce)" style="fill: none; stroke: #64748b; stroke-width: 0.65"/>
    <path d="M 1049.244285 631.27056 
L 1138.908347 446.894099 
" clip-path="url(#p26d755cbce)" style="fill: none; stroke: #64748b; stroke-width: 0.65"/>
    <path d="M 1183.483519 278.463706 
L 1138.908347 446.894099 
" clip-path="url(#p26d755cbce)" style="fill: none; stroke: #64748b; stroke-width: 0.65"/>
    <path d="M 1233.329453 393.844951 
L 1138.908347 446.894099 
" clip-path="url(#p26d755cbce)" style="fill: none; stroke: #64748b; stroke-width: 0.65"/>
    <path d="M 1111.52849 503.84976 
L 1138.908347 446.894099 
" clip-path="url(#p26d755cbce)" style="fill: none; stroke: #64748b; stroke-width: 0.65"/>
    <path d="M 1023.543277 290.915129 
L 1138.908347 446.894099 
" clip-path="url(#p26d755cbce)" style="fill: none; stroke: #64748b; stroke-width: 0.65"/>
    <path d="M 1148.922548 347.20437 
L 1138.908347 446.894099 
" clip-path="url(#p26d755cbce)" style="fill: none; stroke: #64748b; stroke-width: 0.65"/>
    <path d="M 1183.807988 413.320297 
L 1138.908347 446.894099 
" clip-path="url(#p26d755cbce)" style="fill: none; stroke: #64748b; stroke-width: 0.65"/>
    <path d="M 1102.164712 586.319618 
L 1138.908347 446.894099 
" clip-path="url(#p26d755cbce)" style="fill: none; stroke: #64748b; stroke-width: 0.65"/>
    <path d="M 975.69691 573.094497 
L 1138.908347 446.894099 
" clip-path="url(#p26d755cbce)" style="fill: none; stroke: #64748b; stroke-width: 0.65"/>
    <path d="M 1242.932023 454.659421 
L 1138.908347 446.894099 
" clip-path="url(#p26d755cbce)" style="fill: none; stroke: #64748b; stroke-width: 0.65"/>
    <path d="M 1201.616244 337.496783 
L 1138.908347 446.894099 
" clip-path="url(#p26d755cbce)" style="fill: none; stroke: #64748b; stroke-width: 0.65"/>
    <path d="M 1192.698723 546.601014 
L 1138.908347 446.894099 
" clip-path="url(#p26d755cbce)" style="fill: none; stroke: #64748b; stroke-width: 0.65"/>
    <path d="M 1069.146178 285.747794 
L 1138.908347 446.894099 
" clip-path="url(#p26d755cbce)" style="fill: none; stroke: #64748b; stroke-width: 0.65"/>
    <path d="M 1088.685286 330.338253 
L 1002.917963 480.993366 
" clip-path="url(#p26d755cbce)" style="fill: none; stroke: #64748b; stroke-width: 0.65"/>
    <path d="M 1161.384625 577.917396 
L 1002.917963 480.993366 
" clip-path="url(#p26d755cbce)" style="fill: none; stroke: #64748b; stroke-width: 0.65"/>
    <path d="M 1024.348504 332.201717 
L 1002.917963 480.993366 
" clip-path="url(#p26d755cbce)" style="fill: none; stroke: #64748b; stroke-width: 0.65"/>
    <path d="M 973.437104 383.60381 
L 1002.917963 480.993366 
" clip-path="url(#p26d755cbce)" style="fill: none; stroke: #64748b; stroke-width: 0.65"/>
    <path d="M 1058.554452 539.746496 
L 1002.917963 480.993366 
" clip-path="url(#p26d755cbce)" style="fill: none; stroke: #64748b; stroke-width: 0.65"/>
    <path d="M 902.37151 349.218556 
L 1002.917963 480.993366 
" clip-path="url(#p26d755cbce)" style="fill: none; stroke: #64748b; stroke-width: 0.65"/>
    <path d="M 887.324666 469.589774 
L 1002.917963 480.993366 
" clip-path="url(#p26d755cbce)" style="fill: none; stroke: #64748b; stroke-width: 0.65"/>
    <path d="M 1179.164678 481.075556 
L 1002.917963 480.993366 
" clip-path="url(#p26d755cbce)" style="fill: none; stroke: #64748b; stroke-width: 0.65"/>
    <path d="M 1049.244285 631.27056 
L 1002.917963 480.993366 
" clip-path="url(#p26d755cbce)" style="fill: none; stroke: #64748b; stroke-width: 0.65"/>
    <path d="M 1111.52849 503.84976 
L 1002.917963 480.993366 
" clip-path="url(#p26d755cbce)" style="fill: none; stroke: #64748b; stroke-width: 0.65"/>
    <path d="M 1023.543277 290.915129 
L 1002.917963 480.993366 
" clip-path="url(#p26d755cbce)" style="fill: none; stroke: #64748b; stroke-width: 0.65"/>
    <path d="M 856.022474 524.705071 
L 1002.917963 480.993366 
" clip-path="url(#p26d755cbce)" style="fill: none; stroke: #64748b; stroke-width: 0.65"/>
    <path d="M 1183.807988 413.320297 
L 1002.917963 480.993366 
" clip-path="url(#p26d755cbce)" style="fill: none; stroke: #64748b; stroke-width: 0.65"/>
    <path d="M 1001.340837 542.966097 
L 1002.917963 480.993366 
" clip-path="url(#p26d755cbce)" style="fill: none; stroke: #64748b; stroke-width: 0.65"/>
    <path d="M 1102.164712 586.319618 
L 1002.917963 480.993366 
" clip-path="url(#p26d755cbce)" style="fill: none; stroke: #64748b; stroke-width: 0.65"/>
    <path d="M 963.937978 285.152095 
L 1002.917963 480.993366 
" clip-path="url(#p26d755cbce)" style="fill: none; stroke: #64748b; stroke-width: 0.65"/>
    <path d="M 975.69691 573.094497 
L 1002.917963 480.993366 
" clip-path="url(#p26d755cbce)" style="fill: none; stroke: #64748b; stroke-width: 0.65"/>
    <path d="M 1201.616244 337.496783 
L 1002.917963 480.993366 
" clip-path="url(#p26d755cbce)" style="fill: none; stroke: #64748b; stroke-width: 0.65"/>
    <path d="M 984.508616 609.153572 
L 1002.917963 480.993366 
" clip-path="url(#p26d755cbce)" style="fill: none; stroke: #64748b; stroke-width: 0.65"/>
    <path d="M 923.447351 384.180199 
L 1002.917963 480.993366 
" clip-path="url(#p26d755cbce)" style="fill: none; stroke: #64748b; stroke-width: 0.65"/>
    <path d="M 934.046769 478.878784 
L 1002.917963 480.993366 
" clip-path="url(#p26d755cbce)" style="fill: none; stroke: #64748b; stroke-width: 0.65"/>
    <path d="M 890.214879 411.483876 
L 1002.917963 480.993366 
" clip-path="url(#p26d755cbce)" style="fill: none; stroke: #64748b; stroke-width: 0.65"/>
    <path d="M 919.312964 436.834475 
L 1002.917963 480.993366 
" clip-path="url(#p26d755cbce)" style="fill: none; stroke: #64748b; stroke-width: 0.65"/>
    <path d="M 1088.685286 330.338253 
L 1018.848472 446.306595 
" clip-path="url(#p26d755cbce)" style="fill: none; stroke: #64748b; stroke-width: 0.65"/>
    <path d="M 1161.384625 577.917396 
L 1018.848472 446.306595 
" clip-path="url(#p26d755cbce)" style="fill: none; stroke: #64748b; stroke-width: 0.65"/>
    <path d="M 1024.348504 332.201717 
L 1018.848472 446.306595 
" clip-path="url(#p26d755cbce)" style="fill: none; stroke: #64748b; stroke-width: 0.65"/>
    <path d="M 973.437104 383.60381 
L 1018.848472 446.306595 
" clip-path="url(#p26d755cbce)" style="fill: none; stroke: #64748b; stroke-width: 0.65"/>
    <path d="M 828.867977 399.990601 
L 1018.848472 446.306595 
" clip-path="url(#p26d755cbce)" style="fill: none; stroke: #64748b; stroke-width: 0.65"/>
    <path d="M 902.37151 349.218556 
L 1018.848472 446.306595 
" clip-path="url(#p26d755cbce)" style="fill: none; stroke: #64748b; stroke-width: 0.65"/>
    <path d="M 887.324666 469.589774 
L 1018.848472 446.306595 
" clip-path="url(#p26d755cbce)" style="fill: none; stroke: #64748b; stroke-width: 0.65"/>
    <path d="M 1179.164678 481.075556 
L 1018.848472 446.306595 
" clip-path="url(#p26d755cbce)" style="fill: none; stroke: #64748b; stroke-width: 0.65"/>
    <path d="M 1058.554452 539.746496 
L 1018.848472 446.306595 
" clip-path="url(#p26d755cbce)" style="fill: none; stroke: #64748b; stroke-width: 0.65"/>
    <path d="M 1102.371714 260.965393 
L 1018.848472 446.306595 
" clip-path="url(#p26d755cbce)" style="fill: none; stroke: #64748b; stroke-width: 0.65"/>
    <path d="M 1100.593007 540.413314 
L 1018.848472 446.306595 
" clip-path="url(#p26d755cbce)" style="fill: none; stroke: #64748b; stroke-width: 0.65"/>
    <path d="M 1049.244285 631.27056 
L 1018.848472 446.306595 
" clip-path="url(#p26d755cbce)" style="fill: none; stroke: #64748b; stroke-width: 0.65"/>
    <path d="M 1233.329453 393.844951 
L 1018.848472 446.306595 
" clip-path="url(#p26d755cbce)" style="fill: none; stroke: #64748b; stroke-width: 0.65"/>
    <path d="M 1111.52849 503.84976 
L 1018.848472 446.306595 
" clip-path="url(#p26d755cbce)" style="fill: none; stroke: #64748b; stroke-width: 0.65"/>
    <path d="M 1023.543277 290.915129 
L 1018.848472 446.306595 
" clip-path="url(#p26d755cbce)" style="fill: none; stroke: #64748b; stroke-width: 0.65"/>
    <path d="M 1148.922548 347.20437 
L 1018.848472 446.306595 
" clip-path="url(#p26d755cbce)" style="fill: none; stroke: #64748b; stroke-width: 0.65"/>
    <path d="M 856.022474 524.705071 
L 1018.848472 446.306595 
" clip-path="url(#p26d755cbce)" style="fill: none; stroke: #64748b; stroke-width: 0.65"/>
    <path d="M 1001.340837 542.966097 
L 1018.848472 446.306595 
" clip-path="url(#p26d755cbce)" style="fill: none; stroke: #64748b; stroke-width: 0.65"/>
    <path d="M 1102.164712 586.319618 
L 1018.848472 446.306595 
" clip-path="url(#p26d755cbce)" style="fill: none; stroke: #64748b; stroke-width: 0.65"/>
    <path d="M 963.937978 285.152095 
L 1018.848472 446.306595 
" clip-path="url(#p26d755cbce)" style="fill: none; stroke: #64748b; stroke-width: 0.65"/>
    <path d="M 956.036225 339.24113 
L 1018.848472 446.306595 
" clip-path="url(#p26d755cbce)" style="fill: none; stroke: #64748b; stroke-width: 0.65"/>
    <path d="M 975.69691 573.094497 
L 1018.848472 446.306595 
" clip-path="url(#p26d755cbce)" style="fill: none; stroke: #64748b; stroke-width: 0.65"/>
    <path d="M 1242.932023 454.659421 
L 1018.848472 446.306595 
" clip-path="url(#p26d755cbce)" style="fill: none; stroke: #64748b; stroke-width: 0.65"/>
    <path d="M 984.508616 609.153572 
L 1018.848472 446.306595 
" clip-path="url(#p26d755cbce)" style="fill: none; stroke: #64748b; stroke-width: 0.65"/>
    <path d="M 923.447351 384.180199 
L 1018.848472 446.306595 
" clip-path="url(#p26d755cbce)" style="fill: none; stroke: #64748b; stroke-width: 0.65"/>
    <path d="M 1069.146178 285.747794 
L 1018.848472 446.306595 
" clip-path="url(#p26d755cbce)" style="fill: none; stroke: #64748b; stroke-width: 0.65"/>
    <path d="M 934.046769 478.878784 
L 1018.848472 446.306595 
" clip-path="url(#p26d755cbce)" style="fill: none; stroke: #64748b; stroke-width: 0.65"/>
    <path d="M 919.312964 436.834475 
L 1018.848472 446.306595 
" clip-path="url(#p26d755cbce)" style="fill: none; stroke: #64748b; stroke-width: 0.65"/>
   </g>
   <g id="PathCollection_2">
    <defs>
     <path id="m7e11591f4b" d="M -6.5 6.5 
L 6.5 6.5 
L 6.5 -6.5 
L -6.5 -6.5 
z
" style="stroke: #334155; stroke-width: 0.8"/>
    </defs>
    <g clip-path="url(#p26d755cbce)">
     <use xlink:href="#m7e11591f4b" x="1035.835994" y="437.456681" style="fill: #f59e0b; stroke: #334155; stroke-width: 0.8"/>
     <use xlink:href="#m7e11591f4b" x="1063.024167" y="458.898052" style="fill: #f59e0b; stroke: #334155; stroke-width: 0.8"/>
     <use xlink:href="#m7e11591f4b" x="891.087678" y="231.167746" style="fill: #f59e0b; stroke: #334155; stroke-width: 0.8"/>
     <use xlink:href="#m7e11591f4b" x="1056.468002" y="419.307292" style="fill: #f59e0b; stroke: #334155; stroke-width: 0.8"/>
     <use xlink:href="#m7e11591f4b" x="1018.848472" y="446.306595" style="fill: #f59e0b; stroke: #334155; stroke-width: 0.8"/>
     <use xlink:href="#m7e11591f4b" x="1040.457455" y="398.342481" style="fill: #f59e0b; stroke: #334155; stroke-width: 0.8"/>
     <use xlink:href="#m7e11591f4b" x="1138.908347" y="446.894099" style="fill: #f59e0b; stroke: #334155; stroke-width: 0.8"/>
     <use xlink:href="#m7e11591f4b" x="1111.551844" y="399.415502" style="fill: #f59e0b; stroke: #334155; stroke-width: 0.8"/>
     <use xlink:href="#m7e11591f4b" x="1002.917963" y="480.993366" style="fill: #f59e0b; stroke: #334155; stroke-width: 0.8"/>
     <use xlink:href="#m7e11591f4b" x="913.16041" y="558.19111" style="fill: #f59e0b; stroke: #334155; stroke-width: 0.8"/>
    </g>
   </g>
   <g id="PathCollection_3">
    <defs>
     <path id="md867d47734" d="M 0 5 
C 1.326016 5 2.597899 4.473168 3.535534 3.535534 
C 4.473168 2.597899 5 1.326016 5 0 
C 5 -1.326016 4.473168 -2.597899 3.535534 -3.535534 
C 2.597899 -4.473168 1.326016 -5 0 -5 
C -1.326016 -5 -2.597899 -4.473168 -3.535534 -3.535534 
C -4.473168 -2.597899 -5 -1.326016 -5 0 
C -5 1.326016 -4.473168 2.597899 -3.535534 3.535534 
C -2.597899 4.473168 -1.326016 5 0 5 
z
" style="stroke: #334155; stroke-width: 0.8"/>
    </defs>
    <g clip-path="url(#p26d755cbce)">
     <use xlink:href="#md867d47734" x="1102.371714" y="260.965393" style="fill: #38bdf8; stroke: #334155; stroke-width: 0.8"/>
     <use xlink:href="#md867d47734" x="1242.932023" y="454.659421" style="fill: #38bdf8; stroke: #334155; stroke-width: 0.8"/>
     <use xlink:href="#md867d47734" x="934.046769" y="478.878784" style="fill: #38bdf8; stroke: #334155; stroke-width: 0.8"/>
     <use xlink:href="#md867d47734" x="1088.685286" y="330.338253" style="fill: #38bdf8; stroke: #334155; stroke-width: 0.8"/>
     <use xlink:href="#md867d47734" x="1111.52849" y="503.84976" style="fill: #38bdf8; stroke: #334155; stroke-width: 0.8"/>
     <use xlink:href="#md867d47734" x="956.036225" y="339.24113" style="fill: #38bdf8; stroke: #334155; stroke-width: 0.8"/>
     <use xlink:href="#md867d47734" x="1023.543277" y="290.915129" style="fill: #38bdf8; stroke: #334155; stroke-width: 0.8"/>
     <use xlink:href="#md867d47734" x="1183.807988" y="413.320297" style="fill: #38bdf8; stroke: #334155; stroke-width: 0.8"/>
     <use xlink:href="#md867d47734" x="923.447351" y="384.180199" style="fill: #38bdf8; stroke: #334155; stroke-width: 0.8"/>
     <use xlink:href="#md867d47734" x="1058.554452" y="539.746496" style="fill: #38bdf8; stroke: #334155; stroke-width: 0.8"/>
     <use xlink:href="#md867d47734" x="1024.348504" y="332.201717" style="fill: #38bdf8; stroke: #334155; stroke-width: 0.8"/>
     <use xlink:href="#md867d47734" x="973.437104" y="383.60381" style="fill: #38bdf8; stroke: #334155; stroke-width: 0.8"/>
     <use xlink:href="#md867d47734" x="1001.340837" y="542.966097" style="fill: #38bdf8; stroke: #334155; stroke-width: 0.8"/>
     <use xlink:href="#md867d47734" x="1100.593007" y="540.413314" style="fill: #38bdf8; stroke: #334155; stroke-width: 0.8"/>
     <use xlink:href="#md867d47734" x="919.312964" y="436.834475" style="fill: #38bdf8; stroke: #334155; stroke-width: 0.8"/>
     <use xlink:href="#md867d47734" x="963.937978" y="285.152095" style="fill: #38bdf8; stroke: #334155; stroke-width: 0.8"/>
     <use xlink:href="#md867d47734" x="1161.384625" y="577.917396" style="fill: #38bdf8; stroke: #334155; stroke-width: 0.8"/>
     <use xlink:href="#md867d47734" x="856.022474" y="524.705071" style="fill: #38bdf8; stroke: #334155; stroke-width: 0.8"/>
     <use xlink:href="#md867d47734" x="1179.164678" y="481.075556" style="fill: #38bdf8; stroke: #334155; stroke-width: 0.8"/>
     <use xlink:href="#md867d47734" x="1148.922548" y="347.20437" style="fill: #38bdf8; stroke: #334155; stroke-width: 0.8"/>
     <use xlink:href="#md867d47734" x="984.508616" y="609.153572" style="fill: #38bdf8; stroke: #334155; stroke-width: 0.8"/>
     <use xlink:href="#md867d47734" x="975.69691" y="573.094497" style="fill: #38bdf8; stroke: #334155; stroke-width: 0.8"/>
     <use xlink:href="#md867d47734" x="1043.057536" y="216.48944" style="fill: #38bdf8; stroke: #334155; stroke-width: 0.8"/>
     <use xlink:href="#md867d47734" x="1102.164712" y="586.319618" style="fill: #38bdf8; stroke: #334155; stroke-width: 0.8"/>
     <use xlink:href="#md867d47734" x="887.324666" y="469.589774" style="fill: #38bdf8; stroke: #334155; stroke-width: 0.8"/>
     <use xlink:href="#md867d47734" x="1201.616244" y="337.496783" style="fill: #38bdf8; stroke: #334155; stroke-width: 0.8"/>
     <use xlink:href="#md867d47734" x="890.214879" y="411.483876" style="fill: #38bdf8; stroke: #334155; stroke-width: 0.8"/>
     <use xlink:href="#md867d47734" x="1192.698723" y="546.601014" style="fill: #38bdf8; stroke: #334155; stroke-width: 0.8"/>
     <use xlink:href="#md867d47734" x="1183.483519" y="278.463706" style="fill: #38bdf8; stroke: #334155; stroke-width: 0.8"/>
     <use xlink:href="#md867d47734" x="1069.146178" y="285.747794" style="fill: #38bdf8; stroke: #334155; stroke-width: 0.8"/>
     <use xlink:href="#md867d47734" x="902.37151" y="349.218556" style="fill: #38bdf8; stroke: #334155; stroke-width: 0.8"/>
     <use xlink:href="#md867d47734" x="1049.244285" y="631.27056" style="fill: #38bdf8; stroke: #334155; stroke-width: 0.8"/>
     <use xlink:href="#md867d47734" x="828.867977" y="399.990601" style="fill: #38bdf8; stroke: #334155; stroke-width: 0.8"/>
     <use xlink:href="#md867d47734" x="1233.329453" y="393.844951" style="fill: #38bdf8; stroke: #334155; stroke-width: 0.8"/>
    </g>
   </g>
   <g id="text_18">
    <text style="font-weight: 700; font-size: 15px; font-family: 'DejaVu Sans'; text-anchor: start; fill: #111827" x="696.6" y="108.72" transform="rotate(-0 696.6 108.72)">XGI bipartite incidence view</text>
   </g>
   <g id="text_19">
    <g clip-path="url(#p26d755cbce)">
     <text style="font-size: 7.6px; font-family: 'DejaVu Sans', 'Bitstream Vera Sans', 'Computer Modern Sans Serif', 'Lucida Grande', 'Verdana', 'Geneva', 'Lucid', 'Arial', 'Helvetica', 'Avant Garde', sans-serif; text-anchor: middle; fill: #111827" x="1056.468002" y="421.404417" transform="rotate(-0 1056.468002 421.404417)">ODYSSEUS</text>
    </g>
   </g>
   <g id="text_20">
    <g clip-path="url(#p26d755cbce)">
     <text style="font-size: 7.6px; font-family: 'DejaVu Sans', 'Bitstream Vera Sans', 'Computer Modern Sans Serif', 'Lucida Grande', 'Verdana', 'Geneva', 'Lucid', 'Arial', 'Helvetica', 'Avant Garde', sans-serif; text-anchor: middle; fill: #111827" x="1040.457455" y="400.439606" transform="rotate(-0 1040.457455 400.439606)">SEA</text>
    </g>
   </g>
   <g id="text_21">
    <g clip-path="url(#p26d755cbce)">
     <text style="font-size: 7.6px; font-family: 'DejaVu Sans', 'Bitstream Vera Sans', 'Computer Modern Sans Serif', 'Lucida Grande', 'Verdana', 'Geneva', 'Lucid', 'Arial', 'Helvetica', 'Avant Garde', sans-serif; text-anchor: middle; fill: #111827" x="1035.835994" y="439.553806" transform="rotate(-0 1035.835994 439.553806)">MIND</text>
    </g>
   </g>
   <g id="text_22">
    <g clip-path="url(#p26d755cbce)">
     <text style="font-size: 7.6px; font-family: 'DejaVu Sans', 'Bitstream Vera Sans', 'Computer Modern Sans Serif', 'Lucida Grande', 'Verdana', 'Geneva', 'Lucid', 'Arial', 'Helvetica', 'Avant Garde', sans-serif; text-anchor: middle; fill: #111827" x="1018.848472" y="448.40372" transform="rotate(-0 1018.848472 448.40372)">ZEUS</text>
    </g>
   </g>
   <g id="text_23">
    <g clip-path="url(#p26d755cbce)">
     <text style="font-size: 7.6px; font-family: 'DejaVu Sans', 'Bitstream Vera Sans', 'Computer Modern Sans Serif', 'Lucida Grande', 'Verdana', 'Geneva', 'Lucid', 'Arial', 'Helvetica', 'Avant Garde', sans-serif; text-anchor: middle; fill: #111827" x="1063.024167" y="460.995177" transform="rotate(-0 1063.024167 460.995177)">ATHENA</text>
    </g>
   </g>
   <g id="text_24">
    <g clip-path="url(#p26d755cbce)">
     <text style="font-size: 7.6px; font-family: 'DejaVu Sans', 'Bitstream Vera Sans', 'Computer Modern Sans Serif', 'Lucida Grande', 'Verdana', 'Geneva', 'Lucid', 'Arial', 'Helvetica', 'Avant Garde', sans-serif; text-anchor: middle; fill: #111827" x="1002.917963" y="483.090491" transform="rotate(-0 1002.917963 483.090491)">TELEMACHUS</text>
    </g>
   </g>
   <g id="text_25">
    <g clip-path="url(#p26d755cbce)">
     <text style="font-size: 7.6px; font-family: 'DejaVu Sans', 'Bitstream Vera Sans', 'Computer Modern Sans Serif', 'Lucida Grande', 'Verdana', 'Geneva', 'Lucid', 'Arial', 'Helvetica', 'Avant Garde', sans-serif; text-anchor: middle; fill: #111827" x="1138.908347" y="448.991224" transform="rotate(-0 1138.908347 448.991224)">SKY</text>
    </g>
   </g>
   <g id="text_26">
    <g clip-path="url(#p26d755cbce)">
     <text style="font-size: 7.6px; font-family: 'DejaVu Sans', 'Bitstream Vera Sans', 'Computer Modern Sans Serif', 'Lucida Grande', 'Verdana', 'Geneva', 'Lucid', 'Arial', 'Helvetica', 'Avant Garde', sans-serif; text-anchor: middle; fill: #111827" x="913.16041" y="560.115454" transform="rotate(-0 913.16041 560.115454)">GENERIC_MAN</text>
    </g>
   </g>
   <g id="text_27">
    <g clip-path="url(#p26d755cbce)">
     <text style="font-size: 7.6px; font-family: 'DejaVu Sans', 'Bitstream Vera Sans', 'Computer Modern Sans Serif', 'Lucida Grande', 'Verdana', 'Geneva', 'Lucid', 'Arial', 'Helvetica', 'Avant Garde', sans-serif; text-anchor: middle; fill: #111827" x="1111.551844" y="401.512627" transform="rotate(-0 1111.551844 401.512627)">EARTH</text>
    </g>
   </g>
   <g id="text_28">
    <g clip-path="url(#p26d755cbce)">
     <text style="font-size: 7.6px; font-family: 'DejaVu Sans', 'Bitstream Vera Sans', 'Computer Modern Sans Serif', 'Lucida Grande', 'Verdana', 'Geneva', 'Lucid', 'Arial', 'Helvetica', 'Avant Garde', sans-serif; text-anchor: middle; fill: #111827" x="891.087678" y="233.264871" transform="rotate(-0 891.087678 233.264871)">FATE</text>
    </g>
   </g>
   <g id="text_29">
    <g clip-path="url(#p26d755cbce)">
     <text style="font-size: 7.6px; font-family: 'DejaVu Sans', 'Bitstream Vera Sans', 'Computer Modern Sans Serif', 'Lucida Grande', 'Verdana', 'Geneva', 'Lucid', 'Arial', 'Helvetica', 'Avant Garde', sans-serif; text-anchor: middle; fill: #111827" x="1088.685286" y="332.435378" transform="rotate(-0 1088.685286 332.435378)">fair</text>
    </g>
   </g>
   <g id="text_30">
    <g clip-path="url(#p26d755cbce)">
     <text style="font-size: 7.6px; font-family: 'DejaVu Sans', 'Bitstream Vera Sans', 'Computer Modern Sans Serif', 'Lucida Grande', 'Verdana', 'Geneva', 'Lucid', 'Arial', 'Helvetica', 'Avant Garde', sans-serif; text-anchor: middle; fill: #111827" x="1161.384625" y="580.014521" transform="rotate(-0 1161.384625 580.014521)">sacred</text>
    </g>
   </g>
   <g id="text_31">
    <g clip-path="url(#p26d755cbce)">
     <text style="font-size: 7.6px; font-family: 'DejaVu Sans', 'Bitstream Vera Sans', 'Computer Modern Sans Serif', 'Lucida Grande', 'Verdana', 'Geneva', 'Lucid', 'Arial', 'Helvetica', 'Avant Garde', sans-serif; text-anchor: middle; fill: #111827" x="973.437104" y="385.700935" transform="rotate(-0 973.437104 385.700935)">long</text>
    </g>
   </g>
   <g id="text_32">
    <g clip-path="url(#p26d755cbce)">
     <text style="font-size: 7.6px; font-family: 'DejaVu Sans', 'Bitstream Vera Sans', 'Computer Modern Sans Serif', 'Lucida Grande', 'Verdana', 'Geneva', 'Lucid', 'Arial', 'Helvetica', 'Avant Garde', sans-serif; text-anchor: middle; fill: #111827" x="1058.554452" y="541.843621" transform="rotate(-0 1058.554452 541.843621)">high</text>
    </g>
   </g>
   <g id="text_33">
    <g clip-path="url(#p26d755cbce)">
     <text style="font-size: 7.6px; font-family: 'DejaVu Sans', 'Bitstream Vera Sans', 'Computer Modern Sans Serif', 'Lucida Grande', 'Verdana', 'Geneva', 'Lucid', 'Arial', 'Helvetica', 'Avant Garde', sans-serif; text-anchor: middle; fill: #111827" x="975.69691" y="575.191622" transform="rotate(-0 975.69691 575.191622)">young</text>
    </g>
   </g>
   <g id="text_34">
    <g clip-path="url(#p26d755cbce)">
     <text style="font-size: 7.6px; font-family: 'DejaVu Sans', 'Bitstream Vera Sans', 'Computer Modern Sans Serif', 'Lucida Grande', 'Verdana', 'Geneva', 'Lucid', 'Arial', 'Helvetica', 'Avant Garde', sans-serif; text-anchor: middle; fill: #111827" x="1242.932023" y="456.756546" transform="rotate(-0 1242.932023 456.756546)">bright</text>
    </g>
   </g>
   <g id="text_35">
    <g clip-path="url(#p26d755cbce)">
     <text style="font-size: 7.6px; font-family: 'DejaVu Sans', 'Bitstream Vera Sans', 'Computer Modern Sans Serif', 'Lucida Grande', 'Verdana', 'Geneva', 'Lucid', 'Arial', 'Helvetica', 'Avant Garde', sans-serif; text-anchor: middle; fill: #111827" x="1100.593007" y="542.510439" transform="rotate(-0 1100.593007 542.510439)">old</text>
    </g>
   </g>
   <g id="text_36">
    <g clip-path="url(#p26d755cbce)">
     <text style="font-size: 7.6px; font-family: 'DejaVu Sans', 'Bitstream Vera Sans', 'Computer Modern Sans Serif', 'Lucida Grande', 'Verdana', 'Geneva', 'Lucid', 'Arial', 'Helvetica', 'Avant Garde', sans-serif; text-anchor: middle; fill: #111827" x="919.312964" y="438.9316" transform="rotate(-0 919.312964 438.9316)">royal</text>
    </g>
   </g>
   <g id="text_37">
    <g clip-path="url(#p26d755cbce)">
     <text style="font-size: 7.6px; font-family: 'DejaVu Sans', 'Bitstream Vera Sans', 'Computer Modern Sans Serif', 'Lucida Grande', 'Verdana', 'Geneva', 'Lucid', 'Arial', 'Helvetica', 'Avant Garde', sans-serif; text-anchor: middle; fill: #111827" x="984.508616" y="611.250697" transform="rotate(-0 984.508616 611.250697)">wise</text>
    </g>
   </g>
   <g id="text_38">
    <g clip-path="url(#p26d755cbce)">
     <text style="font-size: 7.6px; font-family: 'DejaVu Sans', 'Bitstream Vera Sans', 'Computer Modern Sans Serif', 'Lucida Grande', 'Verdana', 'Geneva', 'Lucid', 'Arial', 'Helvetica', 'Avant Garde', sans-serif; text-anchor: middle; fill: #111827" x="923.447351" y="386.277324" transform="rotate(-0 923.447351 386.277324)">great</text>
    </g>
   </g>
   <g id="text_39">
    <g clip-path="url(#p26d755cbce)">
     <text style="font-size: 7.6px; font-family: 'DejaVu Sans', 'Bitstream Vera Sans', 'Computer Modern Sans Serif', 'Lucida Grande', 'Verdana', 'Geneva', 'Lucid', 'Arial', 'Helvetica', 'Avant Garde', sans-serif; text-anchor: middle; fill: #111827" x="1111.52849" y="505.946885" transform="rotate(-0 1111.52849 505.946885)">faithful</text>
    </g>
   </g>
   <g id="text_40">
    <g clip-path="url(#p26d755cbce)">
     <text style="font-size: 7.6px; font-family: 'DejaVu Sans', 'Bitstream Vera Sans', 'Computer Modern Sans Serif', 'Lucida Grande', 'Verdana', 'Geneva', 'Lucid', 'Arial', 'Helvetica', 'Avant Garde', sans-serif; text-anchor: middle; fill: #111827" x="1069.146178" y="287.844919" transform="rotate(-0 1069.146178 287.844919)">sad</text>
    </g>
   </g>
   <g id="text_41">
    <g clip-path="url(#p26d755cbce)">
     <text style="font-size: 7.6px; font-family: 'DejaVu Sans', 'Bitstream Vera Sans', 'Computer Modern Sans Serif', 'Lucida Grande', 'Verdana', 'Geneva', 'Lucid', 'Arial', 'Helvetica', 'Avant Garde', sans-serif; text-anchor: middle; fill: #111827" x="1148.922548" y="349.301495" transform="rotate(-0 1148.922548 349.301495)">wide</text>
    </g>
   </g>
   <g id="text_42">
    <g clip-path="url(#p26d755cbce)">
     <text style="font-size: 7.6px; font-family: 'DejaVu Sans', 'Bitstream Vera Sans', 'Computer Modern Sans Serif', 'Lucida Grande', 'Verdana', 'Geneva', 'Lucid', 'Arial', 'Helvetica', 'Avant Garde', sans-serif; text-anchor: middle; fill: #111827" x="934.046769" y="480.975909" transform="rotate(-0 934.046769 480.975909)">divine</text>
    </g>
   </g>
   <g id="text_43">
    <g clip-path="url(#p26d755cbce)">
     <text style="font-size: 7.6px; font-family: 'DejaVu Sans', 'Bitstream Vera Sans', 'Computer Modern Sans Serif', 'Lucida Grande', 'Verdana', 'Geneva', 'Lucid', 'Arial', 'Helvetica', 'Avant Garde', sans-serif; text-anchor: middle; fill: #111827" x="1001.340837" y="545.063222" transform="rotate(-0 1001.340837 545.063222)">mighty</text>
    </g>
   </g>
   <g id="text_44">
    <g clip-path="url(#p26d755cbce)">
     <text style="font-size: 7.6px; font-family: 'DejaVu Sans', 'Bitstream Vera Sans', 'Computer Modern Sans Serif', 'Lucida Grande', 'Verdana', 'Geneva', 'Lucid', 'Arial', 'Helvetica', 'Avant Garde', sans-serif; text-anchor: middle; fill: #111827" x="1102.164712" y="588.416743" transform="rotate(-0 1102.164712 588.416743)">deep</text>
    </g>
   </g>
  </g>
  <g id="text_45">
   <text style="font-weight: 700; font-size: 22px; font-family: 'DejaVu Sans'; text-anchor: start; fill: #111827" x="18" y="23.916562" transform="rotate(-0 18 23.916562)">Alexander Pope (1726) — Native target-as-hyperedge visualization</text>
  </g>
  <g id="text_46">
   <text style="font-size: 11px; font-family: 'DejaVu Sans'; text-anchor: start; fill: #475569" x="18" y="42.84" transform="rotate(-0 18 42.84)">Readable weighted core: 34 of 139 attribute nodes; 10 of 89 target hyperedges; 217 of 1236 incidences.</text>
  </g>
  <g id="text_47">
   <text style="font-size: 9px; font-family: 'DejaVu Sans'; text-anchor: start; fill: #475569" x="18" y="755.64" transform="rotate(-0 18 755.64)">Attribute circles and target hyperedges use the colors specified in config/visualizations.json.</text>
  </g>
 </g>
 <defs>
  <clipPath id="pc554e67f7a">
   <rect x="7.2" y="122.72" width="678.6" height="602.32"/>
  </clipPath>
  <clipPath id="p26d755cbce">
   <rect x="696.6" y="122.72" width="678.6" height="602.32"/>
  </clipPath>
 </defs>
</svg>
