<?xml version="1.0" encoding="utf-8" standalone="no"?>
<!DOCTYPE svg PUBLIC "-//W3C//DTD SVG 1.1//EN"
  "http://www.w3.org/Graphics/SVG/1.1/DTD/svg11.dtd">
<svg xmlns:xlink="http://www.w3.org/1999/xlink" width="1382.4pt" height="764.711719pt" viewBox="0 0 1382.4 764.711719" xmlns="http://www.w3.org/2000/svg" version="1.1">
 <metadata>
  <rdf:RDF xmlns:dc="http://purl.org/dc/elements/1.1/" xmlns:cc="http://creativecommons.org/ns#" xmlns:rdf="http://www.w3.org/1999/02/22-rdf-syntax-ns#">
   <cc:Work>
    <dc:type rdf:resource="http://purl.org/dc/dcmitype/StillImage"/>
    <dc:format>image/svg+xml</dc:format>
    <dc:creator>
     <cc:Agent>
      <dc:title>Matplotlib v3.10.3, https://matplotlib.org/</dc:title>
     </cc:Agent>
    </dc:creator>
   </cc:Work>
  </rdf:RDF>
 </metadata>
 <defs>
  <style type="text/css">*{stroke-linejoin: round; stroke-linecap: butt}</style>
 </defs>
 <g id="figure_1">
  <g id="patch_1">
   <path d="M 0 764.711719
L 1382.4 764.711719
L 1382.4 0
L 0 0
z
" style="fill: #ffffff"/>
  </g>
  <g id="axes_1">
   <g id="text_1">
    <text style="font-weight: 700; font-size: 15px; font-family: 'DejaVu Sans'; text-anchor: start; fill: #111827" x="7.2" y="108.72" transform="rotate(-0 7.2 108.72)">XGI native hyperedge-hull view</text>
   </g>
   <g id="PatchCollection_1">
    <path d="M 427.288431 203.28558
L 191.643783 205.591935
L 190.835705 205.61733
L 190.030815 205.693415
L 189.232291 205.819889
L 188.443285 205.996252
L 187.666909 206.221811
L 186.906228 206.495673
L 186.164244 206.816758
L 185.443885 207.183799
L 184.747995 207.595347
L 184.079319 208.049779
L 183.440496 208.545301
L 182.834048 209.079956
L 182.262368 209.651636
L 181.727712 210.258084
L 181.232191 210.896907
L 180.777759 211.565583
L 180.36621 212.261473
L 179.999169 212.981832
L 179.678084 213.723816
L 179.404222 214.484497
L 179.178664 215.260873
L 179.0023 216.04988
L 136.505024 441.923293
L 136.37855 442.721817
L 136.302466 443.526707
L 136.277071 444.334785
L 136.302466 445.142864
L 136.37855 445.947753
L 136.505024 446.746277
L 136.681388 447.535284
L 136.906946 448.31166
L 216.421142 676.749436
L 216.695004 677.510117
L 217.016089 678.252101
L 217.38313 678.97246
L 217.794679 679.668351
L 218.24911 680.337027
L 218.744632 680.975849
L 219.279288 681.582297
L 219.850968 682.153977
L 220.457416 682.688633
L 221.096238 683.184155
L 221.764914 683.638586
L 222.460805 684.050135
L 223.181164 684.417176
L 223.923148 684.738261
L 224.683829 685.012123
L 225.460204 685.237681
L 226.249211 685.414045
L 227.047735 685.540519
L 227.852624 685.616603
L 228.660703 685.641998
L 229.468782 685.616603
L 230.273671 685.540519
L 231.072195 685.414045
L 231.861202 685.237681
L 232.637577 685.012123
L 233.398258 684.738261
L 512.122808 571.161522
L 512.864792 570.840437
L 513.585151 570.473396
L 514.281042 570.061847
L 514.949718 569.607415
L 515.58854 569.111894
L 516.194988 568.577238
L 516.766668 568.005558
L 517.301324 567.39911
L 517.796845 566.760288
L 518.251277 566.091611
L 518.662826 565.395721
L 519.029867 564.675362
L 519.350952 563.933378
L 555.819192 470.513348
L 556.093054 469.752667
L 556.318612 468.976291
L 556.494976 468.187285
L 556.62145 467.388761
L 556.697534 466.583871
L 556.722929 465.775793
L 556.697534 464.967714
L 556.62145 464.162825
L 556.494976 463.364301
L 556.318612 462.575294
L 533.557765 371.238597
L 533.332207 370.462221
L 533.058345 369.70154
L 532.73726 368.959556
L 532.370218 368.239198
L 531.95867 367.543307
L 438.154455 209.259227
L 437.700024 208.590551
L 437.204502 207.951729
L 436.669846 207.345281
L 436.098166 206.773601
L 435.491718 206.238945
L 434.852896 205.743423
L 434.18422 205.288992
L 433.488329 204.877443
L 432.767971 204.510402
L 432.025987 204.189317
L 431.265306 203.915455
L 430.48893 203.689897
L 429.699923 203.513533
L 428.901399 203.387059
L 428.09651 203.310975
z
" clip-path="url(#pc554e67f7a)" style="fill: #f59e0b; fill-opacity: 0.13; stroke: #d97706; stroke-opacity: 0.13; stroke-width: 0.8"/>
    <path d="M 170.166322 378.013035
L 137.868934 438.134887
L 137.501893 438.855246
L 137.180808 439.59723
L 136.906946 440.357911
L 136.681388 441.134287
L 136.505024 441.923293
L 136.37855 442.721817
L 136.302466 443.526707
L 136.277071 444.334785
L 136.302466 445.142864
L 136.37855 445.947753
L 136.505024 446.746277
L 136.681388 447.535284
L 136.906946 448.31166
L 137.180808 449.072341
L 137.501893 449.814325
L 137.868934 450.534683
L 180.666431 524.314348
L 181.07798 525.010238
L 181.532412 525.678914
L 182.027933 526.317737
L 182.562589 526.924185
L 183.134269 527.495865
L 183.740717 528.030521
L 314.106685 630.738955
L 314.745508 631.234477
L 315.414184 631.688909
L 316.110074 632.100457
L 316.830433 632.467498
L 317.572417 632.788584
L 318.333098 633.062446
L 319.109474 633.288004
L 319.898481 633.464368
L 320.697004 633.590841
L 321.501894 633.666926
L 322.309972 633.692321
L 323.118051 633.666926
L 323.922941 633.590841
L 324.721464 633.464368
L 325.510471 633.288004
L 326.286847 633.062446
L 420.158082 602.499339
L 511.362127 571.435384
L 512.122808 571.161522
L 512.864792 570.840437
L 513.585151 570.473396
L 514.281042 570.061847
L 514.949718 569.607415
L 515.58854 569.111894
L 516.194988 568.577238
L 516.766668 568.005558
L 517.301324 567.39911
L 517.796845 566.760288
L 518.251277 566.091611
L 518.662826 565.395721
L 519.029867 564.675362
L 519.350952 563.933378
L 555.819192 470.513348
L 556.093054 469.752667
L 556.318612 468.976291
L 556.494976 468.187285
L 556.62145 467.388761
L 556.697534 466.583871
L 556.722929 465.775793
L 556.697534 464.967714
L 540.491659 252.40058
L 540.415575 251.595691
L 540.289101 250.797167
L 540.112737 250.00816
L 539.887179 249.231784
L 539.613317 248.471103
L 539.292232 247.729119
L 538.925191 247.008761
L 538.513642 246.31287
L 538.059211 245.644194
L 537.563689 245.005372
L 537.029033 244.398924
L 536.457353 243.827244
L 535.850905 243.292588
L 535.212083 242.797066
L 534.543407 242.342635
L 533.847516 241.931086
L 533.127157 241.564045
L 532.385173 241.24296
L 341.020954 163.021739
L 340.260273 162.747877
L 339.483898 162.522319
L 338.694891 162.345955
L 337.896367 162.219481
L 337.091478 162.143397
L 336.283399 162.118002
L 335.47532 162.143397
L 334.670431 162.219481
L 333.871907 162.345955
L 333.0829 162.522319
L 332.306525 162.747877
L 331.545844 163.021739
L 330.80386 163.342824
L 330.083501 163.709865
L 329.38761 164.121414
L 328.718934 164.575845
L 328.080112 165.071367
L 327.473664 165.606023
L 326.901984 166.177703
L 326.367328 166.784151
L 325.871806 167.422973
L 214.020493 316.297097
L 171.032303 376.648468
L 170.577871 377.317144
z
" clip-path="url(#pc554e67f7a)" style="fill: #f59e0b; fill-opacity: 0.13; stroke: #d97706; stroke-opacity: 0.13; stroke-width: 0.8"/>
    <path d="M 519.850372 555.995324
L 439.75355 212.954517
L 439.527992 212.178142
L 439.25413 211.417461
L 438.933045 210.675477
L 438.566004 209.955118
L 438.154455 209.259227
L 437.700024 208.590551
L 437.204502 207.951729
L 436.669846 207.345281
L 436.098166 206.773601
L 435.491718 206.238945
L 434.852896 205.743423
L 434.18422 205.288992
L 433.488329 204.877443
L 432.767971 204.510402
L 432.025987 204.189317
L 431.265306 203.915455
L 430.48893 203.689897
L 429.699923 203.513533
L 428.901399 203.387059
L 428.09651 203.310975
L 427.288431 203.28558
L 426.480353 203.310975
L 425.675463 203.387059
L 424.876939 203.513533
L 424.087933 203.689897
L 423.311557 203.915455
L 422.550876 204.189317
L 421.808892 204.510402
L 306.645171 261.644862
L 305.924812 262.011903
L 218.232187 312.583989
L 217.536297 312.995537
L 216.867621 313.449969
L 216.228798 313.945491
L 215.62235 314.480146
L 215.05067 315.051826
L 214.516014 315.658274
L 214.020493 316.297097
L 171.032303 376.648468
L 170.577871 377.317144
L 170.166322 378.013035
L 137.868934 438.134887
L 137.501893 438.855246
L 137.180808 439.59723
L 136.906946 440.357911
L 136.681388 441.134287
L 136.505024 441.923293
L 136.37855 442.721817
L 136.302466 443.526707
L 136.277071 444.334785
L 136.302466 445.142864
L 136.37855 445.947753
L 136.505024 446.746277
L 136.681388 447.535284
L 136.906946 448.31166
L 137.180808 449.072341
L 137.501893 449.814325
L 137.868934 450.534683
L 180.666431 524.314348
L 181.07798 525.010238
L 181.532412 525.678914
L 182.027933 526.317737
L 182.562589 526.924185
L 183.134269 527.495865
L 183.740717 528.030521
L 314.106685 630.738955
L 314.745508 631.234477
L 315.414184 631.688909
L 316.110074 632.100457
L 316.830433 632.467498
L 317.572417 632.788584
L 318.333098 633.062446
L 319.109474 633.288004
L 319.898481 633.464368
L 320.697004 633.590841
L 321.501894 633.666926
L 322.309972 633.692321
L 323.118051 633.666926
L 323.922941 633.590841
L 324.721464 633.464368
L 325.510471 633.288004
L 326.286847 633.062446
L 420.158082 602.499339
L 511.362127 571.435384
L 512.122808 571.161522
L 512.864792 570.840437
L 513.585151 570.473396
L 514.281042 570.061847
L 514.949718 569.607415
L 515.58854 569.111894
L 516.194988 568.577238
L 516.766668 568.005558
L 517.301324 567.39911
L 517.796845 566.760288
L 518.251277 566.091611
L 518.662826 565.395721
L 519.029867 564.675362
L 519.350952 563.933378
L 519.624814 563.172697
L 519.850372 562.396321
L 520.026736 561.607315
L 520.15321 560.808791
L 520.229294 560.003901
L 520.254689 559.195823
L 520.229294 558.387744
L 520.15321 557.582855
L 520.026736 556.784331
z
" clip-path="url(#pc554e67f7a)" style="fill: #f59e0b; fill-opacity: 0.13; stroke: #d97706; stroke-opacity: 0.13; stroke-width: 0.8"/>
    <path d="M 178.875826 216.848404
L 178.799742 217.653293
L 168.599854 383.404854
L 168.574459 384.212933
L 168.599854 385.021011
L 168.675938 385.825901
L 168.802412 386.624425
L 168.978776 387.413431
L 169.204334 388.189807
L 169.478196 388.950488
L 169.799281 389.692472
L 170.166322 390.412831
L 170.577871 391.108722
L 171.032303 391.777398
L 171.527824 392.41622
L 172.06248 393.022668
L 172.63416 393.594348
L 173.240608 394.129004
L 173.87943 394.624525
L 257.534934 457.757212
L 258.20361 458.211644
L 258.899501 458.623192
L 343.901728 505.691067
L 344.622086 506.058109
L 345.36407 506.379194
L 346.124751 506.653056
L 346.901127 506.878614
L 347.690134 507.054978
L 348.488658 507.181451
L 349.293547 507.257536
L 350.101626 507.282931
L 350.909704 507.257536
L 351.714594 507.181451
L 400.046396 501.701845
L 400.84492 501.575371
L 401.633927 501.399007
L 402.410302 501.173449
L 481.592979 477.445143
L 482.35366 477.171281
L 483.095644 476.850196
L 483.816003 476.483154
L 484.511894 476.071606
L 485.18057 475.617174
L 485.819392 475.121653
L 486.42584 474.586997
L 486.99752 474.015317
L 487.532176 473.408869
L 488.027697 472.770046
L 488.482129 472.10137
L 488.893678 471.40548
L 489.260719 470.685121
L 532.73726 379.918635
L 533.058345 379.176651
L 533.332207 378.41597
L 533.557765 377.639594
L 533.734129 376.850588
L 533.860602 376.052064
L 533.936687 375.247174
L 540.491659 254.016737
L 540.517054 253.208659
L 540.491659 252.40058
L 540.415575 251.595691
L 540.289101 250.797167
L 540.112737 250.00816
L 539.887179 249.231784
L 539.613317 248.471103
L 539.292232 247.729119
L 538.925191 247.008761
L 538.513642 246.31287
L 538.059211 245.644194
L 537.563689 245.005372
L 537.029033 244.398924
L 536.457353 243.827244
L 535.850905 243.292588
L 535.212083 242.797066
L 534.543407 242.342635
L 533.847516 241.931086
L 533.127157 241.564045
L 532.385173 241.24296
L 341.020954 163.021739
L 340.260273 162.747877
L 339.483898 162.522319
L 338.694891 162.345955
L 337.896367 162.219481
L 337.091478 162.143397
L 336.283399 162.118002
L 335.47532 162.143397
L 334.670431 162.219481
L 333.871907 162.345955
L 333.0829 162.522319
L 332.306525 162.747877
L 187.666909 206.221811
L 186.906228 206.495673
L 186.164244 206.816758
L 185.443885 207.183799
L 184.747995 207.595347
L 184.079319 208.049779
L 183.440496 208.545301
L 182.834048 209.079956
L 182.262368 209.651636
L 181.727712 210.258084
L 181.232191 210.896907
L 180.777759 211.565583
L 180.36621 212.261473
L 179.999169 212.981832
L 179.678084 213.723816
L 179.404222 214.484497
L 179.178664 215.260873
L 179.0023 216.04988
z
" clip-path="url(#pc554e67f7a)" style="fill: #f59e0b; fill-opacity: 0.13; stroke: #d97706; stroke-opacity: 0.13; stroke-width: 0.8"/>
    <path d="M 519.350952 563.933378
L 555.819192 470.513348
L 556.093054 469.752667
L 556.318612 468.976291
L 556.494976 468.187285
L 556.62145 467.388761
L 556.697534 466.583871
L 556.722929 465.775793
L 556.697534 464.967714
L 556.62145 464.162825
L 556.494976 463.364301
L 556.318612 462.575294
L 533.557765 371.238597
L 533.332207 370.462221
L 533.058345 369.70154
L 532.73726 368.959556
L 532.370218 368.239198
L 531.95867 367.543307
L 438.154455 209.259227
L 437.700024 208.590551
L 437.204502 207.951729
L 436.669846 207.345281
L 436.098166 206.773601
L 435.491718 206.238945
L 434.852896 205.743423
L 434.18422 205.288992
L 433.488329 204.877443
L 432.767971 204.510402
L 432.025987 204.189317
L 431.265306 203.915455
L 430.48893 203.689897
L 429.699923 203.513533
L 428.901399 203.387059
L 428.09651 203.310975
L 427.288431 203.28558
L 426.480353 203.310975
L 425.675463 203.387059
L 424.876939 203.513533
L 424.087933 203.689897
L 423.311557 203.915455
L 422.550876 204.189317
L 421.808892 204.510402
L 421.088533 204.877443
L 420.392642 205.288992
L 419.723966 205.743423
L 419.085144 206.238945
L 323.986254 285.826179
L 323.379806 286.360835
L 322.808126 286.932515
L 322.27347 287.538963
L 321.777949 288.177786
L 321.323517 288.846462
L 320.911968 289.542352
L 320.544927 290.262711
L 253.441491 441.838157
L 253.120405 442.580141
L 252.846543 443.340822
L 252.620985 444.117198
L 252.444621 444.906205
L 233.07927 551.218286
L 232.952797 552.01681
L 215.892746 671.159594
L 215.816662 671.964483
L 215.791267 672.772562
L 215.816662 673.580641
L 215.892746 674.38553
L 216.01922 675.184054
L 216.195584 675.973061
L 216.421142 676.749436
L 216.695004 677.510117
L 217.016089 678.252101
L 217.38313 678.97246
L 217.794679 679.668351
L 218.24911 680.337027
L 218.744632 680.975849
L 219.279288 681.582297
L 219.850968 682.153977
L 220.457416 682.688633
L 221.096238 683.184155
L 221.764914 683.638586
L 222.460805 684.050135
L 223.181164 684.417176
L 223.923148 684.738261
L 224.683829 685.012123
L 225.460204 685.237681
L 226.249211 685.414045
L 227.047735 685.540519
L 227.852624 685.616603
L 228.660703 685.641998
L 229.468782 685.616603
L 230.273671 685.540519
L 231.072195 685.414045
L 231.861202 685.237681
L 232.637577 685.012123
L 233.398258 684.738261
L 512.122808 571.161522
L 512.864792 570.840437
L 513.585151 570.473396
L 514.281042 570.061847
L 514.949718 569.607415
L 515.58854 569.111894
L 516.194988 568.577238
L 516.766668 568.005558
L 517.301324 567.39911
L 517.796845 566.760288
L 518.251277 566.091611
L 518.662826 565.395721
L 519.029867 564.675362
z
" clip-path="url(#pc554e67f7a)" style="fill: #f59e0b; fill-opacity: 0.13; stroke: #d97706; stroke-opacity: 0.13; stroke-width: 0.8"/>
    <path d="M 179.0023 216.04988
L 136.505024 441.923293
L 136.37855 442.721817
L 136.302466 443.526707
L 136.277071 444.334785
L 136.302466 445.142864
L 136.37855 445.947753
L 136.505024 446.746277
L 136.681388 447.535284
L 136.906946 448.31166
L 216.421142 676.749436
L 216.695004 677.510117
L 217.016089 678.252101
L 217.38313 678.97246
L 217.794679 679.668351
L 218.24911 680.337027
L 218.744632 680.975849
L 219.279288 681.582297
L 219.850968 682.153977
L 220.457416 682.688633
L 221.096238 683.184155
L 221.764914 683.638586
L 222.460805 684.050135
L 223.181164 684.417176
L 223.923148 684.738261
L 224.683829 685.012123
L 225.460204 685.237681
L 226.249211 685.414045
L 227.047735 685.540519
L 227.852624 685.616603
L 228.660703 685.641998
L 229.468782 685.616603
L 230.273671 685.540519
L 231.072195 685.414045
L 231.861202 685.237681
L 232.637577 685.012123
L 233.398258 684.738261
L 234.140242 684.417176
L 421.660747 601.904392
L 422.381105 601.537351
L 423.076996 601.125803
L 423.745672 600.671371
L 424.384495 600.175849
L 424.990943 599.641193
L 425.562623 599.069514
L 426.097278 598.463066
L 426.5928 597.824243
L 427.047232 597.155567
L 427.45878 596.459676
L 427.825821 595.739318
L 428.146906 594.997334
L 428.420768 594.236653
L 505.841984 376.311634
L 506.067542 375.535258
L 506.243906 374.746252
L 506.370379 373.947728
L 506.446464 373.142838
L 506.471859 372.33476
L 506.446464 371.526681
L 506.370379 370.721792
L 506.243906 369.923268
L 506.067542 369.134261
L 505.841984 368.357885
L 505.568122 367.597204
L 505.247036 366.85522
L 504.879995 366.134862
L 504.468447 365.438971
L 504.014015 364.770295
L 503.518493 364.131473
L 502.983838 363.525025
L 444.605563 300.374257
L 444.033883 299.802577
L 443.427435 299.267921
L 442.788612 298.772399
L 442.119936 298.317968
L 441.424046 297.906419
L 440.703687 297.539378
L 439.961703 297.218293
L 196.381339 206.495673
L 195.620658 206.221811
L 194.844282 205.996252
L 194.055275 205.819889
L 193.256751 205.693415
L 192.451862 205.61733
L 191.643783 205.591935
L 190.835705 205.61733
L 190.030815 205.693415
L 189.232291 205.819889
L 188.443285 205.996252
L 187.666909 206.221811
L 186.906228 206.495673
L 186.164244 206.816758
L 185.443885 207.183799
L 184.747995 207.595347
L 184.079319 208.049779
L 183.440496 208.545301
L 182.834048 209.079956
L 182.262368 209.651636
L 181.727712 210.258084
L 181.232191 210.896907
L 180.777759 211.565583
L 180.36621 212.261473
L 179.999169 212.981832
L 179.678084 213.723816
L 179.404222 214.484497
L 179.178664 215.260873
z
" clip-path="url(#pc554e67f7a)" style="fill: #f59e0b; fill-opacity: 0.13; stroke: #d97706; stroke-opacity: 0.13; stroke-width: 0.8"/>
    <path d="M 329.874437 631.234477
L 551.417958 476.187385
L 552.05678 475.691864
L 552.663228 475.157208
L 553.234908 474.585528
L 553.769564 473.97908
L 554.265085 473.340258
L 554.719517 472.671582
L 555.131066 471.975691
L 555.498107 471.255332
L 555.819192 470.513348
L 556.093054 469.752667
L 556.318612 468.976291
L 556.494976 468.187285
L 556.62145 467.388761
L 556.697534 466.583871
L 556.722929 465.775793
L 556.697534 464.967714
L 556.62145 464.162825
L 556.494976 463.364301
L 556.318612 462.575294
L 556.093054 461.798918
L 555.819192 461.038237
L 555.498107 460.296253
L 438.933045 210.675477
L 438.566004 209.955118
L 438.154455 209.259227
L 437.700024 208.590551
L 437.204502 207.951729
L 436.669846 207.345281
L 436.098166 206.773601
L 435.491718 206.238945
L 434.852896 205.743423
L 434.18422 205.288992
L 433.488329 204.877443
L 432.767971 204.510402
L 341.762938 163.342824
L 341.020954 163.021739
L 340.260273 162.747877
L 339.483898 162.522319
L 338.694891 162.345955
L 337.896367 162.219481
L 337.091478 162.143397
L 336.283399 162.118002
L 335.47532 162.143397
L 334.670431 162.219481
L 333.871907 162.345955
L 333.0829 162.522319
L 332.306525 162.747877
L 187.666909 206.221811
L 186.906228 206.495673
L 186.164244 206.816758
L 185.443885 207.183799
L 184.747995 207.595347
L 184.079319 208.049779
L 183.440496 208.545301
L 182.834048 209.079956
L 182.262368 209.651636
L 181.727712 210.258084
L 181.232191 210.896907
L 180.777759 211.565583
L 180.36621 212.261473
L 179.999169 212.981832
L 179.678084 213.723816
L 179.404222 214.484497
L 179.178664 215.260873
L 179.0023 216.04988
L 136.505024 441.923293
L 136.37855 442.721817
L 136.302466 443.526707
L 136.277071 444.334785
L 136.302466 445.142864
L 136.37855 445.947753
L 136.505024 446.746277
L 136.681388 447.535284
L 136.906946 448.31166
L 137.180808 449.072341
L 137.501893 449.814325
L 137.868934 450.534683
L 180.666431 524.314348
L 181.07798 525.010238
L 181.532412 525.678914
L 182.027933 526.317737
L 182.562589 526.924185
L 183.134269 527.495865
L 183.740717 528.030521
L 314.106685 630.738955
L 314.745508 631.234477
L 315.414184 631.688909
L 316.110074 632.100457
L 316.830433 632.467498
L 317.572417 632.788584
L 318.333098 633.062446
L 319.109474 633.288004
L 319.898481 633.464368
L 320.697004 633.590841
L 321.501894 633.666926
L 322.309972 633.692321
L 323.118051 633.666926
L 323.922941 633.590841
L 324.721464 633.464368
L 325.510471 633.288004
L 326.286847 633.062446
L 327.047528 632.788584
L 327.789512 632.467498
L 328.509871 632.100457
L 329.205761 631.688909
z
" clip-path="url(#pc554e67f7a)" style="fill: #f59e0b; fill-opacity: 0.13; stroke: #d97706; stroke-opacity: 0.13; stroke-width: 0.8"/>
    <path d="M 179.0023 216.04988
L 136.505024 441.923293
L 136.37855 442.721817
L 136.302466 443.526707
L 136.277071 444.334785
L 136.302466 445.142864
L 136.37855 445.947753
L 136.505024 446.746277
L 136.681388 447.535284
L 136.906946 448.31166
L 137.180808 449.072341
L 137.501893 449.814325
L 137.868934 450.534683
L 180.666431 524.314348
L 181.07798 525.010238
L 181.532412 525.678914
L 182.027933 526.317737
L 182.562589 526.924185
L 183.134269 527.495865
L 183.740717 528.030521
L 184.37954 528.526042
L 185.048216 528.980474
L 185.744106 529.392022
L 186.464465 529.759064
L 187.206449 530.080149
L 187.96713 530.354011
L 188.743506 530.579569
L 408.514805 583.416837
L 409.303812 583.593201
L 410.102336 583.719675
L 410.907225 583.795759
L 411.715304 583.821154
L 412.523382 583.795759
L 413.328272 583.719675
L 414.126796 583.593201
L 414.915802 583.416837
L 415.692178 583.191279
L 416.452859 582.917417
L 417.194843 582.596332
L 417.915202 582.229291
L 418.611093 581.817742
L 419.279769 581.363311
L 419.918591 580.867789
L 552.05678 475.691864
L 552.663228 475.157208
L 553.234908 474.585528
L 553.769564 473.97908
L 554.265085 473.340258
L 554.719517 472.671582
L 555.131066 471.975691
L 555.498107 471.255332
L 555.819192 470.513348
L 556.093054 469.752667
L 556.318612 468.976291
L 556.494976 468.187285
L 556.62145 467.388761
L 556.697534 466.583871
L 556.722929 465.775793
L 556.697534 464.967714
L 540.491659 252.40058
L 540.415575 251.595691
L 540.289101 250.797167
L 540.112737 250.00816
L 539.887179 249.231784
L 539.613317 248.471103
L 539.292232 247.729119
L 538.925191 247.008761
L 538.513642 246.31287
L 538.059211 245.644194
L 537.563689 245.005372
L 537.029033 244.398924
L 536.457353 243.827244
L 535.850905 243.292588
L 535.212083 242.797066
L 534.543407 242.342635
L 533.847516 241.931086
L 533.127157 241.564045
L 532.385173 241.24296
L 341.020954 163.021739
L 340.260273 162.747877
L 339.483898 162.522319
L 338.694891 162.345955
L 337.896367 162.219481
L 337.091478 162.143397
L 336.283399 162.118002
L 335.47532 162.143397
L 334.670431 162.219481
L 333.871907 162.345955
L 333.0829 162.522319
L 332.306525 162.747877
L 187.666909 206.221811
L 186.906228 206.495673
L 186.164244 206.816758
L 185.443885 207.183799
L 184.747995 207.595347
L 184.079319 208.049779
L 183.440496 208.545301
L 182.834048 209.079956
L 182.262368 209.651636
L 181.727712 210.258084
L 181.232191 210.896907
L 180.777759 211.565583
L 180.36621 212.261473
L 179.999169 212.981832
L 179.678084 213.723816
L 179.404222 214.484497
L 179.178664 215.260873
z
" clip-path="url(#pc554e67f7a)" style="fill: #f59e0b; fill-opacity: 0.13; stroke: #d97706; stroke-opacity: 0.13; stroke-width: 0.8"/>
    <path d="M 427.02086 299.267921
L 183.740717 508.198379
L 183.134269 508.733034
L 182.562589 509.304714
L 182.027933 509.911162
L 181.532412 510.549985
L 181.07798 511.218661
L 180.666431 511.914551
L 180.29939 512.63491
L 179.978305 513.376894
L 179.704443 514.137575
L 179.478885 514.913951
L 179.302521 515.702958
L 179.176047 516.501481
L 179.099963 517.306371
L 179.074568 518.11445
L 179.099963 518.922528
L 179.176047 519.727418
L 179.302521 520.525941
L 179.478885 521.314948
L 179.704443 522.091324
L 179.978305 522.852005
L 180.29939 523.593989
L 180.666431 524.314348
L 181.07798 525.010238
L 181.532412 525.678914
L 182.027933 526.317737
L 182.562589 526.924185
L 183.134269 527.495865
L 183.740717 528.030521
L 314.106685 630.738955
L 314.745508 631.234477
L 315.414184 631.688909
L 316.110074 632.100457
L 316.830433 632.467498
L 317.572417 632.788584
L 318.333098 633.062446
L 319.109474 633.288004
L 319.898481 633.464368
L 320.697004 633.590841
L 321.501894 633.666926
L 322.309972 633.692321
L 323.118051 633.666926
L 323.922941 633.590841
L 324.721464 633.464368
L 325.510471 633.288004
L 326.286847 633.062446
L 420.158082 602.499339
L 420.918763 602.225477
L 421.660747 601.904392
L 422.381105 601.537351
L 423.076996 601.125803
L 423.745672 600.671371
L 424.384495 600.175849
L 424.990943 599.641193
L 552.663228 475.157208
L 553.234908 474.585528
L 553.769564 473.97908
L 554.265085 473.340258
L 554.719517 472.671582
L 555.131066 471.975691
L 555.498107 471.255332
L 555.819192 470.513348
L 556.093054 469.752667
L 556.318612 468.976291
L 556.494976 468.187285
L 556.62145 467.388761
L 556.697534 466.583871
L 556.722929 465.775793
L 556.697534 464.967714
L 556.62145 464.162825
L 556.494976 463.364301
L 556.318612 462.575294
L 556.093054 461.798918
L 555.819192 461.038237
L 555.498107 460.296253
L 555.131066 459.575895
L 504.879995 366.134862
L 504.468447 365.438971
L 504.014015 364.770295
L 503.518493 364.131473
L 502.983838 363.525025
L 444.605563 300.374257
L 444.033883 299.802577
L 443.427435 299.267921
L 442.788612 298.772399
L 442.119936 298.317968
L 441.424046 297.906419
L 440.703687 297.539378
L 439.961703 297.218293
L 439.201022 296.944431
L 438.424646 296.718873
L 437.635639 296.542509
L 436.837116 296.416035
L 436.032226 296.339951
L 435.224148 296.314556
L 434.416069 296.339951
L 433.61118 296.416035
L 432.812656 296.542509
L 432.023649 296.718873
L 431.247273 296.944431
L 430.486592 297.218293
L 429.744608 297.539378
L 429.024249 297.906419
L 428.328359 298.317968
L 427.659683 298.772399
z
" clip-path="url(#pc554e67f7a)" style="fill: #f59e0b; fill-opacity: 0.13; stroke: #d97706; stroke-opacity: 0.13; stroke-width: 0.8"/>
    <path d="M 216.195584 675.973061
L 216.421142 676.749436
L 216.695004 677.510117
L 217.016089 678.252101
L 217.38313 678.97246
L 217.794679 679.668351
L 218.24911 680.337027
L 218.744632 680.975849
L 219.279288 681.582297
L 219.850968 682.153977
L 220.457416 682.688633
L 221.096238 683.184155
L 221.764914 683.638586
L 222.460805 684.050135
L 223.181164 684.417176
L 223.923148 684.738261
L 224.683829 685.012123
L 225.460204 685.237681
L 226.249211 685.414045
L 227.047735 685.540519
L 227.852624 685.616603
L 228.660703 685.641998
L 229.468782 685.616603
L 230.273671 685.540519
L 231.072195 685.414045
L 231.861202 685.237681
L 232.637577 685.012123
L 233.398258 684.738261
L 234.140242 684.417176
L 234.860601 684.050135
L 417.915202 582.229291
L 418.611093 581.817742
L 419.279769 581.363311
L 419.918591 580.867789
L 420.525039 580.333133
L 421.096719 579.761453
L 421.631375 579.155005
L 422.126896 578.516183
L 422.581328 577.847507
L 488.482129 472.10137
L 488.893678 471.40548
L 489.260719 470.685121
L 489.581804 469.943137
L 489.855666 469.182456
L 490.081224 468.40608
L 540.112737 256.409158
L 540.289101 255.620151
L 540.415575 254.821627
L 540.491659 254.016737
L 540.517054 253.208659
L 540.491659 252.40058
L 540.415575 251.595691
L 540.289101 250.797167
L 540.112737 250.00816
L 539.887179 249.231784
L 539.613317 248.471103
L 539.292232 247.729119
L 538.925191 247.008761
L 538.513642 246.31287
L 538.059211 245.644194
L 537.563689 245.005372
L 537.029033 244.398924
L 536.457353 243.827244
L 535.850905 243.292588
L 535.212083 242.797066
L 534.543407 242.342635
L 533.847516 241.931086
L 533.127157 241.564045
L 532.385173 241.24296
L 531.624492 240.969098
L 530.848117 240.74354
L 530.05911 240.567176
L 529.260586 240.440702
L 528.455697 240.364618
L 527.647618 240.339223
L 526.839539 240.364618
L 311.316632 260.445435
L 310.511742 260.521519
L 309.713218 260.647993
L 308.924212 260.824357
L 308.147836 261.049915
L 307.387155 261.323777
L 306.645171 261.644862
L 305.924812 262.011903
L 305.228922 262.423451
L 304.560246 262.877883
L 303.921423 263.373405
L 222.653924 326.989005
L 222.047476 327.523661
L 221.475796 328.095341
L 220.94114 328.701789
L 220.445619 329.340612
L 219.991187 330.009288
L 219.579639 330.705178
L 219.212598 331.425537
L 218.891512 332.167521
L 218.61765 332.928202
L 218.392092 333.704578
L 218.215728 334.493585
L 179.302521 515.702958
L 179.176047 516.501481
L 179.099963 517.306371
L 179.074568 518.11445
L 179.099963 518.922528
L 179.176047 519.727418
L 179.302521 520.525941
L 179.478885 521.314948
z
" clip-path="url(#pc554e67f7a)" style="fill: #f59e0b; fill-opacity: 0.13; stroke: #d97706; stroke-opacity: 0.13; stroke-width: 0.8"/>
   </g>
   <g id="LineCollection_1"/>
   <g id="PathCollection_1">
    <defs>
     <path id="m82c9e98f7c" d="M 0 6
C 1.591219 6 3.117479 5.367802 4.242641 4.242641
C 5.367802 3.117479 6 1.591219 6 0
C 6 -1.591219 5.367802 -3.117479 4.242641 -4.242641
C 3.117479 -5.367802 1.591219 -6 0 -6
C -1.591219 -6 -3.117479 -5.367802 -4.242641 -4.242641
C -5.367802 -3.117479 -6 -1.591219 -6 0
C -6 1.591219 -5.367802 3.117479 -4.242641 4.242641
C -3.117479 5.367802 -1.591219 6 0 6
z
" style="stroke: #334155; stroke-width: 0.8"/>
    </defs>
    <g clip-path="url(#pc554e67f7a)">
     <use xlink:href="#m82c9e98f7c" x="228.660703" y="672.772562" style="fill: #38bdf8; stroke: #334155; stroke-width: 0.8"/>
     <use xlink:href="#m82c9e98f7c" x="191.643783" y="218.461372" style="fill: #38bdf8; stroke: #334155; stroke-width: 0.8"/>
     <use xlink:href="#m82c9e98f7c" x="398.433428" y="488.933888" style="fill: #38bdf8; stroke: #334155; stroke-width: 0.8"/>
     <use xlink:href="#m82c9e98f7c" x="275.244983" y="435.554844" style="fill: #38bdf8; stroke: #334155; stroke-width: 0.8"/>
     <use xlink:href="#m82c9e98f7c" x="362.335407" y="395.485766" style="fill: #38bdf8; stroke: #334155; stroke-width: 0.8"/>
     <use xlink:href="#m82c9e98f7c" x="435.224148" y="309.183992" style="fill: #38bdf8; stroke: #334155; stroke-width: 0.8"/>
     <use xlink:href="#m82c9e98f7c" x="230.857211" y="336.905076" style="fill: #38bdf8; stroke: #334155; stroke-width: 0.8"/>
     <use xlink:href="#m82c9e98f7c" x="265.086104" y="447.317697" style="fill: #38bdf8; stroke: #334155; stroke-width: 0.8"/>
     <use xlink:href="#m82c9e98f7c" x="350.101626" y="494.413495" style="fill: #38bdf8; stroke: #334155; stroke-width: 0.8"/>
     <use xlink:href="#m82c9e98f7c" x="362.534054" y="387.142983" style="fill: #38bdf8; stroke: #334155; stroke-width: 0.8"/>
     <use xlink:href="#m82c9e98f7c" x="265.099399" y="447.34562" style="fill: #38bdf8; stroke: #334155; stroke-width: 0.8"/>
     <use xlink:href="#m82c9e98f7c" x="413.893302" y="396.026805" style="fill: #38bdf8; stroke: #334155; stroke-width: 0.8"/>
     <use xlink:href="#m82c9e98f7c" x="445.254356" y="472.07557" style="fill: #38bdf8; stroke: #334155; stroke-width: 0.8"/>
     <use xlink:href="#m82c9e98f7c" x="493.602422" y="372.33476" style="fill: #38bdf8; stroke: #334155; stroke-width: 0.8"/>
     <use xlink:href="#m82c9e98f7c" x="411.715304" y="570.951718" style="fill: #38bdf8; stroke: #334155; stroke-width: 0.8"/>
     <use xlink:href="#m82c9e98f7c" x="312.12471" y="273.289476" style="fill: #38bdf8; stroke: #334155; stroke-width: 0.8"/>
     <use xlink:href="#m82c9e98f7c" x="149.146507" y="444.334785" style="fill: #38bdf8; stroke: #334155; stroke-width: 0.8"/>
     <use xlink:href="#m82c9e98f7c" x="181.443895" y="384.212933" style="fill: #38bdf8; stroke: #334155; stroke-width: 0.8"/>
     <use xlink:href="#m82c9e98f7c" x="224.432085" y="323.861562" style="fill: #38bdf8; stroke: #334155; stroke-width: 0.8"/>
     <use xlink:href="#m82c9e98f7c" x="332.189541" y="295.74225" style="fill: #38bdf8; stroke: #334155; stroke-width: 0.8"/>
     <use xlink:href="#m82c9e98f7c" x="416.181207" y="590.259778" style="fill: #38bdf8; stroke: #334155; stroke-width: 0.8"/>
     <use xlink:href="#m82c9e98f7c" x="245.720753" y="553.629778" style="fill: #38bdf8; stroke: #334155; stroke-width: 0.8"/>
     <use xlink:href="#m82c9e98f7c" x="527.647618" y="253.208659" style="fill: #38bdf8; stroke: #334155; stroke-width: 0.8"/>
     <use xlink:href="#m82c9e98f7c" x="427.288431" y="216.155016" style="fill: #38bdf8; stroke: #334155; stroke-width: 0.8"/>
     <use xlink:href="#m82c9e98f7c" x="191.944004" y="518.11445" style="fill: #38bdf8; stroke: #334155; stroke-width: 0.8"/>
     <use xlink:href="#m82c9e98f7c" x="311.306911" y="296.230093" style="fill: #38bdf8; stroke: #334155; stroke-width: 0.8"/>
     <use xlink:href="#m82c9e98f7c" x="543.853493" y="465.775793" style="fill: #38bdf8; stroke: #334155; stroke-width: 0.8"/>
     <use xlink:href="#m82c9e98f7c" x="336.283399" y="174.987438" style="fill: #38bdf8; stroke: #334155; stroke-width: 0.8"/>
     <use xlink:href="#m82c9e98f7c" x="435.056749" y="302.880122" style="fill: #38bdf8; stroke: #334155; stroke-width: 0.8"/>
     <use xlink:href="#m82c9e98f7c" x="477.616105" y="465.205582" style="fill: #38bdf8; stroke: #334155; stroke-width: 0.8"/>
     <use xlink:href="#m82c9e98f7c" x="322.309972" y="620.822885" style="fill: #38bdf8; stroke: #334155; stroke-width: 0.8"/>
     <use xlink:href="#m82c9e98f7c" x="507.385253" y="559.195823" style="fill: #38bdf8; stroke: #334155; stroke-width: 0.8"/>
     <use xlink:href="#m82c9e98f7c" x="521.092646" y="374.439096" style="fill: #38bdf8; stroke: #334155; stroke-width: 0.8"/>
     <use xlink:href="#m82c9e98f7c" x="313.542478" y="565.798866" style="fill: #38bdf8; stroke: #334155; stroke-width: 0.8"/>
    </g>
   </g>
   <g id="text_2">
    <g clip-path="url(#pc554e67f7a)">
     <text style="font-size: 8.2px; font-family: 'DejaVu Sans', 'Bitstream Vera Sans', 'Computer Modern Sans Serif', 'Lucida Grande', 'Verdana', 'Geneva', 'Lucid', 'Arial', 'Helvetica', 'Avant Garde', sans-serif; text-anchor: middle; fill: #111827" x="275.244983" y="437.817531" transform="rotate(-0 275.244983 437.817531)">fair</text>
    </g>
   </g>
   <g id="text_3">
    <g clip-path="url(#pc554e67f7a)">
     <text style="font-size: 8.2px; font-family: 'DejaVu Sans', 'Bitstream Vera Sans', 'Computer Modern Sans Serif', 'Lucida Grande', 'Verdana', 'Geneva', 'Lucid', 'Arial', 'Helvetica', 'Avant Garde', sans-serif; text-anchor: middle; fill: #111827" x="435.224148" y="311.446679" transform="rotate(-0 435.224148 311.446679)">fierce</text>
    </g>
   </g>
   <g id="text_4">
    <g clip-path="url(#pc554e67f7a)">
     <text style="font-size: 8.2px; font-family: 'DejaVu Sans', 'Bitstream Vera Sans', 'Computer Modern Sans Serif', 'Lucida Grande', 'Verdana', 'Geneva', 'Lucid', 'Arial', 'Helvetica', 'Avant Garde', sans-serif; text-anchor: middle; fill: #111827" x="149.146507" y="446.597473" transform="rotate(-0 149.146507 446.597473)">sacred</text>
    </g>
   </g>
   <g id="text_5">
    <g clip-path="url(#pc554e67f7a)">
     <text style="font-size: 8.2px; font-family: 'DejaVu Sans', 'Bitstream Vera Sans', 'Computer Modern Sans Serif', 'Lucida Grande', 'Verdana', 'Geneva', 'Lucid', 'Arial', 'Helvetica', 'Avant Garde', sans-serif; text-anchor: middle; fill: #111827" x="413.893302" y="398.289492" transform="rotate(-0 413.893302 398.289492)">long</text>
    </g>
   </g>
   <g id="text_6">
    <g clip-path="url(#pc554e67f7a)">
     <text style="font-size: 8.2px; font-family: 'DejaVu Sans', 'Bitstream Vera Sans', 'Computer Modern Sans Serif', 'Lucida Grande', 'Verdana', 'Geneva', 'Lucid', 'Arial', 'Helvetica', 'Avant Garde', sans-serif; text-anchor: middle; fill: #111827" x="362.534054" y="389.405671" transform="rotate(-0 362.534054 389.405671)">high</text>
    </g>
   </g>
   <g id="text_7">
    <g clip-path="url(#pc554e67f7a)">
     <text style="font-size: 8.2px; font-family: 'DejaVu Sans', 'Bitstream Vera Sans', 'Computer Modern Sans Serif', 'Lucida Grande', 'Verdana', 'Geneva', 'Lucid', 'Arial', 'Helvetica', 'Avant Garde', sans-serif; text-anchor: middle; fill: #111827" x="245.720753" y="555.892466" transform="rotate(-0 245.720753 555.892466)">young</text>
    </g>
   </g>
   <g id="text_8">
    <g clip-path="url(#pc554e67f7a)">
     <text style="font-size: 8.2px; font-family: 'DejaVu Sans', 'Bitstream Vera Sans', 'Computer Modern Sans Serif', 'Lucida Grande', 'Verdana', 'Geneva', 'Lucid', 'Arial', 'Helvetica', 'Avant Garde', sans-serif; text-anchor: middle; fill: #111827" x="191.643783" y="220.724059" transform="rotate(-0 191.643783 220.724059)">bright</text>
    </g>
   </g>
   <g id="text_9">
    <g clip-path="url(#pc554e67f7a)">
     <text style="font-size: 8.2px; font-family: 'DejaVu Sans', 'Bitstream Vera Sans', 'Computer Modern Sans Serif', 'Lucida Grande', 'Verdana', 'Geneva', 'Lucid', 'Arial', 'Helvetica', 'Avant Garde', sans-serif; text-anchor: middle; fill: #111827" x="493.602422" y="374.597447" transform="rotate(-0 493.602422 374.597447)">old</text>
    </g>
   </g>
   <g id="text_10">
    <g clip-path="url(#pc554e67f7a)">
     <text style="font-size: 8.2px; font-family: 'DejaVu Sans', 'Bitstream Vera Sans', 'Computer Modern Sans Serif', 'Lucida Grande', 'Verdana', 'Geneva', 'Lucid', 'Arial', 'Helvetica', 'Avant Garde', sans-serif; text-anchor: middle; fill: #111827" x="411.715304" y="573.214405" transform="rotate(-0 411.715304 573.214405)">royal</text>
    </g>
   </g>
   <g id="text_11">
    <g clip-path="url(#pc554e67f7a)">
     <text style="font-size: 8.2px; font-family: 'DejaVu Sans', 'Bitstream Vera Sans', 'Computer Modern Sans Serif', 'Lucida Grande', 'Verdana', 'Geneva', 'Lucid', 'Arial', 'Helvetica', 'Avant Garde', sans-serif; text-anchor: middle; fill: #111827" x="416.181207" y="592.522466" transform="rotate(-0 416.181207 592.522466)">wise</text>
    </g>
   </g>
   <g id="text_12">
    <g clip-path="url(#pc554e67f7a)">
     <text style="font-size: 8.2px; font-family: 'DejaVu Sans', 'Bitstream Vera Sans', 'Computer Modern Sans Serif', 'Lucida Grande', 'Verdana', 'Geneva', 'Lucid', 'Arial', 'Helvetica', 'Avant Garde', sans-serif; text-anchor: middle; fill: #111827" x="350.101626" y="496.676182" transform="rotate(-0 350.101626 496.676182)">great</text>
    </g>
   </g>
   <g id="text_13">
    <g clip-path="url(#pc554e67f7a)">
     <text style="font-size: 8.2px; font-family: 'DejaVu Sans', 'Bitstream Vera Sans', 'Computer Modern Sans Serif', 'Lucida Grande', 'Verdana', 'Geneva', 'Lucid', 'Arial', 'Helvetica', 'Avant Garde', sans-serif; text-anchor: middle; fill: #111827" x="435.056749" y="305.14281" transform="rotate(-0 435.056749 305.14281)">sad</text>
    </g>
   </g>
   <g id="text_14">
    <g clip-path="url(#pc554e67f7a)">
     <text style="font-size: 8.2px; font-family: 'DejaVu Sans', 'Bitstream Vera Sans', 'Computer Modern Sans Serif', 'Lucida Grande', 'Verdana', 'Geneva', 'Lucid', 'Arial', 'Helvetica', 'Avant Garde', sans-serif; text-anchor: middle; fill: #111827" x="332.189541" y="298.004938" transform="rotate(-0 332.189541 298.004938)">wide</text>
    </g>
   </g>
   <g id="text_15">
    <g clip-path="url(#pc554e67f7a)">
     <text style="font-size: 8.2px; font-family: 'DejaVu Sans', 'Bitstream Vera Sans', 'Computer Modern Sans Serif', 'Lucida Grande', 'Verdana', 'Geneva', 'Lucid', 'Arial', 'Helvetica', 'Avant Garde', sans-serif; text-anchor: middle; fill: #111827" x="398.433428" y="491.196576" transform="rotate(-0 398.433428 491.196576)">divine</text>
    </g>
   </g>
   <g id="text_16">
    <g clip-path="url(#pc554e67f7a)">
     <text style="font-size: 8.2px; font-family: 'DejaVu Sans', 'Bitstream Vera Sans', 'Computer Modern Sans Serif', 'Lucida Grande', 'Verdana', 'Geneva', 'Lucid', 'Arial', 'Helvetica', 'Avant Garde', sans-serif; text-anchor: middle; fill: #111827" x="445.254356" y="474.338257" transform="rotate(-0 445.254356 474.338257)">mighty</text>
    </g>
   </g>
   <g id="text_17">
    <g clip-path="url(#pc554e67f7a)">
     <text style="font-size: 8.2px; font-family: 'DejaVu Sans', 'Bitstream Vera Sans', 'Computer Modern Sans Serif', 'Lucida Grande', 'Verdana', 'Geneva', 'Lucid', 'Arial', 'Helvetica', 'Avant Garde', sans-serif; text-anchor: middle; fill: #111827" x="427.288431" y="218.417704" transform="rotate(-0 427.288431 218.417704)">deep</text>
    </g>
   </g>
  </g>
  <g id="axes_2">
   <g id="LineCollection_2">
    <path d="M 1092.352982 467.545587
L 1034.272704 334.783424
" clip-path="url(#p26d755cbce)" style="fill: none; stroke: #64748b; stroke-width: 0.65"/>
    <path d="M 1130.641733 234.883727
L 1034.272704 334.783424
" clip-path="url(#p26d755cbce)" style="fill: none; stroke: #64748b; stroke-width: 0.65"/>
    <path d="M 1139.202802 305.940688
L 1034.272704 334.783424
" clip-path="url(#p26d755cbce)" style="fill: none; stroke: #64748b; stroke-width: 0.65"/>
    <path d="M 1037.242228 474.711158
L 1034.272704 334.783424
" clip-path="url(#p26d755cbce)" style="fill: none; stroke: #64748b; stroke-width: 0.65"/>
    <path d="M 1104.13541 295.62954
L 1034.272704 334.783424
" clip-path="url(#p26d755cbce)" style="fill: none; stroke: #64748b; stroke-width: 0.65"/>
    <path d="M 1185.099744 330.701007
L 1034.272704 334.783424
" clip-path="url(#p26d755cbce)" style="fill: none; stroke: #64748b; stroke-width: 0.65"/>
    <path d="M 828.867977 410.601059
L 1034.272704 334.783424
" clip-path="url(#p26d755cbce)" style="fill: none; stroke: #64748b; stroke-width: 0.65"/>
    <path d="M 988.314564 454.469056
L 1034.272704 334.783424
" clip-path="url(#p26d755cbce)" style="fill: none; stroke: #64748b; stroke-width: 0.65"/>
    <path d="M 975.405657 406.674685
L 1034.272704 334.783424
" clip-path="url(#p26d755cbce)" style="fill: none; stroke: #64748b; stroke-width: 0.65"/>
    <path d="M 1079.822699 514.046327
L 1034.272704 334.783424
" clip-path="url(#p26d755cbce)" style="fill: none; stroke: #64748b; stroke-width: 0.65"/>
    <path d="M 1172.879335 380.377353
L 1034.272704 334.783424
" clip-path="url(#p26d755cbce)" style="fill: none; stroke: #64748b; stroke-width: 0.65"/>
    <path d="M 1167.282265 273.962181
L 1034.272704 334.783424
" clip-path="url(#p26d755cbce)" style="fill: none; stroke: #64748b; stroke-width: 0.65"/>
    <path d="M 1074.590716 264.694809
L 1034.272704 334.783424
" clip-path="url(#p26d755cbce)" style="fill: none; stroke: #64748b; stroke-width: 0.65"/>
    <path d="M 957.509395 317.814337
L 1034.272704 334.783424
" clip-path="url(#p26d755cbce)" style="fill: none; stroke: #64748b; stroke-width: 0.65"/>
    <path d="M 1113.749488 522.123375
L 1034.272704 334.783424
" clip-path="url(#p26d755cbce)" style="fill: none; stroke: #64748b; stroke-width: 0.65"/>
    <path d="M 945.316452 370.999656
L 1034.272704 334.783424
" clip-path="url(#p26d755cbce)" style="fill: none; stroke: #64748b; stroke-width: 0.65"/>
    <path d="M 1051.556782 219.893625
L 1034.272704 334.783424
" clip-path="url(#p26d755cbce)" style="fill: none; stroke: #64748b; stroke-width: 0.65"/>
    <path d="M 1242.932023 314.175439
L 1034.272704 334.783424
" clip-path="url(#p26d755cbce)" style="fill: none; stroke: #64748b; stroke-width: 0.65"/>
    <path d="M 901.89457 309.521673
L 1034.272704 334.783424
" clip-path="url(#p26d755cbce)" style="fill: none; stroke: #64748b; stroke-width: 0.65"/>
    <path d="M 945.032425 447.174428
L 1034.272704 334.783424
" clip-path="url(#p26d755cbce)" style="fill: none; stroke: #64748b; stroke-width: 0.65"/>
    <path d="M 997.390251 493.107229
L 1034.272704 334.783424
" clip-path="url(#p26d755cbce)" style="fill: none; stroke: #64748b; stroke-width: 0.65"/>
    <path d="M 911.708481 430.935769
L 1034.272704 334.783424
" clip-path="url(#p26d755cbce)" style="fill: none; stroke: #64748b; stroke-width: 0.65"/>
    <path d="M 1092.352982 467.545587
L 1147.558667 450.874427
" clip-path="url(#p26d755cbce)" style="fill: none; stroke: #64748b; stroke-width: 0.65"/>
    <path d="M 1130.641733 234.883727
L 1147.558667 450.874427
" clip-path="url(#p26d755cbce)" style="fill: none; stroke: #64748b; stroke-width: 0.65"/>
    <path d="M 1037.242228 474.711158
L 1147.558667 450.874427
" clip-path="url(#p26d755cbce)" style="fill: none; stroke: #64748b; stroke-width: 0.65"/>
    <path d="M 1104.13541 295.62954
L 1147.558667 450.874427
" clip-path="url(#p26d755cbce)" style="fill: none; stroke: #64748b; stroke-width: 0.65"/>
    <path d="M 991.270342 540.777638
L 1147.558667 450.874427
" clip-path="url(#p26d755cbce)" style="fill: none; stroke: #64748b; stroke-width: 0.65"/>
    <path d="M 1185.099744 330.701007
L 1147.558667 450.874427
" clip-path="url(#p26d755cbce)" style="fill: none; stroke: #64748b; stroke-width: 0.65"/>
    <path d="M 988.314564 454.469056
L 1147.558667 450.874427
" clip-path="url(#p26d755cbce)" style="fill: none; stroke: #64748b; stroke-width: 0.65"/>
    <path d="M 1242.523243 465.78158
L 1147.558667 450.874427
" clip-path="url(#p26d755cbce)" style="fill: none; stroke: #64748b; stroke-width: 0.65"/>
    <path d="M 975.405657 406.674685
L 1147.558667 450.874427
" clip-path="url(#p26d755cbce)" style="fill: none; stroke: #64748b; stroke-width: 0.65"/>
    <path d="M 1079.822699 514.046327
L 1147.558667 450.874427
" clip-path="url(#p26d755cbce)" style="fill: none; stroke: #64748b; stroke-width: 0.65"/>
    <path d="M 1172.879335 380.377353
L 1147.558667 450.874427
" clip-path="url(#p26d755cbce)" style="fill: none; stroke: #64748b; stroke-width: 0.65"/>
    <path d="M 1225.358761 374.570586
L 1147.558667 450.874427
" clip-path="url(#p26d755cbce)" style="fill: none; stroke: #64748b; stroke-width: 0.65"/>
    <path d="M 945.316452 370.999656
L 1147.558667 450.874427
" clip-path="url(#p26d755cbce)" style="fill: none; stroke: #64748b; stroke-width: 0.65"/>
    <path d="M 1242.932023 314.175439
L 1147.558667 450.874427
" clip-path="url(#p26d755cbce)" style="fill: none; stroke: #64748b; stroke-width: 0.65"/>
    <path d="M 1202.703777 432.649937
L 1147.558667 450.874427
" clip-path="url(#p26d755cbce)" style="fill: none; stroke: #64748b; stroke-width: 0.65"/>
    <path d="M 1034.587708 540.268131
L 1147.558667 450.874427
" clip-path="url(#p26d755cbce)" style="fill: none; stroke: #64748b; stroke-width: 0.65"/>
    <path d="M 1145.035309 494.490521
L 1147.558667 450.874427
" clip-path="url(#p26d755cbce)" style="fill: none; stroke: #64748b; stroke-width: 0.65"/>
    <path d="M 1160.068913 563.985106
L 1147.558667 450.874427
" clip-path="url(#p26d755cbce)" style="fill: none; stroke: #64748b; stroke-width: 0.65"/>
    <path d="M 911.708481 430.935769
L 1147.558667 450.874427
" clip-path="url(#p26d755cbce)" style="fill: none; stroke: #64748b; stroke-width: 0.65"/>
    <path d="M 1092.352982 467.545587
L 972.278029 627.866375
" clip-path="url(#p26d755cbce)" style="fill: none; stroke: #64748b; stroke-width: 0.65"/>
    <path d="M 1113.749488 522.123375
L 972.278029 627.866375
" clip-path="url(#p26d755cbce)" style="fill: none; stroke: #64748b; stroke-width: 0.65"/>
    <path d="M 1037.242228 474.711158
L 972.278029 627.866375
" clip-path="url(#p26d755cbce)" style="fill: none; stroke: #64748b; stroke-width: 0.65"/>
    <path d="M 953.462287 491.838661
L 972.278029 627.866375
" clip-path="url(#p26d755cbce)" style="fill: none; stroke: #64748b; stroke-width: 0.65"/>
    <path d="M 991.270342 540.777638
L 972.278029 627.866375
" clip-path="url(#p26d755cbce)" style="fill: none; stroke: #64748b; stroke-width: 0.65"/>
    <path d="M 828.867977 410.601059
L 972.278029 627.866375
" clip-path="url(#p26d755cbce)" style="fill: none; stroke: #64748b; stroke-width: 0.65"/>
    <path d="M 945.032425 447.174428
L 972.278029 627.866375
" clip-path="url(#p26d755cbce)" style="fill: none; stroke: #64748b; stroke-width: 0.65"/>
    <path d="M 1145.035309 494.490521
L 972.278029 627.866375
" clip-path="url(#p26d755cbce)" style="fill: none; stroke: #64748b; stroke-width: 0.65"/>
    <path d="M 1079.822699 514.046327
L 972.278029 627.866375
" clip-path="url(#p26d755cbce)" style="fill: none; stroke: #64748b; stroke-width: 0.65"/>
    <path d="M 1160.068913 563.985106
L 972.278029 627.866375
" clip-path="url(#p26d755cbce)" style="fill: none; stroke: #64748b; stroke-width: 0.65"/>
    <path d="M 997.390251 493.107229
L 972.278029 627.866375
" clip-path="url(#p26d755cbce)" style="fill: none; stroke: #64748b; stroke-width: 0.65"/>
    <path d="M 911.708481 430.935769
L 972.278029 627.866375
" clip-path="url(#p26d755cbce)" style="fill: none; stroke: #64748b; stroke-width: 0.65"/>
    <path d="M 945.316452 370.999656
L 846.093023 494.520321
" clip-path="url(#p26d755cbce)" style="fill: none; stroke: #64748b; stroke-width: 0.65"/>
    <path d="M 1037.242228 474.711158
L 846.093023 494.520321
" clip-path="url(#p26d755cbce)" style="fill: none; stroke: #64748b; stroke-width: 0.65"/>
    <path d="M 953.462287 491.838661
L 846.093023 494.520321
" clip-path="url(#p26d755cbce)" style="fill: none; stroke: #64748b; stroke-width: 0.65"/>
    <path d="M 991.270342 540.777638
L 846.093023 494.520321
" clip-path="url(#p26d755cbce)" style="fill: none; stroke: #64748b; stroke-width: 0.65"/>
    <path d="M 988.314564 454.469056
L 846.093023 494.520321
" clip-path="url(#p26d755cbce)" style="fill: none; stroke: #64748b; stroke-width: 0.65"/>
    <path d="M 901.89457 309.521673
L 846.093023 494.520321
" clip-path="url(#p26d755cbce)" style="fill: none; stroke: #64748b; stroke-width: 0.65"/>
    <path d="M 889.216765 356.246204
L 846.093023 494.520321
" clip-path="url(#p26d755cbce)" style="fill: none; stroke: #64748b; stroke-width: 0.65"/>
    <path d="M 945.032425 447.174428
L 846.093023 494.520321
" clip-path="url(#p26d755cbce)" style="fill: none; stroke: #64748b; stroke-width: 0.65"/>
    <path d="M 975.405657 406.674685
L 846.093023 494.520321
" clip-path="url(#p26d755cbce)" style="fill: none; stroke: #64748b; stroke-width: 0.65"/>
    <path d="M 1034.587708 540.268131
L 846.093023 494.520321
" clip-path="url(#p26d755cbce)" style="fill: none; stroke: #64748b; stroke-width: 0.65"/>
    <path d="M 997.390251 493.107229
L 846.093023 494.520321
" clip-path="url(#p26d755cbce)" style="fill: none; stroke: #64748b; stroke-width: 0.65"/>
    <path d="M 957.509395 317.814337
L 846.093023 494.520321
" clip-path="url(#p26d755cbce)" style="fill: none; stroke: #64748b; stroke-width: 0.65"/>
    <path d="M 911.708481 430.935769
L 846.093023 494.520321
" clip-path="url(#p26d755cbce)" style="fill: none; stroke: #64748b; stroke-width: 0.65"/>
    <path d="M 1092.352982 467.545587
L 1009.606524 369.672809
" clip-path="url(#p26d755cbce)" style="fill: none; stroke: #64748b; stroke-width: 0.65"/>
    <path d="M 1139.202802 305.940688
L 1009.606524 369.672809
" clip-path="url(#p26d755cbce)" style="fill: none; stroke: #64748b; stroke-width: 0.65"/>
    <path d="M 1037.242228 474.711158
L 1009.606524 369.672809
" clip-path="url(#p26d755cbce)" style="fill: none; stroke: #64748b; stroke-width: 0.65"/>
    <path d="M 1021.218942 263.169447
L 1009.606524 369.672809
" clip-path="url(#p26d755cbce)" style="fill: none; stroke: #64748b; stroke-width: 0.65"/>
    <path d="M 953.462287 491.838661
L 1009.606524 369.672809
" clip-path="url(#p26d755cbce)" style="fill: none; stroke: #64748b; stroke-width: 0.65"/>
    <path d="M 1104.13541 295.62954
L 1009.606524 369.672809
" clip-path="url(#p26d755cbce)" style="fill: none; stroke: #64748b; stroke-width: 0.65"/>
    <path d="M 937.607264 250.113737
L 1009.606524 369.672809
" clip-path="url(#p26d755cbce)" style="fill: none; stroke: #64748b; stroke-width: 0.65"/>
    <path d="M 828.867977 410.601059
L 1009.606524 369.672809
" clip-path="url(#p26d755cbce)" style="fill: none; stroke: #64748b; stroke-width: 0.65"/>
    <path d="M 988.314564 454.469056
L 1009.606524 369.672809
" clip-path="url(#p26d755cbce)" style="fill: none; stroke: #64748b; stroke-width: 0.65"/>
    <path d="M 990.706172 231.508673
L 1009.606524 369.672809
" clip-path="url(#p26d755cbce)" style="fill: none; stroke: #64748b; stroke-width: 0.65"/>
    <path d="M 975.405657 406.674685
L 1009.606524 369.672809
" clip-path="url(#p26d755cbce)" style="fill: none; stroke: #64748b; stroke-width: 0.65"/>
    <path d="M 1172.879335 380.377353
L 1009.606524 369.672809
" clip-path="url(#p26d755cbce)" style="fill: none; stroke: #64748b; stroke-width: 0.65"/>
    <path d="M 1074.590716 264.694809
L 1009.606524 369.672809
" clip-path="url(#p26d755cbce)" style="fill: none; stroke: #64748b; stroke-width: 0.65"/>
    <path d="M 957.509395 317.814337
L 1009.606524 369.672809
" clip-path="url(#p26d755cbce)" style="fill: none; stroke: #64748b; stroke-width: 0.65"/>
    <path d="M 1225.358761 374.570586
L 1009.606524 369.672809
" clip-path="url(#p26d755cbce)" style="fill: none; stroke: #64748b; stroke-width: 0.65"/>
    <path d="M 945.316452 370.999656
L 1009.606524 369.672809
" clip-path="url(#p26d755cbce)" style="fill: none; stroke: #64748b; stroke-width: 0.65"/>
    <path d="M 1051.556782 219.893625
L 1009.606524 369.672809
" clip-path="url(#p26d755cbce)" style="fill: none; stroke: #64748b; stroke-width: 0.65"/>
    <path d="M 901.89457 309.521673
L 1009.606524 369.672809
" clip-path="url(#p26d755cbce)" style="fill: none; stroke: #64748b; stroke-width: 0.65"/>
    <path d="M 1034.587708 540.268131
L 1009.606524 369.672809
" clip-path="url(#p26d755cbce)" style="fill: none; stroke: #64748b; stroke-width: 0.65"/>
    <path d="M 945.032425 447.174428
L 1009.606524 369.672809
" clip-path="url(#p26d755cbce)" style="fill: none; stroke: #64748b; stroke-width: 0.65"/>
    <path d="M 1145.035309 494.490521
L 1009.606524 369.672809
" clip-path="url(#p26d755cbce)" style="fill: none; stroke: #64748b; stroke-width: 0.65"/>
    <path d="M 997.390251 493.107229
L 1009.606524 369.672809
" clip-path="url(#p26d755cbce)" style="fill: none; stroke: #64748b; stroke-width: 0.65"/>
    <path d="M 911.708481 430.935769
L 1009.606524 369.672809
" clip-path="url(#p26d755cbce)" style="fill: none; stroke: #64748b; stroke-width: 0.65"/>
    <path d="M 1092.352982 467.545587
L 1055.604497 392.444747
" clip-path="url(#p26d755cbce)" style="fill: none; stroke: #64748b; stroke-width: 0.65"/>
    <path d="M 1130.641733 234.883727
L 1055.604497 392.444747
" clip-path="url(#p26d755cbce)" style="fill: none; stroke: #64748b; stroke-width: 0.65"/>
    <path d="M 1139.202802 305.940688
L 1055.604497 392.444747
" clip-path="url(#p26d755cbce)" style="fill: none; stroke: #64748b; stroke-width: 0.65"/>
    <path d="M 1037.242228 474.711158
L 1055.604497 392.444747
" clip-path="url(#p26d755cbce)" style="fill: none; stroke: #64748b; stroke-width: 0.65"/>
    <path d="M 1021.218942 263.169447
L 1055.604497 392.444747
" clip-path="url(#p26d755cbce)" style="fill: none; stroke: #64748b; stroke-width: 0.65"/>
    <path d="M 953.462287 491.838661
L 1055.604497 392.444747
" clip-path="url(#p26d755cbce)" style="fill: none; stroke: #64748b; stroke-width: 0.65"/>
    <path d="M 991.270342 540.777638
L 1055.604497 392.444747
" clip-path="url(#p26d755cbce)" style="fill: none; stroke: #64748b; stroke-width: 0.65"/>
    <path d="M 1185.099744 330.701007
L 1055.604497 392.444747
" clip-path="url(#p26d755cbce)" style="fill: none; stroke: #64748b; stroke-width: 0.65"/>
    <path d="M 1104.13541 295.62954
L 1055.604497 392.444747
" clip-path="url(#p26d755cbce)" style="fill: none; stroke: #64748b; stroke-width: 0.65"/>
    <path d="M 937.607264 250.113737
L 1055.604497 392.444747
" clip-path="url(#p26d755cbce)" style="fill: none; stroke: #64748b; stroke-width: 0.65"/>
    <path d="M 988.314564 454.469056
L 1055.604497 392.444747
" clip-path="url(#p26d755cbce)" style="fill: none; stroke: #64748b; stroke-width: 0.65"/>
    <path d="M 889.216765 356.246204
L 1055.604497 392.444747
" clip-path="url(#p26d755cbce)" style="fill: none; stroke: #64748b; stroke-width: 0.65"/>
    <path d="M 1242.523243 465.78158
L 1055.604497 392.444747
" clip-path="url(#p26d755cbce)" style="fill: none; stroke: #64748b; stroke-width: 0.65"/>
    <path d="M 990.706172 231.508673
L 1055.604497 392.444747
" clip-path="url(#p26d755cbce)" style="fill: none; stroke: #64748b; stroke-width: 0.65"/>
    <path d="M 975.405657 406.674685
L 1055.604497 392.444747
" clip-path="url(#p26d755cbce)" style="fill: none; stroke: #64748b; stroke-width: 0.65"/>
    <path d="M 1079.822699 514.046327
L 1055.604497 392.444747
" clip-path="url(#p26d755cbce)" style="fill: none; stroke: #64748b; stroke-width: 0.65"/>
    <path d="M 1172.879335 380.377353
L 1055.604497 392.444747
" clip-path="url(#p26d755cbce)" style="fill: none; stroke: #64748b; stroke-width: 0.65"/>
    <path d="M 1167.282265 273.962181
L 1055.604497 392.444747
" clip-path="url(#p26d755cbce)" style="fill: none; stroke: #64748b; stroke-width: 0.65"/>
    <path d="M 1074.590716 264.694809
L 1055.604497 392.444747
" clip-path="url(#p26d755cbce)" style="fill: none; stroke: #64748b; stroke-width: 0.65"/>
    <path d="M 957.509395 317.814337
L 1055.604497 392.444747
" clip-path="url(#p26d755cbce)" style="fill: none; stroke: #64748b; stroke-width: 0.65"/>
    <path d="M 1113.749488 522.123375
L 1055.604497 392.444747
" clip-path="url(#p26d755cbce)" style="fill: none; stroke: #64748b; stroke-width: 0.65"/>
    <path d="M 945.316452 370.999656
L 1055.604497 392.444747
" clip-path="url(#p26d755cbce)" style="fill: none; stroke: #64748b; stroke-width: 0.65"/>
    <path d="M 1051.556782 219.893625
L 1055.604497 392.444747
" clip-path="url(#p26d755cbce)" style="fill: none; stroke: #64748b; stroke-width: 0.65"/>
    <path d="M 1202.703777 432.649937
L 1055.604497 392.444747
" clip-path="url(#p26d755cbce)" style="fill: none; stroke: #64748b; stroke-width: 0.65"/>
    <path d="M 901.89457 309.521673
L 1055.604497 392.444747
" clip-path="url(#p26d755cbce)" style="fill: none; stroke: #64748b; stroke-width: 0.65"/>
    <path d="M 1034.587708 540.268131
L 1055.604497 392.444747
" clip-path="url(#p26d755cbce)" style="fill: none; stroke: #64748b; stroke-width: 0.65"/>
    <path d="M 945.032425 447.174428
L 1055.604497 392.444747
" clip-path="url(#p26d755cbce)" style="fill: none; stroke: #64748b; stroke-width: 0.65"/>
    <path d="M 1145.035309 494.490521
L 1055.604497 392.444747
" clip-path="url(#p26d755cbce)" style="fill: none; stroke: #64748b; stroke-width: 0.65"/>
    <path d="M 1160.068913 563.985106
L 1055.604497 392.444747
" clip-path="url(#p26d755cbce)" style="fill: none; stroke: #64748b; stroke-width: 0.65"/>
    <path d="M 997.390251 493.107229
L 1055.604497 392.444747
" clip-path="url(#p26d755cbce)" style="fill: none; stroke: #64748b; stroke-width: 0.65"/>
    <path d="M 911.708481 430.935769
L 1055.604497 392.444747
" clip-path="url(#p26d755cbce)" style="fill: none; stroke: #64748b; stroke-width: 0.65"/>
    <path d="M 1092.352982 467.545587
L 1096.550626 406.209232
" clip-path="url(#p26d755cbce)" style="fill: none; stroke: #64748b; stroke-width: 0.65"/>
    <path d="M 1139.202802 305.940688
L 1096.550626 406.209232
" clip-path="url(#p26d755cbce)" style="fill: none; stroke: #64748b; stroke-width: 0.65"/>
    <path d="M 1037.242228 474.711158
L 1096.550626 406.209232
" clip-path="url(#p26d755cbce)" style="fill: none; stroke: #64748b; stroke-width: 0.65"/>
    <path d="M 1021.218942 263.169447
L 1096.550626 406.209232
" clip-path="url(#p26d755cbce)" style="fill: none; stroke: #64748b; stroke-width: 0.65"/>
    <path d="M 953.462287 491.838661
L 1096.550626 406.209232
" clip-path="url(#p26d755cbce)" style="fill: none; stroke: #64748b; stroke-width: 0.65"/>
    <path d="M 1104.13541 295.62954
L 1096.550626 406.209232
" clip-path="url(#p26d755cbce)" style="fill: none; stroke: #64748b; stroke-width: 0.65"/>
    <path d="M 1185.099744 330.701007
L 1096.550626 406.209232
" clip-path="url(#p26d755cbce)" style="fill: none; stroke: #64748b; stroke-width: 0.65"/>
    <path d="M 988.314564 454.469056
L 1096.550626 406.209232
" clip-path="url(#p26d755cbce)" style="fill: none; stroke: #64748b; stroke-width: 0.65"/>
    <path d="M 1242.523243 465.78158
L 1096.550626 406.209232
" clip-path="url(#p26d755cbce)" style="fill: none; stroke: #64748b; stroke-width: 0.65"/>
    <path d="M 975.405657 406.674685
L 1096.550626 406.209232
" clip-path="url(#p26d755cbce)" style="fill: none; stroke: #64748b; stroke-width: 0.65"/>
    <path d="M 1079.822699 514.046327
L 1096.550626 406.209232
" clip-path="url(#p26d755cbce)" style="fill: none; stroke: #64748b; stroke-width: 0.65"/>
    <path d="M 1172.879335 380.377353
L 1096.550626 406.209232
" clip-path="url(#p26d755cbce)" style="fill: none; stroke: #64748b; stroke-width: 0.65"/>
    <path d="M 1167.282265 273.962181
L 1096.550626 406.209232
" clip-path="url(#p26d755cbce)" style="fill: none; stroke: #64748b; stroke-width: 0.65"/>
    <path d="M 1074.590716 264.694809
L 1096.550626 406.209232
" clip-path="url(#p26d755cbce)" style="fill: none; stroke: #64748b; stroke-width: 0.65"/>
    <path d="M 957.509395 317.814337
L 1096.550626 406.209232
" clip-path="url(#p26d755cbce)" style="fill: none; stroke: #64748b; stroke-width: 0.65"/>
    <path d="M 1225.358761 374.570586
L 1096.550626 406.209232
" clip-path="url(#p26d755cbce)" style="fill: none; stroke: #64748b; stroke-width: 0.65"/>
    <path d="M 945.316452 370.999656
L 1096.550626 406.209232
" clip-path="url(#p26d755cbce)" style="fill: none; stroke: #64748b; stroke-width: 0.65"/>
    <path d="M 1113.749488 522.123375
L 1096.550626 406.209232
" clip-path="url(#p26d755cbce)" style="fill: none; stroke: #64748b; stroke-width: 0.65"/>
    <path d="M 1242.932023 314.175439
L 1096.550626 406.209232
" clip-path="url(#p26d755cbce)" style="fill: none; stroke: #64748b; stroke-width: 0.65"/>
    <path d="M 1202.703777 432.649937
L 1096.550626 406.209232
" clip-path="url(#p26d755cbce)" style="fill: none; stroke: #64748b; stroke-width: 0.65"/>
    <path d="M 945.032425 447.174428
L 1096.550626 406.209232
" clip-path="url(#p26d755cbce)" style="fill: none; stroke: #64748b; stroke-width: 0.65"/>
    <path d="M 1145.035309 494.490521
L 1096.550626 406.209232
" clip-path="url(#p26d755cbce)" style="fill: none; stroke: #64748b; stroke-width: 0.65"/>
    <path d="M 1160.068913 563.985106
L 1096.550626 406.209232
" clip-path="url(#p26d755cbce)" style="fill: none; stroke: #64748b; stroke-width: 0.65"/>
    <path d="M 997.390251 493.107229
L 1096.550626 406.209232
" clip-path="url(#p26d755cbce)" style="fill: none; stroke: #64748b; stroke-width: 0.65"/>
    <path d="M 1092.352982 467.545587
L 1125.996119 374.519318
" clip-path="url(#p26d755cbce)" style="fill: none; stroke: #64748b; stroke-width: 0.65"/>
    <path d="M 1130.641733 234.883727
L 1125.996119 374.519318
" clip-path="url(#p26d755cbce)" style="fill: none; stroke: #64748b; stroke-width: 0.65"/>
    <path d="M 1139.202802 305.940688
L 1125.996119 374.519318
" clip-path="url(#p26d755cbce)" style="fill: none; stroke: #64748b; stroke-width: 0.65"/>
    <path d="M 1037.242228 474.711158
L 1125.996119 374.519318
" clip-path="url(#p26d755cbce)" style="fill: none; stroke: #64748b; stroke-width: 0.65"/>
    <path d="M 1104.13541 295.62954
L 1125.996119 374.519318
" clip-path="url(#p26d755cbce)" style="fill: none; stroke: #64748b; stroke-width: 0.65"/>
    <path d="M 991.270342 540.777638
L 1125.996119 374.519318
" clip-path="url(#p26d755cbce)" style="fill: none; stroke: #64748b; stroke-width: 0.65"/>
    <path d="M 1185.099744 330.701007
L 1125.996119 374.519318
" clip-path="url(#p26d755cbce)" style="fill: none; stroke: #64748b; stroke-width: 0.65"/>
    <path d="M 889.216765 356.246204
L 1125.996119 374.519318
" clip-path="url(#p26d755cbce)" style="fill: none; stroke: #64748b; stroke-width: 0.65"/>
    <path d="M 1242.523243 465.78158
L 1125.996119 374.519318
" clip-path="url(#p26d755cbce)" style="fill: none; stroke: #64748b; stroke-width: 0.65"/>
    <path d="M 990.706172 231.508673
L 1125.996119 374.519318
" clip-path="url(#p26d755cbce)" style="fill: none; stroke: #64748b; stroke-width: 0.65"/>
    <path d="M 975.405657 406.674685
L 1125.996119 374.519318
" clip-path="url(#p26d755cbce)" style="fill: none; stroke: #64748b; stroke-width: 0.65"/>
    <path d="M 1079.822699 514.046327
L 1125.996119 374.519318
" clip-path="url(#p26d755cbce)" style="fill: none; stroke: #64748b; stroke-width: 0.65"/>
    <path d="M 1172.879335 380.377353
L 1125.996119 374.519318
" clip-path="url(#p26d755cbce)" style="fill: none; stroke: #64748b; stroke-width: 0.65"/>
    <path d="M 1074.590716 264.694809
L 1125.996119 374.519318
" clip-path="url(#p26d755cbce)" style="fill: none; stroke: #64748b; stroke-width: 0.65"/>
    <path d="M 1225.358761 374.570586
L 1125.996119 374.519318
" clip-path="url(#p26d755cbce)" style="fill: none; stroke: #64748b; stroke-width: 0.65"/>
    <path d="M 1051.556782 219.893625
L 1125.996119 374.519318
" clip-path="url(#p26d755cbce)" style="fill: none; stroke: #64748b; stroke-width: 0.65"/>
    <path d="M 1242.932023 314.175439
L 1125.996119 374.519318
" clip-path="url(#p26d755cbce)" style="fill: none; stroke: #64748b; stroke-width: 0.65"/>
    <path d="M 1202.703777 432.649937
L 1125.996119 374.519318
" clip-path="url(#p26d755cbce)" style="fill: none; stroke: #64748b; stroke-width: 0.65"/>
    <path d="M 1034.587708 540.268131
L 1125.996119 374.519318
" clip-path="url(#p26d755cbce)" style="fill: none; stroke: #64748b; stroke-width: 0.65"/>
    <path d="M 1145.035309 494.490521
L 1125.996119 374.519318
" clip-path="url(#p26d755cbce)" style="fill: none; stroke: #64748b; stroke-width: 0.65"/>
    <path d="M 1092.352982 467.545587
L 1055.592919 353.959598
" clip-path="url(#p26d755cbce)" style="fill: none; stroke: #64748b; stroke-width: 0.65"/>
    <path d="M 1130.641733 234.883727
L 1055.592919 353.959598
" clip-path="url(#p26d755cbce)" style="fill: none; stroke: #64748b; stroke-width: 0.65"/>
    <path d="M 1139.202802 305.940688
L 1055.592919 353.959598
" clip-path="url(#p26d755cbce)" style="fill: none; stroke: #64748b; stroke-width: 0.65"/>
    <path d="M 1037.242228 474.711158
L 1055.592919 353.959598
" clip-path="url(#p26d755cbce)" style="fill: none; stroke: #64748b; stroke-width: 0.65"/>
    <path d="M 1104.13541 295.62954
L 1055.592919 353.959598
" clip-path="url(#p26d755cbce)" style="fill: none; stroke: #64748b; stroke-width: 0.65"/>
    <path d="M 953.462287 491.838661
L 1055.592919 353.959598
" clip-path="url(#p26d755cbce)" style="fill: none; stroke: #64748b; stroke-width: 0.65"/>
    <path d="M 991.270342 540.777638
L 1055.592919 353.959598
" clip-path="url(#p26d755cbce)" style="fill: none; stroke: #64748b; stroke-width: 0.65"/>
    <path d="M 1185.099744 330.701007
L 1055.592919 353.959598
" clip-path="url(#p26d755cbce)" style="fill: none; stroke: #64748b; stroke-width: 0.65"/>
    <path d="M 937.607264 250.113737
L 1055.592919 353.959598
" clip-path="url(#p26d755cbce)" style="fill: none; stroke: #64748b; stroke-width: 0.65"/>
    <path d="M 889.216765 356.246204
L 1055.592919 353.959598
" clip-path="url(#p26d755cbce)" style="fill: none; stroke: #64748b; stroke-width: 0.65"/>
    <path d="M 990.706172 231.508673
L 1055.592919 353.959598
" clip-path="url(#p26d755cbce)" style="fill: none; stroke: #64748b; stroke-width: 0.65"/>
    <path d="M 975.405657 406.674685
L 1055.592919 353.959598
" clip-path="url(#p26d755cbce)" style="fill: none; stroke: #64748b; stroke-width: 0.65"/>
    <path d="M 1079.822699 514.046327
L 1055.592919 353.959598
" clip-path="url(#p26d755cbce)" style="fill: none; stroke: #64748b; stroke-width: 0.65"/>
    <path d="M 1167.282265 273.962181
L 1055.592919 353.959598
" clip-path="url(#p26d755cbce)" style="fill: none; stroke: #64748b; stroke-width: 0.65"/>
    <path d="M 1074.590716 264.694809
L 1055.592919 353.959598
" clip-path="url(#p26d755cbce)" style="fill: none; stroke: #64748b; stroke-width: 0.65"/>
    <path d="M 957.509395 317.814337
L 1055.592919 353.959598
" clip-path="url(#p26d755cbce)" style="fill: none; stroke: #64748b; stroke-width: 0.65"/>
    <path d="M 1225.358761 374.570586
L 1055.592919 353.959598
" clip-path="url(#p26d755cbce)" style="fill: none; stroke: #64748b; stroke-width: 0.65"/>
    <path d="M 1113.749488 522.123375
L 1055.592919 353.959598
" clip-path="url(#p26d755cbce)" style="fill: none; stroke: #64748b; stroke-width: 0.65"/>
    <path d="M 1051.556782 219.893625
L 1055.592919 353.959598
" clip-path="url(#p26d755cbce)" style="fill: none; stroke: #64748b; stroke-width: 0.65"/>
    <path d="M 1202.703777 432.649937
L 1055.592919 353.959598
" clip-path="url(#p26d755cbce)" style="fill: none; stroke: #64748b; stroke-width: 0.65"/>
    <path d="M 901.89457 309.521673
L 1055.592919 353.959598
" clip-path="url(#p26d755cbce)" style="fill: none; stroke: #64748b; stroke-width: 0.65"/>
    <path d="M 945.032425 447.174428
L 1055.592919 353.959598
" clip-path="url(#p26d755cbce)" style="fill: none; stroke: #64748b; stroke-width: 0.65"/>
    <path d="M 997.390251 493.107229
L 1055.592919 353.959598
" clip-path="url(#p26d755cbce)" style="fill: none; stroke: #64748b; stroke-width: 0.65"/>
    <path d="M 911.708481 430.935769
L 1055.592919 353.959598
" clip-path="url(#p26d755cbce)" style="fill: none; stroke: #64748b; stroke-width: 0.65"/>
    <path d="M 1139.202802 305.940688
L 1042.9309 378.270212
" clip-path="url(#p26d755cbce)" style="fill: none; stroke: #64748b; stroke-width: 0.65"/>
    <path d="M 1037.242228 474.711158
L 1042.9309 378.270212
" clip-path="url(#p26d755cbce)" style="fill: none; stroke: #64748b; stroke-width: 0.65"/>
    <path d="M 953.462287 491.838661
L 1042.9309 378.270212
" clip-path="url(#p26d755cbce)" style="fill: none; stroke: #64748b; stroke-width: 0.65"/>
    <path d="M 991.270342 540.777638
L 1042.9309 378.270212
" clip-path="url(#p26d755cbce)" style="fill: none; stroke: #64748b; stroke-width: 0.65"/>
    <path d="M 1185.099744 330.701007
L 1042.9309 378.270212
" clip-path="url(#p26d755cbce)" style="fill: none; stroke: #64748b; stroke-width: 0.65"/>
    <path d="M 988.314564 454.469056
L 1042.9309 378.270212
" clip-path="url(#p26d755cbce)" style="fill: none; stroke: #64748b; stroke-width: 0.65"/>
    <path d="M 990.706172 231.508673
L 1042.9309 378.270212
" clip-path="url(#p26d755cbce)" style="fill: none; stroke: #64748b; stroke-width: 0.65"/>
    <path d="M 975.405657 406.674685
L 1042.9309 378.270212
" clip-path="url(#p26d755cbce)" style="fill: none; stroke: #64748b; stroke-width: 0.65"/>
    <path d="M 1172.879335 380.377353
L 1042.9309 378.270212
" clip-path="url(#p26d755cbce)" style="fill: none; stroke: #64748b; stroke-width: 0.65"/>
    <path d="M 1074.590716 264.694809
L 1042.9309 378.270212
" clip-path="url(#p26d755cbce)" style="fill: none; stroke: #64748b; stroke-width: 0.65"/>
    <path d="M 945.316452 370.999656
L 1042.9309 378.270212
" clip-path="url(#p26d755cbce)" style="fill: none; stroke: #64748b; stroke-width: 0.65"/>
    <path d="M 1051.556782 219.893625
L 1042.9309 378.270212
" clip-path="url(#p26d755cbce)" style="fill: none; stroke: #64748b; stroke-width: 0.65"/>
    <path d="M 1242.932023 314.175439
L 1042.9309 378.270212
" clip-path="url(#p26d755cbce)" style="fill: none; stroke: #64748b; stroke-width: 0.65"/>
    <path d="M 1202.703777 432.649937
L 1042.9309 378.270212
" clip-path="url(#p26d755cbce)" style="fill: none; stroke: #64748b; stroke-width: 0.65"/>
    <path d="M 945.032425 447.174428
L 1042.9309 378.270212
" clip-path="url(#p26d755cbce)" style="fill: none; stroke: #64748b; stroke-width: 0.65"/>
    <path d="M 1145.035309 494.490521
L 1042.9309 378.270212
" clip-path="url(#p26d755cbce)" style="fill: none; stroke: #64748b; stroke-width: 0.65"/>
    <path d="M 997.390251 493.107229
L 1042.9309 378.270212
" clip-path="url(#p26d755cbce)" style="fill: none; stroke: #64748b; stroke-width: 0.65"/>
    <path d="M 1092.352982 467.545587
L 1042.9309 378.270212
" clip-path="url(#p26d755cbce)" style="fill: none; stroke: #64748b; stroke-width: 0.65"/>
    <path d="M 1130.641733 234.883727
L 1042.9309 378.270212
" clip-path="url(#p26d755cbce)" style="fill: none; stroke: #64748b; stroke-width: 0.65"/>
    <path d="M 1021.218942 263.169447
L 1042.9309 378.270212
" clip-path="url(#p26d755cbce)" style="fill: none; stroke: #64748b; stroke-width: 0.65"/>
    <path d="M 1104.13541 295.62954
L 1042.9309 378.270212
" clip-path="url(#p26d755cbce)" style="fill: none; stroke: #64748b; stroke-width: 0.65"/>
    <path d="M 937.607264 250.113737
L 1042.9309 378.270212
" clip-path="url(#p26d755cbce)" style="fill: none; stroke: #64748b; stroke-width: 0.65"/>
    <path d="M 828.867977 410.601059
L 1042.9309 378.270212
" clip-path="url(#p26d755cbce)" style="fill: none; stroke: #64748b; stroke-width: 0.65"/>
    <path d="M 889.216765 356.246204
L 1042.9309 378.270212
" clip-path="url(#p26d755cbce)" style="fill: none; stroke: #64748b; stroke-width: 0.65"/>
    <path d="M 1079.822699 514.046327
L 1042.9309 378.270212
" clip-path="url(#p26d755cbce)" style="fill: none; stroke: #64748b; stroke-width: 0.65"/>
    <path d="M 1167.282265 273.962181
L 1042.9309 378.270212
" clip-path="url(#p26d755cbce)" style="fill: none; stroke: #64748b; stroke-width: 0.65"/>
    <path d="M 957.509395 317.814337
L 1042.9309 378.270212
" clip-path="url(#p26d755cbce)" style="fill: none; stroke: #64748b; stroke-width: 0.65"/>
    <path d="M 1225.358761 374.570586
L 1042.9309 378.270212
" clip-path="url(#p26d755cbce)" style="fill: none; stroke: #64748b; stroke-width: 0.65"/>
    <path d="M 1113.749488 522.123375
L 1042.9309 378.270212
" clip-path="url(#p26d755cbce)" style="fill: none; stroke: #64748b; stroke-width: 0.65"/>
    <path d="M 1034.587708 540.268131
L 1042.9309 378.270212
" clip-path="url(#p26d755cbce)" style="fill: none; stroke: #64748b; stroke-width: 0.65"/>
    <path d="M 901.89457 309.521673
L 1042.9309 378.270212
" clip-path="url(#p26d755cbce)" style="fill: none; stroke: #64748b; stroke-width: 0.65"/>
    <path d="M 911.708481 430.935769
L 1042.9309 378.270212
" clip-path="url(#p26d755cbce)" style="fill: none; stroke: #64748b; stroke-width: 0.65"/>
   </g>
   <g id="PathCollection_2">
    <defs>
     <path id="m7e11591f4b" d="M -6.5 6.5
L 6.5 6.5
L 6.5 -6.5
L -6.5 -6.5
z
" style="stroke: #334155; stroke-width: 0.8"/>
    </defs>
    <g clip-path="url(#p26d755cbce)">
     <use xlink:href="#m7e11591f4b" x="1034.272704" y="334.783424" style="fill: #f59e0b; stroke: #334155; stroke-width: 0.8"/>
     <use xlink:href="#m7e11591f4b" x="972.278029" y="627.866375" style="fill: #f59e0b; stroke: #334155; stroke-width: 0.8"/>
     <use xlink:href="#m7e11591f4b" x="1009.606524" y="369.672809" style="fill: #f59e0b; stroke: #334155; stroke-width: 0.8"/>
     <use xlink:href="#m7e11591f4b" x="1042.9309" y="378.270212" style="fill: #f59e0b; stroke: #334155; stroke-width: 0.8"/>
     <use xlink:href="#m7e11591f4b" x="1096.550626" y="406.209232" style="fill: #f59e0b; stroke: #334155; stroke-width: 0.8"/>
     <use xlink:href="#m7e11591f4b" x="1125.996119" y="374.519318" style="fill: #f59e0b; stroke: #334155; stroke-width: 0.8"/>
     <use xlink:href="#m7e11591f4b" x="1147.558667" y="450.874427" style="fill: #f59e0b; stroke: #334155; stroke-width: 0.8"/>
     <use xlink:href="#m7e11591f4b" x="1055.592919" y="353.959598" style="fill: #f59e0b; stroke: #334155; stroke-width: 0.8"/>
     <use xlink:href="#m7e11591f4b" x="846.093023" y="494.520321" style="fill: #f59e0b; stroke: #334155; stroke-width: 0.8"/>
     <use xlink:href="#m7e11591f4b" x="1055.604497" y="392.444747" style="fill: #f59e0b; stroke: #334155; stroke-width: 0.8"/>
    </g>
   </g>
   <g id="PathCollection_3">
    <defs>
     <path id="md867d47734" d="M 0 5
C 1.326016 5 2.597899 4.473168 3.535534 3.535534
C 4.473168 2.597899 5 1.326016 5 0
C 5 -1.326016 4.473168 -2.597899 3.535534 -3.535534
C 2.597899 -4.473168 1.326016 -5 0 -5
C -1.326016 -5 -2.597899 -4.473168 -3.535534 -3.535534
C -4.473168 -2.597899 -5 -1.326016 -5 0
C -5 1.326016 -4.473168 2.597899 -3.535534 3.535534
C -2.597899 4.473168 -1.326016 5 0 5
z
" style="stroke: #334155; stroke-width: 0.8"/>
    </defs>
    <g clip-path="url(#p26d755cbce)">
     <use xlink:href="#md867d47734" x="828.867977" y="410.601059" style="fill: #38bdf8; stroke: #334155; stroke-width: 0.8"/>
     <use xlink:href="#md867d47734" x="1242.932023" y="314.175439" style="fill: #38bdf8; stroke: #334155; stroke-width: 0.8"/>
     <use xlink:href="#md867d47734" x="997.390251" y="493.107229" style="fill: #38bdf8; stroke: #334155; stroke-width: 0.8"/>
     <use xlink:href="#md867d47734" x="1092.352982" y="467.545587" style="fill: #38bdf8; stroke: #334155; stroke-width: 0.8"/>
     <use xlink:href="#md867d47734" x="975.405657" y="406.674685" style="fill: #38bdf8; stroke: #334155; stroke-width: 0.8"/>
     <use xlink:href="#md867d47734" x="945.316452" y="370.999656" style="fill: #38bdf8; stroke: #334155; stroke-width: 0.8"/>
     <use xlink:href="#md867d47734" x="1079.822699" y="514.046327" style="fill: #38bdf8; stroke: #334155; stroke-width: 0.8"/>
     <use xlink:href="#md867d47734" x="1074.590716" y="264.694809" style="fill: #38bdf8; stroke: #334155; stroke-width: 0.8"/>
     <use xlink:href="#md867d47734" x="945.032425" y="447.174428" style="fill: #38bdf8; stroke: #334155; stroke-width: 0.8"/>
     <use xlink:href="#md867d47734" x="1104.13541" y="295.62954" style="fill: #38bdf8; stroke: #334155; stroke-width: 0.8"/>
     <use xlink:href="#md867d47734" x="1139.202802" y="305.940688" style="fill: #38bdf8; stroke: #334155; stroke-width: 0.8"/>
     <use xlink:href="#md867d47734" x="1037.242228" y="474.711158" style="fill: #38bdf8; stroke: #334155; stroke-width: 0.8"/>
     <use xlink:href="#md867d47734" x="957.509395" y="317.814337" style="fill: #38bdf8; stroke: #334155; stroke-width: 0.8"/>
     <use xlink:href="#md867d47734" x="988.314564" y="454.469056" style="fill: #38bdf8; stroke: #334155; stroke-width: 0.8"/>
     <use xlink:href="#md867d47734" x="911.708481" y="430.935769" style="fill: #38bdf8; stroke: #334155; stroke-width: 0.8"/>
     <use xlink:href="#md867d47734" x="1113.749488" y="522.123375" style="fill: #38bdf8; stroke: #334155; stroke-width: 0.8"/>
     <use xlink:href="#md867d47734" x="1130.641733" y="234.883727" style="fill: #38bdf8; stroke: #334155; stroke-width: 0.8"/>
     <use xlink:href="#md867d47734" x="1167.282265" y="273.962181" style="fill: #38bdf8; stroke: #334155; stroke-width: 0.8"/>
     <use xlink:href="#md867d47734" x="1185.099744" y="330.701007" style="fill: #38bdf8; stroke: #334155; stroke-width: 0.8"/>
     <use xlink:href="#md867d47734" x="1172.879335" y="380.377353" style="fill: #38bdf8; stroke: #334155; stroke-width: 0.8"/>
     <use xlink:href="#md867d47734" x="901.89457" y="309.521673" style="fill: #38bdf8; stroke: #334155; stroke-width: 0.8"/>
     <use xlink:href="#md867d47734" x="1051.556782" y="219.893625" style="fill: #38bdf8; stroke: #334155; stroke-width: 0.8"/>
     <use xlink:href="#md867d47734" x="1160.068913" y="563.985106" style="fill: #38bdf8; stroke: #334155; stroke-width: 0.8"/>
     <use xlink:href="#md867d47734" x="1225.358761" y="374.570586" style="fill: #38bdf8; stroke: #334155; stroke-width: 0.8"/>
     <use xlink:href="#md867d47734" x="991.270342" y="540.777638" style="fill: #38bdf8; stroke: #334155; stroke-width: 0.8"/>
     <use xlink:href="#md867d47734" x="1202.703777" y="432.649937" style="fill: #38bdf8; stroke: #334155; stroke-width: 0.8"/>
     <use xlink:href="#md867d47734" x="1034.587708" y="540.268131" style="fill: #38bdf8; stroke: #334155; stroke-width: 0.8"/>
     <use xlink:href="#md867d47734" x="1242.523243" y="465.78158" style="fill: #38bdf8; stroke: #334155; stroke-width: 0.8"/>
     <use xlink:href="#md867d47734" x="1145.035309" y="494.490521" style="fill: #38bdf8; stroke: #334155; stroke-width: 0.8"/>
     <use xlink:href="#md867d47734" x="953.462287" y="491.838661" style="fill: #38bdf8; stroke: #334155; stroke-width: 0.8"/>
     <use xlink:href="#md867d47734" x="889.216765" y="356.246204" style="fill: #38bdf8; stroke: #334155; stroke-width: 0.8"/>
     <use xlink:href="#md867d47734" x="937.607264" y="250.113737" style="fill: #38bdf8; stroke: #334155; stroke-width: 0.8"/>
     <use xlink:href="#md867d47734" x="1021.218942" y="263.169447" style="fill: #38bdf8; stroke: #334155; stroke-width: 0.8"/>
     <use xlink:href="#md867d47734" x="990.706172" y="231.508673" style="fill: #38bdf8; stroke: #334155; stroke-width: 0.8"/>
    </g>
   </g>
   <g id="text_18">
    <text style="font-weight: 700; font-size: 15px; font-family: 'DejaVu Sans'; text-anchor: start; fill: #111827" x="696.6" y="108.72" transform="rotate(-0 696.6 108.72)">XGI bipartite incidence view</text>
   </g>
   <g id="text_19">
    <g clip-path="url(#p26d755cbce)">
     <text style="font-size: 7.6px; font-family: 'DejaVu Sans', 'Bitstream Vera Sans', 'Computer Modern Sans Serif', 'Lucida Grande', 'Verdana', 'Geneva', 'Lucid', 'Arial', 'Helvetica', 'Avant Garde', sans-serif; text-anchor: middle; fill: #111827" x="1055.604497" y="394.541872" transform="rotate(-0 1055.604497 394.541872)">ODYSSEUS</text>
    </g>
   </g>
   <g id="text_20">
    <g clip-path="url(#p26d755cbce)">
     <text style="font-size: 7.6px; font-family: 'DejaVu Sans', 'Bitstream Vera Sans', 'Computer Modern Sans Serif', 'Lucida Grande', 'Verdana', 'Geneva', 'Lucid', 'Arial', 'Helvetica', 'Avant Garde', sans-serif; text-anchor: middle; fill: #111827" x="1096.550626" y="408.306357" transform="rotate(-0 1096.550626 408.306357)">SEA</text>
    </g>
   </g>
   <g id="text_21">
    <g clip-path="url(#p26d755cbce)">
     <text style="font-size: 7.6px; font-family: 'DejaVu Sans', 'Bitstream Vera Sans', 'Computer Modern Sans Serif', 'Lucida Grande', 'Verdana', 'Geneva', 'Lucid', 'Arial', 'Helvetica', 'Avant Garde', sans-serif; text-anchor: middle; fill: #111827" x="1042.9309" y="380.367337" transform="rotate(-0 1042.9309 380.367337)">ZEUS</text>
    </g>
   </g>
   <g id="text_22">
    <g clip-path="url(#p26d755cbce)">
     <text style="font-size: 7.6px; font-family: 'DejaVu Sans', 'Bitstream Vera Sans', 'Computer Modern Sans Serif', 'Lucida Grande', 'Verdana', 'Geneva', 'Lucid', 'Arial', 'Helvetica', 'Avant Garde', sans-serif; text-anchor: middle; fill: #111827" x="1009.606524" y="371.769934" transform="rotate(-0 1009.606524 371.769934)">MIND</text>
    </g>
   </g>
   <g id="text_23">
    <g clip-path="url(#p26d755cbce)">
     <text style="font-size: 7.6px; font-family: 'DejaVu Sans', 'Bitstream Vera Sans', 'Computer Modern Sans Serif', 'Lucida Grande', 'Verdana', 'Geneva', 'Lucid', 'Arial', 'Helvetica', 'Avant Garde', sans-serif; text-anchor: middle; fill: #111827" x="1034.272704" y="336.880549" transform="rotate(-0 1034.272704 336.880549)">ATHENA</text>
    </g>
   </g>
   <g id="text_24">
    <g clip-path="url(#p26d755cbce)">
     <text style="font-size: 7.6px; font-family: 'DejaVu Sans', 'Bitstream Vera Sans', 'Computer Modern Sans Serif', 'Lucida Grande', 'Verdana', 'Geneva', 'Lucid', 'Arial', 'Helvetica', 'Avant Garde', sans-serif; text-anchor: middle; fill: #111827" x="1055.592919" y="356.056723" transform="rotate(-0 1055.592919 356.056723)">TELEMACHUS</text>
    </g>
   </g>
   <g id="text_25">
    <g clip-path="url(#p26d755cbce)">
     <text style="font-size: 7.6px; font-family: 'DejaVu Sans', 'Bitstream Vera Sans', 'Computer Modern Sans Serif', 'Lucida Grande', 'Verdana', 'Geneva', 'Lucid', 'Arial', 'Helvetica', 'Avant Garde', sans-serif; text-anchor: middle; fill: #111827" x="1125.996119" y="376.616443" transform="rotate(-0 1125.996119 376.616443)">SKY</text>
    </g>
   </g>
   <g id="text_26">
    <g clip-path="url(#p26d755cbce)">
     <text style="font-size: 7.6px; font-family: 'DejaVu Sans', 'Bitstream Vera Sans', 'Computer Modern Sans Serif', 'Lucida Grande', 'Verdana', 'Geneva', 'Lucid', 'Arial', 'Helvetica', 'Avant Garde', sans-serif; text-anchor: middle; fill: #111827" x="846.093023" y="496.444665" transform="rotate(-0 846.093023 496.444665)">GENERIC_MAN</text>
    </g>
   </g>
   <g id="text_27">
    <g clip-path="url(#p26d755cbce)">
     <text style="font-size: 7.6px; font-family: 'DejaVu Sans', 'Bitstream Vera Sans', 'Computer Modern Sans Serif', 'Lucida Grande', 'Verdana', 'Geneva', 'Lucid', 'Arial', 'Helvetica', 'Avant Garde', sans-serif; text-anchor: middle; fill: #111827" x="1147.558667" y="452.971552" transform="rotate(-0 1147.558667 452.971552)">EARTH</text>
    </g>
   </g>
   <g id="text_28">
    <g clip-path="url(#p26d755cbce)">
     <text style="font-size: 7.6px; font-family: 'DejaVu Sans', 'Bitstream Vera Sans', 'Computer Modern Sans Serif', 'Lucida Grande', 'Verdana', 'Geneva', 'Lucid', 'Arial', 'Helvetica', 'Avant Garde', sans-serif; text-anchor: middle; fill: #111827" x="972.278029" y="629.9635" transform="rotate(-0 972.278029 629.9635)">FATE</text>
    </g>
   </g>
   <g id="text_29">
    <g clip-path="url(#p26d755cbce)">
     <text style="font-size: 7.6px; font-family: 'DejaVu Sans', 'Bitstream Vera Sans', 'Computer Modern Sans Serif', 'Lucida Grande', 'Verdana', 'Geneva', 'Lucid', 'Arial', 'Helvetica', 'Avant Garde', sans-serif; text-anchor: middle; fill: #111827" x="1092.352982" y="469.642712" transform="rotate(-0 1092.352982 469.642712)">fair</text>
    </g>
   </g>
   <g id="text_30">
    <g clip-path="url(#p26d755cbce)">
     <text style="font-size: 7.6px; font-family: 'DejaVu Sans', 'Bitstream Vera Sans', 'Computer Modern Sans Serif', 'Lucida Grande', 'Verdana', 'Geneva', 'Lucid', 'Arial', 'Helvetica', 'Avant Garde', sans-serif; text-anchor: middle; fill: #111827" x="945.316452" y="373.096781" transform="rotate(-0 945.316452 373.096781)">fierce</text>
    </g>
   </g>
   <g id="text_31">
    <g clip-path="url(#p26d755cbce)">
     <text style="font-size: 7.6px; font-family: 'DejaVu Sans', 'Bitstream Vera Sans', 'Computer Modern Sans Serif', 'Lucida Grande', 'Verdana', 'Geneva', 'Lucid', 'Arial', 'Helvetica', 'Avant Garde', sans-serif; text-anchor: middle; fill: #111827" x="1130.641733" y="236.980852" transform="rotate(-0 1130.641733 236.980852)">sacred</text>
    </g>
   </g>
   <g id="text_32">
    <g clip-path="url(#p26d755cbce)">
     <text style="font-size: 7.6px; font-family: 'DejaVu Sans', 'Bitstream Vera Sans', 'Computer Modern Sans Serif', 'Lucida Grande', 'Verdana', 'Geneva', 'Lucid', 'Arial', 'Helvetica', 'Avant Garde', sans-serif; text-anchor: middle; fill: #111827" x="1037.242228" y="476.808283" transform="rotate(-0 1037.242228 476.808283)">long</text>
    </g>
   </g>
   <g id="text_33">
    <g clip-path="url(#p26d755cbce)">
     <text style="font-size: 7.6px; font-family: 'DejaVu Sans', 'Bitstream Vera Sans', 'Computer Modern Sans Serif', 'Lucida Grande', 'Verdana', 'Geneva', 'Lucid', 'Arial', 'Helvetica', 'Avant Garde', sans-serif; text-anchor: middle; fill: #111827" x="1104.13541" y="297.726665" transform="rotate(-0 1104.13541 297.726665)">high</text>
    </g>
   </g>
   <g id="text_34">
    <g clip-path="url(#p26d755cbce)">
     <text style="font-size: 7.6px; font-family: 'DejaVu Sans', 'Bitstream Vera Sans', 'Computer Modern Sans Serif', 'Lucida Grande', 'Verdana', 'Geneva', 'Lucid', 'Arial', 'Helvetica', 'Avant Garde', sans-serif; text-anchor: middle; fill: #111827" x="1051.556782" y="221.99075" transform="rotate(-0 1051.556782 221.99075)">young</text>
    </g>
   </g>
   <g id="text_35">
    <g clip-path="url(#p26d755cbce)">
     <text style="font-size: 7.6px; font-family: 'DejaVu Sans', 'Bitstream Vera Sans', 'Computer Modern Sans Serif', 'Lucida Grande', 'Verdana', 'Geneva', 'Lucid', 'Arial', 'Helvetica', 'Avant Garde', sans-serif; text-anchor: middle; fill: #111827" x="1242.932023" y="316.272564" transform="rotate(-0 1242.932023 316.272564)">bright</text>
    </g>
   </g>
   <g id="text_36">
    <g clip-path="url(#p26d755cbce)">
     <text style="font-size: 7.6px; font-family: 'DejaVu Sans', 'Bitstream Vera Sans', 'Computer Modern Sans Serif', 'Lucida Grande', 'Verdana', 'Geneva', 'Lucid', 'Arial', 'Helvetica', 'Avant Garde', sans-serif; text-anchor: middle; fill: #111827" x="988.314564" y="456.566181" transform="rotate(-0 988.314564 456.566181)">old</text>
    </g>
   </g>
   <g id="text_37">
    <g clip-path="url(#p26d755cbce)">
     <text style="font-size: 7.6px; font-family: 'DejaVu Sans', 'Bitstream Vera Sans', 'Computer Modern Sans Serif', 'Lucida Grande', 'Verdana', 'Geneva', 'Lucid', 'Arial', 'Helvetica', 'Avant Garde', sans-serif; text-anchor: middle; fill: #111827" x="911.708481" y="433.032894" transform="rotate(-0 911.708481 433.032894)">royal</text>
    </g>
   </g>
   <g id="text_38">
    <g clip-path="url(#p26d755cbce)">
     <text style="font-size: 7.6px; font-family: 'DejaVu Sans', 'Bitstream Vera Sans', 'Computer Modern Sans Serif', 'Lucida Grande', 'Verdana', 'Geneva', 'Lucid', 'Arial', 'Helvetica', 'Avant Garde', sans-serif; text-anchor: middle; fill: #111827" x="901.89457" y="311.618798" transform="rotate(-0 901.89457 311.618798)">wise</text>
    </g>
   </g>
   <g id="text_39">
    <g clip-path="url(#p26d755cbce)">
     <text style="font-size: 7.6px; font-family: 'DejaVu Sans', 'Bitstream Vera Sans', 'Computer Modern Sans Serif', 'Lucida Grande', 'Verdana', 'Geneva', 'Lucid', 'Arial', 'Helvetica', 'Avant Garde', sans-serif; text-anchor: middle; fill: #111827" x="945.032425" y="449.271553" transform="rotate(-0 945.032425 449.271553)">great</text>
    </g>
   </g>
   <g id="text_40">
    <g clip-path="url(#p26d755cbce)">
     <text style="font-size: 7.6px; font-family: 'DejaVu Sans', 'Bitstream Vera Sans', 'Computer Modern Sans Serif', 'Lucida Grande', 'Verdana', 'Geneva', 'Lucid', 'Arial', 'Helvetica', 'Avant Garde', sans-serif; text-anchor: middle; fill: #111827" x="1145.035309" y="496.587646" transform="rotate(-0 1145.035309 496.587646)">sad</text>
    </g>
   </g>
   <g id="text_41">
    <g clip-path="url(#p26d755cbce)">
     <text style="font-size: 7.6px; font-family: 'DejaVu Sans', 'Bitstream Vera Sans', 'Computer Modern Sans Serif', 'Lucida Grande', 'Verdana', 'Geneva', 'Lucid', 'Arial', 'Helvetica', 'Avant Garde', sans-serif; text-anchor: middle; fill: #111827" x="1172.879335" y="382.474478" transform="rotate(-0 1172.879335 382.474478)">wide</text>
    </g>
   </g>
   <g id="text_42">
    <g clip-path="url(#p26d755cbce)">
     <text style="font-size: 7.6px; font-family: 'DejaVu Sans', 'Bitstream Vera Sans', 'Computer Modern Sans Serif', 'Lucida Grande', 'Verdana', 'Geneva', 'Lucid', 'Arial', 'Helvetica', 'Avant Garde', sans-serif; text-anchor: middle; fill: #111827" x="997.390251" y="495.204354" transform="rotate(-0 997.390251 495.204354)">divine</text>
    </g>
   </g>
   <g id="text_43">
    <g clip-path="url(#p26d755cbce)">
     <text style="font-size: 7.6px; font-family: 'DejaVu Sans', 'Bitstream Vera Sans', 'Computer Modern Sans Serif', 'Lucida Grande', 'Verdana', 'Geneva', 'Lucid', 'Arial', 'Helvetica', 'Avant Garde', sans-serif; text-anchor: middle; fill: #111827" x="957.509395" y="319.911462" transform="rotate(-0 957.509395 319.911462)">mighty</text>
    </g>
   </g>
   <g id="text_44">
    <g clip-path="url(#p26d755cbce)">
     <text style="font-size: 7.6px; font-family: 'DejaVu Sans', 'Bitstream Vera Sans', 'Computer Modern Sans Serif', 'Lucida Grande', 'Verdana', 'Geneva', 'Lucid', 'Arial', 'Helvetica', 'Avant Garde', sans-serif; text-anchor: middle; fill: #111827" x="1225.358761" y="376.667711" transform="rotate(-0 1225.358761 376.667711)">deep</text>
    </g>
   </g>
  </g>
  <g id="text_45">
   <text style="font-weight: 700; font-size: 22px; font-family: 'DejaVu Sans'; text-anchor: start; fill: #111827" x="18" y="23.916562" transform="rotate(-0 18 23.916562)">Alexander Pope (1726) — Native target-as-hyperedge visualization</text>
  </g>
  <g id="text_46">
   <text style="font-size: 11px; font-family: 'DejaVu Sans'; text-anchor: start; fill: #475569" x="18" y="42.84" transform="rotate(-0 18 42.84)">Readable weighted core: 34 of 141 attribute nodes; 10 of 89 target hyperedges; 220 of 1320 incidences.</text>
  </g>
  <g id="text_47">
   <text style="font-size: 9px; font-family: 'DejaVu Sans'; text-anchor: start; fill: #475569" x="18" y="755.64" transform="rotate(-0 18 755.64)">Attribute circles and target hyperedges use the colors specified in config/visualizations.json.</text>
  </g>
 </g>
 <defs>
  <clipPath id="pc554e67f7a">
   <rect x="7.2" y="122.72" width="678.6" height="602.32"/>
  </clipPath>
  <clipPath id="p26d755cbce">
   <rect x="696.6" y="122.72" width="678.6" height="602.32"/>
  </clipPath>
 </defs>
</svg>
